<?xml version="1.0" encoding="utf-8"?>
<svg xmlns="http://www.w3.org/2000/svg" xmlns:xlink="http://www.w3.org/1999/xlink" width="500" height="400" viewBox="0 0 2000 1600">
<defs>
  <clipPath id="clip430">
    <rect x="0" y="0" width="2000" height="1600"/>
  </clipPath>
</defs>
<path clip-path="url(#clip430)" d="M0 1600 L2000 1600 L2000 0 L0 0  Z" fill="#ffffff" fill-rule="evenodd" fill-opacity="1"/>
<defs>
  <clipPath id="clip431">
    <rect x="400" y="0" width="1401" height="1401"/>
  </clipPath>
</defs>
<path clip-path="url(#clip430)" d="M262.708 1406.76 L1952.76 1406.76 L1952.76 47.2441 L262.708 47.2441  Z" fill="#ffffff" fill-rule="evenodd" fill-opacity="1"/>
<defs>
  <clipPath id="clip432">
    <rect x="262" y="47" width="1691" height="1361"/>
  </clipPath>
</defs>
<polyline clip-path="url(#clip432)" style="stroke:#000000; stroke-linecap:round; stroke-linejoin:round; stroke-width:2; stroke-opacity:0.1; fill:none" points="273.758,1406.76 273.758,47.2441 "/>
<polyline clip-path="url(#clip432)" style="stroke:#000000; stroke-linecap:round; stroke-linejoin:round; stroke-width:2; stroke-opacity:0.1; fill:none" points="673.976,1406.76 673.976,47.2441 "/>
<polyline clip-path="url(#clip432)" style="stroke:#000000; stroke-linecap:round; stroke-linejoin:round; stroke-width:2; stroke-opacity:0.1; fill:none" points="1074.19,1406.76 1074.19,47.2441 "/>
<polyline clip-path="url(#clip432)" style="stroke:#000000; stroke-linecap:round; stroke-linejoin:round; stroke-width:2; stroke-opacity:0.1; fill:none" points="1474.41,1406.76 1474.41,47.2441 "/>
<polyline clip-path="url(#clip432)" style="stroke:#000000; stroke-linecap:round; stroke-linejoin:round; stroke-width:2; stroke-opacity:0.1; fill:none" points="1874.63,1406.76 1874.63,47.2441 "/>
<polyline clip-path="url(#clip430)" style="stroke:#000000; stroke-linecap:round; stroke-linejoin:round; stroke-width:4; stroke-opacity:1; fill:none" points="262.708,1406.76 1952.76,1406.76 "/>
<polyline clip-path="url(#clip430)" style="stroke:#000000; stroke-linecap:round; stroke-linejoin:round; stroke-width:4; stroke-opacity:1; fill:none" points="273.758,1406.76 273.758,1387.87 "/>
<polyline clip-path="url(#clip430)" style="stroke:#000000; stroke-linecap:round; stroke-linejoin:round; stroke-width:4; stroke-opacity:1; fill:none" points="673.976,1406.76 673.976,1387.87 "/>
<polyline clip-path="url(#clip430)" style="stroke:#000000; stroke-linecap:round; stroke-linejoin:round; stroke-width:4; stroke-opacity:1; fill:none" points="1074.19,1406.76 1074.19,1387.87 "/>
<polyline clip-path="url(#clip430)" style="stroke:#000000; stroke-linecap:round; stroke-linejoin:round; stroke-width:4; stroke-opacity:1; fill:none" points="1474.41,1406.76 1474.41,1387.87 "/>
<polyline clip-path="url(#clip430)" style="stroke:#000000; stroke-linecap:round; stroke-linejoin:round; stroke-width:4; stroke-opacity:1; fill:none" points="1874.63,1406.76 1874.63,1387.87 "/>
<path clip-path="url(#clip430)" d="M220.205 1449.14 L249.881 1449.14 L249.881 1453.07 L220.205 1453.07 L220.205 1449.14 Z" fill="#000000" fill-rule="nonzero" fill-opacity="1" /><path clip-path="url(#clip430)" d="M269.973 1434.48 Q266.362 1434.48 264.534 1438.05 Q262.728 1441.59 262.728 1448.72 Q262.728 1455.83 264.534 1459.39 Q266.362 1462.93 269.973 1462.93 Q273.608 1462.93 275.413 1459.39 Q277.242 1455.83 277.242 1448.72 Q277.242 1441.59 275.413 1438.05 Q273.608 1434.48 269.973 1434.48 M269.973 1430.78 Q275.784 1430.78 278.839 1435.39 Q281.918 1439.97 281.918 1448.72 Q281.918 1457.45 278.839 1462.05 Q275.784 1466.64 269.973 1466.64 Q264.163 1466.64 261.085 1462.05 Q258.029 1457.45 258.029 1448.72 Q258.029 1439.97 261.085 1435.39 Q264.163 1430.78 269.973 1430.78 Z" fill="#000000" fill-rule="nonzero" fill-opacity="1" /><path clip-path="url(#clip430)" d="M290.135 1460.08 L295.02 1460.08 L295.02 1465.96 L290.135 1465.96 L290.135 1460.08 Z" fill="#000000" fill-rule="nonzero" fill-opacity="1" /><path clip-path="url(#clip430)" d="M315.783 1446.82 Q312.635 1446.82 310.783 1448.97 Q308.955 1451.13 308.955 1454.88 Q308.955 1458.6 310.783 1460.78 Q312.635 1462.93 315.783 1462.93 Q318.931 1462.93 320.76 1460.78 Q322.612 1458.6 322.612 1454.88 Q322.612 1451.13 320.76 1448.97 Q318.931 1446.82 315.783 1446.82 M325.066 1432.17 L325.066 1436.43 Q323.306 1435.59 321.501 1435.15 Q319.718 1434.71 317.959 1434.71 Q313.33 1434.71 310.876 1437.84 Q308.445 1440.96 308.098 1447.28 Q309.464 1445.27 311.524 1444.2 Q313.584 1443.12 316.061 1443.12 Q321.269 1443.12 324.279 1446.29 Q327.311 1449.44 327.311 1454.88 Q327.311 1460.2 324.163 1463.42 Q321.015 1466.64 315.783 1466.64 Q309.788 1466.64 306.617 1462.05 Q303.445 1457.45 303.445 1448.72 Q303.445 1440.52 307.334 1435.66 Q311.223 1430.78 317.774 1430.78 Q319.533 1430.78 321.316 1431.13 Q323.121 1431.47 325.066 1432.17 Z" fill="#000000" fill-rule="nonzero" fill-opacity="1" /><path clip-path="url(#clip430)" d="M620.261 1449.14 L649.937 1449.14 L649.937 1453.07 L620.261 1453.07 L620.261 1449.14 Z" fill="#000000" fill-rule="nonzero" fill-opacity="1" /><path clip-path="url(#clip430)" d="M670.029 1434.48 Q666.418 1434.48 664.59 1438.05 Q662.784 1441.59 662.784 1448.72 Q662.784 1455.83 664.59 1459.39 Q666.418 1462.93 670.029 1462.93 Q673.664 1462.93 675.469 1459.39 Q677.298 1455.83 677.298 1448.72 Q677.298 1441.59 675.469 1438.05 Q673.664 1434.48 670.029 1434.48 M670.029 1430.78 Q675.84 1430.78 678.895 1435.39 Q681.974 1439.97 681.974 1448.72 Q681.974 1457.45 678.895 1462.05 Q675.84 1466.64 670.029 1466.64 Q664.219 1466.64 661.141 1462.05 Q658.085 1457.45 658.085 1448.72 Q658.085 1439.97 661.141 1435.39 Q664.219 1430.78 670.029 1430.78 Z" fill="#000000" fill-rule="nonzero" fill-opacity="1" /><path clip-path="url(#clip430)" d="M690.191 1460.08 L695.076 1460.08 L695.076 1465.96 L690.191 1465.96 L690.191 1460.08 Z" fill="#000000" fill-rule="nonzero" fill-opacity="1" /><path clip-path="url(#clip430)" d="M718.108 1435.48 L706.302 1453.93 L718.108 1453.93 L718.108 1435.48 M716.881 1431.4 L722.761 1431.4 L722.761 1453.93 L727.691 1453.93 L727.691 1457.82 L722.761 1457.82 L722.761 1465.96 L718.108 1465.96 L718.108 1457.82 L702.506 1457.82 L702.506 1453.3 L716.881 1431.4 Z" fill="#000000" fill-rule="nonzero" fill-opacity="1" /><path clip-path="url(#clip430)" d="M1021.52 1449.14 L1051.2 1449.14 L1051.2 1453.07 L1021.52 1453.07 L1021.52 1449.14 Z" fill="#000000" fill-rule="nonzero" fill-opacity="1" /><path clip-path="url(#clip430)" d="M1071.29 1434.48 Q1067.68 1434.48 1065.85 1438.05 Q1064.04 1441.59 1064.04 1448.72 Q1064.04 1455.83 1065.85 1459.39 Q1067.68 1462.93 1071.29 1462.93 Q1074.92 1462.93 1076.73 1459.39 Q1078.56 1455.83 1078.56 1448.72 Q1078.56 1441.59 1076.73 1438.05 Q1074.92 1434.48 1071.29 1434.48 M1071.29 1430.78 Q1077.1 1430.78 1080.15 1435.39 Q1083.23 1439.97 1083.23 1448.72 Q1083.23 1457.45 1080.15 1462.05 Q1077.1 1466.64 1071.29 1466.64 Q1065.48 1466.64 1062.4 1462.05 Q1059.34 1457.45 1059.34 1448.72 Q1059.34 1439.97 1062.4 1435.39 Q1065.48 1430.78 1071.29 1430.78 Z" fill="#000000" fill-rule="nonzero" fill-opacity="1" /><path clip-path="url(#clip430)" d="M1091.45 1460.08 L1096.34 1460.08 L1096.34 1465.96 L1091.45 1465.96 L1091.45 1460.08 Z" fill="#000000" fill-rule="nonzero" fill-opacity="1" /><path clip-path="url(#clip430)" d="M1110.55 1462.03 L1126.87 1462.03 L1126.87 1465.96 L1104.92 1465.96 L1104.92 1462.03 Q1107.59 1459.27 1112.17 1454.64 Q1116.77 1449.99 1117.96 1448.65 Q1120.2 1446.13 1121.08 1444.39 Q1121.98 1442.63 1121.98 1440.94 Q1121.98 1438.19 1120.04 1436.45 Q1118.12 1434.71 1115.02 1434.71 Q1112.82 1434.71 1110.36 1435.48 Q1107.93 1436.24 1105.15 1437.79 L1105.15 1433.07 Q1107.98 1431.94 1110.43 1431.36 Q1112.89 1430.78 1114.92 1430.78 Q1120.29 1430.78 1123.49 1433.46 Q1126.68 1436.15 1126.68 1440.64 Q1126.68 1442.77 1125.87 1444.69 Q1125.09 1446.59 1122.98 1449.18 Q1122.4 1449.85 1119.3 1453.07 Q1116.2 1456.26 1110.55 1462.03 Z" fill="#000000" fill-rule="nonzero" fill-opacity="1" /><path clip-path="url(#clip430)" d="M1451.8 1434.48 Q1448.19 1434.48 1446.36 1438.05 Q1444.55 1441.59 1444.55 1448.72 Q1444.55 1455.83 1446.36 1459.39 Q1448.19 1462.93 1451.8 1462.93 Q1455.43 1462.93 1457.24 1459.39 Q1459.07 1455.83 1459.07 1448.72 Q1459.07 1441.59 1457.24 1438.05 Q1455.43 1434.48 1451.8 1434.48 M1451.8 1430.78 Q1457.61 1430.78 1460.66 1435.39 Q1463.74 1439.97 1463.74 1448.72 Q1463.74 1457.45 1460.66 1462.05 Q1457.61 1466.64 1451.8 1466.64 Q1445.99 1466.64 1442.91 1462.05 Q1439.85 1457.45 1439.85 1448.72 Q1439.85 1439.97 1442.91 1435.39 Q1445.99 1430.78 1451.8 1430.78 Z" fill="#000000" fill-rule="nonzero" fill-opacity="1" /><path clip-path="url(#clip430)" d="M1471.96 1460.08 L1476.84 1460.08 L1476.84 1465.96 L1471.96 1465.96 L1471.96 1460.08 Z" fill="#000000" fill-rule="nonzero" fill-opacity="1" /><path clip-path="url(#clip430)" d="M1497.03 1434.48 Q1493.42 1434.48 1491.59 1438.05 Q1489.78 1441.59 1489.78 1448.72 Q1489.78 1455.83 1491.59 1459.39 Q1493.42 1462.93 1497.03 1462.93 Q1500.66 1462.93 1502.47 1459.39 Q1504.3 1455.83 1504.3 1448.72 Q1504.3 1441.59 1502.47 1438.05 Q1500.66 1434.48 1497.03 1434.48 M1497.03 1430.78 Q1502.84 1430.78 1505.89 1435.39 Q1508.97 1439.97 1508.97 1448.72 Q1508.97 1457.45 1505.89 1462.05 Q1502.84 1466.64 1497.03 1466.64 Q1491.22 1466.64 1488.14 1462.05 Q1485.08 1457.45 1485.08 1448.72 Q1485.08 1439.97 1488.14 1435.39 Q1491.22 1430.78 1497.03 1430.78 Z" fill="#000000" fill-rule="nonzero" fill-opacity="1" /><path clip-path="url(#clip430)" d="M1852.81 1434.48 Q1849.2 1434.48 1847.37 1438.05 Q1845.57 1441.59 1845.57 1448.72 Q1845.57 1455.83 1847.37 1459.39 Q1849.2 1462.93 1852.81 1462.93 Q1856.45 1462.93 1858.25 1459.39 Q1860.08 1455.83 1860.08 1448.72 Q1860.08 1441.59 1858.25 1438.05 Q1856.45 1434.48 1852.81 1434.48 M1852.81 1430.78 Q1858.62 1430.78 1861.68 1435.39 Q1864.76 1439.97 1864.76 1448.72 Q1864.76 1457.45 1861.68 1462.05 Q1858.62 1466.64 1852.81 1466.64 Q1847 1466.64 1843.92 1462.05 Q1840.87 1457.45 1840.87 1448.72 Q1840.87 1439.97 1843.92 1435.39 Q1847 1430.78 1852.81 1430.78 Z" fill="#000000" fill-rule="nonzero" fill-opacity="1" /><path clip-path="url(#clip430)" d="M1872.98 1460.08 L1877.86 1460.08 L1877.86 1465.96 L1872.98 1465.96 L1872.98 1460.08 Z" fill="#000000" fill-rule="nonzero" fill-opacity="1" /><path clip-path="url(#clip430)" d="M1892.07 1462.03 L1908.39 1462.03 L1908.39 1465.96 L1886.45 1465.96 L1886.45 1462.03 Q1889.11 1459.27 1893.69 1454.64 Q1898.3 1449.99 1899.48 1448.65 Q1901.72 1446.13 1902.6 1444.39 Q1903.51 1442.63 1903.51 1440.94 Q1903.51 1438.19 1901.56 1436.45 Q1899.64 1434.71 1896.54 1434.71 Q1894.34 1434.71 1891.89 1435.48 Q1889.46 1436.24 1886.68 1437.79 L1886.68 1433.07 Q1889.5 1431.94 1891.96 1431.36 Q1894.41 1430.78 1896.45 1430.78 Q1901.82 1430.78 1905.01 1433.46 Q1908.21 1436.15 1908.21 1440.64 Q1908.21 1442.77 1907.4 1444.69 Q1906.61 1446.59 1904.5 1449.18 Q1903.92 1449.85 1900.82 1453.07 Q1897.72 1456.26 1892.07 1462.03 Z" fill="#000000" fill-rule="nonzero" fill-opacity="1" /><path clip-path="url(#clip430)" d="M993.165 1509.98 L999.022 1509.98 L999.022 1545.63 L993.165 1545.63 L993.165 1509.98 M993.165 1496.1 L999.022 1496.1 L999.022 1503.52 L993.165 1503.52 L993.165 1496.1 Z" fill="#000000" fill-rule="nonzero" fill-opacity="1" /><path clip-path="url(#clip430)" d="M1040.91 1524.11 L1040.91 1545.63 L1035.05 1545.63 L1035.05 1524.3 Q1035.05 1519.24 1033.08 1516.73 Q1031.1 1514.21 1027.16 1514.21 Q1022.42 1514.21 1019.68 1517.24 Q1016.94 1520.26 1016.94 1525.48 L1016.94 1545.63 L1011.05 1545.63 L1011.05 1509.98 L1016.94 1509.98 L1016.94 1515.52 Q1019.04 1512.3 1021.87 1510.71 Q1024.74 1509.12 1028.46 1509.12 Q1034.61 1509.12 1037.76 1512.94 Q1040.91 1516.73 1040.91 1524.11 Z" fill="#000000" fill-rule="nonzero" fill-opacity="1" /><path clip-path="url(#clip430)" d="M1078.24 1511.35 L1078.24 1516.82 Q1075.76 1515.45 1073.25 1514.79 Q1070.76 1514.09 1068.22 1514.09 Q1062.52 1514.09 1059.37 1517.71 Q1056.22 1521.31 1056.22 1527.84 Q1056.22 1534.36 1059.37 1537.99 Q1062.52 1541.59 1068.22 1541.59 Q1070.76 1541.59 1073.25 1540.92 Q1075.76 1540.22 1078.24 1538.85 L1078.24 1544.26 Q1075.79 1545.41 1073.15 1545.98 Q1070.54 1546.55 1067.58 1546.55 Q1059.53 1546.55 1054.79 1541.49 Q1050.04 1536.43 1050.04 1527.84 Q1050.04 1519.11 1054.82 1514.12 Q1059.62 1509.12 1067.96 1509.12 Q1070.67 1509.12 1073.25 1509.69 Q1075.82 1510.23 1078.24 1511.35 Z" fill="#000000" fill-rule="nonzero" fill-opacity="1" /><path clip-path="url(#clip430)" d="M1102.24 1514.09 Q1097.53 1514.09 1094.79 1517.78 Q1092.06 1521.44 1092.06 1527.84 Q1092.06 1534.23 1094.76 1537.93 Q1097.5 1541.59 1102.24 1541.59 Q1106.92 1541.59 1109.66 1537.89 Q1112.39 1534.2 1112.39 1527.84 Q1112.39 1521.5 1109.66 1517.81 Q1106.92 1514.09 1102.24 1514.09 M1102.24 1509.12 Q1109.88 1509.12 1114.24 1514.09 Q1118.6 1519.05 1118.6 1527.84 Q1118.6 1536.59 1114.24 1541.59 Q1109.88 1546.55 1102.24 1546.55 Q1094.57 1546.55 1090.21 1541.59 Q1085.88 1536.59 1085.88 1527.84 Q1085.88 1519.05 1090.21 1514.09 Q1094.57 1509.12 1102.24 1509.12 Z" fill="#000000" fill-rule="nonzero" fill-opacity="1" /><path clip-path="url(#clip430)" d="M1156.06 1516.82 Q1158.26 1512.88 1161.32 1511 Q1164.37 1509.12 1168.51 1509.12 Q1174.08 1509.12 1177.1 1513.04 Q1180.13 1516.92 1180.13 1524.11 L1180.13 1545.63 L1174.24 1545.63 L1174.24 1524.3 Q1174.24 1519.18 1172.42 1516.7 Q1170.61 1514.21 1166.89 1514.21 Q1162.33 1514.21 1159.69 1517.24 Q1157.05 1520.26 1157.05 1525.48 L1157.05 1545.63 L1151.16 1545.63 L1151.16 1524.3 Q1151.16 1519.15 1149.35 1516.7 Q1147.53 1514.21 1143.75 1514.21 Q1139.26 1514.21 1136.62 1517.27 Q1133.97 1520.29 1133.97 1525.48 L1133.97 1545.63 L1128.09 1545.63 L1128.09 1509.98 L1133.97 1509.98 L1133.97 1515.52 Q1135.98 1512.24 1138.78 1510.68 Q1141.58 1509.12 1145.43 1509.12 Q1149.32 1509.12 1152.02 1511.09 Q1154.76 1513.07 1156.06 1516.82 Z" fill="#000000" fill-rule="nonzero" fill-opacity="1" /><path clip-path="url(#clip430)" d="M1222.3 1526.34 L1222.3 1529.2 L1195.37 1529.2 Q1195.75 1535.25 1199 1538.43 Q1202.28 1541.59 1208.1 1541.59 Q1211.48 1541.59 1214.63 1540.76 Q1217.81 1539.93 1220.93 1538.28 L1220.93 1543.81 Q1217.78 1545.15 1214.47 1545.85 Q1211.16 1546.55 1207.75 1546.55 Q1199.22 1546.55 1194.23 1541.59 Q1189.26 1536.62 1189.26 1528.15 Q1189.26 1519.4 1193.97 1514.28 Q1198.71 1509.12 1206.73 1509.12 Q1213.93 1509.12 1218.1 1513.77 Q1222.3 1518.38 1222.3 1526.34 M1216.44 1524.62 Q1216.38 1519.81 1213.74 1516.95 Q1211.13 1514.09 1206.8 1514.09 Q1201.9 1514.09 1198.94 1516.85 Q1196.01 1519.62 1195.56 1524.65 L1216.44 1524.62 Z" fill="#000000" fill-rule="nonzero" fill-opacity="1" /><polyline clip-path="url(#clip432)" style="stroke:#000000; stroke-linecap:round; stroke-linejoin:round; stroke-width:2; stroke-opacity:0.1; fill:none" points="262.708,1228.05 1952.76,1228.05 "/>
<polyline clip-path="url(#clip432)" style="stroke:#000000; stroke-linecap:round; stroke-linejoin:round; stroke-width:2; stroke-opacity:0.1; fill:none" points="262.708,1019.47 1952.76,1019.47 "/>
<polyline clip-path="url(#clip432)" style="stroke:#000000; stroke-linecap:round; stroke-linejoin:round; stroke-width:2; stroke-opacity:0.1; fill:none" points="262.708,810.884 1952.76,810.884 "/>
<polyline clip-path="url(#clip432)" style="stroke:#000000; stroke-linecap:round; stroke-linejoin:round; stroke-width:2; stroke-opacity:0.1; fill:none" points="262.708,602.299 1952.76,602.299 "/>
<polyline clip-path="url(#clip432)" style="stroke:#000000; stroke-linecap:round; stroke-linejoin:round; stroke-width:2; stroke-opacity:0.1; fill:none" points="262.708,393.714 1952.76,393.714 "/>
<polyline clip-path="url(#clip432)" style="stroke:#000000; stroke-linecap:round; stroke-linejoin:round; stroke-width:2; stroke-opacity:0.1; fill:none" points="262.708,185.129 1952.76,185.129 "/>
<polyline clip-path="url(#clip430)" style="stroke:#000000; stroke-linecap:round; stroke-linejoin:round; stroke-width:4; stroke-opacity:1; fill:none" points="262.708,1406.76 262.708,47.2441 "/>
<polyline clip-path="url(#clip430)" style="stroke:#000000; stroke-linecap:round; stroke-linejoin:round; stroke-width:4; stroke-opacity:1; fill:none" points="262.708,1228.05 281.606,1228.05 "/>
<polyline clip-path="url(#clip430)" style="stroke:#000000; stroke-linecap:round; stroke-linejoin:round; stroke-width:4; stroke-opacity:1; fill:none" points="262.708,1019.47 281.606,1019.47 "/>
<polyline clip-path="url(#clip430)" style="stroke:#000000; stroke-linecap:round; stroke-linejoin:round; stroke-width:4; stroke-opacity:1; fill:none" points="262.708,810.884 281.606,810.884 "/>
<polyline clip-path="url(#clip430)" style="stroke:#000000; stroke-linecap:round; stroke-linejoin:round; stroke-width:4; stroke-opacity:1; fill:none" points="262.708,602.299 281.606,602.299 "/>
<polyline clip-path="url(#clip430)" style="stroke:#000000; stroke-linecap:round; stroke-linejoin:round; stroke-width:4; stroke-opacity:1; fill:none" points="262.708,393.714 281.606,393.714 "/>
<polyline clip-path="url(#clip430)" style="stroke:#000000; stroke-linecap:round; stroke-linejoin:round; stroke-width:4; stroke-opacity:1; fill:none" points="262.708,185.129 281.606,185.129 "/>
<path clip-path="url(#clip430)" d="M125.764 1228.5 L155.44 1228.5 L155.44 1232.44 L125.764 1232.44 L125.764 1228.5 Z" fill="#000000" fill-rule="nonzero" fill-opacity="1" /><path clip-path="url(#clip430)" d="M166.343 1241.4 L173.981 1241.4 L173.981 1215.03 L165.671 1216.7 L165.671 1212.44 L173.935 1210.77 L178.611 1210.77 L178.611 1241.4 L186.25 1241.4 L186.25 1245.33 L166.343 1245.33 L166.343 1241.4 Z" fill="#000000" fill-rule="nonzero" fill-opacity="1" /><path clip-path="url(#clip430)" d="M195.694 1239.45 L200.579 1239.45 L200.579 1245.33 L195.694 1245.33 L195.694 1239.45 Z" fill="#000000" fill-rule="nonzero" fill-opacity="1" /><path clip-path="url(#clip430)" d="M220.764 1213.85 Q217.153 1213.85 215.324 1217.42 Q213.518 1220.96 213.518 1228.09 Q213.518 1235.19 215.324 1238.76 Q217.153 1242.3 220.764 1242.3 Q224.398 1242.3 226.203 1238.76 Q228.032 1235.19 228.032 1228.09 Q228.032 1220.96 226.203 1217.42 Q224.398 1213.85 220.764 1213.85 M220.764 1210.15 Q226.574 1210.15 229.629 1214.75 Q232.708 1219.34 232.708 1228.09 Q232.708 1236.81 229.629 1241.42 Q226.574 1246 220.764 1246 Q214.953 1246 211.875 1241.42 Q208.819 1236.81 208.819 1228.09 Q208.819 1219.34 211.875 1214.75 Q214.953 1210.15 220.764 1210.15 Z" fill="#000000" fill-rule="nonzero" fill-opacity="1" /><path clip-path="url(#clip430)" d="M126.76 1019.92 L156.435 1019.92 L156.435 1023.86 L126.76 1023.86 L126.76 1019.92 Z" fill="#000000" fill-rule="nonzero" fill-opacity="1" /><path clip-path="url(#clip430)" d="M176.528 1005.27 Q172.917 1005.27 171.088 1008.83 Q169.282 1012.37 169.282 1019.5 Q169.282 1026.61 171.088 1030.17 Q172.917 1033.72 176.528 1033.72 Q180.162 1033.72 181.968 1030.17 Q183.796 1026.61 183.796 1019.5 Q183.796 1012.37 181.968 1008.83 Q180.162 1005.27 176.528 1005.27 M176.528 1001.56 Q182.338 1001.56 185.393 1006.17 Q188.472 1010.75 188.472 1019.5 Q188.472 1028.23 185.393 1032.84 Q182.338 1037.42 176.528 1037.42 Q170.718 1037.42 167.639 1032.84 Q164.583 1028.23 164.583 1019.5 Q164.583 1010.75 167.639 1006.17 Q170.718 1001.56 176.528 1001.56 Z" fill="#000000" fill-rule="nonzero" fill-opacity="1" /><path clip-path="url(#clip430)" d="M196.69 1030.87 L201.574 1030.87 L201.574 1036.75 L196.69 1036.75 L196.69 1030.87 Z" fill="#000000" fill-rule="nonzero" fill-opacity="1" /><path clip-path="url(#clip430)" d="M211.805 1002.19 L230.162 1002.19 L230.162 1006.12 L216.088 1006.12 L216.088 1014.6 Q217.106 1014.25 218.125 1014.09 Q219.143 1013.9 220.162 1013.9 Q225.949 1013.9 229.328 1017.07 Q232.708 1020.24 232.708 1025.66 Q232.708 1031.24 229.236 1034.34 Q225.764 1037.42 219.444 1037.42 Q217.268 1037.42 215 1037.05 Q212.754 1036.68 210.347 1035.94 L210.347 1031.24 Q212.43 1032.37 214.653 1032.93 Q216.875 1033.48 219.352 1033.48 Q223.356 1033.48 225.694 1031.38 Q228.032 1029.27 228.032 1025.66 Q228.032 1022.05 225.694 1019.94 Q223.356 1017.84 219.352 1017.84 Q217.477 1017.84 215.602 1018.25 Q213.75 1018.67 211.805 1019.55 L211.805 1002.19 Z" fill="#000000" fill-rule="nonzero" fill-opacity="1" /><path clip-path="url(#clip430)" d="M175.532 796.682 Q171.921 796.682 170.093 800.247 Q168.287 803.789 168.287 810.918 Q168.287 818.025 170.093 821.59 Q171.921 825.131 175.532 825.131 Q179.167 825.131 180.972 821.59 Q182.801 818.025 182.801 810.918 Q182.801 803.789 180.972 800.247 Q179.167 796.682 175.532 796.682 M175.532 792.979 Q181.343 792.979 184.398 797.585 Q187.477 802.168 187.477 810.918 Q187.477 819.645 184.398 824.252 Q181.343 828.835 175.532 828.835 Q169.722 828.835 166.644 824.252 Q163.588 819.645 163.588 810.918 Q163.588 802.168 166.644 797.585 Q169.722 792.979 175.532 792.979 Z" fill="#000000" fill-rule="nonzero" fill-opacity="1" /><path clip-path="url(#clip430)" d="M195.694 822.284 L200.579 822.284 L200.579 828.164 L195.694 828.164 L195.694 822.284 Z" fill="#000000" fill-rule="nonzero" fill-opacity="1" /><path clip-path="url(#clip430)" d="M220.764 796.682 Q217.153 796.682 215.324 800.247 Q213.518 803.789 213.518 810.918 Q213.518 818.025 215.324 821.59 Q217.153 825.131 220.764 825.131 Q224.398 825.131 226.203 821.59 Q228.032 818.025 228.032 810.918 Q228.032 803.789 226.203 800.247 Q224.398 796.682 220.764 796.682 M220.764 792.979 Q226.574 792.979 229.629 797.585 Q232.708 802.168 232.708 810.918 Q232.708 819.645 229.629 824.252 Q226.574 828.835 220.764 828.835 Q214.953 828.835 211.875 824.252 Q208.819 819.645 208.819 810.918 Q208.819 802.168 211.875 797.585 Q214.953 792.979 220.764 792.979 Z" fill="#000000" fill-rule="nonzero" fill-opacity="1" /><path clip-path="url(#clip430)" d="M176.528 588.097 Q172.917 588.097 171.088 591.662 Q169.282 595.204 169.282 602.333 Q169.282 609.44 171.088 613.005 Q172.917 616.546 176.528 616.546 Q180.162 616.546 181.968 613.005 Q183.796 609.44 183.796 602.333 Q183.796 595.204 181.968 591.662 Q180.162 588.097 176.528 588.097 M176.528 584.394 Q182.338 584.394 185.393 589 Q188.472 593.584 188.472 602.333 Q188.472 611.06 185.393 615.667 Q182.338 620.25 176.528 620.25 Q170.718 620.25 167.639 615.667 Q164.583 611.06 164.583 602.333 Q164.583 593.584 167.639 589 Q170.718 584.394 176.528 584.394 Z" fill="#000000" fill-rule="nonzero" fill-opacity="1" /><path clip-path="url(#clip430)" d="M196.69 613.699 L201.574 613.699 L201.574 619.579 L196.69 619.579 L196.69 613.699 Z" fill="#000000" fill-rule="nonzero" fill-opacity="1" /><path clip-path="url(#clip430)" d="M211.805 585.019 L230.162 585.019 L230.162 588.954 L216.088 588.954 L216.088 597.426 Q217.106 597.079 218.125 596.917 Q219.143 596.732 220.162 596.732 Q225.949 596.732 229.328 599.903 Q232.708 603.074 232.708 608.491 Q232.708 614.07 229.236 617.171 Q225.764 620.25 219.444 620.25 Q217.268 620.25 215 619.88 Q212.754 619.509 210.347 618.769 L210.347 614.07 Q212.43 615.204 214.653 615.759 Q216.875 616.315 219.352 616.315 Q223.356 616.315 225.694 614.208 Q228.032 612.102 228.032 608.491 Q228.032 604.88 225.694 602.773 Q223.356 600.667 219.352 600.667 Q217.477 600.667 215.602 601.083 Q213.75 601.5 211.805 602.38 L211.805 585.019 Z" fill="#000000" fill-rule="nonzero" fill-opacity="1" /><path clip-path="url(#clip430)" d="M166.343 407.059 L173.981 407.059 L173.981 380.693 L165.671 382.36 L165.671 378.101 L173.935 376.434 L178.611 376.434 L178.611 407.059 L186.25 407.059 L186.25 410.994 L166.343 410.994 L166.343 407.059 Z" fill="#000000" fill-rule="nonzero" fill-opacity="1" /><path clip-path="url(#clip430)" d="M195.694 405.114 L200.579 405.114 L200.579 410.994 L195.694 410.994 L195.694 405.114 Z" fill="#000000" fill-rule="nonzero" fill-opacity="1" /><path clip-path="url(#clip430)" d="M220.764 379.513 Q217.153 379.513 215.324 383.077 Q213.518 386.619 213.518 393.749 Q213.518 400.855 215.324 404.42 Q217.153 407.961 220.764 407.961 Q224.398 407.961 226.203 404.42 Q228.032 400.855 228.032 393.749 Q228.032 386.619 226.203 383.077 Q224.398 379.513 220.764 379.513 M220.764 375.809 Q226.574 375.809 229.629 380.415 Q232.708 384.999 232.708 393.749 Q232.708 402.475 229.629 407.082 Q226.574 411.665 220.764 411.665 Q214.953 411.665 211.875 407.082 Q208.819 402.475 208.819 393.749 Q208.819 384.999 211.875 380.415 Q214.953 375.809 220.764 375.809 Z" fill="#000000" fill-rule="nonzero" fill-opacity="1" /><path clip-path="url(#clip430)" d="M167.338 198.474 L174.977 198.474 L174.977 172.108 L166.667 173.775 L166.667 169.516 L174.931 167.849 L179.606 167.849 L179.606 198.474 L187.245 198.474 L187.245 202.409 L167.338 202.409 L167.338 198.474 Z" fill="#000000" fill-rule="nonzero" fill-opacity="1" /><path clip-path="url(#clip430)" d="M196.69 196.529 L201.574 196.529 L201.574 202.409 L196.69 202.409 L196.69 196.529 Z" fill="#000000" fill-rule="nonzero" fill-opacity="1" /><path clip-path="url(#clip430)" d="M211.805 167.849 L230.162 167.849 L230.162 171.784 L216.088 171.784 L216.088 180.256 Q217.106 179.909 218.125 179.747 Q219.143 179.562 220.162 179.562 Q225.949 179.562 229.328 182.733 Q232.708 185.904 232.708 191.321 Q232.708 196.9 229.236 200.002 Q225.764 203.08 219.444 203.08 Q217.268 203.08 215 202.71 Q212.754 202.34 210.347 201.599 L210.347 196.9 Q212.43 198.034 214.653 198.59 Q216.875 199.145 219.352 199.145 Q223.356 199.145 225.694 197.039 Q228.032 194.932 228.032 191.321 Q228.032 187.71 225.694 185.604 Q223.356 183.497 219.352 183.497 Q217.477 183.497 215.602 183.914 Q213.75 184.33 211.805 185.21 L211.805 167.849 Z" fill="#000000" fill-rule="nonzero" fill-opacity="1" /><path clip-path="url(#clip430)" d="M63.5887 765.596 Q63.5887 772.694 65.2119 775.431 Q66.8352 778.168 70.7501 778.168 Q73.8693 778.168 75.7154 776.131 Q77.5296 774.062 77.5296 770.529 Q77.5296 765.66 74.0921 762.731 Q70.6228 759.771 64.8937 759.771 L63.5887 759.771 L63.5887 765.596 M61.1697 753.915 L81.5082 753.915 L81.5082 759.771 L76.0973 759.771 Q79.3438 761.777 80.9034 764.769 Q82.4312 767.76 82.4312 772.089 Q82.4312 777.564 79.3756 780.81 Q76.2883 784.025 71.1321 784.025 Q65.1165 784.025 62.0609 780.014 Q59.0054 775.972 59.0054 767.983 L59.0054 759.771 L58.4325 759.771 Q54.3902 759.771 52.1941 762.445 Q49.9661 765.087 49.9661 769.893 Q49.9661 772.948 50.6981 775.845 Q51.4302 778.741 52.8943 781.415 L47.4835 781.415 Q46.2421 778.2 45.6374 775.176 Q45.0008 772.153 45.0008 769.288 Q45.0008 761.554 49.0112 757.734 Q53.0216 753.915 61.1697 753.915 Z" fill="#000000" fill-rule="nonzero" fill-opacity="1" /><path clip-path="url(#clip430)" d="M63.2704 718.394 Q56.9047 718.394 53.4036 721.036 Q49.9024 723.646 49.9024 728.389 Q49.9024 733.099 53.4036 735.741 Q56.9047 738.351 63.2704 738.351 Q69.6043 738.351 73.1054 735.741 Q76.6066 733.099 76.6066 728.389 Q76.6066 723.646 73.1054 721.036 Q69.6043 718.394 63.2704 718.394 M77.084 712.538 Q86.187 712.538 90.6111 716.58 Q95.0671 720.622 95.0671 728.961 Q95.0671 732.049 94.5897 734.786 Q94.1441 737.523 93.1892 740.101 L87.4919 740.101 Q88.8924 737.523 89.5608 735.009 Q90.2292 732.494 90.2292 729.884 Q90.2292 724.123 87.2055 721.259 Q84.2136 718.394 78.1343 718.394 L75.2379 718.394 Q78.389 720.209 79.9486 723.041 Q81.5082 725.874 81.5082 729.821 Q81.5082 736.377 76.5111 740.388 Q71.514 744.398 63.2704 744.398 Q54.995 744.398 49.9979 740.388 Q45.0008 736.377 45.0008 729.821 Q45.0008 725.874 46.5604 723.041 Q48.12 720.209 51.2711 718.394 L45.8602 718.394 L45.8602 712.538 L77.084 712.538 Z" fill="#000000" fill-rule="nonzero" fill-opacity="1" /><path clip-path="url(#clip430)" d="M62.2201 669.983 L65.0846 669.983 L65.0846 696.91 Q71.1321 696.528 74.3149 693.282 Q77.4659 690.003 77.4659 684.179 Q77.4659 680.805 76.6384 677.654 Q75.8109 674.471 74.1558 671.352 L79.6939 671.352 Q81.0307 674.503 81.731 677.813 Q82.4312 681.123 82.4312 684.529 Q82.4312 693.059 77.4659 698.056 Q72.5007 703.021 64.0343 703.021 Q55.2814 703.021 50.1571 698.311 Q45.0008 693.568 45.0008 685.547 Q45.0008 678.354 49.6478 674.185 Q54.2629 669.983 62.2201 669.983 M60.5013 675.84 Q55.6952 675.903 52.8306 678.545 Q49.9661 681.155 49.9661 685.484 Q49.9661 690.385 52.7352 693.345 Q55.5042 696.274 60.5332 696.719 L60.5013 675.84 Z" fill="#000000" fill-rule="nonzero" fill-opacity="1" /><circle clip-path="url(#clip432)" cx="673.38" cy="652.436" r="36" fill="#00a1ff" fill-rule="evenodd" fill-opacity="1" stroke="#000000" stroke-opacity="1" stroke-width="3.2"/>
<circle clip-path="url(#clip432)" cx="1373.28" cy="563.41" r="36" fill="#e69f00" fill-rule="evenodd" fill-opacity="1" stroke="#000000" stroke-opacity="1" stroke-width="3.2"/>
<polyline clip-path="url(#clip432)" style="stroke:#000000; stroke-linecap:round; stroke-linejoin:round; stroke-width:8; stroke-opacity:1; fill:none" points="673.38,652.436 1373.28,563.41 "/>
<polyline clip-path="url(#clip432)" style="stroke:#000000; stroke-linecap:round; stroke-linejoin:round; stroke-width:8; stroke-opacity:1; fill:none" points="1341.63,552.315 1373.28,563.41 1345.41,582.076 "/>
<polyline clip-path="url(#clip432)" style="stroke:#000000; stroke-linecap:round; stroke-linejoin:round; stroke-width:8; stroke-opacity:1; fill:none" points="1373.28,563.41 673.38,652.436 "/>
<circle clip-path="url(#clip432)" cx="310.54" cy="1308.63" r="36" fill="#00a1ff" fill-rule="evenodd" fill-opacity="1" stroke="#000000" stroke-opacity="1" stroke-width="3.2"/>
<circle clip-path="url(#clip432)" cx="1564.37" cy="624.559" r="36" fill="#e69f00" fill-rule="evenodd" fill-opacity="1" stroke="#000000" stroke-opacity="1" stroke-width="3.2"/>
<polyline clip-path="url(#clip432)" style="stroke:#000000; stroke-linecap:round; stroke-linejoin:round; stroke-width:8; stroke-opacity:1; fill:none" points="310.54,1308.63 1564.37,624.559 "/>
<polyline clip-path="url(#clip432)" style="stroke:#000000; stroke-linecap:round; stroke-linejoin:round; stroke-width:8; stroke-opacity:1; fill:none" points="1530.85,625.76 1564.37,624.559 1545.22,652.095 "/>
<polyline clip-path="url(#clip432)" style="stroke:#000000; stroke-linecap:round; stroke-linejoin:round; stroke-width:8; stroke-opacity:1; fill:none" points="1564.37,624.559 310.54,1308.63 "/>
<circle clip-path="url(#clip432)" cx="1041.39" cy="443.646" r="36" fill="#00a1ff" fill-rule="evenodd" fill-opacity="1" stroke="#000000" stroke-opacity="1" stroke-width="3.2"/>
<circle clip-path="url(#clip432)" cx="1631.4" cy="443.646" r="36" fill="#e69f00" fill-rule="evenodd" fill-opacity="1" stroke="#000000" stroke-opacity="1" stroke-width="3.2"/>
<polyline clip-path="url(#clip432)" style="stroke:#000000; stroke-linecap:round; stroke-linejoin:round; stroke-width:8; stroke-opacity:1; fill:none" points="1041.39,443.646 1631.4,443.646 "/>
<polyline clip-path="url(#clip432)" style="stroke:#000000; stroke-linecap:round; stroke-linejoin:round; stroke-width:8; stroke-opacity:1; fill:none" points="1601.4,428.646 1631.4,443.646 1601.4,458.646 "/>
<polyline clip-path="url(#clip432)" style="stroke:#000000; stroke-linecap:round; stroke-linejoin:round; stroke-width:8; stroke-opacity:1; fill:none" points="1631.4,443.646 1041.39,443.646 "/>
<circle clip-path="url(#clip432)" cx="1247.35" cy="801.572" r="36" fill="#00a1ff" fill-rule="evenodd" fill-opacity="1" stroke="#000000" stroke-opacity="1" stroke-width="3.2"/>
<circle clip-path="url(#clip432)" cx="1882.09" cy="576.032" r="36" fill="#e69f00" fill-rule="evenodd" fill-opacity="1" stroke="#000000" stroke-opacity="1" stroke-width="3.2"/>
<polyline clip-path="url(#clip432)" style="stroke:#000000; stroke-linecap:round; stroke-linejoin:round; stroke-width:8; stroke-opacity:1; fill:none" points="1247.35,801.572 1882.09,576.032 "/>
<polyline clip-path="url(#clip432)" style="stroke:#000000; stroke-linecap:round; stroke-linejoin:round; stroke-width:8; stroke-opacity:1; fill:none" points="1848.8,571.942 1882.09,576.032 1858.84,600.21 "/>
<polyline clip-path="url(#clip432)" style="stroke:#000000; stroke-linecap:round; stroke-linejoin:round; stroke-width:8; stroke-opacity:1; fill:none" points="1882.09,576.032 1247.35,801.572 "/>
<circle clip-path="url(#clip432)" cx="337.547" cy="294.511" r="36" fill="#00a1ff" fill-rule="evenodd" fill-opacity="1" stroke="#000000" stroke-opacity="1" stroke-width="3.2"/>
<circle clip-path="url(#clip432)" cx="1625" cy="294.511" r="36" fill="#e69f00" fill-rule="evenodd" fill-opacity="1" stroke="#000000" stroke-opacity="1" stroke-width="3.2"/>
<polyline clip-path="url(#clip432)" style="stroke:#000000; stroke-linecap:round; stroke-linejoin:round; stroke-width:8; stroke-opacity:1; fill:none" points="337.547,294.511 1625,294.511 "/>
<polyline clip-path="url(#clip432)" style="stroke:#000000; stroke-linecap:round; stroke-linejoin:round; stroke-width:8; stroke-opacity:1; fill:none" points="1595,279.511 1625,294.511 1595,309.511 "/>
<polyline clip-path="url(#clip432)" style="stroke:#000000; stroke-linecap:round; stroke-linejoin:round; stroke-width:8; stroke-opacity:1; fill:none" points="1625,294.511 337.547,294.511 "/>
<circle clip-path="url(#clip432)" cx="1337.3" cy="682.263" r="36" fill="#00a1ff" fill-rule="evenodd" fill-opacity="1" stroke="#000000" stroke-opacity="1" stroke-width="3.2"/>
<circle clip-path="url(#clip432)" cx="1459.9" cy="619.675" r="36" fill="#e69f00" fill-rule="evenodd" fill-opacity="1" stroke="#000000" stroke-opacity="1" stroke-width="3.2"/>
<polyline clip-path="url(#clip432)" style="stroke:#000000; stroke-linecap:round; stroke-linejoin:round; stroke-width:8; stroke-opacity:1; fill:none" points="1337.3,682.263 1459.9,619.675 "/>
<polyline clip-path="url(#clip432)" style="stroke:#000000; stroke-linecap:round; stroke-linejoin:round; stroke-width:8; stroke-opacity:1; fill:none" points="1426.36,619.955 1459.9,619.675 1440,646.675 "/>
<polyline clip-path="url(#clip432)" style="stroke:#000000; stroke-linecap:round; stroke-linejoin:round; stroke-width:8; stroke-opacity:1; fill:none" points="1459.9,619.675 1337.3,682.263 "/>
<circle clip-path="url(#clip432)" cx="1904.92" cy="1368.29" r="36" fill="#00a1ff" fill-rule="evenodd" fill-opacity="1" stroke="#000000" stroke-opacity="1" stroke-width="3.2"/>
<circle clip-path="url(#clip432)" cx="1729.87" cy="607.204" r="36" fill="#e69f00" fill-rule="evenodd" fill-opacity="1" stroke="#000000" stroke-opacity="1" stroke-width="3.2"/>
<polyline clip-path="url(#clip432)" style="stroke:#000000; stroke-linecap:round; stroke-linejoin:round; stroke-width:8; stroke-opacity:1; fill:none" points="1904.92,1368.29 1729.87,607.204 "/>
<polyline clip-path="url(#clip432)" style="stroke:#000000; stroke-linecap:round; stroke-linejoin:round; stroke-width:8; stroke-opacity:1; fill:none" points="1721.98,639.803 1729.87,607.204 1751.21,633.078 "/>
<polyline clip-path="url(#clip432)" style="stroke:#000000; stroke-linecap:round; stroke-linejoin:round; stroke-width:8; stroke-opacity:1; fill:none" points="1729.87,607.204 1904.92,1368.29 "/>
<circle clip-path="url(#clip432)" cx="636.744" cy="1129.67" r="36" fill="#00a1ff" fill-rule="evenodd" fill-opacity="1" stroke="#000000" stroke-opacity="1" stroke-width="3.2"/>
<circle clip-path="url(#clip432)" cx="1435.27" cy="610.707" r="36" fill="#e69f00" fill-rule="evenodd" fill-opacity="1" stroke="#000000" stroke-opacity="1" stroke-width="3.2"/>
<polyline clip-path="url(#clip432)" style="stroke:#000000; stroke-linecap:round; stroke-linejoin:round; stroke-width:8; stroke-opacity:1; fill:none" points="636.744,1129.67 1435.27,610.707 "/>
<polyline clip-path="url(#clip432)" style="stroke:#000000; stroke-linecap:round; stroke-linejoin:round; stroke-width:8; stroke-opacity:1; fill:none" points="1401.94,614.478 1435.27,610.707 1418.28,639.632 "/>
<polyline clip-path="url(#clip432)" style="stroke:#000000; stroke-linecap:round; stroke-linejoin:round; stroke-width:8; stroke-opacity:1; fill:none" points="1435.27,610.707 636.744,1129.67 "/>
<circle clip-path="url(#clip432)" cx="1833.53" cy="85.7211" r="36" fill="#00a1ff" fill-rule="evenodd" fill-opacity="1" stroke="#000000" stroke-opacity="1" stroke-width="3.2"/>
<circle clip-path="url(#clip432)" cx="1613.42" cy="85.7211" r="36" fill="#e69f00" fill-rule="evenodd" fill-opacity="1" stroke="#000000" stroke-opacity="1" stroke-width="3.2"/>
<polyline clip-path="url(#clip432)" style="stroke:#000000; stroke-linecap:round; stroke-linejoin:round; stroke-width:8; stroke-opacity:1; fill:none" points="1833.53,85.7211 1613.42,85.7211 "/>
<polyline clip-path="url(#clip432)" style="stroke:#000000; stroke-linecap:round; stroke-linejoin:round; stroke-width:8; stroke-opacity:1; fill:none" points="1643.42,100.721 1613.42,85.7211 1643.42,70.7211 "/>
<polyline clip-path="url(#clip432)" style="stroke:#000000; stroke-linecap:round; stroke-linejoin:round; stroke-width:8; stroke-opacity:1; fill:none" points="1613.42,85.7211 1833.53,85.7211 "/>
<circle clip-path="url(#clip432)" cx="989.016" cy="801.572" r="36" fill="#00a1ff" fill-rule="evenodd" fill-opacity="1" stroke="#000000" stroke-opacity="1" stroke-width="3.2"/>
<circle clip-path="url(#clip432)" cx="1610.1" cy="606.621" r="36" fill="#e69f00" fill-rule="evenodd" fill-opacity="1" stroke="#000000" stroke-opacity="1" stroke-width="3.2"/>
<polyline clip-path="url(#clip432)" style="stroke:#000000; stroke-linecap:round; stroke-linejoin:round; stroke-width:8; stroke-opacity:1; fill:none" points="989.016,801.572 1610.1,606.621 "/>
<polyline clip-path="url(#clip432)" style="stroke:#000000; stroke-linecap:round; stroke-linejoin:round; stroke-width:8; stroke-opacity:1; fill:none" points="1576.99,601.294 1610.1,606.621 1585.97,629.917 "/>
<polyline clip-path="url(#clip432)" style="stroke:#000000; stroke-linecap:round; stroke-linejoin:round; stroke-width:8; stroke-opacity:1; fill:none" points="1610.1,606.621 989.016,801.572 "/>
<path clip-path="url(#clip430)" d="M1411.72 1361.45 L1896.42 1361.45 L1896.42 1205.93 L1411.72 1205.93  Z" fill="#ffffff" fill-rule="evenodd" fill-opacity="1"/>
<polyline clip-path="url(#clip430)" style="stroke:#000000; stroke-linecap:round; stroke-linejoin:round; stroke-width:4; stroke-opacity:1; fill:none" points="1411.72,1361.45 1896.42,1361.45 1896.42,1205.93 1411.72,1205.93 1411.72,1361.45 "/>
<circle clip-path="url(#clip430)" cx="1486.84" cy="1257.77" r="21.9429" fill="#00a1ff" fill-rule="evenodd" fill-opacity="1" stroke="#000000" stroke-opacity="1" stroke-width="1.95048"/>
<path clip-path="url(#clip430)" d="M1561.95 1239.03 L1566.21 1239.03 L1566.21 1275.05 L1561.95 1275.05 L1561.95 1239.03 Z" fill="#000000" fill-rule="nonzero" fill-opacity="1" /><path clip-path="url(#clip430)" d="M1585.17 1252.11 Q1581.74 1252.11 1579.75 1254.79 Q1577.76 1257.45 1577.76 1262.11 Q1577.76 1266.76 1579.73 1269.44 Q1581.72 1272.11 1585.17 1272.11 Q1588.57 1272.11 1590.56 1269.42 Q1592.55 1266.74 1592.55 1262.11 Q1592.55 1257.5 1590.56 1254.82 Q1588.57 1252.11 1585.17 1252.11 M1585.17 1248.5 Q1590.72 1248.5 1593.89 1252.11 Q1597.07 1255.72 1597.07 1262.11 Q1597.07 1268.47 1593.89 1272.11 Q1590.72 1275.72 1585.17 1275.72 Q1579.59 1275.72 1576.42 1272.11 Q1573.27 1268.47 1573.27 1262.11 Q1573.27 1255.72 1576.42 1252.11 Q1579.59 1248.5 1585.17 1248.5 Z" fill="#000000" fill-rule="nonzero" fill-opacity="1" /><path clip-path="url(#clip430)" d="M1615.91 1262.01 Q1610.75 1262.01 1608.76 1263.19 Q1606.76 1264.38 1606.76 1267.22 Q1606.76 1269.49 1608.25 1270.83 Q1609.75 1272.15 1612.32 1272.15 Q1615.86 1272.15 1617.99 1269.65 Q1620.14 1267.13 1620.14 1262.96 L1620.14 1262.01 L1615.91 1262.01 M1624.4 1260.25 L1624.4 1275.05 L1620.14 1275.05 L1620.14 1271.11 Q1618.69 1273.47 1616.51 1274.61 Q1614.33 1275.72 1611.19 1275.72 Q1607.2 1275.72 1604.84 1273.5 Q1602.51 1271.25 1602.51 1267.5 Q1602.51 1263.13 1605.42 1260.9 Q1608.36 1258.68 1614.17 1258.68 L1620.14 1258.68 L1620.14 1258.26 Q1620.14 1255.32 1618.2 1253.73 Q1616.28 1252.11 1612.78 1252.11 Q1610.56 1252.11 1608.45 1252.64 Q1606.35 1253.17 1604.4 1254.24 L1604.4 1250.3 Q1606.74 1249.4 1608.94 1248.96 Q1611.14 1248.5 1613.22 1248.5 Q1618.85 1248.5 1621.63 1251.41 Q1624.4 1254.33 1624.4 1260.25 Z" fill="#000000" fill-rule="nonzero" fill-opacity="1" /><path clip-path="url(#clip430)" d="M1654.73 1259.4 L1654.73 1275.05 L1650.47 1275.05 L1650.47 1259.54 Q1650.47 1255.86 1649.03 1254.03 Q1647.6 1252.2 1644.73 1252.2 Q1641.28 1252.2 1639.29 1254.4 Q1637.3 1256.6 1637.3 1260.39 L1637.3 1275.05 L1633.01 1275.05 L1633.01 1249.12 L1637.3 1249.12 L1637.3 1253.15 Q1638.82 1250.81 1640.88 1249.65 Q1642.97 1248.5 1645.68 1248.5 Q1650.14 1248.5 1652.44 1251.27 Q1654.73 1254.03 1654.73 1259.4 Z" fill="#000000" fill-rule="nonzero" fill-opacity="1" /><path clip-path="url(#clip430)" d="M1695.35 1253.06 L1695.35 1239.03 L1699.61 1239.03 L1699.61 1275.05 L1695.35 1275.05 L1695.35 1271.16 Q1694.01 1273.47 1691.95 1274.61 Q1689.91 1275.72 1687.04 1275.72 Q1682.34 1275.72 1679.38 1271.97 Q1676.44 1268.22 1676.44 1262.11 Q1676.44 1256 1679.38 1252.25 Q1682.34 1248.5 1687.04 1248.5 Q1689.91 1248.5 1691.95 1249.63 Q1694.01 1250.74 1695.35 1253.06 M1680.84 1262.11 Q1680.84 1266.81 1682.76 1269.49 Q1684.7 1272.15 1688.08 1272.15 Q1691.46 1272.15 1693.41 1269.49 Q1695.35 1266.81 1695.35 1262.11 Q1695.35 1257.41 1693.41 1254.75 Q1691.46 1252.06 1688.08 1252.06 Q1684.7 1252.06 1682.76 1254.75 Q1680.84 1257.41 1680.84 1262.11 Z" fill="#000000" fill-rule="nonzero" fill-opacity="1" /><path clip-path="url(#clip430)" d="M1730.56 1261.02 L1730.56 1263.1 L1710.98 1263.1 Q1711.25 1267.5 1713.62 1269.82 Q1716 1272.11 1720.24 1272.11 Q1722.69 1272.11 1724.98 1271.5 Q1727.3 1270.9 1729.56 1269.7 L1729.56 1273.73 Q1727.27 1274.7 1724.87 1275.21 Q1722.46 1275.72 1719.98 1275.72 Q1713.78 1275.72 1710.14 1272.11 Q1706.53 1268.5 1706.53 1262.34 Q1706.53 1255.97 1709.96 1252.25 Q1713.41 1248.5 1719.24 1248.5 Q1724.47 1248.5 1727.5 1251.88 Q1730.56 1255.23 1730.56 1261.02 M1726.3 1259.77 Q1726.25 1256.27 1724.33 1254.19 Q1722.44 1252.11 1719.29 1252.11 Q1715.72 1252.11 1713.57 1254.12 Q1711.44 1256.13 1711.12 1259.79 L1726.3 1259.77 Z" fill="#000000" fill-rule="nonzero" fill-opacity="1" /><path clip-path="url(#clip430)" d="M1759.1 1259.4 L1759.1 1275.05 L1754.84 1275.05 L1754.84 1259.54 Q1754.84 1255.86 1753.41 1254.03 Q1751.97 1252.2 1749.1 1252.2 Q1745.65 1252.2 1743.66 1254.4 Q1741.67 1256.6 1741.67 1260.39 L1741.67 1275.05 L1737.39 1275.05 L1737.39 1249.12 L1741.67 1249.12 L1741.67 1253.15 Q1743.2 1250.81 1745.26 1249.65 Q1747.34 1248.5 1750.05 1248.5 Q1754.52 1248.5 1756.81 1251.27 Q1759.1 1254.03 1759.1 1259.4 Z" fill="#000000" fill-rule="nonzero" fill-opacity="1" /><path clip-path="url(#clip430)" d="M1767.6 1249.12 L1771.86 1249.12 L1771.86 1275.05 L1767.6 1275.05 L1767.6 1249.12 M1767.6 1239.03 L1771.86 1239.03 L1771.86 1244.42 L1767.6 1244.42 L1767.6 1239.03 Z" fill="#000000" fill-rule="nonzero" fill-opacity="1" /><path clip-path="url(#clip430)" d="M1802.94 1261.02 L1802.94 1263.1 L1783.36 1263.1 Q1783.64 1267.5 1786 1269.82 Q1788.38 1272.11 1792.62 1272.11 Q1795.07 1272.11 1797.37 1271.5 Q1799.68 1270.9 1801.95 1269.7 L1801.95 1273.73 Q1799.66 1274.7 1797.25 1275.21 Q1794.84 1275.72 1792.37 1275.72 Q1786.16 1275.72 1782.53 1272.11 Q1778.92 1268.5 1778.92 1262.34 Q1778.92 1255.97 1782.34 1252.25 Q1785.79 1248.5 1791.62 1248.5 Q1796.86 1248.5 1799.89 1251.88 Q1802.94 1255.23 1802.94 1261.02 M1798.68 1259.77 Q1798.64 1256.27 1796.72 1254.19 Q1794.82 1252.11 1791.67 1252.11 Q1788.11 1252.11 1785.95 1254.12 Q1783.82 1256.13 1783.5 1259.79 L1798.68 1259.77 Z" fill="#000000" fill-rule="nonzero" fill-opacity="1" /><path clip-path="url(#clip430)" d="M1826.99 1253.06 L1826.99 1239.03 L1831.25 1239.03 L1831.25 1275.05 L1826.99 1275.05 L1826.99 1271.16 Q1825.65 1273.47 1823.59 1274.61 Q1821.56 1275.72 1818.68 1275.72 Q1813.99 1275.72 1811.02 1271.97 Q1808.08 1268.22 1808.08 1262.11 Q1808.08 1256 1811.02 1252.25 Q1813.99 1248.5 1818.68 1248.5 Q1821.56 1248.5 1823.59 1249.63 Q1825.65 1250.74 1826.99 1253.06 M1812.48 1262.11 Q1812.48 1266.81 1814.4 1269.49 Q1816.35 1272.15 1819.73 1272.15 Q1823.11 1272.15 1825.05 1269.49 Q1826.99 1266.81 1826.99 1262.11 Q1826.99 1257.41 1825.05 1254.75 Q1823.11 1252.06 1819.73 1252.06 Q1816.35 1252.06 1814.4 1254.75 Q1812.48 1257.41 1812.48 1262.11 Z" fill="#000000" fill-rule="nonzero" fill-opacity="1" /><circle clip-path="url(#clip430)" cx="1486.84" cy="1309.61" r="21.9429" fill="#e69f00" fill-rule="evenodd" fill-opacity="1" stroke="#000000" stroke-opacity="1" stroke-width="1.95048"/>
<path clip-path="url(#clip430)" d="M1561.95 1290.87 L1566.21 1290.87 L1566.21 1326.89 L1561.95 1326.89 L1561.95 1290.87 Z" fill="#000000" fill-rule="nonzero" fill-opacity="1" /><path clip-path="url(#clip430)" d="M1585.17 1303.95 Q1581.74 1303.95 1579.75 1306.63 Q1577.76 1309.29 1577.76 1313.95 Q1577.76 1318.6 1579.73 1321.28 Q1581.72 1323.95 1585.17 1323.95 Q1588.57 1323.95 1590.56 1321.26 Q1592.55 1318.58 1592.55 1313.95 Q1592.55 1309.34 1590.56 1306.66 Q1588.57 1303.95 1585.17 1303.95 M1585.17 1300.34 Q1590.72 1300.34 1593.89 1303.95 Q1597.07 1307.56 1597.07 1313.95 Q1597.07 1320.31 1593.89 1323.95 Q1590.72 1327.56 1585.17 1327.56 Q1579.59 1327.56 1576.42 1323.95 Q1573.27 1320.31 1573.27 1313.95 Q1573.27 1307.56 1576.42 1303.95 Q1579.59 1300.34 1585.17 1300.34 Z" fill="#000000" fill-rule="nonzero" fill-opacity="1" /><path clip-path="url(#clip430)" d="M1615.91 1313.85 Q1610.75 1313.85 1608.76 1315.03 Q1606.76 1316.22 1606.76 1319.06 Q1606.76 1321.33 1608.25 1322.67 Q1609.75 1323.99 1612.32 1323.99 Q1615.86 1323.99 1617.99 1321.49 Q1620.14 1318.97 1620.14 1314.8 L1620.14 1313.85 L1615.91 1313.85 M1624.4 1312.09 L1624.4 1326.89 L1620.14 1326.89 L1620.14 1322.95 Q1618.69 1325.31 1616.51 1326.45 Q1614.33 1327.56 1611.19 1327.56 Q1607.2 1327.56 1604.84 1325.34 Q1602.51 1323.09 1602.51 1319.34 Q1602.51 1314.97 1605.42 1312.74 Q1608.36 1310.52 1614.17 1310.52 L1620.14 1310.52 L1620.14 1310.1 Q1620.14 1307.16 1618.2 1305.57 Q1616.28 1303.95 1612.78 1303.95 Q1610.56 1303.95 1608.45 1304.48 Q1606.35 1305.01 1604.4 1306.08 L1604.4 1302.14 Q1606.74 1301.24 1608.94 1300.8 Q1611.14 1300.34 1613.22 1300.34 Q1618.85 1300.34 1621.63 1303.25 Q1624.4 1306.17 1624.4 1312.09 Z" fill="#000000" fill-rule="nonzero" fill-opacity="1" /><path clip-path="url(#clip430)" d="M1654.73 1311.24 L1654.73 1326.89 L1650.47 1326.89 L1650.47 1311.38 Q1650.47 1307.7 1649.03 1305.87 Q1647.6 1304.04 1644.73 1304.04 Q1641.28 1304.04 1639.29 1306.24 Q1637.3 1308.44 1637.3 1312.23 L1637.3 1326.89 L1633.01 1326.89 L1633.01 1300.96 L1637.3 1300.96 L1637.3 1304.99 Q1638.82 1302.65 1640.88 1301.49 Q1642.97 1300.34 1645.68 1300.34 Q1650.14 1300.34 1652.44 1303.11 Q1654.73 1305.87 1654.73 1311.24 Z" fill="#000000" fill-rule="nonzero" fill-opacity="1" /><path clip-path="url(#clip430)" d="M1682.41 1323 L1682.41 1336.75 L1678.13 1336.75 L1678.13 1300.96 L1682.41 1300.96 L1682.41 1304.9 Q1683.75 1302.58 1685.79 1301.47 Q1687.85 1300.34 1690.7 1300.34 Q1695.42 1300.34 1698.36 1304.09 Q1701.32 1307.84 1701.32 1313.95 Q1701.32 1320.06 1698.36 1323.81 Q1695.42 1327.56 1690.7 1327.56 Q1687.85 1327.56 1685.79 1326.45 Q1683.75 1325.31 1682.41 1323 M1696.9 1313.95 Q1696.9 1309.25 1694.96 1306.59 Q1693.04 1303.9 1689.66 1303.9 Q1686.28 1303.9 1684.33 1306.59 Q1682.41 1309.25 1682.41 1313.95 Q1682.41 1318.65 1684.33 1321.33 Q1686.28 1323.99 1689.66 1323.99 Q1693.04 1323.99 1694.96 1321.33 Q1696.9 1318.65 1696.9 1313.95 Z" fill="#000000" fill-rule="nonzero" fill-opacity="1" /><path clip-path="url(#clip430)" d="M1723.41 1304.94 Q1722.69 1304.53 1721.83 1304.34 Q1721 1304.13 1719.98 1304.13 Q1716.37 1304.13 1714.43 1306.49 Q1712.5 1308.83 1712.5 1313.23 L1712.5 1326.89 L1708.22 1326.89 L1708.22 1300.96 L1712.5 1300.96 L1712.5 1304.99 Q1713.85 1302.63 1716 1301.49 Q1718.15 1300.34 1721.23 1300.34 Q1721.67 1300.34 1722.2 1300.41 Q1722.74 1300.45 1723.38 1300.57 L1723.41 1304.94 Z" fill="#000000" fill-rule="nonzero" fill-opacity="1" /><path clip-path="url(#clip430)" d="M1736.88 1303.95 Q1733.45 1303.95 1731.46 1306.63 Q1729.47 1309.29 1729.47 1313.95 Q1729.47 1318.6 1731.44 1321.28 Q1733.43 1323.95 1736.88 1323.95 Q1740.28 1323.95 1742.27 1321.26 Q1744.26 1318.58 1744.26 1313.95 Q1744.26 1309.34 1742.27 1306.66 Q1740.28 1303.95 1736.88 1303.95 M1736.88 1300.34 Q1742.44 1300.34 1745.61 1303.95 Q1748.78 1307.56 1748.78 1313.95 Q1748.78 1320.31 1745.61 1323.95 Q1742.44 1327.56 1736.88 1327.56 Q1731.3 1327.56 1728.13 1323.95 Q1724.98 1320.31 1724.98 1313.95 Q1724.98 1307.56 1728.13 1303.95 Q1731.3 1300.34 1736.88 1300.34 Z" fill="#000000" fill-rule="nonzero" fill-opacity="1" /><path clip-path="url(#clip430)" d="M1752.78 1300.96 L1757.3 1300.96 L1765.4 1322.72 L1773.5 1300.96 L1778.01 1300.96 L1768.29 1326.89 L1762.5 1326.89 L1752.78 1300.96 Z" fill="#000000" fill-rule="nonzero" fill-opacity="1" /><path clip-path="url(#clip430)" d="M1783.89 1300.96 L1788.15 1300.96 L1788.15 1326.89 L1783.89 1326.89 L1783.89 1300.96 M1783.89 1290.87 L1788.15 1290.87 L1788.15 1296.26 L1783.89 1296.26 L1783.89 1290.87 Z" fill="#000000" fill-rule="nonzero" fill-opacity="1" /><path clip-path="url(#clip430)" d="M1814.12 1304.9 L1814.12 1290.87 L1818.38 1290.87 L1818.38 1326.89 L1814.12 1326.89 L1814.12 1323 Q1812.78 1325.31 1810.72 1326.45 Q1808.68 1327.56 1805.81 1327.56 Q1801.12 1327.56 1798.15 1323.81 Q1795.21 1320.06 1795.21 1313.95 Q1795.21 1307.84 1798.15 1304.09 Q1801.12 1300.34 1805.81 1300.34 Q1808.68 1300.34 1810.72 1301.47 Q1812.78 1302.58 1814.12 1304.9 M1799.61 1313.95 Q1799.61 1318.65 1801.53 1321.33 Q1803.48 1323.99 1806.86 1323.99 Q1810.24 1323.99 1812.18 1321.33 Q1814.12 1318.65 1814.12 1313.95 Q1814.12 1309.25 1812.18 1306.59 Q1810.24 1303.9 1806.86 1303.9 Q1803.48 1303.9 1801.53 1306.59 Q1799.61 1309.25 1799.61 1313.95 Z" fill="#000000" fill-rule="nonzero" fill-opacity="1" /><path clip-path="url(#clip430)" d="M1849.33 1312.86 L1849.33 1314.94 L1829.75 1314.94 Q1830.03 1319.34 1832.39 1321.66 Q1834.77 1323.95 1839.01 1323.95 Q1841.46 1323.95 1843.75 1323.34 Q1846.07 1322.74 1848.34 1321.54 L1848.34 1325.57 Q1846.05 1326.54 1843.64 1327.05 Q1841.23 1327.56 1838.75 1327.56 Q1832.55 1327.56 1828.92 1323.95 Q1825.3 1320.34 1825.3 1314.18 Q1825.3 1307.81 1828.73 1304.09 Q1832.18 1300.34 1838.01 1300.34 Q1843.24 1300.34 1846.28 1303.72 Q1849.33 1307.07 1849.33 1312.86 M1845.07 1311.61 Q1845.03 1308.11 1843.11 1306.03 Q1841.21 1303.95 1838.06 1303.95 Q1834.49 1303.95 1832.34 1305.96 Q1830.21 1307.97 1829.89 1311.63 L1845.07 1311.61 Z" fill="#000000" fill-rule="nonzero" fill-opacity="1" /><path clip-path="url(#clip430)" d="M1873.38 1304.9 L1873.38 1290.87 L1877.64 1290.87 L1877.64 1326.89 L1873.38 1326.89 L1873.38 1323 Q1872.04 1325.31 1869.98 1326.45 Q1867.94 1327.56 1865.07 1327.56 Q1860.37 1327.56 1857.41 1323.81 Q1854.47 1320.06 1854.47 1313.95 Q1854.47 1307.84 1857.41 1304.09 Q1860.37 1300.34 1865.07 1300.34 Q1867.94 1300.34 1869.98 1301.47 Q1872.04 1302.58 1873.38 1304.9 M1858.87 1313.95 Q1858.87 1318.65 1860.79 1321.33 Q1862.74 1323.99 1866.11 1323.99 Q1869.49 1323.99 1871.44 1321.33 Q1873.38 1318.65 1873.38 1313.95 Q1873.38 1309.25 1871.44 1306.59 Q1869.49 1303.9 1866.11 1303.9 Q1862.74 1303.9 1860.79 1306.59 Q1858.87 1309.25 1858.87 1313.95 Z" fill="#000000" fill-rule="nonzero" fill-opacity="1" /></svg>
