<?xml version="1.0" encoding="UTF-8"?>
<svg xmlns="http://www.w3.org/2000/svg" xmlns:xlink="http://www.w3.org/1999/xlink" width="500pt" height="500pt" viewBox="0 0 500 500" version="1.1">
<defs>
<clipPath id="clip1">
  <path d="M 500 250 C 500 388.070312 388.070312 500 250 500 C 111.929688 500 0 388.070312 0 250 C 0 111.929688 111.929688 0 250 0 C 388.070312 0 500 111.929688 500 250 "/>
</clipPath>
<clipPath id="clip2">
  <path d="M 0 0 L 500 0 L 500 477 L 0 477 Z M 0 0 "/>
</clipPath>
<clipPath id="clip3">
  <path d="M 500 250 C 500 388.070312 388.070312 500 250 500 C 111.929688 500 0 388.070312 0 250 C 0 111.929688 111.929688 0 250 0 C 388.070312 0 500 111.929688 500 250 "/>
</clipPath>
<clipPath id="clip4">
  <path d="M 199 295 L 250 295 L 250 346 L 199 346 Z M 199 295 "/>
</clipPath>
<clipPath id="clip5">
  <path d="M 500 250 C 500 388.070312 388.070312 500 250 500 C 111.929688 500 0 388.070312 0 250 C 0 111.929688 111.929688 0 250 0 C 388.070312 0 500 111.929688 500 250 "/>
</clipPath>
<clipPath id="clip6">
  <path d="M 141 143 L 192 143 L 192 194 L 141 194 Z M 141 143 "/>
</clipPath>
<clipPath id="clip7">
  <path d="M 500 250 C 500 388.070312 388.070312 500 250 500 C 111.929688 500 0 388.070312 0 250 C 0 111.929688 111.929688 0 250 0 C 388.070312 0 500 111.929688 500 250 "/>
</clipPath>
<clipPath id="clip8">
  <path d="M 153 108 L 204 108 L 204 159 L 153 159 Z M 153 108 "/>
</clipPath>
<clipPath id="clip9">
  <path d="M 500 250 C 500 388.070312 388.070312 500 250 500 C 111.929688 500 0 388.070312 0 250 C 0 111.929688 111.929688 0 250 0 C 388.070312 0 500 111.929688 500 250 "/>
</clipPath>
<clipPath id="clip10">
  <path d="M 266 149 L 317 149 L 317 200 L 266 200 Z M 266 149 "/>
</clipPath>
<clipPath id="clip11">
  <path d="M 500 250 C 500 388.070312 388.070312 500 250 500 C 111.929688 500 0 388.070312 0 250 C 0 111.929688 111.929688 0 250 0 C 388.070312 0 500 111.929688 500 250 "/>
</clipPath>
<clipPath id="clip12">
  <path d="M 204 303 L 255 303 L 255 354 L 204 354 Z M 204 303 "/>
</clipPath>
<clipPath id="clip13">
  <path d="M 500 250 C 500 388.070312 388.070312 500 250 500 C 111.929688 500 0 388.070312 0 250 C 0 111.929688 111.929688 0 250 0 C 388.070312 0 500 111.929688 500 250 "/>
</clipPath>
<clipPath id="clip14">
  <path d="M 223 318 L 274 318 L 274 369 L 223 369 Z M 223 318 "/>
</clipPath>
<clipPath id="clip15">
  <path d="M 500 250 C 500 388.070312 388.070312 500 250 500 C 111.929688 500 0 388.070312 0 250 C 0 111.929688 111.929688 0 250 0 C 388.070312 0 500 111.929688 500 250 "/>
</clipPath>
<clipPath id="clip16">
  <path d="M 272 131 L 323 131 L 323 182 L 272 182 Z M 272 131 "/>
</clipPath>
<clipPath id="clip17">
  <path d="M 500 250 C 500 388.070312 388.070312 500 250 500 C 111.929688 500 0 388.070312 0 250 C 0 111.929688 111.929688 0 250 0 C 388.070312 0 500 111.929688 500 250 "/>
</clipPath>
<clipPath id="clip18">
  <path d="M 367 87 L 418 87 L 418 138 L 367 138 Z M 367 87 "/>
</clipPath>
<clipPath id="clip19">
  <path d="M 500 250 C 500 388.070312 388.070312 500 250 500 C 111.929688 500 0 388.070312 0 250 C 0 111.929688 111.929688 0 250 0 C 388.070312 0 500 111.929688 500 250 "/>
</clipPath>
<clipPath id="clip20">
  <path d="M 125 40 L 176 40 L 176 91 L 125 91 Z M 125 40 "/>
</clipPath>
<clipPath id="clip21">
  <path d="M 500 250 C 500 388.070312 388.070312 500 250 500 C 111.929688 500 0 388.070312 0 250 C 0 111.929688 111.929688 0 250 0 C 388.070312 0 500 111.929688 500 250 "/>
</clipPath>
<clipPath id="clip22">
  <path d="M 210 353 L 261 353 L 261 404 L 210 404 Z M 210 353 "/>
</clipPath>
<clipPath id="clip23">
  <path d="M 500 250 C 500 388.070312 388.070312 500 250 500 C 111.929688 500 0 388.070312 0 250 C 0 111.929688 111.929688 0 250 0 C 388.070312 0 500 111.929688 500 250 "/>
</clipPath>
<clipPath id="clip24">
  <path d="M 310 182 L 361 182 L 361 233 L 310 233 Z M 310 182 "/>
</clipPath>
<clipPath id="clip25">
  <path d="M 500 250 C 500 388.070312 388.070312 500 250 500 C 111.929688 500 0 388.070312 0 250 C 0 111.929688 111.929688 0 250 0 C 388.070312 0 500 111.929688 500 250 "/>
</clipPath>
<clipPath id="clip26">
  <path d="M 311 151 L 362 151 L 362 202 L 311 202 Z M 311 151 "/>
</clipPath>
<clipPath id="clip27">
  <path d="M 500 250 C 500 388.070312 388.070312 500 250 500 C 111.929688 500 0 388.070312 0 250 C 0 111.929688 111.929688 0 250 0 C 388.070312 0 500 111.929688 500 250 "/>
</clipPath>
<clipPath id="clip28">
  <path d="M 383 65 L 434 65 L 434 116 L 383 116 Z M 383 65 "/>
</clipPath>
<clipPath id="clip29">
  <path d="M 500 250 C 500 388.070312 388.070312 500 250 500 C 111.929688 500 0 388.070312 0 250 C 0 111.929688 111.929688 0 250 0 C 388.070312 0 500 111.929688 500 250 "/>
</clipPath>
<clipPath id="clip30">
  <path d="M 240 377 L 291 377 L 291 428 L 240 428 Z M 240 377 "/>
</clipPath>
<clipPath id="clip31">
  <path d="M 500 250 C 500 388.070312 388.070312 500 250 500 C 111.929688 500 0 388.070312 0 250 C 0 111.929688 111.929688 0 250 0 C 388.070312 0 500 111.929688 500 250 "/>
</clipPath>
<clipPath id="clip32">
  <path d="M 361 127 L 412 127 L 412 178 L 361 178 Z M 361 127 "/>
</clipPath>
<clipPath id="clip33">
  <path d="M 500 250 C 500 388.070312 388.070312 500 250 500 C 111.929688 500 0 388.070312 0 250 C 0 111.929688 111.929688 0 250 0 C 388.070312 0 500 111.929688 500 250 "/>
</clipPath>
<clipPath id="clip34">
  <path d="M 326 77 L 377 77 L 377 128 L 326 128 Z M 326 77 "/>
</clipPath>
<clipPath id="clip35">
  <path d="M 500 250 C 500 388.070312 388.070312 500 250 500 C 111.929688 500 0 388.070312 0 250 C 0 111.929688 111.929688 0 250 0 C 388.070312 0 500 111.929688 500 250 "/>
</clipPath>
<clipPath id="clip36">
  <path d="M 132 118 L 183 118 L 183 169 L 132 169 Z M 132 118 "/>
</clipPath>
<clipPath id="clip37">
  <path d="M 500 250 C 500 388.070312 388.070312 500 250 500 C 111.929688 500 0 388.070312 0 250 C 0 111.929688 111.929688 0 250 0 C 388.070312 0 500 111.929688 500 250 "/>
</clipPath>
<clipPath id="clip38">
  <path d="M 227 377 L 278 377 L 278 428 L 227 428 Z M 227 377 "/>
</clipPath>
<clipPath id="clip39">
  <path d="M 500 250 C 500 388.070312 388.070312 500 250 500 C 111.929688 500 0 388.070312 0 250 C 0 111.929688 111.929688 0 250 0 C 388.070312 0 500 111.929688 500 250 "/>
</clipPath>
<clipPath id="clip40">
  <path d="M 254 328 L 305 328 L 305 379 L 254 379 Z M 254 328 "/>
</clipPath>
<clipPath id="clip41">
  <path d="M 500 250 C 500 388.070312 388.070312 500 250 500 C 111.929688 500 0 388.070312 0 250 C 0 111.929688 111.929688 0 250 0 C 388.070312 0 500 111.929688 500 250 "/>
</clipPath>
<clipPath id="clip42">
  <path d="M 276 60 L 327 60 L 327 111 L 276 111 Z M 276 60 "/>
</clipPath>
<clipPath id="clip43">
  <path d="M 500 250 C 500 388.070312 388.070312 500 250 500 C 111.929688 500 0 388.070312 0 250 C 0 111.929688 111.929688 0 250 0 C 388.070312 0 500 111.929688 500 250 "/>
</clipPath>
<clipPath id="clip44">
  <path d="M 300 96 L 351 96 L 351 147 L 300 147 Z M 300 96 "/>
</clipPath>
<clipPath id="clip45">
  <path d="M 500 250 C 500 388.070312 388.070312 500 250 500 C 111.929688 500 0 388.070312 0 250 C 0 111.929688 111.929688 0 250 0 C 388.070312 0 500 111.929688 500 250 "/>
</clipPath>
<clipPath id="clip46">
  <path d="M 274 333 L 325 333 L 325 384 L 274 384 Z M 274 333 "/>
</clipPath>
<clipPath id="clip47">
  <path d="M 500 250 C 500 388.070312 388.070312 500 250 500 C 111.929688 500 0 388.070312 0 250 C 0 111.929688 111.929688 0 250 0 C 388.070312 0 500 111.929688 500 250 "/>
</clipPath>
<clipPath id="clip48">
  <path d="M 120 51 L 171 51 L 171 102 L 120 102 Z M 120 51 "/>
</clipPath>
<clipPath id="clip49">
  <path d="M 500 250 C 500 388.070312 388.070312 500 250 500 C 111.929688 500 0 388.070312 0 250 C 0 111.929688 111.929688 0 250 0 C 388.070312 0 500 111.929688 500 250 "/>
</clipPath>
<clipPath id="clip50">
  <path d="M 213 318 L 264 318 L 264 369 L 213 369 Z M 213 318 "/>
</clipPath>
<clipPath id="clip51">
  <path d="M 500 250 C 500 388.070312 388.070312 500 250 500 C 111.929688 500 0 388.070312 0 250 C 0 111.929688 111.929688 0 250 0 C 388.070312 0 500 111.929688 500 250 "/>
</clipPath>
<clipPath id="clip52">
  <path d="M 102 135 L 153 135 L 153 186 L 102 186 Z M 102 135 "/>
</clipPath>
<clipPath id="clip53">
  <path d="M 500 250 C 500 388.070312 388.070312 500 250 500 C 111.929688 500 0 388.070312 0 250 C 0 111.929688 111.929688 0 250 0 C 388.070312 0 500 111.929688 500 250 "/>
</clipPath>
<clipPath id="clip54">
  <path d="M 202 322 L 253 322 L 253 373 L 202 373 Z M 202 322 "/>
</clipPath>
<clipPath id="clip55">
  <path d="M 500 250 C 500 388.070312 388.070312 500 250 500 C 111.929688 500 0 388.070312 0 250 C 0 111.929688 111.929688 0 250 0 C 388.070312 0 500 111.929688 500 250 "/>
</clipPath>
<clipPath id="clip56">
  <path d="M 123 189 L 174 189 L 174 240 L 123 240 Z M 123 189 "/>
</clipPath>
<clipPath id="clip57">
  <path d="M 500 250 C 500 388.070312 388.070312 500 250 500 C 111.929688 500 0 388.070312 0 250 C 0 111.929688 111.929688 0 250 0 C 388.070312 0 500 111.929688 500 250 "/>
</clipPath>
<clipPath id="clip58">
  <path d="M 80 67 L 131 67 L 131 118 L 80 118 Z M 80 67 "/>
</clipPath>
<clipPath id="clip59">
  <path d="M 500 250 C 500 388.070312 388.070312 500 250 500 C 111.929688 500 0 388.070312 0 250 C 0 111.929688 111.929688 0 250 0 C 388.070312 0 500 111.929688 500 250 "/>
</clipPath>
<clipPath id="clip60">
  <path d="M 106 114 L 157 114 L 157 165 L 106 165 Z M 106 114 "/>
</clipPath>
<clipPath id="clip61">
  <path d="M 500 250 C 500 388.070312 388.070312 500 250 500 C 111.929688 500 0 388.070312 0 250 C 0 111.929688 111.929688 0 250 0 C 388.070312 0 500 111.929688 500 250 "/>
</clipPath>
<clipPath id="clip62">
  <path d="M 112 168 L 163 168 L 163 219 L 112 219 Z M 112 168 "/>
</clipPath>
<clipPath id="clip63">
  <path d="M 500 250 C 500 388.070312 388.070312 500 250 500 C 111.929688 500 0 388.070312 0 250 C 0 111.929688 111.929688 0 250 0 C 388.070312 0 500 111.929688 500 250 "/>
</clipPath>
<clipPath id="clip64">
  <path d="M 220 155 L 271 155 L 271 206 L 220 206 Z M 220 155 "/>
</clipPath>
<clipPath id="clip65">
  <path d="M 500 250 C 500 388.070312 388.070312 500 250 500 C 111.929688 500 0 388.070312 0 250 C 0 111.929688 111.929688 0 250 0 C 388.070312 0 500 111.929688 500 250 "/>
</clipPath>
<clipPath id="clip66">
  <path d="M 148 130 L 199 130 L 199 181 L 148 181 Z M 148 130 "/>
</clipPath>
<clipPath id="clip67">
  <path d="M 500 250 C 500 388.070312 388.070312 500 250 500 C 111.929688 500 0 388.070312 0 250 C 0 111.929688 111.929688 0 250 0 C 388.070312 0 500 111.929688 500 250 "/>
</clipPath>
<clipPath id="clip68">
  <path d="M 90 129 L 141 129 L 141 180 L 90 180 Z M 90 129 "/>
</clipPath>
<clipPath id="clip69">
  <path d="M 500 250 C 500 388.070312 388.070312 500 250 500 C 111.929688 500 0 388.070312 0 250 C 0 111.929688 111.929688 0 250 0 C 388.070312 0 500 111.929688 500 250 "/>
</clipPath>
<clipPath id="clip70">
  <path d="M 147 128 L 198 128 L 198 179 L 147 179 Z M 147 128 "/>
</clipPath>
<clipPath id="clip71">
  <path d="M 500 250 C 500 388.070312 388.070312 500 250 500 C 111.929688 500 0 388.070312 0 250 C 0 111.929688 111.929688 0 250 0 C 388.070312 0 500 111.929688 500 250 "/>
</clipPath>
<clipPath id="clip72">
  <path d="M 271 326 L 322 326 L 322 377 L 271 377 Z M 271 326 "/>
</clipPath>
<clipPath id="clip73">
  <path d="M 500 250 C 500 388.070312 388.070312 500 250 500 C 111.929688 500 0 388.070312 0 250 C 0 111.929688 111.929688 0 250 0 C 388.070312 0 500 111.929688 500 250 "/>
</clipPath>
<clipPath id="clip74">
  <path d="M 239 294 L 290 294 L 290 345 L 239 345 Z M 239 294 "/>
</clipPath>
<clipPath id="clip75">
  <path d="M 500 250 C 500 388.070312 388.070312 500 250 500 C 111.929688 500 0 388.070312 0 250 C 0 111.929688 111.929688 0 250 0 C 388.070312 0 500 111.929688 500 250 "/>
</clipPath>
<clipPath id="clip76">
  <path d="M 110 82 L 161 82 L 161 133 L 110 133 Z M 110 82 "/>
</clipPath>
<clipPath id="clip77">
  <path d="M 500 250 C 500 388.070312 388.070312 500 250 500 C 111.929688 500 0 388.070312 0 250 C 0 111.929688 111.929688 0 250 0 C 388.070312 0 500 111.929688 500 250 "/>
</clipPath>
<clipPath id="clip78">
  <path d="M 216 348 L 267 348 L 267 399 L 216 399 Z M 216 348 "/>
</clipPath>
<clipPath id="clip79">
  <path d="M 500 250 C 500 388.070312 388.070312 500 250 500 C 111.929688 500 0 388.070312 0 250 C 0 111.929688 111.929688 0 250 0 C 388.070312 0 500 111.929688 500 250 "/>
</clipPath>
<clipPath id="clip80">
  <path d="M 145 147 L 196 147 L 196 198 L 145 198 Z M 145 147 "/>
</clipPath>
<clipPath id="clip81">
  <path d="M 500 250 C 500 388.070312 388.070312 500 250 500 C 111.929688 500 0 388.070312 0 250 C 0 111.929688 111.929688 0 250 0 C 388.070312 0 500 111.929688 500 250 "/>
</clipPath>
<clipPath id="clip82">
  <path d="M 244 300 L 295 300 L 295 351 L 244 351 Z M 244 300 "/>
</clipPath>
<clipPath id="clip83">
  <path d="M 500 250 C 500 388.070312 388.070312 500 250 500 C 111.929688 500 0 388.070312 0 250 C 0 111.929688 111.929688 0 250 0 C 388.070312 0 500 111.929688 500 250 "/>
</clipPath>
<clipPath id="clip84">
  <path d="M 267 396 L 318 396 L 318 447 L 267 447 Z M 267 396 "/>
</clipPath>
<clipPath id="clip85">
  <path d="M 500 250 C 500 388.070312 388.070312 500 250 500 C 111.929688 500 0 388.070312 0 250 C 0 111.929688 111.929688 0 250 0 C 388.070312 0 500 111.929688 500 250 "/>
</clipPath>
<clipPath id="clip86">
  <path d="M 302 355 L 353 355 L 353 406 L 302 406 Z M 302 355 "/>
</clipPath>
<clipPath id="clip87">
  <path d="M 500 250 C 500 388.070312 388.070312 500 250 500 C 111.929688 500 0 388.070312 0 250 C 0 111.929688 111.929688 0 250 0 C 388.070312 0 500 111.929688 500 250 "/>
</clipPath>
<clipPath id="clip88">
  <path d="M 357 162 L 408 162 L 408 213 L 357 213 Z M 357 162 "/>
</clipPath>
<clipPath id="clip89">
  <path d="M 500 250 C 500 388.070312 388.070312 500 250 500 C 111.929688 500 0 388.070312 0 250 C 0 111.929688 111.929688 0 250 0 C 388.070312 0 500 111.929688 500 250 "/>
</clipPath>
<clipPath id="clip90">
  <path d="M 372 107 L 423 107 L 423 158 L 372 158 Z M 372 107 "/>
</clipPath>
<clipPath id="clip91">
  <path d="M 500 250 C 500 388.070312 388.070312 500 250 500 C 111.929688 500 0 388.070312 0 250 C 0 111.929688 111.929688 0 250 0 C 388.070312 0 500 111.929688 500 250 "/>
</clipPath>
<clipPath id="clip92">
  <path d="M 291 103 L 342 103 L 342 154 L 291 154 Z M 291 103 "/>
</clipPath>
<clipPath id="clip93">
  <path d="M 500 250 C 500 388.070312 388.070312 500 250 500 C 111.929688 500 0 388.070312 0 250 C 0 111.929688 111.929688 0 250 0 C 388.070312 0 500 111.929688 500 250 "/>
</clipPath>
<clipPath id="clip94">
  <path d="M 228 351 L 279 351 L 279 402 L 228 402 Z M 228 351 "/>
</clipPath>
<clipPath id="clip95">
  <path d="M 500 250 C 500 388.070312 388.070312 500 250 500 C 111.929688 500 0 388.070312 0 250 C 0 111.929688 111.929688 0 250 0 C 388.070312 0 500 111.929688 500 250 "/>
</clipPath>
<clipPath id="clip96">
  <path d="M 161 121 L 212 121 L 212 172 L 161 172 Z M 161 121 "/>
</clipPath>
<clipPath id="clip97">
  <path d="M 500 250 C 500 388.070312 388.070312 500 250 500 C 111.929688 500 0 388.070312 0 250 C 0 111.929688 111.929688 0 250 0 C 388.070312 0 500 111.929688 500 250 "/>
</clipPath>
<clipPath id="clip98">
  <path d="M 124 116 L 175 116 L 175 167 L 124 167 Z M 124 116 "/>
</clipPath>
<clipPath id="clip99">
  <path d="M 500 250 C 500 388.070312 388.070312 500 250 500 C 111.929688 500 0 388.070312 0 250 C 0 111.929688 111.929688 0 250 0 C 388.070312 0 500 111.929688 500 250 "/>
</clipPath>
<clipPath id="clip100">
  <path d="M 206 311 L 257 311 L 257 362 L 206 362 Z M 206 311 "/>
</clipPath>
<clipPath id="clip101">
  <path d="M 500 250 C 500 388.070312 388.070312 500 250 500 C 111.929688 500 0 388.070312 0 250 C 0 111.929688 111.929688 0 250 0 C 388.070312 0 500 111.929688 500 250 "/>
</clipPath>
<clipPath id="clip102">
  <path d="M 220 338 L 271 338 L 271 389 L 220 389 Z M 220 338 "/>
</clipPath>
<clipPath id="clip103">
  <path d="M 500 250 C 500 388.070312 388.070312 500 250 500 C 111.929688 500 0 388.070312 0 250 C 0 111.929688 111.929688 0 250 0 C 388.070312 0 500 111.929688 500 250 "/>
</clipPath>
<clipPath id="clip104">
  <path d="M 279 137 L 330 137 L 330 188 L 279 188 Z M 279 137 "/>
</clipPath>
<clipPath id="clip105">
  <path d="M 500 250 C 500 388.070312 388.070312 500 250 500 C 111.929688 500 0 388.070312 0 250 C 0 111.929688 111.929688 0 250 0 C 388.070312 0 500 111.929688 500 250 "/>
</clipPath>
<clipPath id="clip106">
  <path d="M 146 328 L 197 328 L 197 379 L 146 379 Z M 146 328 "/>
</clipPath>
<clipPath id="clip107">
  <path d="M 500 250 C 500 388.070312 388.070312 500 250 500 C 111.929688 500 0 388.070312 0 250 C 0 111.929688 111.929688 0 250 0 C 388.070312 0 500 111.929688 500 250 "/>
</clipPath>
<clipPath id="clip108">
  <path d="M 295 109 L 346 109 L 346 160 L 295 160 Z M 295 109 "/>
</clipPath>
<clipPath id="clip109">
  <path d="M 500 250 C 500 388.070312 388.070312 500 250 500 C 111.929688 500 0 388.070312 0 250 C 0 111.929688 111.929688 0 250 0 C 388.070312 0 500 111.929688 500 250 "/>
</clipPath>
<clipPath id="clip110">
  <path d="M 200 251 L 251 251 L 251 302 L 200 302 Z M 200 251 "/>
</clipPath>
<clipPath id="clip111">
  <path d="M 500 250 C 500 388.070312 388.070312 500 250 500 C 111.929688 500 0 388.070312 0 250 C 0 111.929688 111.929688 0 250 0 C 388.070312 0 500 111.929688 500 250 "/>
</clipPath>
<clipPath id="clip112">
  <path d="M 163 173 L 214 173 L 214 224 L 163 224 Z M 163 173 "/>
</clipPath>
<clipPath id="clip113">
  <path d="M 500 250 C 500 388.070312 388.070312 500 250 500 C 111.929688 500 0 388.070312 0 250 C 0 111.929688 111.929688 0 250 0 C 388.070312 0 500 111.929688 500 250 "/>
</clipPath>
<clipPath id="clip114">
  <path d="M 116 196 L 167 196 L 167 247 L 116 247 Z M 116 196 "/>
</clipPath>
<clipPath id="clip115">
  <path d="M 500 250 C 500 388.070312 388.070312 500 250 500 C 111.929688 500 0 388.070312 0 250 C 0 111.929688 111.929688 0 250 0 C 388.070312 0 500 111.929688 500 250 "/>
</clipPath>
<clipPath id="clip116">
  <path d="M 192 175 L 243 175 L 243 226 L 192 226 Z M 192 175 "/>
</clipPath>
<clipPath id="clip117">
  <path d="M 500 250 C 500 388.070312 388.070312 500 250 500 C 111.929688 500 0 388.070312 0 250 C 0 111.929688 111.929688 0 250 0 C 388.070312 0 500 111.929688 500 250 "/>
</clipPath>
<clipPath id="clip118">
  <path d="M 287 124 L 338 124 L 338 175 L 287 175 Z M 287 124 "/>
</clipPath>
<clipPath id="clip119">
  <path d="M 500 250 C 500 388.070312 388.070312 500 250 500 C 111.929688 500 0 388.070312 0 250 C 0 111.929688 111.929688 0 250 0 C 388.070312 0 500 111.929688 500 250 "/>
</clipPath>
<clipPath id="clip120">
  <path d="M 218 395 L 269 395 L 269 446 L 218 446 Z M 218 395 "/>
</clipPath>
<clipPath id="clip121">
  <path d="M 500 250 C 500 388.070312 388.070312 500 250 500 C 111.929688 500 0 388.070312 0 250 C 0 111.929688 111.929688 0 250 0 C 388.070312 0 500 111.929688 500 250 "/>
</clipPath>
<clipPath id="clip122">
  <path d="M 72 140 L 123 140 L 123 191 L 72 191 Z M 72 140 "/>
</clipPath>
<clipPath id="clip123">
  <path d="M 500 250 C 500 388.070312 388.070312 500 250 500 C 111.929688 500 0 388.070312 0 250 C 0 111.929688 111.929688 0 250 0 C 388.070312 0 500 111.929688 500 250 "/>
</clipPath>
<clipPath id="clip124">
  <path d="M 197 361 L 211 361 L 211 376 L 197 376 Z M 197 361 "/>
</clipPath>
<clipPath id="clip125">
  <path d="M 500 250 C 500 388.070312 388.070312 500 250 500 C 111.929688 500 0 388.070312 0 250 C 0 111.929688 111.929688 0 250 0 C 388.070312 0 500 111.929688 500 250 "/>
</clipPath>
<clipPath id="clip126">
  <path d="M 193 353 L 208 353 L 208 367 L 193 367 Z M 193 353 "/>
</clipPath>
<clipPath id="clip127">
  <path d="M 500 250 C 500 388.070312 388.070312 500 250 500 C 111.929688 500 0 388.070312 0 250 C 0 111.929688 111.929688 0 250 0 C 388.070312 0 500 111.929688 500 250 "/>
</clipPath>
<clipPath id="clip128">
  <path d="M 190 344 L 204 344 L 204 358 L 190 358 Z M 190 344 "/>
</clipPath>
<clipPath id="clip129">
  <path d="M 500 250 C 500 388.070312 388.070312 500 250 500 C 111.929688 500 0 388.070312 0 250 C 0 111.929688 111.929688 0 250 0 C 388.070312 0 500 111.929688 500 250 "/>
</clipPath>
<clipPath id="clip130">
  <path d="M 188 335 L 202 335 L 202 350 L 188 350 Z M 188 335 "/>
</clipPath>
<clipPath id="clip131">
  <path d="M 500 250 C 500 388.070312 388.070312 500 250 500 C 111.929688 500 0 388.070312 0 250 C 0 111.929688 111.929688 0 250 0 C 388.070312 0 500 111.929688 500 250 "/>
</clipPath>
<clipPath id="clip132">
  <path d="M 186 327 L 200 327 L 200 341 L 186 341 Z M 186 327 "/>
</clipPath>
<clipPath id="clip133">
  <path d="M 500 250 C 500 388.070312 388.070312 500 250 500 C 111.929688 500 0 388.070312 0 250 C 0 111.929688 111.929688 0 250 0 C 388.070312 0 500 111.929688 500 250 "/>
</clipPath>
<clipPath id="clip134">
  <path d="M 183 318 L 198 318 L 198 332 L 183 332 Z M 183 318 "/>
</clipPath>
<clipPath id="clip135">
  <path d="M 500 250 C 500 388.070312 388.070312 500 250 500 C 111.929688 500 0 388.070312 0 250 C 0 111.929688 111.929688 0 250 0 C 388.070312 0 500 111.929688 500 250 "/>
</clipPath>
<clipPath id="clip136">
  <path d="M 181 309 L 196 309 L 196 324 L 181 324 Z M 181 309 "/>
</clipPath>
<clipPath id="clip137">
  <path d="M 500 250 C 500 388.070312 388.070312 500 250 500 C 111.929688 500 0 388.070312 0 250 C 0 111.929688 111.929688 0 250 0 C 388.070312 0 500 111.929688 500 250 "/>
</clipPath>
<clipPath id="clip138">
  <path d="M 179 301 L 193 301 L 193 315 L 179 315 Z M 179 301 "/>
</clipPath>
<clipPath id="clip139">
  <path d="M 500 250 C 500 388.070312 388.070312 500 250 500 C 111.929688 500 0 388.070312 0 250 C 0 111.929688 111.929688 0 250 0 C 388.070312 0 500 111.929688 500 250 "/>
</clipPath>
<clipPath id="clip140">
  <path d="M 177 292 L 191 292 L 191 306 L 177 306 Z M 177 292 "/>
</clipPath>
<clipPath id="clip141">
  <path d="M 500 250 C 500 388.070312 388.070312 500 250 500 C 111.929688 500 0 388.070312 0 250 C 0 111.929688 111.929688 0 250 0 C 388.070312 0 500 111.929688 500 250 "/>
</clipPath>
<clipPath id="clip142">
  <path d="M 175 283 L 189 283 L 189 298 L 175 298 Z M 175 283 "/>
</clipPath>
<clipPath id="clip143">
  <path d="M 500 250 C 500 388.070312 388.070312 500 250 500 C 111.929688 500 0 388.070312 0 250 C 0 111.929688 111.929688 0 250 0 C 388.070312 0 500 111.929688 500 250 "/>
</clipPath>
<clipPath id="clip144">
  <path d="M 173 273 L 187 273 L 187 287 L 173 287 Z M 173 273 "/>
</clipPath>
<clipPath id="clip145">
  <path d="M 500 250 C 500 388.070312 388.070312 500 250 500 C 111.929688 500 0 388.070312 0 250 C 0 111.929688 111.929688 0 250 0 C 388.070312 0 500 111.929688 500 250 "/>
</clipPath>
<clipPath id="clip146">
  <path d="M 171 263 L 185 263 L 185 277 L 171 277 Z M 171 263 "/>
</clipPath>
<clipPath id="clip147">
  <path d="M 500 250 C 500 388.070312 388.070312 500 250 500 C 111.929688 500 0 388.070312 0 250 C 0 111.929688 111.929688 0 250 0 C 388.070312 0 500 111.929688 500 250 "/>
</clipPath>
<clipPath id="clip148">
  <path d="M 169 255 L 183 255 L 183 269 L 169 269 Z M 169 255 "/>
</clipPath>
<clipPath id="clip149">
  <path d="M 500 250 C 500 388.070312 388.070312 500 250 500 C 111.929688 500 0 388.070312 0 250 C 0 111.929688 111.929688 0 250 0 C 388.070312 0 500 111.929688 500 250 "/>
</clipPath>
<clipPath id="clip150">
  <path d="M 168 249 L 182 249 L 182 263 L 168 263 Z M 168 249 "/>
</clipPath>
<clipPath id="clip151">
  <path d="M 500 250 C 500 388.070312 388.070312 500 250 500 C 111.929688 500 0 388.070312 0 250 C 0 111.929688 111.929688 0 250 0 C 388.070312 0 500 111.929688 500 250 "/>
</clipPath>
<clipPath id="clip152">
  <path d="M 167 245 L 181 245 L 181 259 L 167 259 Z M 167 245 "/>
</clipPath>
<clipPath id="clip153">
  <path d="M 500 250 C 500 388.070312 388.070312 500 250 500 C 111.929688 500 0 388.070312 0 250 C 0 111.929688 111.929688 0 250 0 C 388.070312 0 500 111.929688 500 250 "/>
</clipPath>
<clipPath id="clip154">
  <path d="M 166 241 L 180 241 L 180 255 L 166 255 Z M 166 241 "/>
</clipPath>
<clipPath id="clip155">
  <path d="M 500 250 C 500 388.070312 388.070312 500 250 500 C 111.929688 500 0 388.070312 0 250 C 0 111.929688 111.929688 0 250 0 C 388.070312 0 500 111.929688 500 250 "/>
</clipPath>
<clipPath id="clip156">
  <path d="M 165 238 L 180 238 L 180 252 L 165 252 Z M 165 238 "/>
</clipPath>
<clipPath id="clip157">
  <path d="M 500 250 C 500 388.070312 388.070312 500 250 500 C 111.929688 500 0 388.070312 0 250 C 0 111.929688 111.929688 0 250 0 C 388.070312 0 500 111.929688 500 250 "/>
</clipPath>
<clipPath id="clip158">
  <path d="M 146 217 L 197 217 L 197 268 L 146 268 Z M 146 217 "/>
</clipPath>
<clipPath id="clip159">
  <path d="M 500 250 C 500 388.070312 388.070312 500 250 500 C 111.929688 500 0 388.070312 0 250 C 0 111.929688 111.929688 0 250 0 C 388.070312 0 500 111.929688 500 250 "/>
</clipPath>
</defs>
<g id="surface529">
<g clip-path="url(#clip1)" clip-rule="nonzero">
<rect x="0" y="0" width="500" height="500" style="fill:rgb(25.1%,38.8%,84.7%);fill-opacity:0.2;stroke:none;"/>
<path style="fill:none;stroke-width:2;stroke-linecap:butt;stroke-linejoin:miter;stroke:rgb(25.1%,38.8%,84.7%);stroke-opacity:1;stroke-miterlimit:10;" d="M 500 250 C 500 388.070312 388.070312 500 250 500 C 111.929688 500 0 388.070312 0 250 C 0 111.929688 111.929688 0 250 0 C 388.070312 0 500 111.929688 500 250 "/>
</g>
<g clip-path="url(#clip2)" clip-rule="nonzero">
<g clip-path="url(#clip3)" clip-rule="nonzero">
<path style="fill:none;stroke-width:6.666667;stroke-linecap:butt;stroke-linejoin:miter;stroke:rgb(25.1%,38.8%,84.7%);stroke-opacity:0.5;stroke-miterlimit:10;" d="M -7.75 363.25 C -11.269531 397.832031 -13.472656 379.789062 -2.539062 346.546875 C 7.382812 316.386719 -8.28125 361.347656 2.675781 331.550781 C 12.574219 304.632812 -3.089844 344.683594 7.890625 318.191406 C 17.765625 294.359375 2.101562 329.71875 13.101562 306.390625 C 22.957031 285.492188 7.296875 316.382812 18.316406 296.074219 C 28.152344 277.949219 12.5 304.59375 23.53125 287.171875 C 33.351562 271.65625 17.710938 294.28125 28.742188 279.609375 C 38.5625 266.542969 22.9375 285.367188 33.957031 273.304688 C 43.792969 262.535156 28.191406 277.785156 39.167969 268.191406 C 49.046875 259.554688 33.476562 271.46875 44.382812 264.191406 C 54.332031 257.546875 38.796875 266.363281 49.597656 261.230469 C 59.652344 256.449219 44.140625 262.40625 54.808594 259.234375 C 64.996094 256.203125 49.488281 259.535156 60.023438 258.128906 C 70.34375 256.746094 54.820312 257.675781 65.238281 257.835938 C 75.675781 258 60.121094 256.734375 70.449219 258.289062 C 80.976562 259.878906 65.386719 256.617188 75.664062 259.410156 C 86.238281 262.28125 70.621094 257.242188 80.875 261.121094 C 91.476562 265.132812 75.835938 258.527344 86.089844 263.355469 C 96.6875 268.339844 81.03125 260.394531 91.304688 266.027344 C 101.886719 271.835938 86.222656 262.769531 96.515625 269.074219 C 107.074219 275.539062 91.40625 265.582031 101.730469 272.414062 C 112.257812 279.382812 96.585938 268.753906 106.945312 275.972656 C 117.4375 283.289062 101.765625 272.21875 112.15625 279.679688 C 122.617188 287.191406 106.941406 275.902344 117.371094 283.460938 C 127.796875 291.015625 112.121094 279.734375 122.582031 287.238281 C 132.972656 294.6875 117.300781 283.640625 127.796875 290.9375 C 138.152344 298.136719 122.480469 287.546875 133.011719 294.484375 C 143.332031 301.285156 127.664062 291.382812 138.222656 297.808594 C 148.515625 304.070312 132.851562 295.074219 143.4375 300.828125 C 153.707031 306.414062 138.050781 298.550781 148.652344 303.476562 C 158.90625 308.242188 143.265625 301.738281 153.863281 305.675781 C 164.121094 309.484375 148.503906 304.558594 159.078125 307.351562 C 169.355469 310.0625 153.769531 306.933594 164.289062 308.425781 C 174.625 309.894531 159.074219 308.769531 169.503906 308.832031 C 179.925781 308.894531 164.40625 309.976562 174.71875 308.488281 C 185.261719 306.96875 169.753906 310.46875 179.929688 307.324219 C 190.609375 304.027344 175.097656 310.167969 185.144531 305.265625 C 195.953125 299.992188 180.414062 309.011719 190.359375 302.238281 C 201.269531 294.804688 185.699219 306.9375 195.570312 298.164062 C 206.550781 288.40625 190.949219 303.894531 200.785156 292.972656 C 211.804688 280.734375 196.175781 299.808594 205.996094 286.585938 C 217.03125 271.730469 201.386719 294.617188 211.210938 278.933594 C 222.242188 261.320312 206.589844 288.246094 216.425781 269.9375 C 227.441406 249.429688 211.78125 280.617188 221.636719 259.523438 C 232.636719 235.984375 216.976562 271.65625 226.851562 247.621094 C 237.828125 220.910156 222.167969 261.28125 232.066406 234.152344 C 243.019531 204.128906 227.355469 249.425781 237.277344 219.042969 C 248.210938 185.5625 232.550781 236.007812 242.492188 202.21875 C 253.402344 165.136719 237.742188 220.957031 247.707031 183.609375 C 258.597656 142.78125 242.9375 204.191406 252.917969 163.132812 C 263.789062 118.414062 248.132812 185.640625 258.132812 140.71875 C 268.984375 91.964844 253.328125 165.230469 263.34375 116.296875 C 274.183594 63.355469 258.527344 142.882812 268.558594 89.785156 C 279.378906 32.515625 263.726562 118.523438 273.773438 61.113281 C 284.578125 -0.636719 268.925781 92.078125 278.984375 30.203125 C 289.777344 -36.171875 274.125 63.476562 284.199219 -3.011719 C 294.980469 -74.160156 279.328125 32.636719 289.414062 -38.613281 C 300.179688 -114.6875 284.527344 -0.511719 294.625 -76.675781 C 305.382812 -157.816406 289.730469 -36.042969 299.839844 -117.265625 C 310.585938 -203.628906 294.933594 -74.03125 305.050781 -160.46875 C 315.789062 -252.195312 300.140625 -114.550781 310.265625 -206.351562 C 320.992188 -303.59375 305.34375 -157.679688 315.480469 -254.988281 C 326.199219 -357.894531 310.550781 -203.492188 320.691406 -306.457031 C 331.402344 -415.179688 315.753906 -252.058594 325.90625 -360.832031 C 336.609375 -475.515625 320.960938 -303.453125 331.121094 -418.1875 C 341.816406 -538.976562 326.167969 -357.757812 336.332031 -478.59375 C 347.019531 -605.644531 331.375 -415.039062 341.546875 -542.128906 C 352.226562 -675.589844 336.582031 -475.371094 346.757812 -608.871094 C 357.433594 -748.882812 341.789062 -538.835938 351.972656 -678.886719 C 362.640625 -825.605469 346.996094 -605.5 357.1875 -752.253906 C 367.851562 -905.828125 352.203125 -675.445312 362.398438 -829.050781 C 373.058594 -989.625 357.414062 -748.738281 367.613281 -909.34375 C 378.265625 -1077.070312 362.621094 -825.460938 372.828125 -993.214844 C 383.472656 -1168.238281 367.828125 -905.683594 378.039062 -1080.734375 C 388.683594 -1263.207031 373.039062 -989.480469 383.253906 -1171.976562 C 393.890625 -1362.046875 378.246094 -1076.925781 388.464844 -1267.019531 C 399.101562 -1464.835938 383.457031 -1168.09375 393.679688 -1365.933594 C 404.308594 -1571.644531 388.667969 -1263.0625 398.894531 -1468.792969 C 409.519531 -1682.550781 393.875 -1361.902344 404.105469 -1575.675781 C 414.730469 -1797.625 399.085938 -1464.691406 409.320312 -1686.65625 C 419.9375 -1916.945312 404.296875 -1571.5 414.535156 -1801.804688 C 425.148438 -2040.585938 409.503906 -1682.402344 419.746094 -1921.199219 C 430.359375 -2168.617188 414.714844 -1797.480469 424.960938 -2044.914062 C 435.570312 -2301.121094 419.925781 -1916.800781 430.175781 -2173.019531 C 440.777344 -2438.164062 425.136719 -2040.4375 435.386719 -2305.597656 C 445.988281 -2579.824219 430.347656 -2168.472656 440.601562 -2442.714844 C 451.199219 -2726.175781 435.558594 -2300.972656 445.8125 -2584.449219 C 456.410156 -2877.292969 440.765625 -2438.015625 451.027344 -2730.875 C 461.621094 -3033.253906 445.976562 -2579.675781 456.242188 -2882.066406 C 466.832031 -3194.125 451.1875 -2726.027344 461.453125 -3038.097656 C 472.042969 -3359.988281 456.398438 -2877.148438 466.667969 -3199.046875 C 477.253906 -3530.914062 461.609375 -3033.105469 471.882812 -3364.980469 C 482.464844 -3706.976562 466.820312 -3193.976562 477.09375 -3535.980469 C 487.675781 -3888.25 472.03125 -3359.839844 482.308594 -3712.117188 C 492.886719 -4074.8125 477.242188 -3530.765625 487.519531 -3893.46875 C 498.097656 -4266.738281 482.457031 -3706.828125 492.734375 -4080.105469 C 503.308594 -4464.097656 487.667969 -3888.101562 497.949219 -4272.101562 C 508.519531 -4666.964844 492.878906 -4074.664062 503.160156 -4469.535156 C 513.730469 -4875.421875 547.773438 -5045.160156 508.375 -4672.480469 "/>
</g>
</g>
<g clip-path="url(#clip4)" clip-rule="nonzero">
<g clip-path="url(#clip5)" clip-rule="nonzero">
<path style=" stroke:none;fill-rule:nonzero;fill:rgb(79.6%,23.5%,20%);fill-opacity:0.2;" d="M 249.492188 320.121094 C 249.492188 333.929688 238.300781 345.121094 224.492188 345.121094 C 210.6875 345.121094 199.492188 333.929688 199.492188 320.121094 C 199.492188 306.316406 210.6875 295.121094 224.492188 295.121094 C 238.300781 295.121094 249.492188 306.316406 249.492188 320.121094 "/>
</g>
</g>
<g clip-path="url(#clip6)" clip-rule="nonzero">
<g clip-path="url(#clip7)" clip-rule="nonzero">
<path style=" stroke:none;fill-rule:nonzero;fill:rgb(58.4%,34.5%,69.8%);fill-opacity:0.2;" d="M 191.515625 168.242188 C 191.515625 182.046875 180.324219 193.242188 166.515625 193.242188 C 152.707031 193.242188 141.515625 182.046875 141.515625 168.242188 C 141.515625 154.433594 152.707031 143.242188 166.515625 143.242188 C 180.324219 143.242188 191.515625 154.433594 191.515625 168.242188 "/>
</g>
</g>
<g clip-path="url(#clip8)" clip-rule="nonzero">
<g clip-path="url(#clip9)" clip-rule="nonzero">
<path style=" stroke:none;fill-rule:nonzero;fill:rgb(58.4%,34.5%,69.8%);fill-opacity:0.2;" d="M 203.527344 133.058594 C 203.527344 146.867188 192.332031 158.058594 178.527344 158.058594 C 164.71875 158.058594 153.527344 146.867188 153.527344 133.058594 C 153.527344 119.253906 164.71875 108.058594 178.527344 108.058594 C 192.332031 108.058594 203.527344 119.253906 203.527344 133.058594 "/>
</g>
</g>
<g clip-path="url(#clip10)" clip-rule="nonzero">
<g clip-path="url(#clip11)" clip-rule="nonzero">
<path style=" stroke:none;fill-rule:nonzero;fill:rgb(22%,59.6%,14.9%);fill-opacity:0.2;" d="M 316.796875 174.53125 C 316.796875 188.339844 305.605469 199.53125 291.796875 199.53125 C 277.992188 199.53125 266.796875 188.339844 266.796875 174.53125 C 266.796875 160.726562 277.992188 149.53125 291.796875 149.53125 C 305.605469 149.53125 316.796875 160.726562 316.796875 174.53125 "/>
</g>
</g>
<g clip-path="url(#clip12)" clip-rule="nonzero">
<g clip-path="url(#clip13)" clip-rule="nonzero">
<path style=" stroke:none;fill-rule:nonzero;fill:rgb(79.6%,23.5%,20%);fill-opacity:0.2;" d="M 254.328125 328.367188 C 254.328125 342.171875 243.136719 353.367188 229.328125 353.367188 C 215.523438 353.367188 204.328125 342.171875 204.328125 328.367188 C 204.328125 314.558594 215.523438 303.367188 229.328125 303.367188 C 243.136719 303.367188 254.328125 314.558594 254.328125 328.367188 "/>
</g>
</g>
<g clip-path="url(#clip14)" clip-rule="nonzero">
<g clip-path="url(#clip15)" clip-rule="nonzero">
<path style=" stroke:none;fill-rule:nonzero;fill:rgb(79.6%,23.5%,20%);fill-opacity:0.2;" d="M 273.972656 343.695312 C 273.972656 357.5 262.78125 368.695312 248.972656 368.695312 C 235.164062 368.695312 223.972656 357.5 223.972656 343.695312 C 223.972656 329.886719 235.164062 318.695312 248.972656 318.695312 C 262.78125 318.695312 273.972656 329.886719 273.972656 343.695312 "/>
</g>
</g>
<g clip-path="url(#clip16)" clip-rule="nonzero">
<g clip-path="url(#clip17)" clip-rule="nonzero">
<path style=" stroke:none;fill-rule:nonzero;fill:rgb(22%,59.6%,14.9%);fill-opacity:0.2;" d="M 322.375 156.363281 C 322.375 170.171875 311.179688 181.363281 297.375 181.363281 C 283.566406 181.363281 272.375 170.171875 272.375 156.363281 C 272.375 142.558594 283.566406 131.363281 297.375 131.363281 C 311.179688 131.363281 322.375 142.558594 322.375 156.363281 "/>
</g>
</g>
<g clip-path="url(#clip18)" clip-rule="nonzero">
<g clip-path="url(#clip19)" clip-rule="nonzero">
<path style=" stroke:none;fill-rule:nonzero;fill:rgb(22%,59.6%,14.9%);fill-opacity:0.2;" d="M 417.871094 112.582031 C 417.871094 126.390625 406.679688 137.582031 392.871094 137.582031 C 379.0625 137.582031 367.871094 126.390625 367.871094 112.582031 C 367.871094 98.777344 379.0625 87.582031 392.871094 87.582031 C 406.679688 87.582031 417.871094 98.777344 417.871094 112.582031 "/>
</g>
</g>
<g clip-path="url(#clip20)" clip-rule="nonzero">
<g clip-path="url(#clip21)" clip-rule="nonzero">
<path style=" stroke:none;fill-rule:nonzero;fill:rgb(58.4%,34.5%,69.8%);fill-opacity:0.2;" d="M 175.824219 65.65625 C 175.824219 79.464844 164.632812 90.65625 150.824219 90.65625 C 137.015625 90.65625 125.824219 79.464844 125.824219 65.65625 C 125.824219 51.847656 137.015625 40.65625 150.824219 40.65625 C 164.632812 40.65625 175.824219 51.847656 175.824219 65.65625 "/>
</g>
</g>
<g clip-path="url(#clip22)" clip-rule="nonzero">
<g clip-path="url(#clip23)" clip-rule="nonzero">
<path style=" stroke:none;fill-rule:nonzero;fill:rgb(79.6%,23.5%,20%);fill-opacity:0.2;" d="M 260.445312 378.847656 C 260.445312 392.65625 249.253906 403.847656 235.445312 403.847656 C 221.640625 403.847656 210.445312 392.65625 210.445312 378.847656 C 210.445312 365.042969 221.640625 353.847656 235.445312 353.847656 C 249.253906 353.847656 260.445312 365.042969 260.445312 378.847656 "/>
</g>
</g>
<g clip-path="url(#clip24)" clip-rule="nonzero">
<g clip-path="url(#clip25)" clip-rule="nonzero">
<path style=" stroke:none;fill-rule:nonzero;fill:rgb(22%,59.6%,14.9%);fill-opacity:0.2;" d="M 360.496094 207.953125 C 360.496094 221.757812 349.304688 232.953125 335.496094 232.953125 C 321.691406 232.953125 310.496094 221.757812 310.496094 207.953125 C 310.496094 194.144531 321.691406 182.953125 335.496094 182.953125 C 349.304688 182.953125 360.496094 194.144531 360.496094 207.953125 "/>
</g>
</g>
<g clip-path="url(#clip26)" clip-rule="nonzero">
<g clip-path="url(#clip27)" clip-rule="nonzero">
<path style=" stroke:none;fill-rule:nonzero;fill:rgb(22%,59.6%,14.9%);fill-opacity:0.2;" d="M 361.300781 176.859375 C 361.300781 190.667969 350.105469 201.859375 336.300781 201.859375 C 322.492188 201.859375 311.300781 190.667969 311.300781 176.859375 C 311.300781 163.054688 322.492188 151.859375 336.300781 151.859375 C 350.105469 151.859375 361.300781 163.054688 361.300781 176.859375 "/>
</g>
</g>
<g clip-path="url(#clip28)" clip-rule="nonzero">
<g clip-path="url(#clip29)" clip-rule="nonzero">
<path style=" stroke:none;fill-rule:nonzero;fill:rgb(22%,59.6%,14.9%);fill-opacity:0.2;" d="M 433.375 90.683594 C 433.375 104.488281 422.183594 115.683594 408.375 115.683594 C 394.566406 115.683594 383.375 104.488281 383.375 90.683594 C 383.375 76.875 394.566406 65.683594 408.375 65.683594 C 422.183594 65.683594 433.375 76.875 433.375 90.683594 "/>
</g>
</g>
<g clip-path="url(#clip30)" clip-rule="nonzero">
<g clip-path="url(#clip31)" clip-rule="nonzero">
<path style=" stroke:none;fill-rule:nonzero;fill:rgb(79.6%,23.5%,20%);fill-opacity:0.2;" d="M 290.425781 402.386719 C 290.425781 416.191406 279.230469 427.386719 265.425781 427.386719 C 251.617188 427.386719 240.425781 416.191406 240.425781 402.386719 C 240.425781 388.578125 251.617188 377.386719 265.425781 377.386719 C 279.230469 377.386719 290.425781 388.578125 290.425781 402.386719 "/>
</g>
</g>
<g clip-path="url(#clip32)" clip-rule="nonzero">
<g clip-path="url(#clip33)" clip-rule="nonzero">
<path style=" stroke:none;fill-rule:nonzero;fill:rgb(22%,59.6%,14.9%);fill-opacity:0.2;" d="M 411.875 152.5625 C 411.875 166.371094 400.683594 177.5625 386.875 177.5625 C 373.066406 177.5625 361.875 166.371094 361.875 152.5625 C 361.875 138.757812 373.066406 127.5625 386.875 127.5625 C 400.683594 127.5625 411.875 138.757812 411.875 152.5625 "/>
</g>
</g>
<g clip-path="url(#clip34)" clip-rule="nonzero">
<g clip-path="url(#clip35)" clip-rule="nonzero">
<path style=" stroke:none;fill-rule:nonzero;fill:rgb(22%,59.6%,14.9%);fill-opacity:0.2;" d="M 376.257812 102.5625 C 376.257812 116.367188 365.066406 127.5625 351.257812 127.5625 C 337.449219 127.5625 326.257812 116.367188 326.257812 102.5625 C 326.257812 88.753906 337.449219 77.5625 351.257812 77.5625 C 365.066406 77.5625 376.257812 88.753906 376.257812 102.5625 "/>
</g>
</g>
<g clip-path="url(#clip36)" clip-rule="nonzero">
<g clip-path="url(#clip37)" clip-rule="nonzero">
<path style=" stroke:none;fill-rule:nonzero;fill:rgb(58.4%,34.5%,69.8%);fill-opacity:0.2;" d="M 182.445312 143.199219 C 182.445312 157.007812 171.253906 168.199219 157.445312 168.199219 C 143.640625 168.199219 132.445312 157.007812 132.445312 143.199219 C 132.445312 129.390625 143.640625 118.199219 157.445312 118.199219 C 171.253906 118.199219 182.445312 129.390625 182.445312 143.199219 "/>
</g>
</g>
<g clip-path="url(#clip38)" clip-rule="nonzero">
<g clip-path="url(#clip39)" clip-rule="nonzero">
<path style=" stroke:none;fill-rule:nonzero;fill:rgb(79.6%,23.5%,20%);fill-opacity:0.2;" d="M 277.707031 402.179688 C 277.707031 415.988281 266.515625 427.179688 252.707031 427.179688 C 238.902344 427.179688 227.707031 415.988281 227.707031 402.179688 C 227.707031 388.371094 238.902344 377.179688 252.707031 377.179688 C 266.515625 377.179688 277.707031 388.371094 277.707031 402.179688 "/>
</g>
</g>
<g clip-path="url(#clip40)" clip-rule="nonzero">
<g clip-path="url(#clip41)" clip-rule="nonzero">
<path style=" stroke:none;fill-rule:nonzero;fill:rgb(79.6%,23.5%,20%);fill-opacity:0.2;" d="M 304.5 353.089844 C 304.5 366.898438 293.308594 378.089844 279.5 378.089844 C 265.695312 378.089844 254.5 366.898438 254.5 353.089844 C 254.5 339.285156 265.695312 328.089844 279.5 328.089844 C 293.308594 328.089844 304.5 339.285156 304.5 353.089844 "/>
</g>
</g>
<g clip-path="url(#clip42)" clip-rule="nonzero">
<g clip-path="url(#clip43)" clip-rule="nonzero">
<path style=" stroke:none;fill-rule:nonzero;fill:rgb(22%,59.6%,14.9%);fill-opacity:0.2;" d="M 326.75 85.847656 C 326.75 99.65625 315.558594 110.847656 301.75 110.847656 C 287.941406 110.847656 276.75 99.65625 276.75 85.847656 C 276.75 72.039062 287.941406 60.847656 301.75 60.847656 C 315.558594 60.847656 326.75 72.039062 326.75 85.847656 "/>
</g>
</g>
<g clip-path="url(#clip44)" clip-rule="nonzero">
<g clip-path="url(#clip45)" clip-rule="nonzero">
<path style=" stroke:none;fill-rule:nonzero;fill:rgb(22%,59.6%,14.9%);fill-opacity:0.2;" d="M 350.875 121.371094 C 350.875 135.179688 339.683594 146.371094 325.875 146.371094 C 312.066406 146.371094 300.875 135.179688 300.875 121.371094 C 300.875 107.566406 312.066406 96.371094 325.875 96.371094 C 339.683594 96.371094 350.875 107.566406 350.875 121.371094 "/>
</g>
</g>
<g clip-path="url(#clip46)" clip-rule="nonzero">
<g clip-path="url(#clip47)" clip-rule="nonzero">
<path style=" stroke:none;fill-rule:nonzero;fill:rgb(79.6%,23.5%,20%);fill-opacity:0.2;" d="M 324.445312 358.390625 C 324.445312 372.199219 313.253906 383.390625 299.445312 383.390625 C 285.640625 383.390625 274.445312 372.199219 274.445312 358.390625 C 274.445312 344.585938 285.640625 333.390625 299.445312 333.390625 C 313.253906 333.390625 324.445312 344.585938 324.445312 358.390625 "/>
</g>
</g>
<g clip-path="url(#clip48)" clip-rule="nonzero">
<g clip-path="url(#clip49)" clip-rule="nonzero">
<path style=" stroke:none;fill-rule:nonzero;fill:rgb(58.4%,34.5%,69.8%);fill-opacity:0.2;" d="M 170.40625 76.078125 C 170.40625 89.886719 159.214844 101.078125 145.40625 101.078125 C 131.601562 101.078125 120.40625 89.886719 120.40625 76.078125 C 120.40625 62.269531 131.601562 51.078125 145.40625 51.078125 C 159.214844 51.078125 170.40625 62.269531 170.40625 76.078125 "/>
</g>
</g>
<g clip-path="url(#clip50)" clip-rule="nonzero">
<g clip-path="url(#clip51)" clip-rule="nonzero">
<path style=" stroke:none;fill-rule:nonzero;fill:rgb(79.6%,23.5%,20%);fill-opacity:0.2;" d="M 263.386719 343.695312 C 263.386719 357.503906 252.191406 368.695312 238.386719 368.695312 C 224.578125 368.695312 213.386719 357.503906 213.386719 343.695312 C 213.386719 329.890625 224.578125 318.695312 238.386719 318.695312 C 252.191406 318.695312 263.386719 329.890625 263.386719 343.695312 "/>
</g>
</g>
<g clip-path="url(#clip52)" clip-rule="nonzero">
<g clip-path="url(#clip53)" clip-rule="nonzero">
<path style=" stroke:none;fill-rule:nonzero;fill:rgb(58.4%,34.5%,69.8%);fill-opacity:0.2;" d="M 152.425781 160.316406 C 152.425781 174.125 141.234375 185.316406 127.425781 185.316406 C 113.621094 185.316406 102.425781 174.125 102.425781 160.316406 C 102.425781 146.511719 113.621094 135.316406 127.425781 135.316406 C 141.234375 135.316406 152.425781 146.511719 152.425781 160.316406 "/>
</g>
</g>
<g clip-path="url(#clip54)" clip-rule="nonzero">
<g clip-path="url(#clip55)" clip-rule="nonzero">
<path style=" stroke:none;fill-rule:nonzero;fill:rgb(79.6%,23.5%,20%);fill-opacity:0.2;" d="M 252.460938 347.039062 C 252.460938 360.847656 241.269531 372.039062 227.460938 372.039062 C 213.65625 372.039062 202.460938 360.847656 202.460938 347.039062 C 202.460938 333.230469 213.65625 322.039062 227.460938 322.039062 C 241.269531 322.039062 252.460938 333.230469 252.460938 347.039062 "/>
</g>
</g>
<g clip-path="url(#clip56)" clip-rule="nonzero">
<g clip-path="url(#clip57)" clip-rule="nonzero">
<path style=" stroke:none;fill-rule:nonzero;fill:rgb(58.4%,34.5%,69.8%);fill-opacity:0.2;" d="M 173.175781 214.832031 C 173.175781 228.636719 161.984375 239.832031 148.175781 239.832031 C 134.371094 239.832031 123.175781 228.636719 123.175781 214.832031 C 123.175781 201.023438 134.371094 189.832031 148.175781 189.832031 C 161.984375 189.832031 173.175781 201.023438 173.175781 214.832031 "/>
</g>
</g>
<g clip-path="url(#clip58)" clip-rule="nonzero">
<g clip-path="url(#clip59)" clip-rule="nonzero">
<path style=" stroke:none;fill-rule:nonzero;fill:rgb(58.4%,34.5%,69.8%);fill-opacity:0.2;" d="M 130.117188 92.730469 C 130.117188 106.535156 118.925781 117.730469 105.117188 117.730469 C 91.3125 117.730469 80.117188 106.535156 80.117188 92.730469 C 80.117188 78.921875 91.3125 67.730469 105.117188 67.730469 C 118.925781 67.730469 130.117188 78.921875 130.117188 92.730469 "/>
</g>
</g>
<g clip-path="url(#clip60)" clip-rule="nonzero">
<g clip-path="url(#clip61)" clip-rule="nonzero">
<path style=" stroke:none;fill-rule:nonzero;fill:rgb(58.4%,34.5%,69.8%);fill-opacity:0.2;" d="M 156.941406 139.066406 C 156.941406 152.875 145.746094 164.066406 131.941406 164.066406 C 118.132812 164.066406 106.941406 152.875 106.941406 139.066406 C 106.941406 125.257812 118.132812 114.066406 131.941406 114.066406 C 145.746094 114.066406 156.941406 125.257812 156.941406 139.066406 "/>
</g>
</g>
<g clip-path="url(#clip62)" clip-rule="nonzero">
<g clip-path="url(#clip63)" clip-rule="nonzero">
<path style=" stroke:none;fill-rule:nonzero;fill:rgb(58.4%,34.5%,69.8%);fill-opacity:0.2;" d="M 162.875 193.765625 C 162.875 207.570312 151.683594 218.765625 137.875 218.765625 C 124.066406 218.765625 112.875 207.570312 112.875 193.765625 C 112.875 179.957031 124.066406 168.765625 137.875 168.765625 C 151.683594 168.765625 162.875 179.957031 162.875 193.765625 "/>
</g>
</g>
<g clip-path="url(#clip64)" clip-rule="nonzero">
<g clip-path="url(#clip65)" clip-rule="nonzero">
<path style=" stroke:none;fill-rule:nonzero;fill:rgb(58.4%,34.5%,69.8%);fill-opacity:0.2;" d="M 270.84375 180.078125 C 270.84375 193.882812 259.652344 205.078125 245.84375 205.078125 C 232.039062 205.078125 220.84375 193.882812 220.84375 180.078125 C 220.84375 166.269531 232.039062 155.078125 245.84375 155.078125 C 259.652344 155.078125 270.84375 166.269531 270.84375 180.078125 "/>
</g>
</g>
<g clip-path="url(#clip66)" clip-rule="nonzero">
<g clip-path="url(#clip67)" clip-rule="nonzero">
<path style=" stroke:none;fill-rule:nonzero;fill:rgb(58.4%,34.5%,69.8%);fill-opacity:0.2;" d="M 198.292969 155.070312 C 198.292969 168.875 187.101562 180.070312 173.292969 180.070312 C 159.488281 180.070312 148.292969 168.875 148.292969 155.070312 C 148.292969 141.261719 159.488281 130.070312 173.292969 130.070312 C 187.101562 130.070312 198.292969 141.261719 198.292969 155.070312 "/>
</g>
</g>
<g clip-path="url(#clip68)" clip-rule="nonzero">
<g clip-path="url(#clip69)" clip-rule="nonzero">
<path style=" stroke:none;fill-rule:nonzero;fill:rgb(58.4%,34.5%,69.8%);fill-opacity:0.2;" d="M 140.84375 154.601562 C 140.84375 168.410156 129.652344 179.601562 115.84375 179.601562 C 102.039062 179.601562 90.84375 168.410156 90.84375 154.601562 C 90.84375 140.792969 102.039062 129.601562 115.84375 129.601562 C 129.652344 129.601562 140.84375 140.792969 140.84375 154.601562 "/>
</g>
</g>
<g clip-path="url(#clip70)" clip-rule="nonzero">
<g clip-path="url(#clip71)" clip-rule="nonzero">
<path style=" stroke:none;fill-rule:nonzero;fill:rgb(58.4%,34.5%,69.8%);fill-opacity:0.2;" d="M 197.363281 153.453125 C 197.363281 167.257812 186.171875 178.453125 172.363281 178.453125 C 158.558594 178.453125 147.363281 167.257812 147.363281 153.453125 C 147.363281 139.644531 158.558594 128.453125 172.363281 128.453125 C 186.171875 128.453125 197.363281 139.644531 197.363281 153.453125 "/>
</g>
</g>
<g clip-path="url(#clip72)" clip-rule="nonzero">
<g clip-path="url(#clip73)" clip-rule="nonzero">
<path style=" stroke:none;fill-rule:nonzero;fill:rgb(79.6%,23.5%,20%);fill-opacity:0.2;" d="M 321.960938 351.492188 C 321.960938 365.300781 310.769531 376.492188 296.960938 376.492188 C 283.15625 376.492188 271.960938 365.300781 271.960938 351.492188 C 271.960938 337.683594 283.15625 326.492188 296.960938 326.492188 C 310.769531 326.492188 321.960938 337.683594 321.960938 351.492188 "/>
</g>
</g>
<g clip-path="url(#clip74)" clip-rule="nonzero">
<g clip-path="url(#clip75)" clip-rule="nonzero">
<path style=" stroke:none;fill-rule:nonzero;fill:rgb(79.6%,23.5%,20%);fill-opacity:0.2;" d="M 289.738281 319.96875 C 289.738281 333.777344 278.542969 344.96875 264.738281 344.96875 C 250.929688 344.96875 239.738281 333.777344 239.738281 319.96875 C 239.738281 306.164062 250.929688 294.96875 264.738281 294.96875 C 278.542969 294.96875 289.738281 306.164062 289.738281 319.96875 "/>
</g>
</g>
<g clip-path="url(#clip76)" clip-rule="nonzero">
<g clip-path="url(#clip77)" clip-rule="nonzero">
<path style=" stroke:none;fill-rule:nonzero;fill:rgb(58.4%,34.5%,69.8%);fill-opacity:0.2;" d="M 160.660156 107.171875 C 160.660156 120.980469 149.46875 132.171875 135.660156 132.171875 C 121.855469 132.171875 110.660156 120.980469 110.660156 107.171875 C 110.660156 93.363281 121.855469 82.171875 135.660156 82.171875 C 149.46875 82.171875 160.660156 93.363281 160.660156 107.171875 "/>
</g>
</g>
<g clip-path="url(#clip78)" clip-rule="nonzero">
<g clip-path="url(#clip79)" clip-rule="nonzero">
<path style=" stroke:none;fill-rule:nonzero;fill:rgb(79.6%,23.5%,20%);fill-opacity:0.2;" d="M 266.46875 373.269531 C 266.46875 387.074219 255.273438 398.269531 241.46875 398.269531 C 227.660156 398.269531 216.46875 387.074219 216.46875 373.269531 C 216.46875 359.460938 227.660156 348.269531 241.46875 348.269531 C 255.273438 348.269531 266.46875 359.460938 266.46875 373.269531 "/>
</g>
</g>
<g clip-path="url(#clip80)" clip-rule="nonzero">
<g clip-path="url(#clip81)" clip-rule="nonzero">
<path style=" stroke:none;fill-rule:nonzero;fill:rgb(58.4%,34.5%,69.8%);fill-opacity:0.2;" d="M 195.59375 172.027344 C 195.59375 185.832031 184.402344 197.027344 170.59375 197.027344 C 156.785156 197.027344 145.59375 185.832031 145.59375 172.027344 C 145.59375 158.21875 156.785156 147.027344 170.59375 147.027344 C 184.402344 147.027344 195.59375 158.21875 195.59375 172.027344 "/>
</g>
</g>
<g clip-path="url(#clip82)" clip-rule="nonzero">
<g clip-path="url(#clip83)" clip-rule="nonzero">
<path style=" stroke:none;fill-rule:nonzero;fill:rgb(79.6%,23.5%,20%);fill-opacity:0.2;" d="M 294.75 325.238281 C 294.75 339.046875 283.554688 350.238281 269.75 350.238281 C 255.941406 350.238281 244.75 339.046875 244.75 325.238281 C 244.75 311.433594 255.941406 300.238281 269.75 300.238281 C 283.554688 300.238281 294.75 311.433594 294.75 325.238281 "/>
</g>
</g>
<g clip-path="url(#clip84)" clip-rule="nonzero">
<g clip-path="url(#clip85)" clip-rule="nonzero">
<path style=" stroke:none;fill-rule:nonzero;fill:rgb(79.6%,23.5%,20%);fill-opacity:0.2;" d="M 317.140625 421.089844 C 317.140625 434.898438 305.945312 446.089844 292.140625 446.089844 C 278.332031 446.089844 267.140625 434.898438 267.140625 421.089844 C 267.140625 407.285156 278.332031 396.089844 292.140625 396.089844 C 305.945312 396.089844 317.140625 407.285156 317.140625 421.089844 "/>
</g>
</g>
<g clip-path="url(#clip86)" clip-rule="nonzero">
<g clip-path="url(#clip87)" clip-rule="nonzero">
<path style=" stroke:none;fill-rule:nonzero;fill:rgb(79.6%,23.5%,20%);fill-opacity:0.2;" d="M 352.890625 380.25 C 352.890625 394.054688 341.699219 405.25 327.890625 405.25 C 314.082031 405.25 302.890625 394.054688 302.890625 380.25 C 302.890625 366.441406 314.082031 355.25 327.890625 355.25 C 341.699219 355.25 352.890625 366.441406 352.890625 380.25 "/>
</g>
</g>
<g clip-path="url(#clip88)" clip-rule="nonzero">
<g clip-path="url(#clip89)" clip-rule="nonzero">
<path style=" stroke:none;fill-rule:nonzero;fill:rgb(22%,59.6%,14.9%);fill-opacity:0.2;" d="M 407.730469 187.070312 C 407.730469 200.878906 396.539062 212.070312 382.730469 212.070312 C 368.925781 212.070312 357.730469 200.878906 357.730469 187.070312 C 357.730469 173.265625 368.925781 162.070312 382.730469 162.070312 C 396.539062 162.070312 407.730469 173.265625 407.730469 187.070312 "/>
</g>
</g>
<g clip-path="url(#clip90)" clip-rule="nonzero">
<g clip-path="url(#clip91)" clip-rule="nonzero">
<path style=" stroke:none;fill-rule:nonzero;fill:rgb(22%,59.6%,14.9%);fill-opacity:0.2;" d="M 422.195312 132.535156 C 422.195312 146.34375 411 157.535156 397.195312 157.535156 C 383.386719 157.535156 372.195312 146.34375 372.195312 132.535156 C 372.195312 118.726562 383.386719 107.535156 397.195312 107.535156 C 411 107.535156 422.195312 118.726562 422.195312 132.535156 "/>
</g>
</g>
<g clip-path="url(#clip92)" clip-rule="nonzero">
<g clip-path="url(#clip93)" clip-rule="nonzero">
<path style=" stroke:none;fill-rule:nonzero;fill:rgb(22%,59.6%,14.9%);fill-opacity:0.2;" d="M 341.808594 128.105469 C 341.808594 141.914062 330.617188 153.105469 316.808594 153.105469 C 303.003906 153.105469 291.808594 141.914062 291.808594 128.105469 C 291.808594 114.296875 303.003906 103.105469 316.808594 103.105469 C 330.617188 103.105469 341.808594 114.296875 341.808594 128.105469 "/>
</g>
</g>
<g clip-path="url(#clip94)" clip-rule="nonzero">
<g clip-path="url(#clip95)" clip-rule="nonzero">
<path style=" stroke:none;fill-rule:nonzero;fill:rgb(79.6%,23.5%,20%);fill-opacity:0.2;" d="M 278.585938 376.429688 C 278.585938 390.234375 267.394531 401.429688 253.585938 401.429688 C 239.78125 401.429688 228.585938 390.234375 228.585938 376.429688 C 228.585938 362.621094 239.78125 351.429688 253.585938 351.429688 C 267.394531 351.429688 278.585938 362.621094 278.585938 376.429688 "/>
</g>
</g>
<g clip-path="url(#clip96)" clip-rule="nonzero">
<g clip-path="url(#clip97)" clip-rule="nonzero">
<path style=" stroke:none;fill-rule:nonzero;fill:rgb(58.4%,34.5%,69.8%);fill-opacity:0.2;" d="M 211.960938 146.90625 C 211.960938 160.714844 200.769531 171.90625 186.960938 171.90625 C 173.152344 171.90625 161.960938 160.714844 161.960938 146.90625 C 161.960938 133.101562 173.152344 121.90625 186.960938 121.90625 C 200.769531 121.90625 211.960938 133.101562 211.960938 146.90625 "/>
</g>
</g>
<g clip-path="url(#clip98)" clip-rule="nonzero">
<g clip-path="url(#clip99)" clip-rule="nonzero">
<path style=" stroke:none;fill-rule:nonzero;fill:rgb(58.4%,34.5%,69.8%);fill-opacity:0.2;" d="M 174.296875 141.652344 C 174.296875 155.460938 163.101562 166.652344 149.296875 166.652344 C 135.488281 166.652344 124.296875 155.460938 124.296875 141.652344 C 124.296875 127.847656 135.488281 116.652344 149.296875 116.652344 C 163.101562 116.652344 174.296875 127.847656 174.296875 141.652344 "/>
</g>
</g>
<g clip-path="url(#clip100)" clip-rule="nonzero">
<g clip-path="url(#clip101)" clip-rule="nonzero">
<path style=" stroke:none;fill-rule:nonzero;fill:rgb(79.6%,23.5%,20%);fill-opacity:0.2;" d="M 256.179688 336.828125 C 256.179688 350.636719 244.988281 361.828125 231.179688 361.828125 C 217.375 361.828125 206.179688 350.636719 206.179688 336.828125 C 206.179688 323.023438 217.375 311.828125 231.179688 311.828125 C 244.988281 311.828125 256.179688 323.023438 256.179688 336.828125 "/>
</g>
</g>
<g clip-path="url(#clip102)" clip-rule="nonzero">
<g clip-path="url(#clip103)" clip-rule="nonzero">
<path style=" stroke:none;fill-rule:nonzero;fill:rgb(79.6%,23.5%,20%);fill-opacity:0.2;" d="M 270.402344 363.015625 C 270.402344 376.824219 259.207031 388.015625 245.402344 388.015625 C 231.59375 388.015625 220.402344 376.824219 220.402344 363.015625 C 220.402344 349.210938 231.59375 338.015625 245.402344 338.015625 C 259.207031 338.015625 270.402344 349.210938 270.402344 363.015625 "/>
</g>
</g>
<g clip-path="url(#clip104)" clip-rule="nonzero">
<g clip-path="url(#clip105)" clip-rule="nonzero">
<path style=" stroke:none;fill-rule:nonzero;fill:rgb(22%,59.6%,14.9%);fill-opacity:0.2;" d="M 329.535156 162.679688 C 329.535156 176.488281 318.34375 187.679688 304.535156 187.679688 C 290.730469 187.679688 279.535156 176.488281 279.535156 162.679688 C 279.535156 148.875 290.730469 137.679688 304.535156 137.679688 C 318.34375 137.679688 329.535156 148.875 329.535156 162.679688 "/>
</g>
</g>
<g clip-path="url(#clip106)" clip-rule="nonzero">
<g clip-path="url(#clip107)" clip-rule="nonzero">
<path style=" stroke:none;fill-rule:nonzero;fill:rgb(79.6%,23.5%,20%);fill-opacity:0.2;" d="M 196.410156 353.992188 C 196.410156 367.800781 185.21875 378.992188 171.410156 378.992188 C 157.605469 378.992188 146.410156 367.800781 146.410156 353.992188 C 146.410156 340.183594 157.605469 328.992188 171.410156 328.992188 C 185.21875 328.992188 196.410156 340.183594 196.410156 353.992188 "/>
</g>
</g>
<g clip-path="url(#clip108)" clip-rule="nonzero">
<g clip-path="url(#clip109)" clip-rule="nonzero">
<path style=" stroke:none;fill-rule:nonzero;fill:rgb(22%,59.6%,14.9%);fill-opacity:0.2;" d="M 345.230469 134.84375 C 345.230469 148.652344 334.039062 159.84375 320.230469 159.84375 C 306.425781 159.84375 295.230469 148.652344 295.230469 134.84375 C 295.230469 121.035156 306.425781 109.84375 320.230469 109.84375 C 334.039062 109.84375 345.230469 121.035156 345.230469 134.84375 "/>
</g>
</g>
<g clip-path="url(#clip110)" clip-rule="nonzero">
<g clip-path="url(#clip111)" clip-rule="nonzero">
<path style=" stroke:none;fill-rule:nonzero;fill:rgb(79.6%,23.5%,20%);fill-opacity:0.2;" d="M 250.144531 276.785156 C 250.144531 290.589844 238.953125 301.785156 225.144531 301.785156 C 211.339844 301.785156 200.144531 290.589844 200.144531 276.785156 C 200.144531 262.976562 211.339844 251.785156 225.144531 251.785156 C 238.953125 251.785156 250.144531 262.976562 250.144531 276.785156 "/>
</g>
</g>
<g clip-path="url(#clip112)" clip-rule="nonzero">
<g clip-path="url(#clip113)" clip-rule="nonzero">
<path style=" stroke:none;fill-rule:nonzero;fill:rgb(58.4%,34.5%,69.8%);fill-opacity:0.2;" d="M 213.15625 198.042969 C 213.15625 211.847656 201.964844 223.042969 188.15625 223.042969 C 174.347656 223.042969 163.15625 211.847656 163.15625 198.042969 C 163.15625 184.234375 174.347656 173.042969 188.15625 173.042969 C 201.964844 173.042969 213.15625 184.234375 213.15625 198.042969 "/>
</g>
</g>
<g clip-path="url(#clip114)" clip-rule="nonzero">
<g clip-path="url(#clip115)" clip-rule="nonzero">
<path style=" stroke:none;fill-rule:nonzero;fill:rgb(58.4%,34.5%,69.8%);fill-opacity:0.2;" d="M 166.375 221.632812 C 166.375 235.4375 155.183594 246.632812 141.375 246.632812 C 127.566406 246.632812 116.375 235.4375 116.375 221.632812 C 116.375 207.824219 127.566406 196.632812 141.375 196.632812 C 155.183594 196.632812 166.375 207.824219 166.375 221.632812 "/>
</g>
</g>
<g clip-path="url(#clip116)" clip-rule="nonzero">
<g clip-path="url(#clip117)" clip-rule="nonzero">
<path style=" stroke:none;fill-rule:nonzero;fill:rgb(58.4%,34.5%,69.8%);fill-opacity:0.2;" d="M 242.265625 200.371094 C 242.265625 214.175781 231.070312 225.371094 217.265625 225.371094 C 203.457031 225.371094 192.265625 214.175781 192.265625 200.371094 C 192.265625 186.5625 203.457031 175.371094 217.265625 175.371094 C 231.070312 175.371094 242.265625 186.5625 242.265625 200.371094 "/>
</g>
</g>
<g clip-path="url(#clip118)" clip-rule="nonzero">
<g clip-path="url(#clip119)" clip-rule="nonzero">
<path style=" stroke:none;fill-rule:nonzero;fill:rgb(22%,59.6%,14.9%);fill-opacity:0.2;" d="M 337.996094 149.976562 C 337.996094 163.785156 326.804688 174.976562 312.996094 174.976562 C 299.1875 174.976562 287.996094 163.785156 287.996094 149.976562 C 287.996094 136.171875 299.1875 124.976562 312.996094 124.976562 C 326.804688 124.976562 337.996094 136.171875 337.996094 149.976562 "/>
</g>
</g>
<g clip-path="url(#clip120)" clip-rule="nonzero">
<g clip-path="url(#clip121)" clip-rule="nonzero">
<path style=" stroke:none;fill-rule:nonzero;fill:rgb(79.6%,23.5%,20%);fill-opacity:0.2;" d="M 268.464844 420.226562 C 268.464844 434.035156 257.273438 445.226562 243.464844 445.226562 C 229.660156 445.226562 218.464844 434.035156 218.464844 420.226562 C 218.464844 406.421875 229.660156 395.226562 243.464844 395.226562 C 257.273438 395.226562 268.464844 406.421875 268.464844 420.226562 "/>
</g>
</g>
<g clip-path="url(#clip122)" clip-rule="nonzero">
<g clip-path="url(#clip123)" clip-rule="nonzero">
<path style=" stroke:none;fill-rule:nonzero;fill:rgb(58.4%,34.5%,69.8%);fill-opacity:0.2;" d="M 122.570312 165.066406 C 122.570312 178.875 111.375 190.066406 97.570312 190.066406 C 83.761719 190.066406 72.570312 178.875 72.570312 165.066406 C 72.570312 151.257812 83.761719 140.066406 97.570312 140.066406 C 111.375 140.066406 122.570312 151.257812 122.570312 165.066406 "/>
</g>
</g>
<g clip-path="url(#clip124)" clip-rule="nonzero">
<g clip-path="url(#clip125)" clip-rule="nonzero">
<path style=" stroke:none;fill-rule:nonzero;fill:rgb(79.6%,23.5%,20%);fill-opacity:0.244444;" d="M 210.488281 368.648438 C 210.488281 372.328125 207.503906 375.316406 203.824219 375.316406 C 200.140625 375.316406 197.15625 372.328125 197.15625 368.648438 C 197.15625 364.964844 200.140625 361.980469 203.824219 361.980469 C 207.503906 361.980469 210.488281 364.964844 210.488281 368.648438 "/>
</g>
</g>
<g clip-path="url(#clip126)" clip-rule="nonzero">
<g clip-path="url(#clip127)" clip-rule="nonzero">
<path style=" stroke:none;fill-rule:nonzero;fill:rgb(79.6%,23.5%,20%);fill-opacity:0.288889;" d="M 207.085938 359.847656 C 207.085938 363.53125 204.101562 366.515625 200.417969 366.515625 C 196.738281 366.515625 193.753906 363.53125 193.753906 359.847656 C 193.753906 356.167969 196.738281 353.183594 200.417969 353.183594 C 204.101562 353.183594 207.085938 356.167969 207.085938 359.847656 "/>
</g>
</g>
<g clip-path="url(#clip128)" clip-rule="nonzero">
<g clip-path="url(#clip129)" clip-rule="nonzero">
<path style=" stroke:none;fill-rule:nonzero;fill:rgb(79.6%,23.5%,20%);fill-opacity:0.333333;" d="M 203.707031 351.050781 C 203.707031 354.730469 200.722656 357.714844 197.039062 357.714844 C 193.359375 357.714844 190.371094 354.730469 190.371094 351.050781 C 190.371094 347.367188 193.359375 344.382812 197.039062 344.382812 C 200.722656 344.382812 203.707031 347.367188 203.707031 351.050781 "/>
</g>
</g>
<g clip-path="url(#clip130)" clip-rule="nonzero">
<g clip-path="url(#clip131)" clip-rule="nonzero">
<path style=" stroke:none;fill-rule:nonzero;fill:rgb(79.6%,23.5%,20%);fill-opacity:0.377778;" d="M 201.546875 342.402344 C 201.546875 346.085938 198.5625 349.070312 194.882812 349.070312 C 191.199219 349.070312 188.214844 346.085938 188.214844 342.402344 C 188.214844 338.722656 191.199219 335.734375 194.882812 335.734375 C 198.5625 335.734375 201.546875 338.722656 201.546875 342.402344 "/>
</g>
</g>
<g clip-path="url(#clip132)" clip-rule="nonzero">
<g clip-path="url(#clip133)" clip-rule="nonzero">
<path style=" stroke:none;fill-rule:nonzero;fill:rgb(79.6%,23.5%,20%);fill-opacity:0.422222;" d="M 199.390625 333.753906 C 199.390625 337.4375 196.40625 340.421875 192.726562 340.421875 C 189.042969 340.421875 186.058594 337.4375 186.058594 333.753906 C 186.058594 330.074219 189.042969 327.089844 192.726562 327.089844 C 196.40625 327.089844 199.390625 330.074219 199.390625 333.753906 "/>
</g>
</g>
<g clip-path="url(#clip134)" clip-rule="nonzero">
<g clip-path="url(#clip135)" clip-rule="nonzero">
<path style=" stroke:none;fill-rule:nonzero;fill:rgb(79.6%,23.5%,20%);fill-opacity:0.466667;" d="M 197.238281 325.109375 C 197.238281 328.789062 194.253906 331.777344 190.570312 331.777344 C 186.890625 331.777344 183.90625 328.789062 183.90625 325.109375 C 183.90625 321.425781 186.890625 318.441406 190.570312 318.441406 C 194.253906 318.441406 197.238281 321.425781 197.238281 325.109375 "/>
</g>
</g>
<g clip-path="url(#clip136)" clip-rule="nonzero">
<g clip-path="url(#clip137)" clip-rule="nonzero">
<path style=" stroke:none;fill-rule:nonzero;fill:rgb(79.6%,23.5%,20%);fill-opacity:0.511111;" d="M 195.085938 316.464844 C 195.085938 320.144531 192.101562 323.128906 188.417969 323.128906 C 184.738281 323.128906 181.75 320.144531 181.75 316.464844 C 181.75 312.78125 184.738281 309.796875 188.417969 309.796875 C 192.101562 309.796875 195.085938 312.78125 195.085938 316.464844 "/>
</g>
</g>
<g clip-path="url(#clip138)" clip-rule="nonzero">
<g clip-path="url(#clip139)" clip-rule="nonzero">
<path style=" stroke:none;fill-rule:nonzero;fill:rgb(79.6%,23.5%,20%);fill-opacity:0.555556;" d="M 192.933594 307.820312 C 192.933594 311.503906 189.949219 314.488281 186.269531 314.488281 C 182.585938 314.488281 179.601562 311.503906 179.601562 307.820312 C 179.601562 304.140625 182.585938 301.15625 186.269531 301.15625 C 189.949219 301.15625 192.933594 304.140625 192.933594 307.820312 "/>
</g>
</g>
<g clip-path="url(#clip140)" clip-rule="nonzero">
<g clip-path="url(#clip141)" clip-rule="nonzero">
<path style=" stroke:none;fill-rule:nonzero;fill:rgb(79.6%,23.5%,20%);fill-opacity:0.6;" d="M 190.789062 299.1875 C 190.789062 302.871094 187.804688 305.855469 184.121094 305.855469 C 180.4375 305.855469 177.453125 302.871094 177.453125 299.1875 C 177.453125 295.507812 180.4375 292.523438 184.121094 292.523438 C 187.804688 292.523438 190.789062 295.507812 190.789062 299.1875 "/>
</g>
</g>
<g clip-path="url(#clip142)" clip-rule="nonzero">
<g clip-path="url(#clip143)" clip-rule="nonzero">
<path style=" stroke:none;fill-rule:nonzero;fill:rgb(79.6%,23.5%,20%);fill-opacity:0.644444;" d="M 188.648438 290.582031 C 188.648438 294.265625 185.664062 297.25 181.984375 297.25 C 178.300781 297.25 175.316406 294.265625 175.316406 290.582031 C 175.316406 286.898438 178.300781 283.914062 181.984375 283.914062 C 185.664062 283.914062 188.648438 286.898438 188.648438 290.582031 "/>
</g>
</g>
<g clip-path="url(#clip144)" clip-rule="nonzero">
<g clip-path="url(#clip145)" clip-rule="nonzero">
<path style=" stroke:none;fill-rule:nonzero;fill:rgb(79.6%,23.5%,20%);fill-opacity:0.688889;" d="M 186.515625 280.171875 C 186.515625 283.855469 183.53125 286.839844 179.847656 286.839844 C 176.167969 286.839844 173.183594 283.855469 173.183594 280.171875 C 173.183594 276.488281 176.167969 273.503906 179.847656 273.503906 C 183.53125 273.503906 186.515625 276.488281 186.515625 280.171875 "/>
</g>
</g>
<g clip-path="url(#clip146)" clip-rule="nonzero">
<g clip-path="url(#clip147)" clip-rule="nonzero">
<path style=" stroke:none;fill-rule:nonzero;fill:rgb(79.6%,23.5%,20%);fill-opacity:0.733333;" d="M 184.484375 270.296875 C 184.484375 273.980469 181.5 276.964844 177.820312 276.964844 C 174.136719 276.964844 171.152344 273.980469 171.152344 270.296875 C 171.152344 266.617188 174.136719 263.632812 177.820312 263.632812 C 181.5 263.632812 184.484375 266.617188 184.484375 270.296875 "/>
</g>
</g>
<g clip-path="url(#clip148)" clip-rule="nonzero">
<g clip-path="url(#clip149)" clip-rule="nonzero">
<path style=" stroke:none;fill-rule:nonzero;fill:rgb(58.4%,34.5%,69.8%);fill-opacity:0.777778;" d="M 182.789062 262.070312 C 182.789062 265.753906 179.804688 268.738281 176.121094 268.738281 C 172.441406 268.738281 169.457031 265.753906 169.457031 262.070312 C 169.457031 258.390625 172.441406 255.40625 176.121094 255.40625 C 179.804688 255.40625 182.789062 258.390625 182.789062 262.070312 "/>
</g>
</g>
<g clip-path="url(#clip150)" clip-rule="nonzero">
<g clip-path="url(#clip151)" clip-rule="nonzero">
<path style=" stroke:none;fill-rule:nonzero;fill:rgb(58.4%,34.5%,69.8%);fill-opacity:0.822222;" d="M 181.566406 256.195312 C 181.566406 259.875 178.582031 262.863281 174.902344 262.863281 C 171.21875 262.863281 168.234375 259.875 168.234375 256.195312 C 168.234375 252.511719 171.21875 249.527344 174.902344 249.527344 C 178.582031 249.527344 181.566406 252.511719 181.566406 256.195312 "/>
</g>
</g>
<g clip-path="url(#clip152)" clip-rule="nonzero">
<g clip-path="url(#clip153)" clip-rule="nonzero">
<path style=" stroke:none;fill-rule:nonzero;fill:rgb(58.4%,34.5%,69.8%);fill-opacity:0.866667;" d="M 180.652344 251.832031 C 180.652344 255.511719 177.667969 258.496094 173.988281 258.496094 C 170.304688 258.496094 167.320312 255.511719 167.320312 251.832031 C 167.320312 248.148438 170.304688 245.164062 173.988281 245.164062 C 177.667969 245.164062 180.652344 248.148438 180.652344 251.832031 "/>
</g>
</g>
<g clip-path="url(#clip154)" clip-rule="nonzero">
<g clip-path="url(#clip155)" clip-rule="nonzero">
<path style=" stroke:none;fill-rule:nonzero;fill:rgb(58.4%,34.5%,69.8%);fill-opacity:0.911111;" d="M 179.894531 248.234375 C 179.894531 251.917969 176.910156 254.902344 173.226562 254.902344 C 169.546875 254.902344 166.558594 251.917969 166.558594 248.234375 C 166.558594 244.554688 169.546875 241.570312 173.226562 241.570312 C 176.910156 241.570312 179.894531 244.554688 179.894531 248.234375 "/>
</g>
</g>
<g clip-path="url(#clip156)" clip-rule="nonzero">
<g clip-path="url(#clip157)" clip-rule="nonzero">
<path style=" stroke:none;fill-rule:nonzero;fill:rgb(58.4%,34.5%,69.8%);fill-opacity:0.955556;" d="M 179.214844 245.054688 C 179.214844 248.738281 176.230469 251.722656 172.550781 251.722656 C 168.867188 251.722656 165.882812 248.738281 165.882812 245.054688 C 165.882812 241.375 168.867188 238.390625 172.550781 238.390625 C 176.230469 238.390625 179.214844 241.375 179.214844 245.054688 "/>
</g>
</g>
<g clip-path="url(#clip158)" clip-rule="nonzero">
<g clip-path="url(#clip159)" clip-rule="nonzero">
<path style=" stroke:none;fill-rule:nonzero;fill:rgb(58.4%,34.5%,69.8%);fill-opacity:1;" d="M 196.917969 242.117188 C 196.917969 255.925781 185.726562 267.117188 171.917969 267.117188 C 158.109375 267.117188 146.917969 255.925781 146.917969 242.117188 C 146.917969 228.3125 158.109375 217.117188 171.917969 217.117188 C 185.726562 217.117188 196.917969 228.3125 196.917969 242.117188 "/>
</g>
</g>
</g>
</svg>
