<?xml version="1.0" encoding="utf-8"?>
<svg xmlns="http://www.w3.org/2000/svg" xmlns:xlink="http://www.w3.org/1999/xlink" width="600" height="400" viewBox="0 0 2400 1600">
<defs>
  <clipPath id="clip470">
    <rect x="0" y="0" width="2400" height="1600"/>
  </clipPath>
</defs>
<path clip-path="url(#clip470)" d="
M0 1600 L2400 1600 L2400 0 L0 0  Z
  " fill="#282c34" fill-rule="evenodd" fill-opacity="1"/>
<defs>
  <clipPath id="clip471">
    <rect x="480" y="0" width="1681" height="1600"/>
  </clipPath>
</defs>
<path clip-path="url(#clip470)" d="
M194.422 1486.45 L2352.76 1486.45 L2352.76 123.472 L194.422 123.472  Z
  " fill="#21252b" fill-rule="evenodd" fill-opacity="1"/>
<defs>
  <clipPath id="clip472">
    <rect x="194" y="123" width="2159" height="1364"/>
  </clipPath>
</defs>
<polyline clip-path="url(#clip472)" style="stroke:#adb2b7; stroke-linecap:butt; stroke-linejoin:round; stroke-width:2; stroke-opacity:0.1; fill:none" points="
  255.507,1486.45 255.507,123.472 
  "/>
<polyline clip-path="url(#clip472)" style="stroke:#adb2b7; stroke-linecap:butt; stroke-linejoin:round; stroke-width:2; stroke-opacity:0.1; fill:none" points="
  764.548,1486.45 764.548,123.472 
  "/>
<polyline clip-path="url(#clip472)" style="stroke:#adb2b7; stroke-linecap:butt; stroke-linejoin:round; stroke-width:2; stroke-opacity:0.1; fill:none" points="
  1273.59,1486.45 1273.59,123.472 
  "/>
<polyline clip-path="url(#clip472)" style="stroke:#adb2b7; stroke-linecap:butt; stroke-linejoin:round; stroke-width:2; stroke-opacity:0.1; fill:none" points="
  1782.63,1486.45 1782.63,123.472 
  "/>
<polyline clip-path="url(#clip472)" style="stroke:#adb2b7; stroke-linecap:butt; stroke-linejoin:round; stroke-width:2; stroke-opacity:0.1; fill:none" points="
  2291.67,1486.45 2291.67,123.472 
  "/>
<polyline clip-path="url(#clip470)" style="stroke:#adb2b7; stroke-linecap:butt; stroke-linejoin:round; stroke-width:4; stroke-opacity:1; fill:none" points="
  194.422,1486.45 2352.76,1486.45 
  "/>
<polyline clip-path="url(#clip470)" style="stroke:#adb2b7; stroke-linecap:butt; stroke-linejoin:round; stroke-width:4; stroke-opacity:1; fill:none" points="
  255.507,1486.45 255.507,1467.55 
  "/>
<polyline clip-path="url(#clip470)" style="stroke:#adb2b7; stroke-linecap:butt; stroke-linejoin:round; stroke-width:4; stroke-opacity:1; fill:none" points="
  764.548,1486.45 764.548,1467.55 
  "/>
<polyline clip-path="url(#clip470)" style="stroke:#adb2b7; stroke-linecap:butt; stroke-linejoin:round; stroke-width:4; stroke-opacity:1; fill:none" points="
  1273.59,1486.45 1273.59,1467.55 
  "/>
<polyline clip-path="url(#clip470)" style="stroke:#adb2b7; stroke-linecap:butt; stroke-linejoin:round; stroke-width:4; stroke-opacity:1; fill:none" points="
  1782.63,1486.45 1782.63,1467.55 
  "/>
<polyline clip-path="url(#clip470)" style="stroke:#adb2b7; stroke-linecap:butt; stroke-linejoin:round; stroke-width:4; stroke-opacity:1; fill:none" points="
  2291.67,1486.45 2291.67,1467.55 
  "/>
<path clip-path="url(#clip470)" d="M225.449 1532.02 L255.125 1532.02 L255.125 1535.95 L225.449 1535.95 L225.449 1532.02 Z" fill="#9eb1be" fill-rule="evenodd" fill-opacity="1" /><path clip-path="url(#clip470)" d="M269.245 1544.91 L285.565 1544.91 L285.565 1548.85 L263.62 1548.85 L263.62 1544.91 Q266.282 1542.16 270.866 1537.53 Q275.472 1532.88 276.653 1531.53 Q278.898 1529.01 279.778 1527.27 Q280.681 1525.51 280.681 1523.82 Q280.681 1521.07 278.736 1519.33 Q276.815 1517.6 273.713 1517.6 Q271.514 1517.6 269.06 1518.36 Q266.63 1519.13 263.852 1520.68 L263.852 1515.95 Q266.676 1514.82 269.13 1514.24 Q271.583 1513.66 273.62 1513.66 Q278.991 1513.66 282.185 1516.35 Q285.38 1519.03 285.38 1523.52 Q285.38 1525.65 284.569 1527.57 Q283.782 1529.47 281.676 1532.07 Q281.097 1532.74 277.995 1535.95 Q274.893 1539.15 269.245 1544.91 Z" fill="#9eb1be" fill-rule="evenodd" fill-opacity="1" /><path clip-path="url(#clip470)" d="M734.305 1532.02 L763.981 1532.02 L763.981 1535.95 L734.305 1535.95 L734.305 1532.02 Z" fill="#9eb1be" fill-rule="evenodd" fill-opacity="1" /><path clip-path="url(#clip470)" d="M774.884 1544.91 L782.522 1544.91 L782.522 1518.55 L774.212 1520.21 L774.212 1515.95 L782.476 1514.29 L787.152 1514.29 L787.152 1544.91 L794.791 1544.91 L794.791 1548.85 L774.884 1548.85 L774.884 1544.91 Z" fill="#9eb1be" fill-rule="evenodd" fill-opacity="1" /><path clip-path="url(#clip470)" d="M1273.59 1517.37 Q1269.98 1517.37 1268.15 1520.93 Q1266.34 1524.47 1266.34 1531.6 Q1266.34 1538.71 1268.15 1542.27 Q1269.98 1545.82 1273.59 1545.82 Q1277.22 1545.82 1279.03 1542.27 Q1280.86 1538.71 1280.86 1531.6 Q1280.86 1524.47 1279.03 1520.93 Q1277.22 1517.37 1273.59 1517.37 M1273.59 1513.66 Q1279.4 1513.66 1282.45 1518.27 Q1285.53 1522.85 1285.53 1531.6 Q1285.53 1540.33 1282.45 1544.94 Q1279.4 1549.52 1273.59 1549.52 Q1267.78 1549.52 1264.7 1544.94 Q1261.64 1540.33 1261.64 1531.6 Q1261.64 1522.85 1264.7 1518.27 Q1267.78 1513.66 1273.59 1513.66 Z" fill="#9eb1be" fill-rule="evenodd" fill-opacity="1" /><path clip-path="url(#clip470)" d="M1773.01 1544.91 L1780.65 1544.91 L1780.65 1518.55 L1772.34 1520.21 L1772.34 1515.95 L1780.6 1514.29 L1785.28 1514.29 L1785.28 1544.91 L1792.92 1544.91 L1792.92 1548.85 L1773.01 1548.85 L1773.01 1544.91 Z" fill="#9eb1be" fill-rule="evenodd" fill-opacity="1" /><path clip-path="url(#clip470)" d="M2286.32 1544.91 L2302.64 1544.91 L2302.64 1548.85 L2280.7 1548.85 L2280.7 1544.91 Q2283.36 1542.16 2287.94 1537.53 Q2292.55 1532.88 2293.73 1531.53 Q2295.98 1529.01 2296.86 1527.27 Q2297.76 1525.51 2297.76 1523.82 Q2297.76 1521.07 2295.81 1519.33 Q2293.89 1517.6 2290.79 1517.6 Q2288.59 1517.6 2286.14 1518.36 Q2283.71 1519.13 2280.93 1520.68 L2280.93 1515.95 Q2283.75 1514.82 2286.21 1514.24 Q2288.66 1513.66 2290.7 1513.66 Q2296.07 1513.66 2299.26 1516.35 Q2302.46 1519.03 2302.46 1523.52 Q2302.46 1525.65 2301.65 1527.57 Q2300.86 1529.47 2298.75 1532.07 Q2298.18 1532.74 2295.07 1535.95 Q2291.97 1539.15 2286.32 1544.91 Z" fill="#9eb1be" fill-rule="evenodd" fill-opacity="1" /><polyline clip-path="url(#clip472)" style="stroke:#adb2b7; stroke-linecap:butt; stroke-linejoin:round; stroke-width:2; stroke-opacity:0.1; fill:none" points="
  194.422,1311.46 2352.76,1311.46 
  "/>
<polyline clip-path="url(#clip472)" style="stroke:#adb2b7; stroke-linecap:butt; stroke-linejoin:round; stroke-width:2; stroke-opacity:0.1; fill:none" points="
  194.422,973.794 2352.76,973.794 
  "/>
<polyline clip-path="url(#clip472)" style="stroke:#adb2b7; stroke-linecap:butt; stroke-linejoin:round; stroke-width:2; stroke-opacity:0.1; fill:none" points="
  194.422,636.126 2352.76,636.126 
  "/>
<polyline clip-path="url(#clip472)" style="stroke:#adb2b7; stroke-linecap:butt; stroke-linejoin:round; stroke-width:2; stroke-opacity:0.1; fill:none" points="
  194.422,298.459 2352.76,298.459 
  "/>
<polyline clip-path="url(#clip470)" style="stroke:#adb2b7; stroke-linecap:butt; stroke-linejoin:round; stroke-width:4; stroke-opacity:1; fill:none" points="
  194.422,1486.45 194.422,123.472 
  "/>
<polyline clip-path="url(#clip470)" style="stroke:#adb2b7; stroke-linecap:butt; stroke-linejoin:round; stroke-width:4; stroke-opacity:1; fill:none" points="
  194.422,1311.46 213.32,1311.46 
  "/>
<polyline clip-path="url(#clip470)" style="stroke:#adb2b7; stroke-linecap:butt; stroke-linejoin:round; stroke-width:4; stroke-opacity:1; fill:none" points="
  194.422,973.794 213.32,973.794 
  "/>
<polyline clip-path="url(#clip470)" style="stroke:#adb2b7; stroke-linecap:butt; stroke-linejoin:round; stroke-width:4; stroke-opacity:1; fill:none" points="
  194.422,636.126 213.32,636.126 
  "/>
<polyline clip-path="url(#clip470)" style="stroke:#adb2b7; stroke-linecap:butt; stroke-linejoin:round; stroke-width:4; stroke-opacity:1; fill:none" points="
  194.422,298.459 213.32,298.459 
  "/>
<path clip-path="url(#clip470)" d="M51.5708 1311.91 L81.2466 1311.91 L81.2466 1315.85 L51.5708 1315.85 L51.5708 1311.91 Z" fill="#9eb1be" fill-rule="evenodd" fill-opacity="1" /><path clip-path="url(#clip470)" d="M101.339 1297.26 Q97.728 1297.26 95.8993 1300.82 Q94.0937 1304.37 94.0937 1311.5 Q94.0937 1318.6 95.8993 1322.17 Q97.728 1325.71 101.339 1325.71 Q104.973 1325.71 106.779 1322.17 Q108.608 1318.6 108.608 1311.5 Q108.608 1304.37 106.779 1300.82 Q104.973 1297.26 101.339 1297.26 M101.339 1293.56 Q107.149 1293.56 110.205 1298.16 Q113.283 1302.75 113.283 1311.5 Q113.283 1320.22 110.205 1324.83 Q107.149 1329.41 101.339 1329.41 Q95.5289 1329.41 92.4502 1324.83 Q89.3947 1320.22 89.3947 1311.5 Q89.3947 1302.75 92.4502 1298.16 Q95.5289 1293.56 101.339 1293.56 Z" fill="#9eb1be" fill-rule="evenodd" fill-opacity="1" /><path clip-path="url(#clip470)" d="M121.501 1322.86 L126.385 1322.86 L126.385 1328.74 L121.501 1328.74 L121.501 1322.86 Z" fill="#9eb1be" fill-rule="evenodd" fill-opacity="1" /><path clip-path="url(#clip470)" d="M146.57 1312.33 Q143.237 1312.33 141.316 1314.11 Q139.418 1315.89 139.418 1319.02 Q139.418 1322.14 141.316 1323.93 Q143.237 1325.71 146.57 1325.71 Q149.904 1325.71 151.825 1323.93 Q153.746 1322.12 153.746 1319.02 Q153.746 1315.89 151.825 1314.11 Q149.927 1312.33 146.57 1312.33 M141.894 1310.34 Q138.885 1309.6 137.195 1307.54 Q135.529 1305.48 135.529 1302.51 Q135.529 1298.37 138.469 1295.96 Q141.431 1293.56 146.57 1293.56 Q151.732 1293.56 154.672 1295.96 Q157.612 1298.37 157.612 1302.51 Q157.612 1305.48 155.922 1307.54 Q154.255 1309.6 151.269 1310.34 Q154.649 1311.12 156.524 1313.42 Q158.422 1315.71 158.422 1319.02 Q158.422 1324.04 155.343 1326.73 Q152.288 1329.41 146.57 1329.41 Q140.853 1329.41 137.774 1326.73 Q134.719 1324.04 134.719 1319.02 Q134.719 1315.71 136.617 1313.42 Q138.515 1311.12 141.894 1310.34 M140.181 1302.95 Q140.181 1305.64 141.848 1307.14 Q143.538 1308.65 146.57 1308.65 Q149.58 1308.65 151.269 1307.14 Q152.982 1305.64 152.982 1302.95 Q152.982 1300.27 151.269 1298.76 Q149.58 1297.26 146.57 1297.26 Q143.538 1297.26 141.848 1298.76 Q140.181 1300.27 140.181 1302.95 Z" fill="#9eb1be" fill-rule="evenodd" fill-opacity="1" /><path clip-path="url(#clip470)" d="M51.3162 974.245 L80.992 974.245 L80.992 978.18 L51.3162 978.18 L51.3162 974.245 Z" fill="#9eb1be" fill-rule="evenodd" fill-opacity="1" /><path clip-path="url(#clip470)" d="M101.084 959.592 Q97.4734 959.592 95.6447 963.157 Q93.8391 966.699 93.8391 973.828 Q93.8391 980.935 95.6447 984.499 Q97.4734 988.041 101.084 988.041 Q104.719 988.041 106.524 984.499 Q108.353 980.935 108.353 973.828 Q108.353 966.699 106.524 963.157 Q104.719 959.592 101.084 959.592 M101.084 955.889 Q106.895 955.889 109.95 960.495 Q113.029 965.078 113.029 973.828 Q113.029 982.555 109.95 987.161 Q106.895 991.745 101.084 991.745 Q95.2743 991.745 92.1956 987.161 Q89.1401 982.555 89.1401 973.828 Q89.1401 965.078 92.1956 960.495 Q95.2743 955.889 101.084 955.889 Z" fill="#9eb1be" fill-rule="evenodd" fill-opacity="1" /><path clip-path="url(#clip470)" d="M121.246 985.194 L126.131 985.194 L126.131 991.074 L121.246 991.074 L121.246 985.194 Z" fill="#9eb1be" fill-rule="evenodd" fill-opacity="1" /><path clip-path="url(#clip470)" d="M146.894 971.93 Q143.746 971.93 141.894 974.083 Q140.066 976.236 140.066 979.986 Q140.066 983.712 141.894 985.888 Q143.746 988.041 146.894 988.041 Q150.043 988.041 151.871 985.888 Q153.723 983.712 153.723 979.986 Q153.723 976.236 151.871 974.083 Q150.043 971.93 146.894 971.93 M156.177 957.277 L156.177 961.537 Q154.417 960.703 152.612 960.263 Q150.83 959.824 149.07 959.824 Q144.441 959.824 141.987 962.949 Q139.556 966.074 139.209 972.393 Q140.575 970.379 142.635 969.314 Q144.695 968.226 147.172 968.226 Q152.38 968.226 155.39 971.398 Q158.422 974.546 158.422 979.986 Q158.422 985.31 155.274 988.527 Q152.126 991.745 146.894 991.745 Q140.899 991.745 137.728 987.161 Q134.556 982.555 134.556 973.828 Q134.556 965.634 138.445 960.773 Q142.334 955.889 148.885 955.889 Q150.644 955.889 152.427 956.236 Q154.232 956.583 156.177 957.277 Z" fill="#9eb1be" fill-rule="evenodd" fill-opacity="1" /><path clip-path="url(#clip470)" d="M50.9921 636.578 L80.6679 636.578 L80.6679 640.513 L50.9921 640.513 L50.9921 636.578 Z" fill="#9eb1be" fill-rule="evenodd" fill-opacity="1" /><path clip-path="url(#clip470)" d="M100.76 621.925 Q97.1493 621.925 95.3206 625.49 Q93.515 629.032 93.515 636.161 Q93.515 643.268 95.3206 646.832 Q97.1493 650.374 100.76 650.374 Q104.395 650.374 106.2 646.832 Q108.029 643.268 108.029 636.161 Q108.029 629.032 106.2 625.49 Q104.395 621.925 100.76 621.925 M100.76 618.221 Q106.571 618.221 109.626 622.828 Q112.705 627.411 112.705 636.161 Q112.705 644.888 109.626 649.494 Q106.571 654.078 100.76 654.078 Q94.9502 654.078 91.8715 649.494 Q88.816 644.888 88.816 636.161 Q88.816 627.411 91.8715 622.828 Q94.9502 618.221 100.76 618.221 Z" fill="#9eb1be" fill-rule="evenodd" fill-opacity="1" /><path clip-path="url(#clip470)" d="M120.922 647.527 L125.807 647.527 L125.807 653.406 L120.922 653.406 L120.922 647.527 Z" fill="#9eb1be" fill-rule="evenodd" fill-opacity="1" /><path clip-path="url(#clip470)" d="M148.839 622.921 L137.033 641.37 L148.839 641.37 L148.839 622.921 M147.612 618.846 L153.492 618.846 L153.492 641.37 L158.422 641.37 L158.422 645.258 L153.492 645.258 L153.492 653.406 L148.839 653.406 L148.839 645.258 L133.237 645.258 L133.237 640.745 L147.612 618.846 Z" fill="#9eb1be" fill-rule="evenodd" fill-opacity="1" /><path clip-path="url(#clip470)" d="M53.0754 298.911 L82.7512 298.911 L82.7512 302.846 L53.0754 302.846 L53.0754 298.911 Z" fill="#9eb1be" fill-rule="evenodd" fill-opacity="1" /><path clip-path="url(#clip470)" d="M102.844 284.258 Q99.2326 284.258 97.4039 287.823 Q95.5984 291.365 95.5984 298.494 Q95.5984 305.601 97.4039 309.165 Q99.2326 312.707 102.844 312.707 Q106.478 312.707 108.283 309.165 Q110.112 305.601 110.112 298.494 Q110.112 291.365 108.283 287.823 Q106.478 284.258 102.844 284.258 M102.844 280.554 Q108.654 280.554 111.709 285.161 Q114.788 289.744 114.788 298.494 Q114.788 307.221 111.709 311.827 Q108.654 316.411 102.844 316.411 Q97.0335 316.411 93.9549 311.827 Q90.8993 307.221 90.8993 298.494 Q90.8993 289.744 93.9549 285.161 Q97.0335 280.554 102.844 280.554 Z" fill="#9eb1be" fill-rule="evenodd" fill-opacity="1" /><path clip-path="url(#clip470)" d="M123.006 309.86 L127.89 309.86 L127.89 315.739 L123.006 315.739 L123.006 309.86 Z" fill="#9eb1be" fill-rule="evenodd" fill-opacity="1" /><path clip-path="url(#clip470)" d="M142.103 311.804 L158.422 311.804 L158.422 315.739 L136.478 315.739 L136.478 311.804 Q139.14 309.05 143.723 304.42 Q148.33 299.767 149.51 298.425 Q151.755 295.902 152.635 294.165 Q153.538 292.406 153.538 290.716 Q153.538 287.962 151.593 286.226 Q149.672 284.49 146.57 284.49 Q144.371 284.49 141.918 285.254 Q139.487 286.017 136.709 287.568 L136.709 282.846 Q139.533 281.712 141.987 281.133 Q144.441 280.554 146.478 280.554 Q151.848 280.554 155.042 283.24 Q158.237 285.925 158.237 290.416 Q158.237 292.545 157.427 294.466 Q156.64 296.365 154.533 298.957 Q153.955 299.628 150.853 302.846 Q147.751 306.04 142.103 311.804 Z" fill="#9eb1be" fill-rule="evenodd" fill-opacity="1" /><path clip-path="url(#clip470)" d="M1141.08 63.9476 L1141.08 47.7034 L1127.72 47.7034 L1127.72 40.9789 L1149.19 40.9789 L1149.19 66.9452 Q1144.45 70.3075 1138.73 72.0494 Q1133.02 73.7508 1126.54 73.7508 Q1112.36 73.7508 1104.34 65.4869 Q1096.36 57.1826 1096.36 42.3968 Q1096.36 27.5705 1104.34 19.3066 Q1112.36 11.0023 1126.54 11.0023 Q1132.46 11.0023 1137.76 12.4606 Q1143.11 13.9189 1147.61 16.7545 L1147.61 25.464 Q1143.07 21.6156 1137.96 19.6712 Q1132.86 17.7268 1127.23 17.7268 Q1116.13 17.7268 1110.54 23.9246 Q1104.99 30.1225 1104.99 42.3968 Q1104.99 54.6305 1110.54 60.8284 Q1116.13 67.0263 1127.23 67.0263 Q1131.56 67.0263 1134.97 66.2971 Q1138.37 65.5274 1141.08 63.9476 Z" fill="#adb2b7" fill-rule="evenodd" fill-opacity="1" /><path clip-path="url(#clip470)" d="M1190.1 34.1734 Q1188.84 33.4443 1187.35 33.1202 Q1185.89 32.7556 1184.1 32.7556 Q1177.79 32.7556 1174.38 36.8875 Q1171.02 40.9789 1171.02 48.6757 L1171.02 72.576 L1163.53 72.576 L1163.53 27.2059 L1171.02 27.2059 L1171.02 34.2544 Q1173.37 30.1225 1177.14 28.1376 Q1180.9 26.1121 1186.29 26.1121 Q1187.06 26.1121 1187.99 26.2337 Q1188.93 26.3147 1190.06 26.5172 L1190.1 34.1734 Z" fill="#adb2b7" fill-rule="evenodd" fill-opacity="1" /><path clip-path="url(#clip470)" d="M1218.54 49.7694 Q1209.5 49.7694 1206.02 51.8354 Q1202.54 53.9013 1202.54 58.8839 Q1202.54 62.8538 1205.13 65.2034 Q1207.76 67.5124 1212.26 67.5124 Q1218.46 67.5124 1222.18 63.1374 Q1225.95 58.7219 1225.95 51.4303 L1225.95 49.7694 L1218.54 49.7694 M1233.4 46.6907 L1233.4 72.576 L1225.95 72.576 L1225.95 65.6895 Q1223.4 69.8214 1219.59 71.8063 Q1215.78 73.7508 1210.27 73.7508 Q1203.31 73.7508 1199.17 69.8619 Q1195.08 65.9325 1195.08 59.3701 Q1195.08 51.7138 1200.19 47.825 Q1205.33 43.9361 1215.5 43.9361 L1225.95 43.9361 L1225.95 43.2069 Q1225.95 38.0623 1222.55 35.2672 Q1219.19 32.4315 1213.07 32.4315 Q1209.18 32.4315 1205.49 33.3632 Q1201.81 34.295 1198.4 36.1584 L1198.4 29.2718 Q1202.5 27.692 1206.34 26.9223 Q1210.19 26.1121 1213.84 26.1121 Q1223.68 26.1121 1228.54 31.2163 Q1233.4 36.3204 1233.4 46.6907 Z" fill="#adb2b7" fill-rule="evenodd" fill-opacity="1" /><path clip-path="url(#clip470)" d="M1278.61 34.0924 L1278.61 9.54393 L1286.07 9.54393 L1286.07 72.576 L1278.61 72.576 L1278.61 65.7705 Q1276.26 69.8214 1272.66 71.8063 Q1269.09 73.7508 1264.07 73.7508 Q1255.85 73.7508 1250.66 67.1883 Q1245.52 60.6258 1245.52 49.9314 Q1245.52 39.2371 1250.66 32.6746 Q1255.85 26.1121 1264.07 26.1121 Q1269.09 26.1121 1272.66 28.0971 Q1276.26 30.0415 1278.61 34.0924 M1253.21 49.9314 Q1253.21 58.1548 1256.58 62.8538 Q1259.98 67.5124 1265.89 67.5124 Q1271.81 67.5124 1275.21 62.8538 Q1278.61 58.1548 1278.61 49.9314 Q1278.61 41.7081 1275.21 37.0496 Q1271.81 32.3505 1265.89 32.3505 Q1259.98 32.3505 1256.58 37.0496 Q1253.21 41.7081 1253.21 49.9314 Z" fill="#adb2b7" fill-rule="evenodd" fill-opacity="1" /><path clip-path="url(#clip470)" d="M1301.42 27.2059 L1308.87 27.2059 L1308.87 72.576 L1301.42 72.576 L1301.42 27.2059 M1301.42 9.54393 L1308.87 9.54393 L1308.87 18.9825 L1301.42 18.9825 L1301.42 9.54393 Z" fill="#adb2b7" fill-rule="evenodd" fill-opacity="1" /><path clip-path="url(#clip470)" d="M1363.28 48.0275 L1363.28 51.6733 L1329.01 51.6733 Q1329.49 59.3701 1333.62 63.421 Q1337.8 67.4314 1345.21 67.4314 Q1349.5 67.4314 1353.51 66.3781 Q1357.56 65.3249 1361.53 63.2184 L1361.53 70.267 Q1357.52 71.9684 1353.31 72.8596 Q1349.1 73.7508 1344.76 73.7508 Q1333.91 73.7508 1327.55 67.4314 Q1321.23 61.1119 1321.23 50.3365 Q1321.23 39.1965 1327.22 32.6746 Q1333.26 26.1121 1343.47 26.1121 Q1352.62 26.1121 1357.93 32.0264 Q1363.28 37.9003 1363.28 48.0275 M1355.82 45.84 Q1355.74 39.7232 1352.38 36.0774 Q1349.06 32.4315 1343.55 32.4315 Q1337.31 32.4315 1333.54 35.9558 Q1329.82 39.4801 1329.25 45.8805 L1355.82 45.84 Z" fill="#adb2b7" fill-rule="evenodd" fill-opacity="1" /><path clip-path="url(#clip470)" d="M1413.22 45.1919 L1413.22 72.576 L1405.77 72.576 L1405.77 45.4349 Q1405.77 38.994 1403.26 35.7938 Q1400.75 32.5936 1395.72 32.5936 Q1389.69 32.5936 1386.2 36.4419 Q1382.72 40.2903 1382.72 46.9338 L1382.72 72.576 L1375.23 72.576 L1375.23 27.2059 L1382.72 27.2059 L1382.72 34.2544 Q1385.39 30.163 1389 28.1376 Q1392.65 26.1121 1397.38 26.1121 Q1405.2 26.1121 1409.21 30.9732 Q1413.22 35.7938 1413.22 45.1919 Z" fill="#adb2b7" fill-rule="evenodd" fill-opacity="1" /><path clip-path="url(#clip470)" d="M1435.46 14.324 L1435.46 27.2059 L1450.82 27.2059 L1450.82 32.9987 L1435.46 32.9987 L1435.46 57.6282 Q1435.46 63.1779 1436.96 64.7578 Q1438.5 66.3376 1443.16 66.3376 L1450.82 66.3376 L1450.82 72.576 L1443.16 72.576 Q1434.53 72.576 1431.25 69.3758 Q1427.97 66.1351 1427.97 57.6282 L1427.97 32.9987 L1422.5 32.9987 L1422.5 27.2059 L1427.97 27.2059 L1427.97 14.324 L1435.46 14.324 Z" fill="#adb2b7" fill-rule="evenodd" fill-opacity="1" /><polyline clip-path="url(#clip472)" style="stroke:#fe4365; stroke-linecap:butt; stroke-linejoin:round; stroke-width:4; stroke-opacity:1; fill:none" points="
  255.507,1447.87 306.411,1429.46 357.315,1409.64 408.219,1388.34 459.123,1365.52 510.028,1341.13 560.932,1315.15 611.836,1287.55 662.74,1258.32 713.644,1227.48 
  764.548,1195.06 815.452,1161.11 866.356,1125.7 917.26,1088.92 968.164,1050.88 1019.07,1011.71 1069.97,971.578 1120.88,930.644 1171.78,889.096 1222.68,847.133 
  1273.59,804.96 1324.49,762.787 1375.4,720.824 1426.3,679.276 1477.21,638.342 1528.11,598.208 1579.01,559.043 1629.92,521.003 1680.82,484.219 1731.73,448.807 
  1782.63,414.856 1833.53,382.437 1884.44,351.6 1935.34,322.375 1986.25,294.772 2037.15,268.788 2088.05,244.402 2138.96,221.582 2189.86,200.285 2240.77,180.459 
  2291.67,162.047 
  "/>
<circle clip-path="url(#clip472)" cx="255.507" cy="1447.87" r="14" fill="#eca25c" fill-rule="evenodd" fill-opacity="1" stroke="#adb2b7" stroke-opacity="1" stroke-width="3.2"/>
<circle clip-path="url(#clip472)" cx="306.411" cy="1429.46" r="14" fill="#eca25c" fill-rule="evenodd" fill-opacity="1" stroke="#adb2b7" stroke-opacity="1" stroke-width="3.2"/>
<circle clip-path="url(#clip472)" cx="357.315" cy="1409.64" r="14" fill="#eca25c" fill-rule="evenodd" fill-opacity="1" stroke="#adb2b7" stroke-opacity="1" stroke-width="3.2"/>
<circle clip-path="url(#clip472)" cx="408.219" cy="1388.34" r="14" fill="#eca25c" fill-rule="evenodd" fill-opacity="1" stroke="#adb2b7" stroke-opacity="1" stroke-width="3.2"/>
<circle clip-path="url(#clip472)" cx="459.123" cy="1365.52" r="14" fill="#eca25c" fill-rule="evenodd" fill-opacity="1" stroke="#adb2b7" stroke-opacity="1" stroke-width="3.2"/>
<circle clip-path="url(#clip472)" cx="510.028" cy="1341.13" r="14" fill="#eca25c" fill-rule="evenodd" fill-opacity="1" stroke="#adb2b7" stroke-opacity="1" stroke-width="3.2"/>
<circle clip-path="url(#clip472)" cx="560.932" cy="1315.15" r="14" fill="#eca25c" fill-rule="evenodd" fill-opacity="1" stroke="#adb2b7" stroke-opacity="1" stroke-width="3.2"/>
<circle clip-path="url(#clip472)" cx="611.836" cy="1287.55" r="14" fill="#eca25c" fill-rule="evenodd" fill-opacity="1" stroke="#adb2b7" stroke-opacity="1" stroke-width="3.2"/>
<circle clip-path="url(#clip472)" cx="662.74" cy="1258.32" r="14" fill="#eca25c" fill-rule="evenodd" fill-opacity="1" stroke="#adb2b7" stroke-opacity="1" stroke-width="3.2"/>
<circle clip-path="url(#clip472)" cx="713.644" cy="1227.48" r="14" fill="#eca25c" fill-rule="evenodd" fill-opacity="1" stroke="#adb2b7" stroke-opacity="1" stroke-width="3.2"/>
<circle clip-path="url(#clip472)" cx="764.548" cy="1195.06" r="14" fill="#eca25c" fill-rule="evenodd" fill-opacity="1" stroke="#adb2b7" stroke-opacity="1" stroke-width="3.2"/>
<circle clip-path="url(#clip472)" cx="815.452" cy="1161.11" r="14" fill="#eca25c" fill-rule="evenodd" fill-opacity="1" stroke="#adb2b7" stroke-opacity="1" stroke-width="3.2"/>
<circle clip-path="url(#clip472)" cx="866.356" cy="1125.7" r="14" fill="#eca25c" fill-rule="evenodd" fill-opacity="1" stroke="#adb2b7" stroke-opacity="1" stroke-width="3.2"/>
<circle clip-path="url(#clip472)" cx="917.26" cy="1088.92" r="14" fill="#eca25c" fill-rule="evenodd" fill-opacity="1" stroke="#adb2b7" stroke-opacity="1" stroke-width="3.2"/>
<circle clip-path="url(#clip472)" cx="968.164" cy="1050.88" r="14" fill="#eca25c" fill-rule="evenodd" fill-opacity="1" stroke="#adb2b7" stroke-opacity="1" stroke-width="3.2"/>
<circle clip-path="url(#clip472)" cx="1019.07" cy="1011.71" r="14" fill="#eca25c" fill-rule="evenodd" fill-opacity="1" stroke="#adb2b7" stroke-opacity="1" stroke-width="3.2"/>
<circle clip-path="url(#clip472)" cx="1069.97" cy="971.578" r="14" fill="#eca25c" fill-rule="evenodd" fill-opacity="1" stroke="#adb2b7" stroke-opacity="1" stroke-width="3.2"/>
<circle clip-path="url(#clip472)" cx="1120.88" cy="930.644" r="14" fill="#eca25c" fill-rule="evenodd" fill-opacity="1" stroke="#adb2b7" stroke-opacity="1" stroke-width="3.2"/>
<circle clip-path="url(#clip472)" cx="1171.78" cy="889.096" r="14" fill="#eca25c" fill-rule="evenodd" fill-opacity="1" stroke="#adb2b7" stroke-opacity="1" stroke-width="3.2"/>
<circle clip-path="url(#clip472)" cx="1222.68" cy="847.133" r="14" fill="#eca25c" fill-rule="evenodd" fill-opacity="1" stroke="#adb2b7" stroke-opacity="1" stroke-width="3.2"/>
<circle clip-path="url(#clip472)" cx="1273.59" cy="804.96" r="14" fill="#eca25c" fill-rule="evenodd" fill-opacity="1" stroke="#adb2b7" stroke-opacity="1" stroke-width="3.2"/>
<circle clip-path="url(#clip472)" cx="1324.49" cy="762.787" r="14" fill="#eca25c" fill-rule="evenodd" fill-opacity="1" stroke="#adb2b7" stroke-opacity="1" stroke-width="3.2"/>
<circle clip-path="url(#clip472)" cx="1375.4" cy="720.824" r="14" fill="#eca25c" fill-rule="evenodd" fill-opacity="1" stroke="#adb2b7" stroke-opacity="1" stroke-width="3.2"/>
<circle clip-path="url(#clip472)" cx="1426.3" cy="679.276" r="14" fill="#eca25c" fill-rule="evenodd" fill-opacity="1" stroke="#adb2b7" stroke-opacity="1" stroke-width="3.2"/>
<circle clip-path="url(#clip472)" cx="1477.21" cy="638.342" r="14" fill="#eca25c" fill-rule="evenodd" fill-opacity="1" stroke="#adb2b7" stroke-opacity="1" stroke-width="3.2"/>
<circle clip-path="url(#clip472)" cx="1528.11" cy="598.208" r="14" fill="#eca25c" fill-rule="evenodd" fill-opacity="1" stroke="#adb2b7" stroke-opacity="1" stroke-width="3.2"/>
<circle clip-path="url(#clip472)" cx="1579.01" cy="559.043" r="14" fill="#eca25c" fill-rule="evenodd" fill-opacity="1" stroke="#adb2b7" stroke-opacity="1" stroke-width="3.2"/>
<circle clip-path="url(#clip472)" cx="1629.92" cy="521.003" r="14" fill="#eca25c" fill-rule="evenodd" fill-opacity="1" stroke="#adb2b7" stroke-opacity="1" stroke-width="3.2"/>
<circle clip-path="url(#clip472)" cx="1680.82" cy="484.219" r="14" fill="#eca25c" fill-rule="evenodd" fill-opacity="1" stroke="#adb2b7" stroke-opacity="1" stroke-width="3.2"/>
<circle clip-path="url(#clip472)" cx="1731.73" cy="448.807" r="14" fill="#eca25c" fill-rule="evenodd" fill-opacity="1" stroke="#adb2b7" stroke-opacity="1" stroke-width="3.2"/>
<circle clip-path="url(#clip472)" cx="1782.63" cy="414.856" r="14" fill="#eca25c" fill-rule="evenodd" fill-opacity="1" stroke="#adb2b7" stroke-opacity="1" stroke-width="3.2"/>
<circle clip-path="url(#clip472)" cx="1833.53" cy="382.437" r="14" fill="#eca25c" fill-rule="evenodd" fill-opacity="1" stroke="#adb2b7" stroke-opacity="1" stroke-width="3.2"/>
<circle clip-path="url(#clip472)" cx="1884.44" cy="351.6" r="14" fill="#eca25c" fill-rule="evenodd" fill-opacity="1" stroke="#adb2b7" stroke-opacity="1" stroke-width="3.2"/>
<circle clip-path="url(#clip472)" cx="1935.34" cy="322.375" r="14" fill="#eca25c" fill-rule="evenodd" fill-opacity="1" stroke="#adb2b7" stroke-opacity="1" stroke-width="3.2"/>
<circle clip-path="url(#clip472)" cx="1986.25" cy="294.772" r="14" fill="#eca25c" fill-rule="evenodd" fill-opacity="1" stroke="#adb2b7" stroke-opacity="1" stroke-width="3.2"/>
<circle clip-path="url(#clip472)" cx="2037.15" cy="268.788" r="14" fill="#eca25c" fill-rule="evenodd" fill-opacity="1" stroke="#adb2b7" stroke-opacity="1" stroke-width="3.2"/>
<circle clip-path="url(#clip472)" cx="2088.05" cy="244.402" r="14" fill="#eca25c" fill-rule="evenodd" fill-opacity="1" stroke="#adb2b7" stroke-opacity="1" stroke-width="3.2"/>
<circle clip-path="url(#clip472)" cx="2138.96" cy="221.582" r="14" fill="#eca25c" fill-rule="evenodd" fill-opacity="1" stroke="#adb2b7" stroke-opacity="1" stroke-width="3.2"/>
<circle clip-path="url(#clip472)" cx="2189.86" cy="200.285" r="14" fill="#eca25c" fill-rule="evenodd" fill-opacity="1" stroke="#adb2b7" stroke-opacity="1" stroke-width="3.2"/>
<circle clip-path="url(#clip472)" cx="2240.77" cy="180.459" r="14" fill="#eca25c" fill-rule="evenodd" fill-opacity="1" stroke="#adb2b7" stroke-opacity="1" stroke-width="3.2"/>
<circle clip-path="url(#clip472)" cx="2291.67" cy="162.047" r="14" fill="#eca25c" fill-rule="evenodd" fill-opacity="1" stroke="#adb2b7" stroke-opacity="1" stroke-width="3.2"/>
<path clip-path="url(#clip470)" d="
M1853.75 1441.02 L2280.81 1441.02 L2280.81 1285.5 L1853.75 1285.5  Z
  " fill="#282c34" fill-rule="evenodd" fill-opacity="1"/>
<polyline clip-path="url(#clip470)" style="stroke:#9eb1be; stroke-linecap:butt; stroke-linejoin:round; stroke-width:4; stroke-opacity:1; fill:none" points="
  1853.75,1441.02 2280.81,1441.02 2280.81,1285.5 1853.75,1285.5 1853.75,1441.02 
  "/>
<polyline clip-path="url(#clip470)" style="stroke:#fe4365; stroke-linecap:butt; stroke-linejoin:round; stroke-width:4; stroke-opacity:1; fill:none" points="
  1877.73,1337.34 2021.62,1337.34 
  "/>
<path clip-path="url(#clip470)" d="M2045.6 1320.06 L2052.57 1320.06 L2061.39 1343.57 L2070.26 1320.06 L2077.22 1320.06 L2077.22 1354.62 L2072.66 1354.62 L2072.66 1324.27 L2063.75 1347.97 L2059.05 1347.97 L2050.14 1324.27 L2050.14 1354.62 L2045.6 1354.62 L2045.6 1320.06 Z" fill="#adb2b7" fill-rule="evenodd" fill-opacity="1" /><path clip-path="url(#clip470)" d="M2098.1 1341.58 Q2092.94 1341.58 2090.95 1342.76 Q2088.96 1343.94 2088.96 1346.79 Q2088.96 1349.06 2090.44 1350.4 Q2091.95 1351.72 2094.52 1351.72 Q2098.06 1351.72 2100.19 1349.22 Q2102.34 1346.7 2102.34 1342.53 L2102.34 1341.58 L2098.1 1341.58 M2106.6 1339.82 L2106.6 1354.62 L2102.34 1354.62 L2102.34 1350.68 Q2100.88 1353.04 2098.71 1354.18 Q2096.53 1355.29 2093.38 1355.29 Q2089.4 1355.29 2087.04 1353.06 Q2084.7 1350.82 2084.7 1347.07 Q2084.7 1342.69 2087.62 1340.47 Q2090.56 1338.25 2096.37 1338.25 L2102.34 1338.25 L2102.34 1337.83 Q2102.34 1334.89 2100.4 1333.3 Q2098.47 1331.68 2094.98 1331.68 Q2092.76 1331.68 2090.65 1332.21 Q2088.54 1332.74 2086.6 1333.81 L2086.6 1329.87 Q2088.94 1328.97 2091.14 1328.53 Q2093.34 1328.06 2095.42 1328.06 Q2101.04 1328.06 2103.82 1330.98 Q2106.6 1333.9 2106.6 1339.82 Z" fill="#adb2b7" fill-rule="evenodd" fill-opacity="1" /><path clip-path="url(#clip470)" d="M2136.92 1338.97 L2136.92 1354.62 L2132.66 1354.62 L2132.66 1339.11 Q2132.66 1335.43 2131.23 1333.6 Q2129.79 1331.77 2126.92 1331.77 Q2123.47 1331.77 2121.48 1333.97 Q2119.49 1336.17 2119.49 1339.96 L2119.49 1354.62 L2115.21 1354.62 L2115.21 1328.69 L2119.49 1328.69 L2119.49 1332.72 Q2121.02 1330.38 2123.08 1329.22 Q2125.16 1328.06 2127.87 1328.06 Q2132.34 1328.06 2134.63 1330.84 Q2136.92 1333.6 2136.92 1338.97 Z" fill="#adb2b7" fill-rule="evenodd" fill-opacity="1" /><path clip-path="url(#clip470)" d="M2144.98 1344.38 L2144.98 1328.69 L2149.24 1328.69 L2149.24 1344.22 Q2149.24 1347.9 2150.67 1349.75 Q2152.11 1351.58 2154.98 1351.58 Q2158.43 1351.58 2160.42 1349.38 Q2162.43 1347.18 2162.43 1343.39 L2162.43 1328.69 L2166.69 1328.69 L2166.69 1354.62 L2162.43 1354.62 L2162.43 1350.63 Q2160.88 1352.99 2158.82 1354.15 Q2156.78 1355.29 2154.08 1355.29 Q2149.61 1355.29 2147.29 1352.51 Q2144.98 1349.73 2144.98 1344.38 M2155.7 1328.06 L2155.7 1328.06 Z" fill="#adb2b7" fill-rule="evenodd" fill-opacity="1" /><path clip-path="url(#clip470)" d="M2187.25 1341.58 Q2182.08 1341.58 2180.09 1342.76 Q2178.1 1343.94 2178.1 1346.79 Q2178.1 1349.06 2179.58 1350.4 Q2181.09 1351.72 2183.66 1351.72 Q2187.2 1351.72 2189.33 1349.22 Q2191.48 1346.7 2191.48 1342.53 L2191.48 1341.58 L2187.25 1341.58 M2195.74 1339.82 L2195.74 1354.62 L2191.48 1354.62 L2191.48 1350.68 Q2190.02 1353.04 2187.85 1354.18 Q2185.67 1355.29 2182.52 1355.29 Q2178.54 1355.29 2176.18 1353.06 Q2173.84 1350.82 2173.84 1347.07 Q2173.84 1342.69 2176.76 1340.47 Q2179.7 1338.25 2185.51 1338.25 L2191.48 1338.25 L2191.48 1337.83 Q2191.48 1334.89 2189.54 1333.3 Q2187.62 1331.68 2184.12 1331.68 Q2181.9 1331.68 2179.79 1332.21 Q2177.69 1332.74 2175.74 1333.81 L2175.74 1329.87 Q2178.08 1328.97 2180.28 1328.53 Q2182.48 1328.06 2184.56 1328.06 Q2190.19 1328.06 2192.96 1330.98 Q2195.74 1333.9 2195.74 1339.82 Z" fill="#adb2b7" fill-rule="evenodd" fill-opacity="1" /><path clip-path="url(#clip470)" d="M2204.52 1318.6 L2208.77 1318.6 L2208.77 1354.62 L2204.52 1354.62 L2204.52 1318.6 Z" fill="#adb2b7" fill-rule="evenodd" fill-opacity="1" /><circle clip-path="url(#clip470)" cx="1949.68" cy="1389.18" r="23" fill="#eca25c" fill-rule="evenodd" fill-opacity="1" stroke="#adb2b7" stroke-opacity="1" stroke-width="5.12"/>
<path clip-path="url(#clip470)" d="M2061.44 1376.5 L2055.09 1393.7 L2067.8 1393.7 L2061.44 1376.5 M2058.8 1371.9 L2064.1 1371.9 L2077.27 1406.46 L2072.41 1406.46 L2069.26 1397.59 L2053.68 1397.59 L2050.53 1406.46 L2045.6 1406.46 L2058.8 1371.9 Z" fill="#adb2b7" fill-rule="evenodd" fill-opacity="1" /><path clip-path="url(#clip470)" d="M2081.69 1396.22 L2081.69 1380.53 L2085.95 1380.53 L2085.95 1396.06 Q2085.95 1399.74 2087.39 1401.59 Q2088.82 1403.42 2091.69 1403.42 Q2095.14 1403.42 2097.13 1401.22 Q2099.15 1399.02 2099.15 1395.23 L2099.15 1380.53 L2103.4 1380.53 L2103.4 1406.46 L2099.15 1406.46 L2099.15 1402.47 Q2097.59 1404.83 2095.53 1405.99 Q2093.5 1407.13 2090.79 1407.13 Q2086.32 1407.13 2084.01 1404.35 Q2081.69 1401.57 2081.69 1396.22 M2092.41 1379.9 L2092.41 1379.9 Z" fill="#adb2b7" fill-rule="evenodd" fill-opacity="1" /><path clip-path="url(#clip470)" d="M2116.39 1373.17 L2116.39 1380.53 L2125.16 1380.53 L2125.16 1383.84 L2116.39 1383.84 L2116.39 1397.91 Q2116.39 1401.09 2117.25 1401.99 Q2118.13 1402.89 2120.79 1402.89 L2125.16 1402.89 L2125.16 1406.46 L2120.79 1406.46 Q2115.86 1406.46 2113.98 1404.63 Q2112.11 1402.77 2112.11 1397.91 L2112.11 1383.84 L2108.98 1383.84 L2108.98 1380.53 L2112.11 1380.53 L2112.11 1373.17 L2116.39 1373.17 Z" fill="#adb2b7" fill-rule="evenodd" fill-opacity="1" /><path clip-path="url(#clip470)" d="M2140.81 1383.52 Q2137.39 1383.52 2135.4 1386.2 Q2133.4 1388.86 2133.4 1393.52 Q2133.4 1398.17 2135.37 1400.85 Q2137.36 1403.52 2140.81 1403.52 Q2144.21 1403.52 2146.21 1400.83 Q2148.2 1398.15 2148.2 1393.52 Q2148.2 1388.91 2146.21 1386.22 Q2144.21 1383.52 2140.81 1383.52 M2140.81 1379.9 Q2146.37 1379.9 2149.54 1383.52 Q2152.71 1387.13 2152.71 1393.52 Q2152.71 1399.88 2149.54 1403.52 Q2146.37 1407.13 2140.81 1407.13 Q2135.23 1407.13 2132.06 1403.52 Q2128.91 1399.88 2128.91 1393.52 Q2128.91 1387.13 2132.06 1383.52 Q2135.23 1379.9 2140.81 1379.9 Z" fill="#adb2b7" fill-rule="evenodd" fill-opacity="1" /><path clip-path="url(#clip470)" d="M2176.83 1384.46 L2176.83 1370.44 L2181.09 1370.44 L2181.09 1406.46 L2176.83 1406.46 L2176.83 1402.57 Q2175.49 1404.88 2173.43 1406.02 Q2171.39 1407.13 2168.52 1407.13 Q2163.82 1407.13 2160.86 1403.38 Q2157.92 1399.63 2157.92 1393.52 Q2157.92 1387.4 2160.86 1383.65 Q2163.82 1379.9 2168.52 1379.9 Q2171.39 1379.9 2173.43 1381.04 Q2175.49 1382.15 2176.83 1384.46 M2162.32 1393.52 Q2162.32 1398.21 2164.24 1400.9 Q2166.18 1403.56 2169.56 1403.56 Q2172.94 1403.56 2174.89 1400.9 Q2176.83 1398.21 2176.83 1393.52 Q2176.83 1388.82 2174.89 1386.15 Q2172.94 1383.47 2169.56 1383.47 Q2166.18 1383.47 2164.24 1386.15 Q2162.32 1388.82 2162.32 1393.52 Z" fill="#adb2b7" fill-rule="evenodd" fill-opacity="1" /><path clip-path="url(#clip470)" d="M2189.86 1380.53 L2194.12 1380.53 L2194.12 1406.46 L2189.86 1406.46 L2189.86 1380.53 M2189.86 1370.44 L2194.12 1370.44 L2194.12 1375.83 L2189.86 1375.83 L2189.86 1370.44 Z" fill="#adb2b7" fill-rule="evenodd" fill-opacity="1" /><path clip-path="url(#clip470)" d="M2216.16 1370.44 L2216.16 1373.98 L2212.08 1373.98 Q2209.79 1373.98 2208.89 1374.9 Q2208.01 1375.83 2208.01 1378.24 L2208.01 1380.53 L2215.02 1380.53 L2215.02 1383.84 L2208.01 1383.84 L2208.01 1406.46 L2203.73 1406.46 L2203.73 1383.84 L2199.65 1383.84 L2199.65 1380.53 L2203.73 1380.53 L2203.73 1378.72 Q2203.73 1374.4 2205.74 1372.43 Q2207.76 1370.44 2212.13 1370.44 L2216.16 1370.44 Z" fill="#adb2b7" fill-rule="evenodd" fill-opacity="1" /><path clip-path="url(#clip470)" d="M2232.85 1370.44 L2232.85 1373.98 L2228.77 1373.98 Q2226.48 1373.98 2225.58 1374.9 Q2224.7 1375.83 2224.7 1378.24 L2224.7 1380.53 L2231.71 1380.53 L2231.71 1383.84 L2224.7 1383.84 L2224.7 1406.46 L2220.42 1406.46 L2220.42 1383.84 L2216.34 1383.84 L2216.34 1380.53 L2220.42 1380.53 L2220.42 1378.72 Q2220.42 1374.4 2222.43 1372.43 Q2224.45 1370.44 2228.82 1370.44 L2232.85 1370.44 Z" fill="#adb2b7" fill-rule="evenodd" fill-opacity="1" /></svg>
