<?xml version="1.0" encoding="utf-8"?>
<svg xmlns="http://www.w3.org/2000/svg" xmlns:xlink="http://www.w3.org/1999/xlink" width="600" height="400" viewBox="0 0 2400 1600">
<defs>
  <clipPath id="clip350">
    <rect x="0" y="0" width="2400" height="1600"/>
  </clipPath>
</defs>
<path clip-path="url(#clip350)" d="
M0 1600 L2400 1600 L2400 0 L0 0  Z
  " fill="#282c34" fill-rule="evenodd" fill-opacity="1"/>
<defs>
  <clipPath id="clip351">
    <rect x="480" y="0" width="1681" height="1600"/>
  </clipPath>
</defs>
<path clip-path="url(#clip350)" d="
M110.881 1486.45 L1096.15 1486.45 L1096.15 123.472 L110.881 123.472  Z
  " fill="#21252b" fill-rule="evenodd" fill-opacity="1"/>
<defs>
  <clipPath id="clip352">
    <rect x="110" y="123" width="986" height="1364"/>
  </clipPath>
</defs>
<polyline clip-path="url(#clip352)" style="stroke:#adb2b7; stroke-linecap:butt; stroke-linejoin:round; stroke-width:2; stroke-opacity:0.1; fill:none" points="
  138.766,1486.45 138.766,123.472 
  "/>
<polyline clip-path="url(#clip352)" style="stroke:#adb2b7; stroke-linecap:butt; stroke-linejoin:round; stroke-width:2; stroke-opacity:0.1; fill:none" points="
  371.14,1486.45 371.14,123.472 
  "/>
<polyline clip-path="url(#clip352)" style="stroke:#adb2b7; stroke-linecap:butt; stroke-linejoin:round; stroke-width:2; stroke-opacity:0.1; fill:none" points="
  603.514,1486.45 603.514,123.472 
  "/>
<polyline clip-path="url(#clip352)" style="stroke:#adb2b7; stroke-linecap:butt; stroke-linejoin:round; stroke-width:2; stroke-opacity:0.1; fill:none" points="
  835.888,1486.45 835.888,123.472 
  "/>
<polyline clip-path="url(#clip352)" style="stroke:#adb2b7; stroke-linecap:butt; stroke-linejoin:round; stroke-width:2; stroke-opacity:0.1; fill:none" points="
  1068.26,1486.45 1068.26,123.472 
  "/>
<polyline clip-path="url(#clip350)" style="stroke:#adb2b7; stroke-linecap:butt; stroke-linejoin:round; stroke-width:4; stroke-opacity:1; fill:none" points="
  110.881,1486.45 1096.15,1486.45 
  "/>
<polyline clip-path="url(#clip350)" style="stroke:#adb2b7; stroke-linecap:butt; stroke-linejoin:round; stroke-width:4; stroke-opacity:1; fill:none" points="
  138.766,1486.45 138.766,1467.55 
  "/>
<polyline clip-path="url(#clip350)" style="stroke:#adb2b7; stroke-linecap:butt; stroke-linejoin:round; stroke-width:4; stroke-opacity:1; fill:none" points="
  371.14,1486.45 371.14,1467.55 
  "/>
<polyline clip-path="url(#clip350)" style="stroke:#adb2b7; stroke-linecap:butt; stroke-linejoin:round; stroke-width:4; stroke-opacity:1; fill:none" points="
  603.514,1486.45 603.514,1467.55 
  "/>
<polyline clip-path="url(#clip350)" style="stroke:#adb2b7; stroke-linecap:butt; stroke-linejoin:round; stroke-width:4; stroke-opacity:1; fill:none" points="
  835.888,1486.45 835.888,1467.55 
  "/>
<polyline clip-path="url(#clip350)" style="stroke:#adb2b7; stroke-linecap:butt; stroke-linejoin:round; stroke-width:4; stroke-opacity:1; fill:none" points="
  1068.26,1486.45 1068.26,1467.55 
  "/>
<path clip-path="url(#clip350)" d="M108.708 1532.02 L138.384 1532.02 L138.384 1535.95 L108.708 1535.95 L108.708 1532.02 Z" fill="#9eb1be" fill-rule="evenodd" fill-opacity="1" /><path clip-path="url(#clip350)" d="M152.504 1544.91 L168.823 1544.91 L168.823 1548.85 L146.879 1548.85 L146.879 1544.91 Q149.541 1542.16 154.125 1537.53 Q158.731 1532.88 159.912 1531.53 Q162.157 1529.01 163.036 1527.27 Q163.939 1525.51 163.939 1523.82 Q163.939 1521.07 161.995 1519.33 Q160.074 1517.6 156.972 1517.6 Q154.773 1517.6 152.319 1518.36 Q149.888 1519.13 147.111 1520.68 L147.111 1515.95 Q149.935 1514.82 152.388 1514.24 Q154.842 1513.66 156.879 1513.66 Q162.249 1513.66 165.444 1516.35 Q168.638 1519.03 168.638 1523.52 Q168.638 1525.65 167.828 1527.57 Q167.041 1529.47 164.935 1532.07 Q164.356 1532.74 161.254 1535.95 Q158.152 1539.15 152.504 1544.91 Z" fill="#9eb1be" fill-rule="evenodd" fill-opacity="1" /><path clip-path="url(#clip350)" d="M340.897 1532.02 L370.573 1532.02 L370.573 1535.95 L340.897 1535.95 L340.897 1532.02 Z" fill="#9eb1be" fill-rule="evenodd" fill-opacity="1" /><path clip-path="url(#clip350)" d="M381.476 1544.91 L389.114 1544.91 L389.114 1518.55 L380.804 1520.21 L380.804 1515.95 L389.068 1514.29 L393.744 1514.29 L393.744 1544.91 L401.383 1544.91 L401.383 1548.85 L381.476 1548.85 L381.476 1544.91 Z" fill="#9eb1be" fill-rule="evenodd" fill-opacity="1" /><path clip-path="url(#clip350)" d="M603.514 1517.37 Q599.903 1517.37 598.074 1520.93 Q596.269 1524.47 596.269 1531.6 Q596.269 1538.71 598.074 1542.27 Q599.903 1545.82 603.514 1545.82 Q607.148 1545.82 608.954 1542.27 Q610.783 1538.71 610.783 1531.6 Q610.783 1524.47 608.954 1520.93 Q607.148 1517.37 603.514 1517.37 M603.514 1513.66 Q609.324 1513.66 612.38 1518.27 Q615.459 1522.85 615.459 1531.6 Q615.459 1540.33 612.38 1544.94 Q609.324 1549.52 603.514 1549.52 Q597.704 1549.52 594.625 1544.94 Q591.57 1540.33 591.57 1531.6 Q591.57 1522.85 594.625 1518.27 Q597.704 1513.66 603.514 1513.66 Z" fill="#9eb1be" fill-rule="evenodd" fill-opacity="1" /><path clip-path="url(#clip350)" d="M826.27 1544.91 L833.909 1544.91 L833.909 1518.55 L825.599 1520.21 L825.599 1515.95 L833.863 1514.29 L838.539 1514.29 L838.539 1544.91 L846.178 1544.91 L846.178 1548.85 L826.27 1548.85 L826.27 1544.91 Z" fill="#9eb1be" fill-rule="evenodd" fill-opacity="1" /><path clip-path="url(#clip350)" d="M1062.92 1544.91 L1079.23 1544.91 L1079.23 1548.85 L1057.29 1548.85 L1057.29 1544.91 Q1059.95 1542.16 1064.54 1537.53 Q1069.14 1532.88 1070.32 1531.53 Q1072.57 1529.01 1073.45 1527.27 Q1074.35 1525.51 1074.35 1523.82 Q1074.35 1521.07 1072.41 1519.33 Q1070.48 1517.6 1067.38 1517.6 Q1065.18 1517.6 1062.73 1518.36 Q1060.3 1519.13 1057.52 1520.68 L1057.52 1515.95 Q1060.35 1514.82 1062.8 1514.24 Q1065.25 1513.66 1067.29 1513.66 Q1072.66 1513.66 1075.86 1516.35 Q1079.05 1519.03 1079.05 1523.52 Q1079.05 1525.65 1078.24 1527.57 Q1077.45 1529.47 1075.35 1532.07 Q1074.77 1532.74 1071.67 1535.95 Q1068.56 1539.15 1062.92 1544.91 Z" fill="#9eb1be" fill-rule="evenodd" fill-opacity="1" /><polyline clip-path="url(#clip352)" style="stroke:#adb2b7; stroke-linecap:butt; stroke-linejoin:round; stroke-width:2; stroke-opacity:0.1; fill:none" points="
  110.881,1447.87 1096.15,1447.87 
  "/>
<polyline clip-path="url(#clip352)" style="stroke:#adb2b7; stroke-linecap:butt; stroke-linejoin:round; stroke-width:2; stroke-opacity:0.1; fill:none" points="
  110.881,1019.26 1096.15,1019.26 
  "/>
<polyline clip-path="url(#clip352)" style="stroke:#adb2b7; stroke-linecap:butt; stroke-linejoin:round; stroke-width:2; stroke-opacity:0.1; fill:none" points="
  110.881,590.656 1096.15,590.656 
  "/>
<polyline clip-path="url(#clip352)" style="stroke:#adb2b7; stroke-linecap:butt; stroke-linejoin:round; stroke-width:2; stroke-opacity:0.1; fill:none" points="
  110.881,162.047 1096.15,162.047 
  "/>
<polyline clip-path="url(#clip350)" style="stroke:#adb2b7; stroke-linecap:butt; stroke-linejoin:round; stroke-width:4; stroke-opacity:1; fill:none" points="
  110.881,1486.45 110.881,123.472 
  "/>
<polyline clip-path="url(#clip350)" style="stroke:#adb2b7; stroke-linecap:butt; stroke-linejoin:round; stroke-width:4; stroke-opacity:1; fill:none" points="
  110.881,1447.87 129.779,1447.87 
  "/>
<polyline clip-path="url(#clip350)" style="stroke:#adb2b7; stroke-linecap:butt; stroke-linejoin:round; stroke-width:4; stroke-opacity:1; fill:none" points="
  110.881,1019.26 129.779,1019.26 
  "/>
<polyline clip-path="url(#clip350)" style="stroke:#adb2b7; stroke-linecap:butt; stroke-linejoin:round; stroke-width:4; stroke-opacity:1; fill:none" points="
  110.881,590.656 129.779,590.656 
  "/>
<polyline clip-path="url(#clip350)" style="stroke:#adb2b7; stroke-linecap:butt; stroke-linejoin:round; stroke-width:4; stroke-opacity:1; fill:none" points="
  110.881,162.047 129.779,162.047 
  "/>
<path clip-path="url(#clip350)" d="M62.9365 1433.67 Q59.3254 1433.67 57.4967 1437.24 Q55.6912 1440.78 55.6912 1447.91 Q55.6912 1455.01 57.4967 1458.58 Q59.3254 1462.12 62.9365 1462.12 Q66.5707 1462.12 68.3763 1458.58 Q70.205 1455.01 70.205 1447.91 Q70.205 1440.78 68.3763 1437.24 Q66.5707 1433.67 62.9365 1433.67 M62.9365 1429.97 Q68.7467 1429.97 71.8022 1434.57 Q74.8809 1439.16 74.8809 1447.91 Q74.8809 1456.63 71.8022 1461.24 Q68.7467 1465.82 62.9365 1465.82 Q57.1264 1465.82 54.0477 1461.24 Q50.9921 1456.63 50.9921 1447.91 Q50.9921 1439.16 54.0477 1434.57 Q57.1264 1429.97 62.9365 1429.97 Z" fill="#9eb1be" fill-rule="evenodd" fill-opacity="1" /><path clip-path="url(#clip350)" d="M54.9736 1032.61 L62.6124 1032.61 L62.6124 1006.24 L54.3023 1007.91 L54.3023 1003.65 L62.5661 1001.98 L67.242 1001.98 L67.242 1032.61 L74.8809 1032.61 L74.8809 1036.54 L54.9736 1036.54 L54.9736 1032.61 Z" fill="#9eb1be" fill-rule="evenodd" fill-opacity="1" /><path clip-path="url(#clip350)" d="M58.5615 604 L74.8809 604 L74.8809 607.936 L52.9366 607.936 L52.9366 604 Q55.5986 601.246 60.1819 596.616 Q64.7883 591.964 65.9689 590.621 Q68.2143 588.098 69.0939 586.362 Q69.9967 584.602 69.9967 582.913 Q69.9967 580.158 68.0522 578.422 Q66.1309 576.686 63.0291 576.686 Q60.83 576.686 58.3763 577.45 Q55.9458 578.214 53.168 579.764 L53.168 575.042 Q55.9921 573.908 58.4458 573.329 Q60.8995 572.751 62.9365 572.751 Q68.3068 572.751 71.5013 575.436 Q74.6957 578.121 74.6957 582.612 Q74.6957 584.741 73.8855 586.663 Q73.0985 588.561 70.992 591.153 Q70.4133 591.825 67.3115 595.042 Q64.2096 598.237 58.5615 604 Z" fill="#9eb1be" fill-rule="evenodd" fill-opacity="1" /><path clip-path="url(#clip350)" d="M67.7513 160.693 Q71.1078 161.41 72.9827 163.679 Q74.8809 165.947 74.8809 169.281 Q74.8809 174.396 71.3624 177.197 Q67.8439 179.998 61.3624 179.998 Q59.1865 179.998 56.8717 179.558 Q54.5801 179.142 52.1264 178.285 L52.1264 173.771 Q54.0708 174.906 56.3856 175.484 Q58.7004 176.063 61.2236 176.063 Q65.6217 176.063 67.9133 174.327 Q70.2281 172.591 70.2281 169.281 Q70.2281 166.225 68.0754 164.512 Q65.9457 162.776 62.1263 162.776 L58.0986 162.776 L58.0986 158.934 L62.3115 158.934 Q65.7606 158.934 67.5893 157.568 Q69.418 156.179 69.418 153.586 Q69.418 150.924 67.5198 149.512 Q65.6448 148.077 62.1263 148.077 Q60.205 148.077 58.006 148.494 Q55.8069 148.91 53.168 149.79 L53.168 145.623 Q55.8301 144.883 58.1449 144.512 Q60.4828 144.142 62.543 144.142 Q67.867 144.142 70.9689 146.572 Q74.0707 148.98 74.0707 153.1 Q74.0707 155.971 72.4272 157.961 Q70.7837 159.929 67.7513 160.693 Z" fill="#9eb1be" fill-rule="evenodd" fill-opacity="1" /><path clip-path="url(#clip350)" d="M518.627 12.096 L526.81 12.096 L526.81 65.6895 L556.26 65.6895 L556.26 72.576 L518.627 72.576 L518.627 12.096 Z" fill="#adb2b7" fill-rule="evenodd" fill-opacity="1" /><path clip-path="url(#clip350)" d="M580.647 32.4315 Q574.651 32.4315 571.168 37.1306 Q567.684 41.7891 567.684 49.9314 Q567.684 58.0738 571.127 62.7728 Q574.611 67.4314 580.647 67.4314 Q586.602 67.4314 590.085 62.7323 Q593.569 58.0333 593.569 49.9314 Q593.569 41.8701 590.085 37.1711 Q586.602 32.4315 580.647 32.4315 M580.647 26.1121 Q590.369 26.1121 595.919 32.4315 Q601.468 38.7509 601.468 49.9314 Q601.468 61.0714 595.919 67.4314 Q590.369 73.7508 580.647 73.7508 Q570.884 73.7508 565.334 67.4314 Q559.825 61.0714 559.825 49.9314 Q559.825 38.7509 565.334 32.4315 Q570.884 26.1121 580.647 26.1121 Z" fill="#adb2b7" fill-rule="evenodd" fill-opacity="1" /><path clip-path="url(#clip350)" d="M642.747 28.5427 L642.747 35.5912 Q639.587 33.9709 636.185 33.1607 Q632.782 32.3505 629.136 32.3505 Q623.586 32.3505 620.791 34.0519 Q618.037 35.7533 618.037 39.156 Q618.037 41.7486 620.022 43.2475 Q622.007 44.7058 628.002 46.0426 L630.554 46.6097 Q638.494 48.3111 641.815 51.4303 Q645.178 54.509 645.178 60.0587 Q645.178 66.3781 640.155 70.0644 Q635.172 73.7508 626.422 73.7508 Q622.776 73.7508 618.806 73.0216 Q614.877 72.3329 610.502 70.9151 L610.502 63.2184 Q614.634 65.3654 618.644 66.4591 Q622.655 67.5124 626.584 67.5124 Q631.85 67.5124 634.686 65.73 Q637.521 63.9071 637.521 60.6258 Q637.521 57.5877 635.456 55.9673 Q633.43 54.3469 626.503 52.8481 L623.91 52.2405 Q616.983 50.7821 613.905 47.7845 Q610.826 44.7463 610.826 39.4801 Q610.826 33.0797 615.363 29.5959 Q619.9 26.1121 628.245 26.1121 Q632.377 26.1121 636.023 26.7198 Q639.668 27.3274 642.747 28.5427 Z" fill="#adb2b7" fill-rule="evenodd" fill-opacity="1" /><path clip-path="url(#clip350)" d="M685.97 28.5427 L685.97 35.5912 Q682.811 33.9709 679.408 33.1607 Q676.005 32.3505 672.359 32.3505 Q666.81 32.3505 664.014 34.0519 Q661.26 35.7533 661.26 39.156 Q661.26 41.7486 663.245 43.2475 Q665.23 44.7058 671.225 46.0426 L673.777 46.6097 Q681.717 48.3111 685.039 51.4303 Q688.401 54.509 688.401 60.0587 Q688.401 66.3781 683.378 70.0644 Q678.395 73.7508 669.645 73.7508 Q665.999 73.7508 662.029 73.0216 Q658.1 72.3329 653.725 70.9151 L653.725 63.2184 Q657.857 65.3654 661.867 66.4591 Q665.878 67.5124 669.807 67.5124 Q675.073 67.5124 677.909 65.73 Q680.745 63.9071 680.745 60.6258 Q680.745 57.5877 678.679 55.9673 Q676.653 54.3469 669.726 52.8481 L667.134 52.2405 Q660.207 50.7821 657.128 47.7845 Q654.049 44.7463 654.049 39.4801 Q654.049 33.0797 658.586 29.5959 Q663.123 26.1121 671.468 26.1121 Q675.6 26.1121 679.246 26.7198 Q682.892 27.3274 685.97 28.5427 Z" fill="#adb2b7" fill-rule="evenodd" fill-opacity="1" /><polyline clip-path="url(#clip352)" style="stroke:#fe4365; stroke-linecap:butt; stroke-linejoin:round; stroke-width:4; stroke-opacity:1; fill:none" points="
  138.766,162.047 162.003,204.908 185.241,247.769 208.478,290.63 231.715,333.49 254.953,376.351 278.19,419.212 301.428,462.073 324.665,504.934 347.903,547.795 
  371.14,590.656 394.377,633.517 417.615,676.377 440.852,719.238 464.09,762.099 487.327,804.96 510.564,847.821 533.802,890.682 557.039,933.543 580.277,976.403 
  603.514,1019.26 626.752,1062.13 649.989,1104.99 673.226,1147.85 696.464,1190.71 719.701,1233.57 742.939,1276.43 766.176,1319.29 789.413,1362.15 812.651,1405.01 
  835.888,1447.87 859.126,1447.87 882.363,1447.87 905.601,1447.87 928.838,1447.87 952.075,1447.87 975.313,1447.87 998.55,1447.87 1021.79,1447.87 1045.03,1447.87 
  1068.26,1447.87 
  "/>
<path clip-path="url(#clip350)" d="
M1367.49 1486.45 L2352.76 1486.45 L2352.76 123.472 L1367.49 123.472  Z
  " fill="#21252b" fill-rule="evenodd" fill-opacity="1"/>
<defs>
  <clipPath id="clip353">
    <rect x="1367" y="123" width="986" height="1364"/>
  </clipPath>
</defs>
<polyline clip-path="url(#clip353)" style="stroke:#adb2b7; stroke-linecap:butt; stroke-linejoin:round; stroke-width:2; stroke-opacity:0.1; fill:none" points="
  1395.37,1486.45 1395.37,123.472 
  "/>
<polyline clip-path="url(#clip353)" style="stroke:#adb2b7; stroke-linecap:butt; stroke-linejoin:round; stroke-width:2; stroke-opacity:0.1; fill:none" points="
  1627.75,1486.45 1627.75,123.472 
  "/>
<polyline clip-path="url(#clip353)" style="stroke:#adb2b7; stroke-linecap:butt; stroke-linejoin:round; stroke-width:2; stroke-opacity:0.1; fill:none" points="
  1860.12,1486.45 1860.12,123.472 
  "/>
<polyline clip-path="url(#clip353)" style="stroke:#adb2b7; stroke-linecap:butt; stroke-linejoin:round; stroke-width:2; stroke-opacity:0.1; fill:none" points="
  2092.5,1486.45 2092.5,123.472 
  "/>
<polyline clip-path="url(#clip353)" style="stroke:#adb2b7; stroke-linecap:butt; stroke-linejoin:round; stroke-width:2; stroke-opacity:0.1; fill:none" points="
  2324.87,1486.45 2324.87,123.472 
  "/>
<polyline clip-path="url(#clip350)" style="stroke:#adb2b7; stroke-linecap:butt; stroke-linejoin:round; stroke-width:4; stroke-opacity:1; fill:none" points="
  1367.49,1486.45 2352.76,1486.45 
  "/>
<polyline clip-path="url(#clip350)" style="stroke:#adb2b7; stroke-linecap:butt; stroke-linejoin:round; stroke-width:4; stroke-opacity:1; fill:none" points="
  1395.37,1486.45 1395.37,1467.55 
  "/>
<polyline clip-path="url(#clip350)" style="stroke:#adb2b7; stroke-linecap:butt; stroke-linejoin:round; stroke-width:4; stroke-opacity:1; fill:none" points="
  1627.75,1486.45 1627.75,1467.55 
  "/>
<polyline clip-path="url(#clip350)" style="stroke:#adb2b7; stroke-linecap:butt; stroke-linejoin:round; stroke-width:4; stroke-opacity:1; fill:none" points="
  1860.12,1486.45 1860.12,1467.55 
  "/>
<polyline clip-path="url(#clip350)" style="stroke:#adb2b7; stroke-linecap:butt; stroke-linejoin:round; stroke-width:4; stroke-opacity:1; fill:none" points="
  2092.5,1486.45 2092.5,1467.55 
  "/>
<polyline clip-path="url(#clip350)" style="stroke:#adb2b7; stroke-linecap:butt; stroke-linejoin:round; stroke-width:4; stroke-opacity:1; fill:none" points="
  2324.87,1486.45 2324.87,1467.55 
  "/>
<path clip-path="url(#clip350)" d="M1365.32 1532.02 L1394.99 1532.02 L1394.99 1535.95 L1365.32 1535.95 L1365.32 1532.02 Z" fill="#9eb1be" fill-rule="evenodd" fill-opacity="1" /><path clip-path="url(#clip350)" d="M1409.11 1544.91 L1425.43 1544.91 L1425.43 1548.85 L1403.49 1548.85 L1403.49 1544.91 Q1406.15 1542.16 1410.73 1537.53 Q1415.34 1532.88 1416.52 1531.53 Q1418.77 1529.01 1419.64 1527.27 Q1420.55 1525.51 1420.55 1523.82 Q1420.55 1521.07 1418.6 1519.33 Q1416.68 1517.6 1413.58 1517.6 Q1411.38 1517.6 1408.93 1518.36 Q1406.5 1519.13 1403.72 1520.68 L1403.72 1515.95 Q1406.54 1514.82 1409 1514.24 Q1411.45 1513.66 1413.49 1513.66 Q1418.86 1513.66 1422.05 1516.35 Q1425.25 1519.03 1425.25 1523.52 Q1425.25 1525.65 1424.44 1527.57 Q1423.65 1529.47 1421.54 1532.07 Q1420.96 1532.74 1417.86 1535.95 Q1414.76 1539.15 1409.11 1544.91 Z" fill="#9eb1be" fill-rule="evenodd" fill-opacity="1" /><path clip-path="url(#clip350)" d="M1597.51 1532.02 L1627.18 1532.02 L1627.18 1535.95 L1597.51 1535.95 L1597.51 1532.02 Z" fill="#9eb1be" fill-rule="evenodd" fill-opacity="1" /><path clip-path="url(#clip350)" d="M1638.08 1544.91 L1645.72 1544.91 L1645.72 1518.55 L1637.41 1520.21 L1637.41 1515.95 L1645.68 1514.29 L1650.35 1514.29 L1650.35 1544.91 L1657.99 1544.91 L1657.99 1548.85 L1638.08 1548.85 L1638.08 1544.91 Z" fill="#9eb1be" fill-rule="evenodd" fill-opacity="1" /><path clip-path="url(#clip350)" d="M1860.12 1517.37 Q1856.51 1517.37 1854.68 1520.93 Q1852.88 1524.47 1852.88 1531.6 Q1852.88 1538.71 1854.68 1542.27 Q1856.51 1545.82 1860.12 1545.82 Q1863.76 1545.82 1865.56 1542.27 Q1867.39 1538.71 1867.39 1531.6 Q1867.39 1524.47 1865.56 1520.93 Q1863.76 1517.37 1860.12 1517.37 M1860.12 1513.66 Q1865.93 1513.66 1868.99 1518.27 Q1872.07 1522.85 1872.07 1531.6 Q1872.07 1540.33 1868.99 1544.94 Q1865.93 1549.52 1860.12 1549.52 Q1854.31 1549.52 1851.23 1544.94 Q1848.18 1540.33 1848.18 1531.6 Q1848.18 1522.85 1851.23 1518.27 Q1854.31 1513.66 1860.12 1513.66 Z" fill="#9eb1be" fill-rule="evenodd" fill-opacity="1" /><path clip-path="url(#clip350)" d="M2082.88 1544.91 L2090.52 1544.91 L2090.52 1518.55 L2082.21 1520.21 L2082.21 1515.95 L2090.47 1514.29 L2095.15 1514.29 L2095.15 1544.91 L2102.79 1544.91 L2102.79 1548.85 L2082.88 1548.85 L2082.88 1544.91 Z" fill="#9eb1be" fill-rule="evenodd" fill-opacity="1" /><path clip-path="url(#clip350)" d="M2319.52 1544.91 L2335.84 1544.91 L2335.84 1548.85 L2313.9 1548.85 L2313.9 1544.91 Q2316.56 1542.16 2321.14 1537.53 Q2325.75 1532.88 2326.93 1531.53 Q2329.18 1529.01 2330.06 1527.27 Q2330.96 1525.51 2330.96 1523.82 Q2330.96 1521.07 2329.01 1519.33 Q2327.09 1517.6 2323.99 1517.6 Q2321.79 1517.6 2319.34 1518.36 Q2316.91 1519.13 2314.13 1520.68 L2314.13 1515.95 Q2316.95 1514.82 2319.41 1514.24 Q2321.86 1513.66 2323.9 1513.66 Q2329.27 1513.66 2332.46 1516.35 Q2335.66 1519.03 2335.66 1523.52 Q2335.66 1525.65 2334.85 1527.57 Q2334.06 1529.47 2331.95 1532.07 Q2331.38 1532.74 2328.27 1535.95 Q2325.17 1539.15 2319.52 1544.91 Z" fill="#9eb1be" fill-rule="evenodd" fill-opacity="1" /><polyline clip-path="url(#clip353)" style="stroke:#adb2b7; stroke-linecap:butt; stroke-linejoin:round; stroke-width:2; stroke-opacity:0.1; fill:none" points="
  1367.49,1447.87 2352.76,1447.87 
  "/>
<polyline clip-path="url(#clip353)" style="stroke:#adb2b7; stroke-linecap:butt; stroke-linejoin:round; stroke-width:2; stroke-opacity:0.1; fill:none" points="
  1367.49,1126.42 2352.76,1126.42 
  "/>
<polyline clip-path="url(#clip353)" style="stroke:#adb2b7; stroke-linecap:butt; stroke-linejoin:round; stroke-width:2; stroke-opacity:0.1; fill:none" points="
  1367.49,804.96 2352.76,804.96 
  "/>
<polyline clip-path="url(#clip353)" style="stroke:#adb2b7; stroke-linecap:butt; stroke-linejoin:round; stroke-width:2; stroke-opacity:0.1; fill:none" points="
  1367.49,483.503 2352.76,483.503 
  "/>
<polyline clip-path="url(#clip353)" style="stroke:#adb2b7; stroke-linecap:butt; stroke-linejoin:round; stroke-width:2; stroke-opacity:0.1; fill:none" points="
  1367.49,162.047 2352.76,162.047 
  "/>
<polyline clip-path="url(#clip350)" style="stroke:#adb2b7; stroke-linecap:butt; stroke-linejoin:round; stroke-width:4; stroke-opacity:1; fill:none" points="
  1367.49,1486.45 1367.49,123.472 
  "/>
<polyline clip-path="url(#clip350)" style="stroke:#adb2b7; stroke-linecap:butt; stroke-linejoin:round; stroke-width:4; stroke-opacity:1; fill:none" points="
  1367.49,1447.87 1386.39,1447.87 
  "/>
<polyline clip-path="url(#clip350)" style="stroke:#adb2b7; stroke-linecap:butt; stroke-linejoin:round; stroke-width:4; stroke-opacity:1; fill:none" points="
  1367.49,1126.42 1386.39,1126.42 
  "/>
<polyline clip-path="url(#clip350)" style="stroke:#adb2b7; stroke-linecap:butt; stroke-linejoin:round; stroke-width:4; stroke-opacity:1; fill:none" points="
  1367.49,804.96 1386.39,804.96 
  "/>
<polyline clip-path="url(#clip350)" style="stroke:#adb2b7; stroke-linecap:butt; stroke-linejoin:round; stroke-width:4; stroke-opacity:1; fill:none" points="
  1367.49,483.503 1386.39,483.503 
  "/>
<polyline clip-path="url(#clip350)" style="stroke:#adb2b7; stroke-linecap:butt; stroke-linejoin:round; stroke-width:4; stroke-opacity:1; fill:none" points="
  1367.49,162.047 1386.39,162.047 
  "/>
<path clip-path="url(#clip350)" d="M1194.38 1448.32 L1224.06 1448.32 L1224.06 1452.26 L1194.38 1452.26 L1194.38 1448.32 Z" fill="#9eb1be" fill-rule="evenodd" fill-opacity="1" /><path clip-path="url(#clip350)" d="M1234.96 1461.22 L1242.6 1461.22 L1242.6 1434.85 L1234.29 1436.52 L1234.29 1432.26 L1242.55 1430.59 L1247.23 1430.59 L1247.23 1461.22 L1254.87 1461.22 L1254.87 1465.15 L1234.96 1465.15 L1234.96 1461.22 Z" fill="#9eb1be" fill-rule="evenodd" fill-opacity="1" /><path clip-path="url(#clip350)" d="M1264.31 1459.27 L1269.2 1459.27 L1269.2 1465.15 L1264.31 1465.15 L1264.31 1459.27 Z" fill="#9eb1be" fill-rule="evenodd" fill-opacity="1" /><path clip-path="url(#clip350)" d="M1289.38 1433.67 Q1285.77 1433.67 1283.94 1437.24 Q1282.14 1440.78 1282.14 1447.91 Q1282.14 1455.01 1283.94 1458.58 Q1285.77 1462.12 1289.38 1462.12 Q1293.02 1462.12 1294.82 1458.58 Q1296.65 1455.01 1296.65 1447.91 Q1296.65 1440.78 1294.82 1437.24 Q1293.02 1433.67 1289.38 1433.67 M1289.38 1429.97 Q1295.19 1429.97 1298.25 1434.57 Q1301.33 1439.16 1301.33 1447.91 Q1301.33 1456.63 1298.25 1461.24 Q1295.19 1465.82 1289.38 1465.82 Q1283.57 1465.82 1280.49 1461.24 Q1277.44 1456.63 1277.44 1447.91 Q1277.44 1439.16 1280.49 1434.57 Q1283.57 1429.97 1289.38 1429.97 Z" fill="#9eb1be" fill-rule="evenodd" fill-opacity="1" /><path clip-path="url(#clip350)" d="M1319.54 1433.67 Q1315.93 1433.67 1314.11 1437.24 Q1312.3 1440.78 1312.3 1447.91 Q1312.3 1455.01 1314.11 1458.58 Q1315.93 1462.12 1319.54 1462.12 Q1323.18 1462.12 1324.98 1458.58 Q1326.81 1455.01 1326.81 1447.91 Q1326.81 1440.78 1324.98 1437.24 Q1323.18 1433.67 1319.54 1433.67 M1319.54 1429.97 Q1325.36 1429.97 1328.41 1434.57 Q1331.49 1439.16 1331.49 1447.91 Q1331.49 1456.63 1328.41 1461.24 Q1325.36 1465.82 1319.54 1465.82 Q1313.73 1465.82 1310.66 1461.24 Q1307.6 1456.63 1307.6 1447.91 Q1307.6 1439.16 1310.66 1434.57 Q1313.73 1429.97 1319.54 1429.97 Z" fill="#9eb1be" fill-rule="evenodd" fill-opacity="1" /><path clip-path="url(#clip350)" d="M1195.38 1126.87 L1225.05 1126.87 L1225.05 1130.8 L1195.38 1130.8 L1195.38 1126.87 Z" fill="#9eb1be" fill-rule="evenodd" fill-opacity="1" /><path clip-path="url(#clip350)" d="M1245.15 1112.22 Q1241.54 1112.22 1239.71 1115.78 Q1237.9 1119.32 1237.9 1126.45 Q1237.9 1133.56 1239.71 1137.12 Q1241.54 1140.66 1245.15 1140.66 Q1248.78 1140.66 1250.59 1137.12 Q1252.42 1133.56 1252.42 1126.45 Q1252.42 1119.32 1250.59 1115.78 Q1248.78 1112.22 1245.15 1112.22 M1245.15 1108.51 Q1250.96 1108.51 1254.01 1113.12 Q1257.09 1117.7 1257.09 1126.45 Q1257.09 1135.18 1254.01 1139.78 Q1250.96 1144.37 1245.15 1144.37 Q1239.34 1144.37 1236.26 1139.78 Q1233.2 1135.18 1233.2 1126.45 Q1233.2 1117.7 1236.26 1113.12 Q1239.34 1108.51 1245.15 1108.51 Z" fill="#9eb1be" fill-rule="evenodd" fill-opacity="1" /><path clip-path="url(#clip350)" d="M1265.31 1137.82 L1270.19 1137.82 L1270.19 1143.7 L1265.31 1143.7 L1265.31 1137.82 Z" fill="#9eb1be" fill-rule="evenodd" fill-opacity="1" /><path clip-path="url(#clip350)" d="M1279.2 1109.14 L1301.42 1109.14 L1301.42 1111.13 L1288.87 1143.7 L1283.99 1143.7 L1295.8 1113.07 L1279.2 1113.07 L1279.2 1109.14 Z" fill="#9eb1be" fill-rule="evenodd" fill-opacity="1" /><path clip-path="url(#clip350)" d="M1310.59 1109.14 L1328.94 1109.14 L1328.94 1113.07 L1314.87 1113.07 L1314.87 1121.54 Q1315.89 1121.2 1316.91 1121.03 Q1317.92 1120.85 1318.94 1120.85 Q1324.73 1120.85 1328.11 1124.02 Q1331.49 1127.19 1331.49 1132.61 Q1331.49 1138.19 1328.02 1141.29 Q1324.54 1144.37 1318.23 1144.37 Q1316.05 1144.37 1313.78 1144 Q1311.54 1143.63 1309.13 1142.89 L1309.13 1138.19 Q1311.21 1139.32 1313.43 1139.88 Q1315.66 1140.43 1318.13 1140.43 Q1322.14 1140.43 1324.48 1138.33 Q1326.81 1136.22 1326.81 1132.61 Q1326.81 1129 1324.48 1126.89 Q1322.14 1124.78 1318.13 1124.78 Q1316.26 1124.78 1314.38 1125.2 Q1312.53 1125.62 1310.59 1126.5 L1310.59 1109.14 Z" fill="#9eb1be" fill-rule="evenodd" fill-opacity="1" /><path clip-path="url(#clip350)" d="M1194.38 805.411 L1224.06 805.411 L1224.06 809.347 L1194.38 809.347 L1194.38 805.411 Z" fill="#9eb1be" fill-rule="evenodd" fill-opacity="1" /><path clip-path="url(#clip350)" d="M1244.15 790.759 Q1240.54 790.759 1238.71 794.323 Q1236.91 797.865 1236.91 804.995 Q1236.91 812.101 1238.71 815.666 Q1240.54 819.208 1244.15 819.208 Q1247.79 819.208 1249.59 815.666 Q1251.42 812.101 1251.42 804.995 Q1251.42 797.865 1249.59 794.323 Q1247.79 790.759 1244.15 790.759 M1244.15 787.055 Q1249.96 787.055 1253.02 791.661 Q1256.1 796.245 1256.1 804.995 Q1256.1 813.722 1253.02 818.328 Q1249.96 822.911 1244.15 822.911 Q1238.34 822.911 1235.26 818.328 Q1232.21 813.722 1232.21 804.995 Q1232.21 796.245 1235.26 791.661 Q1238.34 787.055 1244.15 787.055 Z" fill="#9eb1be" fill-rule="evenodd" fill-opacity="1" /><path clip-path="url(#clip350)" d="M1264.31 816.36 L1269.2 816.36 L1269.2 822.24 L1264.31 822.24 L1264.31 816.36 Z" fill="#9eb1be" fill-rule="evenodd" fill-opacity="1" /><path clip-path="url(#clip350)" d="M1279.43 787.68 L1297.79 787.68 L1297.79 791.615 L1283.71 791.615 L1283.71 800.087 Q1284.73 799.74 1285.75 799.578 Q1286.77 799.393 1287.79 799.393 Q1293.57 799.393 1296.95 802.564 Q1300.33 805.735 1300.33 811.152 Q1300.33 816.731 1296.86 819.833 Q1293.39 822.911 1287.07 822.911 Q1284.89 822.911 1282.62 822.541 Q1280.38 822.171 1277.97 821.43 L1277.97 816.731 Q1280.05 817.865 1282.28 818.421 Q1284.5 818.976 1286.98 818.976 Q1290.98 818.976 1293.32 816.87 Q1295.66 814.763 1295.66 811.152 Q1295.66 807.541 1293.32 805.435 Q1290.98 803.328 1286.98 803.328 Q1285.1 803.328 1283.23 803.745 Q1281.37 804.161 1279.43 805.041 L1279.43 787.68 Z" fill="#9eb1be" fill-rule="evenodd" fill-opacity="1" /><path clip-path="url(#clip350)" d="M1319.54 790.759 Q1315.93 790.759 1314.11 794.323 Q1312.3 797.865 1312.3 804.995 Q1312.3 812.101 1314.11 815.666 Q1315.93 819.208 1319.54 819.208 Q1323.18 819.208 1324.98 815.666 Q1326.81 812.101 1326.81 804.995 Q1326.81 797.865 1324.98 794.323 Q1323.18 790.759 1319.54 790.759 M1319.54 787.055 Q1325.36 787.055 1328.41 791.661 Q1331.49 796.245 1331.49 804.995 Q1331.49 813.722 1328.41 818.328 Q1325.36 822.911 1319.54 822.911 Q1313.73 822.911 1310.66 818.328 Q1307.6 813.722 1307.6 804.995 Q1307.6 796.245 1310.66 791.661 Q1313.73 787.055 1319.54 787.055 Z" fill="#9eb1be" fill-rule="evenodd" fill-opacity="1" /><path clip-path="url(#clip350)" d="M1195.38 483.955 L1225.05 483.955 L1225.05 487.89 L1195.38 487.89 L1195.38 483.955 Z" fill="#9eb1be" fill-rule="evenodd" fill-opacity="1" /><path clip-path="url(#clip350)" d="M1245.15 469.302 Q1241.54 469.302 1239.71 472.867 Q1237.9 476.409 1237.9 483.538 Q1237.9 490.645 1239.71 494.209 Q1241.54 497.751 1245.15 497.751 Q1248.78 497.751 1250.59 494.209 Q1252.42 490.645 1252.42 483.538 Q1252.42 476.409 1250.59 472.867 Q1248.78 469.302 1245.15 469.302 M1245.15 465.598 Q1250.96 465.598 1254.01 470.205 Q1257.09 474.788 1257.09 483.538 Q1257.09 492.265 1254.01 496.871 Q1250.96 501.455 1245.15 501.455 Q1239.34 501.455 1236.26 496.871 Q1233.2 492.265 1233.2 483.538 Q1233.2 474.788 1236.26 470.205 Q1239.34 465.598 1245.15 465.598 Z" fill="#9eb1be" fill-rule="evenodd" fill-opacity="1" /><path clip-path="url(#clip350)" d="M1265.31 494.904 L1270.19 494.904 L1270.19 500.783 L1265.31 500.783 L1265.31 494.904 Z" fill="#9eb1be" fill-rule="evenodd" fill-opacity="1" /><path clip-path="url(#clip350)" d="M1284.41 496.848 L1300.73 496.848 L1300.73 500.783 L1278.78 500.783 L1278.78 496.848 Q1281.44 494.094 1286.03 489.464 Q1290.63 484.811 1291.81 483.469 Q1294.06 480.946 1294.94 479.209 Q1295.84 477.45 1295.84 475.76 Q1295.84 473.006 1293.9 471.27 Q1291.98 469.534 1288.87 469.534 Q1286.67 469.534 1284.22 470.298 Q1281.79 471.061 1279.01 472.612 L1279.01 467.89 Q1281.84 466.756 1284.29 466.177 Q1286.74 465.598 1288.78 465.598 Q1294.15 465.598 1297.35 468.284 Q1300.54 470.969 1300.54 475.46 Q1300.54 477.589 1299.73 479.51 Q1298.94 481.409 1296.84 484.001 Q1296.26 484.672 1293.16 487.89 Q1290.05 491.084 1284.41 496.848 Z" fill="#9eb1be" fill-rule="evenodd" fill-opacity="1" /><path clip-path="url(#clip350)" d="M1310.59 466.223 L1328.94 466.223 L1328.94 470.159 L1314.87 470.159 L1314.87 478.631 Q1315.89 478.284 1316.91 478.122 Q1317.92 477.936 1318.94 477.936 Q1324.73 477.936 1328.11 481.108 Q1331.49 484.279 1331.49 489.696 Q1331.49 495.274 1328.02 498.376 Q1324.54 501.455 1318.23 501.455 Q1316.05 501.455 1313.78 501.084 Q1311.54 500.714 1309.13 499.973 L1309.13 495.274 Q1311.21 496.408 1313.43 496.964 Q1315.66 497.52 1318.13 497.52 Q1322.14 497.52 1324.48 495.413 Q1326.81 493.307 1326.81 489.696 Q1326.81 486.084 1324.48 483.978 Q1322.14 481.872 1318.13 481.872 Q1316.26 481.872 1314.38 482.288 Q1312.53 482.705 1310.59 483.584 L1310.59 466.223 Z" fill="#9eb1be" fill-rule="evenodd" fill-opacity="1" /><path clip-path="url(#clip350)" d="M1244.15 147.846 Q1240.54 147.846 1238.71 151.41 Q1236.91 154.952 1236.91 162.082 Q1236.91 169.188 1238.71 172.753 Q1240.54 176.295 1244.15 176.295 Q1247.79 176.295 1249.59 172.753 Q1251.42 169.188 1251.42 162.082 Q1251.42 154.952 1249.59 151.41 Q1247.79 147.846 1244.15 147.846 M1244.15 144.142 Q1249.96 144.142 1253.02 148.748 Q1256.1 153.332 1256.1 162.082 Q1256.1 170.808 1253.02 175.415 Q1249.96 179.998 1244.15 179.998 Q1238.34 179.998 1235.26 175.415 Q1232.21 170.808 1232.21 162.082 Q1232.21 153.332 1235.26 148.748 Q1238.34 144.142 1244.15 144.142 Z" fill="#9eb1be" fill-rule="evenodd" fill-opacity="1" /><path clip-path="url(#clip350)" d="M1264.31 173.447 L1269.2 173.447 L1269.2 179.327 L1264.31 179.327 L1264.31 173.447 Z" fill="#9eb1be" fill-rule="evenodd" fill-opacity="1" /><path clip-path="url(#clip350)" d="M1289.38 147.846 Q1285.77 147.846 1283.94 151.41 Q1282.14 154.952 1282.14 162.082 Q1282.14 169.188 1283.94 172.753 Q1285.77 176.295 1289.38 176.295 Q1293.02 176.295 1294.82 172.753 Q1296.65 169.188 1296.65 162.082 Q1296.65 154.952 1294.82 151.41 Q1293.02 147.846 1289.38 147.846 M1289.38 144.142 Q1295.19 144.142 1298.25 148.748 Q1301.33 153.332 1301.33 162.082 Q1301.33 170.808 1298.25 175.415 Q1295.19 179.998 1289.38 179.998 Q1283.57 179.998 1280.49 175.415 Q1277.44 170.808 1277.44 162.082 Q1277.44 153.332 1280.49 148.748 Q1283.57 144.142 1289.38 144.142 Z" fill="#9eb1be" fill-rule="evenodd" fill-opacity="1" /><path clip-path="url(#clip350)" d="M1319.54 147.846 Q1315.93 147.846 1314.11 151.41 Q1312.3 154.952 1312.3 162.082 Q1312.3 169.188 1314.11 172.753 Q1315.93 176.295 1319.54 176.295 Q1323.18 176.295 1324.98 172.753 Q1326.81 169.188 1326.81 162.082 Q1326.81 154.952 1324.98 151.41 Q1323.18 147.846 1319.54 147.846 M1319.54 144.142 Q1325.36 144.142 1328.41 148.748 Q1331.49 153.332 1331.49 162.082 Q1331.49 170.808 1328.41 175.415 Q1325.36 179.998 1319.54 179.998 Q1313.73 179.998 1310.66 175.415 Q1307.6 170.808 1307.6 162.082 Q1307.6 153.332 1310.66 148.748 Q1313.73 144.142 1319.54 144.142 Z" fill="#9eb1be" fill-rule="evenodd" fill-opacity="1" /><path clip-path="url(#clip350)" d="M1727.62 63.9476 L1727.62 47.7034 L1714.25 47.7034 L1714.25 40.9789 L1735.72 40.9789 L1735.72 66.9452 Q1730.98 70.3075 1725.27 72.0494 Q1719.56 73.7508 1713.07 73.7508 Q1698.9 73.7508 1690.88 65.4869 Q1682.9 57.1826 1682.9 42.3968 Q1682.9 27.5705 1690.88 19.3066 Q1698.9 11.0023 1713.07 11.0023 Q1718.99 11.0023 1724.3 12.4606 Q1729.64 13.9189 1734.14 16.7545 L1734.14 25.464 Q1729.6 21.6156 1724.5 19.6712 Q1719.39 17.7268 1713.76 17.7268 Q1702.66 17.7268 1697.07 23.9246 Q1691.52 30.1225 1691.52 42.3968 Q1691.52 54.6305 1697.07 60.8284 Q1702.66 67.0263 1713.76 67.0263 Q1718.1 67.0263 1721.5 66.2971 Q1724.9 65.5274 1727.62 63.9476 Z" fill="#adb2b7" fill-rule="evenodd" fill-opacity="1" /><path clip-path="url(#clip350)" d="M1776.63 34.1734 Q1775.38 33.4443 1773.88 33.1202 Q1772.42 32.7556 1770.64 32.7556 Q1764.32 32.7556 1760.92 36.8875 Q1757.55 40.9789 1757.55 48.6757 L1757.55 72.576 L1750.06 72.576 L1750.06 27.2059 L1757.55 27.2059 L1757.55 34.2544 Q1759.9 30.1225 1763.67 28.1376 Q1767.44 26.1121 1772.83 26.1121 Q1773.6 26.1121 1774.53 26.2337 Q1775.46 26.3147 1776.59 26.5172 L1776.63 34.1734 Z" fill="#adb2b7" fill-rule="evenodd" fill-opacity="1" /><path clip-path="url(#clip350)" d="M1805.07 49.7694 Q1796.04 49.7694 1792.55 51.8354 Q1789.07 53.9013 1789.07 58.8839 Q1789.07 62.8538 1791.66 65.2034 Q1794.3 67.5124 1798.79 67.5124 Q1804.99 67.5124 1808.72 63.1374 Q1812.48 58.7219 1812.48 51.4303 L1812.48 49.7694 L1805.07 49.7694 M1819.94 46.6907 L1819.94 72.576 L1812.48 72.576 L1812.48 65.6895 Q1809.93 69.8214 1806.12 71.8063 Q1802.32 73.7508 1796.81 73.7508 Q1789.84 73.7508 1785.71 69.8619 Q1781.62 65.9325 1781.62 59.3701 Q1781.62 51.7138 1786.72 47.825 Q1791.86 43.9361 1802.03 43.9361 L1812.48 43.9361 L1812.48 43.2069 Q1812.48 38.0623 1809.08 35.2672 Q1805.72 32.4315 1799.6 32.4315 Q1795.71 32.4315 1792.03 33.3632 Q1788.34 34.295 1784.94 36.1584 L1784.94 29.2718 Q1789.03 27.692 1792.88 26.9223 Q1796.73 26.1121 1800.37 26.1121 Q1810.22 26.1121 1815.08 31.2163 Q1819.94 36.3204 1819.94 46.6907 Z" fill="#adb2b7" fill-rule="evenodd" fill-opacity="1" /><path clip-path="url(#clip350)" d="M1865.15 34.0924 L1865.15 9.54393 L1872.6 9.54393 L1872.6 72.576 L1865.15 72.576 L1865.15 65.7705 Q1862.8 69.8214 1859.19 71.8063 Q1855.63 73.7508 1850.6 73.7508 Q1842.38 73.7508 1837.19 67.1883 Q1832.05 60.6258 1832.05 49.9314 Q1832.05 39.2371 1837.19 32.6746 Q1842.38 26.1121 1850.6 26.1121 Q1855.63 26.1121 1859.19 28.0971 Q1862.8 30.0415 1865.15 34.0924 M1839.75 49.9314 Q1839.75 58.1548 1843.11 62.8538 Q1846.51 67.5124 1852.43 67.5124 Q1858.34 67.5124 1861.74 62.8538 Q1865.15 58.1548 1865.15 49.9314 Q1865.15 41.7081 1861.74 37.0496 Q1858.34 32.3505 1852.43 32.3505 Q1846.51 32.3505 1843.11 37.0496 Q1839.75 41.7081 1839.75 49.9314 Z" fill="#adb2b7" fill-rule="evenodd" fill-opacity="1" /><path clip-path="url(#clip350)" d="M1887.95 27.2059 L1895.41 27.2059 L1895.41 72.576 L1887.95 72.576 L1887.95 27.2059 M1887.95 9.54393 L1895.41 9.54393 L1895.41 18.9825 L1887.95 18.9825 L1887.95 9.54393 Z" fill="#adb2b7" fill-rule="evenodd" fill-opacity="1" /><path clip-path="url(#clip350)" d="M1949.81 48.0275 L1949.81 51.6733 L1915.54 51.6733 Q1916.03 59.3701 1920.16 63.421 Q1924.33 67.4314 1931.74 67.4314 Q1936.04 67.4314 1940.05 66.3781 Q1944.1 65.3249 1948.07 63.2184 L1948.07 70.267 Q1944.06 71.9684 1939.84 72.8596 Q1935.63 73.7508 1931.3 73.7508 Q1920.44 73.7508 1914.08 67.4314 Q1907.76 61.1119 1907.76 50.3365 Q1907.76 39.1965 1913.76 32.6746 Q1919.79 26.1121 1930 26.1121 Q1939.16 26.1121 1944.46 32.0264 Q1949.81 37.9003 1949.81 48.0275 M1942.36 45.84 Q1942.27 39.7232 1938.91 36.0774 Q1935.59 32.4315 1930.08 32.4315 Q1923.84 32.4315 1920.08 35.9558 Q1916.35 39.4801 1915.78 45.8805 L1942.36 45.84 Z" fill="#adb2b7" fill-rule="evenodd" fill-opacity="1" /><path clip-path="url(#clip350)" d="M1999.76 45.1919 L1999.76 72.576 L1992.3 72.576 L1992.3 45.4349 Q1992.3 38.994 1989.79 35.7938 Q1987.28 32.5936 1982.26 32.5936 Q1976.22 32.5936 1972.74 36.4419 Q1969.25 40.2903 1969.25 46.9338 L1969.25 72.576 L1961.76 72.576 L1961.76 27.2059 L1969.25 27.2059 L1969.25 34.2544 Q1971.93 30.163 1975.53 28.1376 Q1979.18 26.1121 1983.92 26.1121 Q1991.74 26.1121 1995.75 30.9732 Q1999.76 35.7938 1999.76 45.1919 Z" fill="#adb2b7" fill-rule="evenodd" fill-opacity="1" /><path clip-path="url(#clip350)" d="M2022 14.324 L2022 27.2059 L2037.35 27.2059 L2037.35 32.9987 L2022 32.9987 L2022 57.6282 Q2022 63.1779 2023.5 64.7578 Q2025.03 66.3376 2029.69 66.3376 L2037.35 66.3376 L2037.35 72.576 L2029.69 72.576 Q2021.07 72.576 2017.78 69.3758 Q2014.5 66.1351 2014.5 57.6282 L2014.5 32.9987 L2009.03 32.9987 L2009.03 27.2059 L2014.5 27.2059 L2014.5 14.324 L2022 14.324 Z" fill="#adb2b7" fill-rule="evenodd" fill-opacity="1" /><polyline clip-path="url(#clip353)" style="stroke:#fe4365; stroke-linecap:butt; stroke-linejoin:round; stroke-width:4; stroke-opacity:1; fill:none" points="
  1395.37,1447.87 1418.61,1447.87 1441.85,1447.87 1465.09,1447.87 1488.32,1447.87 1511.56,1447.87 1534.8,1447.87 1558.04,1447.87 1581.27,1447.87 1604.51,1447.87 
  1627.75,1447.87 1650.99,1447.87 1674.22,1447.87 1697.46,1447.87 1720.7,1447.87 1743.94,1447.87 1767.17,1447.87 1790.41,1447.87 1813.65,1447.87 1836.89,1447.87 
  1860.12,1447.87 1883.36,1447.87 1906.6,1447.87 1929.83,1447.87 1953.07,1447.87 1976.31,1447.87 1999.55,1447.87 2022.78,1447.87 2046.02,1447.87 2069.26,1447.87 
  2092.5,1447.87 2115.73,162.047 2138.97,162.047 2162.21,162.047 2185.45,162.047 2208.68,162.047 2231.92,162.047 2255.16,162.047 2278.4,162.047 2301.63,162.047 
  2324.87,162.047 
  "/>
</svg>
