<?xml version="1.0" encoding="utf-8"?>
<svg xmlns="http://www.w3.org/2000/svg" xmlns:xlink="http://www.w3.org/1999/xlink" width="800" height="350" viewBox="0 0 3200 1400">
<defs>
  <clipPath id="clip700">
    <rect x="0" y="0" width="3200" height="1400"/>
  </clipPath>
</defs>
<path clip-path="url(#clip700)" d="M0 1400 L3200 1400 L3200 0 L0 0  Z" fill="#ffffff" fill-rule="evenodd" fill-opacity="1"/>
<defs>
  <clipPath id="clip701">
    <rect x="640" y="0" width="2241" height="1400"/>
  </clipPath>
</defs>
<defs>
  <clipPath id="clip702">
    <rect x="192" y="102" width="1357" height="1199"/>
  </clipPath>
</defs>
<path clip-path="url(#clip702)" d="M289.214 1018.37 L289.214 904.035 L345.668 846.865 L443.448 879.872 L443.448 994.211 L386.994 1051.38 L289.214 1018.37  Z" fill="#ffffff" fill-rule="evenodd" fill-opacity="1"/>
<polyline clip-path="url(#clip702)" style="stroke:#000000; stroke-linecap:round; stroke-linejoin:round; stroke-width:2; stroke-opacity:0.1; fill:none" points="474.68,1086.39 820.41,786.983 820.41,188.16 "/>
<polyline clip-path="url(#clip702)" style="stroke:#000000; stroke-linecap:round; stroke-linejoin:round; stroke-width:2; stroke-opacity:0.1; fill:none" points="596.905,1121.68 942.636,822.266 942.636,223.443 "/>
<polyline clip-path="url(#clip702)" style="stroke:#000000; stroke-linecap:round; stroke-linejoin:round; stroke-width:2; stroke-opacity:0.1; fill:none" points="719.13,1156.96 1064.86,857.55 1064.86,258.727 "/>
<polyline clip-path="url(#clip702)" style="stroke:#000000; stroke-linecap:round; stroke-linejoin:round; stroke-width:2; stroke-opacity:0.1; fill:none" points="841.355,1192.24 1187.09,892.833 1187.09,294.01 "/>
<polyline clip-path="url(#clip702)" style="stroke:#000000; stroke-linecap:round; stroke-linejoin:round; stroke-width:2; stroke-opacity:0.1; fill:none" points="963.581,1227.53 1309.31,928.116 1309.31,329.294 "/>
<polyline clip-path="url(#clip700)" style="stroke:#000000; stroke-linecap:round; stroke-linejoin:round; stroke-width:4; stroke-opacity:1; fill:none" points="397.76,1064.19 996.583,1237.05 "/>
<polyline clip-path="url(#clip700)" style="stroke:#000000; stroke-linecap:round; stroke-linejoin:round; stroke-width:4; stroke-opacity:1; fill:none" points="474.68,1086.39 478.828,1082.8 "/>
<polyline clip-path="url(#clip700)" style="stroke:#000000; stroke-linecap:round; stroke-linejoin:round; stroke-width:4; stroke-opacity:1; fill:none" points="596.905,1121.68 601.054,1118.08 "/>
<polyline clip-path="url(#clip700)" style="stroke:#000000; stroke-linecap:round; stroke-linejoin:round; stroke-width:4; stroke-opacity:1; fill:none" points="719.13,1156.96 723.279,1153.37 "/>
<polyline clip-path="url(#clip700)" style="stroke:#000000; stroke-linecap:round; stroke-linejoin:round; stroke-width:4; stroke-opacity:1; fill:none" points="841.355,1192.24 845.504,1188.65 "/>
<polyline clip-path="url(#clip700)" style="stroke:#000000; stroke-linecap:round; stroke-linejoin:round; stroke-width:4; stroke-opacity:1; fill:none" points="963.581,1227.53 967.729,1223.93 "/>
<path clip-path="url(#clip700)" d="M405.223 1108.58 Q401.612 1108.58 399.783 1112.14 Q397.977 1115.68 397.977 1122.81 Q397.977 1129.92 399.783 1133.48 Q401.612 1137.02 405.223 1137.02 Q408.857 1137.02 410.662 1133.48 Q412.491 1129.92 412.491 1122.81 Q412.491 1115.68 410.662 1112.14 Q408.857 1108.58 405.223 1108.58 M405.223 1104.87 Q411.033 1104.87 414.088 1109.48 Q417.167 1114.06 417.167 1122.81 Q417.167 1131.54 414.088 1136.15 Q411.033 1140.73 405.223 1140.73 Q399.412 1140.73 396.334 1136.15 Q393.278 1131.54 393.278 1122.81 Q393.278 1114.06 396.334 1109.48 Q399.412 1104.87 405.223 1104.87 Z" fill="#000000" fill-rule="nonzero" fill-opacity="1" /><path clip-path="url(#clip700)" d="M425.385 1134.18 L430.269 1134.18 L430.269 1140.06 L425.385 1140.06 L425.385 1134.18 Z" fill="#000000" fill-rule="nonzero" fill-opacity="1" /><path clip-path="url(#clip700)" d="M450.454 1108.58 Q446.843 1108.58 445.014 1112.14 Q443.209 1115.68 443.209 1122.81 Q443.209 1129.92 445.014 1133.48 Q446.843 1137.02 450.454 1137.02 Q454.088 1137.02 455.894 1133.48 Q457.722 1129.92 457.722 1122.81 Q457.722 1115.68 455.894 1112.14 Q454.088 1108.58 450.454 1108.58 M450.454 1104.87 Q456.264 1104.87 459.32 1109.48 Q462.398 1114.06 462.398 1122.81 Q462.398 1131.54 459.32 1136.15 Q456.264 1140.73 450.454 1140.73 Q444.644 1140.73 441.565 1136.15 Q438.509 1131.54 438.509 1122.81 Q438.509 1114.06 441.565 1109.48 Q444.644 1104.87 450.454 1104.87 Z" fill="#000000" fill-rule="nonzero" fill-opacity="1" /><path clip-path="url(#clip700)" d="M522.471 1171.41 L538.79 1171.41 L538.79 1175.34 L516.846 1175.34 L516.846 1171.41 Q519.508 1168.65 524.091 1164.02 Q528.698 1159.37 529.878 1158.03 Q532.124 1155.5 533.003 1153.77 Q533.906 1152.01 533.906 1150.32 Q533.906 1147.56 531.962 1145.83 Q530.04 1144.09 526.939 1144.09 Q524.74 1144.09 522.286 1144.85 Q519.855 1145.62 517.078 1147.17 L517.078 1142.45 Q519.902 1141.31 522.355 1140.73 Q524.809 1140.16 526.846 1140.16 Q532.216 1140.16 535.411 1142.84 Q538.605 1145.53 538.605 1150.02 Q538.605 1152.15 537.795 1154.07 Q537.008 1155.97 534.902 1158.56 Q534.323 1159.23 531.221 1162.45 Q528.119 1165.64 522.471 1171.41 Z" fill="#000000" fill-rule="nonzero" fill-opacity="1" /><path clip-path="url(#clip700)" d="M548.605 1169.46 L553.489 1169.46 L553.489 1175.34 L548.605 1175.34 L548.605 1169.46 Z" fill="#000000" fill-rule="nonzero" fill-opacity="1" /><path clip-path="url(#clip700)" d="M563.721 1140.78 L582.077 1140.78 L582.077 1144.72 L568.003 1144.72 L568.003 1153.19 Q569.022 1152.84 570.04 1152.68 Q571.059 1152.49 572.077 1152.49 Q577.864 1152.49 581.244 1155.66 Q584.623 1158.84 584.623 1164.25 Q584.623 1169.83 581.151 1172.93 Q577.679 1176.01 571.36 1176.01 Q569.184 1176.01 566.915 1175.64 Q564.67 1175.27 562.262 1174.53 L562.262 1169.83 Q564.346 1170.97 566.568 1171.52 Q568.79 1172.08 571.267 1172.08 Q575.272 1172.08 577.61 1169.97 Q579.948 1167.86 579.948 1164.25 Q579.948 1160.64 577.61 1158.54 Q575.272 1156.43 571.267 1156.43 Q569.392 1156.43 567.517 1156.85 Q565.665 1157.26 563.721 1158.14 L563.721 1140.78 Z" fill="#000000" fill-rule="nonzero" fill-opacity="1" /><path clip-path="url(#clip700)" d="M639.719 1176.06 L658.076 1176.06 L658.076 1180 L644.002 1180 L644.002 1188.47 Q645.02 1188.12 646.039 1187.96 Q647.057 1187.78 648.076 1187.78 Q653.863 1187.78 657.242 1190.95 Q660.622 1194.12 660.622 1199.54 Q660.622 1205.11 657.15 1208.22 Q653.678 1211.3 647.358 1211.3 Q645.182 1211.3 642.914 1210.92 Q640.669 1210.55 638.261 1209.81 L638.261 1205.11 Q640.344 1206.25 642.567 1206.8 Q644.789 1207.36 647.266 1207.36 Q651.27 1207.36 653.608 1205.25 Q655.946 1203.15 655.946 1199.54 Q655.946 1195.93 653.608 1193.82 Q651.27 1191.71 647.266 1191.71 Q645.391 1191.71 643.516 1192.13 Q641.664 1192.55 639.719 1193.43 L639.719 1176.06 Z" fill="#000000" fill-rule="nonzero" fill-opacity="1" /><path clip-path="url(#clip700)" d="M669.835 1204.74 L674.719 1204.74 L674.719 1210.62 L669.835 1210.62 L669.835 1204.74 Z" fill="#000000" fill-rule="nonzero" fill-opacity="1" /><path clip-path="url(#clip700)" d="M694.904 1179.14 Q691.293 1179.14 689.465 1182.71 Q687.659 1186.25 687.659 1193.38 Q687.659 1200.49 689.465 1204.05 Q691.293 1207.59 694.904 1207.59 Q698.539 1207.59 700.344 1204.05 Q702.173 1200.49 702.173 1193.38 Q702.173 1186.25 700.344 1182.71 Q698.539 1179.14 694.904 1179.14 M694.904 1175.44 Q700.714 1175.44 703.77 1180.05 Q706.849 1184.63 706.849 1193.38 Q706.849 1202.11 703.77 1206.71 Q700.714 1211.3 694.904 1211.3 Q689.094 1211.3 686.015 1206.71 Q682.96 1202.11 682.96 1193.38 Q682.96 1184.63 686.015 1180.05 Q689.094 1175.44 694.904 1175.44 Z" fill="#000000" fill-rule="nonzero" fill-opacity="1" /><path clip-path="url(#clip700)" d="M761.713 1211.35 L783.935 1211.35 L783.935 1213.34 L771.389 1245.91 L766.505 1245.91 L778.31 1215.28 L761.713 1215.28 L761.713 1211.35 Z" fill="#000000" fill-rule="nonzero" fill-opacity="1" /><path clip-path="url(#clip700)" d="M793.056 1240.03 L797.94 1240.03 L797.94 1245.91 L793.056 1245.91 L793.056 1240.03 Z" fill="#000000" fill-rule="nonzero" fill-opacity="1" /><path clip-path="url(#clip700)" d="M808.171 1211.35 L826.528 1211.35 L826.528 1215.28 L812.454 1215.28 L812.454 1223.75 Q813.472 1223.41 814.491 1223.25 Q815.509 1223.06 816.528 1223.06 Q822.315 1223.06 825.694 1226.23 Q829.074 1229.4 829.074 1234.82 Q829.074 1240.4 825.602 1243.5 Q822.13 1246.58 815.81 1246.58 Q813.634 1246.58 811.366 1246.21 Q809.12 1245.84 806.713 1245.1 L806.713 1240.4 Q808.796 1241.53 811.019 1242.09 Q813.241 1242.64 815.718 1242.64 Q819.722 1242.64 822.06 1240.54 Q824.398 1238.43 824.398 1234.82 Q824.398 1231.21 822.06 1229.1 Q819.722 1227 815.718 1227 Q813.843 1227 811.968 1227.41 Q810.116 1227.83 808.171 1228.71 L808.171 1211.35 Z" fill="#000000" fill-rule="nonzero" fill-opacity="1" /><path clip-path="url(#clip700)" d="M854.772 1277.26 L862.411 1277.26 L862.411 1250.89 L854.101 1252.56 L854.101 1248.3 L862.364 1246.63 L867.04 1246.63 L867.04 1277.26 L874.679 1277.26 L874.679 1281.19 L854.772 1281.19 L854.772 1277.26 Z" fill="#000000" fill-rule="nonzero" fill-opacity="1" /><path clip-path="url(#clip700)" d="M894.124 1249.71 Q890.512 1249.71 888.684 1253.27 Q886.878 1256.82 886.878 1263.95 Q886.878 1271.05 888.684 1274.62 Q890.512 1278.16 894.124 1278.16 Q897.758 1278.16 899.563 1274.62 Q901.392 1271.05 901.392 1263.95 Q901.392 1256.82 899.563 1253.27 Q897.758 1249.71 894.124 1249.71 M894.124 1246.01 Q899.934 1246.01 902.989 1250.61 Q906.068 1255.2 906.068 1263.95 Q906.068 1272.67 902.989 1277.28 Q899.934 1281.86 894.124 1281.86 Q888.313 1281.86 885.235 1277.28 Q882.179 1272.67 882.179 1263.95 Q882.179 1255.2 885.235 1250.61 Q888.313 1246.01 894.124 1246.01 Z" fill="#000000" fill-rule="nonzero" fill-opacity="1" /><path clip-path="url(#clip700)" d="M914.286 1275.31 L919.17 1275.31 L919.17 1281.19 L914.286 1281.19 L914.286 1275.31 Z" fill="#000000" fill-rule="nonzero" fill-opacity="1" /><path clip-path="url(#clip700)" d="M939.355 1249.71 Q935.744 1249.71 933.915 1253.27 Q932.109 1256.82 932.109 1263.95 Q932.109 1271.05 933.915 1274.62 Q935.744 1278.16 939.355 1278.16 Q942.989 1278.16 944.795 1274.62 Q946.623 1271.05 946.623 1263.95 Q946.623 1256.82 944.795 1253.27 Q942.989 1249.71 939.355 1249.71 M939.355 1246.01 Q945.165 1246.01 948.221 1250.61 Q951.299 1255.2 951.299 1263.95 Q951.299 1272.67 948.221 1277.28 Q945.165 1281.86 939.355 1281.86 Q933.545 1281.86 930.466 1277.28 Q927.41 1272.67 927.41 1263.95 Q927.41 1255.2 930.466 1250.61 Q933.545 1246.01 939.355 1246.01 Z" fill="#000000" fill-rule="nonzero" fill-opacity="1" /><polyline clip-path="url(#clip702)" style="stroke:#000000; stroke-linecap:round; stroke-linejoin:round; stroke-width:2; stroke-opacity:0.1; fill:none" points="1031.95,1206.42 433.131,1033.56 433.131,434.735 "/>
<polyline clip-path="url(#clip702)" style="stroke:#000000; stroke-linecap:round; stroke-linejoin:round; stroke-width:2; stroke-opacity:0.1; fill:none" points="1097.97,1149.25 499.144,976.388 499.144,377.565 "/>
<polyline clip-path="url(#clip702)" style="stroke:#000000; stroke-linecap:round; stroke-linejoin:round; stroke-width:2; stroke-opacity:0.1; fill:none" points="1163.98,1092.08 565.158,919.219 565.158,320.396 "/>
<polyline clip-path="url(#clip702)" style="stroke:#000000; stroke-linecap:round; stroke-linejoin:round; stroke-width:2; stroke-opacity:0.1; fill:none" points="1229.99,1034.91 631.172,862.049 631.172,263.226 "/>
<polyline clip-path="url(#clip702)" style="stroke:#000000; stroke-linecap:round; stroke-linejoin:round; stroke-width:2; stroke-opacity:0.1; fill:none" points="1296.01,977.745 697.185,804.88 697.185,206.057 "/>
<polyline clip-path="url(#clip700)" style="stroke:#000000; stroke-linecap:round; stroke-linejoin:round; stroke-width:4; stroke-opacity:1; fill:none" points="996.583,1237.05 1342.31,937.643 "/>
<polyline clip-path="url(#clip700)" style="stroke:#000000; stroke-linecap:round; stroke-linejoin:round; stroke-width:4; stroke-opacity:1; fill:none" points="1031.95,1206.42 1024.77,1204.35 "/>
<polyline clip-path="url(#clip700)" style="stroke:#000000; stroke-linecap:round; stroke-linejoin:round; stroke-width:4; stroke-opacity:1; fill:none" points="1097.97,1149.25 1090.78,1147.18 "/>
<polyline clip-path="url(#clip700)" style="stroke:#000000; stroke-linecap:round; stroke-linejoin:round; stroke-width:4; stroke-opacity:1; fill:none" points="1163.98,1092.08 1156.8,1090.01 "/>
<polyline clip-path="url(#clip700)" style="stroke:#000000; stroke-linecap:round; stroke-linejoin:round; stroke-width:4; stroke-opacity:1; fill:none" points="1229.99,1034.91 1222.81,1032.84 "/>
<polyline clip-path="url(#clip700)" style="stroke:#000000; stroke-linecap:round; stroke-linejoin:round; stroke-width:4; stroke-opacity:1; fill:none" points="1296.01,977.745 1288.82,975.671 "/>
<path clip-path="url(#clip700)" d="M1059.28 1233.86 L1088.95 1233.86 L1088.95 1237.79 L1059.28 1237.79 L1059.28 1233.86 Z" fill="#000000" fill-rule="nonzero" fill-opacity="1" /><path clip-path="url(#clip700)" d="M1103.07 1246.75 L1119.39 1246.75 L1119.39 1250.68 L1097.45 1250.68 L1097.45 1246.75 Q1100.11 1243.99 1104.69 1239.36 Q1109.3 1234.71 1110.48 1233.37 Q1112.73 1230.85 1113.61 1229.11 Q1114.51 1227.35 1114.51 1225.66 Q1114.51 1222.91 1112.56 1221.17 Q1110.64 1219.43 1107.54 1219.43 Q1105.34 1219.43 1102.89 1220.2 Q1100.46 1220.96 1097.68 1222.51 L1097.68 1217.79 Q1100.5 1216.66 1102.96 1216.08 Q1105.41 1215.5 1107.45 1215.5 Q1112.82 1215.5 1116.01 1218.18 Q1119.21 1220.87 1119.21 1225.36 Q1119.21 1227.49 1118.4 1229.41 Q1117.61 1231.31 1115.5 1233.9 Q1114.93 1234.57 1111.82 1237.79 Q1108.72 1240.99 1103.07 1246.75 Z" fill="#000000" fill-rule="nonzero" fill-opacity="1" /><path clip-path="url(#clip700)" d="M1137.24 1162.03 Q1133.62 1162.03 1131.8 1165.6 Q1129.99 1169.14 1129.99 1176.27 Q1129.99 1183.38 1131.8 1186.94 Q1133.62 1190.48 1137.24 1190.48 Q1140.87 1190.48 1142.67 1186.94 Q1144.5 1183.38 1144.5 1176.27 Q1144.5 1169.14 1142.67 1165.6 Q1140.87 1162.03 1137.24 1162.03 M1137.24 1158.33 Q1143.05 1158.33 1146.1 1162.94 Q1149.18 1167.52 1149.18 1176.27 Q1149.18 1185 1146.1 1189.6 Q1143.05 1194.19 1137.24 1194.19 Q1131.43 1194.19 1128.35 1189.6 Q1125.29 1185 1125.29 1176.27 Q1125.29 1167.52 1128.35 1162.94 Q1131.43 1158.33 1137.24 1158.33 Z" fill="#000000" fill-rule="nonzero" fill-opacity="1" /><path clip-path="url(#clip700)" d="M1196.93 1132.41 L1213.25 1132.41 L1213.25 1136.35 L1191.3 1136.35 L1191.3 1132.41 Q1193.97 1129.66 1198.55 1125.03 Q1203.16 1120.37 1204.34 1119.03 Q1206.58 1116.51 1207.46 1114.77 Q1208.36 1113.01 1208.36 1111.32 Q1208.36 1108.57 1206.42 1106.83 Q1204.5 1105.1 1201.4 1105.1 Q1199.2 1105.1 1196.74 1105.86 Q1194.31 1106.62 1191.54 1108.17 L1191.54 1103.45 Q1194.36 1102.32 1196.81 1101.74 Q1199.27 1101.16 1201.3 1101.16 Q1206.67 1101.16 1209.87 1103.85 Q1213.06 1106.53 1213.06 1111.02 Q1213.06 1113.15 1212.25 1115.07 Q1211.47 1116.97 1209.36 1119.56 Q1208.78 1120.23 1205.68 1123.45 Q1202.58 1126.65 1196.93 1132.41 Z" fill="#000000" fill-rule="nonzero" fill-opacity="1" /><path clip-path="url(#clip700)" d="M1272.92 1048.69 L1261.11 1067.14 L1272.92 1067.14 L1272.92 1048.69 M1271.69 1044.62 L1277.57 1044.62 L1277.57 1067.14 L1282.5 1067.14 L1282.5 1071.03 L1277.57 1071.03 L1277.57 1079.18 L1272.92 1079.18 L1272.92 1071.03 L1257.32 1071.03 L1257.32 1066.51 L1271.69 1044.62 Z" fill="#000000" fill-rule="nonzero" fill-opacity="1" /><path clip-path="url(#clip700)" d="M1335.67 1002.86 Q1332.52 1002.86 1330.67 1005.02 Q1328.84 1007.17 1328.84 1010.92 Q1328.84 1014.65 1330.67 1016.82 Q1332.52 1018.97 1335.67 1018.97 Q1338.82 1018.97 1340.65 1016.82 Q1342.5 1014.65 1342.5 1010.92 Q1342.5 1007.17 1340.65 1005.02 Q1338.82 1002.86 1335.67 1002.86 M1344.95 988.21 L1344.95 992.47 Q1343.19 991.636 1341.39 991.196 Q1339.6 990.757 1337.85 990.757 Q1333.22 990.757 1330.76 993.882 Q1328.33 997.007 1327.98 1003.33 Q1329.35 1001.31 1331.41 1000.25 Q1333.47 999.159 1335.95 999.159 Q1341.16 999.159 1344.16 1002.33 Q1347.2 1005.48 1347.2 1010.92 Q1347.2 1016.24 1344.05 1019.46 Q1340.9 1022.68 1335.67 1022.68 Q1329.67 1022.68 1326.5 1018.09 Q1323.33 1013.49 1323.33 1004.76 Q1323.33 996.567 1327.22 991.706 Q1331.11 986.821 1337.66 986.821 Q1339.42 986.821 1341.2 987.169 Q1343.01 987.516 1344.95 988.21 Z" fill="#000000" fill-rule="nonzero" fill-opacity="1" /><polyline clip-path="url(#clip702)" style="stroke:#000000; stroke-linecap:round; stroke-linejoin:round; stroke-width:2; stroke-opacity:0.1; fill:none" points="397.76,1051.07 743.491,751.656 1342.31,924.522 "/>
<polyline clip-path="url(#clip702)" style="stroke:#000000; stroke-linecap:round; stroke-linejoin:round; stroke-width:2; stroke-opacity:0.1; fill:none" points="397.76,912.859 743.491,613.447 1342.31,786.313 "/>
<polyline clip-path="url(#clip702)" style="stroke:#000000; stroke-linecap:round; stroke-linejoin:round; stroke-width:2; stroke-opacity:0.1; fill:none" points="397.76,774.65 743.491,475.238 1342.31,648.104 "/>
<polyline clip-path="url(#clip702)" style="stroke:#000000; stroke-linecap:round; stroke-linejoin:round; stroke-width:2; stroke-opacity:0.1; fill:none" points="397.76,636.441 743.491,337.029 1342.31,509.895 "/>
<polyline clip-path="url(#clip702)" style="stroke:#000000; stroke-linecap:round; stroke-linejoin:round; stroke-width:2; stroke-opacity:0.1; fill:none" points="397.76,498.232 743.491,198.82 1342.31,371.686 "/>
<polyline clip-path="url(#clip700)" style="stroke:#000000; stroke-linecap:round; stroke-linejoin:round; stroke-width:4; stroke-opacity:1; fill:none" points="397.76,1064.19 397.76,465.367 "/>
<polyline clip-path="url(#clip700)" style="stroke:#000000; stroke-linecap:round; stroke-linejoin:round; stroke-width:4; stroke-opacity:1; fill:none" points="397.76,1051.07 401.909,1047.47 "/>
<polyline clip-path="url(#clip700)" style="stroke:#000000; stroke-linecap:round; stroke-linejoin:round; stroke-width:4; stroke-opacity:1; fill:none" points="397.76,912.859 401.909,909.266 "/>
<polyline clip-path="url(#clip700)" style="stroke:#000000; stroke-linecap:round; stroke-linejoin:round; stroke-width:4; stroke-opacity:1; fill:none" points="397.76,774.65 401.909,771.057 "/>
<polyline clip-path="url(#clip700)" style="stroke:#000000; stroke-linecap:round; stroke-linejoin:round; stroke-width:4; stroke-opacity:1; fill:none" points="397.76,636.441 401.909,632.848 "/>
<polyline clip-path="url(#clip700)" style="stroke:#000000; stroke-linecap:round; stroke-linejoin:round; stroke-width:4; stroke-opacity:1; fill:none" points="397.76,498.232 401.909,494.639 "/>
<path clip-path="url(#clip700)" d="M302.185 1036.87 Q298.574 1036.87 296.745 1040.43 Q294.939 1043.97 294.939 1051.1 Q294.939 1058.21 296.745 1061.77 Q298.574 1065.32 302.185 1065.32 Q305.819 1065.32 307.624 1061.77 Q309.453 1058.21 309.453 1051.1 Q309.453 1043.97 307.624 1040.43 Q305.819 1036.87 302.185 1036.87 M302.185 1033.16 Q307.995 1033.16 311.05 1037.77 Q314.129 1042.35 314.129 1051.1 Q314.129 1059.83 311.05 1064.44 Q307.995 1069.02 302.185 1069.02 Q296.374 1069.02 293.296 1064.44 Q290.24 1059.83 290.24 1051.1 Q290.24 1042.35 293.296 1037.77 Q296.374 1033.16 302.185 1033.16 Z" fill="#000000" fill-rule="nonzero" fill-opacity="1" /><path clip-path="url(#clip700)" d="M322.347 1062.47 L327.231 1062.47 L327.231 1068.35 L322.347 1068.35 L322.347 1062.47 Z" fill="#000000" fill-rule="nonzero" fill-opacity="1" /><path clip-path="url(#clip700)" d="M347.416 1036.87 Q343.805 1036.87 341.976 1040.43 Q340.171 1043.97 340.171 1051.1 Q340.171 1058.21 341.976 1061.77 Q343.805 1065.32 347.416 1065.32 Q351.05 1065.32 352.856 1061.77 Q354.684 1058.21 354.684 1051.1 Q354.684 1043.97 352.856 1040.43 Q351.05 1036.87 347.416 1036.87 M347.416 1033.16 Q353.226 1033.16 356.282 1037.77 Q359.36 1042.35 359.36 1051.1 Q359.36 1059.83 356.282 1064.44 Q353.226 1069.02 347.416 1069.02 Q341.606 1069.02 338.527 1064.44 Q335.471 1059.83 335.471 1051.1 Q335.471 1042.35 338.527 1037.77 Q341.606 1033.16 347.416 1033.16 Z" fill="#000000" fill-rule="nonzero" fill-opacity="1" /><path clip-path="url(#clip700)" d="M297.208 926.204 L313.527 926.204 L313.527 930.139 L291.583 930.139 L291.583 926.204 Q294.245 923.449 298.828 918.819 Q303.435 914.167 304.615 912.824 Q306.861 910.301 307.74 908.565 Q308.643 906.806 308.643 905.116 Q308.643 902.361 306.698 900.625 Q304.777 898.889 301.675 898.889 Q299.476 898.889 297.023 899.653 Q294.592 900.417 291.814 901.968 L291.814 897.245 Q294.638 896.111 297.092 895.532 Q299.546 894.954 301.583 894.954 Q306.953 894.954 310.148 897.639 Q313.342 900.324 313.342 904.815 Q313.342 906.944 312.532 908.866 Q311.745 910.764 309.638 913.356 Q309.06 914.028 305.958 917.245 Q302.856 920.44 297.208 926.204 Z" fill="#000000" fill-rule="nonzero" fill-opacity="1" /><path clip-path="url(#clip700)" d="M323.342 924.259 L328.226 924.259 L328.226 930.139 L323.342 930.139 L323.342 924.259 Z" fill="#000000" fill-rule="nonzero" fill-opacity="1" /><path clip-path="url(#clip700)" d="M338.458 895.579 L356.814 895.579 L356.814 899.514 L342.74 899.514 L342.74 907.986 Q343.758 907.639 344.777 907.477 Q345.796 907.292 346.814 907.292 Q352.601 907.292 355.981 910.463 Q359.36 913.634 359.36 919.051 Q359.36 924.629 355.888 927.731 Q352.416 930.81 346.096 930.81 Q343.921 930.81 341.652 930.44 Q339.407 930.069 336.999 929.329 L336.999 924.629 Q339.083 925.764 341.305 926.319 Q343.527 926.875 346.004 926.875 Q350.008 926.875 352.346 924.768 Q354.684 922.662 354.684 919.051 Q354.684 915.44 352.346 913.333 Q350.008 911.227 346.004 911.227 Q344.129 911.227 342.254 911.643 Q340.402 912.06 338.458 912.94 L338.458 895.579 Z" fill="#000000" fill-rule="nonzero" fill-opacity="1" /><path clip-path="url(#clip700)" d="M292.231 757.37 L310.587 757.37 L310.587 761.305 L296.513 761.305 L296.513 769.777 Q297.532 769.43 298.55 769.268 Q299.569 769.083 300.587 769.083 Q306.374 769.083 309.754 772.254 Q313.134 775.425 313.134 780.842 Q313.134 786.42 309.661 789.522 Q306.189 792.601 299.87 792.601 Q297.694 792.601 295.425 792.231 Q293.18 791.86 290.773 791.12 L290.773 786.42 Q292.856 787.555 295.078 788.11 Q297.3 788.666 299.777 788.666 Q303.782 788.666 306.12 786.559 Q308.458 784.453 308.458 780.842 Q308.458 777.231 306.12 775.124 Q303.782 773.018 299.777 773.018 Q297.902 773.018 296.027 773.434 Q294.175 773.851 292.231 774.731 L292.231 757.37 Z" fill="#000000" fill-rule="nonzero" fill-opacity="1" /><path clip-path="url(#clip700)" d="M322.347 786.05 L327.231 786.05 L327.231 791.93 L322.347 791.93 L322.347 786.05 Z" fill="#000000" fill-rule="nonzero" fill-opacity="1" /><path clip-path="url(#clip700)" d="M347.416 760.448 Q343.805 760.448 341.976 764.013 Q340.171 767.555 340.171 774.684 Q340.171 781.791 341.976 785.356 Q343.805 788.897 347.416 788.897 Q351.05 788.897 352.856 785.356 Q354.684 781.791 354.684 774.684 Q354.684 767.555 352.856 764.013 Q351.05 760.448 347.416 760.448 M347.416 756.745 Q353.226 756.745 356.282 761.351 Q359.36 765.934 359.36 774.684 Q359.36 783.411 356.282 788.018 Q353.226 792.601 347.416 792.601 Q341.606 792.601 338.527 788.018 Q335.471 783.411 335.471 774.684 Q335.471 765.934 338.527 761.351 Q341.606 756.745 347.416 756.745 Z" fill="#000000" fill-rule="nonzero" fill-opacity="1" /><path clip-path="url(#clip700)" d="M292 619.161 L314.222 619.161 L314.222 621.151 L301.675 653.721 L296.791 653.721 L308.597 623.096 L292 623.096 L292 619.161 Z" fill="#000000" fill-rule="nonzero" fill-opacity="1" /><path clip-path="url(#clip700)" d="M323.342 647.841 L328.226 647.841 L328.226 653.721 L323.342 653.721 L323.342 647.841 Z" fill="#000000" fill-rule="nonzero" fill-opacity="1" /><path clip-path="url(#clip700)" d="M338.458 619.161 L356.814 619.161 L356.814 623.096 L342.74 623.096 L342.74 631.568 Q343.758 631.221 344.777 631.059 Q345.796 630.874 346.814 630.874 Q352.601 630.874 355.981 634.045 Q359.36 637.216 359.36 642.633 Q359.36 648.211 355.888 651.313 Q352.416 654.392 346.096 654.392 Q343.921 654.392 341.652 654.022 Q339.407 653.651 336.999 652.91 L336.999 648.211 Q339.083 649.346 341.305 649.901 Q343.527 650.457 346.004 650.457 Q350.008 650.457 352.346 648.35 Q354.684 646.244 354.684 642.633 Q354.684 639.022 352.346 636.915 Q350.008 634.809 346.004 634.809 Q344.129 634.809 342.254 635.225 Q340.402 635.642 338.458 636.522 L338.458 619.161 Z" fill="#000000" fill-rule="nonzero" fill-opacity="1" /><path clip-path="url(#clip700)" d="M262.833 511.577 L270.472 511.577 L270.472 485.211 L262.162 486.878 L262.162 482.618 L270.426 480.952 L275.101 480.952 L275.101 511.577 L282.74 511.577 L282.74 515.512 L262.833 515.512 L262.833 511.577 Z" fill="#000000" fill-rule="nonzero" fill-opacity="1" /><path clip-path="url(#clip700)" d="M302.185 484.03 Q298.574 484.03 296.745 487.595 Q294.939 491.137 294.939 498.266 Q294.939 505.373 296.745 508.938 Q298.574 512.479 302.185 512.479 Q305.819 512.479 307.624 508.938 Q309.453 505.373 309.453 498.266 Q309.453 491.137 307.624 487.595 Q305.819 484.03 302.185 484.03 M302.185 480.327 Q307.995 480.327 311.05 484.933 Q314.129 489.516 314.129 498.266 Q314.129 506.993 311.05 511.6 Q307.995 516.183 302.185 516.183 Q296.374 516.183 293.296 511.6 Q290.24 506.993 290.24 498.266 Q290.24 489.516 293.296 484.933 Q296.374 480.327 302.185 480.327 Z" fill="#000000" fill-rule="nonzero" fill-opacity="1" /><path clip-path="url(#clip700)" d="M322.347 509.632 L327.231 509.632 L327.231 515.512 L322.347 515.512 L322.347 509.632 Z" fill="#000000" fill-rule="nonzero" fill-opacity="1" /><path clip-path="url(#clip700)" d="M347.416 484.03 Q343.805 484.03 341.976 487.595 Q340.171 491.137 340.171 498.266 Q340.171 505.373 341.976 508.938 Q343.805 512.479 347.416 512.479 Q351.05 512.479 352.856 508.938 Q354.684 505.373 354.684 498.266 Q354.684 491.137 352.856 487.595 Q351.05 484.03 347.416 484.03 M347.416 480.327 Q353.226 480.327 356.282 484.933 Q359.36 489.516 359.36 498.266 Q359.36 506.993 356.282 511.6 Q353.226 516.183 347.416 516.183 Q341.606 516.183 338.527 511.6 Q335.471 506.993 335.471 498.266 Q335.471 489.516 338.527 484.933 Q341.606 480.327 347.416 480.327 Z" fill="#000000" fill-rule="nonzero" fill-opacity="1" /><path clip-path="url(#clip700)" d="M487.773 12.096 L522.53 12.096 L522.53 18.9825 L495.956 18.9825 L495.956 36.8065 L519.938 36.8065 L519.938 43.6931 L495.956 43.6931 L495.956 72.576 L487.773 72.576 L487.773 12.096 Z" fill="#000000" fill-rule="nonzero" fill-opacity="1" /><path clip-path="url(#clip700)" d="M569.44 48.0275 L569.44 51.6733 L535.169 51.6733 Q535.655 59.3701 539.787 63.421 Q543.959 67.4314 551.373 67.4314 Q555.667 67.4314 559.677 66.3781 Q563.728 65.3249 567.698 63.2184 L567.698 70.267 Q563.687 71.9684 559.474 72.8596 Q555.261 73.7508 550.927 73.7508 Q540.071 73.7508 533.711 67.4314 Q527.391 61.1119 527.391 50.3365 Q527.391 39.1965 533.387 32.6746 Q539.422 26.1121 549.631 26.1121 Q558.786 26.1121 564.092 32.0264 Q569.44 37.9003 569.44 48.0275 M561.986 45.84 Q561.905 39.7232 558.543 36.0774 Q555.221 32.4315 549.712 32.4315 Q543.473 32.4315 539.706 35.9558 Q535.979 39.4801 535.412 45.8805 L561.986 45.84 Z" fill="#000000" fill-rule="nonzero" fill-opacity="1" /><path clip-path="url(#clip700)" d="M602.292 49.7694 Q593.259 49.7694 589.775 51.8354 Q586.291 53.9013 586.291 58.8839 Q586.291 62.8538 588.884 65.2034 Q591.517 67.5124 596.014 67.5124 Q602.211 67.5124 605.938 63.1374 Q609.706 58.7219 609.706 51.4303 L609.706 49.7694 L602.292 49.7694 M617.159 46.6907 L617.159 72.576 L609.706 72.576 L609.706 65.6895 Q607.154 69.8214 603.346 71.8063 Q599.538 73.7508 594.029 73.7508 Q587.061 73.7508 582.929 69.8619 Q578.838 65.9325 578.838 59.3701 Q578.838 51.7138 583.942 47.825 Q589.087 43.9361 599.254 43.9361 L609.706 43.9361 L609.706 43.2069 Q609.706 38.0623 606.303 35.2672 Q602.941 32.4315 596.824 32.4315 Q592.935 32.4315 589.249 33.3632 Q585.562 34.295 582.159 36.1584 L582.159 29.2718 Q586.251 27.692 590.099 26.9223 Q593.948 26.1121 597.593 26.1121 Q607.437 26.1121 612.298 31.2163 Q617.159 36.3204 617.159 46.6907 Z" fill="#000000" fill-rule="nonzero" fill-opacity="1" /><path clip-path="url(#clip700)" d="M639.885 14.324 L639.885 27.2059 L655.238 27.2059 L655.238 32.9987 L639.885 32.9987 L639.885 57.6282 Q639.885 63.1779 641.384 64.7578 Q642.923 66.3376 647.582 66.3376 L655.238 66.3376 L655.238 72.576 L647.582 72.576 Q638.953 72.576 635.672 69.3758 Q632.391 66.1351 632.391 57.6282 L632.391 32.9987 L626.922 32.9987 L626.922 27.2059 L632.391 27.2059 L632.391 14.324 L639.885 14.324 Z" fill="#000000" fill-rule="nonzero" fill-opacity="1" /><path clip-path="url(#clip700)" d="M664.271 54.671 L664.271 27.2059 L671.725 27.2059 L671.725 54.3874 Q671.725 60.8284 674.237 64.0691 Q676.748 67.2693 681.771 67.2693 Q687.807 67.2693 691.291 63.421 Q694.815 59.5726 694.815 52.9291 L694.815 27.2059 L702.269 27.2059 L702.269 72.576 L694.815 72.576 L694.815 65.6084 Q692.101 69.7404 688.496 71.7658 Q684.931 73.7508 680.191 73.7508 Q672.373 73.7508 668.322 68.8897 Q664.271 64.0286 664.271 54.671 M683.027 26.1121 L683.027 26.1121 Z" fill="#000000" fill-rule="nonzero" fill-opacity="1" /><path clip-path="url(#clip700)" d="M743.912 34.1734 Q742.656 33.4443 741.157 33.1202 Q739.699 32.7556 737.917 32.7556 Q731.597 32.7556 728.195 36.8875 Q724.832 40.9789 724.832 48.6757 L724.832 72.576 L717.338 72.576 L717.338 27.2059 L724.832 27.2059 L724.832 34.2544 Q727.182 30.1225 730.949 28.1376 Q734.717 26.1121 740.104 26.1121 Q740.874 26.1121 741.806 26.2337 Q742.737 26.3147 743.872 26.5172 L743.912 34.1734 Z" fill="#000000" fill-rule="nonzero" fill-opacity="1" /><path clip-path="url(#clip700)" d="M788.715 48.0275 L788.715 51.6733 L754.444 51.6733 Q754.931 59.3701 759.062 63.421 Q763.235 67.4314 770.648 67.4314 Q774.942 67.4314 778.952 66.3781 Q783.003 65.3249 786.973 63.2184 L786.973 70.267 Q782.963 71.9684 778.75 72.8596 Q774.537 73.7508 770.202 73.7508 Q759.346 73.7508 752.986 67.4314 Q746.667 61.1119 746.667 50.3365 Q746.667 39.1965 752.662 32.6746 Q758.698 26.1121 768.906 26.1121 Q778.061 26.1121 783.368 32.0264 Q788.715 37.9003 788.715 48.0275 M781.261 45.84 Q781.18 39.7232 777.818 36.0774 Q774.496 32.4315 768.987 32.4315 Q762.749 32.4315 758.981 35.9558 Q755.255 39.4801 754.687 45.8805 L781.261 45.84 Z" fill="#000000" fill-rule="nonzero" fill-opacity="1" /><path clip-path="url(#clip700)" d="M856.244 28.5427 L856.244 35.5912 Q853.084 33.9709 849.681 33.1607 Q846.278 32.3505 842.633 32.3505 Q837.083 32.3505 834.288 34.0519 Q831.533 35.7533 831.533 39.156 Q831.533 41.7486 833.518 43.2475 Q835.503 44.7058 841.498 46.0426 L844.05 46.6097 Q851.99 48.3111 855.312 51.4303 Q858.674 54.509 858.674 60.0587 Q858.674 66.3781 853.651 70.0644 Q848.668 73.7508 839.918 73.7508 Q836.273 73.7508 832.303 73.0216 Q828.373 72.3329 823.998 70.9151 L823.998 63.2184 Q828.13 65.3654 832.141 66.4591 Q836.151 67.5124 840.081 67.5124 Q845.347 67.5124 848.182 65.73 Q851.018 63.9071 851.018 60.6258 Q851.018 57.5877 848.952 55.9673 Q846.927 54.3469 840 52.8481 L837.407 52.2405 Q830.48 50.7821 827.401 47.7845 Q824.323 44.7463 824.323 39.4801 Q824.323 33.0797 828.86 29.5959 Q833.397 26.1121 841.741 26.1121 Q845.873 26.1121 849.519 26.7198 Q853.165 27.3274 856.244 28.5427 Z" fill="#000000" fill-rule="nonzero" fill-opacity="1" /><path clip-path="url(#clip700)" d="M877.754 65.7705 L877.754 89.8329 L870.26 89.8329 L870.26 27.2059 L877.754 27.2059 L877.754 34.0924 Q880.103 30.0415 883.668 28.0971 Q887.274 26.1121 892.256 26.1121 Q900.52 26.1121 905.665 32.6746 Q910.85 39.2371 910.85 49.9314 Q910.85 60.6258 905.665 67.1883 Q900.52 73.7508 892.256 73.7508 Q887.274 73.7508 883.668 71.8063 Q880.103 69.8214 877.754 65.7705 M903.113 49.9314 Q903.113 41.7081 899.71 37.0496 Q896.348 32.3505 890.433 32.3505 Q884.519 32.3505 881.116 37.0496 Q877.754 41.7081 877.754 49.9314 Q877.754 58.1548 881.116 62.8538 Q884.519 67.5124 890.433 67.5124 Q896.348 67.5124 899.71 62.8538 Q903.113 58.1548 903.113 49.9314 Z" fill="#000000" fill-rule="nonzero" fill-opacity="1" /><path clip-path="url(#clip700)" d="M943.824 49.7694 Q934.791 49.7694 931.307 51.8354 Q927.823 53.9013 927.823 58.8839 Q927.823 62.8538 930.416 65.2034 Q933.049 67.5124 937.545 67.5124 Q943.743 67.5124 947.47 63.1374 Q951.237 58.7219 951.237 51.4303 L951.237 49.7694 L943.824 49.7694 M958.691 46.6907 L958.691 72.576 L951.237 72.576 L951.237 65.6895 Q948.685 69.8214 944.877 71.8063 Q941.07 73.7508 935.56 73.7508 Q928.593 73.7508 924.461 69.8619 Q920.369 65.9325 920.369 59.3701 Q920.369 51.7138 925.474 47.825 Q930.618 43.9361 940.786 43.9361 L951.237 43.9361 L951.237 43.2069 Q951.237 38.0623 947.835 35.2672 Q944.472 32.4315 938.355 32.4315 Q934.467 32.4315 930.78 33.3632 Q927.094 34.295 923.691 36.1584 L923.691 29.2718 Q927.783 27.692 931.631 26.9223 Q935.479 26.1121 939.125 26.1121 Q948.969 26.1121 953.83 31.2163 Q958.691 36.3204 958.691 46.6907 Z" fill="#000000" fill-rule="nonzero" fill-opacity="1" /><path clip-path="url(#clip700)" d="M1006.69 28.9478 L1006.69 35.9153 Q1003.53 34.1734 1000.33 33.3227 Q997.175 32.4315 993.934 32.4315 Q986.683 32.4315 982.672 37.0496 Q978.662 41.6271 978.662 49.9314 Q978.662 58.2358 982.672 62.8538 Q986.683 67.4314 993.934 67.4314 Q997.175 67.4314 1000.33 66.5807 Q1003.53 65.6895 1006.69 63.9476 L1006.69 70.8341 Q1003.58 72.2924 1000.21 73.0216 Q996.891 73.7508 993.124 73.7508 Q982.875 73.7508 976.839 67.3098 Q970.803 60.8689 970.803 49.9314 Q970.803 38.832 976.88 32.472 Q982.996 26.1121 993.61 26.1121 Q997.053 26.1121 1000.33 26.8413 Q1003.62 27.5299 1006.69 28.9478 Z" fill="#000000" fill-rule="nonzero" fill-opacity="1" /><path clip-path="url(#clip700)" d="M1058.46 48.0275 L1058.46 51.6733 L1024.19 51.6733 Q1024.68 59.3701 1028.81 63.421 Q1032.98 67.4314 1040.4 67.4314 Q1044.69 67.4314 1048.7 66.3781 Q1052.75 65.3249 1056.72 63.2184 L1056.72 70.267 Q1052.71 71.9684 1048.5 72.8596 Q1044.29 73.7508 1039.95 73.7508 Q1029.1 73.7508 1022.74 67.4314 Q1016.42 61.1119 1016.42 50.3365 Q1016.42 39.1965 1022.41 32.6746 Q1028.45 26.1121 1038.66 26.1121 Q1047.81 26.1121 1053.12 32.0264 Q1058.46 37.9003 1058.46 48.0275 M1051.01 45.84 Q1050.93 39.7232 1047.57 36.0774 Q1044.25 32.4315 1038.74 32.4315 Q1032.5 32.4315 1028.73 35.9558 Q1025 39.4801 1024.44 45.8805 L1051.01 45.84 Z" fill="#000000" fill-rule="nonzero" fill-opacity="1" /><path clip-path="url(#clip700)" d="M1114.97 9.62495 Q1109.55 18.942 1106.91 28.0566 Q1104.28 37.1711 1104.28 46.5287 Q1104.28 55.8863 1106.91 65.0818 Q1109.59 74.2369 1114.97 83.5134 L1108.49 83.5134 Q1102.42 73.9938 1099.38 64.7983 Q1096.38 55.6027 1096.38 46.5287 Q1096.38 37.4952 1099.38 28.3401 Q1102.38 19.1851 1108.49 9.62495 L1114.97 9.62495 Z" fill="#000000" fill-rule="nonzero" fill-opacity="1" /><path clip-path="url(#clip700)" d="M1155.28 39.9662 Q1161.16 41.222 1164.44 45.1919 Q1167.76 49.1618 1167.76 54.9951 Q1167.76 63.9476 1161.6 68.8492 Q1155.44 73.7508 1144.1 73.7508 Q1140.29 73.7508 1136.24 72.9811 Q1132.23 72.2519 1127.94 70.7531 L1127.94 62.8538 Q1131.34 64.8388 1135.39 65.8515 Q1139.44 66.8642 1143.86 66.8642 Q1151.55 66.8642 1155.56 63.826 Q1159.62 60.7879 1159.62 54.9951 Q1159.62 49.6479 1155.85 46.6502 Q1152.12 43.612 1145.44 43.612 L1138.39 43.612 L1138.39 36.8875 L1145.76 36.8875 Q1151.8 36.8875 1155 34.4975 Q1158.2 32.067 1158.2 27.5299 Q1158.2 22.8714 1154.88 20.4004 Q1151.6 17.8888 1145.44 17.8888 Q1142.08 17.8888 1138.23 18.618 Q1134.38 19.3471 1129.76 20.8865 L1129.76 13.5948 Q1134.42 12.2985 1138.47 11.6504 Q1142.56 11.0023 1146.17 11.0023 Q1155.48 11.0023 1160.91 15.2557 Q1166.34 19.4686 1166.34 26.6793 Q1166.34 31.7024 1163.46 35.1862 Q1160.59 38.6294 1155.28 39.9662 Z" fill="#000000" fill-rule="nonzero" fill-opacity="1" /><path clip-path="url(#clip700)" d="M1212.08 34.0924 L1212.08 9.54393 L1219.53 9.54393 L1219.53 72.576 L1212.08 72.576 L1212.08 65.7705 Q1209.73 69.8214 1206.12 71.8063 Q1202.56 73.7508 1197.53 73.7508 Q1189.31 73.7508 1184.12 67.1883 Q1178.98 60.6258 1178.98 49.9314 Q1178.98 39.2371 1184.12 32.6746 Q1189.31 26.1121 1197.53 26.1121 Q1202.56 26.1121 1206.12 28.0971 Q1209.73 30.0415 1212.08 34.0924 M1186.68 49.9314 Q1186.68 58.1548 1190.04 62.8538 Q1193.44 67.5124 1199.36 67.5124 Q1205.27 67.5124 1208.67 62.8538 Q1212.08 58.1548 1212.08 49.9314 Q1212.08 41.7081 1208.67 37.0496 Q1205.27 32.3505 1199.36 32.3505 Q1193.44 32.3505 1190.04 37.0496 Q1186.68 41.7081 1186.68 49.9314 Z" fill="#000000" fill-rule="nonzero" fill-opacity="1" /><path clip-path="url(#clip700)" d="M1233.71 9.62495 L1240.19 9.62495 Q1246.26 19.1851 1249.26 28.3401 Q1252.3 37.4952 1252.3 46.5287 Q1252.3 55.6027 1249.26 64.7983 Q1246.26 73.9938 1240.19 83.5134 L1233.71 83.5134 Q1239.09 74.2369 1241.73 65.0818 Q1244.4 55.8863 1244.4 46.5287 Q1244.4 37.1711 1241.73 28.0566 Q1239.09 18.942 1233.71 9.62495 Z" fill="#000000" fill-rule="nonzero" fill-opacity="1" /><circle clip-path="url(#clip702)" cx="981.188" cy="634.39" r="14.4" fill="#800080" fill-rule="evenodd" fill-opacity="1" stroke="#000000" stroke-opacity="1" stroke-width="2.8"/>
<circle clip-path="url(#clip702)" cx="973.883" cy="638.569" r="14.4" fill="#800080" fill-rule="evenodd" fill-opacity="1" stroke="#000000" stroke-opacity="1" stroke-width="2.8"/>
<circle clip-path="url(#clip702)" cx="1028.49" cy="798.474" r="14.4" fill="#800080" fill-rule="evenodd" fill-opacity="1" stroke="#000000" stroke-opacity="1" stroke-width="2.8"/>
<circle clip-path="url(#clip702)" cx="1041.26" cy="587.509" r="14.4" fill="#800080" fill-rule="evenodd" fill-opacity="1" stroke="#000000" stroke-opacity="1" stroke-width="2.8"/>
<circle clip-path="url(#clip702)" cx="988.61" cy="721.451" r="14.4" fill="#800080" fill-rule="evenodd" fill-opacity="1" stroke="#000000" stroke-opacity="1" stroke-width="2.8"/>
<circle clip-path="url(#clip702)" cx="881.29" cy="689.485" r="14.4" fill="#800080" fill-rule="evenodd" fill-opacity="1" stroke="#000000" stroke-opacity="1" stroke-width="2.8"/>
<circle clip-path="url(#clip702)" cx="884.937" cy="710.57" r="14.4" fill="#800080" fill-rule="evenodd" fill-opacity="1" stroke="#000000" stroke-opacity="1" stroke-width="2.8"/>
<circle clip-path="url(#clip702)" cx="972.741" cy="659.169" r="14.4" fill="#800080" fill-rule="evenodd" fill-opacity="1" stroke="#000000" stroke-opacity="1" stroke-width="2.8"/>
<circle clip-path="url(#clip702)" cx="1016.13" cy="700.972" r="14.4" fill="#800080" fill-rule="evenodd" fill-opacity="1" stroke="#000000" stroke-opacity="1" stroke-width="2.8"/>
<circle clip-path="url(#clip702)" cx="929.179" cy="644.703" r="14.4" fill="#800080" fill-rule="evenodd" fill-opacity="1" stroke="#000000" stroke-opacity="1" stroke-width="2.8"/>
<circle clip-path="url(#clip702)" cx="1012.11" cy="642.881" r="14.4" fill="#800080" fill-rule="evenodd" fill-opacity="1" stroke="#000000" stroke-opacity="1" stroke-width="2.8"/>
<circle clip-path="url(#clip702)" cx="1010.66" cy="690.295" r="14.4" fill="#800080" fill-rule="evenodd" fill-opacity="1" stroke="#000000" stroke-opacity="1" stroke-width="2.8"/>
<circle clip-path="url(#clip702)" cx="956.757" cy="771.262" r="14.4" fill="#800080" fill-rule="evenodd" fill-opacity="1" stroke="#000000" stroke-opacity="1" stroke-width="2.8"/>
<circle clip-path="url(#clip702)" cx="1049.69" cy="774.164" r="14.4" fill="#800080" fill-rule="evenodd" fill-opacity="1" stroke="#000000" stroke-opacity="1" stroke-width="2.8"/>
<circle clip-path="url(#clip702)" cx="1037.27" cy="719.81" r="14.4" fill="#800080" fill-rule="evenodd" fill-opacity="1" stroke="#000000" stroke-opacity="1" stroke-width="2.8"/>
<circle clip-path="url(#clip702)" cx="888.202" cy="779.424" r="14.4" fill="#800080" fill-rule="evenodd" fill-opacity="1" stroke="#000000" stroke-opacity="1" stroke-width="2.8"/>
<circle clip-path="url(#clip702)" cx="1075.38" cy="636.499" r="14.4" fill="#800080" fill-rule="evenodd" fill-opacity="1" stroke="#000000" stroke-opacity="1" stroke-width="2.8"/>
<circle clip-path="url(#clip702)" cx="891.155" cy="721.27" r="14.4" fill="#800080" fill-rule="evenodd" fill-opacity="1" stroke="#000000" stroke-opacity="1" stroke-width="2.8"/>
<circle clip-path="url(#clip702)" cx="934.627" cy="724.305" r="14.4" fill="#800080" fill-rule="evenodd" fill-opacity="1" stroke="#000000" stroke-opacity="1" stroke-width="2.8"/>
<circle clip-path="url(#clip702)" cx="1074.71" cy="708.707" r="14.4" fill="#800080" fill-rule="evenodd" fill-opacity="1" stroke="#000000" stroke-opacity="1" stroke-width="2.8"/>
<circle clip-path="url(#clip702)" cx="973.839" cy="727.613" r="14.4" fill="#800080" fill-rule="evenodd" fill-opacity="1" stroke="#000000" stroke-opacity="1" stroke-width="2.8"/>
<circle clip-path="url(#clip702)" cx="984.906" cy="608.756" r="14.4" fill="#800080" fill-rule="evenodd" fill-opacity="1" stroke="#000000" stroke-opacity="1" stroke-width="2.8"/>
<circle clip-path="url(#clip702)" cx="920.245" cy="786.033" r="14.4" fill="#800080" fill-rule="evenodd" fill-opacity="1" stroke="#000000" stroke-opacity="1" stroke-width="2.8"/>
<circle clip-path="url(#clip702)" cx="983.348" cy="731.066" r="14.4" fill="#800080" fill-rule="evenodd" fill-opacity="1" stroke="#000000" stroke-opacity="1" stroke-width="2.8"/>
<circle clip-path="url(#clip702)" cx="941.486" cy="698.832" r="14.4" fill="#800080" fill-rule="evenodd" fill-opacity="1" stroke="#000000" stroke-opacity="1" stroke-width="2.8"/>
<circle clip-path="url(#clip702)" cx="915.701" cy="738.289" r="14.4" fill="#800080" fill-rule="evenodd" fill-opacity="1" stroke="#000000" stroke-opacity="1" stroke-width="2.8"/>
<circle clip-path="url(#clip702)" cx="852.689" cy="714.251" r="14.4" fill="#800080" fill-rule="evenodd" fill-opacity="1" stroke="#000000" stroke-opacity="1" stroke-width="2.8"/>
<circle clip-path="url(#clip702)" cx="954.029" cy="702.419" r="14.4" fill="#800080" fill-rule="evenodd" fill-opacity="1" stroke="#000000" stroke-opacity="1" stroke-width="2.8"/>
<circle clip-path="url(#clip702)" cx="911.176" cy="715.406" r="14.4" fill="#800080" fill-rule="evenodd" fill-opacity="1" stroke="#000000" stroke-opacity="1" stroke-width="2.8"/>
<circle clip-path="url(#clip702)" cx="966.229" cy="719.297" r="14.4" fill="#800080" fill-rule="evenodd" fill-opacity="1" stroke="#000000" stroke-opacity="1" stroke-width="2.8"/>
<circle clip-path="url(#clip702)" cx="1079.26" cy="677.51" r="14.4" fill="#800080" fill-rule="evenodd" fill-opacity="1" stroke="#000000" stroke-opacity="1" stroke-width="2.8"/>
<circle clip-path="url(#clip702)" cx="925.333" cy="680.826" r="14.4" fill="#800080" fill-rule="evenodd" fill-opacity="1" stroke="#000000" stroke-opacity="1" stroke-width="2.8"/>
<circle clip-path="url(#clip702)" cx="997.293" cy="579.101" r="14.4" fill="#800080" fill-rule="evenodd" fill-opacity="1" stroke="#000000" stroke-opacity="1" stroke-width="2.8"/>
<circle clip-path="url(#clip702)" cx="1034.86" cy="596.824" r="14.4" fill="#800080" fill-rule="evenodd" fill-opacity="1" stroke="#000000" stroke-opacity="1" stroke-width="2.8"/>
<circle clip-path="url(#clip702)" cx="984.826" cy="651.171" r="14.4" fill="#800080" fill-rule="evenodd" fill-opacity="1" stroke="#000000" stroke-opacity="1" stroke-width="2.8"/>
<circle clip-path="url(#clip702)" cx="989.193" cy="671.931" r="14.4" fill="#800080" fill-rule="evenodd" fill-opacity="1" stroke="#000000" stroke-opacity="1" stroke-width="2.8"/>
<circle clip-path="url(#clip702)" cx="854.669" cy="742.922" r="14.4" fill="#800080" fill-rule="evenodd" fill-opacity="1" stroke="#000000" stroke-opacity="1" stroke-width="2.8"/>
<circle clip-path="url(#clip702)" cx="1180.8" cy="441.284" r="14.4" fill="#800080" fill-rule="evenodd" fill-opacity="1" stroke="#000000" stroke-opacity="1" stroke-width="2.8"/>
<circle clip-path="url(#clip702)" cx="1037.89" cy="698.067" r="14.4" fill="#800080" fill-rule="evenodd" fill-opacity="1" stroke="#000000" stroke-opacity="1" stroke-width="2.8"/>
<circle clip-path="url(#clip702)" cx="1024.3" cy="726.118" r="14.4" fill="#800080" fill-rule="evenodd" fill-opacity="1" stroke="#000000" stroke-opacity="1" stroke-width="2.8"/>
<circle clip-path="url(#clip702)" cx="972.195" cy="642.807" r="14.4" fill="#800080" fill-rule="evenodd" fill-opacity="1" stroke="#000000" stroke-opacity="1" stroke-width="2.8"/>
<circle clip-path="url(#clip702)" cx="996.408" cy="730.097" r="14.4" fill="#800080" fill-rule="evenodd" fill-opacity="1" stroke="#000000" stroke-opacity="1" stroke-width="2.8"/>
<circle clip-path="url(#clip702)" cx="956.44" cy="621.099" r="14.4" fill="#800080" fill-rule="evenodd" fill-opacity="1" stroke="#000000" stroke-opacity="1" stroke-width="2.8"/>
<circle clip-path="url(#clip702)" cx="969.487" cy="648.321" r="14.4" fill="#800080" fill-rule="evenodd" fill-opacity="1" stroke="#000000" stroke-opacity="1" stroke-width="2.8"/>
<circle clip-path="url(#clip702)" cx="1023.18" cy="612.992" r="14.4" fill="#800080" fill-rule="evenodd" fill-opacity="1" stroke="#000000" stroke-opacity="1" stroke-width="2.8"/>
<circle clip-path="url(#clip702)" cx="1003.26" cy="652.441" r="14.4" fill="#800080" fill-rule="evenodd" fill-opacity="1" stroke="#000000" stroke-opacity="1" stroke-width="2.8"/>
<circle clip-path="url(#clip702)" cx="991.095" cy="716.178" r="14.4" fill="#800080" fill-rule="evenodd" fill-opacity="1" stroke="#000000" stroke-opacity="1" stroke-width="2.8"/>
<circle clip-path="url(#clip702)" cx="895.966" cy="690.892" r="14.4" fill="#800080" fill-rule="evenodd" fill-opacity="1" stroke="#000000" stroke-opacity="1" stroke-width="2.8"/>
<circle clip-path="url(#clip702)" cx="987.207" cy="797.143" r="14.4" fill="#800080" fill-rule="evenodd" fill-opacity="1" stroke="#000000" stroke-opacity="1" stroke-width="2.8"/>
<circle clip-path="url(#clip702)" cx="971.518" cy="560.278" r="14.4" fill="#800080" fill-rule="evenodd" fill-opacity="1" stroke="#000000" stroke-opacity="1" stroke-width="2.8"/>
<circle clip-path="url(#clip702)" cx="822.955" cy="612.04" r="14.4" fill="#0000ff" fill-rule="evenodd" fill-opacity="1" stroke="#000000" stroke-opacity="1" stroke-width="2.8"/>
<circle clip-path="url(#clip702)" cx="788.007" cy="615.182" r="14.4" fill="#0000ff" fill-rule="evenodd" fill-opacity="1" stroke="#000000" stroke-opacity="1" stroke-width="2.8"/>
<circle clip-path="url(#clip702)" cx="818.028" cy="739.013" r="14.4" fill="#0000ff" fill-rule="evenodd" fill-opacity="1" stroke="#000000" stroke-opacity="1" stroke-width="2.8"/>
<circle clip-path="url(#clip702)" cx="899.063" cy="730.273" r="14.4" fill="#0000ff" fill-rule="evenodd" fill-opacity="1" stroke="#000000" stroke-opacity="1" stroke-width="2.8"/>
<circle clip-path="url(#clip702)" cx="780.265" cy="592.774" r="14.4" fill="#0000ff" fill-rule="evenodd" fill-opacity="1" stroke="#000000" stroke-opacity="1" stroke-width="2.8"/>
<circle clip-path="url(#clip702)" cx="842.711" cy="781.21" r="14.4" fill="#0000ff" fill-rule="evenodd" fill-opacity="1" stroke="#000000" stroke-opacity="1" stroke-width="2.8"/>
<circle clip-path="url(#clip702)" cx="809.656" cy="702.062" r="14.4" fill="#0000ff" fill-rule="evenodd" fill-opacity="1" stroke="#000000" stroke-opacity="1" stroke-width="2.8"/>
<circle clip-path="url(#clip702)" cx="793.723" cy="749.218" r="14.4" fill="#0000ff" fill-rule="evenodd" fill-opacity="1" stroke="#000000" stroke-opacity="1" stroke-width="2.8"/>
<circle clip-path="url(#clip702)" cx="837.328" cy="751.698" r="14.4" fill="#0000ff" fill-rule="evenodd" fill-opacity="1" stroke="#000000" stroke-opacity="1" stroke-width="2.8"/>
<circle clip-path="url(#clip702)" cx="774.286" cy="720.53" r="14.4" fill="#0000ff" fill-rule="evenodd" fill-opacity="1" stroke="#000000" stroke-opacity="1" stroke-width="2.8"/>
<circle clip-path="url(#clip702)" cx="733.861" cy="677.45" r="14.4" fill="#0000ff" fill-rule="evenodd" fill-opacity="1" stroke="#000000" stroke-opacity="1" stroke-width="2.8"/>
<circle clip-path="url(#clip702)" cx="718.969" cy="806.548" r="14.4" fill="#0000ff" fill-rule="evenodd" fill-opacity="1" stroke="#000000" stroke-opacity="1" stroke-width="2.8"/>
<circle clip-path="url(#clip702)" cx="710.079" cy="799.381" r="14.4" fill="#0000ff" fill-rule="evenodd" fill-opacity="1" stroke="#000000" stroke-opacity="1" stroke-width="2.8"/>
<circle clip-path="url(#clip702)" cx="728.775" cy="732.041" r="14.4" fill="#0000ff" fill-rule="evenodd" fill-opacity="1" stroke="#000000" stroke-opacity="1" stroke-width="2.8"/>
<circle clip-path="url(#clip702)" cx="776.919" cy="678.675" r="14.4" fill="#0000ff" fill-rule="evenodd" fill-opacity="1" stroke="#000000" stroke-opacity="1" stroke-width="2.8"/>
<circle clip-path="url(#clip702)" cx="799.879" cy="748.79" r="14.4" fill="#0000ff" fill-rule="evenodd" fill-opacity="1" stroke="#000000" stroke-opacity="1" stroke-width="2.8"/>
<circle clip-path="url(#clip702)" cx="846.566" cy="707.736" r="14.4" fill="#0000ff" fill-rule="evenodd" fill-opacity="1" stroke="#000000" stroke-opacity="1" stroke-width="2.8"/>
<circle clip-path="url(#clip702)" cx="726.216" cy="734.704" r="14.4" fill="#0000ff" fill-rule="evenodd" fill-opacity="1" stroke="#000000" stroke-opacity="1" stroke-width="2.8"/>
<circle clip-path="url(#clip702)" cx="738.782" cy="696.586" r="14.4" fill="#0000ff" fill-rule="evenodd" fill-opacity="1" stroke="#000000" stroke-opacity="1" stroke-width="2.8"/>
<circle clip-path="url(#clip702)" cx="694.234" cy="669.429" r="14.4" fill="#0000ff" fill-rule="evenodd" fill-opacity="1" stroke="#000000" stroke-opacity="1" stroke-width="2.8"/>
<circle clip-path="url(#clip702)" cx="772.224" cy="660.022" r="14.4" fill="#0000ff" fill-rule="evenodd" fill-opacity="1" stroke="#000000" stroke-opacity="1" stroke-width="2.8"/>
<circle clip-path="url(#clip702)" cx="745.548" cy="720.099" r="14.4" fill="#0000ff" fill-rule="evenodd" fill-opacity="1" stroke="#000000" stroke-opacity="1" stroke-width="2.8"/>
<circle clip-path="url(#clip702)" cx="868.356" cy="808.281" r="14.4" fill="#0000ff" fill-rule="evenodd" fill-opacity="1" stroke="#000000" stroke-opacity="1" stroke-width="2.8"/>
<circle clip-path="url(#clip702)" cx="838.664" cy="672.217" r="14.4" fill="#0000ff" fill-rule="evenodd" fill-opacity="1" stroke="#000000" stroke-opacity="1" stroke-width="2.8"/>
<circle clip-path="url(#clip702)" cx="836.755" cy="801.693" r="14.4" fill="#0000ff" fill-rule="evenodd" fill-opacity="1" stroke="#000000" stroke-opacity="1" stroke-width="2.8"/>
<circle clip-path="url(#clip702)" cx="792.208" cy="790.473" r="14.4" fill="#0000ff" fill-rule="evenodd" fill-opacity="1" stroke="#000000" stroke-opacity="1" stroke-width="2.8"/>
<circle clip-path="url(#clip702)" cx="705.31" cy="705.364" r="14.4" fill="#0000ff" fill-rule="evenodd" fill-opacity="1" stroke="#000000" stroke-opacity="1" stroke-width="2.8"/>
<circle clip-path="url(#clip702)" cx="718.41" cy="740.932" r="14.4" fill="#0000ff" fill-rule="evenodd" fill-opacity="1" stroke="#000000" stroke-opacity="1" stroke-width="2.8"/>
<circle clip-path="url(#clip702)" cx="774.873" cy="666.163" r="14.4" fill="#0000ff" fill-rule="evenodd" fill-opacity="1" stroke="#000000" stroke-opacity="1" stroke-width="2.8"/>
<circle clip-path="url(#clip702)" cx="894.957" cy="773.182" r="14.4" fill="#0000ff" fill-rule="evenodd" fill-opacity="1" stroke="#000000" stroke-opacity="1" stroke-width="2.8"/>
<circle clip-path="url(#clip702)" cx="826.863" cy="726.516" r="14.4" fill="#0000ff" fill-rule="evenodd" fill-opacity="1" stroke="#000000" stroke-opacity="1" stroke-width="2.8"/>
<circle clip-path="url(#clip702)" cx="817.92" cy="768.097" r="14.4" fill="#0000ff" fill-rule="evenodd" fill-opacity="1" stroke="#000000" stroke-opacity="1" stroke-width="2.8"/>
<circle clip-path="url(#clip702)" cx="676.323" cy="672.666" r="14.4" fill="#0000ff" fill-rule="evenodd" fill-opacity="1" stroke="#000000" stroke-opacity="1" stroke-width="2.8"/>
<circle clip-path="url(#clip702)" cx="676.01" cy="658.585" r="14.4" fill="#0000ff" fill-rule="evenodd" fill-opacity="1" stroke="#000000" stroke-opacity="1" stroke-width="2.8"/>
<circle clip-path="url(#clip702)" cx="727.411" cy="665.672" r="14.4" fill="#0000ff" fill-rule="evenodd" fill-opacity="1" stroke="#000000" stroke-opacity="1" stroke-width="2.8"/>
<circle clip-path="url(#clip702)" cx="797.379" cy="683.081" r="14.4" fill="#0000ff" fill-rule="evenodd" fill-opacity="1" stroke="#000000" stroke-opacity="1" stroke-width="2.8"/>
<circle clip-path="url(#clip702)" cx="843.175" cy="817.786" r="14.4" fill="#0000ff" fill-rule="evenodd" fill-opacity="1" stroke="#000000" stroke-opacity="1" stroke-width="2.8"/>
<circle clip-path="url(#clip702)" cx="791.211" cy="814.735" r="14.4" fill="#0000ff" fill-rule="evenodd" fill-opacity="1" stroke="#000000" stroke-opacity="1" stroke-width="2.8"/>
<circle clip-path="url(#clip702)" cx="762.301" cy="894.349" r="14.4" fill="#0000ff" fill-rule="evenodd" fill-opacity="1" stroke="#000000" stroke-opacity="1" stroke-width="2.8"/>
<circle clip-path="url(#clip702)" cx="799.214" cy="608.305" r="14.4" fill="#0000ff" fill-rule="evenodd" fill-opacity="1" stroke="#000000" stroke-opacity="1" stroke-width="2.8"/>
<circle clip-path="url(#clip702)" cx="750.08" cy="771.84" r="14.4" fill="#0000ff" fill-rule="evenodd" fill-opacity="1" stroke="#000000" stroke-opacity="1" stroke-width="2.8"/>
<circle clip-path="url(#clip702)" cx="811.056" cy="603.725" r="14.4" fill="#0000ff" fill-rule="evenodd" fill-opacity="1" stroke="#000000" stroke-opacity="1" stroke-width="2.8"/>
<circle clip-path="url(#clip702)" cx="793.176" cy="690.826" r="14.4" fill="#0000ff" fill-rule="evenodd" fill-opacity="1" stroke="#000000" stroke-opacity="1" stroke-width="2.8"/>
<circle clip-path="url(#clip702)" cx="781.763" cy="677.226" r="14.4" fill="#0000ff" fill-rule="evenodd" fill-opacity="1" stroke="#000000" stroke-opacity="1" stroke-width="2.8"/>
<circle clip-path="url(#clip702)" cx="788.684" cy="745.159" r="14.4" fill="#0000ff" fill-rule="evenodd" fill-opacity="1" stroke="#000000" stroke-opacity="1" stroke-width="2.8"/>
<circle clip-path="url(#clip702)" cx="749.052" cy="717.766" r="14.4" fill="#0000ff" fill-rule="evenodd" fill-opacity="1" stroke="#000000" stroke-opacity="1" stroke-width="2.8"/>
<circle clip-path="url(#clip702)" cx="783.234" cy="775.659" r="14.4" fill="#0000ff" fill-rule="evenodd" fill-opacity="1" stroke="#000000" stroke-opacity="1" stroke-width="2.8"/>
<circle clip-path="url(#clip702)" cx="807.513" cy="692.535" r="14.4" fill="#0000ff" fill-rule="evenodd" fill-opacity="1" stroke="#000000" stroke-opacity="1" stroke-width="2.8"/>
<circle clip-path="url(#clip702)" cx="708.252" cy="783.284" r="14.4" fill="#0000ff" fill-rule="evenodd" fill-opacity="1" stroke="#000000" stroke-opacity="1" stroke-width="2.8"/>
<circle clip-path="url(#clip702)" cx="772.862" cy="654.177" r="14.4" fill="#0000ff" fill-rule="evenodd" fill-opacity="1" stroke="#000000" stroke-opacity="1" stroke-width="2.8"/>
<circle clip-path="url(#clip702)" cx="821.386" cy="784.767" r="36" fill="#ffff00" fill-rule="evenodd" fill-opacity="1" stroke="#000000" stroke-opacity="1" stroke-width="2.8"/>
<circle clip-path="url(#clip702)" cx="697.127" cy="809.492" r="18" fill="#ffff00" fill-rule="evenodd" fill-opacity="1" stroke="#000000" stroke-opacity="1" stroke-width="2.8"/>
<circle clip-path="url(#clip702)" cx="715.536" cy="808.056" r="18" fill="#ffff00" fill-rule="evenodd" fill-opacity="1" stroke="#000000" stroke-opacity="1" stroke-width="2.8"/>
<circle clip-path="url(#clip702)" cx="776.101" cy="790.611" r="18" fill="#ffff00" fill-rule="evenodd" fill-opacity="1" stroke="#000000" stroke-opacity="1" stroke-width="2.8"/>
<path clip-path="url(#clip700)" d="M1797.06 1300.33 L3152.76 1300.33 L3152.76 102.682 L1797.06 102.682  Z" fill="#ffffff" fill-rule="evenodd" fill-opacity="1"/>
<defs>
  <clipPath id="clip703">
    <rect x="1797" y="102" width="1357" height="1199"/>
  </clipPath>
</defs>
<polyline clip-path="url(#clip703)" style="stroke:#000000; stroke-linecap:round; stroke-linejoin:round; stroke-width:2; stroke-opacity:0.1; fill:none" points="2020.09,1300.33 2020.09,102.682 "/>
<polyline clip-path="url(#clip703)" style="stroke:#000000; stroke-linecap:round; stroke-linejoin:round; stroke-width:2; stroke-opacity:0.1; fill:none" points="2288.47,1300.33 2288.47,102.682 "/>
<polyline clip-path="url(#clip703)" style="stroke:#000000; stroke-linecap:round; stroke-linejoin:round; stroke-width:2; stroke-opacity:0.1; fill:none" points="2556.85,1300.33 2556.85,102.682 "/>
<polyline clip-path="url(#clip703)" style="stroke:#000000; stroke-linecap:round; stroke-linejoin:round; stroke-width:2; stroke-opacity:0.1; fill:none" points="2825.23,1300.33 2825.23,102.682 "/>
<polyline clip-path="url(#clip703)" style="stroke:#000000; stroke-linecap:round; stroke-linejoin:round; stroke-width:2; stroke-opacity:0.1; fill:none" points="3093.6,1300.33 3093.6,102.682 "/>
<polyline clip-path="url(#clip700)" style="stroke:#000000; stroke-linecap:round; stroke-linejoin:round; stroke-width:4; stroke-opacity:1; fill:none" points="1797.06,1300.33 3152.76,1300.33 "/>
<polyline clip-path="url(#clip700)" style="stroke:#000000; stroke-linecap:round; stroke-linejoin:round; stroke-width:4; stroke-opacity:1; fill:none" points="2020.09,1300.33 2020.09,1281.43 "/>
<polyline clip-path="url(#clip700)" style="stroke:#000000; stroke-linecap:round; stroke-linejoin:round; stroke-width:4; stroke-opacity:1; fill:none" points="2288.47,1300.33 2288.47,1281.43 "/>
<polyline clip-path="url(#clip700)" style="stroke:#000000; stroke-linecap:round; stroke-linejoin:round; stroke-width:4; stroke-opacity:1; fill:none" points="2556.85,1300.33 2556.85,1281.43 "/>
<polyline clip-path="url(#clip700)" style="stroke:#000000; stroke-linecap:round; stroke-linejoin:round; stroke-width:4; stroke-opacity:1; fill:none" points="2825.23,1300.33 2825.23,1281.43 "/>
<polyline clip-path="url(#clip700)" style="stroke:#000000; stroke-linecap:round; stroke-linejoin:round; stroke-width:4; stroke-opacity:1; fill:none" points="3093.6,1300.33 3093.6,1281.43 "/>
<path clip-path="url(#clip700)" d="M1989.55 1352.3 L2019.23 1352.3 L2019.23 1356.23 L1989.55 1356.23 L1989.55 1352.3 Z" fill="#000000" fill-rule="nonzero" fill-opacity="1" /><path clip-path="url(#clip700)" d="M2043.49 1350.49 Q2046.85 1351.21 2048.72 1353.48 Q2050.62 1355.75 2050.62 1359.08 Q2050.62 1364.2 2047.1 1367 Q2043.58 1369.8 2037.1 1369.8 Q2034.92 1369.8 2032.61 1369.36 Q2030.32 1368.94 2027.86 1368.09 L2027.86 1363.57 Q2029.81 1364.71 2032.12 1365.29 Q2034.44 1365.86 2036.96 1365.86 Q2041.36 1365.86 2043.65 1364.13 Q2045.97 1362.39 2045.97 1359.08 Q2045.97 1356.03 2043.81 1354.31 Q2041.68 1352.58 2037.86 1352.58 L2033.84 1352.58 L2033.84 1348.73 L2038.05 1348.73 Q2041.5 1348.73 2043.33 1347.37 Q2045.16 1345.98 2045.16 1343.39 Q2045.16 1340.73 2043.26 1339.31 Q2041.38 1337.88 2037.86 1337.88 Q2035.94 1337.88 2033.74 1338.29 Q2031.55 1338.71 2028.91 1339.59 L2028.91 1335.42 Q2031.57 1334.68 2033.88 1334.31 Q2036.22 1333.94 2038.28 1333.94 Q2043.61 1333.94 2046.71 1336.37 Q2049.81 1338.78 2049.81 1342.9 Q2049.81 1345.77 2048.17 1347.76 Q2046.52 1349.73 2043.49 1350.49 Z" fill="#000000" fill-rule="nonzero" fill-opacity="1" /><path clip-path="url(#clip700)" d="M2258.41 1352.3 L2288.08 1352.3 L2288.08 1356.23 L2258.41 1356.23 L2258.41 1352.3 Z" fill="#000000" fill-rule="nonzero" fill-opacity="1" /><path clip-path="url(#clip700)" d="M2302.2 1365.19 L2318.52 1365.19 L2318.52 1369.13 L2296.58 1369.13 L2296.58 1365.19 Q2299.24 1362.44 2303.83 1357.81 Q2308.43 1353.16 2309.61 1351.81 Q2311.86 1349.29 2312.74 1347.55 Q2313.64 1345.79 2313.64 1344.1 Q2313.64 1341.35 2311.7 1339.61 Q2309.77 1337.88 2306.67 1337.88 Q2304.47 1337.88 2302.02 1338.64 Q2299.59 1339.41 2296.81 1340.96 L2296.81 1336.23 Q2299.64 1335.1 2302.09 1334.52 Q2304.54 1333.94 2306.58 1333.94 Q2311.95 1333.94 2315.14 1336.63 Q2318.34 1339.31 2318.34 1343.8 Q2318.34 1345.93 2317.53 1347.85 Q2316.74 1349.75 2314.64 1352.35 Q2314.06 1353.02 2310.95 1356.23 Q2307.85 1359.43 2302.2 1365.19 Z" fill="#000000" fill-rule="nonzero" fill-opacity="1" /><path clip-path="url(#clip700)" d="M2526.6 1352.3 L2556.28 1352.3 L2556.28 1356.23 L2526.6 1356.23 L2526.6 1352.3 Z" fill="#000000" fill-rule="nonzero" fill-opacity="1" /><path clip-path="url(#clip700)" d="M2567.18 1365.19 L2574.82 1365.19 L2574.82 1338.83 L2566.51 1340.49 L2566.51 1336.23 L2574.77 1334.57 L2579.45 1334.57 L2579.45 1365.19 L2587.09 1365.19 L2587.09 1369.13 L2567.18 1369.13 L2567.18 1365.19 Z" fill="#000000" fill-rule="nonzero" fill-opacity="1" /><path clip-path="url(#clip700)" d="M2825.23 1337.65 Q2821.61 1337.65 2819.79 1341.21 Q2817.98 1344.75 2817.98 1351.88 Q2817.98 1358.99 2819.79 1362.55 Q2821.61 1366.1 2825.23 1366.1 Q2828.86 1366.1 2830.67 1362.55 Q2832.49 1358.99 2832.49 1351.88 Q2832.49 1344.75 2830.67 1341.21 Q2828.86 1337.65 2825.23 1337.65 M2825.23 1333.94 Q2831.04 1333.94 2834.09 1338.55 Q2837.17 1343.13 2837.17 1351.88 Q2837.17 1360.61 2834.09 1365.22 Q2831.04 1369.8 2825.23 1369.8 Q2819.42 1369.8 2816.34 1365.22 Q2813.28 1360.61 2813.28 1351.88 Q2813.28 1343.13 2816.34 1338.55 Q2819.42 1333.94 2825.23 1333.94 Z" fill="#000000" fill-rule="nonzero" fill-opacity="1" /><path clip-path="url(#clip700)" d="M3083.99 1365.19 L3091.63 1365.19 L3091.63 1338.83 L3083.32 1340.49 L3083.32 1336.23 L3091.58 1334.57 L3096.26 1334.57 L3096.26 1365.19 L3103.89 1365.19 L3103.89 1369.13 L3083.99 1369.13 L3083.99 1365.19 Z" fill="#000000" fill-rule="nonzero" fill-opacity="1" /><polyline clip-path="url(#clip703)" style="stroke:#000000; stroke-linecap:round; stroke-linejoin:round; stroke-width:2; stroke-opacity:0.1; fill:none" points="1797.06,1105.95 3152.76,1105.95 "/>
<polyline clip-path="url(#clip703)" style="stroke:#000000; stroke-linecap:round; stroke-linejoin:round; stroke-width:2; stroke-opacity:0.1; fill:none" points="1797.06,837.575 3152.76,837.575 "/>
<polyline clip-path="url(#clip703)" style="stroke:#000000; stroke-linecap:round; stroke-linejoin:round; stroke-width:2; stroke-opacity:0.1; fill:none" points="1797.06,569.195 3152.76,569.195 "/>
<polyline clip-path="url(#clip703)" style="stroke:#000000; stroke-linecap:round; stroke-linejoin:round; stroke-width:2; stroke-opacity:0.1; fill:none" points="1797.06,300.816 3152.76,300.816 "/>
<polyline clip-path="url(#clip700)" style="stroke:#000000; stroke-linecap:round; stroke-linejoin:round; stroke-width:4; stroke-opacity:1; fill:none" points="1797.06,1300.33 1797.06,102.682 "/>
<polyline clip-path="url(#clip700)" style="stroke:#000000; stroke-linecap:round; stroke-linejoin:round; stroke-width:4; stroke-opacity:1; fill:none" points="1797.06,1105.95 1815.96,1105.95 "/>
<polyline clip-path="url(#clip700)" style="stroke:#000000; stroke-linecap:round; stroke-linejoin:round; stroke-width:4; stroke-opacity:1; fill:none" points="1797.06,837.575 1815.96,837.575 "/>
<polyline clip-path="url(#clip700)" style="stroke:#000000; stroke-linecap:round; stroke-linejoin:round; stroke-width:4; stroke-opacity:1; fill:none" points="1797.06,569.195 1815.96,569.195 "/>
<polyline clip-path="url(#clip700)" style="stroke:#000000; stroke-linecap:round; stroke-linejoin:round; stroke-width:4; stroke-opacity:1; fill:none" points="1797.06,300.816 1815.96,300.816 "/>
<path clip-path="url(#clip700)" d="M1688 1106.41 L1717.67 1106.41 L1717.67 1110.34 L1688 1110.34 L1688 1106.41 Z" fill="#000000" fill-rule="nonzero" fill-opacity="1" /><path clip-path="url(#clip700)" d="M1741.93 1104.6 Q1745.29 1105.32 1747.17 1107.59 Q1749.06 1109.85 1749.06 1113.19 Q1749.06 1118.3 1745.54 1121.1 Q1742.03 1123.91 1735.54 1123.91 Q1733.37 1123.91 1731.05 1123.47 Q1728.76 1123.05 1726.31 1122.19 L1726.31 1117.68 Q1728.25 1118.81 1730.57 1119.39 Q1732.88 1119.97 1735.41 1119.97 Q1739.8 1119.97 1742.1 1118.23 Q1744.41 1116.5 1744.41 1113.19 Q1744.41 1110.13 1742.26 1108.42 Q1740.13 1106.68 1736.31 1106.68 L1732.28 1106.68 L1732.28 1102.84 L1736.49 1102.84 Q1739.94 1102.84 1741.77 1101.48 Q1743.6 1100.09 1743.6 1097.49 Q1743.6 1094.83 1741.7 1093.42 Q1739.83 1091.98 1736.31 1091.98 Q1734.39 1091.98 1732.19 1092.4 Q1729.99 1092.82 1727.35 1093.7 L1727.35 1089.53 Q1730.01 1088.79 1732.33 1088.42 Q1734.67 1088.05 1736.73 1088.05 Q1742.05 1088.05 1745.15 1090.48 Q1748.25 1092.89 1748.25 1097.01 Q1748.25 1099.88 1746.61 1101.87 Q1744.97 1103.84 1741.93 1104.6 Z" fill="#000000" fill-rule="nonzero" fill-opacity="1" /><path clip-path="url(#clip700)" d="M1688.95 838.026 L1718.62 838.026 L1718.62 841.962 L1688.95 841.962 L1688.95 838.026 Z" fill="#000000" fill-rule="nonzero" fill-opacity="1" /><path clip-path="url(#clip700)" d="M1732.74 850.92 L1749.06 850.92 L1749.06 854.855 L1727.12 854.855 L1727.12 850.92 Q1729.78 848.165 1734.36 843.536 Q1738.97 838.883 1740.15 837.54 Q1742.4 835.017 1743.28 833.281 Q1744.18 831.522 1744.18 829.832 Q1744.18 827.077 1742.23 825.341 Q1740.31 823.605 1737.21 823.605 Q1735.01 823.605 1732.56 824.369 Q1730.13 825.133 1727.35 826.684 L1727.35 821.962 Q1730.17 820.827 1732.63 820.249 Q1735.08 819.67 1737.12 819.67 Q1742.49 819.67 1745.68 822.355 Q1748.88 825.04 1748.88 829.531 Q1748.88 831.661 1748.07 833.582 Q1747.28 835.48 1745.17 838.073 Q1744.6 838.744 1741.49 841.962 Q1738.39 845.156 1732.74 850.92 Z" fill="#000000" fill-rule="nonzero" fill-opacity="1" /><path clip-path="url(#clip700)" d="M1688.58 569.647 L1718.25 569.647 L1718.25 573.582 L1688.58 573.582 L1688.58 569.647 Z" fill="#000000" fill-rule="nonzero" fill-opacity="1" /><path clip-path="url(#clip700)" d="M1729.16 582.54 L1736.79 582.54 L1736.79 556.175 L1728.48 557.841 L1728.48 553.582 L1736.75 551.915 L1741.42 551.915 L1741.42 582.54 L1749.06 582.54 L1749.06 586.475 L1729.16 586.475 L1729.16 582.54 Z" fill="#000000" fill-rule="nonzero" fill-opacity="1" /><path clip-path="url(#clip700)" d="M1737.12 286.615 Q1733.51 286.615 1731.68 290.179 Q1729.87 293.721 1729.87 300.851 Q1729.87 307.957 1731.68 311.522 Q1733.51 315.063 1737.12 315.063 Q1740.75 315.063 1742.56 311.522 Q1744.39 307.957 1744.39 300.851 Q1744.39 293.721 1742.56 290.179 Q1740.75 286.615 1737.12 286.615 M1737.12 282.911 Q1742.93 282.911 1745.98 287.517 Q1749.06 292.101 1749.06 300.851 Q1749.06 309.577 1745.98 314.184 Q1742.93 318.767 1737.12 318.767 Q1731.31 318.767 1728.23 314.184 Q1725.17 309.577 1725.17 300.851 Q1725.17 292.101 1728.23 287.517 Q1731.31 282.911 1737.12 282.911 Z" fill="#000000" fill-rule="nonzero" fill-opacity="1" /><path clip-path="url(#clip700)" d="M2116.53 12.096 L2124.71 12.096 L2124.71 65.6895 L2154.16 65.6895 L2154.16 72.576 L2116.53 72.576 L2116.53 12.096 Z" fill="#000000" fill-rule="nonzero" fill-opacity="1" /><path clip-path="url(#clip700)" d="M2183.04 49.7694 Q2174.01 49.7694 2170.52 51.8354 Q2167.04 53.9013 2167.04 58.8839 Q2167.04 62.8538 2169.63 65.2034 Q2172.27 67.5124 2176.76 67.5124 Q2182.96 67.5124 2186.69 63.1374 Q2190.46 58.7219 2190.46 51.4303 L2190.46 49.7694 L2183.04 49.7694 M2197.91 46.6907 L2197.91 72.576 L2190.46 72.576 L2190.46 65.6895 Q2187.9 69.8214 2184.1 71.8063 Q2180.29 73.7508 2174.78 73.7508 Q2167.81 73.7508 2163.68 69.8619 Q2159.59 65.9325 2159.59 59.3701 Q2159.59 51.7138 2164.69 47.825 Q2169.84 43.9361 2180 43.9361 L2190.46 43.9361 L2190.46 43.2069 Q2190.46 38.0623 2187.05 35.2672 Q2183.69 32.4315 2177.57 32.4315 Q2173.68 32.4315 2170 33.3632 Q2166.31 34.295 2162.91 36.1584 L2162.91 29.2718 Q2167 27.692 2170.85 26.9223 Q2174.7 26.1121 2178.34 26.1121 Q2188.19 26.1121 2193.05 31.2163 Q2197.91 36.3204 2197.91 46.6907 Z" fill="#000000" fill-rule="nonzero" fill-opacity="1" /><path clip-path="url(#clip700)" d="M2220.63 14.324 L2220.63 27.2059 L2235.99 27.2059 L2235.99 32.9987 L2220.63 32.9987 L2220.63 57.6282 Q2220.63 63.1779 2222.13 64.7578 Q2223.67 66.3376 2228.33 66.3376 L2235.99 66.3376 L2235.99 72.576 L2228.33 72.576 Q2219.7 72.576 2216.42 69.3758 Q2213.14 66.1351 2213.14 57.6282 L2213.14 32.9987 L2207.67 32.9987 L2207.67 27.2059 L2213.14 27.2059 L2213.14 14.324 L2220.63 14.324 Z" fill="#000000" fill-rule="nonzero" fill-opacity="1" /><path clip-path="url(#clip700)" d="M2284.6 48.0275 L2284.6 51.6733 L2250.33 51.6733 Q2250.81 59.3701 2254.95 63.421 Q2259.12 67.4314 2266.53 67.4314 Q2270.83 67.4314 2274.84 66.3781 Q2278.89 65.3249 2282.86 63.2184 L2282.86 70.267 Q2278.85 71.9684 2274.63 72.8596 Q2270.42 73.7508 2266.09 73.7508 Q2255.23 73.7508 2248.87 67.4314 Q2242.55 61.1119 2242.55 50.3365 Q2242.55 39.1965 2248.55 32.6746 Q2254.58 26.1121 2264.79 26.1121 Q2273.94 26.1121 2279.25 32.0264 Q2284.6 37.9003 2284.6 48.0275 M2277.14 45.84 Q2277.06 39.7232 2273.7 36.0774 Q2270.38 32.4315 2264.87 32.4315 Q2258.63 32.4315 2254.86 35.9558 Q2251.14 39.4801 2250.57 45.8805 L2277.14 45.84 Z" fill="#000000" fill-rule="nonzero" fill-opacity="1" /><path clip-path="url(#clip700)" d="M2334.55 45.1919 L2334.55 72.576 L2327.09 72.576 L2327.09 45.4349 Q2327.09 38.994 2324.58 35.7938 Q2322.07 32.5936 2317.05 32.5936 Q2311.01 32.5936 2307.53 36.4419 Q2304.04 40.2903 2304.04 46.9338 L2304.04 72.576 L2296.55 72.576 L2296.55 27.2059 L2304.04 27.2059 L2304.04 34.2544 Q2306.72 30.163 2310.32 28.1376 Q2313.97 26.1121 2318.71 26.1121 Q2326.53 26.1121 2330.54 30.9732 Q2334.55 35.7938 2334.55 45.1919 Z" fill="#000000" fill-rule="nonzero" fill-opacity="1" /><path clip-path="url(#clip700)" d="M2356.79 14.324 L2356.79 27.2059 L2372.14 27.2059 L2372.14 32.9987 L2356.79 32.9987 L2356.79 57.6282 Q2356.79 63.1779 2358.28 64.7578 Q2359.82 66.3376 2364.48 66.3376 L2372.14 66.3376 L2372.14 72.576 L2364.48 72.576 Q2355.85 72.576 2352.57 69.3758 Q2349.29 66.1351 2349.29 57.6282 L2349.29 32.9987 L2343.82 32.9987 L2343.82 27.2059 L2349.29 27.2059 L2349.29 14.324 L2356.79 14.324 Z" fill="#000000" fill-rule="nonzero" fill-opacity="1" /><path clip-path="url(#clip700)" d="M2437.24 28.5427 L2437.24 35.5912 Q2434.08 33.9709 2430.67 33.1607 Q2427.27 32.3505 2423.63 32.3505 Q2418.08 32.3505 2415.28 34.0519 Q2412.53 35.7533 2412.53 39.156 Q2412.53 41.7486 2414.51 43.2475 Q2416.5 44.7058 2422.49 46.0426 L2425.04 46.6097 Q2432.98 48.3111 2436.3 51.4303 Q2439.67 54.509 2439.67 60.0587 Q2439.67 66.3781 2434.64 70.0644 Q2429.66 73.7508 2420.91 73.7508 Q2417.27 73.7508 2413.3 73.0216 Q2409.37 72.3329 2404.99 70.9151 L2404.99 63.2184 Q2409.12 65.3654 2413.13 66.4591 Q2417.14 67.5124 2421.07 67.5124 Q2426.34 67.5124 2429.17 65.73 Q2432.01 63.9071 2432.01 60.6258 Q2432.01 57.5877 2429.94 55.9673 Q2427.92 54.3469 2420.99 52.8481 L2418.4 52.2405 Q2411.47 50.7821 2408.39 47.7845 Q2405.32 44.7463 2405.32 39.4801 Q2405.32 33.0797 2409.85 29.5959 Q2414.39 26.1121 2422.73 26.1121 Q2426.87 26.1121 2430.51 26.7198 Q2434.16 27.3274 2437.24 28.5427 Z" fill="#000000" fill-rule="nonzero" fill-opacity="1" /><path clip-path="url(#clip700)" d="M2458.75 65.7705 L2458.75 89.8329 L2451.25 89.8329 L2451.25 27.2059 L2458.75 27.2059 L2458.75 34.0924 Q2461.1 30.0415 2464.66 28.0971 Q2468.27 26.1121 2473.25 26.1121 Q2481.51 26.1121 2486.66 32.6746 Q2491.84 39.2371 2491.84 49.9314 Q2491.84 60.6258 2486.66 67.1883 Q2481.51 73.7508 2473.25 73.7508 Q2468.27 73.7508 2464.66 71.8063 Q2461.1 69.8214 2458.75 65.7705 M2484.11 49.9314 Q2484.11 41.7081 2480.7 37.0496 Q2477.34 32.3505 2471.43 32.3505 Q2465.51 32.3505 2462.11 37.0496 Q2458.75 41.7081 2458.75 49.9314 Q2458.75 58.1548 2462.11 62.8538 Q2465.51 67.5124 2471.43 67.5124 Q2477.34 67.5124 2480.7 62.8538 Q2484.11 58.1548 2484.11 49.9314 Z" fill="#000000" fill-rule="nonzero" fill-opacity="1" /><path clip-path="url(#clip700)" d="M2524.82 49.7694 Q2515.78 49.7694 2512.3 51.8354 Q2508.82 53.9013 2508.82 58.8839 Q2508.82 62.8538 2511.41 65.2034 Q2514.04 67.5124 2518.54 67.5124 Q2524.74 67.5124 2528.46 63.1374 Q2532.23 58.7219 2532.23 51.4303 L2532.23 49.7694 L2524.82 49.7694 M2539.68 46.6907 L2539.68 72.576 L2532.23 72.576 L2532.23 65.6895 Q2529.68 69.8214 2525.87 71.8063 Q2522.06 73.7508 2516.55 73.7508 Q2509.59 73.7508 2505.45 69.8619 Q2501.36 65.9325 2501.36 59.3701 Q2501.36 51.7138 2506.47 47.825 Q2511.61 43.9361 2521.78 43.9361 L2532.23 43.9361 L2532.23 43.2069 Q2532.23 38.0623 2528.83 35.2672 Q2525.46 32.4315 2519.35 32.4315 Q2515.46 32.4315 2511.77 33.3632 Q2508.09 34.295 2504.68 36.1584 L2504.68 29.2718 Q2508.78 27.692 2512.62 26.9223 Q2516.47 26.1121 2520.12 26.1121 Q2529.96 26.1121 2534.82 31.2163 Q2539.68 36.3204 2539.68 46.6907 Z" fill="#000000" fill-rule="nonzero" fill-opacity="1" /><path clip-path="url(#clip700)" d="M2587.69 28.9478 L2587.69 35.9153 Q2584.53 34.1734 2581.33 33.3227 Q2578.17 32.4315 2574.93 32.4315 Q2567.68 32.4315 2563.66 37.0496 Q2559.65 41.6271 2559.65 49.9314 Q2559.65 58.2358 2563.66 62.8538 Q2567.68 67.4314 2574.93 67.4314 Q2578.17 67.4314 2581.33 66.5807 Q2584.53 65.6895 2587.69 63.9476 L2587.69 70.8341 Q2584.57 72.2924 2581.21 73.0216 Q2577.88 73.7508 2574.12 73.7508 Q2563.87 73.7508 2557.83 67.3098 Q2551.8 60.8689 2551.8 49.9314 Q2551.8 38.832 2557.87 32.472 Q2563.99 26.1121 2574.6 26.1121 Q2578.05 26.1121 2581.33 26.8413 Q2584.61 27.5299 2587.69 28.9478 Z" fill="#000000" fill-rule="nonzero" fill-opacity="1" /><path clip-path="url(#clip700)" d="M2639.46 48.0275 L2639.46 51.6733 L2605.19 51.6733 Q2605.67 59.3701 2609.8 63.421 Q2613.98 67.4314 2621.39 67.4314 Q2625.68 67.4314 2629.69 66.3781 Q2633.75 65.3249 2637.72 63.2184 L2637.72 70.267 Q2633.71 71.9684 2629.49 72.8596 Q2625.28 73.7508 2620.94 73.7508 Q2610.09 73.7508 2603.73 67.4314 Q2597.41 61.1119 2597.41 50.3365 Q2597.41 39.1965 2603.4 32.6746 Q2609.44 26.1121 2619.65 26.1121 Q2628.8 26.1121 2634.11 32.0264 Q2639.46 37.9003 2639.46 48.0275 M2632 45.84 Q2631.92 39.7232 2628.56 36.0774 Q2625.24 32.4315 2619.73 32.4315 Q2613.49 32.4315 2609.72 35.9558 Q2606 39.4801 2605.43 45.8805 L2632 45.84 Z" fill="#000000" fill-rule="nonzero" fill-opacity="1" /><path clip-path="url(#clip700)" d="M2695.97 9.62495 Q2690.54 18.942 2687.91 28.0566 Q2685.27 37.1711 2685.27 46.5287 Q2685.27 55.8863 2687.91 65.0818 Q2690.58 74.2369 2695.97 83.5134 L2689.49 83.5134 Q2683.41 73.9938 2680.37 64.7983 Q2677.37 55.6027 2677.37 46.5287 Q2677.37 37.4952 2680.37 28.3401 Q2683.37 19.1851 2689.49 9.62495 L2695.97 9.62495 Z" fill="#000000" fill-rule="nonzero" fill-opacity="1" /><path clip-path="url(#clip700)" d="M2718.53 65.6895 L2747.09 65.6895 L2747.09 72.576 L2708.69 72.576 L2708.69 65.6895 Q2713.35 60.8689 2721.37 52.7671 Q2729.43 44.6248 2731.49 42.2752 Q2735.42 37.8598 2736.96 34.8216 Q2738.54 31.7429 2738.54 28.7857 Q2738.54 23.9651 2735.14 20.927 Q2731.78 17.8888 2726.35 17.8888 Q2722.5 17.8888 2718.21 19.2256 Q2713.95 20.5624 2709.09 23.2765 L2709.09 15.0127 Q2714.03 13.0277 2718.33 12.015 Q2722.62 11.0023 2726.19 11.0023 Q2735.59 11.0023 2741.18 15.7013 Q2746.77 20.4004 2746.77 28.2591 Q2746.77 31.9859 2745.35 35.3482 Q2743.97 38.6699 2740.28 43.2069 Q2739.27 44.3817 2733.84 50.0125 Q2728.42 55.6027 2718.53 65.6895 Z" fill="#000000" fill-rule="nonzero" fill-opacity="1" /><path clip-path="url(#clip700)" d="M2793.07 34.0924 L2793.07 9.54393 L2800.52 9.54393 L2800.52 72.576 L2793.07 72.576 L2793.07 65.7705 Q2790.72 69.8214 2787.11 71.8063 Q2783.55 73.7508 2778.52 73.7508 Q2770.3 73.7508 2765.12 67.1883 Q2759.97 60.6258 2759.97 49.9314 Q2759.97 39.2371 2765.12 32.6746 Q2770.3 26.1121 2778.52 26.1121 Q2783.55 26.1121 2787.11 28.0971 Q2790.72 30.0415 2793.07 34.0924 M2767.67 49.9314 Q2767.67 58.1548 2771.03 62.8538 Q2774.43 67.5124 2780.35 67.5124 Q2786.26 67.5124 2789.66 62.8538 Q2793.07 58.1548 2793.07 49.9314 Q2793.07 41.7081 2789.66 37.0496 Q2786.26 32.3505 2780.35 32.3505 Q2774.43 32.3505 2771.03 37.0496 Q2767.67 41.7081 2767.67 49.9314 Z" fill="#000000" fill-rule="nonzero" fill-opacity="1" /><path clip-path="url(#clip700)" d="M2814.7 9.62495 L2821.18 9.62495 Q2827.26 19.1851 2830.25 28.3401 Q2833.29 37.4952 2833.29 46.5287 Q2833.29 55.6027 2830.25 64.7983 Q2827.26 73.9938 2821.18 83.5134 L2814.7 83.5134 Q2820.09 74.2369 2822.72 65.0818 Q2825.39 55.8863 2825.39 46.5287 Q2825.39 37.1711 2822.72 28.0566 Q2820.09 18.942 2814.7 9.62495 Z" fill="#000000" fill-rule="nonzero" fill-opacity="1" /><circle clip-path="url(#clip703)" cx="1918.5" cy="345.253" r="14.4" fill="#800080" fill-rule="evenodd" fill-opacity="0.8" stroke="#000000" stroke-opacity="0.8" stroke-width="0"/>
<circle clip-path="url(#clip703)" cx="1903.82" cy="416.882" r="14.4" fill="#800080" fill-rule="evenodd" fill-opacity="0.8" stroke="#000000" stroke-opacity="0.8" stroke-width="0"/>
<circle clip-path="url(#clip703)" cx="1922.03" cy="398.507" r="14.4" fill="#800080" fill-rule="evenodd" fill-opacity="0.8" stroke="#000000" stroke-opacity="0.8" stroke-width="0"/>
<circle clip-path="url(#clip703)" cx="1963.96" cy="604.713" r="14.4" fill="#800080" fill-rule="evenodd" fill-opacity="0.8" stroke="#000000" stroke-opacity="0.8" stroke-width="0"/>
<circle clip-path="url(#clip703)" cx="1883.2" cy="424.718" r="14.4" fill="#800080" fill-rule="evenodd" fill-opacity="0.8" stroke="#000000" stroke-opacity="0.8" stroke-width="0"/>
<circle clip-path="url(#clip703)" cx="1961.35" cy="393.204" r="14.4" fill="#800080" fill-rule="evenodd" fill-opacity="0.8" stroke="#000000" stroke-opacity="0.8" stroke-width="0"/>
<circle clip-path="url(#clip703)" cx="1923.81" cy="424.916" r="14.4" fill="#800080" fill-rule="evenodd" fill-opacity="0.8" stroke="#000000" stroke-opacity="0.8" stroke-width="0"/>
<circle clip-path="url(#clip703)" cx="1925.3" cy="453.19" r="14.4" fill="#800080" fill-rule="evenodd" fill-opacity="0.8" stroke="#000000" stroke-opacity="0.8" stroke-width="0"/>
<circle clip-path="url(#clip703)" cx="1916.36" cy="496.815" r="14.4" fill="#800080" fill-rule="evenodd" fill-opacity="0.8" stroke="#000000" stroke-opacity="0.8" stroke-width="0"/>
<circle clip-path="url(#clip703)" cx="1902.54" cy="486.575" r="14.4" fill="#800080" fill-rule="evenodd" fill-opacity="0.8" stroke="#000000" stroke-opacity="0.8" stroke-width="0"/>
<circle clip-path="url(#clip703)" cx="1835.43" cy="414.153" r="14.4" fill="#800080" fill-rule="evenodd" fill-opacity="0.8" stroke="#000000" stroke-opacity="0.8" stroke-width="0"/>
<circle clip-path="url(#clip703)" cx="2012.99" cy="568.261" r="14.4" fill="#800080" fill-rule="evenodd" fill-opacity="0.8" stroke="#000000" stroke-opacity="0.8" stroke-width="0"/>
<circle clip-path="url(#clip703)" cx="1993.83" cy="582.032" r="14.4" fill="#800080" fill-rule="evenodd" fill-opacity="0.8" stroke="#000000" stroke-opacity="0.8" stroke-width="0"/>
<circle clip-path="url(#clip703)" cx="1944.41" cy="532.842" r="14.4" fill="#800080" fill-rule="evenodd" fill-opacity="0.8" stroke="#000000" stroke-opacity="0.8" stroke-width="0"/>
<circle clip-path="url(#clip703)" cx="1905.52" cy="402.886" r="14.4" fill="#800080" fill-rule="evenodd" fill-opacity="0.8" stroke="#000000" stroke-opacity="0.8" stroke-width="0"/>
<circle clip-path="url(#clip703)" cx="1902.57" cy="421.587" r="14.4" fill="#800080" fill-rule="evenodd" fill-opacity="0.8" stroke="#000000" stroke-opacity="0.8" stroke-width="0"/>
<circle clip-path="url(#clip703)" cx="1922.84" cy="497.698" r="14.4" fill="#800080" fill-rule="evenodd" fill-opacity="0.8" stroke="#000000" stroke-opacity="0.8" stroke-width="0"/>
<circle clip-path="url(#clip703)" cx="1886.19" cy="456.711" r="14.4" fill="#800080" fill-rule="evenodd" fill-opacity="0.8" stroke="#000000" stroke-opacity="0.8" stroke-width="0"/>
<circle clip-path="url(#clip703)" cx="2031.43" cy="615.161" r="14.4" fill="#800080" fill-rule="evenodd" fill-opacity="0.8" stroke="#000000" stroke-opacity="0.8" stroke-width="0"/>
<circle clip-path="url(#clip703)" cx="1903.93" cy="441.897" r="14.4" fill="#800080" fill-rule="evenodd" fill-opacity="0.8" stroke="#000000" stroke-opacity="0.8" stroke-width="0"/>
<circle clip-path="url(#clip703)" cx="1935.47" cy="490.689" r="14.4" fill="#800080" fill-rule="evenodd" fill-opacity="0.8" stroke="#000000" stroke-opacity="0.8" stroke-width="0"/>
<circle clip-path="url(#clip703)" cx="1906.2" cy="508.761" r="14.4" fill="#800080" fill-rule="evenodd" fill-opacity="0.8" stroke="#000000" stroke-opacity="0.8" stroke-width="0"/>
<circle clip-path="url(#clip703)" cx="1919.84" cy="414.858" r="14.4" fill="#800080" fill-rule="evenodd" fill-opacity="0.8" stroke="#000000" stroke-opacity="0.8" stroke-width="0"/>
<circle clip-path="url(#clip703)" cx="1913.5" cy="419.479" r="14.4" fill="#800080" fill-rule="evenodd" fill-opacity="0.8" stroke="#000000" stroke-opacity="0.8" stroke-width="0"/>
<circle clip-path="url(#clip703)" cx="1867.83" cy="432.423" r="14.4" fill="#800080" fill-rule="evenodd" fill-opacity="0.8" stroke="#000000" stroke-opacity="0.8" stroke-width="0"/>
<circle clip-path="url(#clip703)" cx="1909.9" cy="472.981" r="14.4" fill="#800080" fill-rule="evenodd" fill-opacity="0.8" stroke="#000000" stroke-opacity="0.8" stroke-width="0"/>
<circle clip-path="url(#clip703)" cx="1884.99" cy="331.724" r="14.4" fill="#800080" fill-rule="evenodd" fill-opacity="0.8" stroke="#000000" stroke-opacity="0.8" stroke-width="0"/>
<circle clip-path="url(#clip703)" cx="1988.12" cy="532.28" r="14.4" fill="#800080" fill-rule="evenodd" fill-opacity="0.8" stroke="#000000" stroke-opacity="0.8" stroke-width="0"/>
<circle clip-path="url(#clip703)" cx="1894.07" cy="407.796" r="14.4" fill="#800080" fill-rule="evenodd" fill-opacity="0.8" stroke="#000000" stroke-opacity="0.8" stroke-width="0"/>
<circle clip-path="url(#clip703)" cx="1899.94" cy="432.677" r="14.4" fill="#800080" fill-rule="evenodd" fill-opacity="0.8" stroke="#000000" stroke-opacity="0.8" stroke-width="0"/>
<circle clip-path="url(#clip703)" cx="1941.82" cy="513.275" r="14.4" fill="#800080" fill-rule="evenodd" fill-opacity="0.8" stroke="#000000" stroke-opacity="0.8" stroke-width="0"/>
<circle clip-path="url(#clip703)" cx="1894.1" cy="463.699" r="14.4" fill="#800080" fill-rule="evenodd" fill-opacity="0.8" stroke="#000000" stroke-opacity="0.8" stroke-width="0"/>
<circle clip-path="url(#clip703)" cx="1976.94" cy="482.48" r="14.4" fill="#800080" fill-rule="evenodd" fill-opacity="0.8" stroke="#000000" stroke-opacity="0.8" stroke-width="0"/>
<circle clip-path="url(#clip703)" cx="1906.02" cy="385.369" r="14.4" fill="#800080" fill-rule="evenodd" fill-opacity="0.8" stroke="#000000" stroke-opacity="0.8" stroke-width="0"/>
<circle clip-path="url(#clip703)" cx="1916.3" cy="408.726" r="14.4" fill="#800080" fill-rule="evenodd" fill-opacity="0.8" stroke="#000000" stroke-opacity="0.8" stroke-width="0"/>
<circle clip-path="url(#clip703)" cx="1911.97" cy="434.527" r="14.4" fill="#800080" fill-rule="evenodd" fill-opacity="0.8" stroke="#000000" stroke-opacity="0.8" stroke-width="0"/>
<circle clip-path="url(#clip703)" cx="1902.82" cy="508.115" r="14.4" fill="#800080" fill-rule="evenodd" fill-opacity="0.8" stroke="#000000" stroke-opacity="0.8" stroke-width="0"/>
<circle clip-path="url(#clip703)" cx="1954.65" cy="575.613" r="14.4" fill="#800080" fill-rule="evenodd" fill-opacity="0.8" stroke="#000000" stroke-opacity="0.8" stroke-width="0"/>
<circle clip-path="url(#clip703)" cx="1906.83" cy="401.544" r="14.4" fill="#800080" fill-rule="evenodd" fill-opacity="0.8" stroke="#000000" stroke-opacity="0.8" stroke-width="0"/>
<circle clip-path="url(#clip703)" cx="1863.2" cy="406.442" r="14.4" fill="#800080" fill-rule="evenodd" fill-opacity="0.8" stroke="#000000" stroke-opacity="0.8" stroke-width="0"/>
<circle clip-path="url(#clip703)" cx="1940.7" cy="454.105" r="14.4" fill="#800080" fill-rule="evenodd" fill-opacity="0.8" stroke="#000000" stroke-opacity="0.8" stroke-width="0"/>
<circle clip-path="url(#clip703)" cx="1971" cy="572.324" r="14.4" fill="#800080" fill-rule="evenodd" fill-opacity="0.8" stroke="#000000" stroke-opacity="0.8" stroke-width="0"/>
<circle clip-path="url(#clip703)" cx="1959.96" cy="477.056" r="14.4" fill="#800080" fill-rule="evenodd" fill-opacity="0.8" stroke="#000000" stroke-opacity="0.8" stroke-width="0"/>
<circle clip-path="url(#clip703)" cx="1916.07" cy="436.798" r="14.4" fill="#800080" fill-rule="evenodd" fill-opacity="0.8" stroke="#000000" stroke-opacity="0.8" stroke-width="0"/>
<circle clip-path="url(#clip703)" cx="2061.19" cy="705.371" r="14.4" fill="#800080" fill-rule="evenodd" fill-opacity="0.8" stroke="#000000" stroke-opacity="0.8" stroke-width="0"/>
<circle clip-path="url(#clip703)" cx="1958.3" cy="502.31" r="14.4" fill="#800080" fill-rule="evenodd" fill-opacity="0.8" stroke="#000000" stroke-opacity="0.8" stroke-width="0"/>
<circle clip-path="url(#clip703)" cx="1912.01" cy="456.301" r="14.4" fill="#800080" fill-rule="evenodd" fill-opacity="0.8" stroke="#000000" stroke-opacity="0.8" stroke-width="0"/>
<circle clip-path="url(#clip703)" cx="1870.33" cy="439.839" r="14.4" fill="#800080" fill-rule="evenodd" fill-opacity="0.8" stroke="#000000" stroke-opacity="0.8" stroke-width="0"/>
<circle clip-path="url(#clip703)" cx="1887.75" cy="442.976" r="14.4" fill="#800080" fill-rule="evenodd" fill-opacity="0.8" stroke="#000000" stroke-opacity="0.8" stroke-width="0"/>
<circle clip-path="url(#clip703)" cx="1939.94" cy="525.259" r="14.4" fill="#800080" fill-rule="evenodd" fill-opacity="0.8" stroke="#000000" stroke-opacity="0.8" stroke-width="0"/>
<circle clip-path="url(#clip703)" cx="2772.38" cy="980.339" r="14.4" fill="#ff0000" fill-rule="evenodd" fill-opacity="0.8" stroke="#000000" stroke-opacity="0.8" stroke-width="0"/>
<circle clip-path="url(#clip703)" cx="2739.99" cy="1002.91" r="14.4" fill="#ff0000" fill-rule="evenodd" fill-opacity="0.8" stroke="#000000" stroke-opacity="0.8" stroke-width="0"/>
<circle clip-path="url(#clip703)" cx="2826.39" cy="918.783" r="14.4" fill="#ff0000" fill-rule="evenodd" fill-opacity="0.8" stroke="#000000" stroke-opacity="0.8" stroke-width="0"/>
<circle clip-path="url(#clip703)" cx="2982.54" cy="1043.63" r="14.4" fill="#ff0000" fill-rule="evenodd" fill-opacity="0.8" stroke="#000000" stroke-opacity="0.8" stroke-width="0"/>
<circle clip-path="url(#clip703)" cx="2959.39" cy="905.064" r="14.4" fill="#ff0000" fill-rule="evenodd" fill-opacity="0.8" stroke="#000000" stroke-opacity="0.8" stroke-width="0"/>
<circle clip-path="url(#clip703)" cx="2996.78" cy="1009.57" r="14.4" fill="#ff0000" fill-rule="evenodd" fill-opacity="0.8" stroke="#000000" stroke-opacity="0.8" stroke-width="0"/>
<circle clip-path="url(#clip703)" cx="2773.62" cy="761.021" r="14.4" fill="#ff0000" fill-rule="evenodd" fill-opacity="0.8" stroke="#000000" stroke-opacity="0.8" stroke-width="0"/>
<circle clip-path="url(#clip703)" cx="2884.72" cy="910.469" r="14.4" fill="#ff0000" fill-rule="evenodd" fill-opacity="0.8" stroke="#000000" stroke-opacity="0.8" stroke-width="0"/>
<circle clip-path="url(#clip703)" cx="2988.83" cy="1071.29" r="14.4" fill="#ff0000" fill-rule="evenodd" fill-opacity="0.8" stroke="#000000" stroke-opacity="0.8" stroke-width="0"/>
<circle clip-path="url(#clip703)" cx="2949.24" cy="879.292" r="14.4" fill="#ff0000" fill-rule="evenodd" fill-opacity="0.8" stroke="#000000" stroke-opacity="0.8" stroke-width="0"/>
<circle clip-path="url(#clip703)" cx="2985.04" cy="893.972" r="14.4" fill="#ff0000" fill-rule="evenodd" fill-opacity="0.8" stroke="#000000" stroke-opacity="0.8" stroke-width="0"/>
<circle clip-path="url(#clip703)" cx="2914.05" cy="1006.28" r="14.4" fill="#ff0000" fill-rule="evenodd" fill-opacity="0.8" stroke="#000000" stroke-opacity="0.8" stroke-width="0"/>
<circle clip-path="url(#clip703)" cx="2908.43" cy="993.159" r="14.4" fill="#ff0000" fill-rule="evenodd" fill-opacity="0.8" stroke="#000000" stroke-opacity="0.8" stroke-width="0"/>
<circle clip-path="url(#clip703)" cx="2772.22" cy="1008.98" r="14.4" fill="#ff0000" fill-rule="evenodd" fill-opacity="0.8" stroke="#000000" stroke-opacity="0.8" stroke-width="0"/>
<circle clip-path="url(#clip703)" cx="2815.78" cy="1025.16" r="14.4" fill="#ff0000" fill-rule="evenodd" fill-opacity="0.8" stroke="#000000" stroke-opacity="0.8" stroke-width="0"/>
<circle clip-path="url(#clip703)" cx="3011.56" cy="1015.42" r="14.4" fill="#ff0000" fill-rule="evenodd" fill-opacity="0.8" stroke="#000000" stroke-opacity="0.8" stroke-width="0"/>
<circle clip-path="url(#clip703)" cx="3093.67" cy="958.804" r="14.4" fill="#ff0000" fill-rule="evenodd" fill-opacity="0.8" stroke="#000000" stroke-opacity="0.8" stroke-width="0"/>
<circle clip-path="url(#clip703)" cx="2720.66" cy="977.857" r="14.4" fill="#ff0000" fill-rule="evenodd" fill-opacity="0.8" stroke="#000000" stroke-opacity="0.8" stroke-width="0"/>
<circle clip-path="url(#clip703)" cx="2928.44" cy="931.743" r="14.4" fill="#ff0000" fill-rule="evenodd" fill-opacity="0.8" stroke="#000000" stroke-opacity="0.8" stroke-width="0"/>
<circle clip-path="url(#clip703)" cx="2830.13" cy="953.049" r="14.4" fill="#ff0000" fill-rule="evenodd" fill-opacity="0.8" stroke="#000000" stroke-opacity="0.8" stroke-width="0"/>
<circle clip-path="url(#clip703)" cx="2767.53" cy="934.847" r="14.4" fill="#ff0000" fill-rule="evenodd" fill-opacity="0.8" stroke="#000000" stroke-opacity="0.8" stroke-width="0"/>
<circle clip-path="url(#clip703)" cx="3004.87" cy="1015.33" r="14.4" fill="#ff0000" fill-rule="evenodd" fill-opacity="0.8" stroke="#000000" stroke-opacity="0.8" stroke-width="0"/>
<circle clip-path="url(#clip703)" cx="2714.29" cy="844.5" r="14.4" fill="#ff0000" fill-rule="evenodd" fill-opacity="0.8" stroke="#000000" stroke-opacity="0.8" stroke-width="0"/>
<circle clip-path="url(#clip703)" cx="2950.75" cy="1015.61" r="14.4" fill="#ff0000" fill-rule="evenodd" fill-opacity="0.8" stroke="#000000" stroke-opacity="0.8" stroke-width="0"/>
<circle clip-path="url(#clip703)" cx="2886.28" cy="981.871" r="14.4" fill="#ff0000" fill-rule="evenodd" fill-opacity="0.8" stroke="#000000" stroke-opacity="0.8" stroke-width="0"/>
<circle clip-path="url(#clip703)" cx="2618.97" cy="861.987" r="14.4" fill="#ff0000" fill-rule="evenodd" fill-opacity="0.8" stroke="#000000" stroke-opacity="0.8" stroke-width="0"/>
<circle clip-path="url(#clip703)" cx="2815.49" cy="960.141" r="14.4" fill="#ff0000" fill-rule="evenodd" fill-opacity="0.8" stroke="#000000" stroke-opacity="0.8" stroke-width="0"/>
<circle clip-path="url(#clip703)" cx="3036.81" cy="987.25" r="14.4" fill="#ff0000" fill-rule="evenodd" fill-opacity="0.8" stroke="#000000" stroke-opacity="0.8" stroke-width="0"/>
<circle clip-path="url(#clip703)" cx="2944.99" cy="955.01" r="14.4" fill="#ff0000" fill-rule="evenodd" fill-opacity="0.8" stroke="#000000" stroke-opacity="0.8" stroke-width="0"/>
<circle clip-path="url(#clip703)" cx="2873.6" cy="1010.3" r="14.4" fill="#ff0000" fill-rule="evenodd" fill-opacity="0.8" stroke="#000000" stroke-opacity="0.8" stroke-width="0"/>
<circle clip-path="url(#clip703)" cx="2830.27" cy="1008.39" r="14.4" fill="#ff0000" fill-rule="evenodd" fill-opacity="0.8" stroke="#000000" stroke-opacity="0.8" stroke-width="0"/>
<circle clip-path="url(#clip703)" cx="2927.05" cy="1039.15" r="14.4" fill="#ff0000" fill-rule="evenodd" fill-opacity="0.8" stroke="#000000" stroke-opacity="0.8" stroke-width="0"/>
<circle clip-path="url(#clip703)" cx="2615.83" cy="900.621" r="14.4" fill="#ff0000" fill-rule="evenodd" fill-opacity="0.8" stroke="#000000" stroke-opacity="0.8" stroke-width="0"/>
<circle clip-path="url(#clip703)" cx="2871.06" cy="931.35" r="14.4" fill="#ff0000" fill-rule="evenodd" fill-opacity="0.8" stroke="#000000" stroke-opacity="0.8" stroke-width="0"/>
<circle clip-path="url(#clip703)" cx="2846.92" cy="931.834" r="14.4" fill="#ff0000" fill-rule="evenodd" fill-opacity="0.8" stroke="#000000" stroke-opacity="0.8" stroke-width="0"/>
<circle clip-path="url(#clip703)" cx="3114.39" cy="1006.66" r="14.4" fill="#ff0000" fill-rule="evenodd" fill-opacity="0.8" stroke="#000000" stroke-opacity="0.8" stroke-width="0"/>
<circle clip-path="url(#clip703)" cx="2928.54" cy="962.264" r="14.4" fill="#ff0000" fill-rule="evenodd" fill-opacity="0.8" stroke="#000000" stroke-opacity="0.8" stroke-width="0"/>
<circle clip-path="url(#clip703)" cx="2885.46" cy="1002.5" r="14.4" fill="#ff0000" fill-rule="evenodd" fill-opacity="0.8" stroke="#000000" stroke-opacity="0.8" stroke-width="0"/>
<circle clip-path="url(#clip703)" cx="2931.8" cy="927.411" r="14.4" fill="#ff0000" fill-rule="evenodd" fill-opacity="0.8" stroke="#000000" stroke-opacity="0.8" stroke-width="0"/>
<circle clip-path="url(#clip703)" cx="2964.91" cy="968.241" r="14.4" fill="#ff0000" fill-rule="evenodd" fill-opacity="0.8" stroke="#000000" stroke-opacity="0.8" stroke-width="0"/>
<circle clip-path="url(#clip703)" cx="3008.69" cy="919.896" r="14.4" fill="#ff0000" fill-rule="evenodd" fill-opacity="0.8" stroke="#000000" stroke-opacity="0.8" stroke-width="0"/>
<circle clip-path="url(#clip703)" cx="2943.1" cy="998.375" r="14.4" fill="#ff0000" fill-rule="evenodd" fill-opacity="0.8" stroke="#000000" stroke-opacity="0.8" stroke-width="0"/>
<circle clip-path="url(#clip703)" cx="2885.34" cy="916.242" r="14.4" fill="#ff0000" fill-rule="evenodd" fill-opacity="0.8" stroke="#000000" stroke-opacity="0.8" stroke-width="0"/>
<circle clip-path="url(#clip703)" cx="2771.13" cy="850.274" r="14.4" fill="#ff0000" fill-rule="evenodd" fill-opacity="0.8" stroke="#000000" stroke-opacity="0.8" stroke-width="0"/>
<circle clip-path="url(#clip703)" cx="2932.19" cy="933.798" r="14.4" fill="#ff0000" fill-rule="evenodd" fill-opacity="0.8" stroke="#000000" stroke-opacity="0.8" stroke-width="0"/>
<circle clip-path="url(#clip703)" cx="2709.79" cy="993.615" r="14.4" fill="#ff0000" fill-rule="evenodd" fill-opacity="0.8" stroke="#000000" stroke-opacity="0.8" stroke-width="0"/>
<circle clip-path="url(#clip703)" cx="2857.36" cy="1003.67" r="14.4" fill="#ff0000" fill-rule="evenodd" fill-opacity="0.8" stroke="#000000" stroke-opacity="0.8" stroke-width="0"/>
<circle clip-path="url(#clip703)" cx="2916.06" cy="1062.95" r="14.4" fill="#ff0000" fill-rule="evenodd" fill-opacity="0.8" stroke="#000000" stroke-opacity="0.8" stroke-width="0"/>
<circle clip-path="url(#clip703)" cx="2799.55" cy="1032.45" r="14.4" fill="#ff0000" fill-rule="evenodd" fill-opacity="0.8" stroke="#000000" stroke-opacity="0.8" stroke-width="0"/>
<circle clip-path="url(#clip703)" cx="2781.06" cy="955.102" r="14.4" fill="#ff0000" fill-rule="evenodd" fill-opacity="0.8" stroke="#000000" stroke-opacity="0.8" stroke-width="0"/>
<circle clip-path="url(#clip703)" cx="2501.85" cy="470.911" r="36" fill="#ffff00" fill-rule="evenodd" fill-opacity="1" stroke="#000000" stroke-opacity="1" stroke-width="2.8"/>
<circle clip-path="url(#clip703)" cx="2960.68" cy="770.029" r="18" fill="#ffff00" fill-rule="evenodd" fill-opacity="1" stroke="#000000" stroke-opacity="1" stroke-width="2.8"/>
<circle clip-path="url(#clip703)" cx="2869" cy="680.313" r="18" fill="#ffff00" fill-rule="evenodd" fill-opacity="1" stroke="#000000" stroke-opacity="1" stroke-width="2.8"/>
<circle clip-path="url(#clip703)" cx="2668.21" cy="563.912" r="18" fill="#ffff00" fill-rule="evenodd" fill-opacity="1" stroke="#000000" stroke-opacity="1" stroke-width="2.8"/>
</svg>
