<?xml version="1.0" encoding="utf-8"?>
<svg xmlns="http://www.w3.org/2000/svg" xmlns:xlink="http://www.w3.org/1999/xlink" width="800" height="350" viewBox="0 0 3200 1400">
<defs>
  <clipPath id="clip650">
    <rect x="0" y="0" width="3200" height="1400"/>
  </clipPath>
</defs>
<path clip-path="url(#clip650)" d="M0 1400 L3200 1400 L3200 0 L0 0  Z" fill="#ffffff" fill-rule="evenodd" fill-opacity="1"/>
<defs>
  <clipPath id="clip651">
    <rect x="640" y="0" width="2241" height="1400"/>
  </clipPath>
</defs>
<defs>
  <clipPath id="clip652">
    <rect x="155" y="102" width="1394" height="1199"/>
  </clipPath>
</defs>
<path clip-path="url(#clip652)" d="M1994 10.6501 L1994 -155.711 L2052.84 -238.892 L2154.75 -190.868 L2154.75 -24.5062 L2095.91 58.6745 L1994 10.6501  Z" fill="#ffffff" fill-rule="evenodd" fill-opacity="1"/>
<polyline clip-path="url(#clip652)" style="stroke:#000000; stroke-linecap:round; stroke-linejoin:round; stroke-width:2; stroke-opacity:0.1; fill:none" points="440.398,1081.68 786.128,782.265 786.128,183.442 "/>
<polyline clip-path="url(#clip652)" style="stroke:#000000; stroke-linecap:round; stroke-linejoin:round; stroke-width:2; stroke-opacity:0.1; fill:none" points="567.79,1118.45 913.52,819.04 913.52,220.217 "/>
<polyline clip-path="url(#clip652)" style="stroke:#000000; stroke-linecap:round; stroke-linejoin:round; stroke-width:2; stroke-opacity:0.1; fill:none" points="695.182,1155.23 1040.91,855.815 1040.91,256.992 "/>
<polyline clip-path="url(#clip652)" style="stroke:#000000; stroke-linecap:round; stroke-linejoin:round; stroke-width:2; stroke-opacity:0.1; fill:none" points="822.574,1192 1168.3,892.59 1168.3,293.767 "/>
<polyline clip-path="url(#clip652)" style="stroke:#000000; stroke-linecap:round; stroke-linejoin:round; stroke-width:2; stroke-opacity:0.1; fill:none" points="949.966,1228.78 1295.7,929.365 1295.7,330.542 "/>
<polyline clip-path="url(#clip650)" style="stroke:#000000; stroke-linecap:round; stroke-linejoin:round; stroke-width:4; stroke-opacity:1; fill:none" points="379.821,1064.19 978.643,1237.05 "/>
<polyline clip-path="url(#clip650)" style="stroke:#000000; stroke-linecap:round; stroke-linejoin:round; stroke-width:4; stroke-opacity:1; fill:none" points="440.398,1081.68 444.547,1078.08 "/>
<polyline clip-path="url(#clip650)" style="stroke:#000000; stroke-linecap:round; stroke-linejoin:round; stroke-width:4; stroke-opacity:1; fill:none" points="567.79,1118.45 571.939,1114.86 "/>
<polyline clip-path="url(#clip650)" style="stroke:#000000; stroke-linecap:round; stroke-linejoin:round; stroke-width:4; stroke-opacity:1; fill:none" points="695.182,1155.23 699.331,1151.63 "/>
<polyline clip-path="url(#clip650)" style="stroke:#000000; stroke-linecap:round; stroke-linejoin:round; stroke-width:4; stroke-opacity:1; fill:none" points="822.574,1192 826.723,1188.41 "/>
<polyline clip-path="url(#clip650)" style="stroke:#000000; stroke-linecap:round; stroke-linejoin:round; stroke-width:4; stroke-opacity:1; fill:none" points="949.966,1228.78 954.115,1225.18 "/>
<path clip-path="url(#clip650)" d="M286.923 1116.86 L316.599 1116.86 L316.599 1120.8 L286.923 1120.8 L286.923 1116.86 Z" fill="#000000" fill-rule="nonzero" fill-opacity="1" /><path clip-path="url(#clip650)" d="M327.502 1129.76 L335.141 1129.76 L335.141 1103.39 L326.831 1105.06 L326.831 1100.8 L335.094 1099.13 L339.77 1099.13 L339.77 1129.76 L347.409 1129.76 L347.409 1133.69 L327.502 1133.69 L327.502 1129.76 Z" fill="#000000" fill-rule="nonzero" fill-opacity="1" /><path clip-path="url(#clip650)" d="M356.9 1099.13 L375.256 1099.13 L375.256 1103.07 L361.182 1103.07 L361.182 1111.54 Q362.201 1111.19 363.219 1111.03 Q364.238 1110.85 365.256 1110.85 Q371.043 1110.85 374.423 1114.02 Q377.803 1117.19 377.803 1122.61 Q377.803 1128.18 374.33 1131.29 Q370.858 1134.36 364.539 1134.36 Q362.363 1134.36 360.094 1133.99 Q357.849 1133.62 355.442 1132.88 L355.442 1128.18 Q357.525 1129.32 359.747 1129.87 Q361.969 1130.43 364.446 1130.43 Q368.451 1130.43 370.789 1128.32 Q373.127 1126.22 373.127 1122.61 Q373.127 1118.99 370.789 1116.89 Q368.451 1114.78 364.446 1114.78 Q362.571 1114.78 360.696 1115.2 Q358.844 1115.61 356.9 1116.49 L356.9 1099.13 Z" fill="#000000" fill-rule="nonzero" fill-opacity="1" /><path clip-path="url(#clip650)" d="M387.015 1127.81 L391.9 1127.81 L391.9 1133.69 L387.015 1133.69 L387.015 1127.81 Z" fill="#000000" fill-rule="nonzero" fill-opacity="1" /><path clip-path="url(#clip650)" d="M412.085 1102.21 Q408.474 1102.21 406.645 1105.78 Q404.839 1109.32 404.839 1116.45 Q404.839 1123.55 406.645 1127.12 Q408.474 1130.66 412.085 1130.66 Q415.719 1130.66 417.525 1127.12 Q419.353 1123.55 419.353 1116.45 Q419.353 1109.32 417.525 1105.78 Q415.719 1102.21 412.085 1102.21 M412.085 1098.51 Q417.895 1098.51 420.95 1103.11 Q424.029 1107.7 424.029 1116.45 Q424.029 1125.17 420.95 1129.78 Q417.895 1134.36 412.085 1134.36 Q406.275 1134.36 403.196 1129.78 Q400.14 1125.17 400.14 1116.45 Q400.14 1107.7 403.196 1103.11 Q406.275 1098.51 412.085 1098.51 Z" fill="#000000" fill-rule="nonzero" fill-opacity="1" /><path clip-path="url(#clip650)" d="M415.311 1153.64 L444.986 1153.64 L444.986 1157.57 L415.311 1157.57 L415.311 1153.64 Z" fill="#000000" fill-rule="nonzero" fill-opacity="1" /><path clip-path="url(#clip650)" d="M455.889 1166.53 L463.528 1166.53 L463.528 1140.17 L455.218 1141.83 L455.218 1137.57 L463.482 1135.91 L468.158 1135.91 L468.158 1166.53 L475.797 1166.53 L475.797 1170.47 L455.889 1170.47 L455.889 1166.53 Z" fill="#000000" fill-rule="nonzero" fill-opacity="1" /><path clip-path="url(#clip650)" d="M489.269 1166.53 L505.588 1166.53 L505.588 1170.47 L483.644 1170.47 L483.644 1166.53 Q486.306 1163.78 490.889 1159.15 Q495.495 1154.5 496.676 1153.15 Q498.921 1150.63 499.801 1148.89 Q500.704 1147.13 500.704 1145.45 Q500.704 1142.69 498.759 1140.95 Q496.838 1139.22 493.736 1139.22 Q491.537 1139.22 489.083 1139.98 Q486.653 1140.75 483.875 1142.3 L483.875 1137.57 Q486.699 1136.44 489.153 1135.86 Q491.607 1135.28 493.644 1135.28 Q499.014 1135.28 502.208 1137.97 Q505.403 1140.65 505.403 1145.14 Q505.403 1147.27 504.593 1149.2 Q503.806 1151.09 501.699 1153.69 Q501.12 1154.36 498.019 1157.57 Q494.917 1160.77 489.269 1166.53 Z" fill="#000000" fill-rule="nonzero" fill-opacity="1" /><path clip-path="url(#clip650)" d="M515.403 1164.59 L520.287 1164.59 L520.287 1170.47 L515.403 1170.47 L515.403 1164.59 Z" fill="#000000" fill-rule="nonzero" fill-opacity="1" /><path clip-path="url(#clip650)" d="M530.518 1135.91 L548.875 1135.91 L548.875 1139.84 L534.801 1139.84 L534.801 1148.32 Q535.819 1147.97 536.838 1147.81 Q537.856 1147.62 538.875 1147.62 Q544.662 1147.62 548.041 1150.79 Q551.421 1153.96 551.421 1159.38 Q551.421 1164.96 547.949 1168.06 Q544.477 1171.14 538.157 1171.14 Q535.981 1171.14 533.713 1170.77 Q531.468 1170.4 529.06 1169.66 L529.06 1164.96 Q531.143 1166.09 533.366 1166.65 Q535.588 1167.2 538.065 1167.2 Q542.069 1167.2 544.407 1165.1 Q546.745 1162.99 546.745 1159.38 Q546.745 1155.77 544.407 1153.66 Q542.069 1151.56 538.065 1151.56 Q536.19 1151.56 534.315 1151.97 Q532.463 1152.39 530.518 1153.27 L530.518 1135.91 Z" fill="#000000" fill-rule="nonzero" fill-opacity="1" /><path clip-path="url(#clip650)" d="M541.707 1190.41 L571.383 1190.41 L571.383 1194.35 L541.707 1194.35 L541.707 1190.41 Z" fill="#000000" fill-rule="nonzero" fill-opacity="1" /><path clip-path="url(#clip650)" d="M582.286 1203.31 L589.925 1203.31 L589.925 1176.94 L581.615 1178.61 L581.615 1174.35 L589.878 1172.68 L594.554 1172.68 L594.554 1203.31 L602.193 1203.31 L602.193 1207.24 L582.286 1207.24 L582.286 1203.31 Z" fill="#000000" fill-rule="nonzero" fill-opacity="1" /><path clip-path="url(#clip650)" d="M621.637 1175.76 Q618.026 1175.76 616.198 1179.33 Q614.392 1182.87 614.392 1190 Q614.392 1197.1 616.198 1200.67 Q618.026 1204.21 621.637 1204.21 Q625.272 1204.21 627.077 1200.67 Q628.906 1197.1 628.906 1190 Q628.906 1182.87 627.077 1179.33 Q625.272 1175.76 621.637 1175.76 M621.637 1172.06 Q627.448 1172.06 630.503 1176.66 Q633.582 1181.25 633.582 1190 Q633.582 1198.72 630.503 1203.33 Q627.448 1207.91 621.637 1207.91 Q615.827 1207.91 612.749 1203.33 Q609.693 1198.72 609.693 1190 Q609.693 1181.25 612.749 1176.66 Q615.827 1172.06 621.637 1172.06 Z" fill="#000000" fill-rule="nonzero" fill-opacity="1" /><path clip-path="url(#clip650)" d="M641.799 1201.36 L646.684 1201.36 L646.684 1207.24 L641.799 1207.24 L641.799 1201.36 Z" fill="#000000" fill-rule="nonzero" fill-opacity="1" /><path clip-path="url(#clip650)" d="M666.869 1175.76 Q663.258 1175.76 661.429 1179.33 Q659.623 1182.87 659.623 1190 Q659.623 1197.1 661.429 1200.67 Q663.258 1204.21 666.869 1204.21 Q670.503 1204.21 672.308 1200.67 Q674.137 1197.1 674.137 1190 Q674.137 1182.87 672.308 1179.33 Q670.503 1175.76 666.869 1175.76 M666.869 1172.06 Q672.679 1172.06 675.734 1176.66 Q678.813 1181.25 678.813 1190 Q678.813 1198.72 675.734 1203.33 Q672.679 1207.91 666.869 1207.91 Q661.059 1207.91 657.98 1203.33 Q654.924 1198.72 654.924 1190 Q654.924 1181.25 657.98 1176.66 Q661.059 1172.06 666.869 1172.06 Z" fill="#000000" fill-rule="nonzero" fill-opacity="1" /><path clip-path="url(#clip650)" d="M700.257 1227.19 L729.932 1227.19 L729.932 1231.12 L700.257 1231.12 L700.257 1227.19 Z" fill="#000000" fill-rule="nonzero" fill-opacity="1" /><path clip-path="url(#clip650)" d="M738.844 1209.46 L761.066 1209.46 L761.066 1211.45 L748.52 1244.02 L743.636 1244.02 L755.441 1213.39 L738.844 1213.39 L738.844 1209.46 Z" fill="#000000" fill-rule="nonzero" fill-opacity="1" /><path clip-path="url(#clip650)" d="M770.187 1238.14 L775.071 1238.14 L775.071 1244.02 L770.187 1244.02 L770.187 1238.14 Z" fill="#000000" fill-rule="nonzero" fill-opacity="1" /><path clip-path="url(#clip650)" d="M785.302 1209.46 L803.659 1209.46 L803.659 1213.39 L789.585 1213.39 L789.585 1221.87 Q790.603 1221.52 791.622 1221.36 Q792.64 1221.17 793.659 1221.17 Q799.446 1221.17 802.825 1224.34 Q806.205 1227.51 806.205 1232.93 Q806.205 1238.51 802.733 1241.61 Q799.261 1244.69 792.941 1244.69 Q790.765 1244.69 788.497 1244.32 Q786.251 1243.95 783.844 1243.21 L783.844 1238.51 Q785.927 1239.64 788.15 1240.2 Q790.372 1240.75 792.849 1240.75 Q796.853 1240.75 799.191 1238.65 Q801.529 1236.54 801.529 1232.93 Q801.529 1229.32 799.191 1227.21 Q796.853 1225.11 792.849 1225.11 Q790.974 1225.11 789.099 1225.52 Q787.247 1225.94 785.302 1226.82 L785.302 1209.46 Z" fill="#000000" fill-rule="nonzero" fill-opacity="1" /><path clip-path="url(#clip650)" d="M826.653 1263.96 L856.329 1263.96 L856.329 1267.9 L826.653 1267.9 L826.653 1263.96 Z" fill="#000000" fill-rule="nonzero" fill-opacity="1" /><path clip-path="url(#clip650)" d="M866.468 1246.23 L884.824 1246.23 L884.824 1250.17 L870.75 1250.17 L870.75 1258.64 Q871.769 1258.29 872.787 1258.13 Q873.806 1257.95 874.824 1257.95 Q880.611 1257.95 883.991 1261.12 Q887.37 1264.29 887.37 1269.7 Q887.37 1275.28 883.898 1278.39 Q880.426 1281.46 874.107 1281.46 Q871.931 1281.46 869.662 1281.09 Q867.417 1280.72 865.009 1279.98 L865.009 1275.28 Q867.093 1276.42 869.315 1276.97 Q871.537 1277.53 874.014 1277.53 Q878.019 1277.53 880.357 1275.42 Q882.694 1273.32 882.694 1269.7 Q882.694 1266.09 880.357 1263.99 Q878.019 1261.88 874.014 1261.88 Q872.139 1261.88 870.264 1262.3 Q868.412 1262.71 866.468 1263.59 L866.468 1246.23 Z" fill="#000000" fill-rule="nonzero" fill-opacity="1" /><path clip-path="url(#clip650)" d="M896.583 1274.91 L901.468 1274.91 L901.468 1280.79 L896.583 1280.79 L896.583 1274.91 Z" fill="#000000" fill-rule="nonzero" fill-opacity="1" /><path clip-path="url(#clip650)" d="M921.653 1249.31 Q918.042 1249.31 916.213 1252.88 Q914.407 1256.42 914.407 1263.55 Q914.407 1270.65 916.213 1274.22 Q918.042 1277.76 921.653 1277.76 Q925.287 1277.76 927.092 1274.22 Q928.921 1270.65 928.921 1263.55 Q928.921 1256.42 927.092 1252.88 Q925.287 1249.31 921.653 1249.31 M921.653 1245.61 Q927.463 1245.61 930.518 1250.21 Q933.597 1254.8 933.597 1263.55 Q933.597 1272.27 930.518 1276.88 Q927.463 1281.46 921.653 1281.46 Q915.842 1281.46 912.764 1276.88 Q909.708 1272.27 909.708 1263.55 Q909.708 1254.8 912.764 1250.21 Q915.842 1245.61 921.653 1245.61 Z" fill="#000000" fill-rule="nonzero" fill-opacity="1" /><polyline clip-path="url(#clip652)" style="stroke:#000000; stroke-linecap:round; stroke-linejoin:round; stroke-width:2; stroke-opacity:0.1; fill:none" points="995.833,1222.17 397.01,1049.3 397.01,450.48 "/>
<polyline clip-path="url(#clip652)" style="stroke:#000000; stroke-linecap:round; stroke-linejoin:round; stroke-width:2; stroke-opacity:0.1; fill:none" points="1043.86,1180.58 445.034,1007.71 445.034,408.89 "/>
<polyline clip-path="url(#clip652)" style="stroke:#000000; stroke-linecap:round; stroke-linejoin:round; stroke-width:2; stroke-opacity:0.1; fill:none" points="1091.88,1138.99 493.059,966.122 493.059,367.3 "/>
<polyline clip-path="url(#clip652)" style="stroke:#000000; stroke-linecap:round; stroke-linejoin:round; stroke-width:2; stroke-opacity:0.1; fill:none" points="1139.91,1097.4 541.083,924.532 541.083,325.709 "/>
<polyline clip-path="url(#clip652)" style="stroke:#000000; stroke-linecap:round; stroke-linejoin:round; stroke-width:2; stroke-opacity:0.1; fill:none" points="1187.93,1055.81 589.107,882.942 589.107,284.119 "/>
<polyline clip-path="url(#clip652)" style="stroke:#000000; stroke-linecap:round; stroke-linejoin:round; stroke-width:2; stroke-opacity:0.1; fill:none" points="1235.95,1014.22 637.132,841.351 637.132,242.529 "/>
<polyline clip-path="url(#clip652)" style="stroke:#000000; stroke-linecap:round; stroke-linejoin:round; stroke-width:2; stroke-opacity:0.1; fill:none" points="1283.98,972.626 685.156,799.761 685.156,200.938 "/>
<polyline clip-path="url(#clip650)" style="stroke:#000000; stroke-linecap:round; stroke-linejoin:round; stroke-width:4; stroke-opacity:1; fill:none" points="978.643,1237.05 1324.37,937.643 "/>
<polyline clip-path="url(#clip650)" style="stroke:#000000; stroke-linecap:round; stroke-linejoin:round; stroke-width:4; stroke-opacity:1; fill:none" points="995.833,1222.17 988.647,1220.09 "/>
<polyline clip-path="url(#clip650)" style="stroke:#000000; stroke-linecap:round; stroke-linejoin:round; stroke-width:4; stroke-opacity:1; fill:none" points="1043.86,1180.58 1036.67,1178.5 "/>
<polyline clip-path="url(#clip650)" style="stroke:#000000; stroke-linecap:round; stroke-linejoin:round; stroke-width:4; stroke-opacity:1; fill:none" points="1091.88,1138.99 1084.7,1136.91 "/>
<polyline clip-path="url(#clip650)" style="stroke:#000000; stroke-linecap:round; stroke-linejoin:round; stroke-width:4; stroke-opacity:1; fill:none" points="1139.91,1097.4 1132.72,1095.32 "/>
<polyline clip-path="url(#clip650)" style="stroke:#000000; stroke-linecap:round; stroke-linejoin:round; stroke-width:4; stroke-opacity:1; fill:none" points="1187.93,1055.81 1180.74,1053.73 "/>
<polyline clip-path="url(#clip650)" style="stroke:#000000; stroke-linecap:round; stroke-linejoin:round; stroke-width:4; stroke-opacity:1; fill:none" points="1235.95,1014.22 1228.77,1012.14 "/>
<polyline clip-path="url(#clip650)" style="stroke:#000000; stroke-linecap:round; stroke-linejoin:round; stroke-width:4; stroke-opacity:1; fill:none" points="1283.98,972.626 1276.79,970.552 "/>
<path clip-path="url(#clip650)" d="M1027.18 1244.8 L1056.86 1244.8 L1056.86 1248.73 L1027.18 1248.73 L1027.18 1244.8 Z" fill="#000000" fill-rule="nonzero" fill-opacity="1" /><path clip-path="url(#clip650)" d="M1076.95 1245.21 Q1073.62 1245.21 1071.7 1246.99 Q1069.8 1248.78 1069.8 1251.9 Q1069.8 1255.03 1071.7 1256.81 Q1073.62 1258.59 1076.95 1258.59 Q1080.28 1258.59 1082.21 1256.81 Q1084.13 1255 1084.13 1251.9 Q1084.13 1248.78 1082.21 1246.99 Q1080.31 1245.21 1076.95 1245.21 M1072.27 1243.22 Q1069.27 1242.48 1067.58 1240.42 Q1065.91 1238.36 1065.91 1235.4 Q1065.91 1231.25 1068.85 1228.85 Q1071.81 1226.44 1076.95 1226.44 Q1082.11 1226.44 1085.05 1228.85 Q1087.99 1231.25 1087.99 1235.4 Q1087.99 1238.36 1086.3 1240.42 Q1084.64 1242.48 1081.65 1243.22 Q1085.03 1244.01 1086.9 1246.3 Q1088.8 1248.59 1088.8 1251.9 Q1088.8 1256.93 1085.72 1259.61 Q1082.67 1262.3 1076.95 1262.3 Q1071.23 1262.3 1068.15 1259.61 Q1065.1 1256.93 1065.1 1251.9 Q1065.1 1248.59 1067 1246.3 Q1068.9 1244.01 1072.27 1243.22 M1070.56 1235.84 Q1070.56 1238.52 1072.23 1240.03 Q1073.92 1241.53 1076.95 1241.53 Q1079.96 1241.53 1081.65 1240.03 Q1083.36 1238.52 1083.36 1235.84 Q1083.36 1233.15 1081.65 1231.65 Q1079.96 1230.14 1076.95 1230.14 Q1073.92 1230.14 1072.23 1231.65 Q1070.56 1233.15 1070.56 1235.84 Z" fill="#000000" fill-rule="nonzero" fill-opacity="1" /><path clip-path="url(#clip650)" d="M1075.21 1203.21 L1104.88 1203.21 L1104.88 1207.14 L1075.21 1207.14 L1075.21 1203.21 Z" fill="#000000" fill-rule="nonzero" fill-opacity="1" /><path clip-path="url(#clip650)" d="M1113.79 1185.47 L1136.02 1185.47 L1136.02 1187.46 L1123.47 1220.03 L1118.59 1220.03 L1130.39 1189.41 L1113.79 1189.41 L1113.79 1185.47 Z" fill="#000000" fill-rule="nonzero" fill-opacity="1" /><path clip-path="url(#clip650)" d="M1123.23 1161.61 L1152.91 1161.61 L1152.91 1165.55 L1123.23 1165.55 L1123.23 1161.61 Z" fill="#000000" fill-rule="nonzero" fill-opacity="1" /><path clip-path="url(#clip650)" d="M1173.58 1159.3 Q1170.43 1159.3 1168.58 1161.45 Q1166.75 1163.61 1166.75 1167.36 Q1166.75 1171.08 1168.58 1173.26 Q1170.43 1175.41 1173.58 1175.41 Q1176.73 1175.41 1178.55 1173.26 Q1180.41 1171.08 1180.41 1167.36 Q1180.41 1163.61 1178.55 1161.45 Q1176.73 1159.3 1173.58 1159.3 M1182.86 1144.65 L1182.86 1148.91 Q1181.1 1148.07 1179.3 1147.63 Q1177.51 1147.19 1175.75 1147.19 Q1171.12 1147.19 1168.67 1150.32 Q1166.24 1153.44 1165.89 1159.76 Q1167.26 1157.75 1169.32 1156.68 Q1171.38 1155.6 1173.86 1155.6 Q1179.06 1155.6 1182.07 1158.77 Q1185.11 1161.92 1185.11 1167.36 Q1185.11 1172.68 1181.96 1175.9 Q1178.81 1179.11 1173.58 1179.11 Q1167.58 1179.11 1164.41 1174.53 Q1161.24 1169.93 1161.24 1161.2 Q1161.24 1153 1165.13 1148.14 Q1169.02 1143.26 1175.57 1143.26 Q1177.33 1143.26 1179.11 1143.61 Q1180.92 1143.95 1182.86 1144.65 Z" fill="#000000" fill-rule="nonzero" fill-opacity="1" /><path clip-path="url(#clip650)" d="M1171.26 1120.02 L1200.93 1120.02 L1200.93 1123.96 L1171.26 1123.96 L1171.26 1120.02 Z" fill="#000000" fill-rule="nonzero" fill-opacity="1" /><path clip-path="url(#clip650)" d="M1211.07 1102.29 L1229.43 1102.29 L1229.43 1106.23 L1215.35 1106.23 L1215.35 1114.7 Q1216.37 1114.35 1217.39 1114.19 Q1218.41 1114.01 1219.43 1114.01 Q1225.21 1114.01 1228.59 1117.18 Q1231.97 1120.35 1231.97 1125.77 Q1231.97 1131.34 1228.5 1134.45 Q1225.03 1137.52 1218.71 1137.52 Q1216.53 1137.52 1214.26 1137.15 Q1212.02 1136.78 1209.61 1136.04 L1209.61 1131.34 Q1211.7 1132.48 1213.92 1133.03 Q1216.14 1133.59 1218.62 1133.59 Q1222.62 1133.59 1224.96 1131.48 Q1227.3 1129.38 1227.3 1125.77 Q1227.3 1122.15 1224.96 1120.05 Q1222.62 1117.94 1218.62 1117.94 Q1216.74 1117.94 1214.87 1118.36 Q1213.01 1118.77 1211.07 1119.65 L1211.07 1102.29 Z" fill="#000000" fill-rule="nonzero" fill-opacity="1" /><path clip-path="url(#clip650)" d="M1219.28 1078.43 L1248.96 1078.43 L1248.96 1082.37 L1219.28 1082.37 L1219.28 1078.43 Z" fill="#000000" fill-rule="nonzero" fill-opacity="1" /><path clip-path="url(#clip650)" d="M1271.9 1064.78 L1260.09 1083.23 L1271.9 1083.23 L1271.9 1064.78 M1270.67 1060.7 L1276.55 1060.7 L1276.55 1083.23 L1281.48 1083.23 L1281.48 1087.11 L1276.55 1087.11 L1276.55 1095.26 L1271.9 1095.26 L1271.9 1087.11 L1256.29 1087.11 L1256.29 1082.6 L1270.67 1060.7 Z" fill="#000000" fill-rule="nonzero" fill-opacity="1" /><path clip-path="url(#clip650)" d="M1267.3 1036.84 L1296.98 1036.84 L1296.98 1040.78 L1267.3 1040.78 L1267.3 1036.84 Z" fill="#000000" fill-rule="nonzero" fill-opacity="1" /><path clip-path="url(#clip650)" d="M1321.24 1035.04 Q1324.6 1035.76 1326.47 1038.02 Q1328.37 1040.29 1328.37 1043.63 Q1328.37 1048.74 1324.85 1051.54 Q1321.33 1054.34 1314.85 1054.34 Q1312.67 1054.34 1310.36 1053.9 Q1308.07 1053.49 1305.61 1052.63 L1305.61 1048.12 Q1307.56 1049.25 1309.87 1049.83 Q1312.19 1050.41 1314.71 1050.41 Q1319.11 1050.41 1321.4 1048.67 Q1323.72 1046.94 1323.72 1043.63 Q1323.72 1040.57 1321.56 1038.86 Q1319.43 1037.12 1315.61 1037.12 L1311.59 1037.12 L1311.59 1033.28 L1315.8 1033.28 Q1319.25 1033.28 1321.08 1031.91 Q1322.91 1030.52 1322.91 1027.93 Q1322.91 1025.27 1321.01 1023.86 Q1319.13 1022.42 1315.61 1022.42 Q1313.69 1022.42 1311.49 1022.84 Q1309.29 1023.26 1306.66 1024.14 L1306.66 1019.97 Q1309.32 1019.23 1311.63 1018.86 Q1313.97 1018.49 1316.03 1018.49 Q1321.35 1018.49 1324.46 1020.92 Q1327.56 1023.33 1327.56 1027.45 Q1327.56 1030.32 1325.92 1032.31 Q1324.27 1034.27 1321.24 1035.04 Z" fill="#000000" fill-rule="nonzero" fill-opacity="1" /><path clip-path="url(#clip650)" d="M1315.33 995.254 L1345 995.254 L1345 999.189 L1315.33 999.189 L1315.33 995.254 Z" fill="#000000" fill-rule="nonzero" fill-opacity="1" /><path clip-path="url(#clip650)" d="M1359.12 1008.15 L1375.44 1008.15 L1375.44 1012.08 L1353.5 1012.08 L1353.5 1008.15 Q1356.16 1005.39 1360.75 1000.76 Q1365.35 996.11 1366.53 994.767 Q1368.78 992.244 1369.66 990.508 Q1370.56 988.749 1370.56 987.059 Q1370.56 984.305 1368.62 982.568 Q1366.69 980.832 1363.59 980.832 Q1361.39 980.832 1358.94 981.596 Q1356.51 982.36 1353.73 983.911 L1353.73 979.189 Q1356.56 978.055 1359.01 977.476 Q1361.46 976.897 1363.5 976.897 Q1368.87 976.897 1372.06 979.582 Q1375.26 982.267 1375.26 986.758 Q1375.26 988.888 1374.45 990.809 Q1373.66 992.707 1371.56 995.3 Q1370.98 995.971 1367.87 999.189 Q1364.77 1002.38 1359.12 1008.15 Z" fill="#000000" fill-rule="nonzero" fill-opacity="1" /><polyline clip-path="url(#clip652)" style="stroke:#000000; stroke-linecap:round; stroke-linejoin:round; stroke-width:2; stroke-opacity:0.1; fill:none" points="379.821,1061.28 725.551,761.869 1324.37,934.734 "/>
<polyline clip-path="url(#clip652)" style="stroke:#000000; stroke-linecap:round; stroke-linejoin:round; stroke-width:2; stroke-opacity:0.1; fill:none" points="379.821,895.1 725.551,595.689 1324.37,768.554 "/>
<polyline clip-path="url(#clip652)" style="stroke:#000000; stroke-linecap:round; stroke-linejoin:round; stroke-width:2; stroke-opacity:0.1; fill:none" points="379.821,728.92 725.551,429.509 1324.37,602.374 "/>
<polyline clip-path="url(#clip652)" style="stroke:#000000; stroke-linecap:round; stroke-linejoin:round; stroke-width:2; stroke-opacity:0.1; fill:none" points="379.821,562.74 725.551,263.328 1324.37,436.194 "/>
<polyline clip-path="url(#clip650)" style="stroke:#000000; stroke-linecap:round; stroke-linejoin:round; stroke-width:4; stroke-opacity:1; fill:none" points="379.821,1064.19 379.821,465.367 "/>
<polyline clip-path="url(#clip650)" style="stroke:#000000; stroke-linecap:round; stroke-linejoin:round; stroke-width:4; stroke-opacity:1; fill:none" points="379.821,1061.28 383.969,1057.69 "/>
<polyline clip-path="url(#clip650)" style="stroke:#000000; stroke-linecap:round; stroke-linejoin:round; stroke-width:4; stroke-opacity:1; fill:none" points="379.821,895.1 383.969,891.507 "/>
<polyline clip-path="url(#clip650)" style="stroke:#000000; stroke-linecap:round; stroke-linejoin:round; stroke-width:4; stroke-opacity:1; fill:none" points="379.821,728.92 383.969,725.327 "/>
<polyline clip-path="url(#clip650)" style="stroke:#000000; stroke-linecap:round; stroke-linejoin:round; stroke-width:4; stroke-opacity:1; fill:none" points="379.821,562.74 383.969,559.147 "/>
<path clip-path="url(#clip650)" d="M280.703 1061.73 L310.379 1061.73 L310.379 1065.67 L280.703 1065.67 L280.703 1061.73 Z" fill="#000000" fill-rule="nonzero" fill-opacity="1" /><path clip-path="url(#clip650)" d="M320.518 1044 L338.874 1044 L338.874 1047.94 L324.8 1047.94 L324.8 1056.41 Q325.819 1056.06 326.837 1055.9 Q327.856 1055.71 328.874 1055.71 Q334.661 1055.71 338.041 1058.88 Q341.421 1062.06 341.421 1067.47 Q341.421 1073.05 337.948 1076.15 Q334.476 1079.23 328.157 1079.23 Q325.981 1079.23 323.712 1078.86 Q321.467 1078.49 319.06 1077.75 L319.06 1073.05 Q321.143 1074.19 323.365 1074.74 Q325.587 1075.3 328.064 1075.3 Q332.069 1075.3 334.407 1073.19 Q336.745 1071.08 336.745 1067.47 Q336.745 1063.86 334.407 1061.75 Q332.069 1059.65 328.064 1059.65 Q326.189 1059.65 324.314 1060.07 Q322.462 1060.48 320.518 1061.36 L320.518 1044 Z" fill="#000000" fill-rule="nonzero" fill-opacity="1" /><path clip-path="url(#clip650)" d="M329.476 880.899 Q325.865 880.899 324.036 884.464 Q322.231 888.005 322.231 895.135 Q322.231 902.241 324.036 905.806 Q325.865 909.348 329.476 909.348 Q333.11 909.348 334.916 905.806 Q336.745 902.241 336.745 895.135 Q336.745 888.005 334.916 884.464 Q333.11 880.899 329.476 880.899 M329.476 877.195 Q335.286 877.195 338.342 881.802 Q341.421 886.385 341.421 895.135 Q341.421 903.862 338.342 908.468 Q335.286 913.052 329.476 913.052 Q323.666 913.052 320.587 908.468 Q317.532 903.862 317.532 895.135 Q317.532 886.385 320.587 881.802 Q323.666 877.195 329.476 877.195 Z" fill="#000000" fill-rule="nonzero" fill-opacity="1" /><path clip-path="url(#clip650)" d="M320.518 711.64 L338.874 711.64 L338.874 715.575 L324.8 715.575 L324.8 724.047 Q325.819 723.7 326.837 723.538 Q327.856 723.353 328.874 723.353 Q334.661 723.353 338.041 726.524 Q341.421 729.696 341.421 735.112 Q341.421 740.691 337.948 743.793 Q334.476 746.871 328.157 746.871 Q325.981 746.871 323.712 746.501 Q321.467 746.131 319.06 745.39 L319.06 740.691 Q321.143 741.825 323.365 742.381 Q325.587 742.936 328.064 742.936 Q332.069 742.936 334.407 740.83 Q336.745 738.723 336.745 735.112 Q336.745 731.501 334.407 729.395 Q332.069 727.288 328.064 727.288 Q326.189 727.288 324.314 727.705 Q322.462 728.121 320.518 729.001 L320.518 711.64 Z" fill="#000000" fill-rule="nonzero" fill-opacity="1" /><path clip-path="url(#clip650)" d="M290.125 576.085 L297.763 576.085 L297.763 549.719 L289.453 551.386 L289.453 547.127 L297.717 545.46 L302.393 545.46 L302.393 576.085 L310.032 576.085 L310.032 580.02 L290.125 580.02 L290.125 576.085 Z" fill="#000000" fill-rule="nonzero" fill-opacity="1" /><path clip-path="url(#clip650)" d="M329.476 548.539 Q325.865 548.539 324.036 552.103 Q322.231 555.645 322.231 562.775 Q322.231 569.881 324.036 573.446 Q325.865 576.988 329.476 576.988 Q333.11 576.988 334.916 573.446 Q336.745 569.881 336.745 562.775 Q336.745 555.645 334.916 552.103 Q333.11 548.539 329.476 548.539 M329.476 544.835 Q335.286 544.835 338.342 549.441 Q341.421 554.025 341.421 562.775 Q341.421 571.501 338.342 576.108 Q335.286 580.691 329.476 580.691 Q323.666 580.691 320.587 576.108 Q317.532 571.501 317.532 562.775 Q317.532 554.025 320.587 549.441 Q323.666 544.835 329.476 544.835 Z" fill="#000000" fill-rule="nonzero" fill-opacity="1" /><path clip-path="url(#clip650)" d="M469.834 12.096 L504.59 12.096 L504.59 18.9825 L478.016 18.9825 L478.016 36.8065 L501.998 36.8065 L501.998 43.6931 L478.016 43.6931 L478.016 72.576 L469.834 72.576 L469.834 12.096 Z" fill="#000000" fill-rule="nonzero" fill-opacity="1" /><path clip-path="url(#clip650)" d="M551.5 48.0275 L551.5 51.6733 L517.229 51.6733 Q517.715 59.3701 521.847 63.421 Q526.02 67.4314 533.433 67.4314 Q537.727 67.4314 541.737 66.3781 Q545.788 65.3249 549.758 63.2184 L549.758 70.267 Q545.748 71.9684 541.535 72.8596 Q537.322 73.7508 532.987 73.7508 Q522.131 73.7508 515.771 67.4314 Q509.452 61.1119 509.452 50.3365 Q509.452 39.1965 515.447 32.6746 Q521.483 26.1121 531.691 26.1121 Q540.846 26.1121 546.153 32.0264 Q551.5 37.9003 551.5 48.0275 M544.046 45.84 Q543.965 39.7232 540.603 36.0774 Q537.281 32.4315 531.772 32.4315 Q525.534 32.4315 521.766 35.9558 Q518.039 39.4801 517.472 45.8805 L544.046 45.84 Z" fill="#000000" fill-rule="nonzero" fill-opacity="1" /><path clip-path="url(#clip650)" d="M584.353 49.7694 Q575.319 49.7694 571.835 51.8354 Q568.352 53.9013 568.352 58.8839 Q568.352 62.8538 570.944 65.2034 Q573.577 67.5124 578.074 67.5124 Q584.272 67.5124 587.999 63.1374 Q591.766 58.7219 591.766 51.4303 L591.766 49.7694 L584.353 49.7694 M599.22 46.6907 L599.22 72.576 L591.766 72.576 L591.766 65.6895 Q589.214 69.8214 585.406 71.8063 Q581.598 73.7508 576.089 73.7508 Q569.121 73.7508 564.989 69.8619 Q560.898 65.9325 560.898 59.3701 Q560.898 51.7138 566.002 47.825 Q571.147 43.9361 581.315 43.9361 L591.766 43.9361 L591.766 43.2069 Q591.766 38.0623 588.363 35.2672 Q585.001 32.4315 578.884 32.4315 Q574.995 32.4315 571.309 33.3632 Q567.622 34.295 564.22 36.1584 L564.22 29.2718 Q568.311 27.692 572.16 26.9223 Q576.008 26.1121 579.654 26.1121 Q589.497 26.1121 594.358 31.2163 Q599.22 36.3204 599.22 46.6907 Z" fill="#000000" fill-rule="nonzero" fill-opacity="1" /><path clip-path="url(#clip650)" d="M621.945 14.324 L621.945 27.2059 L637.298 27.2059 L637.298 32.9987 L621.945 32.9987 L621.945 57.6282 Q621.945 63.1779 623.444 64.7578 Q624.983 66.3376 629.642 66.3376 L637.298 66.3376 L637.298 72.576 L629.642 72.576 Q621.013 72.576 617.732 69.3758 Q614.451 66.1351 614.451 57.6282 L614.451 32.9987 L608.982 32.9987 L608.982 27.2059 L614.451 27.2059 L614.451 14.324 L621.945 14.324 Z" fill="#000000" fill-rule="nonzero" fill-opacity="1" /><path clip-path="url(#clip650)" d="M646.332 54.671 L646.332 27.2059 L653.785 27.2059 L653.785 54.3874 Q653.785 60.8284 656.297 64.0691 Q658.808 67.2693 663.831 67.2693 Q669.867 67.2693 673.351 63.421 Q676.875 59.5726 676.875 52.9291 L676.875 27.2059 L684.329 27.2059 L684.329 72.576 L676.875 72.576 L676.875 65.6084 Q674.161 69.7404 670.556 71.7658 Q666.991 73.7508 662.252 73.7508 Q654.433 73.7508 650.382 68.8897 Q646.332 64.0286 646.332 54.671 M665.087 26.1121 L665.087 26.1121 Z" fill="#000000" fill-rule="nonzero" fill-opacity="1" /><path clip-path="url(#clip650)" d="M725.972 34.1734 Q724.717 33.4443 723.218 33.1202 Q721.759 32.7556 719.977 32.7556 Q713.658 32.7556 710.255 36.8875 Q706.893 40.9789 706.893 48.6757 L706.893 72.576 L699.398 72.576 L699.398 27.2059 L706.893 27.2059 L706.893 34.2544 Q709.242 30.1225 713.009 28.1376 Q716.777 26.1121 722.164 26.1121 Q722.934 26.1121 723.866 26.2337 Q724.798 26.3147 725.932 26.5172 L725.972 34.1734 Z" fill="#000000" fill-rule="nonzero" fill-opacity="1" /><path clip-path="url(#clip650)" d="M770.775 48.0275 L770.775 51.6733 L736.505 51.6733 Q736.991 59.3701 741.123 63.421 Q745.295 67.4314 752.708 67.4314 Q757.002 67.4314 761.013 66.3781 Q765.064 65.3249 769.033 63.2184 L769.033 70.267 Q765.023 71.9684 760.81 72.8596 Q756.597 73.7508 752.263 73.7508 Q741.406 73.7508 735.046 67.4314 Q728.727 61.1119 728.727 50.3365 Q728.727 39.1965 734.722 32.6746 Q740.758 26.1121 750.966 26.1121 Q760.121 26.1121 765.428 32.0264 Q770.775 37.9003 770.775 48.0275 M763.322 45.84 Q763.241 39.7232 759.878 36.0774 Q756.557 32.4315 751.047 32.4315 Q744.809 32.4315 741.042 35.9558 Q737.315 39.4801 736.748 45.8805 L763.322 45.84 Z" fill="#000000" fill-rule="nonzero" fill-opacity="1" /><path clip-path="url(#clip650)" d="M838.304 28.5427 L838.304 35.5912 Q835.144 33.9709 831.741 33.1607 Q828.339 32.3505 824.693 32.3505 Q819.143 32.3505 816.348 34.0519 Q813.593 35.7533 813.593 39.156 Q813.593 41.7486 815.578 43.2475 Q817.563 44.7058 823.559 46.0426 L826.111 46.6097 Q834.05 48.3111 837.372 51.4303 Q840.734 54.509 840.734 60.0587 Q840.734 66.3781 835.711 70.0644 Q830.729 73.7508 821.979 73.7508 Q818.333 73.7508 814.363 73.0216 Q810.434 72.3329 806.059 70.9151 L806.059 63.2184 Q810.191 65.3654 814.201 66.4591 Q818.211 67.5124 822.141 67.5124 Q827.407 67.5124 830.243 65.73 Q833.078 63.9071 833.078 60.6258 Q833.078 57.5877 831.012 55.9673 Q828.987 54.3469 822.06 52.8481 L819.467 52.2405 Q812.54 50.7821 809.461 47.7845 Q806.383 44.7463 806.383 39.4801 Q806.383 33.0797 810.92 29.5959 Q815.457 26.1121 823.802 26.1121 Q827.934 26.1121 831.579 26.7198 Q835.225 27.3274 838.304 28.5427 Z" fill="#000000" fill-rule="nonzero" fill-opacity="1" /><path clip-path="url(#clip650)" d="M859.814 65.7705 L859.814 89.8329 L852.32 89.8329 L852.32 27.2059 L859.814 27.2059 L859.814 34.0924 Q862.164 30.0415 865.729 28.0971 Q869.334 26.1121 874.316 26.1121 Q882.58 26.1121 887.725 32.6746 Q892.91 39.2371 892.91 49.9314 Q892.91 60.6258 887.725 67.1883 Q882.58 73.7508 874.316 73.7508 Q869.334 73.7508 865.729 71.8063 Q862.164 69.8214 859.814 65.7705 M885.173 49.9314 Q885.173 41.7081 881.77 37.0496 Q878.408 32.3505 872.494 32.3505 Q866.579 32.3505 863.176 37.0496 Q859.814 41.7081 859.814 49.9314 Q859.814 58.1548 863.176 62.8538 Q866.579 67.5124 872.494 67.5124 Q878.408 67.5124 881.77 62.8538 Q885.173 58.1548 885.173 49.9314 Z" fill="#000000" fill-rule="nonzero" fill-opacity="1" /><path clip-path="url(#clip650)" d="M925.884 49.7694 Q916.851 49.7694 913.367 51.8354 Q909.883 53.9013 909.883 58.8839 Q909.883 62.8538 912.476 65.2034 Q915.109 67.5124 919.606 67.5124 Q925.803 67.5124 929.53 63.1374 Q933.298 58.7219 933.298 51.4303 L933.298 49.7694 L925.884 49.7694 M940.751 46.6907 L940.751 72.576 L933.298 72.576 L933.298 65.6895 Q930.746 69.8214 926.938 71.8063 Q923.13 73.7508 917.621 73.7508 Q910.653 73.7508 906.521 69.8619 Q902.43 65.9325 902.43 59.3701 Q902.43 51.7138 907.534 47.825 Q912.679 43.9361 922.846 43.9361 L933.298 43.9361 L933.298 43.2069 Q933.298 38.0623 929.895 35.2672 Q926.533 32.4315 920.416 32.4315 Q916.527 32.4315 912.841 33.3632 Q909.154 34.295 905.751 36.1584 L905.751 29.2718 Q909.843 27.692 913.691 26.9223 Q917.54 26.1121 921.185 26.1121 Q931.029 26.1121 935.89 31.2163 Q940.751 36.3204 940.751 46.6907 Z" fill="#000000" fill-rule="nonzero" fill-opacity="1" /><path clip-path="url(#clip650)" d="M988.754 28.9478 L988.754 35.9153 Q985.595 34.1734 982.395 33.3227 Q979.235 32.4315 975.994 32.4315 Q968.743 32.4315 964.733 37.0496 Q960.722 41.6271 960.722 49.9314 Q960.722 58.2358 964.733 62.8538 Q968.743 67.4314 975.994 67.4314 Q979.235 67.4314 982.395 66.5807 Q985.595 65.6895 988.754 63.9476 L988.754 70.8341 Q985.635 72.2924 982.273 73.0216 Q978.951 73.7508 975.184 73.7508 Q964.935 73.7508 958.899 67.3098 Q952.863 60.8689 952.863 49.9314 Q952.863 38.832 958.94 32.472 Q965.057 26.1121 975.67 26.1121 Q979.113 26.1121 982.395 26.8413 Q985.676 27.5299 988.754 28.9478 Z" fill="#000000" fill-rule="nonzero" fill-opacity="1" /><path clip-path="url(#clip650)" d="M1040.53 48.0275 L1040.53 51.6733 L1006.25 51.6733 Q1006.74 59.3701 1010.87 63.421 Q1015.04 67.4314 1022.46 67.4314 Q1026.75 67.4314 1030.76 66.3781 Q1034.81 65.3249 1038.78 63.2184 L1038.78 70.267 Q1034.77 71.9684 1030.56 72.8596 Q1026.35 73.7508 1022.01 73.7508 Q1011.16 73.7508 1004.8 67.4314 Q998.477 61.1119 998.477 50.3365 Q998.477 39.1965 1004.47 32.6746 Q1010.51 26.1121 1020.72 26.1121 Q1029.87 26.1121 1035.18 32.0264 Q1040.53 37.9003 1040.53 48.0275 M1033.07 45.84 Q1032.99 39.7232 1029.63 36.0774 Q1026.31 32.4315 1020.8 32.4315 Q1014.56 32.4315 1010.79 35.9558 Q1007.06 39.4801 1006.5 45.8805 L1033.07 45.84 Z" fill="#000000" fill-rule="nonzero" fill-opacity="1" /><path clip-path="url(#clip650)" d="M1097.04 9.62495 Q1091.61 18.942 1088.97 28.0566 Q1086.34 37.1711 1086.34 46.5287 Q1086.34 55.8863 1088.97 65.0818 Q1091.65 74.2369 1097.04 83.5134 L1090.55 83.5134 Q1084.48 73.9938 1081.44 64.7983 Q1078.44 55.6027 1078.44 46.5287 Q1078.44 37.4952 1081.44 28.3401 Q1084.44 19.1851 1090.55 9.62495 L1097.04 9.62495 Z" fill="#000000" fill-rule="nonzero" fill-opacity="1" /><path clip-path="url(#clip650)" d="M1137.34 39.9662 Q1143.22 41.222 1146.5 45.1919 Q1149.82 49.1618 1149.82 54.9951 Q1149.82 63.9476 1143.66 68.8492 Q1137.5 73.7508 1126.16 73.7508 Q1122.35 73.7508 1118.3 72.9811 Q1114.29 72.2519 1110 70.7531 L1110 62.8538 Q1113.4 64.8388 1117.45 65.8515 Q1121.5 66.8642 1125.92 66.8642 Q1133.61 66.8642 1137.63 63.826 Q1141.68 60.7879 1141.68 54.9951 Q1141.68 49.6479 1137.91 46.6502 Q1134.18 43.612 1127.5 43.612 L1120.45 43.612 L1120.45 36.8875 L1127.82 36.8875 Q1133.86 36.8875 1137.06 34.4975 Q1140.26 32.067 1140.26 27.5299 Q1140.26 22.8714 1136.94 20.4004 Q1133.66 17.8888 1127.5 17.8888 Q1124.14 17.8888 1120.29 18.618 Q1116.44 19.3471 1111.82 20.8865 L1111.82 13.5948 Q1116.48 12.2985 1120.53 11.6504 Q1124.62 11.0023 1128.23 11.0023 Q1137.54 11.0023 1142.97 15.2557 Q1148.4 19.4686 1148.4 26.6793 Q1148.4 31.7024 1145.52 35.1862 Q1142.65 38.6294 1137.34 39.9662 Z" fill="#000000" fill-rule="nonzero" fill-opacity="1" /><path clip-path="url(#clip650)" d="M1194.14 34.0924 L1194.14 9.54393 L1201.59 9.54393 L1201.59 72.576 L1194.14 72.576 L1194.14 65.7705 Q1191.79 69.8214 1188.18 71.8063 Q1184.62 73.7508 1179.59 73.7508 Q1171.37 73.7508 1166.18 67.1883 Q1161.04 60.6258 1161.04 49.9314 Q1161.04 39.2371 1166.18 32.6746 Q1171.37 26.1121 1179.59 26.1121 Q1184.62 26.1121 1188.18 28.0971 Q1191.79 30.0415 1194.14 34.0924 M1168.74 49.9314 Q1168.74 58.1548 1172.1 62.8538 Q1175.5 67.5124 1181.42 67.5124 Q1187.33 67.5124 1190.73 62.8538 Q1194.14 58.1548 1194.14 49.9314 Q1194.14 41.7081 1190.73 37.0496 Q1187.33 32.3505 1181.42 32.3505 Q1175.5 32.3505 1172.1 37.0496 Q1168.74 41.7081 1168.74 49.9314 Z" fill="#000000" fill-rule="nonzero" fill-opacity="1" /><path clip-path="url(#clip650)" d="M1215.77 9.62495 L1222.25 9.62495 Q1228.32 19.1851 1231.32 28.3401 Q1234.36 37.4952 1234.36 46.5287 Q1234.36 55.6027 1231.32 64.7983 Q1228.32 73.9938 1222.25 83.5134 L1215.77 83.5134 Q1221.15 74.2369 1223.79 65.0818 Q1226.46 55.8863 1226.46 46.5287 Q1226.46 37.1711 1223.79 28.0566 Q1221.15 18.942 1215.77 9.62495 Z" fill="#000000" fill-rule="nonzero" fill-opacity="1" /><circle clip-path="url(#clip652)" cx="963.35" cy="782.247" r="14.4" fill="#800080" fill-rule="evenodd" fill-opacity="1" stroke="#000000" stroke-opacity="1" stroke-width="2.8"/>
<circle clip-path="url(#clip652)" cx="1068.79" cy="853.44" r="14.4" fill="#800080" fill-rule="evenodd" fill-opacity="1" stroke="#000000" stroke-opacity="1" stroke-width="2.8"/>
<circle clip-path="url(#clip652)" cx="896.013" cy="968.043" r="14.4" fill="#800080" fill-rule="evenodd" fill-opacity="1" stroke="#000000" stroke-opacity="1" stroke-width="2.8"/>
<circle clip-path="url(#clip652)" cx="1035.51" cy="838.536" r="14.4" fill="#800080" fill-rule="evenodd" fill-opacity="1" stroke="#000000" stroke-opacity="1" stroke-width="2.8"/>
<circle clip-path="url(#clip652)" cx="998.074" cy="852.87" r="14.4" fill="#800080" fill-rule="evenodd" fill-opacity="1" stroke="#000000" stroke-opacity="1" stroke-width="2.8"/>
<circle clip-path="url(#clip652)" cx="981.132" cy="898.311" r="14.4" fill="#800080" fill-rule="evenodd" fill-opacity="1" stroke="#000000" stroke-opacity="1" stroke-width="2.8"/>
<circle clip-path="url(#clip652)" cx="994.115" cy="749.305" r="14.4" fill="#800080" fill-rule="evenodd" fill-opacity="1" stroke="#000000" stroke-opacity="1" stroke-width="2.8"/>
<circle clip-path="url(#clip652)" cx="906.046" cy="829.248" r="14.4" fill="#800080" fill-rule="evenodd" fill-opacity="1" stroke="#000000" stroke-opacity="1" stroke-width="2.8"/>
<circle clip-path="url(#clip652)" cx="966.581" cy="969.831" r="14.4" fill="#800080" fill-rule="evenodd" fill-opacity="1" stroke="#000000" stroke-opacity="1" stroke-width="2.8"/>
<circle clip-path="url(#clip652)" cx="988.948" cy="816.97" r="14.4" fill="#800080" fill-rule="evenodd" fill-opacity="1" stroke="#000000" stroke-opacity="1" stroke-width="2.8"/>
<circle clip-path="url(#clip652)" cx="961.603" cy="860.698" r="14.4" fill="#800080" fill-rule="evenodd" fill-opacity="1" stroke="#000000" stroke-opacity="1" stroke-width="2.8"/>
<circle clip-path="url(#clip652)" cx="903.731" cy="860.026" r="14.4" fill="#800080" fill-rule="evenodd" fill-opacity="1" stroke="#000000" stroke-opacity="1" stroke-width="2.8"/>
<circle clip-path="url(#clip652)" cx="1004.75" cy="812.244" r="14.4" fill="#800080" fill-rule="evenodd" fill-opacity="1" stroke="#000000" stroke-opacity="1" stroke-width="2.8"/>
<circle clip-path="url(#clip652)" cx="1089.69" cy="866.289" r="14.4" fill="#800080" fill-rule="evenodd" fill-opacity="1" stroke="#000000" stroke-opacity="1" stroke-width="2.8"/>
<circle clip-path="url(#clip652)" cx="987.617" cy="849.021" r="14.4" fill="#800080" fill-rule="evenodd" fill-opacity="1" stroke="#000000" stroke-opacity="1" stroke-width="2.8"/>
<circle clip-path="url(#clip652)" cx="1018.91" cy="814.611" r="14.4" fill="#800080" fill-rule="evenodd" fill-opacity="1" stroke="#000000" stroke-opacity="1" stroke-width="2.8"/>
<circle clip-path="url(#clip652)" cx="1080.38" cy="779.94" r="14.4" fill="#800080" fill-rule="evenodd" fill-opacity="1" stroke="#000000" stroke-opacity="1" stroke-width="2.8"/>
<circle clip-path="url(#clip652)" cx="1094.37" cy="827.011" r="14.4" fill="#800080" fill-rule="evenodd" fill-opacity="1" stroke="#000000" stroke-opacity="1" stroke-width="2.8"/>
<circle clip-path="url(#clip652)" cx="1003.54" cy="905.638" r="14.4" fill="#800080" fill-rule="evenodd" fill-opacity="1" stroke="#000000" stroke-opacity="1" stroke-width="2.8"/>
<circle clip-path="url(#clip652)" cx="1063.22" cy="861.451" r="14.4" fill="#800080" fill-rule="evenodd" fill-opacity="1" stroke="#000000" stroke-opacity="1" stroke-width="2.8"/>
<circle clip-path="url(#clip652)" cx="936.204" cy="772.247" r="14.4" fill="#800080" fill-rule="evenodd" fill-opacity="1" stroke="#000000" stroke-opacity="1" stroke-width="2.8"/>
<circle clip-path="url(#clip652)" cx="952.469" cy="788.683" r="14.4" fill="#800080" fill-rule="evenodd" fill-opacity="1" stroke="#000000" stroke-opacity="1" stroke-width="2.8"/>
<circle clip-path="url(#clip652)" cx="1182.41" cy="840.96" r="14.4" fill="#800080" fill-rule="evenodd" fill-opacity="1" stroke="#000000" stroke-opacity="1" stroke-width="2.8"/>
<circle clip-path="url(#clip652)" cx="406.553" cy="634.608" r="14.4" fill="#800080" fill-rule="evenodd" fill-opacity="1" stroke="#000000" stroke-opacity="1" stroke-width="2.8"/>
<circle clip-path="url(#clip652)" cx="901.95" cy="894.308" r="14.4" fill="#800080" fill-rule="evenodd" fill-opacity="1" stroke="#000000" stroke-opacity="1" stroke-width="2.8"/>
<circle clip-path="url(#clip652)" cx="1038.92" cy="775.97" r="14.4" fill="#800080" fill-rule="evenodd" fill-opacity="1" stroke="#000000" stroke-opacity="1" stroke-width="2.8"/>
<circle clip-path="url(#clip652)" cx="979.203" cy="870.574" r="14.4" fill="#800080" fill-rule="evenodd" fill-opacity="1" stroke="#000000" stroke-opacity="1" stroke-width="2.8"/>
<circle clip-path="url(#clip652)" cx="1008.66" cy="805.722" r="14.4" fill="#800080" fill-rule="evenodd" fill-opacity="1" stroke="#000000" stroke-opacity="1" stroke-width="2.8"/>
<circle clip-path="url(#clip652)" cx="894.974" cy="823.607" r="14.4" fill="#800080" fill-rule="evenodd" fill-opacity="1" stroke="#000000" stroke-opacity="1" stroke-width="2.8"/>
<circle clip-path="url(#clip652)" cx="1002.1" cy="864.294" r="14.4" fill="#800080" fill-rule="evenodd" fill-opacity="1" stroke="#000000" stroke-opacity="1" stroke-width="2.8"/>
<circle clip-path="url(#clip652)" cx="1081.96" cy="816.637" r="14.4" fill="#800080" fill-rule="evenodd" fill-opacity="1" stroke="#000000" stroke-opacity="1" stroke-width="2.8"/>
<circle clip-path="url(#clip652)" cx="1065.92" cy="841.109" r="14.4" fill="#800080" fill-rule="evenodd" fill-opacity="1" stroke="#000000" stroke-opacity="1" stroke-width="2.8"/>
<circle clip-path="url(#clip652)" cx="1027.01" cy="848.902" r="14.4" fill="#800080" fill-rule="evenodd" fill-opacity="1" stroke="#000000" stroke-opacity="1" stroke-width="2.8"/>
<circle clip-path="url(#clip652)" cx="1106.73" cy="743.786" r="14.4" fill="#800080" fill-rule="evenodd" fill-opacity="1" stroke="#000000" stroke-opacity="1" stroke-width="2.8"/>
<circle clip-path="url(#clip652)" cx="1101.9" cy="783.249" r="14.4" fill="#800080" fill-rule="evenodd" fill-opacity="1" stroke="#000000" stroke-opacity="1" stroke-width="2.8"/>
<circle clip-path="url(#clip652)" cx="1036.87" cy="857.313" r="14.4" fill="#800080" fill-rule="evenodd" fill-opacity="1" stroke="#000000" stroke-opacity="1" stroke-width="2.8"/>
<circle clip-path="url(#clip652)" cx="984.312" cy="905.332" r="14.4" fill="#800080" fill-rule="evenodd" fill-opacity="1" stroke="#000000" stroke-opacity="1" stroke-width="2.8"/>
<circle clip-path="url(#clip652)" cx="970.79" cy="779.258" r="14.4" fill="#800080" fill-rule="evenodd" fill-opacity="1" stroke="#000000" stroke-opacity="1" stroke-width="2.8"/>
<circle clip-path="url(#clip652)" cx="1030.32" cy="888.709" r="14.4" fill="#800080" fill-rule="evenodd" fill-opacity="1" stroke="#000000" stroke-opacity="1" stroke-width="2.8"/>
<circle clip-path="url(#clip652)" cx="1039.17" cy="774.892" r="14.4" fill="#800080" fill-rule="evenodd" fill-opacity="1" stroke="#000000" stroke-opacity="1" stroke-width="2.8"/>
<circle clip-path="url(#clip652)" cx="922.663" cy="882.243" r="14.4" fill="#800080" fill-rule="evenodd" fill-opacity="1" stroke="#000000" stroke-opacity="1" stroke-width="2.8"/>
<circle clip-path="url(#clip652)" cx="913.315" cy="866.133" r="14.4" fill="#800080" fill-rule="evenodd" fill-opacity="1" stroke="#000000" stroke-opacity="1" stroke-width="2.8"/>
<circle clip-path="url(#clip652)" cx="1116.17" cy="820.839" r="14.4" fill="#800080" fill-rule="evenodd" fill-opacity="1" stroke="#000000" stroke-opacity="1" stroke-width="2.8"/>
<circle clip-path="url(#clip652)" cx="914.672" cy="800.633" r="14.4" fill="#800080" fill-rule="evenodd" fill-opacity="1" stroke="#000000" stroke-opacity="1" stroke-width="2.8"/>
<circle clip-path="url(#clip652)" cx="1060.17" cy="764.258" r="14.4" fill="#800080" fill-rule="evenodd" fill-opacity="1" stroke="#000000" stroke-opacity="1" stroke-width="2.8"/>
<circle clip-path="url(#clip652)" cx="1018.59" cy="928.445" r="14.4" fill="#800080" fill-rule="evenodd" fill-opacity="1" stroke="#000000" stroke-opacity="1" stroke-width="2.8"/>
<circle clip-path="url(#clip652)" cx="947.205" cy="777.875" r="14.4" fill="#800080" fill-rule="evenodd" fill-opacity="1" stroke="#000000" stroke-opacity="1" stroke-width="2.8"/>
<circle clip-path="url(#clip652)" cx="1020.33" cy="802.505" r="14.4" fill="#800080" fill-rule="evenodd" fill-opacity="1" stroke="#000000" stroke-opacity="1" stroke-width="2.8"/>
<circle clip-path="url(#clip652)" cx="978.022" cy="840.336" r="14.4" fill="#800080" fill-rule="evenodd" fill-opacity="1" stroke="#000000" stroke-opacity="1" stroke-width="2.8"/>
<circle clip-path="url(#clip652)" cx="1006.33" cy="904.527" r="14.4" fill="#800080" fill-rule="evenodd" fill-opacity="1" stroke="#000000" stroke-opacity="1" stroke-width="2.8"/>
<circle clip-path="url(#clip652)" cx="1029.88" cy="602.911" r="14.4" fill="#0000ff" fill-rule="evenodd" fill-opacity="1" stroke="#000000" stroke-opacity="1" stroke-width="2.8"/>
<circle clip-path="url(#clip652)" cx="1120.17" cy="574.8" r="14.4" fill="#0000ff" fill-rule="evenodd" fill-opacity="1" stroke="#000000" stroke-opacity="1" stroke-width="2.8"/>
<circle clip-path="url(#clip652)" cx="1019.76" cy="591.903" r="14.4" fill="#0000ff" fill-rule="evenodd" fill-opacity="1" stroke="#000000" stroke-opacity="1" stroke-width="2.8"/>
<circle clip-path="url(#clip652)" cx="1060.24" cy="502.021" r="14.4" fill="#0000ff" fill-rule="evenodd" fill-opacity="1" stroke="#000000" stroke-opacity="1" stroke-width="2.8"/>
<circle clip-path="url(#clip652)" cx="1055.9" cy="564.459" r="14.4" fill="#0000ff" fill-rule="evenodd" fill-opacity="1" stroke="#000000" stroke-opacity="1" stroke-width="2.8"/>
<circle clip-path="url(#clip652)" cx="1089.23" cy="504.207" r="14.4" fill="#0000ff" fill-rule="evenodd" fill-opacity="1" stroke="#000000" stroke-opacity="1" stroke-width="2.8"/>
<circle clip-path="url(#clip652)" cx="1077.65" cy="532.006" r="14.4" fill="#0000ff" fill-rule="evenodd" fill-opacity="1" stroke="#000000" stroke-opacity="1" stroke-width="2.8"/>
<circle clip-path="url(#clip652)" cx="994.074" cy="527.099" r="14.4" fill="#0000ff" fill-rule="evenodd" fill-opacity="1" stroke="#000000" stroke-opacity="1" stroke-width="2.8"/>
<circle clip-path="url(#clip652)" cx="1023.36" cy="610.747" r="14.4" fill="#0000ff" fill-rule="evenodd" fill-opacity="1" stroke="#000000" stroke-opacity="1" stroke-width="2.8"/>
<circle clip-path="url(#clip652)" cx="1097.53" cy="583.553" r="14.4" fill="#0000ff" fill-rule="evenodd" fill-opacity="1" stroke="#000000" stroke-opacity="1" stroke-width="2.8"/>
<circle clip-path="url(#clip652)" cx="1043.64" cy="605.746" r="14.4" fill="#0000ff" fill-rule="evenodd" fill-opacity="1" stroke="#000000" stroke-opacity="1" stroke-width="2.8"/>
<circle clip-path="url(#clip652)" cx="1015.75" cy="548.208" r="14.4" fill="#0000ff" fill-rule="evenodd" fill-opacity="1" stroke="#000000" stroke-opacity="1" stroke-width="2.8"/>
<circle clip-path="url(#clip652)" cx="1223.83" cy="467.614" r="14.4" fill="#0000ff" fill-rule="evenodd" fill-opacity="1" stroke="#000000" stroke-opacity="1" stroke-width="2.8"/>
<circle clip-path="url(#clip652)" cx="1145.73" cy="528.597" r="14.4" fill="#0000ff" fill-rule="evenodd" fill-opacity="1" stroke="#000000" stroke-opacity="1" stroke-width="2.8"/>
<circle clip-path="url(#clip652)" cx="971.647" cy="597.543" r="14.4" fill="#0000ff" fill-rule="evenodd" fill-opacity="1" stroke="#000000" stroke-opacity="1" stroke-width="2.8"/>
<circle clip-path="url(#clip652)" cx="1012.51" cy="571.535" r="14.4" fill="#0000ff" fill-rule="evenodd" fill-opacity="1" stroke="#000000" stroke-opacity="1" stroke-width="2.8"/>
<circle clip-path="url(#clip652)" cx="1144.99" cy="569.538" r="14.4" fill="#0000ff" fill-rule="evenodd" fill-opacity="1" stroke="#000000" stroke-opacity="1" stroke-width="2.8"/>
<circle clip-path="url(#clip652)" cx="1045.95" cy="592.343" r="14.4" fill="#0000ff" fill-rule="evenodd" fill-opacity="1" stroke="#000000" stroke-opacity="1" stroke-width="2.8"/>
<circle clip-path="url(#clip652)" cx="1149.35" cy="475.341" r="14.4" fill="#0000ff" fill-rule="evenodd" fill-opacity="1" stroke="#000000" stroke-opacity="1" stroke-width="2.8"/>
<circle clip-path="url(#clip652)" cx="1047.4" cy="585.977" r="14.4" fill="#0000ff" fill-rule="evenodd" fill-opacity="1" stroke="#000000" stroke-opacity="1" stroke-width="2.8"/>
<circle clip-path="url(#clip652)" cx="1036.26" cy="423.638" r="14.4" fill="#0000ff" fill-rule="evenodd" fill-opacity="1" stroke="#000000" stroke-opacity="1" stroke-width="2.8"/>
<circle clip-path="url(#clip652)" cx="1122.91" cy="592.68" r="14.4" fill="#0000ff" fill-rule="evenodd" fill-opacity="1" stroke="#000000" stroke-opacity="1" stroke-width="2.8"/>
<circle clip-path="url(#clip652)" cx="1109.7" cy="426.55" r="14.4" fill="#0000ff" fill-rule="evenodd" fill-opacity="1" stroke="#000000" stroke-opacity="1" stroke-width="2.8"/>
<circle clip-path="url(#clip652)" cx="1079.86" cy="531.641" r="14.4" fill="#0000ff" fill-rule="evenodd" fill-opacity="1" stroke="#000000" stroke-opacity="1" stroke-width="2.8"/>
<circle clip-path="url(#clip652)" cx="1062.69" cy="533.931" r="14.4" fill="#0000ff" fill-rule="evenodd" fill-opacity="1" stroke="#000000" stroke-opacity="1" stroke-width="2.8"/>
<circle clip-path="url(#clip652)" cx="1054.67" cy="535.112" r="14.4" fill="#0000ff" fill-rule="evenodd" fill-opacity="1" stroke="#000000" stroke-opacity="1" stroke-width="2.8"/>
<circle clip-path="url(#clip652)" cx="1084.85" cy="581.986" r="14.4" fill="#0000ff" fill-rule="evenodd" fill-opacity="1" stroke="#000000" stroke-opacity="1" stroke-width="2.8"/>
<circle clip-path="url(#clip652)" cx="1070.78" cy="578.226" r="14.4" fill="#0000ff" fill-rule="evenodd" fill-opacity="1" stroke="#000000" stroke-opacity="1" stroke-width="2.8"/>
<circle clip-path="url(#clip652)" cx="997.955" cy="481.347" r="14.4" fill="#0000ff" fill-rule="evenodd" fill-opacity="1" stroke="#000000" stroke-opacity="1" stroke-width="2.8"/>
<circle clip-path="url(#clip652)" cx="1000.52" cy="577.562" r="14.4" fill="#0000ff" fill-rule="evenodd" fill-opacity="1" stroke="#000000" stroke-opacity="1" stroke-width="2.8"/>
<circle clip-path="url(#clip652)" cx="1080.34" cy="487.937" r="14.4" fill="#0000ff" fill-rule="evenodd" fill-opacity="1" stroke="#000000" stroke-opacity="1" stroke-width="2.8"/>
<circle clip-path="url(#clip652)" cx="1160.76" cy="516.9" r="14.4" fill="#0000ff" fill-rule="evenodd" fill-opacity="1" stroke="#000000" stroke-opacity="1" stroke-width="2.8"/>
<circle clip-path="url(#clip652)" cx="1061.89" cy="570.581" r="14.4" fill="#0000ff" fill-rule="evenodd" fill-opacity="1" stroke="#000000" stroke-opacity="1" stroke-width="2.8"/>
<circle clip-path="url(#clip652)" cx="1085.54" cy="675.604" r="14.4" fill="#0000ff" fill-rule="evenodd" fill-opacity="1" stroke="#000000" stroke-opacity="1" stroke-width="2.8"/>
<circle clip-path="url(#clip652)" cx="1014.9" cy="611.301" r="14.4" fill="#0000ff" fill-rule="evenodd" fill-opacity="1" stroke="#000000" stroke-opacity="1" stroke-width="2.8"/>
<circle clip-path="url(#clip652)" cx="1070.33" cy="566.091" r="14.4" fill="#0000ff" fill-rule="evenodd" fill-opacity="1" stroke="#000000" stroke-opacity="1" stroke-width="2.8"/>
<circle clip-path="url(#clip652)" cx="1100.92" cy="510.093" r="14.4" fill="#0000ff" fill-rule="evenodd" fill-opacity="1" stroke="#000000" stroke-opacity="1" stroke-width="2.8"/>
<circle clip-path="url(#clip652)" cx="1011.16" cy="606.87" r="14.4" fill="#0000ff" fill-rule="evenodd" fill-opacity="1" stroke="#000000" stroke-opacity="1" stroke-width="2.8"/>
<circle clip-path="url(#clip652)" cx="987.353" cy="583.734" r="14.4" fill="#0000ff" fill-rule="evenodd" fill-opacity="1" stroke="#000000" stroke-opacity="1" stroke-width="2.8"/>
<circle clip-path="url(#clip652)" cx="1092.88" cy="553.452" r="14.4" fill="#0000ff" fill-rule="evenodd" fill-opacity="1" stroke="#000000" stroke-opacity="1" stroke-width="2.8"/>
<circle clip-path="url(#clip652)" cx="1002.6" cy="563.329" r="14.4" fill="#0000ff" fill-rule="evenodd" fill-opacity="1" stroke="#000000" stroke-opacity="1" stroke-width="2.8"/>
<circle clip-path="url(#clip652)" cx="1082.03" cy="585.052" r="14.4" fill="#0000ff" fill-rule="evenodd" fill-opacity="1" stroke="#000000" stroke-opacity="1" stroke-width="2.8"/>
<circle clip-path="url(#clip652)" cx="1112.45" cy="600.68" r="14.4" fill="#0000ff" fill-rule="evenodd" fill-opacity="1" stroke="#000000" stroke-opacity="1" stroke-width="2.8"/>
<circle clip-path="url(#clip652)" cx="991.993" cy="524.983" r="14.4" fill="#0000ff" fill-rule="evenodd" fill-opacity="1" stroke="#000000" stroke-opacity="1" stroke-width="2.8"/>
<circle clip-path="url(#clip652)" cx="1046.83" cy="567.355" r="14.4" fill="#0000ff" fill-rule="evenodd" fill-opacity="1" stroke="#000000" stroke-opacity="1" stroke-width="2.8"/>
<circle clip-path="url(#clip652)" cx="998.456" cy="526.9" r="14.4" fill="#0000ff" fill-rule="evenodd" fill-opacity="1" stroke="#000000" stroke-opacity="1" stroke-width="2.8"/>
<circle clip-path="url(#clip652)" cx="1083.85" cy="413.997" r="14.4" fill="#0000ff" fill-rule="evenodd" fill-opacity="1" stroke="#000000" stroke-opacity="1" stroke-width="2.8"/>
<circle clip-path="url(#clip652)" cx="1113.4" cy="448.302" r="14.4" fill="#0000ff" fill-rule="evenodd" fill-opacity="1" stroke="#000000" stroke-opacity="1" stroke-width="2.8"/>
<circle clip-path="url(#clip652)" cx="1085.4" cy="629.526" r="14.4" fill="#0000ff" fill-rule="evenodd" fill-opacity="1" stroke="#000000" stroke-opacity="1" stroke-width="2.8"/>
<circle clip-path="url(#clip652)" cx="1057.55" cy="577.841" r="14.4" fill="#0000ff" fill-rule="evenodd" fill-opacity="1" stroke="#000000" stroke-opacity="1" stroke-width="2.8"/>
<circle clip-path="url(#clip652)" cx="1120.83" cy="718.261" r="36" fill="#ffff00" fill-rule="evenodd" fill-opacity="1" stroke="#000000" stroke-opacity="1" stroke-width="2.8"/>
<circle clip-path="url(#clip652)" cx="1143.52" cy="755.909" r="18" fill="#ffff00" fill-rule="evenodd" fill-opacity="1" stroke="#000000" stroke-opacity="1" stroke-width="2.8"/>
<circle clip-path="url(#clip652)" cx="1134.23" cy="753.037" r="18" fill="#ffff00" fill-rule="evenodd" fill-opacity="1" stroke="#000000" stroke-opacity="1" stroke-width="2.8"/>
<circle clip-path="url(#clip652)" cx="1126.8" cy="750.538" r="18" fill="#ffff00" fill-rule="evenodd" fill-opacity="1" stroke="#000000" stroke-opacity="1" stroke-width="2.8"/>
<circle clip-path="url(#clip652)" cx="1119.94" cy="748.078" r="18" fill="#ffff00" fill-rule="evenodd" fill-opacity="1" stroke="#000000" stroke-opacity="1" stroke-width="2.8"/>
<circle clip-path="url(#clip652)" cx="1113.71" cy="745.657" r="18" fill="#ffff00" fill-rule="evenodd" fill-opacity="1" stroke="#000000" stroke-opacity="1" stroke-width="2.8"/>
<circle clip-path="url(#clip652)" cx="1108.14" cy="743.276" r="18" fill="#ffff00" fill-rule="evenodd" fill-opacity="1" stroke="#000000" stroke-opacity="1" stroke-width="2.8"/>
<circle clip-path="url(#clip652)" cx="1103.29" cy="740.936" r="18" fill="#ffff00" fill-rule="evenodd" fill-opacity="1" stroke="#000000" stroke-opacity="1" stroke-width="2.8"/>
<circle clip-path="url(#clip652)" cx="1099.23" cy="738.638" r="18" fill="#ffff00" fill-rule="evenodd" fill-opacity="1" stroke="#000000" stroke-opacity="1" stroke-width="2.8"/>
<circle clip-path="url(#clip652)" cx="1096.01" cy="736.385" r="18" fill="#ffff00" fill-rule="evenodd" fill-opacity="1" stroke="#000000" stroke-opacity="1" stroke-width="2.8"/>
<circle clip-path="url(#clip652)" cx="1093.7" cy="734.179" r="18" fill="#ffff00" fill-rule="evenodd" fill-opacity="1" stroke="#000000" stroke-opacity="1" stroke-width="2.8"/>
<circle clip-path="url(#clip652)" cx="1092.38" cy="732.025" r="18" fill="#ffff00" fill-rule="evenodd" fill-opacity="1" stroke="#000000" stroke-opacity="1" stroke-width="2.8"/>
<circle clip-path="url(#clip652)" cx="1092.13" cy="729.93" r="18" fill="#ffff00" fill-rule="evenodd" fill-opacity="1" stroke="#000000" stroke-opacity="1" stroke-width="2.8"/>
<circle clip-path="url(#clip652)" cx="1093.02" cy="727.906" r="18" fill="#ffff00" fill-rule="evenodd" fill-opacity="1" stroke="#000000" stroke-opacity="1" stroke-width="2.8"/>
<circle clip-path="url(#clip652)" cx="1095.11" cy="725.966" r="18" fill="#ffff00" fill-rule="evenodd" fill-opacity="1" stroke="#000000" stroke-opacity="1" stroke-width="2.8"/>
<circle clip-path="url(#clip652)" cx="1098.39" cy="724.129" r="18" fill="#ffff00" fill-rule="evenodd" fill-opacity="1" stroke="#000000" stroke-opacity="1" stroke-width="2.8"/>
<circle clip-path="url(#clip652)" cx="1102.81" cy="722.42" r="18" fill="#ffff00" fill-rule="evenodd" fill-opacity="1" stroke="#000000" stroke-opacity="1" stroke-width="2.8"/>
<circle clip-path="url(#clip652)" cx="1108.2" cy="720.86" r="18" fill="#ffff00" fill-rule="evenodd" fill-opacity="1" stroke="#000000" stroke-opacity="1" stroke-width="2.8"/>
<circle clip-path="url(#clip652)" cx="1114.32" cy="719.471" r="18" fill="#ffff00" fill-rule="evenodd" fill-opacity="1" stroke="#000000" stroke-opacity="1" stroke-width="2.8"/>
<path clip-path="url(#clip650)" d="M1759.98 1300.33 L3152.76 1300.33 L3152.76 102.682 L1759.98 102.682  Z" fill="#ffffff" fill-rule="evenodd" fill-opacity="1"/>
<defs>
  <clipPath id="clip653">
    <rect x="1759" y="102" width="1394" height="1199"/>
  </clipPath>
</defs>
<polyline clip-path="url(#clip653)" style="stroke:#000000; stroke-linecap:round; stroke-linejoin:round; stroke-width:2; stroke-opacity:0.1; fill:none" points="1943.3,1300.33 1943.3,102.682 "/>
<polyline clip-path="url(#clip653)" style="stroke:#000000; stroke-linecap:round; stroke-linejoin:round; stroke-width:2; stroke-opacity:0.1; fill:none" points="2313.94,1300.33 2313.94,102.682 "/>
<polyline clip-path="url(#clip653)" style="stroke:#000000; stroke-linecap:round; stroke-linejoin:round; stroke-width:2; stroke-opacity:0.1; fill:none" points="2684.59,1300.33 2684.59,102.682 "/>
<polyline clip-path="url(#clip653)" style="stroke:#000000; stroke-linecap:round; stroke-linejoin:round; stroke-width:2; stroke-opacity:0.1; fill:none" points="3055.24,1300.33 3055.24,102.682 "/>
<polyline clip-path="url(#clip650)" style="stroke:#000000; stroke-linecap:round; stroke-linejoin:round; stroke-width:4; stroke-opacity:1; fill:none" points="1759.98,1300.33 3152.76,1300.33 "/>
<polyline clip-path="url(#clip650)" style="stroke:#000000; stroke-linecap:round; stroke-linejoin:round; stroke-width:4; stroke-opacity:1; fill:none" points="1943.3,1300.33 1943.3,1281.43 "/>
<polyline clip-path="url(#clip650)" style="stroke:#000000; stroke-linecap:round; stroke-linejoin:round; stroke-width:4; stroke-opacity:1; fill:none" points="2313.94,1300.33 2313.94,1281.43 "/>
<polyline clip-path="url(#clip650)" style="stroke:#000000; stroke-linecap:round; stroke-linejoin:round; stroke-width:4; stroke-opacity:1; fill:none" points="2684.59,1300.33 2684.59,1281.43 "/>
<polyline clip-path="url(#clip650)" style="stroke:#000000; stroke-linecap:round; stroke-linejoin:round; stroke-width:4; stroke-opacity:1; fill:none" points="3055.24,1300.33 3055.24,1281.43 "/>
<path clip-path="url(#clip650)" d="M1943.3 1337.65 Q1939.68 1337.65 1937.86 1341.21 Q1936.05 1344.75 1936.05 1351.88 Q1936.05 1358.99 1937.86 1362.55 Q1939.68 1366.1 1943.3 1366.1 Q1946.93 1366.1 1948.74 1362.55 Q1950.56 1358.99 1950.56 1351.88 Q1950.56 1344.75 1948.74 1341.21 Q1946.93 1337.65 1943.3 1337.65 M1943.3 1333.94 Q1949.11 1333.94 1952.16 1338.55 Q1955.24 1343.13 1955.24 1351.88 Q1955.24 1360.61 1952.16 1365.22 Q1949.11 1369.8 1943.3 1369.8 Q1937.49 1369.8 1934.41 1365.22 Q1931.35 1360.61 1931.35 1351.88 Q1931.35 1343.13 1934.41 1338.55 Q1937.49 1333.94 1943.3 1333.94 Z" fill="#000000" fill-rule="nonzero" fill-opacity="1" /><path clip-path="url(#clip650)" d="M2304.33 1365.19 L2311.96 1365.19 L2311.96 1338.83 L2303.65 1340.49 L2303.65 1336.23 L2311.92 1334.57 L2316.59 1334.57 L2316.59 1365.19 L2324.23 1365.19 L2324.23 1369.13 L2304.33 1369.13 L2304.33 1365.19 Z" fill="#000000" fill-rule="nonzero" fill-opacity="1" /><path clip-path="url(#clip650)" d="M2679.25 1365.19 L2695.56 1365.19 L2695.56 1369.13 L2673.62 1369.13 L2673.62 1365.19 Q2676.28 1362.44 2680.87 1357.81 Q2685.47 1353.16 2686.65 1351.81 Q2688.9 1349.29 2689.78 1347.55 Q2690.68 1345.79 2690.68 1344.1 Q2690.68 1341.35 2688.74 1339.61 Q2686.81 1337.88 2683.71 1337.88 Q2681.51 1337.88 2679.06 1338.64 Q2676.63 1339.41 2673.85 1340.96 L2673.85 1336.23 Q2676.68 1335.1 2679.13 1334.52 Q2681.58 1333.94 2683.62 1333.94 Q2688.99 1333.94 2692.19 1336.63 Q2695.38 1339.31 2695.38 1343.8 Q2695.38 1345.93 2694.57 1347.85 Q2693.78 1349.75 2691.68 1352.35 Q2691.1 1353.02 2688 1356.23 Q2684.89 1359.43 2679.25 1365.19 Z" fill="#000000" fill-rule="nonzero" fill-opacity="1" /><path clip-path="url(#clip650)" d="M3059.49 1350.49 Q3062.85 1351.21 3064.72 1353.48 Q3066.62 1355.75 3066.62 1359.08 Q3066.62 1364.2 3063.1 1367 Q3059.58 1369.8 3053.1 1369.8 Q3050.92 1369.8 3048.61 1369.36 Q3046.32 1368.94 3043.86 1368.09 L3043.86 1363.57 Q3045.81 1364.71 3048.12 1365.29 Q3050.44 1365.86 3052.96 1365.86 Q3057.36 1365.86 3059.65 1364.13 Q3061.97 1362.39 3061.97 1359.08 Q3061.97 1356.03 3059.81 1354.31 Q3057.68 1352.58 3053.86 1352.58 L3049.84 1352.58 L3049.84 1348.73 L3054.05 1348.73 Q3057.5 1348.73 3059.33 1347.37 Q3061.16 1345.98 3061.16 1343.39 Q3061.16 1340.73 3059.26 1339.31 Q3057.38 1337.88 3053.86 1337.88 Q3051.94 1337.88 3049.74 1338.29 Q3047.54 1338.71 3044.91 1339.59 L3044.91 1335.42 Q3047.57 1334.68 3049.88 1334.31 Q3052.22 1333.94 3054.28 1333.94 Q3059.6 1333.94 3062.71 1336.37 Q3065.81 1338.78 3065.81 1342.9 Q3065.81 1345.77 3064.16 1347.76 Q3062.52 1349.73 3059.49 1350.49 Z" fill="#000000" fill-rule="nonzero" fill-opacity="1" /><polyline clip-path="url(#clip653)" style="stroke:#000000; stroke-linecap:round; stroke-linejoin:round; stroke-width:2; stroke-opacity:0.1; fill:none" points="1759.98,1263.98 3152.76,1263.98 "/>
<polyline clip-path="url(#clip653)" style="stroke:#000000; stroke-linecap:round; stroke-linejoin:round; stroke-width:2; stroke-opacity:0.1; fill:none" points="1759.98,893.33 3152.76,893.33 "/>
<polyline clip-path="url(#clip653)" style="stroke:#000000; stroke-linecap:round; stroke-linejoin:round; stroke-width:2; stroke-opacity:0.1; fill:none" points="1759.98,522.682 3152.76,522.682 "/>
<polyline clip-path="url(#clip653)" style="stroke:#000000; stroke-linecap:round; stroke-linejoin:round; stroke-width:2; stroke-opacity:0.1; fill:none" points="1759.98,152.033 3152.76,152.033 "/>
<polyline clip-path="url(#clip650)" style="stroke:#000000; stroke-linecap:round; stroke-linejoin:round; stroke-width:4; stroke-opacity:1; fill:none" points="1759.98,1300.33 1759.98,102.682 "/>
<polyline clip-path="url(#clip650)" style="stroke:#000000; stroke-linecap:round; stroke-linejoin:round; stroke-width:4; stroke-opacity:1; fill:none" points="1759.98,1263.98 1778.88,1263.98 "/>
<polyline clip-path="url(#clip650)" style="stroke:#000000; stroke-linecap:round; stroke-linejoin:round; stroke-width:4; stroke-opacity:1; fill:none" points="1759.98,893.33 1778.88,893.33 "/>
<polyline clip-path="url(#clip650)" style="stroke:#000000; stroke-linecap:round; stroke-linejoin:round; stroke-width:4; stroke-opacity:1; fill:none" points="1759.98,522.682 1778.88,522.682 "/>
<polyline clip-path="url(#clip650)" style="stroke:#000000; stroke-linecap:round; stroke-linejoin:round; stroke-width:4; stroke-opacity:1; fill:none" points="1759.98,152.033 1778.88,152.033 "/>
<path clip-path="url(#clip650)" d="M1692.07 1277.32 L1699.71 1277.32 L1699.71 1250.96 L1691.4 1252.62 L1691.4 1248.37 L1699.67 1246.7 L1704.34 1246.7 L1704.34 1277.32 L1711.98 1277.32 L1711.98 1281.26 L1692.07 1281.26 L1692.07 1277.32 Z" fill="#000000" fill-rule="nonzero" fill-opacity="1" /><path clip-path="url(#clip650)" d="M1695.66 906.675 L1711.98 906.675 L1711.98 910.61 L1690.04 910.61 L1690.04 906.675 Q1692.7 903.921 1697.28 899.291 Q1701.89 894.638 1703.07 893.296 Q1705.31 890.773 1706.19 889.036 Q1707.1 887.277 1707.1 885.587 Q1707.1 882.833 1705.15 881.097 Q1703.23 879.361 1700.13 879.361 Q1697.93 879.361 1695.48 880.124 Q1693.05 880.888 1690.27 882.439 L1690.27 877.717 Q1693.09 876.583 1695.55 876.004 Q1698 875.425 1700.04 875.425 Q1705.41 875.425 1708.6 878.111 Q1711.8 880.796 1711.8 885.286 Q1711.8 887.416 1710.98 889.337 Q1710.2 891.235 1708.09 893.828 Q1707.51 894.499 1704.41 897.717 Q1701.31 900.911 1695.66 906.675 Z" fill="#000000" fill-rule="nonzero" fill-opacity="1" /><path clip-path="url(#clip650)" d="M1704.85 521.328 Q1708.21 522.045 1710.08 524.314 Q1711.98 526.582 1711.98 529.915 Q1711.98 535.031 1708.46 537.832 Q1704.94 540.633 1698.46 540.633 Q1696.29 540.633 1693.97 540.193 Q1691.68 539.777 1689.23 538.92 L1689.23 534.406 Q1691.17 535.54 1693.48 536.119 Q1695.8 536.698 1698.32 536.698 Q1702.72 536.698 1705.01 534.962 Q1707.33 533.226 1707.33 529.915 Q1707.33 526.86 1705.17 525.147 Q1703.05 523.411 1699.23 523.411 L1695.2 523.411 L1695.2 519.568 L1699.41 519.568 Q1702.86 519.568 1704.69 518.203 Q1706.52 516.814 1706.52 514.221 Q1706.52 511.559 1704.62 510.147 Q1702.74 508.712 1699.23 508.712 Q1697.3 508.712 1695.11 509.129 Q1692.91 509.545 1690.27 510.425 L1690.27 506.258 Q1692.93 505.517 1695.24 505.147 Q1697.58 504.777 1699.64 504.777 Q1704.97 504.777 1708.07 507.207 Q1711.17 509.615 1711.17 513.735 Q1711.17 516.605 1709.53 518.596 Q1707.88 520.564 1704.85 521.328 Z" fill="#000000" fill-rule="nonzero" fill-opacity="1" /><path clip-path="url(#clip650)" d="M1702.4 138.827 L1690.59 157.276 L1702.4 157.276 L1702.4 138.827 M1701.17 134.753 L1707.05 134.753 L1707.05 157.276 L1711.98 157.276 L1711.98 161.165 L1707.05 161.165 L1707.05 169.313 L1702.4 169.313 L1702.4 161.165 L1686.8 161.165 L1686.8 156.651 L1701.17 134.753 Z" fill="#000000" fill-rule="nonzero" fill-opacity="1" /><path clip-path="url(#clip650)" d="M2097.98 12.096 L2106.17 12.096 L2106.17 65.6895 L2135.62 65.6895 L2135.62 72.576 L2097.98 72.576 L2097.98 12.096 Z" fill="#000000" fill-rule="nonzero" fill-opacity="1" /><path clip-path="url(#clip650)" d="M2164.5 49.7694 Q2155.47 49.7694 2151.98 51.8354 Q2148.5 53.9013 2148.5 58.8839 Q2148.5 62.8538 2151.09 65.2034 Q2153.73 67.5124 2158.22 67.5124 Q2164.42 67.5124 2168.15 63.1374 Q2171.91 58.7219 2171.91 51.4303 L2171.91 49.7694 L2164.5 49.7694 M2179.37 46.6907 L2179.37 72.576 L2171.91 72.576 L2171.91 65.6895 Q2169.36 69.8214 2165.55 71.8063 Q2161.75 73.7508 2156.24 73.7508 Q2149.27 73.7508 2145.14 69.8619 Q2141.05 65.9325 2141.05 59.3701 Q2141.05 51.7138 2146.15 47.825 Q2151.29 43.9361 2161.46 43.9361 L2171.91 43.9361 L2171.91 43.2069 Q2171.91 38.0623 2168.51 35.2672 Q2165.15 32.4315 2159.03 32.4315 Q2155.14 32.4315 2151.46 33.3632 Q2147.77 34.295 2144.37 36.1584 L2144.37 29.2718 Q2148.46 27.692 2152.31 26.9223 Q2156.16 26.1121 2159.8 26.1121 Q2169.65 26.1121 2174.51 31.2163 Q2179.37 36.3204 2179.37 46.6907 Z" fill="#000000" fill-rule="nonzero" fill-opacity="1" /><path clip-path="url(#clip650)" d="M2202.09 14.324 L2202.09 27.2059 L2217.45 27.2059 L2217.45 32.9987 L2202.09 32.9987 L2202.09 57.6282 Q2202.09 63.1779 2203.59 64.7578 Q2205.13 66.3376 2209.79 66.3376 L2217.45 66.3376 L2217.45 72.576 L2209.79 72.576 Q2201.16 72.576 2197.88 69.3758 Q2194.6 66.1351 2194.6 57.6282 L2194.6 32.9987 L2189.13 32.9987 L2189.13 27.2059 L2194.6 27.2059 L2194.6 14.324 L2202.09 14.324 Z" fill="#000000" fill-rule="nonzero" fill-opacity="1" /><path clip-path="url(#clip650)" d="M2266.06 48.0275 L2266.06 51.6733 L2231.79 51.6733 Q2232.27 59.3701 2236.4 63.421 Q2240.58 67.4314 2247.99 67.4314 Q2252.28 67.4314 2256.29 66.3781 Q2260.34 65.3249 2264.31 63.2184 L2264.31 70.267 Q2260.3 71.9684 2256.09 72.8596 Q2251.88 73.7508 2247.54 73.7508 Q2236.69 73.7508 2230.33 67.4314 Q2224.01 61.1119 2224.01 50.3365 Q2224.01 39.1965 2230 32.6746 Q2236.04 26.1121 2246.25 26.1121 Q2255.4 26.1121 2260.71 32.0264 Q2266.06 37.9003 2266.06 48.0275 M2258.6 45.84 Q2258.52 39.7232 2255.16 36.0774 Q2251.84 32.4315 2246.33 32.4315 Q2240.09 32.4315 2236.32 35.9558 Q2232.6 39.4801 2232.03 45.8805 L2258.6 45.84 Z" fill="#000000" fill-rule="nonzero" fill-opacity="1" /><path clip-path="url(#clip650)" d="M2316 45.1919 L2316 72.576 L2308.55 72.576 L2308.55 45.4349 Q2308.55 38.994 2306.04 35.7938 Q2303.53 32.5936 2298.5 32.5936 Q2292.47 32.5936 2288.98 36.4419 Q2285.5 40.2903 2285.5 46.9338 L2285.5 72.576 L2278.01 72.576 L2278.01 27.2059 L2285.5 27.2059 L2285.5 34.2544 Q2288.17 30.163 2291.78 28.1376 Q2295.43 26.1121 2300.17 26.1121 Q2307.98 26.1121 2311.99 30.9732 Q2316 35.7938 2316 45.1919 Z" fill="#000000" fill-rule="nonzero" fill-opacity="1" /><path clip-path="url(#clip650)" d="M2338.24 14.324 L2338.24 27.2059 L2353.6 27.2059 L2353.6 32.9987 L2338.24 32.9987 L2338.24 57.6282 Q2338.24 63.1779 2339.74 64.7578 Q2341.28 66.3376 2345.94 66.3376 L2353.6 66.3376 L2353.6 72.576 L2345.94 72.576 Q2337.31 72.576 2334.03 69.3758 Q2330.75 66.1351 2330.75 57.6282 L2330.75 32.9987 L2325.28 32.9987 L2325.28 27.2059 L2330.75 27.2059 L2330.75 14.324 L2338.24 14.324 Z" fill="#000000" fill-rule="nonzero" fill-opacity="1" /><path clip-path="url(#clip650)" d="M2418.69 28.5427 L2418.69 35.5912 Q2415.53 33.9709 2412.13 33.1607 Q2408.73 32.3505 2405.08 32.3505 Q2399.53 32.3505 2396.74 34.0519 Q2393.98 35.7533 2393.98 39.156 Q2393.98 41.7486 2395.97 43.2475 Q2397.95 44.7058 2403.95 46.0426 L2406.5 46.6097 Q2414.44 48.3111 2417.76 51.4303 Q2421.13 54.509 2421.13 60.0587 Q2421.13 66.3781 2416.1 70.0644 Q2411.12 73.7508 2402.37 73.7508 Q2398.72 73.7508 2394.75 73.0216 Q2390.82 72.3329 2386.45 70.9151 L2386.45 63.2184 Q2390.58 65.3654 2394.59 66.4591 Q2398.6 67.5124 2402.53 67.5124 Q2407.8 67.5124 2410.63 65.73 Q2413.47 63.9071 2413.47 60.6258 Q2413.47 57.5877 2411.4 55.9673 Q2409.38 54.3469 2402.45 52.8481 L2399.86 52.2405 Q2392.93 50.7821 2389.85 47.7845 Q2386.77 44.7463 2386.77 39.4801 Q2386.77 33.0797 2391.31 29.5959 Q2395.85 26.1121 2404.19 26.1121 Q2408.32 26.1121 2411.97 26.7198 Q2415.62 27.3274 2418.69 28.5427 Z" fill="#000000" fill-rule="nonzero" fill-opacity="1" /><path clip-path="url(#clip650)" d="M2440.2 65.7705 L2440.2 89.8329 L2432.71 89.8329 L2432.71 27.2059 L2440.2 27.2059 L2440.2 34.0924 Q2442.55 30.0415 2446.12 28.0971 Q2449.72 26.1121 2454.71 26.1121 Q2462.97 26.1121 2468.12 32.6746 Q2473.3 39.2371 2473.3 49.9314 Q2473.3 60.6258 2468.12 67.1883 Q2462.97 73.7508 2454.71 73.7508 Q2449.72 73.7508 2446.12 71.8063 Q2442.55 69.8214 2440.2 65.7705 M2465.56 49.9314 Q2465.56 41.7081 2462.16 37.0496 Q2458.8 32.3505 2452.88 32.3505 Q2446.97 32.3505 2443.57 37.0496 Q2440.2 41.7081 2440.2 49.9314 Q2440.2 58.1548 2443.57 62.8538 Q2446.97 67.5124 2452.88 67.5124 Q2458.8 67.5124 2462.16 62.8538 Q2465.56 58.1548 2465.56 49.9314 Z" fill="#000000" fill-rule="nonzero" fill-opacity="1" /><path clip-path="url(#clip650)" d="M2506.28 49.7694 Q2497.24 49.7694 2493.76 51.8354 Q2490.27 53.9013 2490.27 58.8839 Q2490.27 62.8538 2492.87 65.2034 Q2495.5 67.5124 2500 67.5124 Q2506.19 67.5124 2509.92 63.1374 Q2513.69 58.7219 2513.69 51.4303 L2513.69 49.7694 L2506.28 49.7694 M2521.14 46.6907 L2521.14 72.576 L2513.69 72.576 L2513.69 65.6895 Q2511.14 69.8214 2507.33 71.8063 Q2503.52 73.7508 2498.01 73.7508 Q2491.04 73.7508 2486.91 69.8619 Q2482.82 65.9325 2482.82 59.3701 Q2482.82 51.7138 2487.92 47.825 Q2493.07 43.9361 2503.24 43.9361 L2513.69 43.9361 L2513.69 43.2069 Q2513.69 38.0623 2510.29 35.2672 Q2506.92 32.4315 2500.81 32.4315 Q2496.92 32.4315 2493.23 33.3632 Q2489.54 34.295 2486.14 36.1584 L2486.14 29.2718 Q2490.23 27.692 2494.08 26.9223 Q2497.93 26.1121 2501.58 26.1121 Q2511.42 26.1121 2516.28 31.2163 Q2521.14 36.3204 2521.14 46.6907 Z" fill="#000000" fill-rule="nonzero" fill-opacity="1" /><path clip-path="url(#clip650)" d="M2569.15 28.9478 L2569.15 35.9153 Q2565.99 34.1734 2562.79 33.3227 Q2559.63 32.4315 2556.38 32.4315 Q2549.13 32.4315 2545.12 37.0496 Q2541.11 41.6271 2541.11 49.9314 Q2541.11 58.2358 2545.12 62.8538 Q2549.13 67.4314 2556.38 67.4314 Q2559.63 67.4314 2562.79 66.5807 Q2565.99 65.6895 2569.15 63.9476 L2569.15 70.8341 Q2566.03 72.2924 2562.66 73.0216 Q2559.34 73.7508 2555.57 73.7508 Q2545.33 73.7508 2539.29 67.3098 Q2533.25 60.8689 2533.25 49.9314 Q2533.25 38.832 2539.33 32.472 Q2545.45 26.1121 2556.06 26.1121 Q2559.5 26.1121 2562.79 26.8413 Q2566.07 27.5299 2569.15 28.9478 Z" fill="#000000" fill-rule="nonzero" fill-opacity="1" /><path clip-path="url(#clip650)" d="M2620.92 48.0275 L2620.92 51.6733 L2586.65 51.6733 Q2587.13 59.3701 2591.26 63.421 Q2595.44 67.4314 2602.85 67.4314 Q2607.14 67.4314 2611.15 66.3781 Q2615.2 65.3249 2619.17 63.2184 L2619.17 70.267 Q2615.16 71.9684 2610.95 72.8596 Q2606.74 73.7508 2602.4 73.7508 Q2591.55 73.7508 2585.19 67.4314 Q2578.87 61.1119 2578.87 50.3365 Q2578.87 39.1965 2584.86 32.6746 Q2590.9 26.1121 2601.11 26.1121 Q2610.26 26.1121 2615.57 32.0264 Q2620.92 37.9003 2620.92 48.0275 M2613.46 45.84 Q2613.38 39.7232 2610.02 36.0774 Q2606.7 32.4315 2601.19 32.4315 Q2594.95 32.4315 2591.18 35.9558 Q2587.46 39.4801 2586.89 45.8805 L2613.46 45.84 Z" fill="#000000" fill-rule="nonzero" fill-opacity="1" /><path clip-path="url(#clip650)" d="M2677.43 9.62495 Q2672 18.942 2669.36 28.0566 Q2666.73 37.1711 2666.73 46.5287 Q2666.73 55.8863 2669.36 65.0818 Q2672.04 74.2369 2677.43 83.5134 L2670.94 83.5134 Q2664.87 73.9938 2661.83 64.7983 Q2658.83 55.6027 2658.83 46.5287 Q2658.83 37.4952 2661.83 28.3401 Q2664.83 19.1851 2670.94 9.62495 L2677.43 9.62495 Z" fill="#000000" fill-rule="nonzero" fill-opacity="1" /><path clip-path="url(#clip650)" d="M2699.99 65.6895 L2728.55 65.6895 L2728.55 72.576 L2690.15 72.576 L2690.15 65.6895 Q2694.8 60.8689 2702.83 52.7671 Q2710.89 44.6248 2712.95 42.2752 Q2716.88 37.8598 2718.42 34.8216 Q2720 31.7429 2720 28.7857 Q2720 23.9651 2716.6 20.927 Q2713.24 17.8888 2707.81 17.8888 Q2703.96 17.8888 2699.67 19.2256 Q2695.41 20.5624 2690.55 23.2765 L2690.55 15.0127 Q2695.49 13.0277 2699.79 12.015 Q2704.08 11.0023 2707.65 11.0023 Q2717.04 11.0023 2722.63 15.7013 Q2728.22 20.4004 2728.22 28.2591 Q2728.22 31.9859 2726.81 35.3482 Q2725.43 38.6699 2721.74 43.2069 Q2720.73 44.3817 2715.3 50.0125 Q2709.87 55.6027 2699.99 65.6895 Z" fill="#000000" fill-rule="nonzero" fill-opacity="1" /><path clip-path="url(#clip650)" d="M2774.53 34.0924 L2774.53 9.54393 L2781.98 9.54393 L2781.98 72.576 L2774.53 72.576 L2774.53 65.7705 Q2772.18 69.8214 2768.57 71.8063 Q2765.01 73.7508 2759.98 73.7508 Q2751.76 73.7508 2746.57 67.1883 Q2741.43 60.6258 2741.43 49.9314 Q2741.43 39.2371 2746.57 32.6746 Q2751.76 26.1121 2759.98 26.1121 Q2765.01 26.1121 2768.57 28.0971 Q2772.18 30.0415 2774.53 34.0924 M2749.13 49.9314 Q2749.13 58.1548 2752.49 62.8538 Q2755.89 67.5124 2761.81 67.5124 Q2767.72 67.5124 2771.12 62.8538 Q2774.53 58.1548 2774.53 49.9314 Q2774.53 41.7081 2771.12 37.0496 Q2767.72 32.3505 2761.81 32.3505 Q2755.89 32.3505 2752.49 37.0496 Q2749.13 41.7081 2749.13 49.9314 Z" fill="#000000" fill-rule="nonzero" fill-opacity="1" /><path clip-path="url(#clip650)" d="M2796.16 9.62495 L2802.64 9.62495 Q2808.72 19.1851 2811.71 28.3401 Q2814.75 37.4952 2814.75 46.5287 Q2814.75 55.6027 2811.71 64.7983 Q2808.72 73.9938 2802.64 83.5134 L2796.16 83.5134 Q2801.55 74.2369 2804.18 65.0818 Q2806.85 55.8863 2806.85 46.5287 Q2806.85 37.1711 2804.18 28.0566 Q2801.55 18.942 2796.16 9.62495 Z" fill="#000000" fill-rule="nonzero" fill-opacity="1" /><circle clip-path="url(#clip653)" cx="1928.05" cy="619.008" r="14.4" fill="#800080" fill-rule="evenodd" fill-opacity="0.8" stroke="#000000" stroke-opacity="0.8" stroke-width="0"/>
<circle clip-path="url(#clip653)" cx="2084" cy="639.769" r="14.4" fill="#800080" fill-rule="evenodd" fill-opacity="0.8" stroke="#000000" stroke-opacity="0.8" stroke-width="0"/>
<circle clip-path="url(#clip653)" cx="2039.21" cy="653.778" r="14.4" fill="#800080" fill-rule="evenodd" fill-opacity="0.8" stroke="#000000" stroke-opacity="0.8" stroke-width="0"/>
<circle clip-path="url(#clip653)" cx="2055.76" cy="636.835" r="14.4" fill="#800080" fill-rule="evenodd" fill-opacity="0.8" stroke="#000000" stroke-opacity="0.8" stroke-width="0"/>
<circle clip-path="url(#clip653)" cx="2198.55" cy="670.599" r="14.4" fill="#800080" fill-rule="evenodd" fill-opacity="0.8" stroke="#000000" stroke-opacity="0.8" stroke-width="0"/>
<circle clip-path="url(#clip653)" cx="2081.32" cy="631.758" r="14.4" fill="#800080" fill-rule="evenodd" fill-opacity="0.8" stroke="#000000" stroke-opacity="0.8" stroke-width="0"/>
<circle clip-path="url(#clip653)" cx="1946.31" cy="625.63" r="14.4" fill="#800080" fill-rule="evenodd" fill-opacity="0.8" stroke="#000000" stroke-opacity="0.8" stroke-width="0"/>
<circle clip-path="url(#clip653)" cx="2031.21" cy="615.015" r="14.4" fill="#800080" fill-rule="evenodd" fill-opacity="0.8" stroke="#000000" stroke-opacity="0.8" stroke-width="0"/>
<circle clip-path="url(#clip653)" cx="1909.52" cy="630.809" r="14.4" fill="#800080" fill-rule="evenodd" fill-opacity="0.8" stroke="#000000" stroke-opacity="0.8" stroke-width="0"/>
<circle clip-path="url(#clip653)" cx="2043.53" cy="620.262" r="14.4" fill="#800080" fill-rule="evenodd" fill-opacity="0.8" stroke="#000000" stroke-opacity="0.8" stroke-width="0"/>
<circle clip-path="url(#clip653)" cx="2050.03" cy="634.415" r="14.4" fill="#800080" fill-rule="evenodd" fill-opacity="0.8" stroke="#000000" stroke-opacity="0.8" stroke-width="0"/>
<circle clip-path="url(#clip653)" cx="2128.64" cy="649.413" r="14.4" fill="#800080" fill-rule="evenodd" fill-opacity="0.8" stroke="#000000" stroke-opacity="0.8" stroke-width="0"/>
<circle clip-path="url(#clip653)" cx="1966.62" cy="628.006" r="14.4" fill="#800080" fill-rule="evenodd" fill-opacity="0.8" stroke="#000000" stroke-opacity="0.8" stroke-width="0"/>
<circle clip-path="url(#clip653)" cx="2230.11" cy="642.533" r="14.4" fill="#800080" fill-rule="evenodd" fill-opacity="0.8" stroke="#000000" stroke-opacity="0.8" stroke-width="0"/>
<circle clip-path="url(#clip653)" cx="2011.22" cy="624.192" r="14.4" fill="#800080" fill-rule="evenodd" fill-opacity="0.8" stroke="#000000" stroke-opacity="0.8" stroke-width="0"/>
<circle clip-path="url(#clip653)" cx="1961.35" cy="634.965" r="14.4" fill="#800080" fill-rule="evenodd" fill-opacity="0.8" stroke="#000000" stroke-opacity="0.8" stroke-width="0"/>
<circle clip-path="url(#clip653)" cx="2192.63" cy="621.734" r="14.4" fill="#800080" fill-rule="evenodd" fill-opacity="0.8" stroke="#000000" stroke-opacity="0.8" stroke-width="0"/>
<circle clip-path="url(#clip653)" cx="2126.25" cy="629.833" r="14.4" fill="#800080" fill-rule="evenodd" fill-opacity="0.8" stroke="#000000" stroke-opacity="0.8" stroke-width="0"/>
<circle clip-path="url(#clip653)" cx="1915.37" cy="621.657" r="14.4" fill="#800080" fill-rule="evenodd" fill-opacity="0.8" stroke="#000000" stroke-opacity="0.8" stroke-width="0"/>
<circle clip-path="url(#clip653)" cx="1992.86" cy="628.056" r="14.4" fill="#800080" fill-rule="evenodd" fill-opacity="0.8" stroke="#000000" stroke-opacity="0.8" stroke-width="0"/>
<circle clip-path="url(#clip653)" cx="2057.15" cy="617.726" r="14.4" fill="#800080" fill-rule="evenodd" fill-opacity="0.8" stroke="#000000" stroke-opacity="0.8" stroke-width="0"/>
<circle clip-path="url(#clip653)" cx="1925.21" cy="624.818" r="14.4" fill="#800080" fill-rule="evenodd" fill-opacity="0.8" stroke="#000000" stroke-opacity="0.8" stroke-width="0"/>
<circle clip-path="url(#clip653)" cx="2027.16" cy="613.42" r="14.4" fill="#800080" fill-rule="evenodd" fill-opacity="0.8" stroke="#000000" stroke-opacity="0.8" stroke-width="0"/>
<circle clip-path="url(#clip653)" cx="2184.34" cy="619.67" r="14.4" fill="#800080" fill-rule="evenodd" fill-opacity="0.8" stroke="#000000" stroke-opacity="0.8" stroke-width="0"/>
<circle clip-path="url(#clip653)" cx="2024.28" cy="628.636" r="14.4" fill="#800080" fill-rule="evenodd" fill-opacity="0.8" stroke="#000000" stroke-opacity="0.8" stroke-width="0"/>
<circle clip-path="url(#clip653)" cx="2117" cy="640.3" r="14.4" fill="#800080" fill-rule="evenodd" fill-opacity="0.8" stroke="#000000" stroke-opacity="0.8" stroke-width="0"/>
<circle clip-path="url(#clip653)" cx="2150.14" cy="633.293" r="14.4" fill="#800080" fill-rule="evenodd" fill-opacity="0.8" stroke="#000000" stroke-opacity="0.8" stroke-width="0"/>
<circle clip-path="url(#clip653)" cx="1957.98" cy="622.24" r="14.4" fill="#800080" fill-rule="evenodd" fill-opacity="0.8" stroke="#000000" stroke-opacity="0.8" stroke-width="0"/>
<circle clip-path="url(#clip653)" cx="2087.48" cy="621.286" r="14.4" fill="#800080" fill-rule="evenodd" fill-opacity="0.8" stroke="#000000" stroke-opacity="0.8" stroke-width="0"/>
<circle clip-path="url(#clip653)" cx="2687.16" cy="617.864" r="14.4" fill="#800080" fill-rule="evenodd" fill-opacity="0.8" stroke="#000000" stroke-opacity="0.8" stroke-width="0"/>
<circle clip-path="url(#clip653)" cx="1799.4" cy="629.932" r="14.4" fill="#800080" fill-rule="evenodd" fill-opacity="0.8" stroke="#000000" stroke-opacity="0.8" stroke-width="0"/>
<circle clip-path="url(#clip653)" cx="1854.57" cy="627.462" r="14.4" fill="#800080" fill-rule="evenodd" fill-opacity="0.8" stroke="#000000" stroke-opacity="0.8" stroke-width="0"/>
<circle clip-path="url(#clip653)" cx="2065.53" cy="620.309" r="14.4" fill="#800080" fill-rule="evenodd" fill-opacity="0.8" stroke="#000000" stroke-opacity="0.8" stroke-width="0"/>
<circle clip-path="url(#clip653)" cx="1939.57" cy="633.341" r="14.4" fill="#800080" fill-rule="evenodd" fill-opacity="0.8" stroke="#000000" stroke-opacity="0.8" stroke-width="0"/>
<circle clip-path="url(#clip653)" cx="1909.73" cy="627.333" r="14.4" fill="#800080" fill-rule="evenodd" fill-opacity="0.8" stroke="#000000" stroke-opacity="0.8" stroke-width="0"/>
<circle clip-path="url(#clip653)" cx="1978.19" cy="632.794" r="14.4" fill="#800080" fill-rule="evenodd" fill-opacity="0.8" stroke="#000000" stroke-opacity="0.8" stroke-width="0"/>
<circle clip-path="url(#clip653)" cx="1970.22" cy="615.612" r="14.4" fill="#800080" fill-rule="evenodd" fill-opacity="0.8" stroke="#000000" stroke-opacity="0.8" stroke-width="0"/>
<circle clip-path="url(#clip653)" cx="1906.3" cy="630.056" r="14.4" fill="#800080" fill-rule="evenodd" fill-opacity="0.8" stroke="#000000" stroke-opacity="0.8" stroke-width="0"/>
<circle clip-path="url(#clip653)" cx="2281.25" cy="664.8" r="14.4" fill="#800080" fill-rule="evenodd" fill-opacity="0.8" stroke="#000000" stroke-opacity="0.8" stroke-width="0"/>
<circle clip-path="url(#clip653)" cx="2023.76" cy="640.03" r="14.4" fill="#800080" fill-rule="evenodd" fill-opacity="0.8" stroke="#000000" stroke-opacity="0.8" stroke-width="0"/>
<circle clip-path="url(#clip653)" cx="2019.06" cy="614.374" r="14.4" fill="#800080" fill-rule="evenodd" fill-opacity="0.8" stroke="#000000" stroke-opacity="0.8" stroke-width="0"/>
<circle clip-path="url(#clip653)" cx="1987.09" cy="654.524" r="14.4" fill="#800080" fill-rule="evenodd" fill-opacity="0.8" stroke="#000000" stroke-opacity="0.8" stroke-width="0"/>
<circle clip-path="url(#clip653)" cx="2075.94" cy="645.093" r="14.4" fill="#800080" fill-rule="evenodd" fill-opacity="0.8" stroke="#000000" stroke-opacity="0.8" stroke-width="0"/>
<circle clip-path="url(#clip653)" cx="2067.29" cy="625.458" r="14.4" fill="#800080" fill-rule="evenodd" fill-opacity="0.8" stroke="#000000" stroke-opacity="0.8" stroke-width="0"/>
<circle clip-path="url(#clip653)" cx="2261.99" cy="632.648" r="14.4" fill="#800080" fill-rule="evenodd" fill-opacity="0.8" stroke="#000000" stroke-opacity="0.8" stroke-width="0"/>
<circle clip-path="url(#clip653)" cx="2017.91" cy="625.56" r="14.4" fill="#800080" fill-rule="evenodd" fill-opacity="0.8" stroke="#000000" stroke-opacity="0.8" stroke-width="0"/>
<circle clip-path="url(#clip653)" cx="1969.75" cy="630.819" r="14.4" fill="#800080" fill-rule="evenodd" fill-opacity="0.8" stroke="#000000" stroke-opacity="0.8" stroke-width="0"/>
<circle clip-path="url(#clip653)" cx="2102.81" cy="632.512" r="14.4" fill="#800080" fill-rule="evenodd" fill-opacity="0.8" stroke="#000000" stroke-opacity="0.8" stroke-width="0"/>
<circle clip-path="url(#clip653)" cx="2100.15" cy="632.399" r="14.4" fill="#800080" fill-rule="evenodd" fill-opacity="0.8" stroke="#000000" stroke-opacity="0.8" stroke-width="0"/>
<circle clip-path="url(#clip653)" cx="2004.53" cy="620.561" r="14.4" fill="#800080" fill-rule="evenodd" fill-opacity="0.8" stroke="#000000" stroke-opacity="0.8" stroke-width="0"/>
<circle clip-path="url(#clip653)" cx="3046.49" cy="830.036" r="14.4" fill="#ff0000" fill-rule="evenodd" fill-opacity="0.8" stroke="#000000" stroke-opacity="0.8" stroke-width="0"/>
<circle clip-path="url(#clip653)" cx="3012.5" cy="809.131" r="14.4" fill="#ff0000" fill-rule="evenodd" fill-opacity="0.8" stroke="#000000" stroke-opacity="0.8" stroke-width="0"/>
<circle clip-path="url(#clip653)" cx="3080.86" cy="831.886" r="14.4" fill="#ff0000" fill-rule="evenodd" fill-opacity="0.8" stroke="#000000" stroke-opacity="0.8" stroke-width="0"/>
<circle clip-path="url(#clip653)" cx="3084.41" cy="851.931" r="14.4" fill="#ff0000" fill-rule="evenodd" fill-opacity="0.8" stroke="#000000" stroke-opacity="0.8" stroke-width="0"/>
<circle clip-path="url(#clip653)" cx="2965.79" cy="790.951" r="14.4" fill="#ff0000" fill-rule="evenodd" fill-opacity="0.8" stroke="#000000" stroke-opacity="0.8" stroke-width="0"/>
<circle clip-path="url(#clip653)" cx="3047.13" cy="835.877" r="14.4" fill="#ff0000" fill-rule="evenodd" fill-opacity="0.8" stroke="#000000" stroke-opacity="0.8" stroke-width="0"/>
<circle clip-path="url(#clip653)" cx="3033.31" cy="808.512" r="14.4" fill="#ff0000" fill-rule="evenodd" fill-opacity="0.8" stroke="#000000" stroke-opacity="0.8" stroke-width="0"/>
<circle clip-path="url(#clip653)" cx="3010.23" cy="787.949" r="14.4" fill="#ff0000" fill-rule="evenodd" fill-opacity="0.8" stroke="#000000" stroke-opacity="0.8" stroke-width="0"/>
<circle clip-path="url(#clip653)" cx="3094.44" cy="869.164" r="14.4" fill="#ff0000" fill-rule="evenodd" fill-opacity="0.8" stroke="#000000" stroke-opacity="0.8" stroke-width="0"/>
<circle clip-path="url(#clip653)" cx="3079.53" cy="832.965" r="14.4" fill="#ff0000" fill-rule="evenodd" fill-opacity="0.8" stroke="#000000" stroke-opacity="0.8" stroke-width="0"/>
<circle clip-path="url(#clip653)" cx="3058.86" cy="845.583" r="14.4" fill="#ff0000" fill-rule="evenodd" fill-opacity="0.8" stroke="#000000" stroke-opacity="0.8" stroke-width="0"/>
<circle clip-path="url(#clip653)" cx="3104.24" cy="878.526" r="14.4" fill="#ff0000" fill-rule="evenodd" fill-opacity="0.8" stroke="#000000" stroke-opacity="0.8" stroke-width="0"/>
<circle clip-path="url(#clip653)" cx="3024.44" cy="828.62" r="14.4" fill="#ff0000" fill-rule="evenodd" fill-opacity="0.8" stroke="#000000" stroke-opacity="0.8" stroke-width="0"/>
<circle clip-path="url(#clip653)" cx="3092.27" cy="852.982" r="14.4" fill="#ff0000" fill-rule="evenodd" fill-opacity="0.8" stroke="#000000" stroke-opacity="0.8" stroke-width="0"/>
<circle clip-path="url(#clip653)" cx="3047.55" cy="831.878" r="14.4" fill="#ff0000" fill-rule="evenodd" fill-opacity="0.8" stroke="#000000" stroke-opacity="0.8" stroke-width="0"/>
<circle clip-path="url(#clip653)" cx="3052.05" cy="877.104" r="14.4" fill="#ff0000" fill-rule="evenodd" fill-opacity="0.8" stroke="#000000" stroke-opacity="0.8" stroke-width="0"/>
<circle clip-path="url(#clip653)" cx="3027.92" cy="789.621" r="14.4" fill="#ff0000" fill-rule="evenodd" fill-opacity="0.8" stroke="#000000" stroke-opacity="0.8" stroke-width="0"/>
<circle clip-path="url(#clip653)" cx="2977.82" cy="791.611" r="14.4" fill="#ff0000" fill-rule="evenodd" fill-opacity="0.8" stroke="#000000" stroke-opacity="0.8" stroke-width="0"/>
<circle clip-path="url(#clip653)" cx="3045" cy="829.565" r="14.4" fill="#ff0000" fill-rule="evenodd" fill-opacity="0.8" stroke="#000000" stroke-opacity="0.8" stroke-width="0"/>
<circle clip-path="url(#clip653)" cx="2983.49" cy="811.663" r="14.4" fill="#ff0000" fill-rule="evenodd" fill-opacity="0.8" stroke="#000000" stroke-opacity="0.8" stroke-width="0"/>
<circle clip-path="url(#clip653)" cx="3067.11" cy="820.668" r="14.4" fill="#ff0000" fill-rule="evenodd" fill-opacity="0.8" stroke="#000000" stroke-opacity="0.8" stroke-width="0"/>
<circle clip-path="url(#clip653)" cx="3003.05" cy="793.592" r="14.4" fill="#ff0000" fill-rule="evenodd" fill-opacity="0.8" stroke="#000000" stroke-opacity="0.8" stroke-width="0"/>
<circle clip-path="url(#clip653)" cx="2971.69" cy="815.578" r="14.4" fill="#ff0000" fill-rule="evenodd" fill-opacity="0.8" stroke="#000000" stroke-opacity="0.8" stroke-width="0"/>
<circle clip-path="url(#clip653)" cx="3097.52" cy="857.784" r="14.4" fill="#ff0000" fill-rule="evenodd" fill-opacity="0.8" stroke="#000000" stroke-opacity="0.8" stroke-width="0"/>
<circle clip-path="url(#clip653)" cx="3039.34" cy="806.032" r="14.4" fill="#ff0000" fill-rule="evenodd" fill-opacity="0.8" stroke="#000000" stroke-opacity="0.8" stroke-width="0"/>
<circle clip-path="url(#clip653)" cx="3049.43" cy="849.77" r="14.4" fill="#ff0000" fill-rule="evenodd" fill-opacity="0.8" stroke="#000000" stroke-opacity="0.8" stroke-width="0"/>
<circle clip-path="url(#clip653)" cx="3071.35" cy="832.462" r="14.4" fill="#ff0000" fill-rule="evenodd" fill-opacity="0.8" stroke="#000000" stroke-opacity="0.8" stroke-width="0"/>
<circle clip-path="url(#clip653)" cx="3009.19" cy="808.644" r="14.4" fill="#ff0000" fill-rule="evenodd" fill-opacity="0.8" stroke="#000000" stroke-opacity="0.8" stroke-width="0"/>
<circle clip-path="url(#clip653)" cx="2980.49" cy="797.758" r="14.4" fill="#ff0000" fill-rule="evenodd" fill-opacity="0.8" stroke="#000000" stroke-opacity="0.8" stroke-width="0"/>
<circle clip-path="url(#clip653)" cx="3043.64" cy="828.835" r="14.4" fill="#ff0000" fill-rule="evenodd" fill-opacity="0.8" stroke="#000000" stroke-opacity="0.8" stroke-width="0"/>
<circle clip-path="url(#clip653)" cx="3097.13" cy="861.747" r="14.4" fill="#ff0000" fill-rule="evenodd" fill-opacity="0.8" stroke="#000000" stroke-opacity="0.8" stroke-width="0"/>
<circle clip-path="url(#clip653)" cx="3022.44" cy="821.354" r="14.4" fill="#ff0000" fill-rule="evenodd" fill-opacity="0.8" stroke="#000000" stroke-opacity="0.8" stroke-width="0"/>
<circle clip-path="url(#clip653)" cx="3064.48" cy="829.881" r="14.4" fill="#ff0000" fill-rule="evenodd" fill-opacity="0.8" stroke="#000000" stroke-opacity="0.8" stroke-width="0"/>
<circle clip-path="url(#clip653)" cx="3045.92" cy="837.83" r="14.4" fill="#ff0000" fill-rule="evenodd" fill-opacity="0.8" stroke="#000000" stroke-opacity="0.8" stroke-width="0"/>
<circle clip-path="url(#clip653)" cx="3028.88" cy="820.47" r="14.4" fill="#ff0000" fill-rule="evenodd" fill-opacity="0.8" stroke="#000000" stroke-opacity="0.8" stroke-width="0"/>
<circle clip-path="url(#clip653)" cx="3032.6" cy="821.286" r="14.4" fill="#ff0000" fill-rule="evenodd" fill-opacity="0.8" stroke="#000000" stroke-opacity="0.8" stroke-width="0"/>
<circle clip-path="url(#clip653)" cx="3039.07" cy="821.423" r="14.4" fill="#ff0000" fill-rule="evenodd" fill-opacity="0.8" stroke="#000000" stroke-opacity="0.8" stroke-width="0"/>
<circle clip-path="url(#clip653)" cx="3100.69" cy="829.181" r="14.4" fill="#ff0000" fill-rule="evenodd" fill-opacity="0.8" stroke="#000000" stroke-opacity="0.8" stroke-width="0"/>
<circle clip-path="url(#clip653)" cx="3113.34" cy="867.098" r="14.4" fill="#ff0000" fill-rule="evenodd" fill-opacity="0.8" stroke="#000000" stroke-opacity="0.8" stroke-width="0"/>
<circle clip-path="url(#clip653)" cx="3081.97" cy="858.276" r="14.4" fill="#ff0000" fill-rule="evenodd" fill-opacity="0.8" stroke="#000000" stroke-opacity="0.8" stroke-width="0"/>
<circle clip-path="url(#clip653)" cx="3101.22" cy="861.366" r="14.4" fill="#ff0000" fill-rule="evenodd" fill-opacity="0.8" stroke="#000000" stroke-opacity="0.8" stroke-width="0"/>
<circle clip-path="url(#clip653)" cx="3088.3" cy="826.551" r="14.4" fill="#ff0000" fill-rule="evenodd" fill-opacity="0.8" stroke="#000000" stroke-opacity="0.8" stroke-width="0"/>
<circle clip-path="url(#clip653)" cx="3068.22" cy="846.033" r="14.4" fill="#ff0000" fill-rule="evenodd" fill-opacity="0.8" stroke="#000000" stroke-opacity="0.8" stroke-width="0"/>
<circle clip-path="url(#clip653)" cx="3067.85" cy="808.454" r="14.4" fill="#ff0000" fill-rule="evenodd" fill-opacity="0.8" stroke="#000000" stroke-opacity="0.8" stroke-width="0"/>
<circle clip-path="url(#clip653)" cx="3101.19" cy="843.409" r="14.4" fill="#ff0000" fill-rule="evenodd" fill-opacity="0.8" stroke="#000000" stroke-opacity="0.8" stroke-width="0"/>
<circle clip-path="url(#clip653)" cx="3089.93" cy="853.255" r="14.4" fill="#ff0000" fill-rule="evenodd" fill-opacity="0.8" stroke="#000000" stroke-opacity="0.8" stroke-width="0"/>
<circle clip-path="url(#clip653)" cx="3004.92" cy="836.782" r="14.4" fill="#ff0000" fill-rule="evenodd" fill-opacity="0.8" stroke="#000000" stroke-opacity="0.8" stroke-width="0"/>
<circle clip-path="url(#clip653)" cx="3053.43" cy="826.03" r="14.4" fill="#ff0000" fill-rule="evenodd" fill-opacity="0.8" stroke="#000000" stroke-opacity="0.8" stroke-width="0"/>
<circle clip-path="url(#clip653)" cx="3084.73" cy="826.543" r="14.4" fill="#ff0000" fill-rule="evenodd" fill-opacity="0.8" stroke="#000000" stroke-opacity="0.8" stroke-width="0"/>
<circle clip-path="url(#clip653)" cx="3092.08" cy="845.594" r="14.4" fill="#ff0000" fill-rule="evenodd" fill-opacity="0.8" stroke="#000000" stroke-opacity="0.8" stroke-width="0"/>
<circle clip-path="url(#clip653)" cx="2705.59" cy="979.347" r="36" fill="#ffff00" fill-rule="evenodd" fill-opacity="1" stroke="#000000" stroke-opacity="1" stroke-width="2.8"/>
<circle clip-path="url(#clip653)" cx="1966.77" cy="423.663" r="18" fill="#ffff00" fill-rule="evenodd" fill-opacity="1" stroke="#000000" stroke-opacity="1" stroke-width="2.8"/>
<circle clip-path="url(#clip653)" cx="2018.02" cy="438.016" r="18" fill="#ffff00" fill-rule="evenodd" fill-opacity="1" stroke="#000000" stroke-opacity="1" stroke-width="2.8"/>
<circle clip-path="url(#clip653)" cx="2063.57" cy="455.855" r="18" fill="#ffff00" fill-rule="evenodd" fill-opacity="1" stroke="#000000" stroke-opacity="1" stroke-width="2.8"/>
<circle clip-path="url(#clip653)" cx="2108.86" cy="475.402" r="18" fill="#ffff00" fill-rule="evenodd" fill-opacity="1" stroke="#000000" stroke-opacity="1" stroke-width="2.8"/>
<circle clip-path="url(#clip653)" cx="2153.88" cy="496.736" r="18" fill="#ffff00" fill-rule="evenodd" fill-opacity="1" stroke="#000000" stroke-opacity="1" stroke-width="2.8"/>
<circle clip-path="url(#clip653)" cx="2198.64" cy="519.946" r="18" fill="#ffff00" fill-rule="evenodd" fill-opacity="1" stroke="#000000" stroke-opacity="1" stroke-width="2.8"/>
<circle clip-path="url(#clip653)" cx="2243.11" cy="545.12" r="18" fill="#ffff00" fill-rule="evenodd" fill-opacity="1" stroke="#000000" stroke-opacity="1" stroke-width="2.8"/>
<circle clip-path="url(#clip653)" cx="2287.27" cy="572.349" r="18" fill="#ffff00" fill-rule="evenodd" fill-opacity="1" stroke="#000000" stroke-opacity="1" stroke-width="2.8"/>
<circle clip-path="url(#clip653)" cx="2331.08" cy="601.713" r="18" fill="#ffff00" fill-rule="evenodd" fill-opacity="1" stroke="#000000" stroke-opacity="1" stroke-width="2.8"/>
<circle clip-path="url(#clip653)" cx="2374.48" cy="633.273" r="18" fill="#ffff00" fill-rule="evenodd" fill-opacity="1" stroke="#000000" stroke-opacity="1" stroke-width="2.8"/>
<circle clip-path="url(#clip653)" cx="2417.36" cy="667.053" r="18" fill="#ffff00" fill-rule="evenodd" fill-opacity="1" stroke="#000000" stroke-opacity="1" stroke-width="2.8"/>
<circle clip-path="url(#clip653)" cx="2459.57" cy="703.007" r="18" fill="#ffff00" fill-rule="evenodd" fill-opacity="1" stroke="#000000" stroke-opacity="1" stroke-width="2.8"/>
<circle clip-path="url(#clip653)" cx="2500.86" cy="740.985" r="18" fill="#ffff00" fill-rule="evenodd" fill-opacity="1" stroke="#000000" stroke-opacity="1" stroke-width="2.8"/>
<circle clip-path="url(#clip653)" cx="2540.92" cy="780.678" r="18" fill="#ffff00" fill-rule="evenodd" fill-opacity="1" stroke="#000000" stroke-opacity="1" stroke-width="2.8"/>
<circle clip-path="url(#clip653)" cx="2579.3" cy="821.567" r="18" fill="#ffff00" fill-rule="evenodd" fill-opacity="1" stroke="#000000" stroke-opacity="1" stroke-width="2.8"/>
<circle clip-path="url(#clip653)" cx="2615.49" cy="862.885" r="18" fill="#ffff00" fill-rule="evenodd" fill-opacity="1" stroke="#000000" stroke-opacity="1" stroke-width="2.8"/>
<circle clip-path="url(#clip653)" cx="2648.9" cy="903.652" r="18" fill="#ffff00" fill-rule="evenodd" fill-opacity="1" stroke="#000000" stroke-opacity="1" stroke-width="2.8"/>
<circle clip-path="url(#clip653)" cx="2679.03" cy="942.792" r="18" fill="#ffff00" fill-rule="evenodd" fill-opacity="1" stroke="#000000" stroke-opacity="1" stroke-width="2.8"/>
</svg>
