<?xml version="1.0" encoding="utf-8"?>
<svg xmlns="http://www.w3.org/2000/svg" xmlns:xlink="http://www.w3.org/1999/xlink" width="500" height="400" viewBox="0 0 2000 1600">
<defs>
  <clipPath id="clip470">
    <rect x="0" y="0" width="2000" height="1600"/>
  </clipPath>
</defs>
<path clip-path="url(#clip470)" d="M0 1600 L2000 1600 L2000 0 L0 0  Z" fill="#ffffff" fill-rule="evenodd" fill-opacity="1"/>
<defs>
  <clipPath id="clip471">
    <rect x="400" y="0" width="1401" height="1401"/>
  </clipPath>
</defs>
<path clip-path="url(#clip470)" d="M262.708 1406.76 L1952.76 1406.76 L1952.76 47.2441 L262.708 47.2441  Z" fill="#ffffff" fill-rule="evenodd" fill-opacity="1"/>
<defs>
  <clipPath id="clip472">
    <rect x="262" y="47" width="1691" height="1361"/>
  </clipPath>
</defs>
<polyline clip-path="url(#clip472)" style="stroke:#000000; stroke-linecap:round; stroke-linejoin:round; stroke-width:2; stroke-opacity:0.1; fill:none" points="490.65,1406.76 490.65,47.2441 "/>
<polyline clip-path="url(#clip472)" style="stroke:#000000; stroke-linecap:round; stroke-linejoin:round; stroke-width:2; stroke-opacity:0.1; fill:none" points="848.161,1406.76 848.161,47.2441 "/>
<polyline clip-path="url(#clip472)" style="stroke:#000000; stroke-linecap:round; stroke-linejoin:round; stroke-width:2; stroke-opacity:0.1; fill:none" points="1205.67,1406.76 1205.67,47.2441 "/>
<polyline clip-path="url(#clip472)" style="stroke:#000000; stroke-linecap:round; stroke-linejoin:round; stroke-width:2; stroke-opacity:0.1; fill:none" points="1563.18,1406.76 1563.18,47.2441 "/>
<polyline clip-path="url(#clip472)" style="stroke:#000000; stroke-linecap:round; stroke-linejoin:round; stroke-width:2; stroke-opacity:0.1; fill:none" points="1920.69,1406.76 1920.69,47.2441 "/>
<polyline clip-path="url(#clip470)" style="stroke:#000000; stroke-linecap:round; stroke-linejoin:round; stroke-width:4; stroke-opacity:1; fill:none" points="262.708,1406.76 1952.76,1406.76 "/>
<polyline clip-path="url(#clip470)" style="stroke:#000000; stroke-linecap:round; stroke-linejoin:round; stroke-width:4; stroke-opacity:1; fill:none" points="490.65,1406.76 490.65,1387.87 "/>
<polyline clip-path="url(#clip470)" style="stroke:#000000; stroke-linecap:round; stroke-linejoin:round; stroke-width:4; stroke-opacity:1; fill:none" points="848.161,1406.76 848.161,1387.87 "/>
<polyline clip-path="url(#clip470)" style="stroke:#000000; stroke-linecap:round; stroke-linejoin:round; stroke-width:4; stroke-opacity:1; fill:none" points="1205.67,1406.76 1205.67,1387.87 "/>
<polyline clip-path="url(#clip470)" style="stroke:#000000; stroke-linecap:round; stroke-linejoin:round; stroke-width:4; stroke-opacity:1; fill:none" points="1563.18,1406.76 1563.18,1387.87 "/>
<polyline clip-path="url(#clip470)" style="stroke:#000000; stroke-linecap:round; stroke-linejoin:round; stroke-width:4; stroke-opacity:1; fill:none" points="1920.69,1406.76 1920.69,1387.87 "/>
<path clip-path="url(#clip470)" d="M436.935 1449.14 L466.611 1449.14 L466.611 1453.07 L436.935 1453.07 L436.935 1449.14 Z" fill="#000000" fill-rule="nonzero" fill-opacity="1" /><path clip-path="url(#clip470)" d="M486.703 1434.48 Q483.092 1434.48 481.263 1438.05 Q479.458 1441.59 479.458 1448.72 Q479.458 1455.83 481.263 1459.39 Q483.092 1462.93 486.703 1462.93 Q490.338 1462.93 492.143 1459.39 Q493.972 1455.83 493.972 1448.72 Q493.972 1441.59 492.143 1438.05 Q490.338 1434.48 486.703 1434.48 M486.703 1430.78 Q492.513 1430.78 495.569 1435.39 Q498.648 1439.97 498.648 1448.72 Q498.648 1457.45 495.569 1462.05 Q492.513 1466.64 486.703 1466.64 Q480.893 1466.64 477.814 1462.05 Q474.759 1457.45 474.759 1448.72 Q474.759 1439.97 477.814 1435.39 Q480.893 1430.78 486.703 1430.78 Z" fill="#000000" fill-rule="nonzero" fill-opacity="1" /><path clip-path="url(#clip470)" d="M506.865 1460.08 L511.749 1460.08 L511.749 1465.96 L506.865 1465.96 L506.865 1460.08 Z" fill="#000000" fill-rule="nonzero" fill-opacity="1" /><path clip-path="url(#clip470)" d="M534.782 1435.48 L522.976 1453.93 L534.782 1453.93 L534.782 1435.48 M533.555 1431.4 L539.434 1431.4 L539.434 1453.93 L544.365 1453.93 L544.365 1457.82 L539.434 1457.82 L539.434 1465.96 L534.782 1465.96 L534.782 1457.82 L519.18 1457.82 L519.18 1453.3 L533.555 1431.4 Z" fill="#000000" fill-rule="nonzero" fill-opacity="1" /><path clip-path="url(#clip470)" d="M795.487 1449.14 L825.163 1449.14 L825.163 1453.07 L795.487 1453.07 L795.487 1449.14 Z" fill="#000000" fill-rule="nonzero" fill-opacity="1" /><path clip-path="url(#clip470)" d="M845.255 1434.48 Q841.644 1434.48 839.816 1438.05 Q838.01 1441.59 838.01 1448.72 Q838.01 1455.83 839.816 1459.39 Q841.644 1462.93 845.255 1462.93 Q848.89 1462.93 850.695 1459.39 Q852.524 1455.83 852.524 1448.72 Q852.524 1441.59 850.695 1438.05 Q848.89 1434.48 845.255 1434.48 M845.255 1430.78 Q851.066 1430.78 854.121 1435.39 Q857.2 1439.97 857.2 1448.72 Q857.2 1457.45 854.121 1462.05 Q851.066 1466.64 845.255 1466.64 Q839.445 1466.64 836.367 1462.05 Q833.311 1457.45 833.311 1448.72 Q833.311 1439.97 836.367 1435.39 Q839.445 1430.78 845.255 1430.78 Z" fill="#000000" fill-rule="nonzero" fill-opacity="1" /><path clip-path="url(#clip470)" d="M865.417 1460.08 L870.302 1460.08 L870.302 1465.96 L865.417 1465.96 L865.417 1460.08 Z" fill="#000000" fill-rule="nonzero" fill-opacity="1" /><path clip-path="url(#clip470)" d="M884.515 1462.03 L900.834 1462.03 L900.834 1465.96 L878.89 1465.96 L878.89 1462.03 Q881.552 1459.27 886.135 1454.64 Q890.741 1449.99 891.922 1448.65 Q894.167 1446.13 895.047 1444.39 Q895.95 1442.63 895.95 1440.94 Q895.95 1438.19 894.005 1436.45 Q892.084 1434.71 888.982 1434.71 Q886.783 1434.71 884.329 1435.48 Q881.899 1436.24 879.121 1437.79 L879.121 1433.07 Q881.945 1431.94 884.399 1431.36 Q886.852 1430.78 888.89 1430.78 Q894.26 1430.78 897.454 1433.46 Q900.649 1436.15 900.649 1440.64 Q900.649 1442.77 899.839 1444.69 Q899.051 1446.59 896.945 1449.18 Q896.366 1449.85 893.264 1453.07 Q890.163 1456.26 884.515 1462.03 Z" fill="#000000" fill-rule="nonzero" fill-opacity="1" /><path clip-path="url(#clip470)" d="M1183.06 1434.48 Q1179.44 1434.48 1177.62 1438.05 Q1175.81 1441.59 1175.81 1448.72 Q1175.81 1455.83 1177.62 1459.39 Q1179.44 1462.93 1183.06 1462.93 Q1186.69 1462.93 1188.5 1459.39 Q1190.32 1455.83 1190.32 1448.72 Q1190.32 1441.59 1188.5 1438.05 Q1186.69 1434.48 1183.06 1434.48 M1183.06 1430.78 Q1188.87 1430.78 1191.92 1435.39 Q1195 1439.97 1195 1448.72 Q1195 1457.45 1191.92 1462.05 Q1188.87 1466.64 1183.06 1466.64 Q1177.25 1466.64 1174.17 1462.05 Q1171.11 1457.45 1171.11 1448.72 Q1171.11 1439.97 1174.17 1435.39 Q1177.25 1430.78 1183.06 1430.78 Z" fill="#000000" fill-rule="nonzero" fill-opacity="1" /><path clip-path="url(#clip470)" d="M1203.22 1460.08 L1208.1 1460.08 L1208.1 1465.96 L1203.22 1465.96 L1203.22 1460.08 Z" fill="#000000" fill-rule="nonzero" fill-opacity="1" /><path clip-path="url(#clip470)" d="M1228.29 1434.48 Q1224.68 1434.48 1222.85 1438.05 Q1221.04 1441.59 1221.04 1448.72 Q1221.04 1455.83 1222.85 1459.39 Q1224.68 1462.93 1228.29 1462.93 Q1231.92 1462.93 1233.73 1459.39 Q1235.56 1455.83 1235.56 1448.72 Q1235.56 1441.59 1233.73 1438.05 Q1231.92 1434.48 1228.29 1434.48 M1228.29 1430.78 Q1234.1 1430.78 1237.15 1435.39 Q1240.23 1439.97 1240.23 1448.72 Q1240.23 1457.45 1237.15 1462.05 Q1234.1 1466.64 1228.29 1466.64 Q1222.48 1466.64 1219.4 1462.05 Q1216.34 1457.45 1216.34 1448.72 Q1216.34 1439.97 1219.4 1435.39 Q1222.48 1430.78 1228.29 1430.78 Z" fill="#000000" fill-rule="nonzero" fill-opacity="1" /><path clip-path="url(#clip470)" d="M1541.36 1434.48 Q1537.75 1434.48 1535.92 1438.05 Q1534.12 1441.59 1534.12 1448.72 Q1534.12 1455.83 1535.92 1459.39 Q1537.75 1462.93 1541.36 1462.93 Q1545 1462.93 1546.8 1459.39 Q1548.63 1455.83 1548.63 1448.72 Q1548.63 1441.59 1546.8 1438.05 Q1545 1434.48 1541.36 1434.48 M1541.36 1430.78 Q1547.17 1430.78 1550.23 1435.39 Q1553.31 1439.97 1553.31 1448.72 Q1553.31 1457.45 1550.23 1462.05 Q1547.17 1466.64 1541.36 1466.64 Q1535.55 1466.64 1532.48 1462.05 Q1529.42 1457.45 1529.42 1448.72 Q1529.42 1439.97 1532.48 1435.39 Q1535.55 1430.78 1541.36 1430.78 Z" fill="#000000" fill-rule="nonzero" fill-opacity="1" /><path clip-path="url(#clip470)" d="M1561.53 1460.08 L1566.41 1460.08 L1566.41 1465.96 L1561.53 1465.96 L1561.53 1460.08 Z" fill="#000000" fill-rule="nonzero" fill-opacity="1" /><path clip-path="url(#clip470)" d="M1580.62 1462.03 L1596.94 1462.03 L1596.94 1465.96 L1575 1465.96 L1575 1462.03 Q1577.66 1459.27 1582.24 1454.64 Q1586.85 1449.99 1588.03 1448.65 Q1590.28 1446.13 1591.16 1444.39 Q1592.06 1442.63 1592.06 1440.94 Q1592.06 1438.19 1590.11 1436.45 Q1588.19 1434.71 1585.09 1434.71 Q1582.89 1434.71 1580.44 1435.48 Q1578.01 1436.24 1575.23 1437.79 L1575.23 1433.07 Q1578.05 1431.94 1580.51 1431.36 Q1582.96 1430.78 1585 1430.78 Q1590.37 1430.78 1593.56 1433.46 Q1596.76 1436.15 1596.76 1440.64 Q1596.76 1442.77 1595.95 1444.69 Q1595.16 1446.59 1593.05 1449.18 Q1592.48 1449.85 1589.37 1453.07 Q1586.27 1456.26 1580.62 1462.03 Z" fill="#000000" fill-rule="nonzero" fill-opacity="1" /><path clip-path="url(#clip470)" d="M1897.83 1434.48 Q1894.22 1434.48 1892.39 1438.05 Q1890.59 1441.59 1890.59 1448.72 Q1890.59 1455.83 1892.39 1459.39 Q1894.22 1462.93 1897.83 1462.93 Q1901.47 1462.93 1903.27 1459.39 Q1905.1 1455.83 1905.1 1448.72 Q1905.1 1441.59 1903.27 1438.05 Q1901.47 1434.48 1897.83 1434.48 M1897.83 1430.78 Q1903.64 1430.78 1906.7 1435.39 Q1909.78 1439.97 1909.78 1448.72 Q1909.78 1457.45 1906.7 1462.05 Q1903.64 1466.64 1897.83 1466.64 Q1892.02 1466.64 1888.94 1462.05 Q1885.89 1457.45 1885.89 1448.72 Q1885.89 1439.97 1888.94 1435.39 Q1892.02 1430.78 1897.83 1430.78 Z" fill="#000000" fill-rule="nonzero" fill-opacity="1" /><path clip-path="url(#clip470)" d="M1918 1460.08 L1922.88 1460.08 L1922.88 1465.96 L1918 1465.96 L1918 1460.08 Z" fill="#000000" fill-rule="nonzero" fill-opacity="1" /><path clip-path="url(#clip470)" d="M1945.91 1435.48 L1934.11 1453.93 L1945.91 1453.93 L1945.91 1435.48 M1944.69 1431.4 L1950.56 1431.4 L1950.56 1453.93 L1955.5 1453.93 L1955.5 1457.82 L1950.56 1457.82 L1950.56 1465.96 L1945.91 1465.96 L1945.91 1457.82 L1930.31 1457.82 L1930.31 1453.3 L1944.69 1431.4 Z" fill="#000000" fill-rule="nonzero" fill-opacity="1" /><path clip-path="url(#clip470)" d="M993.165 1509.98 L999.022 1509.98 L999.022 1545.63 L993.165 1545.63 L993.165 1509.98 M993.165 1496.1 L999.022 1496.1 L999.022 1503.52 L993.165 1503.52 L993.165 1496.1 Z" fill="#000000" fill-rule="nonzero" fill-opacity="1" /><path clip-path="url(#clip470)" d="M1040.91 1524.11 L1040.91 1545.63 L1035.05 1545.63 L1035.05 1524.3 Q1035.05 1519.24 1033.08 1516.73 Q1031.1 1514.21 1027.16 1514.21 Q1022.42 1514.21 1019.68 1517.24 Q1016.94 1520.26 1016.94 1525.48 L1016.94 1545.63 L1011.05 1545.63 L1011.05 1509.98 L1016.94 1509.98 L1016.94 1515.52 Q1019.04 1512.3 1021.87 1510.71 Q1024.74 1509.12 1028.46 1509.12 Q1034.61 1509.12 1037.76 1512.94 Q1040.91 1516.73 1040.91 1524.11 Z" fill="#000000" fill-rule="nonzero" fill-opacity="1" /><path clip-path="url(#clip470)" d="M1078.24 1511.35 L1078.24 1516.82 Q1075.76 1515.45 1073.25 1514.79 Q1070.76 1514.09 1068.22 1514.09 Q1062.52 1514.09 1059.37 1517.71 Q1056.22 1521.31 1056.22 1527.84 Q1056.22 1534.36 1059.37 1537.99 Q1062.52 1541.59 1068.22 1541.59 Q1070.76 1541.59 1073.25 1540.92 Q1075.76 1540.22 1078.24 1538.85 L1078.24 1544.26 Q1075.79 1545.41 1073.15 1545.98 Q1070.54 1546.55 1067.58 1546.55 Q1059.53 1546.55 1054.79 1541.49 Q1050.04 1536.43 1050.04 1527.84 Q1050.04 1519.11 1054.82 1514.12 Q1059.62 1509.12 1067.96 1509.12 Q1070.67 1509.12 1073.25 1509.69 Q1075.82 1510.23 1078.24 1511.35 Z" fill="#000000" fill-rule="nonzero" fill-opacity="1" /><path clip-path="url(#clip470)" d="M1102.24 1514.09 Q1097.53 1514.09 1094.79 1517.78 Q1092.06 1521.44 1092.06 1527.84 Q1092.06 1534.23 1094.76 1537.93 Q1097.5 1541.59 1102.24 1541.59 Q1106.92 1541.59 1109.66 1537.89 Q1112.39 1534.2 1112.39 1527.84 Q1112.39 1521.5 1109.66 1517.81 Q1106.92 1514.09 1102.24 1514.09 M1102.24 1509.12 Q1109.88 1509.12 1114.24 1514.09 Q1118.6 1519.05 1118.6 1527.84 Q1118.6 1536.59 1114.24 1541.59 Q1109.88 1546.55 1102.24 1546.55 Q1094.57 1546.55 1090.21 1541.59 Q1085.88 1536.59 1085.88 1527.84 Q1085.88 1519.05 1090.21 1514.09 Q1094.57 1509.12 1102.24 1509.12 Z" fill="#000000" fill-rule="nonzero" fill-opacity="1" /><path clip-path="url(#clip470)" d="M1156.06 1516.82 Q1158.26 1512.88 1161.32 1511 Q1164.37 1509.12 1168.51 1509.12 Q1174.08 1509.12 1177.1 1513.04 Q1180.13 1516.92 1180.13 1524.11 L1180.13 1545.63 L1174.24 1545.63 L1174.24 1524.3 Q1174.24 1519.18 1172.42 1516.7 Q1170.61 1514.21 1166.89 1514.21 Q1162.33 1514.21 1159.69 1517.24 Q1157.05 1520.26 1157.05 1525.48 L1157.05 1545.63 L1151.16 1545.63 L1151.16 1524.3 Q1151.16 1519.15 1149.35 1516.7 Q1147.53 1514.21 1143.75 1514.21 Q1139.26 1514.21 1136.62 1517.27 Q1133.97 1520.29 1133.97 1525.48 L1133.97 1545.63 L1128.09 1545.63 L1128.09 1509.98 L1133.97 1509.98 L1133.97 1515.52 Q1135.98 1512.24 1138.78 1510.68 Q1141.58 1509.12 1145.43 1509.12 Q1149.32 1509.12 1152.02 1511.09 Q1154.76 1513.07 1156.06 1516.82 Z" fill="#000000" fill-rule="nonzero" fill-opacity="1" /><path clip-path="url(#clip470)" d="M1222.3 1526.34 L1222.3 1529.2 L1195.37 1529.2 Q1195.75 1535.25 1199 1538.43 Q1202.28 1541.59 1208.1 1541.59 Q1211.48 1541.59 1214.63 1540.76 Q1217.81 1539.93 1220.93 1538.28 L1220.93 1543.81 Q1217.78 1545.15 1214.47 1545.85 Q1211.16 1546.55 1207.75 1546.55 Q1199.22 1546.55 1194.23 1541.59 Q1189.26 1536.62 1189.26 1528.15 Q1189.26 1519.4 1193.97 1514.28 Q1198.71 1509.12 1206.73 1509.12 Q1213.93 1509.12 1218.1 1513.77 Q1222.3 1518.38 1222.3 1526.34 M1216.44 1524.62 Q1216.38 1519.81 1213.74 1516.95 Q1211.13 1514.09 1206.8 1514.09 Q1201.9 1514.09 1198.94 1516.85 Q1196.01 1519.62 1195.56 1524.65 L1216.44 1524.62 Z" fill="#000000" fill-rule="nonzero" fill-opacity="1" /><polyline clip-path="url(#clip472)" style="stroke:#000000; stroke-linecap:round; stroke-linejoin:round; stroke-width:2; stroke-opacity:0.1; fill:none" points="262.708,1278.69 1952.76,1278.69 "/>
<polyline clip-path="url(#clip472)" style="stroke:#000000; stroke-linecap:round; stroke-linejoin:round; stroke-width:2; stroke-opacity:0.1; fill:none" points="262.708,910.458 1952.76,910.458 "/>
<polyline clip-path="url(#clip472)" style="stroke:#000000; stroke-linecap:round; stroke-linejoin:round; stroke-width:2; stroke-opacity:0.1; fill:none" points="262.708,542.227 1952.76,542.227 "/>
<polyline clip-path="url(#clip472)" style="stroke:#000000; stroke-linecap:round; stroke-linejoin:round; stroke-width:2; stroke-opacity:0.1; fill:none" points="262.708,173.996 1952.76,173.996 "/>
<polyline clip-path="url(#clip470)" style="stroke:#000000; stroke-linecap:round; stroke-linejoin:round; stroke-width:4; stroke-opacity:1; fill:none" points="262.708,1406.76 262.708,47.2441 "/>
<polyline clip-path="url(#clip470)" style="stroke:#000000; stroke-linecap:round; stroke-linejoin:round; stroke-width:4; stroke-opacity:1; fill:none" points="262.708,1278.69 281.606,1278.69 "/>
<polyline clip-path="url(#clip470)" style="stroke:#000000; stroke-linecap:round; stroke-linejoin:round; stroke-width:4; stroke-opacity:1; fill:none" points="262.708,910.458 281.606,910.458 "/>
<polyline clip-path="url(#clip470)" style="stroke:#000000; stroke-linecap:round; stroke-linejoin:round; stroke-width:4; stroke-opacity:1; fill:none" points="262.708,542.227 281.606,542.227 "/>
<polyline clip-path="url(#clip470)" style="stroke:#000000; stroke-linecap:round; stroke-linejoin:round; stroke-width:4; stroke-opacity:1; fill:none" points="262.708,173.996 281.606,173.996 "/>
<path clip-path="url(#clip470)" d="M125.764 1279.14 L155.44 1279.14 L155.44 1283.08 L125.764 1283.08 L125.764 1279.14 Z" fill="#000000" fill-rule="nonzero" fill-opacity="1" /><path clip-path="url(#clip470)" d="M166.343 1292.03 L173.981 1292.03 L173.981 1265.67 L165.671 1267.34 L165.671 1263.08 L173.935 1261.41 L178.611 1261.41 L178.611 1292.03 L186.25 1292.03 L186.25 1295.97 L166.343 1295.97 L166.343 1292.03 Z" fill="#000000" fill-rule="nonzero" fill-opacity="1" /><path clip-path="url(#clip470)" d="M195.694 1290.09 L200.579 1290.09 L200.579 1295.97 L195.694 1295.97 L195.694 1290.09 Z" fill="#000000" fill-rule="nonzero" fill-opacity="1" /><path clip-path="url(#clip470)" d="M220.764 1264.49 Q217.153 1264.49 215.324 1268.05 Q213.518 1271.59 213.518 1278.72 Q213.518 1285.83 215.324 1289.4 Q217.153 1292.94 220.764 1292.94 Q224.398 1292.94 226.203 1289.4 Q228.032 1285.83 228.032 1278.72 Q228.032 1271.59 226.203 1268.05 Q224.398 1264.49 220.764 1264.49 M220.764 1260.78 Q226.574 1260.78 229.629 1265.39 Q232.708 1269.97 232.708 1278.72 Q232.708 1287.45 229.629 1292.06 Q226.574 1296.64 220.764 1296.64 Q214.953 1296.64 211.875 1292.06 Q208.819 1287.45 208.819 1278.72 Q208.819 1269.97 211.875 1265.39 Q214.953 1260.78 220.764 1260.78 Z" fill="#000000" fill-rule="nonzero" fill-opacity="1" /><path clip-path="url(#clip470)" d="M126.76 910.91 L156.435 910.91 L156.435 914.845 L126.76 914.845 L126.76 910.91 Z" fill="#000000" fill-rule="nonzero" fill-opacity="1" /><path clip-path="url(#clip470)" d="M176.528 896.257 Q172.917 896.257 171.088 899.822 Q169.282 903.364 169.282 910.493 Q169.282 917.6 171.088 921.164 Q172.917 924.706 176.528 924.706 Q180.162 924.706 181.968 921.164 Q183.796 917.6 183.796 910.493 Q183.796 903.364 181.968 899.822 Q180.162 896.257 176.528 896.257 M176.528 892.553 Q182.338 892.553 185.393 897.16 Q188.472 901.743 188.472 910.493 Q188.472 919.22 185.393 923.826 Q182.338 928.41 176.528 928.41 Q170.718 928.41 167.639 923.826 Q164.583 919.22 164.583 910.493 Q164.583 901.743 167.639 897.16 Q170.718 892.553 176.528 892.553 Z" fill="#000000" fill-rule="nonzero" fill-opacity="1" /><path clip-path="url(#clip470)" d="M196.69 921.859 L201.574 921.859 L201.574 927.738 L196.69 927.738 L196.69 921.859 Z" fill="#000000" fill-rule="nonzero" fill-opacity="1" /><path clip-path="url(#clip470)" d="M211.805 893.178 L230.162 893.178 L230.162 897.114 L216.088 897.114 L216.088 905.586 Q217.106 905.239 218.125 905.077 Q219.143 904.891 220.162 904.891 Q225.949 904.891 229.328 908.063 Q232.708 911.234 232.708 916.651 Q232.708 922.229 229.236 925.331 Q225.764 928.41 219.444 928.41 Q217.268 928.41 215 928.039 Q212.754 927.669 210.347 926.928 L210.347 922.229 Q212.43 923.364 214.653 923.919 Q216.875 924.475 219.352 924.475 Q223.356 924.475 225.694 922.368 Q228.032 920.262 228.032 916.651 Q228.032 913.039 225.694 910.933 Q223.356 908.827 219.352 908.827 Q217.477 908.827 215.602 909.243 Q213.75 909.66 211.805 910.539 L211.805 893.178 Z" fill="#000000" fill-rule="nonzero" fill-opacity="1" /><path clip-path="url(#clip470)" d="M175.532 528.026 Q171.921 528.026 170.093 531.591 Q168.287 535.132 168.287 542.262 Q168.287 549.368 170.093 552.933 Q171.921 556.475 175.532 556.475 Q179.167 556.475 180.972 552.933 Q182.801 549.368 182.801 542.262 Q182.801 535.132 180.972 531.591 Q179.167 528.026 175.532 528.026 M175.532 524.322 Q181.343 524.322 184.398 528.929 Q187.477 533.512 187.477 542.262 Q187.477 550.989 184.398 555.595 Q181.343 560.178 175.532 560.178 Q169.722 560.178 166.644 555.595 Q163.588 550.989 163.588 542.262 Q163.588 533.512 166.644 528.929 Q169.722 524.322 175.532 524.322 Z" fill="#000000" fill-rule="nonzero" fill-opacity="1" /><path clip-path="url(#clip470)" d="M195.694 553.627 L200.579 553.627 L200.579 559.507 L195.694 559.507 L195.694 553.627 Z" fill="#000000" fill-rule="nonzero" fill-opacity="1" /><path clip-path="url(#clip470)" d="M220.764 528.026 Q217.153 528.026 215.324 531.591 Q213.518 535.132 213.518 542.262 Q213.518 549.368 215.324 552.933 Q217.153 556.475 220.764 556.475 Q224.398 556.475 226.203 552.933 Q228.032 549.368 228.032 542.262 Q228.032 535.132 226.203 531.591 Q224.398 528.026 220.764 528.026 M220.764 524.322 Q226.574 524.322 229.629 528.929 Q232.708 533.512 232.708 542.262 Q232.708 550.989 229.629 555.595 Q226.574 560.178 220.764 560.178 Q214.953 560.178 211.875 555.595 Q208.819 550.989 208.819 542.262 Q208.819 533.512 211.875 528.929 Q214.953 524.322 220.764 524.322 Z" fill="#000000" fill-rule="nonzero" fill-opacity="1" /><path clip-path="url(#clip470)" d="M176.528 159.794 Q172.917 159.794 171.088 163.359 Q169.282 166.901 169.282 174.03 Q169.282 181.137 171.088 184.702 Q172.917 188.243 176.528 188.243 Q180.162 188.243 181.968 184.702 Q183.796 181.137 183.796 174.03 Q183.796 166.901 181.968 163.359 Q180.162 159.794 176.528 159.794 M176.528 156.091 Q182.338 156.091 185.393 160.697 Q188.472 165.28 188.472 174.03 Q188.472 182.757 185.393 187.364 Q182.338 191.947 176.528 191.947 Q170.718 191.947 167.639 187.364 Q164.583 182.757 164.583 174.03 Q164.583 165.28 167.639 160.697 Q170.718 156.091 176.528 156.091 Z" fill="#000000" fill-rule="nonzero" fill-opacity="1" /><path clip-path="url(#clip470)" d="M196.69 185.396 L201.574 185.396 L201.574 191.276 L196.69 191.276 L196.69 185.396 Z" fill="#000000" fill-rule="nonzero" fill-opacity="1" /><path clip-path="url(#clip470)" d="M211.805 156.716 L230.162 156.716 L230.162 160.651 L216.088 160.651 L216.088 169.123 Q217.106 168.776 218.125 168.614 Q219.143 168.429 220.162 168.429 Q225.949 168.429 229.328 171.6 Q232.708 174.771 232.708 180.188 Q232.708 185.766 229.236 188.868 Q225.764 191.947 219.444 191.947 Q217.268 191.947 215 191.577 Q212.754 191.206 210.347 190.466 L210.347 185.766 Q212.43 186.901 214.653 187.456 Q216.875 188.012 219.352 188.012 Q223.356 188.012 225.694 185.905 Q228.032 183.799 228.032 180.188 Q228.032 176.577 225.694 174.47 Q223.356 172.364 219.352 172.364 Q217.477 172.364 215.602 172.78 Q213.75 173.197 211.805 174.077 L211.805 156.716 Z" fill="#000000" fill-rule="nonzero" fill-opacity="1" /><path clip-path="url(#clip470)" d="M63.5887 765.596 Q63.5887 772.694 65.2119 775.431 Q66.8352 778.168 70.7501 778.168 Q73.8693 778.168 75.7154 776.131 Q77.5296 774.062 77.5296 770.529 Q77.5296 765.66 74.0921 762.731 Q70.6228 759.771 64.8937 759.771 L63.5887 759.771 L63.5887 765.596 M61.1697 753.915 L81.5082 753.915 L81.5082 759.771 L76.0973 759.771 Q79.3438 761.777 80.9034 764.769 Q82.4312 767.76 82.4312 772.089 Q82.4312 777.564 79.3756 780.81 Q76.2883 784.025 71.1321 784.025 Q65.1165 784.025 62.0609 780.014 Q59.0054 775.972 59.0054 767.983 L59.0054 759.771 L58.4325 759.771 Q54.3902 759.771 52.1941 762.445 Q49.9661 765.087 49.9661 769.893 Q49.9661 772.948 50.6981 775.845 Q51.4302 778.741 52.8943 781.415 L47.4835 781.415 Q46.2421 778.2 45.6374 775.176 Q45.0008 772.153 45.0008 769.288 Q45.0008 761.554 49.0112 757.734 Q53.0216 753.915 61.1697 753.915 Z" fill="#000000" fill-rule="nonzero" fill-opacity="1" /><path clip-path="url(#clip470)" d="M63.2704 718.394 Q56.9047 718.394 53.4036 721.036 Q49.9024 723.646 49.9024 728.389 Q49.9024 733.099 53.4036 735.741 Q56.9047 738.351 63.2704 738.351 Q69.6043 738.351 73.1054 735.741 Q76.6066 733.099 76.6066 728.389 Q76.6066 723.646 73.1054 721.036 Q69.6043 718.394 63.2704 718.394 M77.084 712.538 Q86.187 712.538 90.6111 716.58 Q95.0671 720.622 95.0671 728.961 Q95.0671 732.049 94.5897 734.786 Q94.1441 737.523 93.1892 740.101 L87.4919 740.101 Q88.8924 737.523 89.5608 735.009 Q90.2292 732.494 90.2292 729.884 Q90.2292 724.123 87.2055 721.259 Q84.2136 718.394 78.1343 718.394 L75.2379 718.394 Q78.389 720.209 79.9486 723.041 Q81.5082 725.874 81.5082 729.821 Q81.5082 736.377 76.5111 740.388 Q71.514 744.398 63.2704 744.398 Q54.995 744.398 49.9979 740.388 Q45.0008 736.377 45.0008 729.821 Q45.0008 725.874 46.5604 723.041 Q48.12 720.209 51.2711 718.394 L45.8602 718.394 L45.8602 712.538 L77.084 712.538 Z" fill="#000000" fill-rule="nonzero" fill-opacity="1" /><path clip-path="url(#clip470)" d="M62.2201 669.983 L65.0846 669.983 L65.0846 696.91 Q71.1321 696.528 74.3149 693.282 Q77.4659 690.003 77.4659 684.179 Q77.4659 680.805 76.6384 677.654 Q75.8109 674.471 74.1558 671.352 L79.6939 671.352 Q81.0307 674.503 81.731 677.813 Q82.4312 681.123 82.4312 684.529 Q82.4312 693.059 77.4659 698.056 Q72.5007 703.021 64.0343 703.021 Q55.2814 703.021 50.1571 698.311 Q45.0008 693.568 45.0008 685.547 Q45.0008 678.354 49.6478 674.185 Q54.2629 669.983 62.2201 669.983 M60.5013 675.84 Q55.6952 675.903 52.8306 678.545 Q49.9661 681.155 49.9661 685.484 Q49.9661 690.385 52.7352 693.345 Q55.5042 696.274 60.5332 696.719 L60.5013 675.84 Z" fill="#000000" fill-rule="nonzero" fill-opacity="1" /><circle clip-path="url(#clip472)" cx="471.237" cy="1262.97" r="36" fill="#00a1ff" fill-rule="evenodd" fill-opacity="1" stroke="#000000" stroke-opacity="1" stroke-width="3.2"/>
<circle clip-path="url(#clip472)" cx="1176.87" cy="185.239" r="36" fill="#e69f00" fill-rule="evenodd" fill-opacity="1" stroke="#000000" stroke-opacity="1" stroke-width="3.2"/>
<polyline clip-path="url(#clip472)" style="stroke:#000000; stroke-linecap:round; stroke-linejoin:round; stroke-width:8; stroke-opacity:1; fill:none" points="471.237,1262.97 1176.87,185.239 "/>
<polyline clip-path="url(#clip472)" style="stroke:#000000; stroke-linecap:round; stroke-linejoin:round; stroke-width:8; stroke-opacity:1; fill:none" points="1147.89,202.121 1176.87,185.239 1172.98,218.555 "/>
<polyline clip-path="url(#clip472)" style="stroke:#000000; stroke-linecap:round; stroke-linejoin:round; stroke-width:8; stroke-opacity:1; fill:none" points="1176.87,185.239 471.237,1262.97 "/>
<circle clip-path="url(#clip472)" cx="646.2" cy="209.851" r="36" fill="#00a1ff" fill-rule="evenodd" fill-opacity="1" stroke="#000000" stroke-opacity="1" stroke-width="3.2"/>
<circle clip-path="url(#clip472)" cx="1303.34" cy="85.7211" r="36" fill="#e69f00" fill-rule="evenodd" fill-opacity="1" stroke="#000000" stroke-opacity="1" stroke-width="3.2"/>
<polyline clip-path="url(#clip472)" style="stroke:#000000; stroke-linecap:round; stroke-linejoin:round; stroke-width:8; stroke-opacity:1; fill:none" points="646.2,209.851 1303.34,85.7211 "/>
<polyline clip-path="url(#clip472)" style="stroke:#000000; stroke-linecap:round; stroke-linejoin:round; stroke-width:8; stroke-opacity:1; fill:none" points="1271.08,76.5501 1303.34,85.7211 1276.65,106.029 "/>
<polyline clip-path="url(#clip472)" style="stroke:#000000; stroke-linecap:round; stroke-linejoin:round; stroke-width:8; stroke-opacity:1; fill:none" points="1303.34,85.7211 646.2,209.851 "/>
<circle clip-path="url(#clip472)" cx="1065.77" cy="947.038" r="36" fill="#00a1ff" fill-rule="evenodd" fill-opacity="1" stroke="#000000" stroke-opacity="1" stroke-width="3.2"/>
<circle clip-path="url(#clip472)" cx="1429.84" cy="193.103" r="36" fill="#e69f00" fill-rule="evenodd" fill-opacity="1" stroke="#000000" stroke-opacity="1" stroke-width="3.2"/>
<polyline clip-path="url(#clip472)" style="stroke:#000000; stroke-linecap:round; stroke-linejoin:round; stroke-width:8; stroke-opacity:1; fill:none" points="1065.77,947.038 1429.84,193.103 "/>
<polyline clip-path="url(#clip472)" style="stroke:#000000; stroke-linecap:round; stroke-linejoin:round; stroke-width:8; stroke-opacity:1; fill:none" points="1403.29,213.596 1429.84,193.103 1430.3,226.641 "/>
<polyline clip-path="url(#clip472)" style="stroke:#000000; stroke-linecap:round; stroke-linejoin:round; stroke-width:8; stroke-opacity:1; fill:none" points="1429.84,193.103 1065.77,947.038 "/>
<circle clip-path="url(#clip472)" cx="1904.92" cy="1368.29" r="36" fill="#00a1ff" fill-rule="evenodd" fill-opacity="1" stroke="#000000" stroke-opacity="1" stroke-width="3.2"/>
<circle clip-path="url(#clip472)" cx="1407.65" cy="108.453" r="36" fill="#e69f00" fill-rule="evenodd" fill-opacity="1" stroke="#000000" stroke-opacity="1" stroke-width="3.2"/>
<polyline clip-path="url(#clip472)" style="stroke:#000000; stroke-linecap:round; stroke-linejoin:round; stroke-width:8; stroke-opacity:1; fill:none" points="1904.92,1368.29 1407.65,108.453 "/>
<polyline clip-path="url(#clip472)" style="stroke:#000000; stroke-linecap:round; stroke-linejoin:round; stroke-width:8; stroke-opacity:1; fill:none" points="1404.71,141.865 1407.65,108.453 1432.62,130.851 "/>
<polyline clip-path="url(#clip472)" style="stroke:#000000; stroke-linecap:round; stroke-linejoin:round; stroke-width:8; stroke-opacity:1; fill:none" points="1407.65,108.453 1904.92,1368.29 "/>
<circle clip-path="url(#clip472)" cx="1590.24" cy="736.413" r="36" fill="#00a1ff" fill-rule="evenodd" fill-opacity="1" stroke="#000000" stroke-opacity="1" stroke-width="3.2"/>
<circle clip-path="url(#clip472)" cx="1375.3" cy="164.022" r="36" fill="#e69f00" fill-rule="evenodd" fill-opacity="1" stroke="#000000" stroke-opacity="1" stroke-width="3.2"/>
<polyline clip-path="url(#clip472)" style="stroke:#000000; stroke-linecap:round; stroke-linejoin:round; stroke-width:8; stroke-opacity:1; fill:none" points="1590.24,736.413 1375.3,164.022 "/>
<polyline clip-path="url(#clip472)" style="stroke:#000000; stroke-linecap:round; stroke-linejoin:round; stroke-width:8; stroke-opacity:1; fill:none" points="1371.8,197.38 1375.3,164.022 1399.89,186.834 "/>
<polyline clip-path="url(#clip472)" style="stroke:#000000; stroke-linecap:round; stroke-linejoin:round; stroke-width:8; stroke-opacity:1; fill:none" points="1375.3,164.022 1590.24,736.413 "/>
<circle clip-path="url(#clip472)" cx="604.242" cy="1052.35" r="36" fill="#00a1ff" fill-rule="evenodd" fill-opacity="1" stroke="#000000" stroke-opacity="1" stroke-width="3.2"/>
<circle clip-path="url(#clip472)" cx="1514.44" cy="161.06" r="36" fill="#e69f00" fill-rule="evenodd" fill-opacity="1" stroke="#000000" stroke-opacity="1" stroke-width="3.2"/>
<polyline clip-path="url(#clip472)" style="stroke:#000000; stroke-linecap:round; stroke-linejoin:round; stroke-width:8; stroke-opacity:1; fill:none" points="604.242,1052.35 1514.44,161.06 "/>
<polyline clip-path="url(#clip472)" style="stroke:#000000; stroke-linecap:round; stroke-linejoin:round; stroke-width:8; stroke-opacity:1; fill:none" points="1482.51,171.332 1514.44,161.06 1503.5,192.767 "/>
<polyline clip-path="url(#clip472)" style="stroke:#000000; stroke-linecap:round; stroke-linejoin:round; stroke-width:8; stroke-opacity:1; fill:none" points="1514.44,161.06 604.242,1052.35 "/>
<circle clip-path="url(#clip472)" cx="991.719" cy="367.82" r="36" fill="#00a1ff" fill-rule="evenodd" fill-opacity="1" stroke="#000000" stroke-opacity="1" stroke-width="3.2"/>
<circle clip-path="url(#clip472)" cx="1127.24" cy="154.038" r="36" fill="#e69f00" fill-rule="evenodd" fill-opacity="1" stroke="#000000" stroke-opacity="1" stroke-width="3.2"/>
<polyline clip-path="url(#clip472)" style="stroke:#000000; stroke-linecap:round; stroke-linejoin:round; stroke-width:8; stroke-opacity:1; fill:none" points="991.719,367.82 1127.24,154.038 "/>
<polyline clip-path="url(#clip472)" style="stroke:#000000; stroke-linecap:round; stroke-linejoin:round; stroke-width:8; stroke-opacity:1; fill:none" points="1098.51,171.344 1127.24,154.038 1123.85,187.406 "/>
<polyline clip-path="url(#clip472)" style="stroke:#000000; stroke-linecap:round; stroke-linejoin:round; stroke-width:8; stroke-opacity:1; fill:none" points="1127.24,154.038 991.719,367.82 "/>
<circle clip-path="url(#clip472)" cx="621.864" cy="631.101" r="36" fill="#00a1ff" fill-rule="evenodd" fill-opacity="1" stroke="#000000" stroke-opacity="1" stroke-width="3.2"/>
<circle clip-path="url(#clip472)" cx="1198.49" cy="119.027" r="36" fill="#e69f00" fill-rule="evenodd" fill-opacity="1" stroke="#000000" stroke-opacity="1" stroke-width="3.2"/>
<polyline clip-path="url(#clip472)" style="stroke:#000000; stroke-linecap:round; stroke-linejoin:round; stroke-width:8; stroke-opacity:1; fill:none" points="621.864,631.101 1198.49,119.027 "/>
<polyline clip-path="url(#clip472)" style="stroke:#000000; stroke-linecap:round; stroke-linejoin:round; stroke-width:8; stroke-opacity:1; fill:none" points="1166.09,127.732 1198.49,119.027 1186.02,150.164 "/>
<polyline clip-path="url(#clip472)" style="stroke:#000000; stroke-linecap:round; stroke-linejoin:round; stroke-width:8; stroke-opacity:1; fill:none" points="1198.49,119.027 621.864,631.101 "/>
<circle clip-path="url(#clip472)" cx="598.997" cy="1210.32" r="36" fill="#00a1ff" fill-rule="evenodd" fill-opacity="1" stroke="#000000" stroke-opacity="1" stroke-width="3.2"/>
<circle clip-path="url(#clip472)" cx="1256.29" cy="243.845" r="36" fill="#e69f00" fill-rule="evenodd" fill-opacity="1" stroke="#000000" stroke-opacity="1" stroke-width="3.2"/>
<polyline clip-path="url(#clip472)" style="stroke:#000000; stroke-linecap:round; stroke-linejoin:round; stroke-width:8; stroke-opacity:1; fill:none" points="598.997,1210.32 1256.29,243.845 "/>
<polyline clip-path="url(#clip472)" style="stroke:#000000; stroke-linecap:round; stroke-linejoin:round; stroke-width:8; stroke-opacity:1; fill:none" points="1227.01,260.217 1256.29,243.845 1251.82,277.087 "/>
<polyline clip-path="url(#clip472)" style="stroke:#000000; stroke-linecap:round; stroke-linejoin:round; stroke-width:8; stroke-opacity:1; fill:none" points="1256.29,243.845 598.997,1210.32 "/>
<circle clip-path="url(#clip472)" cx="310.54" cy="157.195" r="36" fill="#00a1ff" fill-rule="evenodd" fill-opacity="1" stroke="#000000" stroke-opacity="1" stroke-width="3.2"/>
<circle clip-path="url(#clip472)" cx="1416.2" cy="112.575" r="36" fill="#e69f00" fill-rule="evenodd" fill-opacity="1" stroke="#000000" stroke-opacity="1" stroke-width="3.2"/>
<polyline clip-path="url(#clip472)" style="stroke:#000000; stroke-linecap:round; stroke-linejoin:round; stroke-width:8; stroke-opacity:1; fill:none" points="310.54,157.195 1416.2,112.575 "/>
<polyline clip-path="url(#clip472)" style="stroke:#000000; stroke-linecap:round; stroke-linejoin:round; stroke-width:8; stroke-opacity:1; fill:none" points="1385.62,98.7969 1416.2,112.575 1386.83,128.772 "/>
<polyline clip-path="url(#clip472)" style="stroke:#000000; stroke-linecap:round; stroke-linejoin:round; stroke-width:8; stroke-opacity:1; fill:none" points="1416.2,112.575 310.54,157.195 "/>
<path clip-path="url(#clip470)" d="M1399.5 1361.45 L1896.42 1361.45 L1896.42 1205.93 L1399.5 1205.93  Z" fill="#ffffff" fill-rule="evenodd" fill-opacity="1"/>
<polyline clip-path="url(#clip470)" style="stroke:#000000; stroke-linecap:round; stroke-linejoin:round; stroke-width:4; stroke-opacity:1; fill:none" points="1399.5,1361.45 1896.42,1361.45 1896.42,1205.93 1399.5,1205.93 1399.5,1361.45 "/>
<circle clip-path="url(#clip470)" cx="1474.61" cy="1257.77" r="21.9429" fill="#00a1ff" fill-rule="evenodd" fill-opacity="1" stroke="#000000" stroke-opacity="1" stroke-width="1.95048"/>
<path clip-path="url(#clip470)" d="M1549.73 1240.49 L1554.4 1240.49 L1554.4 1271.11 L1571.23 1271.11 L1571.23 1275.05 L1549.73 1275.05 L1549.73 1240.49 Z" fill="#000000" fill-rule="nonzero" fill-opacity="1" /><path clip-path="url(#clip470)" d="M1585.17 1252.11 Q1581.74 1252.11 1579.75 1254.79 Q1577.76 1257.45 1577.76 1262.11 Q1577.76 1266.76 1579.73 1269.44 Q1581.72 1272.11 1585.17 1272.11 Q1588.57 1272.11 1590.56 1269.42 Q1592.55 1266.74 1592.55 1262.11 Q1592.55 1257.5 1590.56 1254.82 Q1588.57 1252.11 1585.17 1252.11 M1585.17 1248.5 Q1590.72 1248.5 1593.89 1252.11 Q1597.07 1255.72 1597.07 1262.11 Q1597.07 1268.47 1593.89 1272.11 Q1590.72 1275.72 1585.17 1275.72 Q1579.59 1275.72 1576.42 1272.11 Q1573.27 1268.47 1573.27 1262.11 Q1573.27 1255.72 1576.42 1252.11 Q1579.59 1248.5 1585.17 1248.5 Z" fill="#000000" fill-rule="nonzero" fill-opacity="1" /><path clip-path="url(#clip470)" d="M1615.91 1262.01 Q1610.75 1262.01 1608.76 1263.19 Q1606.76 1264.38 1606.76 1267.22 Q1606.76 1269.49 1608.25 1270.83 Q1609.75 1272.15 1612.32 1272.15 Q1615.86 1272.15 1617.99 1269.65 Q1620.14 1267.13 1620.14 1262.96 L1620.14 1262.01 L1615.91 1262.01 M1624.4 1260.25 L1624.4 1275.05 L1620.14 1275.05 L1620.14 1271.11 Q1618.69 1273.47 1616.51 1274.61 Q1614.33 1275.72 1611.19 1275.72 Q1607.2 1275.72 1604.84 1273.5 Q1602.51 1271.25 1602.51 1267.5 Q1602.51 1263.13 1605.42 1260.9 Q1608.36 1258.68 1614.17 1258.68 L1620.14 1258.68 L1620.14 1258.26 Q1620.14 1255.32 1618.2 1253.73 Q1616.28 1252.11 1612.78 1252.11 Q1610.56 1252.11 1608.45 1252.64 Q1606.35 1253.17 1604.4 1254.24 L1604.4 1250.3 Q1606.74 1249.4 1608.94 1248.96 Q1611.14 1248.5 1613.22 1248.5 Q1618.85 1248.5 1621.63 1251.41 Q1624.4 1254.33 1624.4 1260.25 Z" fill="#000000" fill-rule="nonzero" fill-opacity="1" /><path clip-path="url(#clip470)" d="M1654.73 1259.4 L1654.73 1275.05 L1650.47 1275.05 L1650.47 1259.54 Q1650.47 1255.86 1649.03 1254.03 Q1647.6 1252.2 1644.73 1252.2 Q1641.28 1252.2 1639.29 1254.4 Q1637.3 1256.6 1637.3 1260.39 L1637.3 1275.05 L1633.01 1275.05 L1633.01 1249.12 L1637.3 1249.12 L1637.3 1253.15 Q1638.82 1250.81 1640.88 1249.65 Q1642.97 1248.5 1645.68 1248.5 Q1650.14 1248.5 1652.44 1251.27 Q1654.73 1254.03 1654.73 1259.4 Z" fill="#000000" fill-rule="nonzero" fill-opacity="1" /><path clip-path="url(#clip470)" d="M1695.35 1253.06 L1695.35 1239.03 L1699.61 1239.03 L1699.61 1275.05 L1695.35 1275.05 L1695.35 1271.16 Q1694.01 1273.47 1691.95 1274.61 Q1689.91 1275.72 1687.04 1275.72 Q1682.34 1275.72 1679.38 1271.97 Q1676.44 1268.22 1676.44 1262.11 Q1676.44 1256 1679.38 1252.25 Q1682.34 1248.5 1687.04 1248.5 Q1689.91 1248.5 1691.95 1249.63 Q1694.01 1250.74 1695.35 1253.06 M1680.84 1262.11 Q1680.84 1266.81 1682.76 1269.49 Q1684.7 1272.15 1688.08 1272.15 Q1691.46 1272.15 1693.41 1269.49 Q1695.35 1266.81 1695.35 1262.11 Q1695.35 1257.41 1693.41 1254.75 Q1691.46 1252.06 1688.08 1252.06 Q1684.7 1252.06 1682.76 1254.75 Q1680.84 1257.41 1680.84 1262.11 Z" fill="#000000" fill-rule="nonzero" fill-opacity="1" /><path clip-path="url(#clip470)" d="M1730.56 1261.02 L1730.56 1263.1 L1710.98 1263.1 Q1711.25 1267.5 1713.62 1269.82 Q1716 1272.11 1720.24 1272.11 Q1722.69 1272.11 1724.98 1271.5 Q1727.3 1270.9 1729.56 1269.7 L1729.56 1273.73 Q1727.27 1274.7 1724.87 1275.21 Q1722.46 1275.72 1719.98 1275.72 Q1713.78 1275.72 1710.14 1272.11 Q1706.53 1268.5 1706.53 1262.34 Q1706.53 1255.97 1709.96 1252.25 Q1713.41 1248.5 1719.24 1248.5 Q1724.47 1248.5 1727.5 1251.88 Q1730.56 1255.23 1730.56 1261.02 M1726.3 1259.77 Q1726.25 1256.27 1724.33 1254.19 Q1722.44 1252.11 1719.29 1252.11 Q1715.72 1252.11 1713.57 1254.12 Q1711.44 1256.13 1711.12 1259.79 L1726.3 1259.77 Z" fill="#000000" fill-rule="nonzero" fill-opacity="1" /><path clip-path="url(#clip470)" d="M1759.1 1259.4 L1759.1 1275.05 L1754.84 1275.05 L1754.84 1259.54 Q1754.84 1255.86 1753.41 1254.03 Q1751.97 1252.2 1749.1 1252.2 Q1745.65 1252.2 1743.66 1254.4 Q1741.67 1256.6 1741.67 1260.39 L1741.67 1275.05 L1737.39 1275.05 L1737.39 1249.12 L1741.67 1249.12 L1741.67 1253.15 Q1743.2 1250.81 1745.26 1249.65 Q1747.34 1248.5 1750.05 1248.5 Q1754.52 1248.5 1756.81 1251.27 Q1759.1 1254.03 1759.1 1259.4 Z" fill="#000000" fill-rule="nonzero" fill-opacity="1" /><path clip-path="url(#clip470)" d="M1767.6 1249.12 L1771.86 1249.12 L1771.86 1275.05 L1767.6 1275.05 L1767.6 1249.12 M1767.6 1239.03 L1771.86 1239.03 L1771.86 1244.42 L1767.6 1244.42 L1767.6 1239.03 Z" fill="#000000" fill-rule="nonzero" fill-opacity="1" /><path clip-path="url(#clip470)" d="M1802.94 1261.02 L1802.94 1263.1 L1783.36 1263.1 Q1783.64 1267.5 1786 1269.82 Q1788.38 1272.11 1792.62 1272.11 Q1795.07 1272.11 1797.37 1271.5 Q1799.68 1270.9 1801.95 1269.7 L1801.95 1273.73 Q1799.66 1274.7 1797.25 1275.21 Q1794.84 1275.72 1792.37 1275.72 Q1786.16 1275.72 1782.53 1272.11 Q1778.92 1268.5 1778.92 1262.34 Q1778.92 1255.97 1782.34 1252.25 Q1785.79 1248.5 1791.62 1248.5 Q1796.86 1248.5 1799.89 1251.88 Q1802.94 1255.23 1802.94 1261.02 M1798.68 1259.77 Q1798.64 1256.27 1796.72 1254.19 Q1794.82 1252.11 1791.67 1252.11 Q1788.11 1252.11 1785.95 1254.12 Q1783.82 1256.13 1783.5 1259.79 L1798.68 1259.77 Z" fill="#000000" fill-rule="nonzero" fill-opacity="1" /><path clip-path="url(#clip470)" d="M1826.99 1253.06 L1826.99 1239.03 L1831.25 1239.03 L1831.25 1275.05 L1826.99 1275.05 L1826.99 1271.16 Q1825.65 1273.47 1823.59 1274.61 Q1821.56 1275.72 1818.68 1275.72 Q1813.99 1275.72 1811.02 1271.97 Q1808.08 1268.22 1808.08 1262.11 Q1808.08 1256 1811.02 1252.25 Q1813.99 1248.5 1818.68 1248.5 Q1821.56 1248.5 1823.59 1249.63 Q1825.65 1250.74 1826.99 1253.06 M1812.48 1262.11 Q1812.48 1266.81 1814.4 1269.49 Q1816.35 1272.15 1819.73 1272.15 Q1823.11 1272.15 1825.05 1269.49 Q1826.99 1266.81 1826.99 1262.11 Q1826.99 1257.41 1825.05 1254.75 Q1823.11 1252.06 1819.73 1252.06 Q1816.35 1252.06 1814.4 1254.75 Q1812.48 1257.41 1812.48 1262.11 Z" fill="#000000" fill-rule="nonzero" fill-opacity="1" /><circle clip-path="url(#clip470)" cx="1474.61" cy="1309.61" r="21.9429" fill="#e69f00" fill-rule="evenodd" fill-opacity="1" stroke="#000000" stroke-opacity="1" stroke-width="1.95048"/>
<path clip-path="url(#clip470)" d="M1549.73 1292.33 L1554.4 1292.33 L1554.4 1322.95 L1571.23 1322.95 L1571.23 1326.89 L1549.73 1326.89 L1549.73 1292.33 Z" fill="#000000" fill-rule="nonzero" fill-opacity="1" /><path clip-path="url(#clip470)" d="M1585.17 1303.95 Q1581.74 1303.95 1579.75 1306.63 Q1577.76 1309.29 1577.76 1313.95 Q1577.76 1318.6 1579.73 1321.28 Q1581.72 1323.95 1585.17 1323.95 Q1588.57 1323.95 1590.56 1321.26 Q1592.55 1318.58 1592.55 1313.95 Q1592.55 1309.34 1590.56 1306.66 Q1588.57 1303.95 1585.17 1303.95 M1585.17 1300.34 Q1590.72 1300.34 1593.89 1303.95 Q1597.07 1307.56 1597.07 1313.95 Q1597.07 1320.31 1593.89 1323.95 Q1590.72 1327.56 1585.17 1327.56 Q1579.59 1327.56 1576.42 1323.95 Q1573.27 1320.31 1573.27 1313.95 Q1573.27 1307.56 1576.42 1303.95 Q1579.59 1300.34 1585.17 1300.34 Z" fill="#000000" fill-rule="nonzero" fill-opacity="1" /><path clip-path="url(#clip470)" d="M1615.91 1313.85 Q1610.75 1313.85 1608.76 1315.03 Q1606.76 1316.22 1606.76 1319.06 Q1606.76 1321.33 1608.25 1322.67 Q1609.75 1323.99 1612.32 1323.99 Q1615.86 1323.99 1617.99 1321.49 Q1620.14 1318.97 1620.14 1314.8 L1620.14 1313.85 L1615.91 1313.85 M1624.4 1312.09 L1624.4 1326.89 L1620.14 1326.89 L1620.14 1322.95 Q1618.69 1325.31 1616.51 1326.45 Q1614.33 1327.56 1611.19 1327.56 Q1607.2 1327.56 1604.84 1325.34 Q1602.51 1323.09 1602.51 1319.34 Q1602.51 1314.97 1605.42 1312.74 Q1608.36 1310.52 1614.17 1310.52 L1620.14 1310.52 L1620.14 1310.1 Q1620.14 1307.16 1618.2 1305.57 Q1616.28 1303.95 1612.78 1303.95 Q1610.56 1303.95 1608.45 1304.48 Q1606.35 1305.01 1604.4 1306.08 L1604.4 1302.14 Q1606.74 1301.24 1608.94 1300.8 Q1611.14 1300.34 1613.22 1300.34 Q1618.85 1300.34 1621.63 1303.25 Q1624.4 1306.17 1624.4 1312.09 Z" fill="#000000" fill-rule="nonzero" fill-opacity="1" /><path clip-path="url(#clip470)" d="M1654.73 1311.24 L1654.73 1326.89 L1650.47 1326.89 L1650.47 1311.38 Q1650.47 1307.7 1649.03 1305.87 Q1647.6 1304.04 1644.73 1304.04 Q1641.28 1304.04 1639.29 1306.24 Q1637.3 1308.44 1637.3 1312.23 L1637.3 1326.89 L1633.01 1326.89 L1633.01 1300.96 L1637.3 1300.96 L1637.3 1304.99 Q1638.82 1302.65 1640.88 1301.49 Q1642.97 1300.34 1645.68 1300.34 Q1650.14 1300.34 1652.44 1303.11 Q1654.73 1305.87 1654.73 1311.24 Z" fill="#000000" fill-rule="nonzero" fill-opacity="1" /><path clip-path="url(#clip470)" d="M1682.41 1323 L1682.41 1336.75 L1678.13 1336.75 L1678.13 1300.96 L1682.41 1300.96 L1682.41 1304.9 Q1683.75 1302.58 1685.79 1301.47 Q1687.85 1300.34 1690.7 1300.34 Q1695.42 1300.34 1698.36 1304.09 Q1701.32 1307.84 1701.32 1313.95 Q1701.32 1320.06 1698.36 1323.81 Q1695.42 1327.56 1690.7 1327.56 Q1687.85 1327.56 1685.79 1326.45 Q1683.75 1325.31 1682.41 1323 M1696.9 1313.95 Q1696.9 1309.25 1694.96 1306.59 Q1693.04 1303.9 1689.66 1303.9 Q1686.28 1303.9 1684.33 1306.59 Q1682.41 1309.25 1682.41 1313.95 Q1682.41 1318.65 1684.33 1321.33 Q1686.28 1323.99 1689.66 1323.99 Q1693.04 1323.99 1694.96 1321.33 Q1696.9 1318.65 1696.9 1313.95 Z" fill="#000000" fill-rule="nonzero" fill-opacity="1" /><path clip-path="url(#clip470)" d="M1723.41 1304.94 Q1722.69 1304.53 1721.83 1304.34 Q1721 1304.13 1719.98 1304.13 Q1716.37 1304.13 1714.43 1306.49 Q1712.5 1308.83 1712.5 1313.23 L1712.5 1326.89 L1708.22 1326.89 L1708.22 1300.96 L1712.5 1300.96 L1712.5 1304.99 Q1713.85 1302.63 1716 1301.49 Q1718.15 1300.34 1721.23 1300.34 Q1721.67 1300.34 1722.2 1300.41 Q1722.74 1300.45 1723.38 1300.57 L1723.41 1304.94 Z" fill="#000000" fill-rule="nonzero" fill-opacity="1" /><path clip-path="url(#clip470)" d="M1736.88 1303.95 Q1733.45 1303.95 1731.46 1306.63 Q1729.47 1309.29 1729.47 1313.95 Q1729.47 1318.6 1731.44 1321.28 Q1733.43 1323.95 1736.88 1323.95 Q1740.28 1323.95 1742.27 1321.26 Q1744.26 1318.58 1744.26 1313.95 Q1744.26 1309.34 1742.27 1306.66 Q1740.28 1303.95 1736.88 1303.95 M1736.88 1300.34 Q1742.44 1300.34 1745.61 1303.95 Q1748.78 1307.56 1748.78 1313.95 Q1748.78 1320.31 1745.61 1323.95 Q1742.44 1327.56 1736.88 1327.56 Q1731.3 1327.56 1728.13 1323.95 Q1724.98 1320.31 1724.98 1313.95 Q1724.98 1307.56 1728.13 1303.95 Q1731.3 1300.34 1736.88 1300.34 Z" fill="#000000" fill-rule="nonzero" fill-opacity="1" /><path clip-path="url(#clip470)" d="M1752.78 1300.96 L1757.3 1300.96 L1765.4 1322.72 L1773.5 1300.96 L1778.01 1300.96 L1768.29 1326.89 L1762.5 1326.89 L1752.78 1300.96 Z" fill="#000000" fill-rule="nonzero" fill-opacity="1" /><path clip-path="url(#clip470)" d="M1783.89 1300.96 L1788.15 1300.96 L1788.15 1326.89 L1783.89 1326.89 L1783.89 1300.96 M1783.89 1290.87 L1788.15 1290.87 L1788.15 1296.26 L1783.89 1296.26 L1783.89 1290.87 Z" fill="#000000" fill-rule="nonzero" fill-opacity="1" /><path clip-path="url(#clip470)" d="M1814.12 1304.9 L1814.12 1290.87 L1818.38 1290.87 L1818.38 1326.89 L1814.12 1326.89 L1814.12 1323 Q1812.78 1325.31 1810.72 1326.45 Q1808.68 1327.56 1805.81 1327.56 Q1801.12 1327.56 1798.15 1323.81 Q1795.21 1320.06 1795.21 1313.95 Q1795.21 1307.84 1798.15 1304.09 Q1801.12 1300.34 1805.81 1300.34 Q1808.68 1300.34 1810.72 1301.47 Q1812.78 1302.58 1814.12 1304.9 M1799.61 1313.95 Q1799.61 1318.65 1801.53 1321.33 Q1803.48 1323.99 1806.86 1323.99 Q1810.24 1323.99 1812.18 1321.33 Q1814.12 1318.65 1814.12 1313.95 Q1814.12 1309.25 1812.18 1306.59 Q1810.24 1303.9 1806.86 1303.9 Q1803.48 1303.9 1801.53 1306.59 Q1799.61 1309.25 1799.61 1313.95 Z" fill="#000000" fill-rule="nonzero" fill-opacity="1" /><path clip-path="url(#clip470)" d="M1849.33 1312.86 L1849.33 1314.94 L1829.75 1314.94 Q1830.03 1319.34 1832.39 1321.66 Q1834.77 1323.95 1839.01 1323.95 Q1841.46 1323.95 1843.75 1323.34 Q1846.07 1322.74 1848.34 1321.54 L1848.34 1325.57 Q1846.05 1326.54 1843.64 1327.05 Q1841.23 1327.56 1838.75 1327.56 Q1832.55 1327.56 1828.92 1323.95 Q1825.3 1320.34 1825.3 1314.18 Q1825.3 1307.81 1828.73 1304.09 Q1832.18 1300.34 1838.01 1300.34 Q1843.24 1300.34 1846.28 1303.72 Q1849.33 1307.07 1849.33 1312.86 M1845.07 1311.61 Q1845.03 1308.11 1843.11 1306.03 Q1841.21 1303.95 1838.06 1303.95 Q1834.49 1303.95 1832.34 1305.96 Q1830.21 1307.97 1829.89 1311.63 L1845.07 1311.61 Z" fill="#000000" fill-rule="nonzero" fill-opacity="1" /><path clip-path="url(#clip470)" d="M1873.38 1304.9 L1873.38 1290.87 L1877.64 1290.87 L1877.64 1326.89 L1873.38 1326.89 L1873.38 1323 Q1872.04 1325.31 1869.98 1326.45 Q1867.94 1327.56 1865.07 1327.56 Q1860.37 1327.56 1857.41 1323.81 Q1854.47 1320.06 1854.47 1313.95 Q1854.47 1307.84 1857.41 1304.09 Q1860.37 1300.34 1865.07 1300.34 Q1867.94 1300.34 1869.98 1301.47 Q1872.04 1302.58 1873.38 1304.9 M1858.87 1313.95 Q1858.87 1318.65 1860.79 1321.33 Q1862.74 1323.99 1866.11 1323.99 Q1869.49 1323.99 1871.44 1321.33 Q1873.38 1318.65 1873.38 1313.95 Q1873.38 1309.25 1871.44 1306.59 Q1869.49 1303.9 1866.11 1303.9 Q1862.74 1303.9 1860.79 1306.59 Q1858.87 1309.25 1858.87 1313.95 Z" fill="#000000" fill-rule="nonzero" fill-opacity="1" /></svg>
