<?xml version="1.0" encoding="utf-8"?>
<svg xmlns="http://www.w3.org/2000/svg" xmlns:xlink="http://www.w3.org/1999/xlink" width="500" height="400" viewBox="0 0 2000 1600">
<defs>
  <clipPath id="clip340">
    <rect x="0" y="0" width="2000" height="1600"/>
  </clipPath>
</defs>
<path clip-path="url(#clip340)" d="M0 1600 L2000 1600 L2000 0 L0 0  Z" fill="#ffffff" fill-rule="evenodd" fill-opacity="1"/>
<defs>
  <clipPath id="clip341">
    <rect x="400" y="0" width="1401" height="1401"/>
  </clipPath>
</defs>
<path clip-path="url(#clip340)" d="M262.708 1406.76 L1952.76 1406.76 L1952.76 47.2441 L262.708 47.2441  Z" fill="#ffffff" fill-rule="evenodd" fill-opacity="1"/>
<defs>
  <clipPath id="clip342">
    <rect x="262" y="47" width="1691" height="1361"/>
  </clipPath>
</defs>
<polyline clip-path="url(#clip342)" style="stroke:#000000; stroke-linecap:round; stroke-linejoin:round; stroke-width:2; stroke-opacity:0.1; fill:none" points="390.887,1406.76 390.887,47.2441 "/>
<polyline clip-path="url(#clip342)" style="stroke:#000000; stroke-linecap:round; stroke-linejoin:round; stroke-width:2; stroke-opacity:0.1; fill:none" points="728.832,1406.76 728.832,47.2441 "/>
<polyline clip-path="url(#clip342)" style="stroke:#000000; stroke-linecap:round; stroke-linejoin:round; stroke-width:2; stroke-opacity:0.1; fill:none" points="1066.78,1406.76 1066.78,47.2441 "/>
<polyline clip-path="url(#clip342)" style="stroke:#000000; stroke-linecap:round; stroke-linejoin:round; stroke-width:2; stroke-opacity:0.1; fill:none" points="1404.72,1406.76 1404.72,47.2441 "/>
<polyline clip-path="url(#clip342)" style="stroke:#000000; stroke-linecap:round; stroke-linejoin:round; stroke-width:2; stroke-opacity:0.1; fill:none" points="1742.67,1406.76 1742.67,47.2441 "/>
<polyline clip-path="url(#clip340)" style="stroke:#000000; stroke-linecap:round; stroke-linejoin:round; stroke-width:4; stroke-opacity:1; fill:none" points="262.708,1406.76 1952.76,1406.76 "/>
<polyline clip-path="url(#clip340)" style="stroke:#000000; stroke-linecap:round; stroke-linejoin:round; stroke-width:4; stroke-opacity:1; fill:none" points="390.887,1406.76 390.887,1387.87 "/>
<polyline clip-path="url(#clip340)" style="stroke:#000000; stroke-linecap:round; stroke-linejoin:round; stroke-width:4; stroke-opacity:1; fill:none" points="728.832,1406.76 728.832,1387.87 "/>
<polyline clip-path="url(#clip340)" style="stroke:#000000; stroke-linecap:round; stroke-linejoin:round; stroke-width:4; stroke-opacity:1; fill:none" points="1066.78,1406.76 1066.78,1387.87 "/>
<polyline clip-path="url(#clip340)" style="stroke:#000000; stroke-linecap:round; stroke-linejoin:round; stroke-width:4; stroke-opacity:1; fill:none" points="1404.72,1406.76 1404.72,1387.87 "/>
<polyline clip-path="url(#clip340)" style="stroke:#000000; stroke-linecap:round; stroke-linejoin:round; stroke-width:4; stroke-opacity:1; fill:none" points="1742.67,1406.76 1742.67,1387.87 "/>
<path clip-path="url(#clip340)" d="M322.334 1449.14 L352.01 1449.14 L352.01 1453.07 L322.334 1453.07 L322.334 1449.14 Z" fill="#000000" fill-rule="nonzero" fill-opacity="1" /><path clip-path="url(#clip340)" d="M372.102 1434.48 Q368.491 1434.48 366.663 1438.05 Q364.857 1441.59 364.857 1448.72 Q364.857 1455.83 366.663 1459.39 Q368.491 1462.93 372.102 1462.93 Q375.737 1462.93 377.542 1459.39 Q379.371 1455.83 379.371 1448.72 Q379.371 1441.59 377.542 1438.05 Q375.737 1434.48 372.102 1434.48 M372.102 1430.78 Q377.913 1430.78 380.968 1435.39 Q384.047 1439.97 384.047 1448.72 Q384.047 1457.45 380.968 1462.05 Q377.913 1466.64 372.102 1466.64 Q366.292 1466.64 363.214 1462.05 Q360.158 1457.45 360.158 1448.72 Q360.158 1439.97 363.214 1435.39 Q366.292 1430.78 372.102 1430.78 Z" fill="#000000" fill-rule="nonzero" fill-opacity="1" /><path clip-path="url(#clip340)" d="M392.264 1460.08 L397.149 1460.08 L397.149 1465.96 L392.264 1465.96 L392.264 1460.08 Z" fill="#000000" fill-rule="nonzero" fill-opacity="1" /><path clip-path="url(#clip340)" d="M407.38 1431.4 L425.736 1431.4 L425.736 1435.34 L411.662 1435.34 L411.662 1443.81 Q412.681 1443.46 413.699 1443.3 Q414.718 1443.12 415.736 1443.12 Q421.523 1443.12 424.903 1446.29 Q428.283 1449.46 428.283 1454.88 Q428.283 1460.45 424.81 1463.56 Q421.338 1466.64 415.019 1466.64 Q412.843 1466.64 410.574 1466.26 Q408.329 1465.89 405.922 1465.15 L405.922 1460.45 Q408.005 1461.59 410.227 1462.14 Q412.449 1462.7 414.926 1462.7 Q418.931 1462.7 421.269 1460.59 Q423.607 1458.49 423.607 1454.88 Q423.607 1451.26 421.269 1449.16 Q418.931 1447.05 414.926 1447.05 Q413.051 1447.05 411.176 1447.47 Q409.324 1447.89 407.38 1448.76 L407.38 1431.4 Z" fill="#000000" fill-rule="nonzero" fill-opacity="1" /><path clip-path="url(#clip340)" d="M447.496 1434.48 Q443.884 1434.48 442.056 1438.05 Q440.25 1441.59 440.25 1448.72 Q440.25 1455.83 442.056 1459.39 Q443.884 1462.93 447.496 1462.93 Q451.13 1462.93 452.935 1459.39 Q454.764 1455.83 454.764 1448.72 Q454.764 1441.59 452.935 1438.05 Q451.13 1434.48 447.496 1434.48 M447.496 1430.78 Q453.306 1430.78 456.361 1435.39 Q459.44 1439.97 459.44 1448.72 Q459.44 1457.45 456.361 1462.05 Q453.306 1466.64 447.496 1466.64 Q441.685 1466.64 438.607 1462.05 Q435.551 1457.45 435.551 1448.72 Q435.551 1439.97 438.607 1435.39 Q441.685 1430.78 447.496 1430.78 Z" fill="#000000" fill-rule="nonzero" fill-opacity="1" /><path clip-path="url(#clip340)" d="M660.777 1449.14 L690.453 1449.14 L690.453 1453.07 L660.777 1453.07 L660.777 1449.14 Z" fill="#000000" fill-rule="nonzero" fill-opacity="1" /><path clip-path="url(#clip340)" d="M710.545 1434.48 Q706.934 1434.48 705.106 1438.05 Q703.3 1441.59 703.3 1448.72 Q703.3 1455.83 705.106 1459.39 Q706.934 1462.93 710.545 1462.93 Q714.18 1462.93 715.985 1459.39 Q717.814 1455.83 717.814 1448.72 Q717.814 1441.59 715.985 1438.05 Q714.18 1434.48 710.545 1434.48 M710.545 1430.78 Q716.356 1430.78 719.411 1435.39 Q722.49 1439.97 722.49 1448.72 Q722.49 1457.45 719.411 1462.05 Q716.356 1466.64 710.545 1466.64 Q704.735 1466.64 701.657 1462.05 Q698.601 1457.45 698.601 1448.72 Q698.601 1439.97 701.657 1435.39 Q704.735 1430.78 710.545 1430.78 Z" fill="#000000" fill-rule="nonzero" fill-opacity="1" /><path clip-path="url(#clip340)" d="M730.707 1460.08 L735.592 1460.08 L735.592 1465.96 L730.707 1465.96 L730.707 1460.08 Z" fill="#000000" fill-rule="nonzero" fill-opacity="1" /><path clip-path="url(#clip340)" d="M749.804 1462.03 L766.124 1462.03 L766.124 1465.96 L744.179 1465.96 L744.179 1462.03 Q746.841 1459.27 751.425 1454.64 Q756.031 1449.99 757.212 1448.65 Q759.457 1446.13 760.337 1444.39 Q761.24 1442.63 761.24 1440.94 Q761.24 1438.19 759.295 1436.45 Q757.374 1434.71 754.272 1434.71 Q752.073 1434.71 749.619 1435.48 Q747.189 1436.24 744.411 1437.79 L744.411 1433.07 Q747.235 1431.94 749.689 1431.36 Q752.142 1430.78 754.179 1430.78 Q759.55 1430.78 762.744 1433.46 Q765.939 1436.15 765.939 1440.64 Q765.939 1442.77 765.128 1444.69 Q764.341 1446.59 762.235 1449.18 Q761.656 1449.85 758.554 1453.07 Q755.453 1456.26 749.804 1462.03 Z" fill="#000000" fill-rule="nonzero" fill-opacity="1" /><path clip-path="url(#clip340)" d="M775.985 1431.4 L794.341 1431.4 L794.341 1435.34 L780.267 1435.34 L780.267 1443.81 Q781.286 1443.46 782.304 1443.3 Q783.323 1443.12 784.341 1443.12 Q790.128 1443.12 793.508 1446.29 Q796.888 1449.46 796.888 1454.88 Q796.888 1460.45 793.415 1463.56 Q789.943 1466.64 783.624 1466.64 Q781.448 1466.64 779.179 1466.26 Q776.934 1465.89 774.527 1465.15 L774.527 1460.45 Q776.61 1461.59 778.832 1462.14 Q781.054 1462.7 783.531 1462.7 Q787.536 1462.7 789.874 1460.59 Q792.212 1458.49 792.212 1454.88 Q792.212 1451.26 789.874 1449.16 Q787.536 1447.05 783.531 1447.05 Q781.656 1447.05 779.781 1447.47 Q777.929 1447.89 775.985 1448.76 L775.985 1431.4 Z" fill="#000000" fill-rule="nonzero" fill-opacity="1" /><path clip-path="url(#clip340)" d="M1029.08 1434.48 Q1025.47 1434.48 1023.64 1438.05 Q1021.84 1441.59 1021.84 1448.72 Q1021.84 1455.83 1023.64 1459.39 Q1025.47 1462.93 1029.08 1462.93 Q1032.72 1462.93 1034.52 1459.39 Q1036.35 1455.83 1036.35 1448.72 Q1036.35 1441.59 1034.52 1438.05 Q1032.72 1434.48 1029.08 1434.48 M1029.08 1430.78 Q1034.89 1430.78 1037.95 1435.39 Q1041.03 1439.97 1041.03 1448.72 Q1041.03 1457.45 1037.95 1462.05 Q1034.89 1466.64 1029.08 1466.64 Q1023.27 1466.64 1020.19 1462.05 Q1017.14 1457.45 1017.14 1448.72 Q1017.14 1439.97 1020.19 1435.39 Q1023.27 1430.78 1029.08 1430.78 Z" fill="#000000" fill-rule="nonzero" fill-opacity="1" /><path clip-path="url(#clip340)" d="M1049.24 1460.08 L1054.13 1460.08 L1054.13 1465.96 L1049.24 1465.96 L1049.24 1460.08 Z" fill="#000000" fill-rule="nonzero" fill-opacity="1" /><path clip-path="url(#clip340)" d="M1074.31 1434.48 Q1070.7 1434.48 1068.87 1438.05 Q1067.07 1441.59 1067.07 1448.72 Q1067.07 1455.83 1068.87 1459.39 Q1070.7 1462.93 1074.31 1462.93 Q1077.95 1462.93 1079.75 1459.39 Q1081.58 1455.83 1081.58 1448.72 Q1081.58 1441.59 1079.75 1438.05 Q1077.95 1434.48 1074.31 1434.48 M1074.31 1430.78 Q1080.12 1430.78 1083.18 1435.39 Q1086.26 1439.97 1086.26 1448.72 Q1086.26 1457.45 1083.18 1462.05 Q1080.12 1466.64 1074.31 1466.64 Q1068.5 1466.64 1065.42 1462.05 Q1062.37 1457.45 1062.37 1448.72 Q1062.37 1439.97 1065.42 1435.39 Q1068.5 1430.78 1074.31 1430.78 Z" fill="#000000" fill-rule="nonzero" fill-opacity="1" /><path clip-path="url(#clip340)" d="M1104.47 1434.48 Q1100.86 1434.48 1099.03 1438.05 Q1097.23 1441.59 1097.23 1448.72 Q1097.23 1455.83 1099.03 1459.39 Q1100.86 1462.93 1104.47 1462.93 Q1108.11 1462.93 1109.91 1459.39 Q1111.74 1455.83 1111.74 1448.72 Q1111.74 1441.59 1109.91 1438.05 Q1108.11 1434.48 1104.47 1434.48 M1104.47 1430.78 Q1110.28 1430.78 1113.34 1435.39 Q1116.42 1439.97 1116.42 1448.72 Q1116.42 1457.45 1113.34 1462.05 Q1110.28 1466.64 1104.47 1466.64 Q1098.66 1466.64 1095.59 1462.05 Q1092.53 1457.45 1092.53 1448.72 Q1092.53 1439.97 1095.59 1435.39 Q1098.66 1430.78 1104.47 1430.78 Z" fill="#000000" fill-rule="nonzero" fill-opacity="1" /><path clip-path="url(#clip340)" d="M1367.52 1434.48 Q1363.91 1434.48 1362.08 1438.05 Q1360.28 1441.59 1360.28 1448.72 Q1360.28 1455.83 1362.08 1459.39 Q1363.91 1462.93 1367.52 1462.93 Q1371.16 1462.93 1372.96 1459.39 Q1374.79 1455.83 1374.79 1448.72 Q1374.79 1441.59 1372.96 1438.05 Q1371.16 1434.48 1367.52 1434.48 M1367.52 1430.78 Q1373.33 1430.78 1376.39 1435.39 Q1379.47 1439.97 1379.47 1448.72 Q1379.47 1457.45 1376.39 1462.05 Q1373.33 1466.64 1367.52 1466.64 Q1361.71 1466.64 1358.64 1462.05 Q1355.58 1457.45 1355.58 1448.72 Q1355.58 1439.97 1358.64 1435.39 Q1361.71 1430.78 1367.52 1430.78 Z" fill="#000000" fill-rule="nonzero" fill-opacity="1" /><path clip-path="url(#clip340)" d="M1387.69 1460.08 L1392.57 1460.08 L1392.57 1465.96 L1387.69 1465.96 L1387.69 1460.08 Z" fill="#000000" fill-rule="nonzero" fill-opacity="1" /><path clip-path="url(#clip340)" d="M1406.78 1462.03 L1423.1 1462.03 L1423.1 1465.96 L1401.16 1465.96 L1401.16 1462.03 Q1403.82 1459.27 1408.4 1454.64 Q1413.01 1449.99 1414.19 1448.65 Q1416.44 1446.13 1417.32 1444.39 Q1418.22 1442.63 1418.22 1440.94 Q1418.22 1438.19 1416.27 1436.45 Q1414.35 1434.71 1411.25 1434.71 Q1409.05 1434.71 1406.6 1435.48 Q1404.17 1436.24 1401.39 1437.79 L1401.39 1433.07 Q1404.21 1431.94 1406.67 1431.36 Q1409.12 1430.78 1411.16 1430.78 Q1416.53 1430.78 1419.72 1433.46 Q1422.92 1436.15 1422.92 1440.64 Q1422.92 1442.77 1422.11 1444.69 Q1421.32 1446.59 1419.21 1449.18 Q1418.63 1449.85 1415.53 1453.07 Q1412.43 1456.26 1406.78 1462.03 Z" fill="#000000" fill-rule="nonzero" fill-opacity="1" /><path clip-path="url(#clip340)" d="M1432.96 1431.4 L1451.32 1431.4 L1451.32 1435.34 L1437.25 1435.34 L1437.25 1443.81 Q1438.26 1443.46 1439.28 1443.3 Q1440.3 1443.12 1441.32 1443.12 Q1447.11 1443.12 1450.49 1446.29 Q1453.87 1449.46 1453.87 1454.88 Q1453.87 1460.45 1450.39 1463.56 Q1446.92 1466.64 1440.6 1466.64 Q1438.43 1466.64 1436.16 1466.26 Q1433.91 1465.89 1431.51 1465.15 L1431.51 1460.45 Q1433.59 1461.59 1435.81 1462.14 Q1438.03 1462.7 1440.51 1462.7 Q1444.51 1462.7 1446.85 1460.59 Q1449.19 1458.49 1449.19 1454.88 Q1449.19 1451.26 1446.85 1449.16 Q1444.51 1447.05 1440.51 1447.05 Q1438.63 1447.05 1436.76 1447.47 Q1434.91 1447.89 1432.96 1448.76 L1432.96 1431.4 Z" fill="#000000" fill-rule="nonzero" fill-opacity="1" /><path clip-path="url(#clip340)" d="M1704.97 1434.48 Q1701.36 1434.48 1699.53 1438.05 Q1697.73 1441.59 1697.73 1448.72 Q1697.73 1455.83 1699.53 1459.39 Q1701.36 1462.93 1704.97 1462.93 Q1708.61 1462.93 1710.41 1459.39 Q1712.24 1455.83 1712.24 1448.72 Q1712.24 1441.59 1710.41 1438.05 Q1708.61 1434.48 1704.97 1434.48 M1704.97 1430.78 Q1710.78 1430.78 1713.84 1435.39 Q1716.92 1439.97 1716.92 1448.72 Q1716.92 1457.45 1713.84 1462.05 Q1710.78 1466.64 1704.97 1466.64 Q1699.16 1466.64 1696.08 1462.05 Q1693.03 1457.45 1693.03 1448.72 Q1693.03 1439.97 1696.08 1435.39 Q1699.16 1430.78 1704.97 1430.78 Z" fill="#000000" fill-rule="nonzero" fill-opacity="1" /><path clip-path="url(#clip340)" d="M1725.13 1460.08 L1730.02 1460.08 L1730.02 1465.96 L1725.13 1465.96 L1725.13 1460.08 Z" fill="#000000" fill-rule="nonzero" fill-opacity="1" /><path clip-path="url(#clip340)" d="M1740.25 1431.4 L1758.61 1431.4 L1758.61 1435.34 L1744.53 1435.34 L1744.53 1443.81 Q1745.55 1443.46 1746.57 1443.3 Q1747.59 1443.12 1748.61 1443.12 Q1754.39 1443.12 1757.77 1446.29 Q1761.15 1449.46 1761.15 1454.88 Q1761.15 1460.45 1757.68 1463.56 Q1754.21 1466.64 1747.89 1466.64 Q1745.71 1466.64 1743.44 1466.26 Q1741.2 1465.89 1738.79 1465.15 L1738.79 1460.45 Q1740.87 1461.59 1743.1 1462.14 Q1745.32 1462.7 1747.8 1462.7 Q1751.8 1462.7 1754.14 1460.59 Q1756.48 1458.49 1756.48 1454.88 Q1756.48 1451.26 1754.14 1449.16 Q1751.8 1447.05 1747.8 1447.05 Q1745.92 1447.05 1744.05 1447.47 Q1742.19 1447.89 1740.25 1448.76 L1740.25 1431.4 Z" fill="#000000" fill-rule="nonzero" fill-opacity="1" /><path clip-path="url(#clip340)" d="M1780.36 1434.48 Q1776.75 1434.48 1774.92 1438.05 Q1773.12 1441.59 1773.12 1448.72 Q1773.12 1455.83 1774.92 1459.39 Q1776.75 1462.93 1780.36 1462.93 Q1784 1462.93 1785.8 1459.39 Q1787.63 1455.83 1787.63 1448.72 Q1787.63 1441.59 1785.8 1438.05 Q1784 1434.48 1780.36 1434.48 M1780.36 1430.78 Q1786.17 1430.78 1789.23 1435.39 Q1792.31 1439.97 1792.31 1448.72 Q1792.31 1457.45 1789.23 1462.05 Q1786.17 1466.64 1780.36 1466.64 Q1774.55 1466.64 1771.48 1462.05 Q1768.42 1457.45 1768.42 1448.72 Q1768.42 1439.97 1771.48 1435.39 Q1774.55 1430.78 1780.36 1430.78 Z" fill="#000000" fill-rule="nonzero" fill-opacity="1" /><path clip-path="url(#clip340)" d="M993.165 1509.98 L999.022 1509.98 L999.022 1545.63 L993.165 1545.63 L993.165 1509.98 M993.165 1496.1 L999.022 1496.1 L999.022 1503.52 L993.165 1503.52 L993.165 1496.1 Z" fill="#000000" fill-rule="nonzero" fill-opacity="1" /><path clip-path="url(#clip340)" d="M1040.91 1524.11 L1040.91 1545.63 L1035.05 1545.63 L1035.05 1524.3 Q1035.05 1519.24 1033.08 1516.73 Q1031.1 1514.21 1027.16 1514.21 Q1022.42 1514.21 1019.68 1517.24 Q1016.94 1520.26 1016.94 1525.48 L1016.94 1545.63 L1011.05 1545.63 L1011.05 1509.98 L1016.94 1509.98 L1016.94 1515.52 Q1019.04 1512.3 1021.87 1510.71 Q1024.74 1509.12 1028.46 1509.12 Q1034.61 1509.12 1037.76 1512.94 Q1040.91 1516.73 1040.91 1524.11 Z" fill="#000000" fill-rule="nonzero" fill-opacity="1" /><path clip-path="url(#clip340)" d="M1078.24 1511.35 L1078.24 1516.82 Q1075.76 1515.45 1073.25 1514.79 Q1070.76 1514.09 1068.22 1514.09 Q1062.52 1514.09 1059.37 1517.71 Q1056.22 1521.31 1056.22 1527.84 Q1056.22 1534.36 1059.37 1537.99 Q1062.52 1541.59 1068.22 1541.59 Q1070.76 1541.59 1073.25 1540.92 Q1075.76 1540.22 1078.24 1538.85 L1078.24 1544.26 Q1075.79 1545.41 1073.15 1545.98 Q1070.54 1546.55 1067.58 1546.55 Q1059.53 1546.55 1054.79 1541.49 Q1050.04 1536.43 1050.04 1527.84 Q1050.04 1519.11 1054.82 1514.12 Q1059.62 1509.12 1067.96 1509.12 Q1070.67 1509.12 1073.25 1509.69 Q1075.82 1510.23 1078.24 1511.35 Z" fill="#000000" fill-rule="nonzero" fill-opacity="1" /><path clip-path="url(#clip340)" d="M1102.24 1514.09 Q1097.53 1514.09 1094.79 1517.78 Q1092.06 1521.44 1092.06 1527.84 Q1092.06 1534.23 1094.76 1537.93 Q1097.5 1541.59 1102.24 1541.59 Q1106.92 1541.59 1109.66 1537.89 Q1112.39 1534.2 1112.39 1527.84 Q1112.39 1521.5 1109.66 1517.81 Q1106.92 1514.09 1102.24 1514.09 M1102.24 1509.12 Q1109.88 1509.12 1114.24 1514.09 Q1118.6 1519.05 1118.6 1527.84 Q1118.6 1536.59 1114.24 1541.59 Q1109.88 1546.55 1102.24 1546.55 Q1094.57 1546.55 1090.21 1541.59 Q1085.88 1536.59 1085.88 1527.84 Q1085.88 1519.05 1090.21 1514.09 Q1094.57 1509.12 1102.24 1509.12 Z" fill="#000000" fill-rule="nonzero" fill-opacity="1" /><path clip-path="url(#clip340)" d="M1156.06 1516.82 Q1158.26 1512.88 1161.32 1511 Q1164.37 1509.12 1168.51 1509.12 Q1174.08 1509.12 1177.1 1513.04 Q1180.13 1516.92 1180.13 1524.11 L1180.13 1545.63 L1174.24 1545.63 L1174.24 1524.3 Q1174.24 1519.18 1172.42 1516.7 Q1170.61 1514.21 1166.89 1514.21 Q1162.33 1514.21 1159.69 1517.24 Q1157.05 1520.26 1157.05 1525.48 L1157.05 1545.63 L1151.16 1545.63 L1151.16 1524.3 Q1151.16 1519.15 1149.35 1516.7 Q1147.53 1514.21 1143.75 1514.21 Q1139.26 1514.21 1136.62 1517.27 Q1133.97 1520.29 1133.97 1525.48 L1133.97 1545.63 L1128.09 1545.63 L1128.09 1509.98 L1133.97 1509.98 L1133.97 1515.52 Q1135.98 1512.24 1138.78 1510.68 Q1141.58 1509.12 1145.43 1509.12 Q1149.32 1509.12 1152.02 1511.09 Q1154.76 1513.07 1156.06 1516.82 Z" fill="#000000" fill-rule="nonzero" fill-opacity="1" /><path clip-path="url(#clip340)" d="M1222.3 1526.34 L1222.3 1529.2 L1195.37 1529.2 Q1195.75 1535.25 1199 1538.43 Q1202.28 1541.59 1208.1 1541.59 Q1211.48 1541.59 1214.63 1540.76 Q1217.81 1539.93 1220.93 1538.28 L1220.93 1543.81 Q1217.78 1545.15 1214.47 1545.85 Q1211.16 1546.55 1207.75 1546.55 Q1199.22 1546.55 1194.23 1541.59 Q1189.26 1536.62 1189.26 1528.15 Q1189.26 1519.4 1193.97 1514.28 Q1198.71 1509.12 1206.73 1509.12 Q1213.93 1509.12 1218.1 1513.77 Q1222.3 1518.38 1222.3 1526.34 M1216.44 1524.62 Q1216.38 1519.81 1213.74 1516.95 Q1211.13 1514.09 1206.8 1514.09 Q1201.9 1514.09 1198.94 1516.85 Q1196.01 1519.62 1195.56 1524.65 L1216.44 1524.62 Z" fill="#000000" fill-rule="nonzero" fill-opacity="1" /><polyline clip-path="url(#clip342)" style="stroke:#000000; stroke-linecap:round; stroke-linejoin:round; stroke-width:2; stroke-opacity:0.1; fill:none" points="262.708,1378.39 1952.76,1378.39 "/>
<polyline clip-path="url(#clip342)" style="stroke:#000000; stroke-linecap:round; stroke-linejoin:round; stroke-width:2; stroke-opacity:0.1; fill:none" points="262.708,1136.03 1952.76,1136.03 "/>
<polyline clip-path="url(#clip342)" style="stroke:#000000; stroke-linecap:round; stroke-linejoin:round; stroke-width:2; stroke-opacity:0.1; fill:none" points="262.708,893.671 1952.76,893.671 "/>
<polyline clip-path="url(#clip342)" style="stroke:#000000; stroke-linecap:round; stroke-linejoin:round; stroke-width:2; stroke-opacity:0.1; fill:none" points="262.708,651.311 1952.76,651.311 "/>
<polyline clip-path="url(#clip342)" style="stroke:#000000; stroke-linecap:round; stroke-linejoin:round; stroke-width:2; stroke-opacity:0.1; fill:none" points="262.708,408.95 1952.76,408.95 "/>
<polyline clip-path="url(#clip342)" style="stroke:#000000; stroke-linecap:round; stroke-linejoin:round; stroke-width:2; stroke-opacity:0.1; fill:none" points="262.708,166.59 1952.76,166.59 "/>
<polyline clip-path="url(#clip340)" style="stroke:#000000; stroke-linecap:round; stroke-linejoin:round; stroke-width:4; stroke-opacity:1; fill:none" points="262.708,1406.76 262.708,47.2441 "/>
<polyline clip-path="url(#clip340)" style="stroke:#000000; stroke-linecap:round; stroke-linejoin:round; stroke-width:4; stroke-opacity:1; fill:none" points="262.708,1378.39 281.606,1378.39 "/>
<polyline clip-path="url(#clip340)" style="stroke:#000000; stroke-linecap:round; stroke-linejoin:round; stroke-width:4; stroke-opacity:1; fill:none" points="262.708,1136.03 281.606,1136.03 "/>
<polyline clip-path="url(#clip340)" style="stroke:#000000; stroke-linecap:round; stroke-linejoin:round; stroke-width:4; stroke-opacity:1; fill:none" points="262.708,893.671 281.606,893.671 "/>
<polyline clip-path="url(#clip340)" style="stroke:#000000; stroke-linecap:round; stroke-linejoin:round; stroke-width:4; stroke-opacity:1; fill:none" points="262.708,651.311 281.606,651.311 "/>
<polyline clip-path="url(#clip340)" style="stroke:#000000; stroke-linecap:round; stroke-linejoin:round; stroke-width:4; stroke-opacity:1; fill:none" points="262.708,408.95 281.606,408.95 "/>
<polyline clip-path="url(#clip340)" style="stroke:#000000; stroke-linecap:round; stroke-linejoin:round; stroke-width:4; stroke-opacity:1; fill:none" points="262.708,166.59 281.606,166.59 "/>
<path clip-path="url(#clip340)" d="M126.76 1378.84 L156.435 1378.84 L156.435 1382.78 L126.76 1382.78 L126.76 1378.84 Z" fill="#000000" fill-rule="nonzero" fill-opacity="1" /><path clip-path="url(#clip340)" d="M167.338 1391.74 L174.977 1391.74 L174.977 1365.37 L166.667 1367.04 L166.667 1362.78 L174.931 1361.11 L179.606 1361.11 L179.606 1391.74 L187.245 1391.74 L187.245 1395.67 L167.338 1395.67 L167.338 1391.74 Z" fill="#000000" fill-rule="nonzero" fill-opacity="1" /><path clip-path="url(#clip340)" d="M196.69 1389.79 L201.574 1389.79 L201.574 1395.67 L196.69 1395.67 L196.69 1389.79 Z" fill="#000000" fill-rule="nonzero" fill-opacity="1" /><path clip-path="url(#clip340)" d="M211.805 1361.11 L230.162 1361.11 L230.162 1365.05 L216.088 1365.05 L216.088 1373.52 Q217.106 1373.17 218.125 1373.01 Q219.143 1372.83 220.162 1372.83 Q225.949 1372.83 229.328 1376 Q232.708 1379.17 232.708 1384.58 Q232.708 1390.16 229.236 1393.26 Q225.764 1396.34 219.444 1396.34 Q217.268 1396.34 215 1395.97 Q212.754 1395.6 210.347 1394.86 L210.347 1390.16 Q212.43 1391.3 214.653 1391.85 Q216.875 1392.41 219.352 1392.41 Q223.356 1392.41 225.694 1390.3 Q228.032 1388.2 228.032 1384.58 Q228.032 1380.97 225.694 1378.87 Q223.356 1376.76 219.352 1376.76 Q217.477 1376.76 215.602 1377.18 Q213.75 1377.59 211.805 1378.47 L211.805 1361.11 Z" fill="#000000" fill-rule="nonzero" fill-opacity="1" /><path clip-path="url(#clip340)" d="M125.764 1136.48 L155.44 1136.48 L155.44 1140.42 L125.764 1140.42 L125.764 1136.48 Z" fill="#000000" fill-rule="nonzero" fill-opacity="1" /><path clip-path="url(#clip340)" d="M166.343 1149.38 L173.981 1149.38 L173.981 1123.01 L165.671 1124.68 L165.671 1120.42 L173.935 1118.75 L178.611 1118.75 L178.611 1149.38 L186.25 1149.38 L186.25 1153.31 L166.343 1153.31 L166.343 1149.38 Z" fill="#000000" fill-rule="nonzero" fill-opacity="1" /><path clip-path="url(#clip340)" d="M195.694 1147.43 L200.579 1147.43 L200.579 1153.31 L195.694 1153.31 L195.694 1147.43 Z" fill="#000000" fill-rule="nonzero" fill-opacity="1" /><path clip-path="url(#clip340)" d="M220.764 1121.83 Q217.153 1121.83 215.324 1125.4 Q213.518 1128.94 213.518 1136.07 Q213.518 1143.17 215.324 1146.74 Q217.153 1150.28 220.764 1150.28 Q224.398 1150.28 226.203 1146.74 Q228.032 1143.17 228.032 1136.07 Q228.032 1128.94 226.203 1125.4 Q224.398 1121.83 220.764 1121.83 M220.764 1118.13 Q226.574 1118.13 229.629 1122.73 Q232.708 1127.32 232.708 1136.07 Q232.708 1144.79 229.629 1149.4 Q226.574 1153.98 220.764 1153.98 Q214.953 1153.98 211.875 1149.4 Q208.819 1144.79 208.819 1136.07 Q208.819 1127.32 211.875 1122.73 Q214.953 1118.13 220.764 1118.13 Z" fill="#000000" fill-rule="nonzero" fill-opacity="1" /><path clip-path="url(#clip340)" d="M126.76 894.123 L156.435 894.123 L156.435 898.058 L126.76 898.058 L126.76 894.123 Z" fill="#000000" fill-rule="nonzero" fill-opacity="1" /><path clip-path="url(#clip340)" d="M176.528 879.47 Q172.917 879.47 171.088 883.035 Q169.282 886.576 169.282 893.706 Q169.282 900.812 171.088 904.377 Q172.917 907.919 176.528 907.919 Q180.162 907.919 181.968 904.377 Q183.796 900.812 183.796 893.706 Q183.796 886.576 181.968 883.035 Q180.162 879.47 176.528 879.47 M176.528 875.766 Q182.338 875.766 185.393 880.373 Q188.472 884.956 188.472 893.706 Q188.472 902.433 185.393 907.039 Q182.338 911.623 176.528 911.623 Q170.718 911.623 167.639 907.039 Q164.583 902.433 164.583 893.706 Q164.583 884.956 167.639 880.373 Q170.718 875.766 176.528 875.766 Z" fill="#000000" fill-rule="nonzero" fill-opacity="1" /><path clip-path="url(#clip340)" d="M196.69 905.072 L201.574 905.072 L201.574 910.951 L196.69 910.951 L196.69 905.072 Z" fill="#000000" fill-rule="nonzero" fill-opacity="1" /><path clip-path="url(#clip340)" d="M211.805 876.391 L230.162 876.391 L230.162 880.326 L216.088 880.326 L216.088 888.799 Q217.106 888.451 218.125 888.289 Q219.143 888.104 220.162 888.104 Q225.949 888.104 229.328 891.275 Q232.708 894.447 232.708 899.863 Q232.708 905.442 229.236 908.544 Q225.764 911.623 219.444 911.623 Q217.268 911.623 215 911.252 Q212.754 910.882 210.347 910.141 L210.347 905.442 Q212.43 906.576 214.653 907.132 Q216.875 907.687 219.352 907.687 Q223.356 907.687 225.694 905.581 Q228.032 903.474 228.032 899.863 Q228.032 896.252 225.694 894.146 Q223.356 892.039 219.352 892.039 Q217.477 892.039 215.602 892.456 Q213.75 892.873 211.805 893.752 L211.805 876.391 Z" fill="#000000" fill-rule="nonzero" fill-opacity="1" /><path clip-path="url(#clip340)" d="M175.532 637.11 Q171.921 637.11 170.093 640.674 Q168.287 644.216 168.287 651.346 Q168.287 658.452 170.093 662.017 Q171.921 665.558 175.532 665.558 Q179.167 665.558 180.972 662.017 Q182.801 658.452 182.801 651.346 Q182.801 644.216 180.972 640.674 Q179.167 637.11 175.532 637.11 M175.532 633.406 Q181.343 633.406 184.398 638.012 Q187.477 642.596 187.477 651.346 Q187.477 660.072 184.398 664.679 Q181.343 669.262 175.532 669.262 Q169.722 669.262 166.644 664.679 Q163.588 660.072 163.588 651.346 Q163.588 642.596 166.644 638.012 Q169.722 633.406 175.532 633.406 Z" fill="#000000" fill-rule="nonzero" fill-opacity="1" /><path clip-path="url(#clip340)" d="M195.694 662.711 L200.579 662.711 L200.579 668.591 L195.694 668.591 L195.694 662.711 Z" fill="#000000" fill-rule="nonzero" fill-opacity="1" /><path clip-path="url(#clip340)" d="M220.764 637.11 Q217.153 637.11 215.324 640.674 Q213.518 644.216 213.518 651.346 Q213.518 658.452 215.324 662.017 Q217.153 665.558 220.764 665.558 Q224.398 665.558 226.203 662.017 Q228.032 658.452 228.032 651.346 Q228.032 644.216 226.203 640.674 Q224.398 637.11 220.764 637.11 M220.764 633.406 Q226.574 633.406 229.629 638.012 Q232.708 642.596 232.708 651.346 Q232.708 660.072 229.629 664.679 Q226.574 669.262 220.764 669.262 Q214.953 669.262 211.875 664.679 Q208.819 660.072 208.819 651.346 Q208.819 642.596 211.875 638.012 Q214.953 633.406 220.764 633.406 Z" fill="#000000" fill-rule="nonzero" fill-opacity="1" /><path clip-path="url(#clip340)" d="M176.528 394.749 Q172.917 394.749 171.088 398.314 Q169.282 401.855 169.282 408.985 Q169.282 416.092 171.088 419.656 Q172.917 423.198 176.528 423.198 Q180.162 423.198 181.968 419.656 Q183.796 416.092 183.796 408.985 Q183.796 401.855 181.968 398.314 Q180.162 394.749 176.528 394.749 M176.528 391.045 Q182.338 391.045 185.393 395.652 Q188.472 400.235 188.472 408.985 Q188.472 417.712 185.393 422.318 Q182.338 426.902 176.528 426.902 Q170.718 426.902 167.639 422.318 Q164.583 417.712 164.583 408.985 Q164.583 400.235 167.639 395.652 Q170.718 391.045 176.528 391.045 Z" fill="#000000" fill-rule="nonzero" fill-opacity="1" /><path clip-path="url(#clip340)" d="M196.69 420.351 L201.574 420.351 L201.574 426.23 L196.69 426.23 L196.69 420.351 Z" fill="#000000" fill-rule="nonzero" fill-opacity="1" /><path clip-path="url(#clip340)" d="M211.805 391.67 L230.162 391.67 L230.162 395.606 L216.088 395.606 L216.088 404.078 Q217.106 403.73 218.125 403.568 Q219.143 403.383 220.162 403.383 Q225.949 403.383 229.328 406.555 Q232.708 409.726 232.708 415.142 Q232.708 420.721 229.236 423.823 Q225.764 426.902 219.444 426.902 Q217.268 426.902 215 426.531 Q212.754 426.161 210.347 425.42 L210.347 420.721 Q212.43 421.855 214.653 422.411 Q216.875 422.966 219.352 422.966 Q223.356 422.966 225.694 420.86 Q228.032 418.754 228.032 415.142 Q228.032 411.531 225.694 409.425 Q223.356 407.318 219.352 407.318 Q217.477 407.318 215.602 407.735 Q213.75 408.152 211.805 409.031 L211.805 391.67 Z" fill="#000000" fill-rule="nonzero" fill-opacity="1" /><path clip-path="url(#clip340)" d="M166.343 179.935 L173.981 179.935 L173.981 153.569 L165.671 155.236 L165.671 150.977 L173.935 149.31 L178.611 149.31 L178.611 179.935 L186.25 179.935 L186.25 183.87 L166.343 183.87 L166.343 179.935 Z" fill="#000000" fill-rule="nonzero" fill-opacity="1" /><path clip-path="url(#clip340)" d="M195.694 177.99 L200.579 177.99 L200.579 183.87 L195.694 183.87 L195.694 177.99 Z" fill="#000000" fill-rule="nonzero" fill-opacity="1" /><path clip-path="url(#clip340)" d="M220.764 152.389 Q217.153 152.389 215.324 155.953 Q213.518 159.495 213.518 166.625 Q213.518 173.731 215.324 177.296 Q217.153 180.837 220.764 180.837 Q224.398 180.837 226.203 177.296 Q228.032 173.731 228.032 166.625 Q228.032 159.495 226.203 155.953 Q224.398 152.389 220.764 152.389 M220.764 148.685 Q226.574 148.685 229.629 153.291 Q232.708 157.875 232.708 166.625 Q232.708 175.351 229.629 179.958 Q226.574 184.541 220.764 184.541 Q214.953 184.541 211.875 179.958 Q208.819 175.351 208.819 166.625 Q208.819 157.875 211.875 153.291 Q214.953 148.685 220.764 148.685 Z" fill="#000000" fill-rule="nonzero" fill-opacity="1" /><path clip-path="url(#clip340)" d="M63.5887 765.596 Q63.5887 772.694 65.2119 775.431 Q66.8352 778.168 70.7501 778.168 Q73.8693 778.168 75.7154 776.131 Q77.5296 774.062 77.5296 770.529 Q77.5296 765.66 74.0921 762.731 Q70.6228 759.771 64.8937 759.771 L63.5887 759.771 L63.5887 765.596 M61.1697 753.915 L81.5082 753.915 L81.5082 759.771 L76.0973 759.771 Q79.3438 761.777 80.9034 764.769 Q82.4312 767.76 82.4312 772.089 Q82.4312 777.564 79.3756 780.81 Q76.2883 784.025 71.1321 784.025 Q65.1165 784.025 62.0609 780.014 Q59.0054 775.972 59.0054 767.983 L59.0054 759.771 L58.4325 759.771 Q54.3902 759.771 52.1941 762.445 Q49.9661 765.087 49.9661 769.893 Q49.9661 772.948 50.6981 775.845 Q51.4302 778.741 52.8943 781.415 L47.4835 781.415 Q46.2421 778.2 45.6374 775.176 Q45.0008 772.153 45.0008 769.288 Q45.0008 761.554 49.0112 757.734 Q53.0216 753.915 61.1697 753.915 Z" fill="#000000" fill-rule="nonzero" fill-opacity="1" /><path clip-path="url(#clip340)" d="M63.2704 718.394 Q56.9047 718.394 53.4036 721.036 Q49.9024 723.646 49.9024 728.389 Q49.9024 733.099 53.4036 735.741 Q56.9047 738.351 63.2704 738.351 Q69.6043 738.351 73.1054 735.741 Q76.6066 733.099 76.6066 728.389 Q76.6066 723.646 73.1054 721.036 Q69.6043 718.394 63.2704 718.394 M77.084 712.538 Q86.187 712.538 90.6111 716.58 Q95.0671 720.622 95.0671 728.961 Q95.0671 732.049 94.5897 734.786 Q94.1441 737.523 93.1892 740.101 L87.4919 740.101 Q88.8924 737.523 89.5608 735.009 Q90.2292 732.494 90.2292 729.884 Q90.2292 724.123 87.2055 721.259 Q84.2136 718.394 78.1343 718.394 L75.2379 718.394 Q78.389 720.209 79.9486 723.041 Q81.5082 725.874 81.5082 729.821 Q81.5082 736.377 76.5111 740.388 Q71.514 744.398 63.2704 744.398 Q54.995 744.398 49.9979 740.388 Q45.0008 736.377 45.0008 729.821 Q45.0008 725.874 46.5604 723.041 Q48.12 720.209 51.2711 718.394 L45.8602 718.394 L45.8602 712.538 L77.084 712.538 Z" fill="#000000" fill-rule="nonzero" fill-opacity="1" /><path clip-path="url(#clip340)" d="M62.2201 669.983 L65.0846 669.983 L65.0846 696.91 Q71.1321 696.528 74.3149 693.282 Q77.4659 690.003 77.4659 684.179 Q77.4659 680.805 76.6384 677.654 Q75.8109 674.471 74.1558 671.352 L79.6939 671.352 Q81.0307 674.503 81.731 677.813 Q82.4312 681.123 82.4312 684.529 Q82.4312 693.059 77.4659 698.056 Q72.5007 703.021 64.0343 703.021 Q55.2814 703.021 50.1571 698.311 Q45.0008 693.568 45.0008 685.547 Q45.0008 678.354 49.6478 674.185 Q54.2629 669.983 62.2201 669.983 M60.5013 675.84 Q55.6952 675.903 52.8306 678.545 Q49.9661 681.155 49.9661 685.484 Q49.9661 690.385 52.7352 693.345 Q55.5042 696.274 60.5332 696.719 L60.5013 675.84 Z" fill="#000000" fill-rule="nonzero" fill-opacity="1" /><circle clip-path="url(#clip342)" cx="677.327" cy="1195" r="36" fill="#00a1ff" fill-rule="evenodd" fill-opacity="1" stroke="#000000" stroke-opacity="1" stroke-width="3.2"/>
<circle clip-path="url(#clip342)" cx="1116.77" cy="414.489" r="36" fill="#e69f00" fill-rule="evenodd" fill-opacity="1" stroke="#000000" stroke-opacity="1" stroke-width="3.2"/>
<polyline clip-path="url(#clip342)" style="stroke:#000000; stroke-linecap:round; stroke-linejoin:round; stroke-width:8; stroke-opacity:1; fill:none" points="677.327,1195 1116.77,414.489 "/>
<polyline clip-path="url(#clip342)" style="stroke:#000000; stroke-linecap:round; stroke-linejoin:round; stroke-width:8; stroke-opacity:1; fill:none" points="1088.99,433.271 1116.77,414.489 1115.13,447.99 "/>
<polyline clip-path="url(#clip342)" style="stroke:#000000; stroke-linecap:round; stroke-linejoin:round; stroke-width:8; stroke-opacity:1; fill:none" points="1116.77,414.489 677.327,1195 "/>
<circle clip-path="url(#clip342)" cx="1904.92" cy="501.863" r="36" fill="#00a1ff" fill-rule="evenodd" fill-opacity="1" stroke="#000000" stroke-opacity="1" stroke-width="3.2"/>
<circle clip-path="url(#clip342)" cx="1259.38" cy="419.634" r="36" fill="#e69f00" fill-rule="evenodd" fill-opacity="1" stroke="#000000" stroke-opacity="1" stroke-width="3.2"/>
<polyline clip-path="url(#clip342)" style="stroke:#000000; stroke-linecap:round; stroke-linejoin:round; stroke-width:8; stroke-opacity:1; fill:none" points="1904.92,501.863 1259.38,419.634 "/>
<polyline clip-path="url(#clip342)" style="stroke:#000000; stroke-linecap:round; stroke-linejoin:round; stroke-width:8; stroke-opacity:1; fill:none" points="1287.24,438.305 1259.38,419.634 1291.03,408.545 "/>
<polyline clip-path="url(#clip342)" style="stroke:#000000; stroke-linecap:round; stroke-linejoin:round; stroke-width:8; stroke-opacity:1; fill:none" points="1259.38,419.634 1904.92,501.863 "/>
<circle clip-path="url(#clip342)" cx="310.54" cy="813.776" r="36" fill="#00a1ff" fill-rule="evenodd" fill-opacity="1" stroke="#000000" stroke-opacity="1" stroke-width="3.2"/>
<circle clip-path="url(#clip342)" cx="1147.88" cy="379.852" r="36" fill="#e69f00" fill-rule="evenodd" fill-opacity="1" stroke="#000000" stroke-opacity="1" stroke-width="3.2"/>
<polyline clip-path="url(#clip342)" style="stroke:#000000; stroke-linecap:round; stroke-linejoin:round; stroke-width:8; stroke-opacity:1; fill:none" points="310.54,813.776 1147.88,379.852 "/>
<polyline clip-path="url(#clip342)" style="stroke:#000000; stroke-linecap:round; stroke-linejoin:round; stroke-width:8; stroke-opacity:1; fill:none" points="1114.34,380.337 1147.88,379.852 1128.15,406.973 "/>
<polyline clip-path="url(#clip342)" style="stroke:#000000; stroke-linecap:round; stroke-linejoin:round; stroke-width:8; stroke-opacity:1; fill:none" points="1147.88,379.852 310.54,813.776 "/>
<circle clip-path="url(#clip342)" cx="754.746" cy="1368.29" r="36" fill="#00a1ff" fill-rule="evenodd" fill-opacity="1" stroke="#000000" stroke-opacity="1" stroke-width="3.2"/>
<circle clip-path="url(#clip342)" cx="1064.7" cy="332.128" r="36" fill="#e69f00" fill-rule="evenodd" fill-opacity="1" stroke="#000000" stroke-opacity="1" stroke-width="3.2"/>
<polyline clip-path="url(#clip342)" style="stroke:#000000; stroke-linecap:round; stroke-linejoin:round; stroke-width:8; stroke-opacity:1; fill:none" points="754.746,1368.29 1064.7,332.128 "/>
<polyline clip-path="url(#clip342)" style="stroke:#000000; stroke-linecap:round; stroke-linejoin:round; stroke-width:8; stroke-opacity:1; fill:none" points="1041.73,356.57 1064.7,332.128 1070.47,365.168 "/>
<polyline clip-path="url(#clip342)" style="stroke:#000000; stroke-linecap:round; stroke-linejoin:round; stroke-width:8; stroke-opacity:1; fill:none" points="1064.7,332.128 754.746,1368.29 "/>
<circle clip-path="url(#clip342)" cx="485.049" cy="1229.66" r="36" fill="#00a1ff" fill-rule="evenodd" fill-opacity="1" stroke="#000000" stroke-opacity="1" stroke-width="3.2"/>
<circle clip-path="url(#clip342)" cx="1168.65" cy="381.149" r="36" fill="#e69f00" fill-rule="evenodd" fill-opacity="1" stroke="#000000" stroke-opacity="1" stroke-width="3.2"/>
<polyline clip-path="url(#clip342)" style="stroke:#000000; stroke-linecap:round; stroke-linejoin:round; stroke-width:8; stroke-opacity:1; fill:none" points="485.049,1229.66 1168.65,381.149 "/>
<polyline clip-path="url(#clip342)" style="stroke:#000000; stroke-linecap:round; stroke-linejoin:round; stroke-width:8; stroke-opacity:1; fill:none" points="1138.15,395.1 1168.65,381.149 1161.51,413.921 "/>
<polyline clip-path="url(#clip342)" style="stroke:#000000; stroke-linecap:round; stroke-linejoin:round; stroke-width:8; stroke-opacity:1; fill:none" points="1168.65,381.149 485.049,1229.66 "/>
<circle clip-path="url(#clip342)" cx="831.055" cy="883.09" r="36" fill="#00a1ff" fill-rule="evenodd" fill-opacity="1" stroke="#000000" stroke-opacity="1" stroke-width="3.2"/>
<circle clip-path="url(#clip342)" cx="1260.77" cy="391.771" r="36" fill="#e69f00" fill-rule="evenodd" fill-opacity="1" stroke="#000000" stroke-opacity="1" stroke-width="3.2"/>
<polyline clip-path="url(#clip342)" style="stroke:#000000; stroke-linecap:round; stroke-linejoin:round; stroke-width:8; stroke-opacity:1; fill:none" points="831.055,883.09 1260.77,391.771 "/>
<polyline clip-path="url(#clip342)" style="stroke:#000000; stroke-linecap:round; stroke-linejoin:round; stroke-width:8; stroke-opacity:1; fill:none" points="1229.73,404.478 1260.77,391.771 1252.31,424.228 "/>
<polyline clip-path="url(#clip342)" style="stroke:#000000; stroke-linecap:round; stroke-linejoin:round; stroke-width:8; stroke-opacity:1; fill:none" points="1260.77,391.771 831.055,883.09 "/>
<circle clip-path="url(#clip342)" cx="596.101" cy="85.9801" r="36" fill="#00a1ff" fill-rule="evenodd" fill-opacity="1" stroke="#000000" stroke-opacity="1" stroke-width="3.2"/>
<circle clip-path="url(#clip342)" cx="1082.49" cy="85.7211" r="36" fill="#e69f00" fill-rule="evenodd" fill-opacity="1" stroke="#000000" stroke-opacity="1" stroke-width="3.2"/>
<polyline clip-path="url(#clip342)" style="stroke:#000000; stroke-linecap:round; stroke-linejoin:round; stroke-width:8; stroke-opacity:1; fill:none" points="596.101,85.9801 1082.49,85.7211 "/>
<polyline clip-path="url(#clip342)" style="stroke:#000000; stroke-linecap:round; stroke-linejoin:round; stroke-width:8; stroke-opacity:1; fill:none" points="1052.48,70.737 1082.49,85.7211 1052.5,100.737 "/>
<polyline clip-path="url(#clip342)" style="stroke:#000000; stroke-linecap:round; stroke-linejoin:round; stroke-width:8; stroke-opacity:1; fill:none" points="1082.49,85.7211 596.101,85.9801 "/>
<circle clip-path="url(#clip342)" cx="786.475" cy="224.608" r="36" fill="#00a1ff" fill-rule="evenodd" fill-opacity="1" stroke="#000000" stroke-opacity="1" stroke-width="3.2"/>
<circle clip-path="url(#clip342)" cx="1137.1" cy="224.608" r="36" fill="#e69f00" fill-rule="evenodd" fill-opacity="1" stroke="#000000" stroke-opacity="1" stroke-width="3.2"/>
<polyline clip-path="url(#clip342)" style="stroke:#000000; stroke-linecap:round; stroke-linejoin:round; stroke-width:8; stroke-opacity:1; fill:none" points="786.475,224.608 1137.1,224.608 "/>
<polyline clip-path="url(#clip342)" style="stroke:#000000; stroke-linecap:round; stroke-linejoin:round; stroke-width:8; stroke-opacity:1; fill:none" points="1107.1,209.608 1137.1,224.608 1107.1,239.608 "/>
<polyline clip-path="url(#clip342)" style="stroke:#000000; stroke-linecap:round; stroke-linejoin:round; stroke-width:8; stroke-opacity:1; fill:none" points="1137.1,224.608 786.475,224.608 "/>
<circle clip-path="url(#clip342)" cx="380.661" cy="155.294" r="36" fill="#00a1ff" fill-rule="evenodd" fill-opacity="1" stroke="#000000" stroke-opacity="1" stroke-width="3.2"/>
<circle clip-path="url(#clip342)" cx="1404.97" cy="155.294" r="36" fill="#e69f00" fill-rule="evenodd" fill-opacity="1" stroke="#000000" stroke-opacity="1" stroke-width="3.2"/>
<polyline clip-path="url(#clip342)" style="stroke:#000000; stroke-linecap:round; stroke-linejoin:round; stroke-width:8; stroke-opacity:1; fill:none" points="380.661,155.294 1404.97,155.294 "/>
<polyline clip-path="url(#clip342)" style="stroke:#000000; stroke-linecap:round; stroke-linejoin:round; stroke-width:8; stroke-opacity:1; fill:none" points="1374.97,140.294 1404.97,155.294 1374.97,170.294 "/>
<polyline clip-path="url(#clip342)" style="stroke:#000000; stroke-linecap:round; stroke-linejoin:round; stroke-width:8; stroke-opacity:1; fill:none" points="1404.97,155.294 380.661,155.294 "/>
<circle clip-path="url(#clip342)" cx="881.662" cy="1056.37" r="36" fill="#00a1ff" fill-rule="evenodd" fill-opacity="1" stroke="#000000" stroke-opacity="1" stroke-width="3.2"/>
<circle clip-path="url(#clip342)" cx="1161.54" cy="342.658" r="36" fill="#e69f00" fill-rule="evenodd" fill-opacity="1" stroke="#000000" stroke-opacity="1" stroke-width="3.2"/>
<polyline clip-path="url(#clip342)" style="stroke:#000000; stroke-linecap:round; stroke-linejoin:round; stroke-width:8; stroke-opacity:1; fill:none" points="881.662,1056.37 1161.54,342.658 "/>
<polyline clip-path="url(#clip342)" style="stroke:#000000; stroke-linecap:round; stroke-linejoin:round; stroke-width:8; stroke-opacity:1; fill:none" points="1136.62,365.111 1161.54,342.658 1164.55,376.064 "/>
<polyline clip-path="url(#clip342)" style="stroke:#000000; stroke-linecap:round; stroke-linejoin:round; stroke-width:8; stroke-opacity:1; fill:none" points="1161.54,342.658 881.662,1056.37 "/>
<path clip-path="url(#clip340)" d="M1399.5 1361.45 L1896.42 1361.45 L1896.42 1205.93 L1399.5 1205.93  Z" fill="#ffffff" fill-rule="evenodd" fill-opacity="1"/>
<polyline clip-path="url(#clip340)" style="stroke:#000000; stroke-linecap:round; stroke-linejoin:round; stroke-width:4; stroke-opacity:1; fill:none" points="1399.5,1361.45 1896.42,1361.45 1896.42,1205.93 1399.5,1205.93 1399.5,1361.45 "/>
<circle clip-path="url(#clip340)" cx="1474.61" cy="1257.77" r="21.9429" fill="#00a1ff" fill-rule="evenodd" fill-opacity="1" stroke="#000000" stroke-opacity="1" stroke-width="1.95048"/>
<path clip-path="url(#clip340)" d="M1549.73 1240.49 L1554.4 1240.49 L1554.4 1271.11 L1571.23 1271.11 L1571.23 1275.05 L1549.73 1275.05 L1549.73 1240.49 Z" fill="#000000" fill-rule="nonzero" fill-opacity="1" /><path clip-path="url(#clip340)" d="M1585.17 1252.11 Q1581.74 1252.11 1579.75 1254.79 Q1577.76 1257.45 1577.76 1262.11 Q1577.76 1266.76 1579.73 1269.44 Q1581.72 1272.11 1585.17 1272.11 Q1588.57 1272.11 1590.56 1269.42 Q1592.55 1266.74 1592.55 1262.11 Q1592.55 1257.5 1590.56 1254.82 Q1588.57 1252.11 1585.17 1252.11 M1585.17 1248.5 Q1590.72 1248.5 1593.89 1252.11 Q1597.07 1255.72 1597.07 1262.11 Q1597.07 1268.47 1593.89 1272.11 Q1590.72 1275.72 1585.17 1275.72 Q1579.59 1275.72 1576.42 1272.11 Q1573.27 1268.47 1573.27 1262.11 Q1573.27 1255.72 1576.42 1252.11 Q1579.59 1248.5 1585.17 1248.5 Z" fill="#000000" fill-rule="nonzero" fill-opacity="1" /><path clip-path="url(#clip340)" d="M1615.91 1262.01 Q1610.75 1262.01 1608.76 1263.19 Q1606.76 1264.38 1606.76 1267.22 Q1606.76 1269.49 1608.25 1270.83 Q1609.75 1272.15 1612.32 1272.15 Q1615.86 1272.15 1617.99 1269.65 Q1620.14 1267.13 1620.14 1262.96 L1620.14 1262.01 L1615.91 1262.01 M1624.4 1260.25 L1624.4 1275.05 L1620.14 1275.05 L1620.14 1271.11 Q1618.69 1273.47 1616.51 1274.61 Q1614.33 1275.72 1611.19 1275.72 Q1607.2 1275.72 1604.84 1273.5 Q1602.51 1271.25 1602.51 1267.5 Q1602.51 1263.13 1605.42 1260.9 Q1608.36 1258.68 1614.17 1258.68 L1620.14 1258.68 L1620.14 1258.26 Q1620.14 1255.32 1618.2 1253.73 Q1616.28 1252.11 1612.78 1252.11 Q1610.56 1252.11 1608.45 1252.64 Q1606.35 1253.17 1604.4 1254.24 L1604.4 1250.3 Q1606.74 1249.4 1608.94 1248.96 Q1611.14 1248.5 1613.22 1248.5 Q1618.85 1248.5 1621.63 1251.41 Q1624.4 1254.33 1624.4 1260.25 Z" fill="#000000" fill-rule="nonzero" fill-opacity="1" /><path clip-path="url(#clip340)" d="M1654.73 1259.4 L1654.73 1275.05 L1650.47 1275.05 L1650.47 1259.54 Q1650.47 1255.86 1649.03 1254.03 Q1647.6 1252.2 1644.73 1252.2 Q1641.28 1252.2 1639.29 1254.4 Q1637.3 1256.6 1637.3 1260.39 L1637.3 1275.05 L1633.01 1275.05 L1633.01 1249.12 L1637.3 1249.12 L1637.3 1253.15 Q1638.82 1250.81 1640.88 1249.65 Q1642.97 1248.5 1645.68 1248.5 Q1650.14 1248.5 1652.44 1251.27 Q1654.73 1254.03 1654.73 1259.4 Z" fill="#000000" fill-rule="nonzero" fill-opacity="1" /><path clip-path="url(#clip340)" d="M1695.35 1253.06 L1695.35 1239.03 L1699.61 1239.03 L1699.61 1275.05 L1695.35 1275.05 L1695.35 1271.16 Q1694.01 1273.47 1691.95 1274.61 Q1689.91 1275.72 1687.04 1275.72 Q1682.34 1275.72 1679.38 1271.97 Q1676.44 1268.22 1676.44 1262.11 Q1676.44 1256 1679.38 1252.25 Q1682.34 1248.5 1687.04 1248.5 Q1689.91 1248.5 1691.95 1249.63 Q1694.01 1250.74 1695.35 1253.06 M1680.84 1262.11 Q1680.84 1266.81 1682.76 1269.49 Q1684.7 1272.15 1688.08 1272.15 Q1691.46 1272.15 1693.41 1269.49 Q1695.35 1266.81 1695.35 1262.11 Q1695.35 1257.41 1693.41 1254.75 Q1691.46 1252.06 1688.08 1252.06 Q1684.7 1252.06 1682.76 1254.75 Q1680.84 1257.41 1680.84 1262.11 Z" fill="#000000" fill-rule="nonzero" fill-opacity="1" /><path clip-path="url(#clip340)" d="M1730.56 1261.02 L1730.56 1263.1 L1710.98 1263.1 Q1711.25 1267.5 1713.62 1269.82 Q1716 1272.11 1720.24 1272.11 Q1722.69 1272.11 1724.98 1271.5 Q1727.3 1270.9 1729.56 1269.7 L1729.56 1273.73 Q1727.27 1274.7 1724.87 1275.21 Q1722.46 1275.72 1719.98 1275.72 Q1713.78 1275.72 1710.14 1272.11 Q1706.53 1268.5 1706.53 1262.34 Q1706.53 1255.97 1709.96 1252.25 Q1713.41 1248.5 1719.24 1248.5 Q1724.47 1248.5 1727.5 1251.88 Q1730.56 1255.23 1730.56 1261.02 M1726.3 1259.77 Q1726.25 1256.27 1724.33 1254.19 Q1722.44 1252.11 1719.29 1252.11 Q1715.72 1252.11 1713.57 1254.12 Q1711.44 1256.13 1711.12 1259.79 L1726.3 1259.77 Z" fill="#000000" fill-rule="nonzero" fill-opacity="1" /><path clip-path="url(#clip340)" d="M1759.1 1259.4 L1759.1 1275.05 L1754.84 1275.05 L1754.84 1259.54 Q1754.84 1255.86 1753.41 1254.03 Q1751.97 1252.2 1749.1 1252.2 Q1745.65 1252.2 1743.66 1254.4 Q1741.67 1256.6 1741.67 1260.39 L1741.67 1275.05 L1737.39 1275.05 L1737.39 1249.12 L1741.67 1249.12 L1741.67 1253.15 Q1743.2 1250.81 1745.26 1249.65 Q1747.34 1248.5 1750.05 1248.5 Q1754.52 1248.5 1756.81 1251.27 Q1759.1 1254.03 1759.1 1259.4 Z" fill="#000000" fill-rule="nonzero" fill-opacity="1" /><path clip-path="url(#clip340)" d="M1767.6 1249.12 L1771.86 1249.12 L1771.86 1275.05 L1767.6 1275.05 L1767.6 1249.12 M1767.6 1239.03 L1771.86 1239.03 L1771.86 1244.42 L1767.6 1244.42 L1767.6 1239.03 Z" fill="#000000" fill-rule="nonzero" fill-opacity="1" /><path clip-path="url(#clip340)" d="M1802.94 1261.02 L1802.94 1263.1 L1783.36 1263.1 Q1783.64 1267.5 1786 1269.82 Q1788.38 1272.11 1792.62 1272.11 Q1795.07 1272.11 1797.37 1271.5 Q1799.68 1270.9 1801.95 1269.7 L1801.95 1273.73 Q1799.66 1274.7 1797.25 1275.21 Q1794.84 1275.72 1792.37 1275.72 Q1786.16 1275.72 1782.53 1272.11 Q1778.92 1268.5 1778.92 1262.34 Q1778.92 1255.97 1782.34 1252.25 Q1785.79 1248.5 1791.62 1248.5 Q1796.86 1248.5 1799.89 1251.88 Q1802.94 1255.23 1802.94 1261.02 M1798.68 1259.77 Q1798.64 1256.27 1796.72 1254.19 Q1794.82 1252.11 1791.67 1252.11 Q1788.11 1252.11 1785.95 1254.12 Q1783.82 1256.13 1783.5 1259.79 L1798.68 1259.77 Z" fill="#000000" fill-rule="nonzero" fill-opacity="1" /><path clip-path="url(#clip340)" d="M1826.99 1253.06 L1826.99 1239.03 L1831.25 1239.03 L1831.25 1275.05 L1826.99 1275.05 L1826.99 1271.16 Q1825.65 1273.47 1823.59 1274.61 Q1821.56 1275.72 1818.68 1275.72 Q1813.99 1275.72 1811.02 1271.97 Q1808.08 1268.22 1808.08 1262.11 Q1808.08 1256 1811.02 1252.25 Q1813.99 1248.5 1818.68 1248.5 Q1821.56 1248.5 1823.59 1249.63 Q1825.65 1250.74 1826.99 1253.06 M1812.48 1262.11 Q1812.48 1266.81 1814.4 1269.49 Q1816.35 1272.15 1819.73 1272.15 Q1823.11 1272.15 1825.05 1269.49 Q1826.99 1266.81 1826.99 1262.11 Q1826.99 1257.41 1825.05 1254.75 Q1823.11 1252.06 1819.73 1252.06 Q1816.35 1252.06 1814.4 1254.75 Q1812.48 1257.41 1812.48 1262.11 Z" fill="#000000" fill-rule="nonzero" fill-opacity="1" /><circle clip-path="url(#clip340)" cx="1474.61" cy="1309.61" r="21.9429" fill="#e69f00" fill-rule="evenodd" fill-opacity="1" stroke="#000000" stroke-opacity="1" stroke-width="1.95048"/>
<path clip-path="url(#clip340)" d="M1549.73 1292.33 L1554.4 1292.33 L1554.4 1322.95 L1571.23 1322.95 L1571.23 1326.89 L1549.73 1326.89 L1549.73 1292.33 Z" fill="#000000" fill-rule="nonzero" fill-opacity="1" /><path clip-path="url(#clip340)" d="M1585.17 1303.95 Q1581.74 1303.95 1579.75 1306.63 Q1577.76 1309.29 1577.76 1313.95 Q1577.76 1318.6 1579.73 1321.28 Q1581.72 1323.95 1585.17 1323.95 Q1588.57 1323.95 1590.56 1321.26 Q1592.55 1318.58 1592.55 1313.95 Q1592.55 1309.34 1590.56 1306.66 Q1588.57 1303.95 1585.17 1303.95 M1585.17 1300.34 Q1590.72 1300.34 1593.89 1303.95 Q1597.07 1307.56 1597.07 1313.95 Q1597.07 1320.31 1593.89 1323.95 Q1590.72 1327.56 1585.17 1327.56 Q1579.59 1327.56 1576.42 1323.95 Q1573.27 1320.31 1573.27 1313.95 Q1573.27 1307.56 1576.42 1303.95 Q1579.59 1300.34 1585.17 1300.34 Z" fill="#000000" fill-rule="nonzero" fill-opacity="1" /><path clip-path="url(#clip340)" d="M1615.91 1313.85 Q1610.75 1313.85 1608.76 1315.03 Q1606.76 1316.22 1606.76 1319.06 Q1606.76 1321.33 1608.25 1322.67 Q1609.75 1323.99 1612.32 1323.99 Q1615.86 1323.99 1617.99 1321.49 Q1620.14 1318.97 1620.14 1314.8 L1620.14 1313.85 L1615.91 1313.85 M1624.4 1312.09 L1624.4 1326.89 L1620.14 1326.89 L1620.14 1322.95 Q1618.69 1325.31 1616.51 1326.45 Q1614.33 1327.56 1611.19 1327.56 Q1607.2 1327.56 1604.84 1325.34 Q1602.51 1323.09 1602.51 1319.34 Q1602.51 1314.97 1605.42 1312.74 Q1608.36 1310.52 1614.17 1310.52 L1620.14 1310.52 L1620.14 1310.1 Q1620.14 1307.16 1618.2 1305.57 Q1616.28 1303.95 1612.78 1303.95 Q1610.56 1303.95 1608.45 1304.48 Q1606.35 1305.01 1604.4 1306.08 L1604.4 1302.14 Q1606.74 1301.24 1608.94 1300.8 Q1611.14 1300.34 1613.22 1300.34 Q1618.85 1300.34 1621.63 1303.25 Q1624.4 1306.17 1624.4 1312.09 Z" fill="#000000" fill-rule="nonzero" fill-opacity="1" /><path clip-path="url(#clip340)" d="M1654.73 1311.24 L1654.73 1326.89 L1650.47 1326.89 L1650.47 1311.38 Q1650.47 1307.7 1649.03 1305.87 Q1647.6 1304.04 1644.73 1304.04 Q1641.28 1304.04 1639.29 1306.24 Q1637.3 1308.44 1637.3 1312.23 L1637.3 1326.89 L1633.01 1326.89 L1633.01 1300.96 L1637.3 1300.96 L1637.3 1304.99 Q1638.82 1302.65 1640.88 1301.49 Q1642.97 1300.34 1645.68 1300.34 Q1650.14 1300.34 1652.44 1303.11 Q1654.73 1305.87 1654.73 1311.24 Z" fill="#000000" fill-rule="nonzero" fill-opacity="1" /><path clip-path="url(#clip340)" d="M1682.41 1323 L1682.41 1336.75 L1678.13 1336.75 L1678.13 1300.96 L1682.41 1300.96 L1682.41 1304.9 Q1683.75 1302.58 1685.79 1301.47 Q1687.85 1300.34 1690.7 1300.34 Q1695.42 1300.34 1698.36 1304.09 Q1701.32 1307.84 1701.32 1313.95 Q1701.32 1320.06 1698.36 1323.81 Q1695.42 1327.56 1690.7 1327.56 Q1687.85 1327.56 1685.79 1326.45 Q1683.75 1325.31 1682.41 1323 M1696.9 1313.95 Q1696.9 1309.25 1694.96 1306.59 Q1693.04 1303.9 1689.66 1303.9 Q1686.28 1303.9 1684.33 1306.59 Q1682.41 1309.25 1682.41 1313.95 Q1682.41 1318.65 1684.33 1321.33 Q1686.28 1323.99 1689.66 1323.99 Q1693.04 1323.99 1694.96 1321.33 Q1696.9 1318.65 1696.9 1313.95 Z" fill="#000000" fill-rule="nonzero" fill-opacity="1" /><path clip-path="url(#clip340)" d="M1723.41 1304.94 Q1722.69 1304.53 1721.83 1304.34 Q1721 1304.13 1719.98 1304.13 Q1716.37 1304.13 1714.43 1306.49 Q1712.5 1308.83 1712.5 1313.23 L1712.5 1326.89 L1708.22 1326.89 L1708.22 1300.96 L1712.5 1300.96 L1712.5 1304.99 Q1713.85 1302.63 1716 1301.49 Q1718.15 1300.34 1721.23 1300.34 Q1721.67 1300.34 1722.2 1300.41 Q1722.74 1300.45 1723.38 1300.57 L1723.41 1304.94 Z" fill="#000000" fill-rule="nonzero" fill-opacity="1" /><path clip-path="url(#clip340)" d="M1736.88 1303.95 Q1733.45 1303.95 1731.46 1306.63 Q1729.47 1309.29 1729.47 1313.95 Q1729.47 1318.6 1731.44 1321.28 Q1733.43 1323.95 1736.88 1323.95 Q1740.28 1323.95 1742.27 1321.26 Q1744.26 1318.58 1744.26 1313.95 Q1744.26 1309.34 1742.27 1306.66 Q1740.28 1303.95 1736.88 1303.95 M1736.88 1300.34 Q1742.44 1300.34 1745.61 1303.95 Q1748.78 1307.56 1748.78 1313.95 Q1748.78 1320.31 1745.61 1323.95 Q1742.44 1327.56 1736.88 1327.56 Q1731.3 1327.56 1728.13 1323.95 Q1724.98 1320.31 1724.98 1313.95 Q1724.98 1307.56 1728.13 1303.95 Q1731.3 1300.34 1736.88 1300.34 Z" fill="#000000" fill-rule="nonzero" fill-opacity="1" /><path clip-path="url(#clip340)" d="M1752.78 1300.96 L1757.3 1300.96 L1765.4 1322.72 L1773.5 1300.96 L1778.01 1300.96 L1768.29 1326.89 L1762.5 1326.89 L1752.78 1300.96 Z" fill="#000000" fill-rule="nonzero" fill-opacity="1" /><path clip-path="url(#clip340)" d="M1783.89 1300.96 L1788.15 1300.96 L1788.15 1326.89 L1783.89 1326.89 L1783.89 1300.96 M1783.89 1290.87 L1788.15 1290.87 L1788.15 1296.26 L1783.89 1296.26 L1783.89 1290.87 Z" fill="#000000" fill-rule="nonzero" fill-opacity="1" /><path clip-path="url(#clip340)" d="M1814.12 1304.9 L1814.12 1290.87 L1818.38 1290.87 L1818.38 1326.89 L1814.12 1326.89 L1814.12 1323 Q1812.78 1325.31 1810.72 1326.45 Q1808.68 1327.56 1805.81 1327.56 Q1801.12 1327.56 1798.15 1323.81 Q1795.21 1320.06 1795.21 1313.95 Q1795.21 1307.84 1798.15 1304.09 Q1801.12 1300.34 1805.81 1300.34 Q1808.68 1300.34 1810.72 1301.47 Q1812.78 1302.58 1814.12 1304.9 M1799.61 1313.95 Q1799.61 1318.65 1801.53 1321.33 Q1803.48 1323.99 1806.86 1323.99 Q1810.24 1323.99 1812.18 1321.33 Q1814.12 1318.65 1814.12 1313.95 Q1814.12 1309.25 1812.18 1306.59 Q1810.24 1303.9 1806.86 1303.9 Q1803.48 1303.9 1801.53 1306.59 Q1799.61 1309.25 1799.61 1313.95 Z" fill="#000000" fill-rule="nonzero" fill-opacity="1" /><path clip-path="url(#clip340)" d="M1849.33 1312.86 L1849.33 1314.94 L1829.75 1314.94 Q1830.03 1319.34 1832.39 1321.66 Q1834.77 1323.95 1839.01 1323.95 Q1841.46 1323.95 1843.75 1323.34 Q1846.07 1322.74 1848.34 1321.54 L1848.34 1325.57 Q1846.05 1326.54 1843.64 1327.05 Q1841.23 1327.56 1838.75 1327.56 Q1832.55 1327.56 1828.92 1323.95 Q1825.3 1320.34 1825.3 1314.18 Q1825.3 1307.81 1828.73 1304.09 Q1832.18 1300.34 1838.01 1300.34 Q1843.24 1300.34 1846.28 1303.72 Q1849.33 1307.07 1849.33 1312.86 M1845.07 1311.61 Q1845.03 1308.11 1843.11 1306.03 Q1841.21 1303.95 1838.06 1303.95 Q1834.49 1303.95 1832.34 1305.96 Q1830.21 1307.97 1829.89 1311.63 L1845.07 1311.61 Z" fill="#000000" fill-rule="nonzero" fill-opacity="1" /><path clip-path="url(#clip340)" d="M1873.38 1304.9 L1873.38 1290.87 L1877.64 1290.87 L1877.64 1326.89 L1873.38 1326.89 L1873.38 1323 Q1872.04 1325.31 1869.98 1326.45 Q1867.94 1327.56 1865.07 1327.56 Q1860.37 1327.56 1857.41 1323.81 Q1854.47 1320.06 1854.47 1313.95 Q1854.47 1307.84 1857.41 1304.09 Q1860.37 1300.34 1865.07 1300.34 Q1867.94 1300.34 1869.98 1301.47 Q1872.04 1302.58 1873.38 1304.9 M1858.87 1313.95 Q1858.87 1318.65 1860.79 1321.33 Q1862.74 1323.99 1866.11 1323.99 Q1869.49 1323.99 1871.44 1321.33 Q1873.38 1318.65 1873.38 1313.95 Q1873.38 1309.25 1871.44 1306.59 Q1869.49 1303.9 1866.11 1303.9 Q1862.74 1303.9 1860.79 1306.59 Q1858.87 1309.25 1858.87 1313.95 Z" fill="#000000" fill-rule="nonzero" fill-opacity="1" /></svg>
