<?xml version="1.0" encoding="utf-8"?>
<svg xmlns="http://www.w3.org/2000/svg" xmlns:xlink="http://www.w3.org/1999/xlink" width="500" height="400" viewBox="0 0 2000 1600">
<defs>
  <clipPath id="clip540">
    <rect x="0" y="0" width="2000" height="1600"/>
  </clipPath>
</defs>
<path clip-path="url(#clip540)" d="M0 1600 L2000 1600 L2000 -8.88178e-14 L0 -8.88178e-14  Z" fill="#ffffff" fill-rule="evenodd" fill-opacity="1"/>
<defs>
  <clipPath id="clip541">
    <rect x="400" y="0" width="1401" height="1401"/>
  </clipPath>
</defs>
<path clip-path="url(#clip540)" d="M262.708 1406.76 L1952.76 1406.76 L1952.76 47.2441 L262.708 47.2441  Z" fill="#ffffff" fill-rule="evenodd" fill-opacity="1"/>
<defs>
  <clipPath id="clip542">
    <rect x="262" y="47" width="1691" height="1361"/>
  </clipPath>
</defs>
<polyline clip-path="url(#clip542)" style="stroke:#000000; stroke-linecap:round; stroke-linejoin:round; stroke-width:2; stroke-opacity:0.1; fill:none" points="425.195,1406.76 425.195,47.2441 "/>
<polyline clip-path="url(#clip542)" style="stroke:#000000; stroke-linecap:round; stroke-linejoin:round; stroke-width:2; stroke-opacity:0.1; fill:none" points="697.678,1406.76 697.678,47.2441 "/>
<polyline clip-path="url(#clip542)" style="stroke:#000000; stroke-linecap:round; stroke-linejoin:round; stroke-width:2; stroke-opacity:0.1; fill:none" points="970.161,1406.76 970.161,47.2441 "/>
<polyline clip-path="url(#clip542)" style="stroke:#000000; stroke-linecap:round; stroke-linejoin:round; stroke-width:2; stroke-opacity:0.1; fill:none" points="1242.64,1406.76 1242.64,47.2441 "/>
<polyline clip-path="url(#clip542)" style="stroke:#000000; stroke-linecap:round; stroke-linejoin:round; stroke-width:2; stroke-opacity:0.1; fill:none" points="1515.13,1406.76 1515.13,47.2441 "/>
<polyline clip-path="url(#clip542)" style="stroke:#000000; stroke-linecap:round; stroke-linejoin:round; stroke-width:2; stroke-opacity:0.1; fill:none" points="1787.61,1406.76 1787.61,47.2441 "/>
<polyline clip-path="url(#clip540)" style="stroke:#000000; stroke-linecap:round; stroke-linejoin:round; stroke-width:4; stroke-opacity:1; fill:none" points="262.708,1406.76 1952.76,1406.76 "/>
<polyline clip-path="url(#clip540)" style="stroke:#000000; stroke-linecap:round; stroke-linejoin:round; stroke-width:4; stroke-opacity:1; fill:none" points="425.195,1406.76 425.195,1387.87 "/>
<polyline clip-path="url(#clip540)" style="stroke:#000000; stroke-linecap:round; stroke-linejoin:round; stroke-width:4; stroke-opacity:1; fill:none" points="697.678,1406.76 697.678,1387.87 "/>
<polyline clip-path="url(#clip540)" style="stroke:#000000; stroke-linecap:round; stroke-linejoin:round; stroke-width:4; stroke-opacity:1; fill:none" points="970.161,1406.76 970.161,1387.87 "/>
<polyline clip-path="url(#clip540)" style="stroke:#000000; stroke-linecap:round; stroke-linejoin:round; stroke-width:4; stroke-opacity:1; fill:none" points="1242.64,1406.76 1242.64,1387.87 "/>
<polyline clip-path="url(#clip540)" style="stroke:#000000; stroke-linecap:round; stroke-linejoin:round; stroke-width:4; stroke-opacity:1; fill:none" points="1515.13,1406.76 1515.13,1387.87 "/>
<polyline clip-path="url(#clip540)" style="stroke:#000000; stroke-linecap:round; stroke-linejoin:round; stroke-width:4; stroke-opacity:1; fill:none" points="1787.61,1406.76 1787.61,1387.87 "/>
<path clip-path="url(#clip540)" d="M371.48 1449.14 L401.156 1449.14 L401.156 1453.07 L371.48 1453.07 L371.48 1449.14 Z" fill="#000000" fill-rule="nonzero" fill-opacity="1" /><path clip-path="url(#clip540)" d="M421.248 1434.48 Q417.637 1434.48 415.809 1438.05 Q414.003 1441.59 414.003 1448.72 Q414.003 1455.83 415.809 1459.39 Q417.637 1462.93 421.248 1462.93 Q424.883 1462.93 426.688 1459.39 Q428.517 1455.83 428.517 1448.72 Q428.517 1441.59 426.688 1438.05 Q424.883 1434.48 421.248 1434.48 M421.248 1430.78 Q427.059 1430.78 430.114 1435.39 Q433.193 1439.97 433.193 1448.72 Q433.193 1457.45 430.114 1462.05 Q427.059 1466.64 421.248 1466.64 Q415.438 1466.64 412.36 1462.05 Q409.304 1457.45 409.304 1448.72 Q409.304 1439.97 412.36 1435.39 Q415.438 1430.78 421.248 1430.78 Z" fill="#000000" fill-rule="nonzero" fill-opacity="1" /><path clip-path="url(#clip540)" d="M441.41 1460.08 L446.295 1460.08 L446.295 1465.96 L441.41 1465.96 L441.41 1460.08 Z" fill="#000000" fill-rule="nonzero" fill-opacity="1" /><path clip-path="url(#clip540)" d="M469.327 1435.48 L457.521 1453.93 L469.327 1453.93 L469.327 1435.48 M468.1 1431.4 L473.98 1431.4 L473.98 1453.93 L478.91 1453.93 L478.91 1457.82 L473.98 1457.82 L473.98 1465.96 L469.327 1465.96 L469.327 1457.82 L453.725 1457.82 L453.725 1453.3 L468.1 1431.4 Z" fill="#000000" fill-rule="nonzero" fill-opacity="1" /><path clip-path="url(#clip540)" d="M644.53 1449.14 L674.206 1449.14 L674.206 1453.07 L644.53 1453.07 L644.53 1449.14 Z" fill="#000000" fill-rule="nonzero" fill-opacity="1" /><path clip-path="url(#clip540)" d="M694.299 1434.48 Q690.687 1434.48 688.859 1438.05 Q687.053 1441.59 687.053 1448.72 Q687.053 1455.83 688.859 1459.39 Q690.687 1462.93 694.299 1462.93 Q697.933 1462.93 699.738 1459.39 Q701.567 1455.83 701.567 1448.72 Q701.567 1441.59 699.738 1438.05 Q697.933 1434.48 694.299 1434.48 M694.299 1430.78 Q700.109 1430.78 703.164 1435.39 Q706.243 1439.97 706.243 1448.72 Q706.243 1457.45 703.164 1462.05 Q700.109 1466.64 694.299 1466.64 Q688.488 1466.64 685.41 1462.05 Q682.354 1457.45 682.354 1448.72 Q682.354 1439.97 685.41 1435.39 Q688.488 1430.78 694.299 1430.78 Z" fill="#000000" fill-rule="nonzero" fill-opacity="1" /><path clip-path="url(#clip540)" d="M714.46 1460.08 L719.345 1460.08 L719.345 1465.96 L714.46 1465.96 L714.46 1460.08 Z" fill="#000000" fill-rule="nonzero" fill-opacity="1" /><path clip-path="url(#clip540)" d="M743.696 1447.33 Q747.053 1448.05 748.928 1450.32 Q750.826 1452.58 750.826 1455.92 Q750.826 1461.03 747.308 1463.83 Q743.789 1466.64 737.308 1466.64 Q735.132 1466.64 732.817 1466.2 Q730.525 1465.78 728.072 1464.92 L728.072 1460.41 Q730.016 1461.54 732.331 1462.12 Q734.646 1462.7 737.169 1462.7 Q741.567 1462.7 743.858 1460.96 Q746.173 1459.23 746.173 1455.92 Q746.173 1452.86 744.021 1451.15 Q741.891 1449.41 738.071 1449.41 L734.044 1449.41 L734.044 1445.57 L738.257 1445.57 Q741.706 1445.57 743.534 1444.2 Q745.363 1442.82 745.363 1440.22 Q745.363 1437.56 743.465 1436.15 Q741.59 1434.71 738.071 1434.71 Q736.15 1434.71 733.951 1435.13 Q731.752 1435.55 729.113 1436.43 L729.113 1432.26 Q731.775 1431.52 734.09 1431.15 Q736.428 1430.78 738.488 1430.78 Q743.812 1430.78 746.914 1433.21 Q750.016 1435.62 750.016 1439.74 Q750.016 1442.61 748.372 1444.6 Q746.729 1446.57 743.696 1447.33 Z" fill="#000000" fill-rule="nonzero" fill-opacity="1" /><path clip-path="url(#clip540)" d="M917.488 1449.14 L947.164 1449.14 L947.164 1453.07 L917.488 1453.07 L917.488 1449.14 Z" fill="#000000" fill-rule="nonzero" fill-opacity="1" /><path clip-path="url(#clip540)" d="M967.256 1434.48 Q963.645 1434.48 961.816 1438.05 Q960.011 1441.59 960.011 1448.72 Q960.011 1455.83 961.816 1459.39 Q963.645 1462.93 967.256 1462.93 Q970.89 1462.93 972.696 1459.39 Q974.525 1455.83 974.525 1448.72 Q974.525 1441.59 972.696 1438.05 Q970.89 1434.48 967.256 1434.48 M967.256 1430.78 Q973.066 1430.78 976.122 1435.39 Q979.201 1439.97 979.201 1448.72 Q979.201 1457.45 976.122 1462.05 Q973.066 1466.64 967.256 1466.64 Q961.446 1466.64 958.367 1462.05 Q955.312 1457.45 955.312 1448.72 Q955.312 1439.97 958.367 1435.39 Q961.446 1430.78 967.256 1430.78 Z" fill="#000000" fill-rule="nonzero" fill-opacity="1" /><path clip-path="url(#clip540)" d="M987.418 1460.08 L992.302 1460.08 L992.302 1465.96 L987.418 1465.96 L987.418 1460.08 Z" fill="#000000" fill-rule="nonzero" fill-opacity="1" /><path clip-path="url(#clip540)" d="M1006.52 1462.03 L1022.83 1462.03 L1022.83 1465.96 L1000.89 1465.96 L1000.89 1462.03 Q1003.55 1459.27 1008.14 1454.64 Q1012.74 1449.99 1013.92 1448.65 Q1016.17 1446.13 1017.05 1444.39 Q1017.95 1442.63 1017.95 1440.94 Q1017.95 1438.19 1016.01 1436.45 Q1014.08 1434.71 1010.98 1434.71 Q1008.78 1434.71 1006.33 1435.48 Q1003.9 1436.24 1001.12 1437.79 L1001.12 1433.07 Q1003.95 1431.94 1006.4 1431.36 Q1008.85 1430.78 1010.89 1430.78 Q1016.26 1430.78 1019.45 1433.46 Q1022.65 1436.15 1022.65 1440.64 Q1022.65 1442.77 1021.84 1444.69 Q1021.05 1446.59 1018.95 1449.18 Q1018.37 1449.85 1015.27 1453.07 Q1012.16 1456.26 1006.52 1462.03 Z" fill="#000000" fill-rule="nonzero" fill-opacity="1" /><path clip-path="url(#clip540)" d="M1189.79 1449.14 L1219.46 1449.14 L1219.46 1453.07 L1189.79 1453.07 L1189.79 1449.14 Z" fill="#000000" fill-rule="nonzero" fill-opacity="1" /><path clip-path="url(#clip540)" d="M1239.55 1434.48 Q1235.94 1434.48 1234.11 1438.05 Q1232.31 1441.59 1232.31 1448.72 Q1232.31 1455.83 1234.11 1459.39 Q1235.94 1462.93 1239.55 1462.93 Q1243.19 1462.93 1244.99 1459.39 Q1246.82 1455.83 1246.82 1448.72 Q1246.82 1441.59 1244.99 1438.05 Q1243.19 1434.48 1239.55 1434.48 M1239.55 1430.78 Q1245.36 1430.78 1248.42 1435.39 Q1251.5 1439.97 1251.5 1448.72 Q1251.5 1457.45 1248.42 1462.05 Q1245.36 1466.64 1239.55 1466.64 Q1233.74 1466.64 1230.67 1462.05 Q1227.61 1457.45 1227.61 1448.72 Q1227.61 1439.97 1230.67 1435.39 Q1233.74 1430.78 1239.55 1430.78 Z" fill="#000000" fill-rule="nonzero" fill-opacity="1" /><path clip-path="url(#clip540)" d="M1259.72 1460.08 L1264.6 1460.08 L1264.6 1465.96 L1259.72 1465.96 L1259.72 1460.08 Z" fill="#000000" fill-rule="nonzero" fill-opacity="1" /><path clip-path="url(#clip540)" d="M1275.6 1462.03 L1283.23 1462.03 L1283.23 1435.66 L1274.92 1437.33 L1274.92 1433.07 L1283.19 1431.4 L1287.86 1431.4 L1287.86 1462.03 L1295.5 1462.03 L1295.5 1465.96 L1275.6 1465.96 L1275.6 1462.03 Z" fill="#000000" fill-rule="nonzero" fill-opacity="1" /><path clip-path="url(#clip540)" d="M1492.51 1434.48 Q1488.9 1434.48 1487.07 1438.05 Q1485.27 1441.59 1485.27 1448.72 Q1485.27 1455.83 1487.07 1459.39 Q1488.9 1462.93 1492.51 1462.93 Q1496.15 1462.93 1497.95 1459.39 Q1499.78 1455.83 1499.78 1448.72 Q1499.78 1441.59 1497.95 1438.05 Q1496.15 1434.48 1492.51 1434.48 M1492.51 1430.78 Q1498.32 1430.78 1501.38 1435.39 Q1504.46 1439.97 1504.46 1448.72 Q1504.46 1457.45 1501.38 1462.05 Q1498.32 1466.64 1492.51 1466.64 Q1486.7 1466.64 1483.62 1462.05 Q1480.57 1457.45 1480.57 1448.72 Q1480.57 1439.97 1483.62 1435.39 Q1486.7 1430.78 1492.51 1430.78 Z" fill="#000000" fill-rule="nonzero" fill-opacity="1" /><path clip-path="url(#clip540)" d="M1512.67 1460.08 L1517.56 1460.08 L1517.56 1465.96 L1512.67 1465.96 L1512.67 1460.08 Z" fill="#000000" fill-rule="nonzero" fill-opacity="1" /><path clip-path="url(#clip540)" d="M1537.74 1434.48 Q1534.13 1434.48 1532.3 1438.05 Q1530.5 1441.59 1530.5 1448.72 Q1530.5 1455.83 1532.3 1459.39 Q1534.13 1462.93 1537.74 1462.93 Q1541.38 1462.93 1543.18 1459.39 Q1545.01 1455.83 1545.01 1448.72 Q1545.01 1441.59 1543.18 1438.05 Q1541.38 1434.48 1537.74 1434.48 M1537.74 1430.78 Q1543.55 1430.78 1546.61 1435.39 Q1549.69 1439.97 1549.69 1448.72 Q1549.69 1457.45 1546.61 1462.05 Q1543.55 1466.64 1537.74 1466.64 Q1531.93 1466.64 1528.85 1462.05 Q1525.8 1457.45 1525.8 1448.72 Q1525.8 1439.97 1528.85 1435.39 Q1531.93 1430.78 1537.74 1430.78 Z" fill="#000000" fill-rule="nonzero" fill-opacity="1" /><path clip-path="url(#clip540)" d="M1765.61 1434.48 Q1762 1434.48 1760.17 1438.05 Q1758.36 1441.59 1758.36 1448.72 Q1758.36 1455.83 1760.17 1459.39 Q1762 1462.93 1765.61 1462.93 Q1769.24 1462.93 1771.05 1459.39 Q1772.88 1455.83 1772.88 1448.72 Q1772.88 1441.59 1771.05 1438.05 Q1769.24 1434.48 1765.61 1434.48 M1765.61 1430.78 Q1771.42 1430.78 1774.47 1435.39 Q1777.55 1439.97 1777.55 1448.72 Q1777.55 1457.45 1774.47 1462.05 Q1771.42 1466.64 1765.61 1466.64 Q1759.8 1466.64 1756.72 1462.05 Q1753.66 1457.45 1753.66 1448.72 Q1753.66 1439.97 1756.72 1435.39 Q1759.8 1430.78 1765.61 1430.78 Z" fill="#000000" fill-rule="nonzero" fill-opacity="1" /><path clip-path="url(#clip540)" d="M1785.77 1460.08 L1790.65 1460.08 L1790.65 1465.96 L1785.77 1465.96 L1785.77 1460.08 Z" fill="#000000" fill-rule="nonzero" fill-opacity="1" /><path clip-path="url(#clip540)" d="M1801.65 1462.03 L1809.29 1462.03 L1809.29 1435.66 L1800.98 1437.33 L1800.98 1433.07 L1809.24 1431.4 L1813.92 1431.4 L1813.92 1462.03 L1821.56 1462.03 L1821.56 1465.96 L1801.65 1465.96 L1801.65 1462.03 Z" fill="#000000" fill-rule="nonzero" fill-opacity="1" /><path clip-path="url(#clip540)" d="M993.165 1509.98 L999.022 1509.98 L999.022 1545.63 L993.165 1545.63 L993.165 1509.98 M993.165 1496.1 L999.022 1496.1 L999.022 1503.52 L993.165 1503.52 L993.165 1496.1 Z" fill="#000000" fill-rule="nonzero" fill-opacity="1" /><path clip-path="url(#clip540)" d="M1040.91 1524.11 L1040.91 1545.63 L1035.05 1545.63 L1035.05 1524.3 Q1035.05 1519.24 1033.08 1516.73 Q1031.1 1514.21 1027.16 1514.21 Q1022.42 1514.21 1019.68 1517.24 Q1016.94 1520.26 1016.94 1525.48 L1016.94 1545.63 L1011.05 1545.63 L1011.05 1509.98 L1016.94 1509.98 L1016.94 1515.52 Q1019.04 1512.3 1021.87 1510.71 Q1024.74 1509.12 1028.46 1509.12 Q1034.61 1509.12 1037.76 1512.94 Q1040.91 1516.73 1040.91 1524.11 Z" fill="#000000" fill-rule="nonzero" fill-opacity="1" /><path clip-path="url(#clip540)" d="M1078.24 1511.35 L1078.24 1516.82 Q1075.76 1515.45 1073.25 1514.79 Q1070.76 1514.09 1068.22 1514.09 Q1062.52 1514.09 1059.37 1517.71 Q1056.22 1521.31 1056.22 1527.84 Q1056.22 1534.36 1059.37 1537.99 Q1062.52 1541.59 1068.22 1541.59 Q1070.76 1541.59 1073.25 1540.92 Q1075.76 1540.22 1078.24 1538.85 L1078.24 1544.26 Q1075.79 1545.41 1073.15 1545.98 Q1070.54 1546.55 1067.58 1546.55 Q1059.53 1546.55 1054.79 1541.49 Q1050.04 1536.43 1050.04 1527.84 Q1050.04 1519.11 1054.82 1514.12 Q1059.62 1509.12 1067.96 1509.12 Q1070.67 1509.12 1073.25 1509.69 Q1075.82 1510.23 1078.24 1511.35 Z" fill="#000000" fill-rule="nonzero" fill-opacity="1" /><path clip-path="url(#clip540)" d="M1102.24 1514.09 Q1097.53 1514.09 1094.79 1517.78 Q1092.06 1521.44 1092.06 1527.84 Q1092.06 1534.23 1094.76 1537.93 Q1097.5 1541.59 1102.24 1541.59 Q1106.92 1541.59 1109.66 1537.89 Q1112.39 1534.2 1112.39 1527.84 Q1112.39 1521.5 1109.66 1517.81 Q1106.92 1514.09 1102.24 1514.09 M1102.24 1509.12 Q1109.88 1509.12 1114.24 1514.09 Q1118.6 1519.05 1118.6 1527.84 Q1118.6 1536.59 1114.24 1541.59 Q1109.88 1546.55 1102.24 1546.55 Q1094.57 1546.55 1090.21 1541.59 Q1085.88 1536.59 1085.88 1527.84 Q1085.88 1519.05 1090.21 1514.09 Q1094.57 1509.12 1102.24 1509.12 Z" fill="#000000" fill-rule="nonzero" fill-opacity="1" /><path clip-path="url(#clip540)" d="M1156.06 1516.82 Q1158.26 1512.88 1161.32 1511 Q1164.37 1509.12 1168.51 1509.12 Q1174.08 1509.12 1177.1 1513.04 Q1180.13 1516.92 1180.13 1524.11 L1180.13 1545.63 L1174.24 1545.63 L1174.24 1524.3 Q1174.24 1519.18 1172.42 1516.7 Q1170.61 1514.21 1166.89 1514.21 Q1162.33 1514.21 1159.69 1517.24 Q1157.05 1520.26 1157.05 1525.48 L1157.05 1545.63 L1151.16 1545.63 L1151.16 1524.3 Q1151.16 1519.15 1149.35 1516.7 Q1147.53 1514.21 1143.75 1514.21 Q1139.26 1514.21 1136.62 1517.27 Q1133.97 1520.29 1133.97 1525.48 L1133.97 1545.63 L1128.09 1545.63 L1128.09 1509.98 L1133.97 1509.98 L1133.97 1515.52 Q1135.98 1512.24 1138.78 1510.68 Q1141.58 1509.12 1145.43 1509.12 Q1149.32 1509.12 1152.02 1511.09 Q1154.76 1513.07 1156.06 1516.82 Z" fill="#000000" fill-rule="nonzero" fill-opacity="1" /><path clip-path="url(#clip540)" d="M1222.3 1526.34 L1222.3 1529.2 L1195.37 1529.2 Q1195.75 1535.25 1199 1538.43 Q1202.28 1541.59 1208.1 1541.59 Q1211.48 1541.59 1214.63 1540.76 Q1217.81 1539.93 1220.93 1538.28 L1220.93 1543.81 Q1217.78 1545.15 1214.47 1545.85 Q1211.16 1546.55 1207.75 1546.55 Q1199.22 1546.55 1194.23 1541.59 Q1189.26 1536.62 1189.26 1528.15 Q1189.26 1519.4 1193.97 1514.28 Q1198.71 1509.12 1206.73 1509.12 Q1213.93 1509.12 1218.1 1513.77 Q1222.3 1518.38 1222.3 1526.34 M1216.44 1524.62 Q1216.38 1519.81 1213.74 1516.95 Q1211.13 1514.09 1206.8 1514.09 Q1201.9 1514.09 1198.94 1516.85 Q1196.01 1519.62 1195.56 1524.65 L1216.44 1524.62 Z" fill="#000000" fill-rule="nonzero" fill-opacity="1" /><polyline clip-path="url(#clip542)" style="stroke:#000000; stroke-linecap:round; stroke-linejoin:round; stroke-width:2; stroke-opacity:0.1; fill:none" points="262.708,1303.07 1952.76,1303.07 "/>
<polyline clip-path="url(#clip542)" style="stroke:#000000; stroke-linecap:round; stroke-linejoin:round; stroke-width:2; stroke-opacity:0.1; fill:none" points="262.708,1036.13 1952.76,1036.13 "/>
<polyline clip-path="url(#clip542)" style="stroke:#000000; stroke-linecap:round; stroke-linejoin:round; stroke-width:2; stroke-opacity:0.1; fill:none" points="262.708,769.189 1952.76,769.189 "/>
<polyline clip-path="url(#clip542)" style="stroke:#000000; stroke-linecap:round; stroke-linejoin:round; stroke-width:2; stroke-opacity:0.1; fill:none" points="262.708,502.247 1952.76,502.247 "/>
<polyline clip-path="url(#clip542)" style="stroke:#000000; stroke-linecap:round; stroke-linejoin:round; stroke-width:2; stroke-opacity:0.1; fill:none" points="262.708,235.305 1952.76,235.305 "/>
<polyline clip-path="url(#clip540)" style="stroke:#000000; stroke-linecap:round; stroke-linejoin:round; stroke-width:4; stroke-opacity:1; fill:none" points="262.708,1406.76 262.708,47.2441 "/>
<polyline clip-path="url(#clip540)" style="stroke:#000000; stroke-linecap:round; stroke-linejoin:round; stroke-width:4; stroke-opacity:1; fill:none" points="262.708,1303.07 281.606,1303.07 "/>
<polyline clip-path="url(#clip540)" style="stroke:#000000; stroke-linecap:round; stroke-linejoin:round; stroke-width:4; stroke-opacity:1; fill:none" points="262.708,1036.13 281.606,1036.13 "/>
<polyline clip-path="url(#clip540)" style="stroke:#000000; stroke-linecap:round; stroke-linejoin:round; stroke-width:4; stroke-opacity:1; fill:none" points="262.708,769.189 281.606,769.189 "/>
<polyline clip-path="url(#clip540)" style="stroke:#000000; stroke-linecap:round; stroke-linejoin:round; stroke-width:4; stroke-opacity:1; fill:none" points="262.708,502.247 281.606,502.247 "/>
<polyline clip-path="url(#clip540)" style="stroke:#000000; stroke-linecap:round; stroke-linejoin:round; stroke-width:4; stroke-opacity:1; fill:none" points="262.708,235.305 281.606,235.305 "/>
<path clip-path="url(#clip540)" d="M126.76 1303.52 L156.435 1303.52 L156.435 1307.46 L126.76 1307.46 L126.76 1303.52 Z" fill="#000000" fill-rule="nonzero" fill-opacity="1" /><path clip-path="url(#clip540)" d="M167.338 1316.42 L174.977 1316.42 L174.977 1290.05 L166.667 1291.72 L166.667 1287.46 L174.931 1285.79 L179.606 1285.79 L179.606 1316.42 L187.245 1316.42 L187.245 1320.35 L167.338 1320.35 L167.338 1316.42 Z" fill="#000000" fill-rule="nonzero" fill-opacity="1" /><path clip-path="url(#clip540)" d="M196.69 1314.47 L201.574 1314.47 L201.574 1320.35 L196.69 1320.35 L196.69 1314.47 Z" fill="#000000" fill-rule="nonzero" fill-opacity="1" /><path clip-path="url(#clip540)" d="M211.805 1285.79 L230.162 1285.79 L230.162 1289.73 L216.088 1289.73 L216.088 1298.2 Q217.106 1297.85 218.125 1297.69 Q219.143 1297.51 220.162 1297.51 Q225.949 1297.51 229.328 1300.68 Q232.708 1303.85 232.708 1309.27 Q232.708 1314.84 229.236 1317.95 Q225.764 1321.02 219.444 1321.02 Q217.268 1321.02 215 1320.65 Q212.754 1320.28 210.347 1319.54 L210.347 1314.84 Q212.43 1315.98 214.653 1316.53 Q216.875 1317.09 219.352 1317.09 Q223.356 1317.09 225.694 1314.98 Q228.032 1312.88 228.032 1309.27 Q228.032 1305.65 225.694 1303.55 Q223.356 1301.44 219.352 1301.44 Q217.477 1301.44 215.602 1301.86 Q213.75 1302.27 211.805 1303.15 L211.805 1285.79 Z" fill="#000000" fill-rule="nonzero" fill-opacity="1" /><path clip-path="url(#clip540)" d="M125.764 1036.58 L155.44 1036.58 L155.44 1040.52 L125.764 1040.52 L125.764 1036.58 Z" fill="#000000" fill-rule="nonzero" fill-opacity="1" /><path clip-path="url(#clip540)" d="M166.343 1049.48 L173.981 1049.48 L173.981 1023.11 L165.671 1024.78 L165.671 1020.52 L173.935 1018.85 L178.611 1018.85 L178.611 1049.48 L186.25 1049.48 L186.25 1053.41 L166.343 1053.41 L166.343 1049.48 Z" fill="#000000" fill-rule="nonzero" fill-opacity="1" /><path clip-path="url(#clip540)" d="M195.694 1047.53 L200.579 1047.53 L200.579 1053.41 L195.694 1053.41 L195.694 1047.53 Z" fill="#000000" fill-rule="nonzero" fill-opacity="1" /><path clip-path="url(#clip540)" d="M220.764 1021.93 Q217.153 1021.93 215.324 1025.49 Q213.518 1029.04 213.518 1036.17 Q213.518 1043.27 215.324 1046.84 Q217.153 1050.38 220.764 1050.38 Q224.398 1050.38 226.203 1046.84 Q228.032 1043.27 228.032 1036.17 Q228.032 1029.04 226.203 1025.49 Q224.398 1021.93 220.764 1021.93 M220.764 1018.23 Q226.574 1018.23 229.629 1022.83 Q232.708 1027.42 232.708 1036.17 Q232.708 1044.89 229.629 1049.5 Q226.574 1054.08 220.764 1054.08 Q214.953 1054.08 211.875 1049.5 Q208.819 1044.89 208.819 1036.17 Q208.819 1027.42 211.875 1022.83 Q214.953 1018.23 220.764 1018.23 Z" fill="#000000" fill-rule="nonzero" fill-opacity="1" /><path clip-path="url(#clip540)" d="M126.76 769.641 L156.435 769.641 L156.435 773.576 L126.76 773.576 L126.76 769.641 Z" fill="#000000" fill-rule="nonzero" fill-opacity="1" /><path clip-path="url(#clip540)" d="M176.528 754.988 Q172.917 754.988 171.088 758.553 Q169.282 762.094 169.282 769.224 Q169.282 776.33 171.088 779.895 Q172.917 783.437 176.528 783.437 Q180.162 783.437 181.968 779.895 Q183.796 776.33 183.796 769.224 Q183.796 762.094 181.968 758.553 Q180.162 754.988 176.528 754.988 M176.528 751.284 Q182.338 751.284 185.393 755.891 Q188.472 760.474 188.472 769.224 Q188.472 777.951 185.393 782.557 Q182.338 787.14 176.528 787.14 Q170.718 787.14 167.639 782.557 Q164.583 777.951 164.583 769.224 Q164.583 760.474 167.639 755.891 Q170.718 751.284 176.528 751.284 Z" fill="#000000" fill-rule="nonzero" fill-opacity="1" /><path clip-path="url(#clip540)" d="M196.69 780.59 L201.574 780.59 L201.574 786.469 L196.69 786.469 L196.69 780.59 Z" fill="#000000" fill-rule="nonzero" fill-opacity="1" /><path clip-path="url(#clip540)" d="M211.805 751.909 L230.162 751.909 L230.162 755.844 L216.088 755.844 L216.088 764.317 Q217.106 763.969 218.125 763.807 Q219.143 763.622 220.162 763.622 Q225.949 763.622 229.328 766.793 Q232.708 769.965 232.708 775.381 Q232.708 780.96 229.236 784.062 Q225.764 787.14 219.444 787.14 Q217.268 787.14 215 786.77 Q212.754 786.4 210.347 785.659 L210.347 780.96 Q212.43 782.094 214.653 782.65 Q216.875 783.205 219.352 783.205 Q223.356 783.205 225.694 781.099 Q228.032 778.992 228.032 775.381 Q228.032 771.77 225.694 769.664 Q223.356 767.557 219.352 767.557 Q217.477 767.557 215.602 767.974 Q213.75 768.391 211.805 769.27 L211.805 751.909 Z" fill="#000000" fill-rule="nonzero" fill-opacity="1" /><path clip-path="url(#clip540)" d="M175.532 488.046 Q171.921 488.046 170.093 491.611 Q168.287 495.152 168.287 502.282 Q168.287 509.388 170.093 512.953 Q171.921 516.495 175.532 516.495 Q179.167 516.495 180.972 512.953 Q182.801 509.388 182.801 502.282 Q182.801 495.152 180.972 491.611 Q179.167 488.046 175.532 488.046 M175.532 484.342 Q181.343 484.342 184.398 488.949 Q187.477 493.532 187.477 502.282 Q187.477 511.009 184.398 515.615 Q181.343 520.199 175.532 520.199 Q169.722 520.199 166.644 515.615 Q163.588 511.009 163.588 502.282 Q163.588 493.532 166.644 488.949 Q169.722 484.342 175.532 484.342 Z" fill="#000000" fill-rule="nonzero" fill-opacity="1" /><path clip-path="url(#clip540)" d="M195.694 513.648 L200.579 513.648 L200.579 519.527 L195.694 519.527 L195.694 513.648 Z" fill="#000000" fill-rule="nonzero" fill-opacity="1" /><path clip-path="url(#clip540)" d="M220.764 488.046 Q217.153 488.046 215.324 491.611 Q213.518 495.152 213.518 502.282 Q213.518 509.388 215.324 512.953 Q217.153 516.495 220.764 516.495 Q224.398 516.495 226.203 512.953 Q228.032 509.388 228.032 502.282 Q228.032 495.152 226.203 491.611 Q224.398 488.046 220.764 488.046 M220.764 484.342 Q226.574 484.342 229.629 488.949 Q232.708 493.532 232.708 502.282 Q232.708 511.009 229.629 515.615 Q226.574 520.199 220.764 520.199 Q214.953 520.199 211.875 515.615 Q208.819 511.009 208.819 502.282 Q208.819 493.532 211.875 488.949 Q214.953 484.342 220.764 484.342 Z" fill="#000000" fill-rule="nonzero" fill-opacity="1" /><path clip-path="url(#clip540)" d="M176.528 221.104 Q172.917 221.104 171.088 224.669 Q169.282 228.21 169.282 235.34 Q169.282 242.446 171.088 246.011 Q172.917 249.553 176.528 249.553 Q180.162 249.553 181.968 246.011 Q183.796 242.446 183.796 235.34 Q183.796 228.21 181.968 224.669 Q180.162 221.104 176.528 221.104 M176.528 217.4 Q182.338 217.4 185.393 222.007 Q188.472 226.59 188.472 235.34 Q188.472 244.067 185.393 248.673 Q182.338 253.257 176.528 253.257 Q170.718 253.257 167.639 248.673 Q164.583 244.067 164.583 235.34 Q164.583 226.59 167.639 222.007 Q170.718 217.4 176.528 217.4 Z" fill="#000000" fill-rule="nonzero" fill-opacity="1" /><path clip-path="url(#clip540)" d="M196.69 246.706 L201.574 246.706 L201.574 252.585 L196.69 252.585 L196.69 246.706 Z" fill="#000000" fill-rule="nonzero" fill-opacity="1" /><path clip-path="url(#clip540)" d="M211.805 218.025 L230.162 218.025 L230.162 221.96 L216.088 221.96 L216.088 230.433 Q217.106 230.085 218.125 229.923 Q219.143 229.738 220.162 229.738 Q225.949 229.738 229.328 232.909 Q232.708 236.081 232.708 241.497 Q232.708 247.076 229.236 250.178 Q225.764 253.257 219.444 253.257 Q217.268 253.257 215 252.886 Q212.754 252.516 210.347 251.775 L210.347 247.076 Q212.43 248.21 214.653 248.766 Q216.875 249.321 219.352 249.321 Q223.356 249.321 225.694 247.215 Q228.032 245.108 228.032 241.497 Q228.032 237.886 225.694 235.78 Q223.356 233.673 219.352 233.673 Q217.477 233.673 215.602 234.09 Q213.75 234.507 211.805 235.386 L211.805 218.025 Z" fill="#000000" fill-rule="nonzero" fill-opacity="1" /><path clip-path="url(#clip540)" d="M63.5887 765.596 Q63.5887 772.694 65.2119 775.431 Q66.8352 778.168 70.7501 778.168 Q73.8693 778.168 75.7154 776.131 Q77.5296 774.062 77.5296 770.529 Q77.5296 765.66 74.0921 762.731 Q70.6228 759.771 64.8937 759.771 L63.5887 759.771 L63.5887 765.596 M61.1697 753.915 L81.5082 753.915 L81.5082 759.771 L76.0973 759.771 Q79.3438 761.777 80.9034 764.769 Q82.4312 767.76 82.4312 772.089 Q82.4312 777.564 79.3756 780.81 Q76.2883 784.025 71.1321 784.025 Q65.1165 784.025 62.0609 780.014 Q59.0054 775.972 59.0054 767.983 L59.0054 759.771 L58.4325 759.771 Q54.3902 759.771 52.1941 762.445 Q49.9661 765.087 49.9661 769.893 Q49.9661 772.948 50.6981 775.845 Q51.4302 778.741 52.8943 781.415 L47.4835 781.415 Q46.2421 778.2 45.6374 775.176 Q45.0008 772.153 45.0008 769.288 Q45.0008 761.554 49.0112 757.734 Q53.0216 753.915 61.1697 753.915 Z" fill="#000000" fill-rule="nonzero" fill-opacity="1" /><path clip-path="url(#clip540)" d="M63.2704 718.394 Q56.9047 718.394 53.4036 721.036 Q49.9024 723.646 49.9024 728.389 Q49.9024 733.099 53.4036 735.741 Q56.9047 738.351 63.2704 738.351 Q69.6043 738.351 73.1054 735.741 Q76.6066 733.099 76.6066 728.389 Q76.6066 723.646 73.1054 721.036 Q69.6043 718.394 63.2704 718.394 M77.084 712.538 Q86.187 712.538 90.6111 716.58 Q95.0671 720.622 95.0671 728.961 Q95.0671 732.049 94.5897 734.786 Q94.1441 737.523 93.1892 740.101 L87.4919 740.101 Q88.8924 737.523 89.5608 735.009 Q90.2292 732.494 90.2292 729.884 Q90.2292 724.123 87.2055 721.259 Q84.2136 718.394 78.1343 718.394 L75.2379 718.394 Q78.389 720.209 79.9486 723.041 Q81.5082 725.874 81.5082 729.821 Q81.5082 736.377 76.5111 740.388 Q71.514 744.398 63.2704 744.398 Q54.995 744.398 49.9979 740.388 Q45.0008 736.377 45.0008 729.821 Q45.0008 725.874 46.5604 723.041 Q48.12 720.209 51.2711 718.394 L45.8602 718.394 L45.8602 712.538 L77.084 712.538 Z" fill="#000000" fill-rule="nonzero" fill-opacity="1" /><path clip-path="url(#clip540)" d="M62.2201 669.983 L65.0846 669.983 L65.0846 696.91 Q71.1321 696.528 74.3149 693.282 Q77.4659 690.003 77.4659 684.179 Q77.4659 680.805 76.6384 677.654 Q75.8109 674.471 74.1558 671.352 L79.6939 671.352 Q81.0307 674.503 81.731 677.813 Q82.4312 681.123 82.4312 684.529 Q82.4312 693.059 77.4659 698.056 Q72.5007 703.021 64.0343 703.021 Q55.2814 703.021 50.1571 698.311 Q45.0008 693.568 45.0008 685.547 Q45.0008 678.354 49.6478 674.185 Q54.2629 669.983 62.2201 669.983 M60.5013 675.84 Q55.6952 675.903 52.8306 678.545 Q49.9661 681.155 49.9661 685.484 Q49.9661 690.385 52.7352 693.345 Q55.5042 696.274 60.5332 696.719 L60.5013 675.84 Z" fill="#000000" fill-rule="nonzero" fill-opacity="1" /><circle clip-path="url(#clip542)" cx="502.411" cy="1368.29" r="36" fill="#00a1ff" fill-rule="evenodd" fill-opacity="1" stroke="#000000" stroke-opacity="1" stroke-width="3.2"/>
<circle clip-path="url(#clip542)" cx="1904.92" cy="227.422" r="36" fill="#e69f00" fill-rule="evenodd" fill-opacity="1" stroke="#000000" stroke-opacity="1" stroke-width="3.2"/>
<polyline clip-path="url(#clip542)" style="stroke:#000000; stroke-linecap:round; stroke-linejoin:round; stroke-width:8; stroke-opacity:1; fill:none" points="502.411,1368.29 1904.92,227.422 "/>
<polyline clip-path="url(#clip542)" style="stroke:#000000; stroke-linecap:round; stroke-linejoin:round; stroke-width:8; stroke-opacity:1; fill:none" points="1872.19,234.717 1904.92,227.422 1891.12,257.989 "/>
<polyline clip-path="url(#clip542)" style="stroke:#000000; stroke-linecap:round; stroke-linejoin:round; stroke-width:8; stroke-opacity:1; fill:none" points="1904.92,227.422 502.411,1368.29 "/>
<circle clip-path="url(#clip542)" cx="1266.7" cy="108.61" r="36" fill="#00a1ff" fill-rule="evenodd" fill-opacity="1" stroke="#000000" stroke-opacity="1" stroke-width="3.2"/>
<circle clip-path="url(#clip542)" cx="1400.04" cy="85.7211" r="36" fill="#e69f00" fill-rule="evenodd" fill-opacity="1" stroke="#000000" stroke-opacity="1" stroke-width="3.2"/>
<polyline clip-path="url(#clip542)" style="stroke:#000000; stroke-linecap:round; stroke-linejoin:round; stroke-width:8; stroke-opacity:1; fill:none" points="1266.7,108.61 1400.04,85.7211 "/>
<polyline clip-path="url(#clip542)" style="stroke:#000000; stroke-linecap:round; stroke-linejoin:round; stroke-width:8; stroke-opacity:1; fill:none" points="1367.94,76.0128 1400.04,85.7211 1373.01,105.58 "/>
<polyline clip-path="url(#clip542)" style="stroke:#000000; stroke-linecap:round; stroke-linejoin:round; stroke-width:8; stroke-opacity:1; fill:none" points="1400.04,85.7211 1266.7,108.61 "/>
<circle clip-path="url(#clip542)" cx="1141.98" cy="757.534" r="36" fill="#00a1ff" fill-rule="evenodd" fill-opacity="1" stroke="#000000" stroke-opacity="1" stroke-width="3.2"/>
<circle clip-path="url(#clip542)" cx="1684.41" cy="274.395" r="36" fill="#e69f00" fill-rule="evenodd" fill-opacity="1" stroke="#000000" stroke-opacity="1" stroke-width="3.2"/>
<polyline clip-path="url(#clip542)" style="stroke:#000000; stroke-linecap:round; stroke-linejoin:round; stroke-width:8; stroke-opacity:1; fill:none" points="1141.98,757.534 1684.41,274.395 "/>
<polyline clip-path="url(#clip542)" style="stroke:#000000; stroke-linecap:round; stroke-linejoin:round; stroke-width:8; stroke-opacity:1; fill:none" points="1652.03,283.147 1684.41,274.395 1671.98,305.549 "/>
<polyline clip-path="url(#clip542)" style="stroke:#000000; stroke-linecap:round; stroke-linejoin:round; stroke-width:8; stroke-opacity:1; fill:none" points="1684.41,274.395 1141.98,757.534 "/>
<circle clip-path="url(#clip542)" cx="310.54" cy="604.846" r="36" fill="#00a1ff" fill-rule="evenodd" fill-opacity="1" stroke="#000000" stroke-opacity="1" stroke-width="3.2"/>
<circle clip-path="url(#clip542)" cx="1361.43" cy="332.297" r="36" fill="#e69f00" fill-rule="evenodd" fill-opacity="1" stroke="#000000" stroke-opacity="1" stroke-width="3.2"/>
<polyline clip-path="url(#clip542)" style="stroke:#000000; stroke-linecap:round; stroke-linejoin:round; stroke-width:8; stroke-opacity:1; fill:none" points="310.54,604.846 1361.43,332.297 "/>
<polyline clip-path="url(#clip542)" style="stroke:#000000; stroke-linecap:round; stroke-linejoin:round; stroke-width:8; stroke-opacity:1; fill:none" points="1328.63,325.309 1361.43,332.297 1336.16,354.348 "/>
<polyline clip-path="url(#clip542)" style="stroke:#000000; stroke-linecap:round; stroke-linejoin:round; stroke-width:8; stroke-opacity:1; fill:none" points="1361.43,332.297 310.54,604.846 "/>
<circle clip-path="url(#clip542)" cx="1014.07" cy="795.706" r="36" fill="#00a1ff" fill-rule="evenodd" fill-opacity="1" stroke="#000000" stroke-opacity="1" stroke-width="3.2"/>
<circle clip-path="url(#clip542)" cx="1701.39" cy="297.872" r="36" fill="#e69f00" fill-rule="evenodd" fill-opacity="1" stroke="#000000" stroke-opacity="1" stroke-width="3.2"/>
<polyline clip-path="url(#clip542)" style="stroke:#000000; stroke-linecap:round; stroke-linejoin:round; stroke-width:8; stroke-opacity:1; fill:none" points="1014.07,795.706 1701.39,297.872 "/>
<polyline clip-path="url(#clip542)" style="stroke:#000000; stroke-linecap:round; stroke-linejoin:round; stroke-width:8; stroke-opacity:1; fill:none" points="1668.3,303.322 1701.39,297.872 1685.89,327.618 "/>
<polyline clip-path="url(#clip542)" style="stroke:#000000; stroke-linecap:round; stroke-linejoin:round; stroke-width:8; stroke-opacity:1; fill:none" points="1701.39,297.872 1014.07,795.706 "/>
<circle clip-path="url(#clip542)" cx="608.9" cy="757.534" r="36" fill="#00a1ff" fill-rule="evenodd" fill-opacity="1" stroke="#000000" stroke-opacity="1" stroke-width="3.2"/>
<circle clip-path="url(#clip542)" cx="1514.66" cy="308.268" r="36" fill="#e69f00" fill-rule="evenodd" fill-opacity="1" stroke="#000000" stroke-opacity="1" stroke-width="3.2"/>
<polyline clip-path="url(#clip542)" style="stroke:#000000; stroke-linecap:round; stroke-linejoin:round; stroke-width:8; stroke-opacity:1; fill:none" points="608.9,757.534 1514.66,308.268 "/>
<polyline clip-path="url(#clip542)" style="stroke:#000000; stroke-linecap:round; stroke-linejoin:round; stroke-width:8; stroke-opacity:1; fill:none" points="1481.12,308.16 1514.66,308.268 1494.45,335.036 "/>
<polyline clip-path="url(#clip542)" style="stroke:#000000; stroke-linecap:round; stroke-linejoin:round; stroke-width:8; stroke-opacity:1; fill:none" points="1514.66,308.268 608.9,757.534 "/>
<circle clip-path="url(#clip542)" cx="514.244" cy="948.395" r="36" fill="#00a1ff" fill-rule="evenodd" fill-opacity="1" stroke="#000000" stroke-opacity="1" stroke-width="3.2"/>
<circle clip-path="url(#clip542)" cx="1673.54" cy="311.163" r="36" fill="#e69f00" fill-rule="evenodd" fill-opacity="1" stroke="#000000" stroke-opacity="1" stroke-width="3.2"/>
<polyline clip-path="url(#clip542)" style="stroke:#000000; stroke-linecap:round; stroke-linejoin:round; stroke-width:8; stroke-opacity:1; fill:none" points="514.244,948.395 1673.54,311.163 "/>
<polyline clip-path="url(#clip542)" style="stroke:#000000; stroke-linecap:round; stroke-linejoin:round; stroke-width:8; stroke-opacity:1; fill:none" points="1640.02,312.469 1673.54,311.163 1654.47,338.759 "/>
<polyline clip-path="url(#clip542)" style="stroke:#000000; stroke-linecap:round; stroke-linejoin:round; stroke-width:8; stroke-opacity:1; fill:none" points="1673.54,311.163 514.244,948.395 "/>
<circle clip-path="url(#clip542)" cx="694.283" cy="108.61" r="36" fill="#00a1ff" fill-rule="evenodd" fill-opacity="1" stroke="#000000" stroke-opacity="1" stroke-width="3.2"/>
<circle clip-path="url(#clip542)" cx="1103.69" cy="108.61" r="36" fill="#e69f00" fill-rule="evenodd" fill-opacity="1" stroke="#000000" stroke-opacity="1" stroke-width="3.2"/>
<polyline clip-path="url(#clip542)" style="stroke:#000000; stroke-linecap:round; stroke-linejoin:round; stroke-width:8; stroke-opacity:1; fill:none" points="694.283,108.61 1103.69,108.61 "/>
<polyline clip-path="url(#clip542)" style="stroke:#000000; stroke-linecap:round; stroke-linejoin:round; stroke-width:8; stroke-opacity:1; fill:none" points="1073.69,93.6098 1103.69,108.61 1073.69,123.61 "/>
<polyline clip-path="url(#clip542)" style="stroke:#000000; stroke-linecap:round; stroke-linejoin:round; stroke-width:8; stroke-opacity:1; fill:none" points="1103.69,108.61 694.283,108.61 "/>
<circle clip-path="url(#clip542)" cx="727.861" cy="986.567" r="36" fill="#00a1ff" fill-rule="evenodd" fill-opacity="1" stroke="#000000" stroke-opacity="1" stroke-width="3.2"/>
<circle clip-path="url(#clip542)" cx="1355.97" cy="306.47" r="36" fill="#e69f00" fill-rule="evenodd" fill-opacity="1" stroke="#000000" stroke-opacity="1" stroke-width="3.2"/>
<polyline clip-path="url(#clip542)" style="stroke:#000000; stroke-linecap:round; stroke-linejoin:round; stroke-width:8; stroke-opacity:1; fill:none" points="727.861,986.567 1355.97,306.47 "/>
<polyline clip-path="url(#clip542)" style="stroke:#000000; stroke-linecap:round; stroke-linejoin:round; stroke-width:8; stroke-opacity:1; fill:none" points="1324.6,318.331 1355.97,306.47 1346.64,338.686 "/>
<polyline clip-path="url(#clip542)" style="stroke:#000000; stroke-linecap:round; stroke-linejoin:round; stroke-width:8; stroke-opacity:1; fill:none" points="1355.97,306.47 727.861,986.567 "/>
<circle clip-path="url(#clip542)" cx="742.251" cy="1253.77" r="36" fill="#00a1ff" fill-rule="evenodd" fill-opacity="1" stroke="#000000" stroke-opacity="1" stroke-width="3.2"/>
<circle clip-path="url(#clip542)" cx="1541.93" cy="319.336" r="36" fill="#e69f00" fill-rule="evenodd" fill-opacity="1" stroke="#000000" stroke-opacity="1" stroke-width="3.2"/>
<polyline clip-path="url(#clip542)" style="stroke:#000000; stroke-linecap:round; stroke-linejoin:round; stroke-width:8; stroke-opacity:1; fill:none" points="742.251,1253.77 1541.93,319.336 "/>
<polyline clip-path="url(#clip542)" style="stroke:#000000; stroke-linecap:round; stroke-linejoin:round; stroke-width:8; stroke-opacity:1; fill:none" points="1511.03,332.376 1541.93,319.336 1533.82,351.882 "/>
<polyline clip-path="url(#clip542)" style="stroke:#000000; stroke-linecap:round; stroke-linejoin:round; stroke-width:8; stroke-opacity:1; fill:none" points="1541.93,319.336 742.251,1253.77 "/>
<path clip-path="url(#clip540)" d="M1399.5 1361.45 L1896.42 1361.45 L1896.42 1205.93 L1399.5 1205.93  Z" fill="#ffffff" fill-rule="evenodd" fill-opacity="1"/>
<polyline clip-path="url(#clip540)" style="stroke:#000000; stroke-linecap:round; stroke-linejoin:round; stroke-width:4; stroke-opacity:1; fill:none" points="1399.5,1361.45 1896.42,1361.45 1896.42,1205.93 1399.5,1205.93 1399.5,1361.45 "/>
<circle clip-path="url(#clip540)" cx="1474.61" cy="1257.77" r="21.9429" fill="#00a1ff" fill-rule="evenodd" fill-opacity="1" stroke="#000000" stroke-opacity="1" stroke-width="1.95048"/>
<path clip-path="url(#clip540)" d="M1549.73 1240.49 L1554.4 1240.49 L1554.4 1271.11 L1571.23 1271.11 L1571.23 1275.05 L1549.73 1275.05 L1549.73 1240.49 Z" fill="#000000" fill-rule="nonzero" fill-opacity="1" /><path clip-path="url(#clip540)" d="M1585.17 1252.11 Q1581.74 1252.11 1579.75 1254.79 Q1577.76 1257.45 1577.76 1262.11 Q1577.76 1266.76 1579.73 1269.44 Q1581.72 1272.11 1585.17 1272.11 Q1588.57 1272.11 1590.56 1269.42 Q1592.55 1266.74 1592.55 1262.11 Q1592.55 1257.5 1590.56 1254.82 Q1588.57 1252.11 1585.17 1252.11 M1585.17 1248.5 Q1590.72 1248.5 1593.89 1252.11 Q1597.07 1255.72 1597.07 1262.11 Q1597.07 1268.47 1593.89 1272.11 Q1590.72 1275.72 1585.17 1275.72 Q1579.59 1275.72 1576.42 1272.11 Q1573.27 1268.47 1573.27 1262.11 Q1573.27 1255.72 1576.42 1252.11 Q1579.59 1248.5 1585.17 1248.5 Z" fill="#000000" fill-rule="nonzero" fill-opacity="1" /><path clip-path="url(#clip540)" d="M1615.91 1262.01 Q1610.75 1262.01 1608.76 1263.19 Q1606.76 1264.38 1606.76 1267.22 Q1606.76 1269.49 1608.25 1270.83 Q1609.75 1272.15 1612.32 1272.15 Q1615.86 1272.15 1617.99 1269.65 Q1620.14 1267.13 1620.14 1262.96 L1620.14 1262.01 L1615.91 1262.01 M1624.4 1260.25 L1624.4 1275.05 L1620.14 1275.05 L1620.14 1271.11 Q1618.69 1273.47 1616.51 1274.61 Q1614.33 1275.72 1611.19 1275.72 Q1607.2 1275.72 1604.84 1273.5 Q1602.51 1271.25 1602.51 1267.5 Q1602.51 1263.13 1605.42 1260.9 Q1608.36 1258.68 1614.17 1258.68 L1620.14 1258.68 L1620.14 1258.26 Q1620.14 1255.32 1618.2 1253.73 Q1616.28 1252.11 1612.78 1252.11 Q1610.56 1252.11 1608.45 1252.64 Q1606.35 1253.17 1604.4 1254.24 L1604.4 1250.3 Q1606.74 1249.4 1608.94 1248.96 Q1611.14 1248.5 1613.22 1248.5 Q1618.85 1248.5 1621.63 1251.41 Q1624.4 1254.33 1624.4 1260.25 Z" fill="#000000" fill-rule="nonzero" fill-opacity="1" /><path clip-path="url(#clip540)" d="M1654.73 1259.4 L1654.73 1275.05 L1650.47 1275.05 L1650.47 1259.54 Q1650.47 1255.86 1649.03 1254.03 Q1647.6 1252.2 1644.73 1252.2 Q1641.28 1252.2 1639.29 1254.4 Q1637.3 1256.6 1637.3 1260.39 L1637.3 1275.05 L1633.01 1275.05 L1633.01 1249.12 L1637.3 1249.12 L1637.3 1253.15 Q1638.82 1250.81 1640.88 1249.65 Q1642.97 1248.5 1645.68 1248.5 Q1650.14 1248.5 1652.44 1251.27 Q1654.73 1254.03 1654.73 1259.4 Z" fill="#000000" fill-rule="nonzero" fill-opacity="1" /><path clip-path="url(#clip540)" d="M1695.35 1253.06 L1695.35 1239.03 L1699.61 1239.03 L1699.61 1275.05 L1695.35 1275.05 L1695.35 1271.16 Q1694.01 1273.47 1691.95 1274.61 Q1689.91 1275.72 1687.04 1275.72 Q1682.34 1275.72 1679.38 1271.97 Q1676.44 1268.22 1676.44 1262.11 Q1676.44 1256 1679.38 1252.25 Q1682.34 1248.5 1687.04 1248.5 Q1689.91 1248.5 1691.95 1249.63 Q1694.01 1250.74 1695.35 1253.06 M1680.84 1262.11 Q1680.84 1266.81 1682.76 1269.49 Q1684.7 1272.15 1688.08 1272.15 Q1691.46 1272.15 1693.41 1269.49 Q1695.35 1266.81 1695.35 1262.11 Q1695.35 1257.41 1693.41 1254.75 Q1691.46 1252.06 1688.08 1252.06 Q1684.7 1252.06 1682.76 1254.75 Q1680.84 1257.41 1680.84 1262.11 Z" fill="#000000" fill-rule="nonzero" fill-opacity="1" /><path clip-path="url(#clip540)" d="M1730.56 1261.02 L1730.56 1263.1 L1710.98 1263.1 Q1711.25 1267.5 1713.62 1269.82 Q1716 1272.11 1720.24 1272.11 Q1722.69 1272.11 1724.98 1271.5 Q1727.3 1270.9 1729.56 1269.7 L1729.56 1273.73 Q1727.27 1274.7 1724.87 1275.21 Q1722.46 1275.72 1719.98 1275.72 Q1713.78 1275.72 1710.14 1272.11 Q1706.53 1268.5 1706.53 1262.34 Q1706.53 1255.97 1709.96 1252.25 Q1713.41 1248.5 1719.24 1248.5 Q1724.47 1248.5 1727.5 1251.88 Q1730.56 1255.23 1730.56 1261.02 M1726.3 1259.77 Q1726.25 1256.27 1724.33 1254.19 Q1722.44 1252.11 1719.29 1252.11 Q1715.72 1252.11 1713.57 1254.12 Q1711.44 1256.13 1711.12 1259.79 L1726.3 1259.77 Z" fill="#000000" fill-rule="nonzero" fill-opacity="1" /><path clip-path="url(#clip540)" d="M1759.1 1259.4 L1759.1 1275.05 L1754.84 1275.05 L1754.84 1259.54 Q1754.84 1255.86 1753.41 1254.03 Q1751.97 1252.2 1749.1 1252.2 Q1745.65 1252.2 1743.66 1254.4 Q1741.67 1256.6 1741.67 1260.39 L1741.67 1275.05 L1737.39 1275.05 L1737.39 1249.12 L1741.67 1249.12 L1741.67 1253.15 Q1743.2 1250.81 1745.26 1249.65 Q1747.34 1248.5 1750.05 1248.5 Q1754.52 1248.5 1756.81 1251.27 Q1759.1 1254.03 1759.1 1259.4 Z" fill="#000000" fill-rule="nonzero" fill-opacity="1" /><path clip-path="url(#clip540)" d="M1767.6 1249.12 L1771.86 1249.12 L1771.86 1275.05 L1767.6 1275.05 L1767.6 1249.12 M1767.6 1239.03 L1771.86 1239.03 L1771.86 1244.42 L1767.6 1244.42 L1767.6 1239.03 Z" fill="#000000" fill-rule="nonzero" fill-opacity="1" /><path clip-path="url(#clip540)" d="M1802.94 1261.02 L1802.94 1263.1 L1783.36 1263.1 Q1783.64 1267.5 1786 1269.82 Q1788.38 1272.11 1792.62 1272.11 Q1795.07 1272.11 1797.37 1271.5 Q1799.68 1270.9 1801.95 1269.7 L1801.95 1273.73 Q1799.66 1274.7 1797.25 1275.21 Q1794.84 1275.72 1792.37 1275.72 Q1786.16 1275.72 1782.53 1272.11 Q1778.92 1268.5 1778.92 1262.34 Q1778.92 1255.97 1782.34 1252.25 Q1785.79 1248.5 1791.62 1248.5 Q1796.86 1248.5 1799.89 1251.88 Q1802.94 1255.23 1802.94 1261.02 M1798.68 1259.77 Q1798.64 1256.27 1796.72 1254.19 Q1794.82 1252.11 1791.67 1252.11 Q1788.11 1252.11 1785.95 1254.12 Q1783.82 1256.13 1783.5 1259.79 L1798.68 1259.77 Z" fill="#000000" fill-rule="nonzero" fill-opacity="1" /><path clip-path="url(#clip540)" d="M1826.99 1253.06 L1826.99 1239.03 L1831.25 1239.03 L1831.25 1275.05 L1826.99 1275.05 L1826.99 1271.16 Q1825.65 1273.47 1823.59 1274.61 Q1821.56 1275.72 1818.68 1275.72 Q1813.99 1275.72 1811.02 1271.97 Q1808.08 1268.22 1808.08 1262.11 Q1808.08 1256 1811.02 1252.25 Q1813.99 1248.5 1818.68 1248.5 Q1821.56 1248.5 1823.59 1249.63 Q1825.65 1250.74 1826.99 1253.06 M1812.48 1262.11 Q1812.48 1266.81 1814.4 1269.49 Q1816.35 1272.15 1819.73 1272.15 Q1823.11 1272.15 1825.05 1269.49 Q1826.99 1266.81 1826.99 1262.11 Q1826.99 1257.41 1825.05 1254.75 Q1823.11 1252.06 1819.73 1252.06 Q1816.35 1252.06 1814.4 1254.75 Q1812.48 1257.41 1812.48 1262.11 Z" fill="#000000" fill-rule="nonzero" fill-opacity="1" /><circle clip-path="url(#clip540)" cx="1474.61" cy="1309.61" r="21.9429" fill="#e69f00" fill-rule="evenodd" fill-opacity="1" stroke="#000000" stroke-opacity="1" stroke-width="1.95048"/>
<path clip-path="url(#clip540)" d="M1549.73 1292.33 L1554.4 1292.33 L1554.4 1322.95 L1571.23 1322.95 L1571.23 1326.89 L1549.73 1326.89 L1549.73 1292.33 Z" fill="#000000" fill-rule="nonzero" fill-opacity="1" /><path clip-path="url(#clip540)" d="M1585.17 1303.95 Q1581.74 1303.95 1579.75 1306.63 Q1577.76 1309.29 1577.76 1313.95 Q1577.76 1318.6 1579.73 1321.28 Q1581.72 1323.95 1585.17 1323.95 Q1588.57 1323.95 1590.56 1321.26 Q1592.55 1318.58 1592.55 1313.95 Q1592.55 1309.34 1590.56 1306.66 Q1588.57 1303.95 1585.17 1303.95 M1585.17 1300.34 Q1590.72 1300.34 1593.89 1303.95 Q1597.07 1307.56 1597.07 1313.95 Q1597.07 1320.31 1593.89 1323.95 Q1590.72 1327.56 1585.17 1327.56 Q1579.59 1327.56 1576.42 1323.95 Q1573.27 1320.31 1573.27 1313.95 Q1573.27 1307.56 1576.42 1303.95 Q1579.59 1300.34 1585.17 1300.34 Z" fill="#000000" fill-rule="nonzero" fill-opacity="1" /><path clip-path="url(#clip540)" d="M1615.91 1313.85 Q1610.75 1313.85 1608.76 1315.03 Q1606.76 1316.22 1606.76 1319.06 Q1606.76 1321.33 1608.25 1322.67 Q1609.75 1323.99 1612.32 1323.99 Q1615.86 1323.99 1617.99 1321.49 Q1620.14 1318.97 1620.14 1314.8 L1620.14 1313.85 L1615.91 1313.85 M1624.4 1312.09 L1624.4 1326.89 L1620.14 1326.89 L1620.14 1322.95 Q1618.69 1325.31 1616.51 1326.45 Q1614.33 1327.56 1611.19 1327.56 Q1607.2 1327.56 1604.84 1325.34 Q1602.51 1323.09 1602.51 1319.34 Q1602.51 1314.97 1605.42 1312.74 Q1608.36 1310.52 1614.17 1310.52 L1620.14 1310.52 L1620.14 1310.1 Q1620.14 1307.16 1618.2 1305.57 Q1616.28 1303.95 1612.78 1303.95 Q1610.56 1303.95 1608.45 1304.48 Q1606.35 1305.01 1604.4 1306.08 L1604.4 1302.14 Q1606.74 1301.24 1608.94 1300.8 Q1611.14 1300.34 1613.22 1300.34 Q1618.85 1300.34 1621.63 1303.25 Q1624.4 1306.17 1624.4 1312.09 Z" fill="#000000" fill-rule="nonzero" fill-opacity="1" /><path clip-path="url(#clip540)" d="M1654.73 1311.24 L1654.73 1326.89 L1650.47 1326.89 L1650.47 1311.38 Q1650.47 1307.7 1649.03 1305.87 Q1647.6 1304.04 1644.73 1304.04 Q1641.28 1304.04 1639.29 1306.24 Q1637.3 1308.44 1637.3 1312.23 L1637.3 1326.89 L1633.01 1326.89 L1633.01 1300.96 L1637.3 1300.96 L1637.3 1304.99 Q1638.82 1302.65 1640.88 1301.49 Q1642.97 1300.34 1645.68 1300.34 Q1650.14 1300.34 1652.44 1303.11 Q1654.73 1305.87 1654.73 1311.24 Z" fill="#000000" fill-rule="nonzero" fill-opacity="1" /><path clip-path="url(#clip540)" d="M1682.41 1323 L1682.41 1336.75 L1678.13 1336.75 L1678.13 1300.96 L1682.41 1300.96 L1682.41 1304.9 Q1683.75 1302.58 1685.79 1301.47 Q1687.85 1300.34 1690.7 1300.34 Q1695.42 1300.34 1698.36 1304.09 Q1701.32 1307.84 1701.32 1313.95 Q1701.32 1320.06 1698.36 1323.81 Q1695.42 1327.56 1690.7 1327.56 Q1687.85 1327.56 1685.79 1326.45 Q1683.75 1325.31 1682.41 1323 M1696.9 1313.95 Q1696.9 1309.25 1694.96 1306.59 Q1693.04 1303.9 1689.66 1303.9 Q1686.28 1303.9 1684.33 1306.59 Q1682.41 1309.25 1682.41 1313.95 Q1682.41 1318.65 1684.33 1321.33 Q1686.28 1323.99 1689.66 1323.99 Q1693.04 1323.99 1694.96 1321.33 Q1696.9 1318.65 1696.9 1313.95 Z" fill="#000000" fill-rule="nonzero" fill-opacity="1" /><path clip-path="url(#clip540)" d="M1723.41 1304.94 Q1722.69 1304.53 1721.83 1304.34 Q1721 1304.13 1719.98 1304.13 Q1716.37 1304.13 1714.43 1306.49 Q1712.5 1308.83 1712.5 1313.23 L1712.5 1326.89 L1708.22 1326.89 L1708.22 1300.96 L1712.5 1300.96 L1712.5 1304.99 Q1713.85 1302.63 1716 1301.49 Q1718.15 1300.34 1721.23 1300.34 Q1721.67 1300.34 1722.2 1300.41 Q1722.74 1300.45 1723.38 1300.57 L1723.41 1304.94 Z" fill="#000000" fill-rule="nonzero" fill-opacity="1" /><path clip-path="url(#clip540)" d="M1736.88 1303.95 Q1733.45 1303.95 1731.46 1306.63 Q1729.47 1309.29 1729.47 1313.95 Q1729.47 1318.6 1731.44 1321.28 Q1733.43 1323.95 1736.88 1323.95 Q1740.28 1323.95 1742.27 1321.26 Q1744.26 1318.58 1744.26 1313.95 Q1744.26 1309.34 1742.27 1306.66 Q1740.28 1303.95 1736.88 1303.95 M1736.88 1300.34 Q1742.44 1300.34 1745.61 1303.95 Q1748.78 1307.56 1748.78 1313.95 Q1748.78 1320.31 1745.61 1323.95 Q1742.44 1327.56 1736.88 1327.56 Q1731.3 1327.56 1728.13 1323.95 Q1724.98 1320.31 1724.98 1313.95 Q1724.98 1307.56 1728.13 1303.95 Q1731.3 1300.34 1736.88 1300.34 Z" fill="#000000" fill-rule="nonzero" fill-opacity="1" /><path clip-path="url(#clip540)" d="M1752.78 1300.96 L1757.3 1300.96 L1765.4 1322.72 L1773.5 1300.96 L1778.01 1300.96 L1768.29 1326.89 L1762.5 1326.89 L1752.78 1300.96 Z" fill="#000000" fill-rule="nonzero" fill-opacity="1" /><path clip-path="url(#clip540)" d="M1783.89 1300.96 L1788.15 1300.96 L1788.15 1326.89 L1783.89 1326.89 L1783.89 1300.96 M1783.89 1290.87 L1788.15 1290.87 L1788.15 1296.26 L1783.89 1296.26 L1783.89 1290.87 Z" fill="#000000" fill-rule="nonzero" fill-opacity="1" /><path clip-path="url(#clip540)" d="M1814.12 1304.9 L1814.12 1290.87 L1818.38 1290.87 L1818.38 1326.89 L1814.12 1326.89 L1814.12 1323 Q1812.78 1325.31 1810.72 1326.45 Q1808.68 1327.56 1805.81 1327.56 Q1801.12 1327.56 1798.15 1323.81 Q1795.21 1320.06 1795.21 1313.95 Q1795.21 1307.84 1798.15 1304.09 Q1801.12 1300.34 1805.81 1300.34 Q1808.68 1300.34 1810.72 1301.47 Q1812.78 1302.58 1814.12 1304.9 M1799.61 1313.95 Q1799.61 1318.65 1801.53 1321.33 Q1803.48 1323.99 1806.86 1323.99 Q1810.24 1323.99 1812.18 1321.33 Q1814.12 1318.65 1814.12 1313.95 Q1814.12 1309.25 1812.18 1306.59 Q1810.24 1303.9 1806.86 1303.9 Q1803.48 1303.9 1801.53 1306.59 Q1799.61 1309.25 1799.61 1313.95 Z" fill="#000000" fill-rule="nonzero" fill-opacity="1" /><path clip-path="url(#clip540)" d="M1849.33 1312.86 L1849.33 1314.94 L1829.75 1314.94 Q1830.03 1319.34 1832.39 1321.66 Q1834.77 1323.95 1839.01 1323.95 Q1841.46 1323.95 1843.75 1323.34 Q1846.07 1322.74 1848.34 1321.54 L1848.34 1325.57 Q1846.05 1326.54 1843.64 1327.05 Q1841.23 1327.56 1838.75 1327.56 Q1832.55 1327.56 1828.92 1323.95 Q1825.3 1320.34 1825.3 1314.18 Q1825.3 1307.81 1828.73 1304.09 Q1832.18 1300.34 1838.01 1300.34 Q1843.24 1300.34 1846.28 1303.72 Q1849.33 1307.07 1849.33 1312.86 M1845.07 1311.61 Q1845.03 1308.11 1843.11 1306.03 Q1841.21 1303.95 1838.06 1303.95 Q1834.49 1303.95 1832.34 1305.96 Q1830.21 1307.97 1829.89 1311.63 L1845.07 1311.61 Z" fill="#000000" fill-rule="nonzero" fill-opacity="1" /><path clip-path="url(#clip540)" d="M1873.38 1304.9 L1873.38 1290.87 L1877.64 1290.87 L1877.64 1326.89 L1873.38 1326.89 L1873.38 1323 Q1872.04 1325.31 1869.98 1326.45 Q1867.94 1327.56 1865.07 1327.56 Q1860.37 1327.56 1857.41 1323.81 Q1854.47 1320.06 1854.47 1313.95 Q1854.47 1307.84 1857.41 1304.09 Q1860.37 1300.34 1865.07 1300.34 Q1867.94 1300.34 1869.98 1301.47 Q1872.04 1302.58 1873.38 1304.9 M1858.87 1313.95 Q1858.87 1318.65 1860.79 1321.33 Q1862.74 1323.99 1866.11 1323.99 Q1869.49 1323.99 1871.44 1321.33 Q1873.38 1318.65 1873.38 1313.95 Q1873.38 1309.25 1871.44 1306.59 Q1869.49 1303.9 1866.11 1303.9 Q1862.74 1303.9 1860.79 1306.59 Q1858.87 1309.25 1858.87 1313.95 Z" fill="#000000" fill-rule="nonzero" fill-opacity="1" /></svg>
