<?xml version="1.0" encoding="utf-8"?>
<svg xmlns="http://www.w3.org/2000/svg" xmlns:xlink="http://www.w3.org/1999/xlink" width="800" height="350" viewBox="0 0 3200 1400">
<defs>
  <clipPath id="clip500">
    <rect x="0" y="0" width="3200" height="1400"/>
  </clipPath>
</defs>
<path clip-path="url(#clip500)" d="M0 1400 L3200 1400 L3200 0 L0 0  Z" fill="#ffffff" fill-rule="evenodd" fill-opacity="1"/>
<defs>
  <clipPath id="clip501">
    <rect x="640" y="0" width="2241" height="1400"/>
  </clipPath>
</defs>
<defs>
  <clipPath id="clip502">
    <rect x="201" y="102" width="1375" height="1199"/>
  </clipPath>
</defs>
<path clip-path="url(#clip502)" d="M711.137 968.977 L711.137 847.023 L798.93 786.046 L950.991 821.251 L950.991 943.205 L863.199 1004.18 L711.137 968.977  Z" fill="#ffffff" fill-rule="evenodd" fill-opacity="1"/>
<polyline clip-path="url(#clip502)" style="stroke:#000000; stroke-linecap:round; stroke-linejoin:round; stroke-width:2; stroke-opacity:0.1; fill:none" points="538.802,1099.44 884.532,800.03 884.532,201.208 "/>
<polyline clip-path="url(#clip502)" style="stroke:#000000; stroke-linecap:round; stroke-linejoin:round; stroke-width:2; stroke-opacity:0.1; fill:none" points="690.863,1143.34 1036.59,843.927 1036.59,245.104 "/>
<polyline clip-path="url(#clip502)" style="stroke:#000000; stroke-linecap:round; stroke-linejoin:round; stroke-width:2; stroke-opacity:0.1; fill:none" points="842.925,1187.23 1188.66,887.823 1188.66,289.001 "/>
<polyline clip-path="url(#clip502)" style="stroke:#000000; stroke-linecap:round; stroke-linejoin:round; stroke-width:2; stroke-opacity:0.1; fill:none" points="994.987,1231.13 1340.72,931.72 1340.72,332.897 "/>
<polyline clip-path="url(#clip500)" style="stroke:#000000; stroke-linecap:round; stroke-linejoin:round; stroke-width:4; stroke-opacity:1; fill:none" points="416.684,1064.19 1015.51,1237.05 "/>
<polyline clip-path="url(#clip500)" style="stroke:#000000; stroke-linecap:round; stroke-linejoin:round; stroke-width:4; stroke-opacity:1; fill:none" points="538.802,1099.44 542.95,1095.85 "/>
<polyline clip-path="url(#clip500)" style="stroke:#000000; stroke-linecap:round; stroke-linejoin:round; stroke-width:4; stroke-opacity:1; fill:none" points="690.863,1143.34 695.012,1139.75 "/>
<polyline clip-path="url(#clip500)" style="stroke:#000000; stroke-linecap:round; stroke-linejoin:round; stroke-width:4; stroke-opacity:1; fill:none" points="842.925,1187.23 847.074,1183.64 "/>
<polyline clip-path="url(#clip500)" style="stroke:#000000; stroke-linecap:round; stroke-linejoin:round; stroke-width:4; stroke-opacity:1; fill:none" points="994.987,1231.13 999.136,1227.54 "/>
<path clip-path="url(#clip500)" d="M470.025 1137.3 L499.701 1137.3 L499.701 1141.24 L470.025 1141.24 L470.025 1137.3 Z" fill="#000000" fill-rule="evenodd" fill-opacity="1" /><path clip-path="url(#clip500)" d="M513.821 1150.2 L530.14 1150.2 L530.14 1154.13 L508.196 1154.13 L508.196 1150.2 Q510.858 1147.44 515.441 1142.81 Q520.048 1138.16 521.228 1136.82 Q523.474 1134.29 524.353 1132.56 Q525.256 1130.8 525.256 1129.11 Q525.256 1126.35 523.312 1124.62 Q521.391 1122.88 518.289 1122.88 Q516.09 1122.88 513.636 1123.65 Q511.205 1124.41 508.428 1125.96 L508.428 1121.24 Q511.252 1120.1 513.705 1119.53 Q516.159 1118.95 518.196 1118.95 Q523.566 1118.95 526.761 1121.63 Q529.955 1124.32 529.955 1128.81 Q529.955 1130.94 529.145 1132.86 Q528.358 1134.76 526.252 1137.35 Q525.673 1138.02 522.571 1141.24 Q519.469 1144.43 513.821 1150.2 Z" fill="#000000" fill-rule="evenodd" fill-opacity="1" /><path clip-path="url(#clip500)" d="M670.258 1166.55 Q666.647 1166.55 664.818 1170.11 Q663.013 1173.65 663.013 1180.78 Q663.013 1187.89 664.818 1191.45 Q666.647 1195 670.258 1195 Q673.892 1195 675.698 1191.45 Q677.526 1187.89 677.526 1180.78 Q677.526 1173.65 675.698 1170.11 Q673.892 1166.55 670.258 1166.55 M670.258 1162.84 Q676.068 1162.84 679.124 1167.45 Q682.202 1172.03 682.202 1180.78 Q682.202 1189.51 679.124 1194.12 Q676.068 1198.7 670.258 1198.7 Q664.448 1198.7 661.369 1194.12 Q658.313 1189.51 658.313 1180.78 Q658.313 1172.03 661.369 1167.45 Q664.448 1162.84 670.258 1162.84 Z" fill="#000000" fill-rule="evenodd" fill-opacity="1" /><path clip-path="url(#clip500)" d="M817.945 1237.99 L834.264 1237.99 L834.264 1241.93 L812.32 1241.93 L812.32 1237.99 Q814.982 1235.24 819.565 1230.61 Q824.171 1225.95 825.352 1224.61 Q827.597 1222.09 828.477 1220.35 Q829.38 1218.59 829.38 1216.9 Q829.38 1214.15 827.435 1212.41 Q825.514 1210.68 822.412 1210.68 Q820.213 1210.68 817.759 1211.44 Q815.329 1212.2 812.551 1213.75 L812.551 1209.03 Q815.375 1207.9 817.829 1207.32 Q820.283 1206.74 822.32 1206.74 Q827.69 1206.74 830.884 1209.43 Q834.079 1212.11 834.079 1216.6 Q834.079 1218.73 833.269 1220.65 Q832.482 1222.55 830.375 1225.14 Q829.796 1225.81 826.695 1229.03 Q823.593 1232.23 817.945 1237.99 Z" fill="#000000" fill-rule="evenodd" fill-opacity="1" /><path clip-path="url(#clip500)" d="M976.742 1255.34 L964.937 1273.78 L976.742 1273.78 L976.742 1255.34 M975.516 1251.26 L981.395 1251.26 L981.395 1273.78 L986.326 1273.78 L986.326 1277.67 L981.395 1277.67 L981.395 1285.82 L976.742 1285.82 L976.742 1277.67 L961.141 1277.67 L961.141 1273.16 L975.516 1251.26 Z" fill="#000000" fill-rule="evenodd" fill-opacity="1" /><polyline clip-path="url(#clip502)" style="stroke:#000000; stroke-linecap:round; stroke-linejoin:round; stroke-width:2; stroke-opacity:0.1; fill:none" points="1062.07,1196.73 463.249,1023.86 463.249,425.04 "/>
<polyline clip-path="url(#clip502)" style="stroke:#000000; stroke-linecap:round; stroke-linejoin:round; stroke-width:2; stroke-opacity:0.1; fill:none" points="1132.48,1135.75 533.659,962.886 533.659,364.063 "/>
<polyline clip-path="url(#clip502)" style="stroke:#000000; stroke-linecap:round; stroke-linejoin:round; stroke-width:2; stroke-opacity:0.1; fill:none" points="1202.89,1074.77 604.069,901.909 604.069,303.086 "/>
<polyline clip-path="url(#clip502)" style="stroke:#000000; stroke-linecap:round; stroke-linejoin:round; stroke-width:2; stroke-opacity:0.1; fill:none" points="1273.3,1013.8 674.479,840.932 674.479,242.109 "/>
<polyline clip-path="url(#clip502)" style="stroke:#000000; stroke-linecap:round; stroke-linejoin:round; stroke-width:2; stroke-opacity:0.1; fill:none" points="1343.71,952.82 744.889,779.955 744.889,181.132 "/>
<polyline clip-path="url(#clip500)" style="stroke:#000000; stroke-linecap:round; stroke-linejoin:round; stroke-width:4; stroke-opacity:1; fill:none" points="1015.51,1237.05 1361.24,937.643 "/>
<polyline clip-path="url(#clip500)" style="stroke:#000000; stroke-linecap:round; stroke-linejoin:round; stroke-width:4; stroke-opacity:1; fill:none" points="1062.07,1196.73 1054.89,1194.65 "/>
<polyline clip-path="url(#clip500)" style="stroke:#000000; stroke-linecap:round; stroke-linejoin:round; stroke-width:4; stroke-opacity:1; fill:none" points="1132.48,1135.75 1125.3,1133.68 "/>
<polyline clip-path="url(#clip500)" style="stroke:#000000; stroke-linecap:round; stroke-linejoin:round; stroke-width:4; stroke-opacity:1; fill:none" points="1202.89,1074.77 1195.71,1072.7 "/>
<polyline clip-path="url(#clip500)" style="stroke:#000000; stroke-linecap:round; stroke-linejoin:round; stroke-width:4; stroke-opacity:1; fill:none" points="1273.3,1013.8 1266.12,1011.72 "/>
<polyline clip-path="url(#clip500)" style="stroke:#000000; stroke-linecap:round; stroke-linejoin:round; stroke-width:4; stroke-opacity:1; fill:none" points="1343.71,952.82 1336.53,950.746 "/>
<path clip-path="url(#clip500)" d="M1083.98 1228.72 L1113.65 1228.72 L1113.65 1232.65 L1083.98 1232.65 L1083.98 1228.72 Z" fill="#000000" fill-rule="evenodd" fill-opacity="1" /><path clip-path="url(#clip500)" d="M1127.77 1241.61 L1144.09 1241.61 L1144.09 1245.55 L1122.15 1245.55 L1122.15 1241.61 Q1124.81 1238.86 1129.39 1234.23 Q1134 1229.58 1135.18 1228.23 Q1137.43 1225.71 1138.31 1223.97 Q1139.21 1222.21 1139.21 1220.52 Q1139.21 1217.77 1137.26 1216.03 Q1135.34 1214.3 1132.24 1214.3 Q1130.04 1214.3 1127.59 1215.06 Q1125.16 1215.83 1122.38 1217.38 L1122.38 1212.65 Q1125.2 1211.52 1127.66 1210.94 Q1130.11 1210.36 1132.15 1210.36 Q1137.52 1210.36 1140.71 1213.05 Q1143.91 1215.73 1143.91 1220.22 Q1143.91 1222.35 1143.1 1224.27 Q1142.31 1226.17 1140.2 1228.77 Q1139.62 1229.44 1136.52 1232.65 Q1133.42 1235.85 1127.77 1241.61 Z" fill="#000000" fill-rule="evenodd" fill-opacity="1" /><path clip-path="url(#clip500)" d="M1166.33 1153.09 Q1162.72 1153.09 1160.89 1156.65 Q1159.09 1160.2 1159.09 1167.33 Q1159.09 1174.43 1160.89 1178 Q1162.72 1181.54 1166.33 1181.54 Q1169.97 1181.54 1171.77 1178 Q1173.6 1174.43 1173.6 1167.33 Q1173.6 1160.2 1171.77 1156.65 Q1169.97 1153.09 1166.33 1153.09 M1166.33 1149.39 Q1172.14 1149.39 1175.2 1153.99 Q1178.28 1158.58 1178.28 1167.33 Q1178.28 1176.05 1175.2 1180.66 Q1172.14 1185.24 1166.33 1185.24 Q1160.52 1185.24 1157.44 1180.66 Q1154.39 1176.05 1154.39 1167.33 Q1154.39 1158.58 1157.44 1153.99 Q1160.52 1149.39 1166.33 1149.39 Z" fill="#000000" fill-rule="evenodd" fill-opacity="1" /><path clip-path="url(#clip500)" d="M1230.42 1119.66 L1246.74 1119.66 L1246.74 1123.59 L1224.8 1123.59 L1224.8 1119.66 Q1227.46 1116.9 1232.04 1112.27 Q1236.65 1107.62 1237.83 1106.28 Q1240.08 1103.76 1240.95 1102.02 Q1241.86 1100.26 1241.86 1098.57 Q1241.86 1095.82 1239.91 1094.08 Q1237.99 1092.34 1234.89 1092.34 Q1232.69 1092.34 1230.24 1093.11 Q1227.81 1093.87 1225.03 1095.42 L1225.03 1090.7 Q1227.85 1089.57 1230.31 1088.99 Q1232.76 1088.41 1234.8 1088.41 Q1240.17 1088.41 1243.36 1091.09 Q1246.56 1093.78 1246.56 1098.27 Q1246.56 1100.4 1245.75 1102.32 Q1244.96 1104.22 1242.85 1106.81 Q1242.27 1107.48 1239.17 1110.7 Q1236.07 1113.89 1230.42 1119.66 Z" fill="#000000" fill-rule="evenodd" fill-opacity="1" /><path clip-path="url(#clip500)" d="M1310.81 1032.13 L1299 1050.58 L1310.81 1050.58 L1310.81 1032.13 M1309.58 1028.06 L1315.46 1028.06 L1315.46 1050.58 L1320.39 1050.58 L1320.39 1054.47 L1315.46 1054.47 L1315.46 1062.62 L1310.81 1062.62 L1310.81 1054.47 L1295.21 1054.47 L1295.21 1049.95 L1309.58 1028.06 Z" fill="#000000" fill-rule="evenodd" fill-opacity="1" /><path clip-path="url(#clip500)" d="M1377.96 982.496 Q1374.81 982.496 1372.96 984.649 Q1371.13 986.801 1371.13 990.551 Q1371.13 994.278 1372.96 996.454 Q1374.81 998.607 1377.96 998.607 Q1381.1 998.607 1382.93 996.454 Q1384.78 994.278 1384.78 990.551 Q1384.78 986.801 1382.93 984.649 Q1381.1 982.496 1377.96 982.496 M1387.24 967.843 L1387.24 972.102 Q1385.48 971.269 1383.67 970.829 Q1381.89 970.39 1380.13 970.39 Q1375.5 970.39 1373.05 973.514 Q1370.62 976.639 1370.27 982.959 Q1371.64 980.945 1373.7 979.88 Q1375.76 978.792 1378.23 978.792 Q1383.44 978.792 1386.45 981.964 Q1389.48 985.112 1389.48 990.551 Q1389.48 995.875 1386.34 999.093 Q1383.19 1002.31 1377.96 1002.31 Q1371.96 1002.31 1368.79 997.727 Q1365.62 993.121 1365.62 984.394 Q1365.62 976.2 1369.51 971.339 Q1373.4 966.454 1379.95 966.454 Q1381.71 966.454 1383.49 966.802 Q1385.29 967.149 1387.24 967.843 Z" fill="#000000" fill-rule="evenodd" fill-opacity="1" /><polyline clip-path="url(#clip502)" style="stroke:#000000; stroke-linecap:round; stroke-linejoin:round; stroke-width:2; stroke-opacity:0.1; fill:none" points="416.684,988.673 762.414,689.261 1361.24,862.127 "/>
<polyline clip-path="url(#clip502)" style="stroke:#000000; stroke-linecap:round; stroke-linejoin:round; stroke-width:2; stroke-opacity:0.1; fill:none" points="416.684,895.221 762.414,595.81 1361.24,768.675 "/>
<polyline clip-path="url(#clip502)" style="stroke:#000000; stroke-linecap:round; stroke-linejoin:round; stroke-width:2; stroke-opacity:0.1; fill:none" points="416.684,801.77 762.414,502.359 1361.24,675.224 "/>
<polyline clip-path="url(#clip502)" style="stroke:#000000; stroke-linecap:round; stroke-linejoin:round; stroke-width:2; stroke-opacity:0.1; fill:none" points="416.684,708.319 762.414,408.907 1361.24,581.773 "/>
<polyline clip-path="url(#clip502)" style="stroke:#000000; stroke-linecap:round; stroke-linejoin:round; stroke-width:2; stroke-opacity:0.1; fill:none" points="416.684,614.868 762.414,315.456 1361.24,488.321 "/>
<polyline clip-path="url(#clip502)" style="stroke:#000000; stroke-linecap:round; stroke-linejoin:round; stroke-width:2; stroke-opacity:0.1; fill:none" points="416.684,521.416 762.414,222.005 1361.24,394.87 "/>
<polyline clip-path="url(#clip500)" style="stroke:#000000; stroke-linecap:round; stroke-linejoin:round; stroke-width:4; stroke-opacity:1; fill:none" points="416.684,1064.19 416.684,465.367 "/>
<polyline clip-path="url(#clip500)" style="stroke:#000000; stroke-linecap:round; stroke-linejoin:round; stroke-width:4; stroke-opacity:1; fill:none" points="416.684,988.673 420.833,985.08 "/>
<polyline clip-path="url(#clip500)" style="stroke:#000000; stroke-linecap:round; stroke-linejoin:round; stroke-width:4; stroke-opacity:1; fill:none" points="416.684,895.221 420.833,891.629 "/>
<polyline clip-path="url(#clip500)" style="stroke:#000000; stroke-linecap:round; stroke-linejoin:round; stroke-width:4; stroke-opacity:1; fill:none" points="416.684,801.77 420.833,798.177 "/>
<polyline clip-path="url(#clip500)" style="stroke:#000000; stroke-linecap:round; stroke-linejoin:round; stroke-width:4; stroke-opacity:1; fill:none" points="416.684,708.319 420.833,704.726 "/>
<polyline clip-path="url(#clip500)" style="stroke:#000000; stroke-linecap:round; stroke-linejoin:round; stroke-width:4; stroke-opacity:1; fill:none" points="416.684,614.868 420.833,611.275 "/>
<polyline clip-path="url(#clip500)" style="stroke:#000000; stroke-linecap:round; stroke-linejoin:round; stroke-width:4; stroke-opacity:1; fill:none" points="416.684,521.416 420.833,517.823 "/>
<path clip-path="url(#clip500)" d="M272.335 989.124 L302.011 989.124 L302.011 993.059 L272.335 993.059 L272.335 989.124 Z" fill="#000000" fill-rule="evenodd" fill-opacity="1" /><path clip-path="url(#clip500)" d="M310.923 971.393 L333.145 971.393 L333.145 973.384 L320.599 1005.95 L315.715 1005.95 L327.52 975.328 L310.923 975.328 L310.923 971.393 Z" fill="#000000" fill-rule="evenodd" fill-opacity="1" /><path clip-path="url(#clip500)" d="M342.265 1000.07 L347.15 1000.07 L347.15 1005.95 L342.265 1005.95 L342.265 1000.07 Z" fill="#000000" fill-rule="evenodd" fill-opacity="1" /><path clip-path="url(#clip500)" d="M357.381 971.393 L375.737 971.393 L375.737 975.328 L361.663 975.328 L361.663 983.8 Q362.682 983.453 363.701 983.291 Q364.719 983.106 365.738 983.106 Q371.525 983.106 374.904 986.277 Q378.284 989.448 378.284 994.865 Q378.284 1000.44 374.812 1003.55 Q371.339 1006.62 365.02 1006.62 Q362.844 1006.62 360.576 1006.25 Q358.33 1005.88 355.923 1005.14 L355.923 1000.44 Q358.006 1001.58 360.228 1002.13 Q362.451 1002.69 364.927 1002.69 Q368.932 1002.69 371.27 1000.58 Q373.608 998.476 373.608 994.865 Q373.608 991.254 371.27 989.147 Q368.932 987.041 364.927 987.041 Q363.052 987.041 361.177 987.458 Q359.326 987.874 357.381 988.754 L357.381 971.393 Z" fill="#000000" fill-rule="evenodd" fill-opacity="1" /><path clip-path="url(#clip500)" d="M271.34 895.673 L301.016 895.673 L301.016 899.608 L271.34 899.608 L271.34 895.673 Z" fill="#000000" fill-rule="evenodd" fill-opacity="1" /><path clip-path="url(#clip500)" d="M311.154 877.941 L329.511 877.941 L329.511 881.877 L315.437 881.877 L315.437 890.349 Q316.455 890.002 317.474 889.84 Q318.492 889.654 319.511 889.654 Q325.298 889.654 328.678 892.826 Q332.057 895.997 332.057 901.414 Q332.057 906.992 328.585 910.094 Q325.113 913.173 318.793 913.173 Q316.617 913.173 314.349 912.802 Q312.104 912.432 309.696 911.691 L309.696 906.992 Q311.779 908.126 314.002 908.682 Q316.224 909.238 318.701 909.238 Q322.705 909.238 325.043 907.131 Q327.381 905.025 327.381 901.414 Q327.381 897.802 325.043 895.696 Q322.705 893.59 318.701 893.59 Q316.826 893.59 314.951 894.006 Q313.099 894.423 311.154 895.302 L311.154 877.941 Z" fill="#000000" fill-rule="evenodd" fill-opacity="1" /><path clip-path="url(#clip500)" d="M341.27 906.622 L346.154 906.622 L346.154 912.501 L341.27 912.501 L341.27 906.622 Z" fill="#000000" fill-rule="evenodd" fill-opacity="1" /><path clip-path="url(#clip500)" d="M366.339 881.02 Q362.728 881.02 360.9 884.585 Q359.094 888.127 359.094 895.256 Q359.094 902.363 360.9 905.927 Q362.728 909.469 366.339 909.469 Q369.974 909.469 371.779 905.927 Q373.608 902.363 373.608 895.256 Q373.608 888.127 371.779 884.585 Q369.974 881.02 366.339 881.02 M366.339 877.316 Q372.15 877.316 375.205 881.923 Q378.284 886.506 378.284 895.256 Q378.284 903.983 375.205 908.589 Q372.15 913.173 366.339 913.173 Q360.529 913.173 357.451 908.589 Q354.395 903.983 354.395 895.256 Q354.395 886.506 357.451 881.923 Q360.529 877.316 366.339 877.316 Z" fill="#000000" fill-rule="evenodd" fill-opacity="1" /><path clip-path="url(#clip500)" d="M272.335 802.222 L302.011 802.222 L302.011 806.157 L272.335 806.157 L272.335 802.222 Z" fill="#000000" fill-rule="evenodd" fill-opacity="1" /><path clip-path="url(#clip500)" d="M316.131 815.115 L332.451 815.115 L332.451 819.05 L310.506 819.05 L310.506 815.115 Q313.168 812.36 317.752 807.731 Q322.358 803.078 323.539 801.735 Q325.784 799.212 326.664 797.476 Q327.566 795.717 327.566 794.027 Q327.566 791.273 325.622 789.536 Q323.701 787.8 320.599 787.8 Q318.4 787.8 315.946 788.564 Q313.516 789.328 310.738 790.879 L310.738 786.157 Q313.562 785.023 316.016 784.444 Q318.469 783.865 320.506 783.865 Q325.877 783.865 329.071 786.55 Q332.265 789.236 332.265 793.726 Q332.265 795.856 331.455 797.777 Q330.668 799.675 328.562 802.268 Q327.983 802.939 324.881 806.157 Q321.779 809.351 316.131 815.115 Z" fill="#000000" fill-rule="evenodd" fill-opacity="1" /><path clip-path="url(#clip500)" d="M342.265 813.171 L347.15 813.171 L347.15 819.05 L342.265 819.05 L342.265 813.171 Z" fill="#000000" fill-rule="evenodd" fill-opacity="1" /><path clip-path="url(#clip500)" d="M357.381 784.49 L375.737 784.49 L375.737 788.425 L361.663 788.425 L361.663 796.898 Q362.682 796.55 363.701 796.388 Q364.719 796.203 365.738 796.203 Q371.525 796.203 374.904 799.374 Q378.284 802.546 378.284 807.962 Q378.284 813.541 374.812 816.643 Q371.339 819.721 365.02 819.721 Q362.844 819.721 360.576 819.351 Q358.33 818.981 355.923 818.24 L355.923 813.541 Q358.006 814.675 360.228 815.231 Q362.451 815.786 364.927 815.786 Q368.932 815.786 371.27 813.68 Q373.608 811.573 373.608 807.962 Q373.608 804.351 371.27 802.245 Q368.932 800.138 364.927 800.138 Q363.052 800.138 361.177 800.555 Q359.326 800.972 357.381 801.851 L357.381 784.49 Z" fill="#000000" fill-rule="evenodd" fill-opacity="1" /><path clip-path="url(#clip500)" d="M321.108 694.118 Q317.497 694.118 315.668 697.682 Q313.863 701.224 313.863 708.354 Q313.863 715.46 315.668 719.025 Q317.497 722.566 321.108 722.566 Q324.742 722.566 326.548 719.025 Q328.377 715.46 328.377 708.354 Q328.377 701.224 326.548 697.682 Q324.742 694.118 321.108 694.118 M321.108 690.414 Q326.918 690.414 329.974 695.02 Q333.053 699.604 333.053 708.354 Q333.053 717.08 329.974 721.687 Q326.918 726.27 321.108 726.27 Q315.298 726.27 312.219 721.687 Q309.164 717.08 309.164 708.354 Q309.164 699.604 312.219 695.02 Q315.298 690.414 321.108 690.414 Z" fill="#000000" fill-rule="evenodd" fill-opacity="1" /><path clip-path="url(#clip500)" d="M341.27 719.719 L346.154 719.719 L346.154 725.599 L341.27 725.599 L341.27 719.719 Z" fill="#000000" fill-rule="evenodd" fill-opacity="1" /><path clip-path="url(#clip500)" d="M366.339 694.118 Q362.728 694.118 360.9 697.682 Q359.094 701.224 359.094 708.354 Q359.094 715.46 360.9 719.025 Q362.728 722.566 366.339 722.566 Q369.974 722.566 371.779 719.025 Q373.608 715.46 373.608 708.354 Q373.608 701.224 371.779 697.682 Q369.974 694.118 366.339 694.118 M366.339 690.414 Q372.15 690.414 375.205 695.02 Q378.284 699.604 378.284 708.354 Q378.284 717.08 375.205 721.687 Q372.15 726.27 366.339 726.27 Q360.529 726.27 357.451 721.687 Q354.395 717.08 354.395 708.354 Q354.395 699.604 357.451 695.02 Q360.529 690.414 366.339 690.414 Z" fill="#000000" fill-rule="evenodd" fill-opacity="1" /><path clip-path="url(#clip500)" d="M316.131 628.212 L332.451 628.212 L332.451 632.148 L310.506 632.148 L310.506 628.212 Q313.168 625.458 317.752 620.828 Q322.358 616.175 323.539 614.833 Q325.784 612.31 326.664 610.574 Q327.566 608.814 327.566 607.125 Q327.566 604.37 325.622 602.634 Q323.701 600.898 320.599 600.898 Q318.4 600.898 315.946 601.662 Q313.516 602.426 310.738 603.976 L310.738 599.254 Q313.562 598.12 316.016 597.541 Q318.469 596.963 320.506 596.963 Q325.877 596.963 329.071 599.648 Q332.265 602.333 332.265 606.824 Q332.265 608.953 331.455 610.875 Q330.668 612.773 328.562 615.365 Q327.983 616.037 324.881 619.254 Q321.779 622.449 316.131 628.212 Z" fill="#000000" fill-rule="evenodd" fill-opacity="1" /><path clip-path="url(#clip500)" d="M342.265 626.268 L347.15 626.268 L347.15 632.148 L342.265 632.148 L342.265 626.268 Z" fill="#000000" fill-rule="evenodd" fill-opacity="1" /><path clip-path="url(#clip500)" d="M357.381 597.588 L375.737 597.588 L375.737 601.523 L361.663 601.523 L361.663 609.995 Q362.682 609.648 363.701 609.486 Q364.719 609.3 365.738 609.3 Q371.525 609.3 374.904 612.472 Q378.284 615.643 378.284 621.06 Q378.284 626.638 374.812 629.74 Q371.339 632.819 365.02 632.819 Q362.844 632.819 360.576 632.449 Q358.33 632.078 355.923 631.337 L355.923 626.638 Q358.006 627.773 360.228 628.328 Q362.451 628.884 364.927 628.884 Q368.932 628.884 371.27 626.777 Q373.608 624.671 373.608 621.06 Q373.608 617.449 371.27 615.342 Q368.932 613.236 364.927 613.236 Q363.052 613.236 361.177 613.652 Q359.326 614.069 357.381 614.949 L357.381 597.588 Z" fill="#000000" fill-rule="evenodd" fill-opacity="1" /><path clip-path="url(#clip500)" d="M311.154 504.136 L329.511 504.136 L329.511 508.071 L315.437 508.071 L315.437 516.544 Q316.455 516.196 317.474 516.034 Q318.492 515.849 319.511 515.849 Q325.298 515.849 328.678 519.02 Q332.057 522.192 332.057 527.608 Q332.057 533.187 328.585 536.289 Q325.113 539.368 318.793 539.368 Q316.617 539.368 314.349 538.997 Q312.104 538.627 309.696 537.886 L309.696 533.187 Q311.779 534.321 314.002 534.877 Q316.224 535.432 318.701 535.432 Q322.705 535.432 325.043 533.326 Q327.381 531.219 327.381 527.608 Q327.381 523.997 325.043 521.891 Q322.705 519.784 318.701 519.784 Q316.826 519.784 314.951 520.201 Q313.099 520.618 311.154 521.497 L311.154 504.136 Z" fill="#000000" fill-rule="evenodd" fill-opacity="1" /><path clip-path="url(#clip500)" d="M341.27 532.817 L346.154 532.817 L346.154 538.696 L341.27 538.696 L341.27 532.817 Z" fill="#000000" fill-rule="evenodd" fill-opacity="1" /><path clip-path="url(#clip500)" d="M366.339 507.215 Q362.728 507.215 360.9 510.78 Q359.094 514.321 359.094 521.451 Q359.094 528.557 360.9 532.122 Q362.728 535.664 366.339 535.664 Q369.974 535.664 371.779 532.122 Q373.608 528.557 373.608 521.451 Q373.608 514.321 371.779 510.78 Q369.974 507.215 366.339 507.215 M366.339 503.511 Q372.15 503.511 375.205 508.118 Q378.284 512.701 378.284 521.451 Q378.284 530.178 375.205 534.784 Q372.15 539.368 366.339 539.368 Q360.529 539.368 357.451 534.784 Q354.395 530.178 354.395 521.451 Q354.395 512.701 357.451 508.118 Q360.529 503.511 366.339 503.511 Z" fill="#000000" fill-rule="evenodd" fill-opacity="1" /><path clip-path="url(#clip500)" d="M506.697 12.096 L541.454 12.096 L541.454 18.9825 L514.88 18.9825 L514.88 36.8065 L538.861 36.8065 L538.861 43.6931 L514.88 43.6931 L514.88 72.576 L506.697 72.576 L506.697 12.096 Z" fill="#000000" fill-rule="evenodd" fill-opacity="1" /><path clip-path="url(#clip500)" d="M588.363 48.0275 L588.363 51.6733 L554.092 51.6733 Q554.579 59.3701 558.711 63.421 Q562.883 67.4314 570.296 67.4314 Q574.59 67.4314 578.6 66.3781 Q582.651 65.3249 586.621 63.2184 L586.621 70.267 Q582.611 71.9684 578.398 72.8596 Q574.185 73.7508 569.85 73.7508 Q558.994 73.7508 552.634 67.4314 Q546.315 61.1119 546.315 50.3365 Q546.315 39.1965 552.31 32.6746 Q558.346 26.1121 568.554 26.1121 Q577.709 26.1121 583.016 32.0264 Q588.363 37.9003 588.363 48.0275 M580.909 45.84 Q580.828 39.7232 577.466 36.0774 Q574.144 32.4315 568.635 32.4315 Q562.397 32.4315 558.629 35.9558 Q554.903 39.4801 554.336 45.8805 L580.909 45.84 Z" fill="#000000" fill-rule="evenodd" fill-opacity="1" /><path clip-path="url(#clip500)" d="M621.216 49.7694 Q612.182 49.7694 608.699 51.8354 Q605.215 53.9013 605.215 58.8839 Q605.215 62.8538 607.807 65.2034 Q610.441 67.5124 614.937 67.5124 Q621.135 67.5124 624.862 63.1374 Q628.629 58.7219 628.629 51.4303 L628.629 49.7694 L621.216 49.7694 M636.083 46.6907 L636.083 72.576 L628.629 72.576 L628.629 65.6895 Q626.077 69.8214 622.269 71.8063 Q618.461 73.7508 612.952 73.7508 Q605.985 73.7508 601.853 69.8619 Q597.761 65.9325 597.761 59.3701 Q597.761 51.7138 602.865 47.825 Q608.01 43.9361 618.178 43.9361 L628.629 43.9361 L628.629 43.2069 Q628.629 38.0623 625.226 35.2672 Q621.864 32.4315 615.747 32.4315 Q611.858 32.4315 608.172 33.3632 Q604.486 34.295 601.083 36.1584 L601.083 29.2718 Q605.174 27.692 609.023 26.9223 Q612.871 26.1121 616.517 26.1121 Q626.361 26.1121 631.222 31.2163 Q636.083 36.3204 636.083 46.6907 Z" fill="#000000" fill-rule="evenodd" fill-opacity="1" /><path clip-path="url(#clip500)" d="M658.808 14.324 L658.808 27.2059 L674.161 27.2059 L674.161 32.9987 L658.808 32.9987 L658.808 57.6282 Q658.808 63.1779 660.307 64.7578 Q661.847 66.3376 666.505 66.3376 L674.161 66.3376 L674.161 72.576 L666.505 72.576 Q657.877 72.576 654.595 69.3758 Q651.314 66.1351 651.314 57.6282 L651.314 32.9987 L645.845 32.9987 L645.845 27.2059 L651.314 27.2059 L651.314 14.324 L658.808 14.324 Z" fill="#000000" fill-rule="evenodd" fill-opacity="1" /><path clip-path="url(#clip500)" d="M683.195 54.671 L683.195 27.2059 L690.648 27.2059 L690.648 54.3874 Q690.648 60.8284 693.16 64.0691 Q695.672 67.2693 700.695 67.2693 Q706.731 67.2693 710.214 63.421 Q713.739 59.5726 713.739 52.9291 L713.739 27.2059 L721.192 27.2059 L721.192 72.576 L713.739 72.576 L713.739 65.6084 Q711.025 69.7404 707.419 71.7658 Q703.854 73.7508 699.115 73.7508 Q691.297 73.7508 687.246 68.8897 Q683.195 64.0286 683.195 54.671 M701.95 26.1121 L701.95 26.1121 Z" fill="#000000" fill-rule="evenodd" fill-opacity="1" /><path clip-path="url(#clip500)" d="M762.836 34.1734 Q761.58 33.4443 760.081 33.1202 Q758.623 32.7556 756.84 32.7556 Q750.521 32.7556 747.118 36.8875 Q743.756 40.9789 743.756 48.6757 L743.756 72.576 L736.262 72.576 L736.262 27.2059 L743.756 27.2059 L743.756 34.2544 Q746.105 30.1225 749.873 28.1376 Q753.64 26.1121 759.028 26.1121 Q759.797 26.1121 760.729 26.2337 Q761.661 26.3147 762.795 26.5172 L762.836 34.1734 Z" fill="#000000" fill-rule="evenodd" fill-opacity="1" /><path clip-path="url(#clip500)" d="M807.639 48.0275 L807.639 51.6733 L773.368 51.6733 Q773.854 59.3701 777.986 63.421 Q782.158 67.4314 789.572 67.4314 Q793.865 67.4314 797.876 66.3781 Q801.927 65.3249 805.897 63.2184 L805.897 70.267 Q801.886 71.9684 797.673 72.8596 Q793.46 73.7508 789.126 73.7508 Q778.27 73.7508 771.91 67.4314 Q765.59 61.1119 765.59 50.3365 Q765.59 39.1965 771.586 32.6746 Q777.621 26.1121 787.83 26.1121 Q796.985 26.1121 802.291 32.0264 Q807.639 37.9003 807.639 48.0275 M800.185 45.84 Q800.104 39.7232 796.742 36.0774 Q793.42 32.4315 787.911 32.4315 Q781.672 32.4315 777.905 35.9558 Q774.178 39.4801 773.611 45.8805 L800.185 45.84 Z" fill="#000000" fill-rule="evenodd" fill-opacity="1" /><path clip-path="url(#clip500)" d="M875.167 28.5427 L875.167 35.5912 Q872.007 33.9709 868.605 33.1607 Q865.202 32.3505 861.556 32.3505 Q856.006 32.3505 853.211 34.0519 Q850.457 35.7533 850.457 39.156 Q850.457 41.7486 852.442 43.2475 Q854.427 44.7058 860.422 46.0426 L862.974 46.6097 Q870.914 48.3111 874.235 51.4303 Q877.598 54.509 877.598 60.0587 Q877.598 66.3781 872.575 70.0644 Q867.592 73.7508 858.842 73.7508 Q855.196 73.7508 851.226 73.0216 Q847.297 72.3329 842.922 70.9151 L842.922 63.2184 Q847.054 65.3654 851.064 66.4591 Q855.075 67.5124 859.004 67.5124 Q864.27 67.5124 867.106 65.73 Q869.941 63.9071 869.941 60.6258 Q869.941 57.5877 867.876 55.9673 Q865.85 54.3469 858.923 52.8481 L856.33 52.2405 Q849.403 50.7821 846.325 47.7845 Q843.246 44.7463 843.246 39.4801 Q843.246 33.0797 847.783 29.5959 Q852.32 26.1121 860.665 26.1121 Q864.797 26.1121 868.443 26.7198 Q872.088 27.3274 875.167 28.5427 Z" fill="#000000" fill-rule="evenodd" fill-opacity="1" /><path clip-path="url(#clip500)" d="M896.677 65.7705 L896.677 89.8329 L889.183 89.8329 L889.183 27.2059 L896.677 27.2059 L896.677 34.0924 Q899.027 30.0415 902.592 28.0971 Q906.197 26.1121 911.18 26.1121 Q919.444 26.1121 924.588 32.6746 Q929.773 39.2371 929.773 49.9314 Q929.773 60.6258 924.588 67.1883 Q919.444 73.7508 911.18 73.7508 Q906.197 73.7508 902.592 71.8063 Q899.027 69.8214 896.677 65.7705 M922.036 49.9314 Q922.036 41.7081 918.633 37.0496 Q915.271 32.3505 909.357 32.3505 Q903.442 32.3505 900.04 37.0496 Q896.677 41.7081 896.677 49.9314 Q896.677 58.1548 900.04 62.8538 Q903.442 67.5124 909.357 67.5124 Q915.271 67.5124 918.633 62.8538 Q922.036 58.1548 922.036 49.9314 Z" fill="#000000" fill-rule="evenodd" fill-opacity="1" /><path clip-path="url(#clip500)" d="M962.748 49.7694 Q953.714 49.7694 950.23 51.8354 Q946.747 53.9013 946.747 58.8839 Q946.747 62.8538 949.339 65.2034 Q951.972 67.5124 956.469 67.5124 Q962.667 67.5124 966.394 63.1374 Q970.161 58.7219 970.161 51.4303 L970.161 49.7694 L962.748 49.7694 M977.615 46.6907 L977.615 72.576 L970.161 72.576 L970.161 65.6895 Q967.609 69.8214 963.801 71.8063 Q959.993 73.7508 954.484 73.7508 Q947.516 73.7508 943.384 69.8619 Q939.293 65.9325 939.293 59.3701 Q939.293 51.7138 944.397 47.825 Q949.542 43.9361 959.71 43.9361 L970.161 43.9361 L970.161 43.2069 Q970.161 38.0623 966.758 35.2672 Q963.396 32.4315 957.279 32.4315 Q953.39 32.4315 949.704 33.3632 Q946.017 34.295 942.615 36.1584 L942.615 29.2718 Q946.706 27.692 950.554 26.9223 Q954.403 26.1121 958.049 26.1121 Q967.892 26.1121 972.753 31.2163 Q977.615 36.3204 977.615 46.6907 Z" fill="#000000" fill-rule="evenodd" fill-opacity="1" /><path clip-path="url(#clip500)" d="M1025.62 28.9478 L1025.62 35.9153 Q1022.46 34.1734 1019.26 33.3227 Q1016.1 32.4315 1012.86 32.4315 Q1005.61 32.4315 1001.6 37.0496 Q997.585 41.6271 997.585 49.9314 Q997.585 58.2358 1001.6 62.8538 Q1005.61 67.4314 1012.86 67.4314 Q1016.1 67.4314 1019.26 66.5807 Q1022.46 65.6895 1025.62 63.9476 L1025.62 70.8341 Q1022.5 72.2924 1019.14 73.0216 Q1015.81 73.7508 1012.05 73.7508 Q1001.8 73.7508 995.763 67.3098 Q989.727 60.8689 989.727 49.9314 Q989.727 38.832 995.803 32.472 Q1001.92 26.1121 1012.53 26.1121 Q1015.98 26.1121 1019.26 26.8413 Q1022.54 27.5299 1025.62 28.9478 Z" fill="#000000" fill-rule="evenodd" fill-opacity="1" /><path clip-path="url(#clip500)" d="M1077.39 48.0275 L1077.39 51.6733 L1043.12 51.6733 Q1043.6 59.3701 1047.74 63.421 Q1051.91 67.4314 1059.32 67.4314 Q1063.62 67.4314 1067.63 66.3781 Q1071.68 65.3249 1075.65 63.2184 L1075.65 70.267 Q1071.64 71.9684 1067.42 72.8596 Q1063.21 73.7508 1058.88 73.7508 Q1048.02 73.7508 1041.66 67.4314 Q1035.34 61.1119 1035.34 50.3365 Q1035.34 39.1965 1041.34 32.6746 Q1047.37 26.1121 1057.58 26.1121 Q1066.73 26.1121 1072.04 32.0264 Q1077.39 37.9003 1077.39 48.0275 M1069.93 45.84 Q1069.85 39.7232 1066.49 36.0774 Q1063.17 32.4315 1057.66 32.4315 Q1051.42 32.4315 1047.65 35.9558 Q1043.93 39.4801 1043.36 45.8805 L1069.93 45.84 Z" fill="#000000" fill-rule="evenodd" fill-opacity="1" /><path clip-path="url(#clip500)" d="M1133.9 9.62495 Q1128.47 18.942 1125.84 28.0566 Q1123.2 37.1711 1123.2 46.5287 Q1123.2 55.8863 1125.84 65.0818 Q1128.51 74.2369 1133.9 83.5134 L1127.42 83.5134 Q1121.34 73.9938 1118.3 64.7983 Q1115.3 55.6027 1115.3 46.5287 Q1115.3 37.4952 1118.3 28.3401 Q1121.3 19.1851 1127.42 9.62495 L1133.9 9.62495 Z" fill="#000000" fill-rule="evenodd" fill-opacity="1" /><path clip-path="url(#clip500)" d="M1174.2 39.9662 Q1180.08 41.222 1183.36 45.1919 Q1186.68 49.1618 1186.68 54.9951 Q1186.68 63.9476 1180.52 68.8492 Q1174.37 73.7508 1163.02 73.7508 Q1159.22 73.7508 1155.17 72.9811 Q1151.16 72.2519 1146.86 70.7531 L1146.86 62.8538 Q1150.26 64.8388 1154.31 65.8515 Q1158.37 66.8642 1162.78 66.8642 Q1170.48 66.8642 1174.49 63.826 Q1178.54 60.7879 1178.54 54.9951 Q1178.54 49.6479 1174.77 46.6502 Q1171.05 43.612 1164.36 43.612 L1157.31 43.612 L1157.31 36.8875 L1164.69 36.8875 Q1170.72 36.8875 1173.92 34.4975 Q1177.12 32.067 1177.12 27.5299 Q1177.12 22.8714 1173.8 20.4004 Q1170.52 17.8888 1164.36 17.8888 Q1161 17.8888 1157.15 18.618 Q1153.3 19.3471 1148.68 20.8865 L1148.68 13.5948 Q1153.34 12.2985 1157.39 11.6504 Q1161.49 11.0023 1165.09 11.0023 Q1174.41 11.0023 1179.84 15.2557 Q1185.26 19.4686 1185.26 26.6793 Q1185.26 31.7024 1182.39 35.1862 Q1179.51 38.6294 1174.2 39.9662 Z" fill="#000000" fill-rule="evenodd" fill-opacity="1" /><path clip-path="url(#clip500)" d="M1231 34.0924 L1231 9.54393 L1238.45 9.54393 L1238.45 72.576 L1231 72.576 L1231 65.7705 Q1228.65 69.8214 1225.04 71.8063 Q1221.48 73.7508 1216.46 73.7508 Q1208.23 73.7508 1203.05 67.1883 Q1197.9 60.6258 1197.9 49.9314 Q1197.9 39.2371 1203.05 32.6746 Q1208.23 26.1121 1216.46 26.1121 Q1221.48 26.1121 1225.04 28.0971 Q1228.65 30.0415 1231 34.0924 M1205.6 49.9314 Q1205.6 58.1548 1208.96 62.8538 Q1212.36 67.5124 1218.28 67.5124 Q1224.19 67.5124 1227.6 62.8538 Q1231 58.1548 1231 49.9314 Q1231 41.7081 1227.6 37.0496 Q1224.19 32.3505 1218.28 32.3505 Q1212.36 32.3505 1208.96 37.0496 Q1205.6 41.7081 1205.6 49.9314 Z" fill="#000000" fill-rule="evenodd" fill-opacity="1" /><path clip-path="url(#clip500)" d="M1252.63 9.62495 L1259.11 9.62495 Q1265.19 19.1851 1268.19 28.3401 Q1271.22 37.4952 1271.22 46.5287 Q1271.22 55.6027 1268.19 64.7983 Q1265.19 73.9938 1259.11 83.5134 L1252.63 83.5134 Q1258.02 74.2369 1260.65 65.0818 Q1263.32 55.8863 1263.32 46.5287 Q1263.32 37.1711 1260.65 28.0566 Q1258.02 18.942 1252.63 9.62495 Z" fill="#000000" fill-rule="evenodd" fill-opacity="1" /><circle clip-path="url(#clip502)" cx="1049.51" cy="730.678" r="14.4" fill="#800080" fill-rule="evenodd" fill-opacity="1" stroke="#000000" stroke-opacity="1" stroke-width="2.8"/>
<circle clip-path="url(#clip502)" cx="1049.13" cy="680.237" r="14.4" fill="#800080" fill-rule="evenodd" fill-opacity="1" stroke="#000000" stroke-opacity="1" stroke-width="2.8"/>
<circle clip-path="url(#clip502)" cx="938.053" cy="567.443" r="14.4" fill="#800080" fill-rule="evenodd" fill-opacity="1" stroke="#000000" stroke-opacity="1" stroke-width="2.8"/>
<circle clip-path="url(#clip502)" cx="1022.94" cy="644.701" r="14.4" fill="#800080" fill-rule="evenodd" fill-opacity="1" stroke="#000000" stroke-opacity="1" stroke-width="2.8"/>
<circle clip-path="url(#clip502)" cx="934.949" cy="528.776" r="14.4" fill="#800080" fill-rule="evenodd" fill-opacity="1" stroke="#000000" stroke-opacity="1" stroke-width="2.8"/>
<circle clip-path="url(#clip502)" cx="957.95" cy="587.616" r="14.4" fill="#800080" fill-rule="evenodd" fill-opacity="1" stroke="#000000" stroke-opacity="1" stroke-width="2.8"/>
<circle clip-path="url(#clip502)" cx="911.281" cy="649.615" r="14.4" fill="#800080" fill-rule="evenodd" fill-opacity="1" stroke="#000000" stroke-opacity="1" stroke-width="2.8"/>
<circle clip-path="url(#clip502)" cx="906.325" cy="506.074" r="14.4" fill="#800080" fill-rule="evenodd" fill-opacity="1" stroke="#000000" stroke-opacity="1" stroke-width="2.8"/>
<circle clip-path="url(#clip502)" cx="986.826" cy="627.629" r="14.4" fill="#800080" fill-rule="evenodd" fill-opacity="1" stroke="#000000" stroke-opacity="1" stroke-width="2.8"/>
<circle clip-path="url(#clip502)" cx="1112.7" cy="616.622" r="14.4" fill="#800080" fill-rule="evenodd" fill-opacity="1" stroke="#000000" stroke-opacity="1" stroke-width="2.8"/>
<circle clip-path="url(#clip502)" cx="1066.01" cy="556.156" r="14.4" fill="#800080" fill-rule="evenodd" fill-opacity="1" stroke="#000000" stroke-opacity="1" stroke-width="2.8"/>
<circle clip-path="url(#clip502)" cx="1093.05" cy="644.181" r="14.4" fill="#800080" fill-rule="evenodd" fill-opacity="1" stroke="#000000" stroke-opacity="1" stroke-width="2.8"/>
<circle clip-path="url(#clip502)" cx="1069.65" cy="603.999" r="14.4" fill="#800080" fill-rule="evenodd" fill-opacity="1" stroke="#000000" stroke-opacity="1" stroke-width="2.8"/>
<circle clip-path="url(#clip502)" cx="1038.45" cy="562.78" r="14.4" fill="#800080" fill-rule="evenodd" fill-opacity="1" stroke="#000000" stroke-opacity="1" stroke-width="2.8"/>
<circle clip-path="url(#clip502)" cx="868.702" cy="668.789" r="14.4" fill="#800080" fill-rule="evenodd" fill-opacity="1" stroke="#000000" stroke-opacity="1" stroke-width="2.8"/>
<circle clip-path="url(#clip502)" cx="1010.01" cy="664.96" r="14.4" fill="#800080" fill-rule="evenodd" fill-opacity="1" stroke="#000000" stroke-opacity="1" stroke-width="2.8"/>
<circle clip-path="url(#clip502)" cx="1002.53" cy="534.637" r="14.4" fill="#800080" fill-rule="evenodd" fill-opacity="1" stroke="#000000" stroke-opacity="1" stroke-width="2.8"/>
<circle clip-path="url(#clip502)" cx="879.653" cy="597.941" r="14.4" fill="#800080" fill-rule="evenodd" fill-opacity="1" stroke="#000000" stroke-opacity="1" stroke-width="2.8"/>
<circle clip-path="url(#clip502)" cx="996.222" cy="698.729" r="14.4" fill="#800080" fill-rule="evenodd" fill-opacity="1" stroke="#000000" stroke-opacity="1" stroke-width="2.8"/>
<circle clip-path="url(#clip502)" cx="888.577" cy="635.444" r="14.4" fill="#800080" fill-rule="evenodd" fill-opacity="1" stroke="#000000" stroke-opacity="1" stroke-width="2.8"/>
<circle clip-path="url(#clip502)" cx="1067.26" cy="646.239" r="14.4" fill="#800080" fill-rule="evenodd" fill-opacity="1" stroke="#000000" stroke-opacity="1" stroke-width="2.8"/>
<circle clip-path="url(#clip502)" cx="928.675" cy="655.788" r="14.4" fill="#800080" fill-rule="evenodd" fill-opacity="1" stroke="#000000" stroke-opacity="1" stroke-width="2.8"/>
<circle clip-path="url(#clip502)" cx="917.068" cy="643.698" r="14.4" fill="#800080" fill-rule="evenodd" fill-opacity="1" stroke="#000000" stroke-opacity="1" stroke-width="2.8"/>
<circle clip-path="url(#clip502)" cx="1073.14" cy="623.802" r="14.4" fill="#800080" fill-rule="evenodd" fill-opacity="1" stroke="#000000" stroke-opacity="1" stroke-width="2.8"/>
<circle clip-path="url(#clip502)" cx="1040.96" cy="650.003" r="14.4" fill="#800080" fill-rule="evenodd" fill-opacity="1" stroke="#000000" stroke-opacity="1" stroke-width="2.8"/>
<circle clip-path="url(#clip502)" cx="910.973" cy="553.14" r="14.4" fill="#800080" fill-rule="evenodd" fill-opacity="1" stroke="#000000" stroke-opacity="1" stroke-width="2.8"/>
<circle clip-path="url(#clip502)" cx="1048.76" cy="536.319" r="14.4" fill="#800080" fill-rule="evenodd" fill-opacity="1" stroke="#000000" stroke-opacity="1" stroke-width="2.8"/>
<circle clip-path="url(#clip502)" cx="934.243" cy="692.026" r="14.4" fill="#800080" fill-rule="evenodd" fill-opacity="1" stroke="#000000" stroke-opacity="1" stroke-width="2.8"/>
<circle clip-path="url(#clip502)" cx="942.262" cy="666.802" r="14.4" fill="#800080" fill-rule="evenodd" fill-opacity="1" stroke="#000000" stroke-opacity="1" stroke-width="2.8"/>
<circle clip-path="url(#clip502)" cx="965.229" cy="622.747" r="14.4" fill="#800080" fill-rule="evenodd" fill-opacity="1" stroke="#000000" stroke-opacity="1" stroke-width="2.8"/>
<circle clip-path="url(#clip502)" cx="997.236" cy="701.308" r="14.4" fill="#800080" fill-rule="evenodd" fill-opacity="1" stroke="#000000" stroke-opacity="1" stroke-width="2.8"/>
<circle clip-path="url(#clip502)" cx="895.751" cy="606.822" r="14.4" fill="#800080" fill-rule="evenodd" fill-opacity="1" stroke="#000000" stroke-opacity="1" stroke-width="2.8"/>
<circle clip-path="url(#clip502)" cx="984.703" cy="559.543" r="14.4" fill="#800080" fill-rule="evenodd" fill-opacity="1" stroke="#000000" stroke-opacity="1" stroke-width="2.8"/>
<circle clip-path="url(#clip502)" cx="988.945" cy="630.399" r="14.4" fill="#800080" fill-rule="evenodd" fill-opacity="1" stroke="#000000" stroke-opacity="1" stroke-width="2.8"/>
<circle clip-path="url(#clip502)" cx="870.405" cy="690.313" r="14.4" fill="#800080" fill-rule="evenodd" fill-opacity="1" stroke="#000000" stroke-opacity="1" stroke-width="2.8"/>
<circle clip-path="url(#clip502)" cx="993.433" cy="654.852" r="14.4" fill="#800080" fill-rule="evenodd" fill-opacity="1" stroke="#000000" stroke-opacity="1" stroke-width="2.8"/>
<circle clip-path="url(#clip502)" cx="1063.15" cy="693.556" r="14.4" fill="#800080" fill-rule="evenodd" fill-opacity="1" stroke="#000000" stroke-opacity="1" stroke-width="2.8"/>
<circle clip-path="url(#clip502)" cx="947.537" cy="588.506" r="14.4" fill="#800080" fill-rule="evenodd" fill-opacity="1" stroke="#000000" stroke-opacity="1" stroke-width="2.8"/>
<circle clip-path="url(#clip502)" cx="1075.85" cy="679.213" r="14.4" fill="#800080" fill-rule="evenodd" fill-opacity="1" stroke="#000000" stroke-opacity="1" stroke-width="2.8"/>
<circle clip-path="url(#clip502)" cx="1023.14" cy="638.91" r="14.4" fill="#800080" fill-rule="evenodd" fill-opacity="1" stroke="#000000" stroke-opacity="1" stroke-width="2.8"/>
<circle clip-path="url(#clip502)" cx="1005.41" cy="656.174" r="14.4" fill="#800080" fill-rule="evenodd" fill-opacity="1" stroke="#000000" stroke-opacity="1" stroke-width="2.8"/>
<circle clip-path="url(#clip502)" cx="1047" cy="637.703" r="14.4" fill="#800080" fill-rule="evenodd" fill-opacity="1" stroke="#000000" stroke-opacity="1" stroke-width="2.8"/>
<circle clip-path="url(#clip502)" cx="977.812" cy="597.958" r="14.4" fill="#800080" fill-rule="evenodd" fill-opacity="1" stroke="#000000" stroke-opacity="1" stroke-width="2.8"/>
<circle clip-path="url(#clip502)" cx="1031.82" cy="703.477" r="14.4" fill="#800080" fill-rule="evenodd" fill-opacity="1" stroke="#000000" stroke-opacity="1" stroke-width="2.8"/>
<circle clip-path="url(#clip502)" cx="983.073" cy="566.882" r="14.4" fill="#800080" fill-rule="evenodd" fill-opacity="1" stroke="#000000" stroke-opacity="1" stroke-width="2.8"/>
<circle clip-path="url(#clip502)" cx="1042.81" cy="653.82" r="14.4" fill="#800080" fill-rule="evenodd" fill-opacity="1" stroke="#000000" stroke-opacity="1" stroke-width="2.8"/>
<circle clip-path="url(#clip502)" cx="1025.16" cy="596.17" r="14.4" fill="#800080" fill-rule="evenodd" fill-opacity="1" stroke="#000000" stroke-opacity="1" stroke-width="2.8"/>
<circle clip-path="url(#clip502)" cx="993.738" cy="658.433" r="14.4" fill="#800080" fill-rule="evenodd" fill-opacity="1" stroke="#000000" stroke-opacity="1" stroke-width="2.8"/>
<circle clip-path="url(#clip502)" cx="1018.15" cy="595.915" r="14.4" fill="#800080" fill-rule="evenodd" fill-opacity="1" stroke="#000000" stroke-opacity="1" stroke-width="2.8"/>
<circle clip-path="url(#clip502)" cx="1025.15" cy="721.08" r="14.4" fill="#800080" fill-rule="evenodd" fill-opacity="1" stroke="#000000" stroke-opacity="1" stroke-width="2.8"/>
<circle clip-path="url(#clip502)" cx="766.163" cy="770.595" r="14.4" fill="#0000ff" fill-rule="evenodd" fill-opacity="1" stroke="#000000" stroke-opacity="1" stroke-width="2.8"/>
<circle clip-path="url(#clip502)" cx="874.786" cy="903.261" r="14.4" fill="#0000ff" fill-rule="evenodd" fill-opacity="1" stroke="#000000" stroke-opacity="1" stroke-width="2.8"/>
<circle clip-path="url(#clip502)" cx="799.996" cy="722.154" r="14.4" fill="#0000ff" fill-rule="evenodd" fill-opacity="1" stroke="#000000" stroke-opacity="1" stroke-width="2.8"/>
<circle clip-path="url(#clip502)" cx="852.925" cy="781.859" r="14.4" fill="#0000ff" fill-rule="evenodd" fill-opacity="1" stroke="#000000" stroke-opacity="1" stroke-width="2.8"/>
<circle clip-path="url(#clip502)" cx="835.36" cy="776.48" r="14.4" fill="#0000ff" fill-rule="evenodd" fill-opacity="1" stroke="#000000" stroke-opacity="1" stroke-width="2.8"/>
<circle clip-path="url(#clip502)" cx="791.466" cy="827.267" r="14.4" fill="#0000ff" fill-rule="evenodd" fill-opacity="1" stroke="#000000" stroke-opacity="1" stroke-width="2.8"/>
<circle clip-path="url(#clip502)" cx="797.074" cy="814.946" r="14.4" fill="#0000ff" fill-rule="evenodd" fill-opacity="1" stroke="#000000" stroke-opacity="1" stroke-width="2.8"/>
<circle clip-path="url(#clip502)" cx="966.249" cy="769.857" r="14.4" fill="#0000ff" fill-rule="evenodd" fill-opacity="1" stroke="#000000" stroke-opacity="1" stroke-width="2.8"/>
<circle clip-path="url(#clip502)" cx="972.835" cy="729.53" r="14.4" fill="#0000ff" fill-rule="evenodd" fill-opacity="1" stroke="#000000" stroke-opacity="1" stroke-width="2.8"/>
<circle clip-path="url(#clip502)" cx="855.593" cy="724.514" r="14.4" fill="#0000ff" fill-rule="evenodd" fill-opacity="1" stroke="#000000" stroke-opacity="1" stroke-width="2.8"/>
<circle clip-path="url(#clip502)" cx="879.355" cy="748.731" r="14.4" fill="#0000ff" fill-rule="evenodd" fill-opacity="1" stroke="#000000" stroke-opacity="1" stroke-width="2.8"/>
<circle clip-path="url(#clip502)" cx="766.928" cy="874.574" r="14.4" fill="#0000ff" fill-rule="evenodd" fill-opacity="1" stroke="#000000" stroke-opacity="1" stroke-width="2.8"/>
<circle clip-path="url(#clip502)" cx="828.178" cy="754.812" r="14.4" fill="#0000ff" fill-rule="evenodd" fill-opacity="1" stroke="#000000" stroke-opacity="1" stroke-width="2.8"/>
<circle clip-path="url(#clip502)" cx="892.411" cy="755.794" r="14.4" fill="#0000ff" fill-rule="evenodd" fill-opacity="1" stroke="#000000" stroke-opacity="1" stroke-width="2.8"/>
<circle clip-path="url(#clip502)" cx="945.842" cy="807.942" r="14.4" fill="#0000ff" fill-rule="evenodd" fill-opacity="1" stroke="#000000" stroke-opacity="1" stroke-width="2.8"/>
<circle clip-path="url(#clip502)" cx="1007.31" cy="779.22" r="14.4" fill="#0000ff" fill-rule="evenodd" fill-opacity="1" stroke="#000000" stroke-opacity="1" stroke-width="2.8"/>
<circle clip-path="url(#clip502)" cx="745.879" cy="746.962" r="14.4" fill="#0000ff" fill-rule="evenodd" fill-opacity="1" stroke="#000000" stroke-opacity="1" stroke-width="2.8"/>
<circle clip-path="url(#clip502)" cx="720.39" cy="823.093" r="14.4" fill="#0000ff" fill-rule="evenodd" fill-opacity="1" stroke="#000000" stroke-opacity="1" stroke-width="2.8"/>
<circle clip-path="url(#clip502)" cx="754.268" cy="755.668" r="14.4" fill="#0000ff" fill-rule="evenodd" fill-opacity="1" stroke="#000000" stroke-opacity="1" stroke-width="2.8"/>
<circle clip-path="url(#clip502)" cx="947.802" cy="708.545" r="14.4" fill="#0000ff" fill-rule="evenodd" fill-opacity="1" stroke="#000000" stroke-opacity="1" stroke-width="2.8"/>
<circle clip-path="url(#clip502)" cx="870.778" cy="729.776" r="14.4" fill="#0000ff" fill-rule="evenodd" fill-opacity="1" stroke="#000000" stroke-opacity="1" stroke-width="2.8"/>
<circle clip-path="url(#clip502)" cx="821.807" cy="829.304" r="14.4" fill="#0000ff" fill-rule="evenodd" fill-opacity="1" stroke="#000000" stroke-opacity="1" stroke-width="2.8"/>
<circle clip-path="url(#clip502)" cx="1048.89" cy="851.987" r="14.4" fill="#0000ff" fill-rule="evenodd" fill-opacity="1" stroke="#000000" stroke-opacity="1" stroke-width="2.8"/>
<circle clip-path="url(#clip502)" cx="1010.36" cy="704.454" r="14.4" fill="#0000ff" fill-rule="evenodd" fill-opacity="1" stroke="#000000" stroke-opacity="1" stroke-width="2.8"/>
<circle clip-path="url(#clip502)" cx="919.74" cy="843.057" r="14.4" fill="#0000ff" fill-rule="evenodd" fill-opacity="1" stroke="#000000" stroke-opacity="1" stroke-width="2.8"/>
<circle clip-path="url(#clip502)" cx="695.439" cy="713.957" r="14.4" fill="#0000ff" fill-rule="evenodd" fill-opacity="1" stroke="#000000" stroke-opacity="1" stroke-width="2.8"/>
<circle clip-path="url(#clip502)" cx="764.42" cy="842.265" r="14.4" fill="#0000ff" fill-rule="evenodd" fill-opacity="1" stroke="#000000" stroke-opacity="1" stroke-width="2.8"/>
<circle clip-path="url(#clip502)" cx="825.944" cy="868.783" r="14.4" fill="#0000ff" fill-rule="evenodd" fill-opacity="1" stroke="#000000" stroke-opacity="1" stroke-width="2.8"/>
<circle clip-path="url(#clip502)" cx="1046.63" cy="718.505" r="14.4" fill="#0000ff" fill-rule="evenodd" fill-opacity="1" stroke="#000000" stroke-opacity="1" stroke-width="2.8"/>
<circle clip-path="url(#clip502)" cx="806.888" cy="730.441" r="14.4" fill="#0000ff" fill-rule="evenodd" fill-opacity="1" stroke="#000000" stroke-opacity="1" stroke-width="2.8"/>
<circle clip-path="url(#clip502)" cx="747.445" cy="813.129" r="14.4" fill="#0000ff" fill-rule="evenodd" fill-opacity="1" stroke="#000000" stroke-opacity="1" stroke-width="2.8"/>
<circle clip-path="url(#clip502)" cx="817.804" cy="826.833" r="14.4" fill="#0000ff" fill-rule="evenodd" fill-opacity="1" stroke="#000000" stroke-opacity="1" stroke-width="2.8"/>
<circle clip-path="url(#clip502)" cx="822.454" cy="792.09" r="14.4" fill="#0000ff" fill-rule="evenodd" fill-opacity="1" stroke="#000000" stroke-opacity="1" stroke-width="2.8"/>
<circle clip-path="url(#clip502)" cx="982.076" cy="882.867" r="14.4" fill="#0000ff" fill-rule="evenodd" fill-opacity="1" stroke="#000000" stroke-opacity="1" stroke-width="2.8"/>
<circle clip-path="url(#clip502)" cx="771.988" cy="780.651" r="14.4" fill="#0000ff" fill-rule="evenodd" fill-opacity="1" stroke="#000000" stroke-opacity="1" stroke-width="2.8"/>
<circle clip-path="url(#clip502)" cx="810.464" cy="821.402" r="14.4" fill="#0000ff" fill-rule="evenodd" fill-opacity="1" stroke="#000000" stroke-opacity="1" stroke-width="2.8"/>
<circle clip-path="url(#clip502)" cx="970.216" cy="808.97" r="14.4" fill="#0000ff" fill-rule="evenodd" fill-opacity="1" stroke="#000000" stroke-opacity="1" stroke-width="2.8"/>
<circle clip-path="url(#clip502)" cx="889.774" cy="864.759" r="14.4" fill="#0000ff" fill-rule="evenodd" fill-opacity="1" stroke="#000000" stroke-opacity="1" stroke-width="2.8"/>
<circle clip-path="url(#clip502)" cx="949.451" cy="704.052" r="14.4" fill="#0000ff" fill-rule="evenodd" fill-opacity="1" stroke="#000000" stroke-opacity="1" stroke-width="2.8"/>
<circle clip-path="url(#clip502)" cx="904.087" cy="803.331" r="14.4" fill="#0000ff" fill-rule="evenodd" fill-opacity="1" stroke="#000000" stroke-opacity="1" stroke-width="2.8"/>
<circle clip-path="url(#clip502)" cx="859.159" cy="834.57" r="14.4" fill="#0000ff" fill-rule="evenodd" fill-opacity="1" stroke="#000000" stroke-opacity="1" stroke-width="2.8"/>
<circle clip-path="url(#clip502)" cx="758.198" cy="733.992" r="14.4" fill="#0000ff" fill-rule="evenodd" fill-opacity="1" stroke="#000000" stroke-opacity="1" stroke-width="2.8"/>
<circle clip-path="url(#clip502)" cx="963.145" cy="714.644" r="14.4" fill="#0000ff" fill-rule="evenodd" fill-opacity="1" stroke="#000000" stroke-opacity="1" stroke-width="2.8"/>
<circle clip-path="url(#clip502)" cx="928.636" cy="792.133" r="14.4" fill="#0000ff" fill-rule="evenodd" fill-opacity="1" stroke="#000000" stroke-opacity="1" stroke-width="2.8"/>
<circle clip-path="url(#clip502)" cx="1088.03" cy="815.247" r="14.4" fill="#0000ff" fill-rule="evenodd" fill-opacity="1" stroke="#000000" stroke-opacity="1" stroke-width="2.8"/>
<circle clip-path="url(#clip502)" cx="582.02" cy="818.426" r="14.4" fill="#0000ff" fill-rule="evenodd" fill-opacity="1" stroke="#000000" stroke-opacity="1" stroke-width="2.8"/>
<circle clip-path="url(#clip502)" cx="890.474" cy="732.615" r="14.4" fill="#0000ff" fill-rule="evenodd" fill-opacity="1" stroke="#000000" stroke-opacity="1" stroke-width="2.8"/>
<circle clip-path="url(#clip502)" cx="873.805" cy="730.036" r="14.4" fill="#0000ff" fill-rule="evenodd" fill-opacity="1" stroke="#000000" stroke-opacity="1" stroke-width="2.8"/>
<circle clip-path="url(#clip502)" cx="883.271" cy="771.162" r="14.4" fill="#0000ff" fill-rule="evenodd" fill-opacity="1" stroke="#000000" stroke-opacity="1" stroke-width="2.8"/>
<circle clip-path="url(#clip502)" cx="849.988" cy="777.573" r="14.4" fill="#0000ff" fill-rule="evenodd" fill-opacity="1" stroke="#000000" stroke-opacity="1" stroke-width="2.8"/>
<circle clip-path="url(#clip502)" cx="920.633" cy="716.226" r="36" fill="#ffff00" fill-rule="evenodd" fill-opacity="1" stroke="#000000" stroke-opacity="1" stroke-width="2.8"/>
<circle clip-path="url(#clip502)" cx="985.035" cy="650.255" r="18" fill="#ffff00" fill-rule="evenodd" fill-opacity="1" stroke="#000000" stroke-opacity="1" stroke-width="2.8"/>
<circle clip-path="url(#clip502)" cx="958.183" cy="680.708" r="18" fill="#ffff00" fill-rule="evenodd" fill-opacity="1" stroke="#000000" stroke-opacity="1" stroke-width="2.8"/>
<circle clip-path="url(#clip502)" cx="938.103" cy="700.296" r="18" fill="#ffff00" fill-rule="evenodd" fill-opacity="1" stroke="#000000" stroke-opacity="1" stroke-width="2.8"/>
<path clip-path="url(#clip500)" d="M1778.71 1300.33 L3152.76 1300.33 L3152.76 102.682 L1778.71 102.682  Z" fill="#ffffff" fill-rule="evenodd" fill-opacity="1"/>
<defs>
  <clipPath id="clip503">
    <rect x="1778" y="102" width="1375" height="1199"/>
  </clipPath>
</defs>
<polyline clip-path="url(#clip503)" style="stroke:#000000; stroke-linecap:round; stroke-linejoin:round; stroke-width:2; stroke-opacity:0.1; fill:none" points="2034.29,1300.33 2034.29,102.682 "/>
<polyline clip-path="url(#clip503)" style="stroke:#000000; stroke-linecap:round; stroke-linejoin:round; stroke-width:2; stroke-opacity:0.1; fill:none" points="2292.8,1300.33 2292.8,102.682 "/>
<polyline clip-path="url(#clip503)" style="stroke:#000000; stroke-linecap:round; stroke-linejoin:round; stroke-width:2; stroke-opacity:0.1; fill:none" points="2551.31,1300.33 2551.31,102.682 "/>
<polyline clip-path="url(#clip503)" style="stroke:#000000; stroke-linecap:round; stroke-linejoin:round; stroke-width:2; stroke-opacity:0.1; fill:none" points="2809.82,1300.33 2809.82,102.682 "/>
<polyline clip-path="url(#clip503)" style="stroke:#000000; stroke-linecap:round; stroke-linejoin:round; stroke-width:2; stroke-opacity:0.1; fill:none" points="3068.33,1300.33 3068.33,102.682 "/>
<polyline clip-path="url(#clip500)" style="stroke:#000000; stroke-linecap:round; stroke-linejoin:round; stroke-width:4; stroke-opacity:1; fill:none" points="1778.71,1300.33 3152.76,1300.33 "/>
<polyline clip-path="url(#clip500)" style="stroke:#000000; stroke-linecap:round; stroke-linejoin:round; stroke-width:4; stroke-opacity:1; fill:none" points="2034.29,1300.33 2034.29,1281.43 "/>
<polyline clip-path="url(#clip500)" style="stroke:#000000; stroke-linecap:round; stroke-linejoin:round; stroke-width:4; stroke-opacity:1; fill:none" points="2292.8,1300.33 2292.8,1281.43 "/>
<polyline clip-path="url(#clip500)" style="stroke:#000000; stroke-linecap:round; stroke-linejoin:round; stroke-width:4; stroke-opacity:1; fill:none" points="2551.31,1300.33 2551.31,1281.43 "/>
<polyline clip-path="url(#clip500)" style="stroke:#000000; stroke-linecap:round; stroke-linejoin:round; stroke-width:4; stroke-opacity:1; fill:none" points="2809.82,1300.33 2809.82,1281.43 "/>
<polyline clip-path="url(#clip500)" style="stroke:#000000; stroke-linecap:round; stroke-linejoin:round; stroke-width:4; stroke-opacity:1; fill:none" points="3068.33,1300.33 3068.33,1281.43 "/>
<path clip-path="url(#clip500)" d="M2004.04 1352.3 L2033.72 1352.3 L2033.72 1356.23 L2004.04 1356.23 L2004.04 1352.3 Z" fill="#000000" fill-rule="evenodd" fill-opacity="1" /><path clip-path="url(#clip500)" d="M2044.62 1365.19 L2052.26 1365.19 L2052.26 1338.83 L2043.95 1340.49 L2043.95 1336.23 L2052.21 1334.57 L2056.89 1334.57 L2056.89 1365.19 L2064.53 1365.19 L2064.53 1369.13 L2044.62 1369.13 L2044.62 1365.19 Z" fill="#000000" fill-rule="evenodd" fill-opacity="1" /><path clip-path="url(#clip500)" d="M2292.8 1337.65 Q2289.19 1337.65 2287.36 1341.21 Q2285.55 1344.75 2285.55 1351.88 Q2285.55 1358.99 2287.36 1362.55 Q2289.19 1366.1 2292.8 1366.1 Q2296.43 1366.1 2298.24 1362.55 Q2300.07 1358.99 2300.07 1351.88 Q2300.07 1344.75 2298.24 1341.21 Q2296.43 1337.65 2292.8 1337.65 M2292.8 1333.94 Q2298.61 1333.94 2301.66 1338.55 Q2304.74 1343.13 2304.74 1351.88 Q2304.74 1360.61 2301.66 1365.22 Q2298.61 1369.8 2292.8 1369.8 Q2286.99 1369.8 2283.91 1365.22 Q2280.85 1360.61 2280.85 1351.88 Q2280.85 1343.13 2283.91 1338.55 Q2286.99 1333.94 2292.8 1333.94 Z" fill="#000000" fill-rule="evenodd" fill-opacity="1" /><path clip-path="url(#clip500)" d="M2541.69 1365.19 L2549.33 1365.19 L2549.33 1338.83 L2541.02 1340.49 L2541.02 1336.23 L2549.28 1334.57 L2553.96 1334.57 L2553.96 1365.19 L2561.6 1365.19 L2561.6 1369.13 L2541.69 1369.13 L2541.69 1365.19 Z" fill="#000000" fill-rule="evenodd" fill-opacity="1" /><path clip-path="url(#clip500)" d="M2804.47 1365.19 L2820.79 1365.19 L2820.79 1369.13 L2798.85 1369.13 L2798.85 1365.19 Q2801.51 1362.44 2806.09 1357.81 Q2810.7 1353.16 2811.88 1351.81 Q2814.13 1349.29 2815.01 1347.55 Q2815.91 1345.79 2815.91 1344.1 Q2815.91 1341.35 2813.96 1339.61 Q2812.04 1337.88 2808.94 1337.88 Q2806.74 1337.88 2804.29 1338.64 Q2801.86 1339.41 2799.08 1340.96 L2799.08 1336.23 Q2801.9 1335.1 2804.36 1334.52 Q2806.81 1333.94 2808.85 1333.94 Q2814.22 1333.94 2817.41 1336.63 Q2820.61 1339.31 2820.61 1343.8 Q2820.61 1345.93 2819.8 1347.85 Q2819.01 1349.75 2816.9 1352.35 Q2816.32 1353.02 2813.22 1356.23 Q2810.12 1359.43 2804.47 1365.19 Z" fill="#000000" fill-rule="evenodd" fill-opacity="1" /><path clip-path="url(#clip500)" d="M3072.58 1350.49 Q3075.94 1351.21 3077.81 1353.48 Q3079.71 1355.75 3079.71 1359.08 Q3079.71 1364.2 3076.19 1367 Q3072.67 1369.8 3066.19 1369.8 Q3064.01 1369.8 3061.7 1369.36 Q3059.41 1368.94 3056.95 1368.09 L3056.95 1363.57 Q3058.9 1364.71 3061.21 1365.29 Q3063.53 1365.86 3066.05 1365.86 Q3070.45 1365.86 3072.74 1364.13 Q3075.06 1362.39 3075.06 1359.08 Q3075.06 1356.03 3072.9 1354.31 Q3070.77 1352.58 3066.95 1352.58 L3062.93 1352.58 L3062.93 1348.73 L3067.14 1348.73 Q3070.59 1348.73 3072.42 1347.37 Q3074.25 1345.98 3074.25 1343.39 Q3074.25 1340.73 3072.35 1339.31 Q3070.47 1337.88 3066.95 1337.88 Q3065.03 1337.88 3062.83 1338.29 Q3060.63 1338.71 3058 1339.59 L3058 1335.42 Q3060.66 1334.68 3062.97 1334.31 Q3065.31 1333.94 3067.37 1333.94 Q3072.69 1333.94 3075.8 1336.37 Q3078.9 1338.78 3078.9 1342.9 Q3078.9 1345.77 3077.26 1347.76 Q3075.61 1349.73 3072.58 1350.49 Z" fill="#000000" fill-rule="evenodd" fill-opacity="1" /><polyline clip-path="url(#clip503)" style="stroke:#000000; stroke-linecap:round; stroke-linejoin:round; stroke-width:2; stroke-opacity:0.1; fill:none" points="1778.71,1211.32 3152.76,1211.32 "/>
<polyline clip-path="url(#clip503)" style="stroke:#000000; stroke-linecap:round; stroke-linejoin:round; stroke-width:2; stroke-opacity:0.1; fill:none" points="1778.71,952.804 3152.76,952.804 "/>
<polyline clip-path="url(#clip503)" style="stroke:#000000; stroke-linecap:round; stroke-linejoin:round; stroke-width:2; stroke-opacity:0.1; fill:none" points="1778.71,694.292 3152.76,694.292 "/>
<polyline clip-path="url(#clip503)" style="stroke:#000000; stroke-linecap:round; stroke-linejoin:round; stroke-width:2; stroke-opacity:0.1; fill:none" points="1778.71,435.781 3152.76,435.781 "/>
<polyline clip-path="url(#clip503)" style="stroke:#000000; stroke-linecap:round; stroke-linejoin:round; stroke-width:2; stroke-opacity:0.1; fill:none" points="1778.71,177.269 3152.76,177.269 "/>
<polyline clip-path="url(#clip500)" style="stroke:#000000; stroke-linecap:round; stroke-linejoin:round; stroke-width:4; stroke-opacity:1; fill:none" points="1778.71,1300.33 1778.71,102.682 "/>
<polyline clip-path="url(#clip500)" style="stroke:#000000; stroke-linecap:round; stroke-linejoin:round; stroke-width:4; stroke-opacity:1; fill:none" points="1778.71,1211.32 1797.6,1211.32 "/>
<polyline clip-path="url(#clip500)" style="stroke:#000000; stroke-linecap:round; stroke-linejoin:round; stroke-width:4; stroke-opacity:1; fill:none" points="1778.71,952.804 1797.6,952.804 "/>
<polyline clip-path="url(#clip500)" style="stroke:#000000; stroke-linecap:round; stroke-linejoin:round; stroke-width:4; stroke-opacity:1; fill:none" points="1778.71,694.292 1797.6,694.292 "/>
<polyline clip-path="url(#clip500)" style="stroke:#000000; stroke-linecap:round; stroke-linejoin:round; stroke-width:4; stroke-opacity:1; fill:none" points="1778.71,435.781 1797.6,435.781 "/>
<polyline clip-path="url(#clip500)" style="stroke:#000000; stroke-linecap:round; stroke-linejoin:round; stroke-width:4; stroke-opacity:1; fill:none" points="1778.71,177.269 1797.6,177.269 "/>
<path clip-path="url(#clip500)" d="M1670.59 1211.77 L1700.27 1211.77 L1700.27 1215.7 L1670.59 1215.7 L1670.59 1211.77 Z" fill="#000000" fill-rule="evenodd" fill-opacity="1" /><path clip-path="url(#clip500)" d="M1714.39 1224.66 L1730.71 1224.66 L1730.71 1228.6 L1708.76 1228.6 L1708.76 1224.66 Q1711.42 1221.91 1716.01 1217.28 Q1720.61 1212.62 1721.79 1211.28 Q1724.04 1208.76 1724.92 1207.02 Q1725.82 1205.26 1725.82 1203.57 Q1725.82 1200.82 1723.88 1199.08 Q1721.96 1197.35 1718.86 1197.35 Q1716.66 1197.35 1714.2 1198.11 Q1711.77 1198.87 1708.99 1200.42 L1708.99 1195.7 Q1711.82 1194.57 1714.27 1193.99 Q1716.73 1193.41 1718.76 1193.41 Q1724.13 1193.41 1727.33 1196.1 Q1730.52 1198.78 1730.52 1203.27 Q1730.52 1205.4 1729.71 1207.32 Q1728.92 1209.22 1726.82 1211.81 Q1726.24 1212.48 1723.14 1215.7 Q1720.04 1218.9 1714.39 1224.66 Z" fill="#000000" fill-rule="evenodd" fill-opacity="1" /><path clip-path="url(#clip500)" d="M1670.22 953.255 L1699.9 953.255 L1699.9 957.191 L1670.22 957.191 L1670.22 953.255 Z" fill="#000000" fill-rule="evenodd" fill-opacity="1" /><path clip-path="url(#clip500)" d="M1710.8 966.149 L1718.44 966.149 L1718.44 939.783 L1710.13 941.45 L1710.13 937.191 L1718.39 935.524 L1723.07 935.524 L1723.07 966.149 L1730.71 966.149 L1730.71 970.084 L1710.8 970.084 L1710.8 966.149 Z" fill="#000000" fill-rule="evenodd" fill-opacity="1" /><path clip-path="url(#clip500)" d="M1718.76 680.091 Q1715.15 680.091 1713.32 683.656 Q1711.52 687.198 1711.52 694.327 Q1711.52 701.434 1713.32 704.998 Q1715.15 708.54 1718.76 708.54 Q1722.4 708.54 1724.2 704.998 Q1726.03 701.434 1726.03 694.327 Q1726.03 687.198 1724.2 683.656 Q1722.4 680.091 1718.76 680.091 M1718.76 676.387 Q1724.57 676.387 1727.63 680.994 Q1730.71 685.577 1730.71 694.327 Q1730.71 703.054 1727.63 707.66 Q1724.57 712.244 1718.76 712.244 Q1712.95 712.244 1709.87 707.66 Q1706.82 703.054 1706.82 694.327 Q1706.82 685.577 1709.87 680.994 Q1712.95 676.387 1718.76 676.387 Z" fill="#000000" fill-rule="evenodd" fill-opacity="1" /><path clip-path="url(#clip500)" d="M1710.8 449.126 L1718.44 449.126 L1718.44 422.76 L1710.13 424.427 L1710.13 420.167 L1718.39 418.501 L1723.07 418.501 L1723.07 449.126 L1730.71 449.126 L1730.71 453.061 L1710.8 453.061 L1710.8 449.126 Z" fill="#000000" fill-rule="evenodd" fill-opacity="1" /><path clip-path="url(#clip500)" d="M1714.39 190.614 L1730.71 190.614 L1730.71 194.549 L1708.76 194.549 L1708.76 190.614 Q1711.42 187.859 1716.01 183.23 Q1720.61 178.577 1721.79 177.234 Q1724.04 174.711 1724.92 172.975 Q1725.82 171.216 1725.82 169.526 Q1725.82 166.772 1723.88 165.035 Q1721.96 163.299 1718.86 163.299 Q1716.66 163.299 1714.2 164.063 Q1711.77 164.827 1708.99 166.378 L1708.99 161.656 Q1711.82 160.522 1714.27 159.943 Q1716.73 159.364 1718.76 159.364 Q1724.13 159.364 1727.33 162.049 Q1730.52 164.735 1730.52 169.225 Q1730.52 171.355 1729.71 173.276 Q1728.92 175.174 1726.82 177.767 Q1726.24 178.438 1723.14 181.656 Q1720.04 184.85 1714.39 190.614 Z" fill="#000000" fill-rule="evenodd" fill-opacity="1" /><path clip-path="url(#clip500)" d="M2107.35 12.096 L2115.53 12.096 L2115.53 65.6895 L2144.98 65.6895 L2144.98 72.576 L2107.35 72.576 L2107.35 12.096 Z" fill="#000000" fill-rule="evenodd" fill-opacity="1" /><path clip-path="url(#clip500)" d="M2173.86 49.7694 Q2164.83 49.7694 2161.35 51.8354 Q2157.86 53.9013 2157.86 58.8839 Q2157.86 62.8538 2160.46 65.2034 Q2163.09 67.5124 2167.58 67.5124 Q2173.78 67.5124 2177.51 63.1374 Q2181.28 58.7219 2181.28 51.4303 L2181.28 49.7694 L2173.86 49.7694 M2188.73 46.6907 L2188.73 72.576 L2181.28 72.576 L2181.28 65.6895 Q2178.72 69.8214 2174.92 71.8063 Q2171.11 73.7508 2165.6 73.7508 Q2158.63 73.7508 2154.5 69.8619 Q2150.41 65.9325 2150.41 59.3701 Q2150.41 51.7138 2155.51 47.825 Q2160.66 43.9361 2170.83 43.9361 L2181.28 43.9361 L2181.28 43.2069 Q2181.28 38.0623 2177.87 35.2672 Q2174.51 32.4315 2168.4 32.4315 Q2164.51 32.4315 2160.82 33.3632 Q2157.13 34.295 2153.73 36.1584 L2153.73 29.2718 Q2157.82 27.692 2161.67 26.9223 Q2165.52 26.1121 2169.16 26.1121 Q2179.01 26.1121 2183.87 31.2163 Q2188.73 36.3204 2188.73 46.6907 Z" fill="#000000" fill-rule="evenodd" fill-opacity="1" /><path clip-path="url(#clip500)" d="M2211.46 14.324 L2211.46 27.2059 L2226.81 27.2059 L2226.81 32.9987 L2211.46 32.9987 L2211.46 57.6282 Q2211.46 63.1779 2212.96 64.7578 Q2214.49 66.3376 2219.15 66.3376 L2226.81 66.3376 L2226.81 72.576 L2219.15 72.576 Q2210.52 72.576 2207.24 69.3758 Q2203.96 66.1351 2203.96 57.6282 L2203.96 32.9987 L2198.49 32.9987 L2198.49 27.2059 L2203.96 27.2059 L2203.96 14.324 L2211.46 14.324 Z" fill="#000000" fill-rule="evenodd" fill-opacity="1" /><path clip-path="url(#clip500)" d="M2275.42 48.0275 L2275.42 51.6733 L2241.15 51.6733 Q2241.64 59.3701 2245.77 63.421 Q2249.94 67.4314 2257.35 67.4314 Q2261.65 67.4314 2265.66 66.3781 Q2269.71 65.3249 2273.68 63.2184 L2273.68 70.267 Q2269.67 71.9684 2265.45 72.8596 Q2261.24 73.7508 2256.91 73.7508 Q2246.05 73.7508 2239.69 67.4314 Q2233.37 61.1119 2233.37 50.3365 Q2233.37 39.1965 2239.37 32.6746 Q2245.4 26.1121 2255.61 26.1121 Q2264.77 26.1121 2270.07 32.0264 Q2275.42 37.9003 2275.42 48.0275 M2267.97 45.84 Q2267.89 39.7232 2264.52 36.0774 Q2261.2 32.4315 2255.69 32.4315 Q2249.45 32.4315 2245.69 35.9558 Q2241.96 39.4801 2241.39 45.8805 L2267.97 45.84 Z" fill="#000000" fill-rule="evenodd" fill-opacity="1" /><path clip-path="url(#clip500)" d="M2325.37 45.1919 L2325.37 72.576 L2317.91 72.576 L2317.91 45.4349 Q2317.91 38.994 2315.4 35.7938 Q2312.89 32.5936 2307.87 32.5936 Q2301.83 32.5936 2298.35 36.4419 Q2294.86 40.2903 2294.86 46.9338 L2294.86 72.576 L2287.37 72.576 L2287.37 27.2059 L2294.86 27.2059 L2294.86 34.2544 Q2297.54 30.163 2301.14 28.1376 Q2304.79 26.1121 2309.53 26.1121 Q2317.35 26.1121 2321.36 30.9732 Q2325.37 35.7938 2325.37 45.1919 Z" fill="#000000" fill-rule="evenodd" fill-opacity="1" /><path clip-path="url(#clip500)" d="M2347.61 14.324 L2347.61 27.2059 L2362.96 27.2059 L2362.96 32.9987 L2347.61 32.9987 L2347.61 57.6282 Q2347.61 63.1779 2349.11 64.7578 Q2350.65 66.3376 2355.3 66.3376 L2362.96 66.3376 L2362.96 72.576 L2355.3 72.576 Q2346.68 72.576 2343.39 69.3758 Q2340.11 66.1351 2340.11 57.6282 L2340.11 32.9987 L2334.64 32.9987 L2334.64 27.2059 L2340.11 27.2059 L2340.11 14.324 L2347.61 14.324 Z" fill="#000000" fill-rule="evenodd" fill-opacity="1" /><path clip-path="url(#clip500)" d="M2428.06 28.5427 L2428.06 35.5912 Q2424.9 33.9709 2421.5 33.1607 Q2418.09 32.3505 2414.45 32.3505 Q2408.9 32.3505 2406.1 34.0519 Q2403.35 35.7533 2403.35 39.156 Q2403.35 41.7486 2405.33 43.2475 Q2407.32 44.7058 2413.31 46.0426 L2415.86 46.6097 Q2423.8 48.3111 2427.13 51.4303 Q2430.49 54.509 2430.49 60.0587 Q2430.49 66.3781 2425.47 70.0644 Q2420.48 73.7508 2411.73 73.7508 Q2408.09 73.7508 2404.12 73.0216 Q2400.19 72.3329 2395.81 70.9151 L2395.81 63.2184 Q2399.94 65.3654 2403.96 66.4591 Q2407.97 67.5124 2411.89 67.5124 Q2417.16 67.5124 2420 65.73 Q2422.83 63.9071 2422.83 60.6258 Q2422.83 57.5877 2420.77 55.9673 Q2418.74 54.3469 2411.81 52.8481 L2409.22 52.2405 Q2402.29 50.7821 2399.22 47.7845 Q2396.14 44.7463 2396.14 39.4801 Q2396.14 33.0797 2400.67 29.5959 Q2405.21 26.1121 2413.56 26.1121 Q2417.69 26.1121 2421.33 26.7198 Q2424.98 27.3274 2428.06 28.5427 Z" fill="#000000" fill-rule="evenodd" fill-opacity="1" /><path clip-path="url(#clip500)" d="M2449.57 65.7705 L2449.57 89.8329 L2442.07 89.8329 L2442.07 27.2059 L2449.57 27.2059 L2449.57 34.0924 Q2451.92 30.0415 2455.48 28.0971 Q2459.09 26.1121 2464.07 26.1121 Q2472.33 26.1121 2477.48 32.6746 Q2482.66 39.2371 2482.66 49.9314 Q2482.66 60.6258 2477.48 67.1883 Q2472.33 73.7508 2464.07 73.7508 Q2459.09 73.7508 2455.48 71.8063 Q2451.92 69.8214 2449.57 65.7705 M2474.93 49.9314 Q2474.93 41.7081 2471.52 37.0496 Q2468.16 32.3505 2462.25 32.3505 Q2456.33 32.3505 2452.93 37.0496 Q2449.57 41.7081 2449.57 49.9314 Q2449.57 58.1548 2452.93 62.8538 Q2456.33 67.5124 2462.25 67.5124 Q2468.16 67.5124 2471.52 62.8538 Q2474.93 58.1548 2474.93 49.9314 Z" fill="#000000" fill-rule="evenodd" fill-opacity="1" /><path clip-path="url(#clip500)" d="M2515.64 49.7694 Q2506.61 49.7694 2503.12 51.8354 Q2499.64 53.9013 2499.64 58.8839 Q2499.64 62.8538 2502.23 65.2034 Q2504.86 67.5124 2509.36 67.5124 Q2515.56 67.5124 2519.28 63.1374 Q2523.05 58.7219 2523.05 51.4303 L2523.05 49.7694 L2515.64 49.7694 M2530.51 46.6907 L2530.51 72.576 L2523.05 72.576 L2523.05 65.6895 Q2520.5 69.8214 2516.69 71.8063 Q2512.88 73.7508 2507.37 73.7508 Q2500.41 73.7508 2496.28 69.8619 Q2492.18 65.9325 2492.18 59.3701 Q2492.18 51.7138 2497.29 47.825 Q2502.43 43.9361 2512.6 43.9361 L2523.05 43.9361 L2523.05 43.2069 Q2523.05 38.0623 2519.65 35.2672 Q2516.29 32.4315 2510.17 32.4315 Q2506.28 32.4315 2502.59 33.3632 Q2498.91 34.295 2495.51 36.1584 L2495.51 29.2718 Q2499.6 27.692 2503.45 26.9223 Q2507.29 26.1121 2510.94 26.1121 Q2520.78 26.1121 2525.64 31.2163 Q2530.51 36.3204 2530.51 46.6907 Z" fill="#000000" fill-rule="evenodd" fill-opacity="1" /><path clip-path="url(#clip500)" d="M2578.51 28.9478 L2578.51 35.9153 Q2575.35 34.1734 2572.15 33.3227 Q2568.99 32.4315 2565.75 32.4315 Q2558.5 32.4315 2554.49 37.0496 Q2550.48 41.6271 2550.48 49.9314 Q2550.48 58.2358 2554.49 62.8538 Q2558.5 67.4314 2565.75 67.4314 Q2568.99 67.4314 2572.15 66.5807 Q2575.35 65.6895 2578.51 63.9476 L2578.51 70.8341 Q2575.39 72.2924 2572.03 73.0216 Q2568.71 73.7508 2564.94 73.7508 Q2554.69 73.7508 2548.65 67.3098 Q2542.62 60.8689 2542.62 49.9314 Q2542.62 38.832 2548.69 32.472 Q2554.81 26.1121 2565.42 26.1121 Q2568.87 26.1121 2572.15 26.8413 Q2575.43 27.5299 2578.51 28.9478 Z" fill="#000000" fill-rule="evenodd" fill-opacity="1" /><path clip-path="url(#clip500)" d="M2630.28 48.0275 L2630.28 51.6733 L2596.01 51.6733 Q2596.49 59.3701 2600.63 63.421 Q2604.8 67.4314 2612.21 67.4314 Q2616.51 67.4314 2620.52 66.3781 Q2624.57 65.3249 2628.54 63.2184 L2628.54 70.267 Q2624.53 71.9684 2620.31 72.8596 Q2616.1 73.7508 2611.77 73.7508 Q2600.91 73.7508 2594.55 67.4314 Q2588.23 61.1119 2588.23 50.3365 Q2588.23 39.1965 2594.23 32.6746 Q2600.26 26.1121 2610.47 26.1121 Q2619.63 26.1121 2624.93 32.0264 Q2630.28 37.9003 2630.28 48.0275 M2622.83 45.84 Q2622.74 39.7232 2619.38 36.0774 Q2616.06 32.4315 2610.55 32.4315 Q2604.31 32.4315 2600.55 35.9558 Q2596.82 39.4801 2596.25 45.8805 L2622.83 45.84 Z" fill="#000000" fill-rule="evenodd" fill-opacity="1" /><path clip-path="url(#clip500)" d="M2686.79 9.62495 Q2681.36 18.942 2678.73 28.0566 Q2676.09 37.1711 2676.09 46.5287 Q2676.09 55.8863 2678.73 65.0818 Q2681.4 74.2369 2686.79 83.5134 L2680.31 83.5134 Q2674.23 73.9938 2671.19 64.7983 Q2668.2 55.6027 2668.2 46.5287 Q2668.2 37.4952 2671.19 28.3401 Q2674.19 19.1851 2680.31 9.62495 L2686.79 9.62495 Z" fill="#000000" fill-rule="evenodd" fill-opacity="1" /><path clip-path="url(#clip500)" d="M2709.35 65.6895 L2737.91 65.6895 L2737.91 72.576 L2699.51 72.576 L2699.51 65.6895 Q2704.17 60.8689 2712.19 52.7671 Q2720.25 44.6248 2722.32 42.2752 Q2726.25 37.8598 2727.78 34.8216 Q2729.36 31.7429 2729.36 28.7857 Q2729.36 23.9651 2725.96 20.927 Q2722.6 17.8888 2717.17 17.8888 Q2713.32 17.8888 2709.03 19.2256 Q2704.78 20.5624 2699.91 23.2765 L2699.91 15.0127 Q2704.86 13.0277 2709.15 12.015 Q2713.44 11.0023 2717.01 11.0023 Q2726.41 11.0023 2732 15.7013 Q2737.59 20.4004 2737.59 28.2591 Q2737.59 31.9859 2736.17 35.3482 Q2734.79 38.6699 2731.11 43.2069 Q2730.09 44.3817 2724.67 50.0125 Q2719.24 55.6027 2709.35 65.6895 Z" fill="#000000" fill-rule="evenodd" fill-opacity="1" /><path clip-path="url(#clip500)" d="M2783.89 34.0924 L2783.89 9.54393 L2791.34 9.54393 L2791.34 72.576 L2783.89 72.576 L2783.89 65.7705 Q2781.54 69.8214 2777.93 71.8063 Q2774.37 73.7508 2769.35 73.7508 Q2761.12 73.7508 2755.94 67.1883 Q2750.79 60.6258 2750.79 49.9314 Q2750.79 39.2371 2755.94 32.6746 Q2761.12 26.1121 2769.35 26.1121 Q2774.37 26.1121 2777.93 28.0971 Q2781.54 30.0415 2783.89 34.0924 M2758.49 49.9314 Q2758.49 58.1548 2761.85 62.8538 Q2765.26 67.5124 2771.17 67.5124 Q2777.08 67.5124 2780.49 62.8538 Q2783.89 58.1548 2783.89 49.9314 Q2783.89 41.7081 2780.49 37.0496 Q2777.08 32.3505 2771.17 32.3505 Q2765.26 32.3505 2761.85 37.0496 Q2758.49 41.7081 2758.49 49.9314 Z" fill="#000000" fill-rule="evenodd" fill-opacity="1" /><path clip-path="url(#clip500)" d="M2805.52 9.62495 L2812 9.62495 Q2818.08 19.1851 2821.08 28.3401 Q2824.11 37.4952 2824.11 46.5287 Q2824.11 55.6027 2821.08 64.7983 Q2818.08 73.9938 2812 83.5134 L2805.52 83.5134 Q2810.91 74.2369 2813.54 65.0818 Q2816.22 55.8863 2816.22 46.5287 Q2816.22 37.1711 2813.54 28.0566 Q2810.91 18.942 2805.52 9.62495 Z" fill="#000000" fill-rule="evenodd" fill-opacity="1" /><circle clip-path="url(#clip503)" cx="2224.89" cy="231.287" r="14.4" fill="#800080" fill-rule="evenodd" fill-opacity="0.8" stroke="#000000" stroke-opacity="0.8" stroke-width="0"/>
<circle clip-path="url(#clip503)" cx="2282.29" cy="343.687" r="14.4" fill="#800080" fill-rule="evenodd" fill-opacity="0.8" stroke="#000000" stroke-opacity="0.8" stroke-width="0"/>
<circle clip-path="url(#clip503)" cx="2192.28" cy="169.157" r="14.4" fill="#800080" fill-rule="evenodd" fill-opacity="0.8" stroke="#000000" stroke-opacity="0.8" stroke-width="0"/>
<circle clip-path="url(#clip503)" cx="2261.4" cy="287.662" r="14.4" fill="#800080" fill-rule="evenodd" fill-opacity="0.8" stroke="#000000" stroke-opacity="0.8" stroke-width="0"/>
<circle clip-path="url(#clip503)" cx="2236.43" cy="256.266" r="14.4" fill="#800080" fill-rule="evenodd" fill-opacity="0.8" stroke="#000000" stroke-opacity="0.8" stroke-width="0"/>
<circle clip-path="url(#clip503)" cx="2297.13" cy="368.202" r="14.4" fill="#800080" fill-rule="evenodd" fill-opacity="0.8" stroke="#000000" stroke-opacity="0.8" stroke-width="0"/>
<circle clip-path="url(#clip503)" cx="2339.71" cy="429.346" r="14.4" fill="#800080" fill-rule="evenodd" fill-opacity="0.8" stroke="#000000" stroke-opacity="0.8" stroke-width="0"/>
<circle clip-path="url(#clip503)" cx="2182.16" cy="174.583" r="14.4" fill="#800080" fill-rule="evenodd" fill-opacity="0.8" stroke="#000000" stroke-opacity="0.8" stroke-width="0"/>
<circle clip-path="url(#clip503)" cx="2225.75" cy="233.042" r="14.4" fill="#800080" fill-rule="evenodd" fill-opacity="0.8" stroke="#000000" stroke-opacity="0.8" stroke-width="0"/>
<circle clip-path="url(#clip503)" cx="2297.17" cy="354.758" r="14.4" fill="#800080" fill-rule="evenodd" fill-opacity="0.8" stroke="#000000" stroke-opacity="0.8" stroke-width="0"/>
<circle clip-path="url(#clip503)" cx="2224.75" cy="238.505" r="14.4" fill="#800080" fill-rule="evenodd" fill-opacity="0.8" stroke="#000000" stroke-opacity="0.8" stroke-width="0"/>
<circle clip-path="url(#clip503)" cx="2205.32" cy="190.209" r="14.4" fill="#800080" fill-rule="evenodd" fill-opacity="0.8" stroke="#000000" stroke-opacity="0.8" stroke-width="0"/>
<circle clip-path="url(#clip503)" cx="2183.18" cy="181.268" r="14.4" fill="#800080" fill-rule="evenodd" fill-opacity="0.8" stroke="#000000" stroke-opacity="0.8" stroke-width="0"/>
<circle clip-path="url(#clip503)" cx="2188.11" cy="179.194" r="14.4" fill="#800080" fill-rule="evenodd" fill-opacity="0.8" stroke="#000000" stroke-opacity="0.8" stroke-width="0"/>
<circle clip-path="url(#clip503)" cx="2254.67" cy="269.071" r="14.4" fill="#800080" fill-rule="evenodd" fill-opacity="0.8" stroke="#000000" stroke-opacity="0.8" stroke-width="0"/>
<circle clip-path="url(#clip503)" cx="2208.4" cy="216.729" r="14.4" fill="#800080" fill-rule="evenodd" fill-opacity="0.8" stroke="#000000" stroke-opacity="0.8" stroke-width="0"/>
<circle clip-path="url(#clip503)" cx="2195.67" cy="208.054" r="14.4" fill="#800080" fill-rule="evenodd" fill-opacity="0.8" stroke="#000000" stroke-opacity="0.8" stroke-width="0"/>
<circle clip-path="url(#clip503)" cx="2299.04" cy="367.36" r="14.4" fill="#800080" fill-rule="evenodd" fill-opacity="0.8" stroke="#000000" stroke-opacity="0.8" stroke-width="0"/>
<circle clip-path="url(#clip503)" cx="2245.46" cy="285.121" r="14.4" fill="#800080" fill-rule="evenodd" fill-opacity="0.8" stroke="#000000" stroke-opacity="0.8" stroke-width="0"/>
<circle clip-path="url(#clip503)" cx="2243.06" cy="272.219" r="14.4" fill="#800080" fill-rule="evenodd" fill-opacity="0.8" stroke="#000000" stroke-opacity="0.8" stroke-width="0"/>
<circle clip-path="url(#clip503)" cx="2300.23" cy="352.263" r="14.4" fill="#800080" fill-rule="evenodd" fill-opacity="0.8" stroke="#000000" stroke-opacity="0.8" stroke-width="0"/>
<circle clip-path="url(#clip503)" cx="2215.09" cy="235.194" r="14.4" fill="#800080" fill-rule="evenodd" fill-opacity="0.8" stroke="#000000" stroke-opacity="0.8" stroke-width="0"/>
<circle clip-path="url(#clip503)" cx="2241.55" cy="260.397" r="14.4" fill="#800080" fill-rule="evenodd" fill-opacity="0.8" stroke="#000000" stroke-opacity="0.8" stroke-width="0"/>
<circle clip-path="url(#clip503)" cx="2222" cy="226.005" r="14.4" fill="#800080" fill-rule="evenodd" fill-opacity="0.8" stroke="#000000" stroke-opacity="0.8" stroke-width="0"/>
<circle clip-path="url(#clip503)" cx="2253.68" cy="281.981" r="14.4" fill="#800080" fill-rule="evenodd" fill-opacity="0.8" stroke="#000000" stroke-opacity="0.8" stroke-width="0"/>
<circle clip-path="url(#clip503)" cx="2218.66" cy="248.992" r="14.4" fill="#800080" fill-rule="evenodd" fill-opacity="0.8" stroke="#000000" stroke-opacity="0.8" stroke-width="0"/>
<circle clip-path="url(#clip503)" cx="2226.1" cy="230.276" r="14.4" fill="#800080" fill-rule="evenodd" fill-opacity="0.8" stroke="#000000" stroke-opacity="0.8" stroke-width="0"/>
<circle clip-path="url(#clip503)" cx="2286.63" cy="344.097" r="14.4" fill="#800080" fill-rule="evenodd" fill-opacity="0.8" stroke="#000000" stroke-opacity="0.8" stroke-width="0"/>
<circle clip-path="url(#clip503)" cx="2229.92" cy="233.956" r="14.4" fill="#800080" fill-rule="evenodd" fill-opacity="0.8" stroke="#000000" stroke-opacity="0.8" stroke-width="0"/>
<circle clip-path="url(#clip503)" cx="2278.27" cy="310.718" r="14.4" fill="#800080" fill-rule="evenodd" fill-opacity="0.8" stroke="#000000" stroke-opacity="0.8" stroke-width="0"/>
<circle clip-path="url(#clip503)" cx="2242.18" cy="281.159" r="14.4" fill="#800080" fill-rule="evenodd" fill-opacity="0.8" stroke="#000000" stroke-opacity="0.8" stroke-width="0"/>
<circle clip-path="url(#clip503)" cx="2262.21" cy="286.327" r="14.4" fill="#800080" fill-rule="evenodd" fill-opacity="0.8" stroke="#000000" stroke-opacity="0.8" stroke-width="0"/>
<circle clip-path="url(#clip503)" cx="2224.38" cy="242.136" r="14.4" fill="#800080" fill-rule="evenodd" fill-opacity="0.8" stroke="#000000" stroke-opacity="0.8" stroke-width="0"/>
<circle clip-path="url(#clip503)" cx="2263.83" cy="305.718" r="14.4" fill="#800080" fill-rule="evenodd" fill-opacity="0.8" stroke="#000000" stroke-opacity="0.8" stroke-width="0"/>
<circle clip-path="url(#clip503)" cx="2285.71" cy="317.41" r="14.4" fill="#800080" fill-rule="evenodd" fill-opacity="0.8" stroke="#000000" stroke-opacity="0.8" stroke-width="0"/>
<circle clip-path="url(#clip503)" cx="2306.51" cy="357.498" r="14.4" fill="#800080" fill-rule="evenodd" fill-opacity="0.8" stroke="#000000" stroke-opacity="0.8" stroke-width="0"/>
<circle clip-path="url(#clip503)" cx="2274.12" cy="335.969" r="14.4" fill="#800080" fill-rule="evenodd" fill-opacity="0.8" stroke="#000000" stroke-opacity="0.8" stroke-width="0"/>
<circle clip-path="url(#clip503)" cx="2222.44" cy="217.2" r="14.4" fill="#800080" fill-rule="evenodd" fill-opacity="0.8" stroke="#000000" stroke-opacity="0.8" stroke-width="0"/>
<circle clip-path="url(#clip503)" cx="2284.5" cy="319.868" r="14.4" fill="#800080" fill-rule="evenodd" fill-opacity="0.8" stroke="#000000" stroke-opacity="0.8" stroke-width="0"/>
<circle clip-path="url(#clip503)" cx="2299.27" cy="359.811" r="14.4" fill="#800080" fill-rule="evenodd" fill-opacity="0.8" stroke="#000000" stroke-opacity="0.8" stroke-width="0"/>
<circle clip-path="url(#clip503)" cx="2361.55" cy="483.077" r="14.4" fill="#800080" fill-rule="evenodd" fill-opacity="0.8" stroke="#000000" stroke-opacity="0.8" stroke-width="0"/>
<circle clip-path="url(#clip503)" cx="2155.26" cy="138.334" r="14.4" fill="#800080" fill-rule="evenodd" fill-opacity="0.8" stroke="#000000" stroke-opacity="0.8" stroke-width="0"/>
<circle clip-path="url(#clip503)" cx="2266.18" cy="305.434" r="14.4" fill="#800080" fill-rule="evenodd" fill-opacity="0.8" stroke="#000000" stroke-opacity="0.8" stroke-width="0"/>
<circle clip-path="url(#clip503)" cx="2183.21" cy="176.117" r="14.4" fill="#800080" fill-rule="evenodd" fill-opacity="0.8" stroke="#000000" stroke-opacity="0.8" stroke-width="0"/>
<circle clip-path="url(#clip503)" cx="2246.17" cy="264.081" r="14.4" fill="#800080" fill-rule="evenodd" fill-opacity="0.8" stroke="#000000" stroke-opacity="0.8" stroke-width="0"/>
<circle clip-path="url(#clip503)" cx="2238.78" cy="240.76" r="14.4" fill="#800080" fill-rule="evenodd" fill-opacity="0.8" stroke="#000000" stroke-opacity="0.8" stroke-width="0"/>
<circle clip-path="url(#clip503)" cx="2674.15" cy="1059.46" r="14.4" fill="#800080" fill-rule="evenodd" fill-opacity="0.8" stroke="#000000" stroke-opacity="0.8" stroke-width="0"/>
<circle clip-path="url(#clip503)" cx="2234.94" cy="247.377" r="14.4" fill="#800080" fill-rule="evenodd" fill-opacity="0.8" stroke="#000000" stroke-opacity="0.8" stroke-width="0"/>
<circle clip-path="url(#clip503)" cx="2267.41" cy="331.63" r="14.4" fill="#800080" fill-rule="evenodd" fill-opacity="0.8" stroke="#000000" stroke-opacity="0.8" stroke-width="0"/>
<circle clip-path="url(#clip503)" cx="2168.85" cy="136.578" r="14.4" fill="#800080" fill-rule="evenodd" fill-opacity="0.8" stroke="#000000" stroke-opacity="0.8" stroke-width="0"/>
<circle clip-path="url(#clip503)" cx="2751.95" cy="1220.43" r="14.4" fill="#ff0000" fill-rule="evenodd" fill-opacity="0.8" stroke="#000000" stroke-opacity="0.8" stroke-width="0"/>
<circle clip-path="url(#clip503)" cx="2758.37" cy="1206.99" r="14.4" fill="#ff0000" fill-rule="evenodd" fill-opacity="0.8" stroke="#000000" stroke-opacity="0.8" stroke-width="0"/>
<circle clip-path="url(#clip503)" cx="2762.13" cy="1239.14" r="14.4" fill="#ff0000" fill-rule="evenodd" fill-opacity="0.8" stroke="#000000" stroke-opacity="0.8" stroke-width="0"/>
<circle clip-path="url(#clip503)" cx="2740.92" cy="1207.47" r="14.4" fill="#ff0000" fill-rule="evenodd" fill-opacity="0.8" stroke="#000000" stroke-opacity="0.8" stroke-width="0"/>
<circle clip-path="url(#clip503)" cx="2751.42" cy="1206.45" r="14.4" fill="#ff0000" fill-rule="evenodd" fill-opacity="0.8" stroke="#000000" stroke-opacity="0.8" stroke-width="0"/>
<circle clip-path="url(#clip503)" cx="2719.71" cy="1186.69" r="14.4" fill="#ff0000" fill-rule="evenodd" fill-opacity="0.8" stroke="#000000" stroke-opacity="0.8" stroke-width="0"/>
<circle clip-path="url(#clip503)" cx="2716.35" cy="1166.14" r="14.4" fill="#ff0000" fill-rule="evenodd" fill-opacity="0.8" stroke="#000000" stroke-opacity="0.8" stroke-width="0"/>
<circle clip-path="url(#clip503)" cx="2740.86" cy="1204.37" r="14.4" fill="#ff0000" fill-rule="evenodd" fill-opacity="0.8" stroke="#000000" stroke-opacity="0.8" stroke-width="0"/>
<circle clip-path="url(#clip503)" cx="2695.7" cy="1150.32" r="14.4" fill="#ff0000" fill-rule="evenodd" fill-opacity="0.8" stroke="#000000" stroke-opacity="0.8" stroke-width="0"/>
<circle clip-path="url(#clip503)" cx="2712.21" cy="1159.01" r="14.4" fill="#ff0000" fill-rule="evenodd" fill-opacity="0.8" stroke="#000000" stroke-opacity="0.8" stroke-width="0"/>
<circle clip-path="url(#clip503)" cx="2741.5" cy="1191.7" r="14.4" fill="#ff0000" fill-rule="evenodd" fill-opacity="0.8" stroke="#000000" stroke-opacity="0.8" stroke-width="0"/>
<circle clip-path="url(#clip503)" cx="2765.09" cy="1223.1" r="14.4" fill="#ff0000" fill-rule="evenodd" fill-opacity="0.8" stroke="#000000" stroke-opacity="0.8" stroke-width="0"/>
<circle clip-path="url(#clip503)" cx="2776.21" cy="1266.43" r="14.4" fill="#ff0000" fill-rule="evenodd" fill-opacity="0.8" stroke="#000000" stroke-opacity="0.8" stroke-width="0"/>
<circle clip-path="url(#clip503)" cx="2759.14" cy="1224.16" r="14.4" fill="#ff0000" fill-rule="evenodd" fill-opacity="0.8" stroke="#000000" stroke-opacity="0.8" stroke-width="0"/>
<circle clip-path="url(#clip503)" cx="2705.34" cy="1178.46" r="14.4" fill="#ff0000" fill-rule="evenodd" fill-opacity="0.8" stroke="#000000" stroke-opacity="0.8" stroke-width="0"/>
<circle clip-path="url(#clip503)" cx="2734.72" cy="1179.73" r="14.4" fill="#ff0000" fill-rule="evenodd" fill-opacity="0.8" stroke="#000000" stroke-opacity="0.8" stroke-width="0"/>
<circle clip-path="url(#clip503)" cx="2653.65" cy="1109.6" r="14.4" fill="#ff0000" fill-rule="evenodd" fill-opacity="0.8" stroke="#000000" stroke-opacity="0.8" stroke-width="0"/>
<circle clip-path="url(#clip503)" cx="2752.61" cy="1203.78" r="14.4" fill="#ff0000" fill-rule="evenodd" fill-opacity="0.8" stroke="#000000" stroke-opacity="0.8" stroke-width="0"/>
<circle clip-path="url(#clip503)" cx="2750.94" cy="1207.23" r="14.4" fill="#ff0000" fill-rule="evenodd" fill-opacity="0.8" stroke="#000000" stroke-opacity="0.8" stroke-width="0"/>
<circle clip-path="url(#clip503)" cx="2751.6" cy="1190.52" r="14.4" fill="#ff0000" fill-rule="evenodd" fill-opacity="0.8" stroke="#000000" stroke-opacity="0.8" stroke-width="0"/>
<circle clip-path="url(#clip503)" cx="2737.3" cy="1179.79" r="14.4" fill="#ff0000" fill-rule="evenodd" fill-opacity="0.8" stroke="#000000" stroke-opacity="0.8" stroke-width="0"/>
<circle clip-path="url(#clip503)" cx="2766.2" cy="1239.56" r="14.4" fill="#ff0000" fill-rule="evenodd" fill-opacity="0.8" stroke="#000000" stroke-opacity="0.8" stroke-width="0"/>
<circle clip-path="url(#clip503)" cx="2707.32" cy="1149.18" r="14.4" fill="#ff0000" fill-rule="evenodd" fill-opacity="0.8" stroke="#000000" stroke-opacity="0.8" stroke-width="0"/>
<circle clip-path="url(#clip503)" cx="2740.43" cy="1217.54" r="14.4" fill="#ff0000" fill-rule="evenodd" fill-opacity="0.8" stroke="#000000" stroke-opacity="0.8" stroke-width="0"/>
<circle clip-path="url(#clip503)" cx="2729.84" cy="1151.6" r="14.4" fill="#ff0000" fill-rule="evenodd" fill-opacity="0.8" stroke="#000000" stroke-opacity="0.8" stroke-width="0"/>
<circle clip-path="url(#clip503)" cx="2733.4" cy="1200.25" r="14.4" fill="#ff0000" fill-rule="evenodd" fill-opacity="0.8" stroke="#000000" stroke-opacity="0.8" stroke-width="0"/>
<circle clip-path="url(#clip503)" cx="2719.35" cy="1163.22" r="14.4" fill="#ff0000" fill-rule="evenodd" fill-opacity="0.8" stroke="#000000" stroke-opacity="0.8" stroke-width="0"/>
<circle clip-path="url(#clip503)" cx="2736.81" cy="1216.23" r="14.4" fill="#ff0000" fill-rule="evenodd" fill-opacity="0.8" stroke="#000000" stroke-opacity="0.8" stroke-width="0"/>
<circle clip-path="url(#clip503)" cx="2727.24" cy="1159.16" r="14.4" fill="#ff0000" fill-rule="evenodd" fill-opacity="0.8" stroke="#000000" stroke-opacity="0.8" stroke-width="0"/>
<circle clip-path="url(#clip503)" cx="2737.12" cy="1176.38" r="14.4" fill="#ff0000" fill-rule="evenodd" fill-opacity="0.8" stroke="#000000" stroke-opacity="0.8" stroke-width="0"/>
<circle clip-path="url(#clip503)" cx="2698.89" cy="1147.67" r="14.4" fill="#ff0000" fill-rule="evenodd" fill-opacity="0.8" stroke="#000000" stroke-opacity="0.8" stroke-width="0"/>
<circle clip-path="url(#clip503)" cx="2740.38" cy="1204.75" r="14.4" fill="#ff0000" fill-rule="evenodd" fill-opacity="0.8" stroke="#000000" stroke-opacity="0.8" stroke-width="0"/>
<circle clip-path="url(#clip503)" cx="2749.19" cy="1222.66" r="14.4" fill="#ff0000" fill-rule="evenodd" fill-opacity="0.8" stroke="#000000" stroke-opacity="0.8" stroke-width="0"/>
<circle clip-path="url(#clip503)" cx="2747.97" cy="1212.51" r="14.4" fill="#ff0000" fill-rule="evenodd" fill-opacity="0.8" stroke="#000000" stroke-opacity="0.8" stroke-width="0"/>
<circle clip-path="url(#clip503)" cx="2744.13" cy="1215.13" r="14.4" fill="#ff0000" fill-rule="evenodd" fill-opacity="0.8" stroke="#000000" stroke-opacity="0.8" stroke-width="0"/>
<circle clip-path="url(#clip503)" cx="2681.77" cy="1111.91" r="14.4" fill="#ff0000" fill-rule="evenodd" fill-opacity="0.8" stroke="#000000" stroke-opacity="0.8" stroke-width="0"/>
<circle clip-path="url(#clip503)" cx="2730.29" cy="1208.32" r="14.4" fill="#ff0000" fill-rule="evenodd" fill-opacity="0.8" stroke="#000000" stroke-opacity="0.8" stroke-width="0"/>
<circle clip-path="url(#clip503)" cx="2741.84" cy="1190.41" r="14.4" fill="#ff0000" fill-rule="evenodd" fill-opacity="0.8" stroke="#000000" stroke-opacity="0.8" stroke-width="0"/>
<circle clip-path="url(#clip503)" cx="2730.48" cy="1210.05" r="14.4" fill="#ff0000" fill-rule="evenodd" fill-opacity="0.8" stroke="#000000" stroke-opacity="0.8" stroke-width="0"/>
<circle clip-path="url(#clip503)" cx="2738.98" cy="1203.06" r="14.4" fill="#ff0000" fill-rule="evenodd" fill-opacity="0.8" stroke="#000000" stroke-opacity="0.8" stroke-width="0"/>
<circle clip-path="url(#clip503)" cx="2747.23" cy="1192.59" r="14.4" fill="#ff0000" fill-rule="evenodd" fill-opacity="0.8" stroke="#000000" stroke-opacity="0.8" stroke-width="0"/>
<circle clip-path="url(#clip503)" cx="2733.52" cy="1198.81" r="14.4" fill="#ff0000" fill-rule="evenodd" fill-opacity="0.8" stroke="#000000" stroke-opacity="0.8" stroke-width="0"/>
<circle clip-path="url(#clip503)" cx="2737.84" cy="1195.24" r="14.4" fill="#ff0000" fill-rule="evenodd" fill-opacity="0.8" stroke="#000000" stroke-opacity="0.8" stroke-width="0"/>
<circle clip-path="url(#clip503)" cx="2758.82" cy="1235.36" r="14.4" fill="#ff0000" fill-rule="evenodd" fill-opacity="0.8" stroke="#000000" stroke-opacity="0.8" stroke-width="0"/>
<circle clip-path="url(#clip503)" cx="2726.91" cy="1202.5" r="14.4" fill="#ff0000" fill-rule="evenodd" fill-opacity="0.8" stroke="#000000" stroke-opacity="0.8" stroke-width="0"/>
<circle clip-path="url(#clip503)" cx="2730.06" cy="1174.41" r="14.4" fill="#ff0000" fill-rule="evenodd" fill-opacity="0.8" stroke="#000000" stroke-opacity="0.8" stroke-width="0"/>
<circle clip-path="url(#clip503)" cx="2745.38" cy="1197.35" r="14.4" fill="#ff0000" fill-rule="evenodd" fill-opacity="0.8" stroke="#000000" stroke-opacity="0.8" stroke-width="0"/>
<circle clip-path="url(#clip503)" cx="2742.85" cy="1220.35" r="14.4" fill="#ff0000" fill-rule="evenodd" fill-opacity="0.8" stroke="#000000" stroke-opacity="0.8" stroke-width="0"/>
<circle clip-path="url(#clip503)" cx="2729.56" cy="1187.62" r="14.4" fill="#ff0000" fill-rule="evenodd" fill-opacity="0.8" stroke="#000000" stroke-opacity="0.8" stroke-width="0"/>
<circle clip-path="url(#clip503)" cx="2697.37" cy="1134.58" r="14.4" fill="#ff0000" fill-rule="evenodd" fill-opacity="0.8" stroke="#000000" stroke-opacity="0.8" stroke-width="0"/>
<circle clip-path="url(#clip503)" cx="2673.25" cy="730.465" r="36" fill="#ffff00" fill-rule="evenodd" fill-opacity="1" stroke="#000000" stroke-opacity="1" stroke-width="2.8"/>
<circle clip-path="url(#clip503)" cx="2532.22" cy="333.499" r="18" fill="#ffff00" fill-rule="evenodd" fill-opacity="1" stroke="#000000" stroke-opacity="1" stroke-width="2.8"/>
<circle clip-path="url(#clip503)" cx="2621.67" cy="523.259" r="18" fill="#ffff00" fill-rule="evenodd" fill-opacity="1" stroke="#000000" stroke-opacity="1" stroke-width="2.8"/>
<circle clip-path="url(#clip503)" cx="2654.21" cy="637.047" r="18" fill="#ffff00" fill-rule="evenodd" fill-opacity="1" stroke="#000000" stroke-opacity="1" stroke-width="2.8"/>
</svg>
