<?xml version="1.0" encoding="utf-8"?>
<svg xmlns="http://www.w3.org/2000/svg" xmlns:xlink="http://www.w3.org/1999/xlink" width="500" height="400" viewBox="0 0 2000 1600">
<defs>
  <clipPath id="clip810">
    <rect x="0" y="0" width="2000" height="1600"/>
  </clipPath>
</defs>
<path clip-path="url(#clip810)" d="M0 1600 L2000 1600 L2000 0 L0 0  Z" fill="#ffffff" fill-rule="evenodd" fill-opacity="1"/>
<defs>
  <clipPath id="clip811">
    <rect x="400" y="0" width="1401" height="1401"/>
  </clipPath>
</defs>
<path clip-path="url(#clip810)" d="M261.713 1406.76 L1952.76 1406.76 L1952.76 47.2441 L261.713 47.2441  Z" fill="#ffffff" fill-rule="evenodd" fill-opacity="1"/>
<defs>
  <clipPath id="clip812">
    <rect x="261" y="47" width="1692" height="1361"/>
  </clipPath>
</defs>
<polyline clip-path="url(#clip812)" style="stroke:#000000; stroke-linecap:round; stroke-linejoin:round; stroke-width:2; stroke-opacity:0.1; fill:none" points="410.01,1406.76 410.01,47.2441 "/>
<polyline clip-path="url(#clip812)" style="stroke:#000000; stroke-linecap:round; stroke-linejoin:round; stroke-width:2; stroke-opacity:0.1; fill:none" points="761.807,1406.76 761.807,47.2441 "/>
<polyline clip-path="url(#clip812)" style="stroke:#000000; stroke-linecap:round; stroke-linejoin:round; stroke-width:2; stroke-opacity:0.1; fill:none" points="1113.6,1406.76 1113.6,47.2441 "/>
<polyline clip-path="url(#clip812)" style="stroke:#000000; stroke-linecap:round; stroke-linejoin:round; stroke-width:2; stroke-opacity:0.1; fill:none" points="1465.4,1406.76 1465.4,47.2441 "/>
<polyline clip-path="url(#clip812)" style="stroke:#000000; stroke-linecap:round; stroke-linejoin:round; stroke-width:2; stroke-opacity:0.1; fill:none" points="1817.19,1406.76 1817.19,47.2441 "/>
<polyline clip-path="url(#clip810)" style="stroke:#000000; stroke-linecap:round; stroke-linejoin:round; stroke-width:4; stroke-opacity:1; fill:none" points="261.713,1406.76 1952.76,1406.76 "/>
<polyline clip-path="url(#clip810)" style="stroke:#000000; stroke-linecap:round; stroke-linejoin:round; stroke-width:4; stroke-opacity:1; fill:none" points="410.01,1406.76 410.01,1387.87 "/>
<polyline clip-path="url(#clip810)" style="stroke:#000000; stroke-linecap:round; stroke-linejoin:round; stroke-width:4; stroke-opacity:1; fill:none" points="761.807,1406.76 761.807,1387.87 "/>
<polyline clip-path="url(#clip810)" style="stroke:#000000; stroke-linecap:round; stroke-linejoin:round; stroke-width:4; stroke-opacity:1; fill:none" points="1113.6,1406.76 1113.6,1387.87 "/>
<polyline clip-path="url(#clip810)" style="stroke:#000000; stroke-linecap:round; stroke-linejoin:round; stroke-width:4; stroke-opacity:1; fill:none" points="1465.4,1406.76 1465.4,1387.87 "/>
<polyline clip-path="url(#clip810)" style="stroke:#000000; stroke-linecap:round; stroke-linejoin:round; stroke-width:4; stroke-opacity:1; fill:none" points="1817.19,1406.76 1817.19,1387.87 "/>
<path clip-path="url(#clip810)" d="M356.295 1449.14 L385.971 1449.14 L385.971 1453.07 L356.295 1453.07 L356.295 1449.14 Z" fill="#000000" fill-rule="nonzero" fill-opacity="1" /><path clip-path="url(#clip810)" d="M406.064 1434.48 Q402.453 1434.48 400.624 1438.05 Q398.818 1441.59 398.818 1448.72 Q398.818 1455.83 400.624 1459.39 Q402.453 1462.93 406.064 1462.93 Q409.698 1462.93 411.503 1459.39 Q413.332 1455.83 413.332 1448.72 Q413.332 1441.59 411.503 1438.05 Q409.698 1434.48 406.064 1434.48 M406.064 1430.78 Q411.874 1430.78 414.929 1435.39 Q418.008 1439.97 418.008 1448.72 Q418.008 1457.45 414.929 1462.05 Q411.874 1466.64 406.064 1466.64 Q400.254 1466.64 397.175 1462.05 Q394.119 1457.45 394.119 1448.72 Q394.119 1439.97 397.175 1435.39 Q400.254 1430.78 406.064 1430.78 Z" fill="#000000" fill-rule="nonzero" fill-opacity="1" /><path clip-path="url(#clip810)" d="M426.226 1460.08 L431.11 1460.08 L431.11 1465.96 L426.226 1465.96 L426.226 1460.08 Z" fill="#000000" fill-rule="nonzero" fill-opacity="1" /><path clip-path="url(#clip810)" d="M454.142 1435.48 L442.337 1453.93 L454.142 1453.93 L454.142 1435.48 M452.915 1431.4 L458.795 1431.4 L458.795 1453.93 L463.725 1453.93 L463.725 1457.82 L458.795 1457.82 L458.795 1465.96 L454.142 1465.96 L454.142 1457.82 L438.54 1457.82 L438.54 1453.3 L452.915 1431.4 Z" fill="#000000" fill-rule="nonzero" fill-opacity="1" /><path clip-path="url(#clip810)" d="M709.133 1449.14 L738.809 1449.14 L738.809 1453.07 L709.133 1453.07 L709.133 1449.14 Z" fill="#000000" fill-rule="nonzero" fill-opacity="1" /><path clip-path="url(#clip810)" d="M758.901 1434.48 Q755.29 1434.48 753.462 1438.05 Q751.656 1441.59 751.656 1448.72 Q751.656 1455.83 753.462 1459.39 Q755.29 1462.93 758.901 1462.93 Q762.536 1462.93 764.341 1459.39 Q766.17 1455.83 766.17 1448.72 Q766.17 1441.59 764.341 1438.05 Q762.536 1434.48 758.901 1434.48 M758.901 1430.78 Q764.712 1430.78 767.767 1435.39 Q770.846 1439.97 770.846 1448.72 Q770.846 1457.45 767.767 1462.05 Q764.712 1466.64 758.901 1466.64 Q753.091 1466.64 750.013 1462.05 Q746.957 1457.45 746.957 1448.72 Q746.957 1439.97 750.013 1435.39 Q753.091 1430.78 758.901 1430.78 Z" fill="#000000" fill-rule="nonzero" fill-opacity="1" /><path clip-path="url(#clip810)" d="M779.063 1460.08 L783.948 1460.08 L783.948 1465.96 L779.063 1465.96 L779.063 1460.08 Z" fill="#000000" fill-rule="nonzero" fill-opacity="1" /><path clip-path="url(#clip810)" d="M798.161 1462.03 L814.48 1462.03 L814.48 1465.96 L792.536 1465.96 L792.536 1462.03 Q795.198 1459.27 799.781 1454.64 Q804.387 1449.99 805.568 1448.65 Q807.813 1446.13 808.693 1444.39 Q809.596 1442.63 809.596 1440.94 Q809.596 1438.19 807.651 1436.45 Q805.73 1434.71 802.628 1434.71 Q800.429 1434.71 797.975 1435.48 Q795.545 1436.24 792.767 1437.79 L792.767 1433.07 Q795.591 1431.94 798.045 1431.36 Q800.498 1430.78 802.535 1430.78 Q807.906 1430.78 811.1 1433.46 Q814.295 1436.15 814.295 1440.64 Q814.295 1442.77 813.485 1444.69 Q812.697 1446.59 810.591 1449.18 Q810.012 1449.85 806.91 1453.07 Q803.809 1456.26 798.161 1462.03 Z" fill="#000000" fill-rule="nonzero" fill-opacity="1" /><path clip-path="url(#clip810)" d="M1090.99 1434.48 Q1087.38 1434.48 1085.55 1438.05 Q1083.74 1441.59 1083.74 1448.72 Q1083.74 1455.83 1085.55 1459.39 Q1087.38 1462.93 1090.99 1462.93 Q1094.62 1462.93 1096.43 1459.39 Q1098.26 1455.83 1098.26 1448.72 Q1098.26 1441.59 1096.43 1438.05 Q1094.62 1434.48 1090.99 1434.48 M1090.99 1430.78 Q1096.8 1430.78 1099.85 1435.39 Q1102.93 1439.97 1102.93 1448.72 Q1102.93 1457.45 1099.85 1462.05 Q1096.8 1466.64 1090.99 1466.64 Q1085.18 1466.64 1082.1 1462.05 Q1079.04 1457.45 1079.04 1448.72 Q1079.04 1439.97 1082.1 1435.39 Q1085.18 1430.78 1090.99 1430.78 Z" fill="#000000" fill-rule="nonzero" fill-opacity="1" /><path clip-path="url(#clip810)" d="M1111.15 1460.08 L1116.03 1460.08 L1116.03 1465.96 L1111.15 1465.96 L1111.15 1460.08 Z" fill="#000000" fill-rule="nonzero" fill-opacity="1" /><path clip-path="url(#clip810)" d="M1136.22 1434.48 Q1132.61 1434.48 1130.78 1438.05 Q1128.97 1441.59 1128.97 1448.72 Q1128.97 1455.83 1130.78 1459.39 Q1132.61 1462.93 1136.22 1462.93 Q1139.85 1462.93 1141.66 1459.39 Q1143.49 1455.83 1143.49 1448.72 Q1143.49 1441.59 1141.66 1438.05 Q1139.85 1434.48 1136.22 1434.48 M1136.22 1430.78 Q1142.03 1430.78 1145.08 1435.39 Q1148.16 1439.97 1148.16 1448.72 Q1148.16 1457.45 1145.08 1462.05 Q1142.03 1466.64 1136.22 1466.64 Q1130.41 1466.64 1127.33 1462.05 Q1124.27 1457.45 1124.27 1448.72 Q1124.27 1439.97 1127.33 1435.39 Q1130.41 1430.78 1136.22 1430.78 Z" fill="#000000" fill-rule="nonzero" fill-opacity="1" /><path clip-path="url(#clip810)" d="M1443.58 1434.48 Q1439.97 1434.48 1438.14 1438.05 Q1436.34 1441.59 1436.34 1448.72 Q1436.34 1455.83 1438.14 1459.39 Q1439.97 1462.93 1443.58 1462.93 Q1447.22 1462.93 1449.02 1459.39 Q1450.85 1455.83 1450.85 1448.72 Q1450.85 1441.59 1449.02 1438.05 Q1447.22 1434.48 1443.58 1434.48 M1443.58 1430.78 Q1449.39 1430.78 1452.45 1435.39 Q1455.53 1439.97 1455.53 1448.72 Q1455.53 1457.45 1452.45 1462.05 Q1449.39 1466.64 1443.58 1466.64 Q1437.77 1466.64 1434.69 1462.05 Q1431.64 1457.45 1431.64 1448.72 Q1431.64 1439.97 1434.69 1435.39 Q1437.77 1430.78 1443.58 1430.78 Z" fill="#000000" fill-rule="nonzero" fill-opacity="1" /><path clip-path="url(#clip810)" d="M1463.74 1460.08 L1468.63 1460.08 L1468.63 1465.96 L1463.74 1465.96 L1463.74 1460.08 Z" fill="#000000" fill-rule="nonzero" fill-opacity="1" /><path clip-path="url(#clip810)" d="M1482.84 1462.03 L1499.16 1462.03 L1499.16 1465.96 L1477.22 1465.96 L1477.22 1462.03 Q1479.88 1459.27 1484.46 1454.64 Q1489.07 1449.99 1490.25 1448.65 Q1492.49 1446.13 1493.37 1444.39 Q1494.28 1442.63 1494.28 1440.94 Q1494.28 1438.19 1492.33 1436.45 Q1490.41 1434.71 1487.31 1434.71 Q1485.11 1434.71 1482.66 1435.48 Q1480.23 1436.24 1477.45 1437.79 L1477.45 1433.07 Q1480.27 1431.94 1482.73 1431.36 Q1485.18 1430.78 1487.22 1430.78 Q1492.59 1430.78 1495.78 1433.46 Q1498.97 1436.15 1498.97 1440.64 Q1498.97 1442.77 1498.16 1444.69 Q1497.38 1446.59 1495.27 1449.18 Q1494.69 1449.85 1491.59 1453.07 Q1488.49 1456.26 1482.84 1462.03 Z" fill="#000000" fill-rule="nonzero" fill-opacity="1" /><path clip-path="url(#clip810)" d="M1794.34 1434.48 Q1790.73 1434.48 1788.9 1438.05 Q1787.09 1441.59 1787.09 1448.72 Q1787.09 1455.83 1788.9 1459.39 Q1790.73 1462.93 1794.34 1462.93 Q1797.97 1462.93 1799.78 1459.39 Q1801.6 1455.83 1801.6 1448.72 Q1801.6 1441.59 1799.78 1438.05 Q1797.97 1434.48 1794.34 1434.48 M1794.34 1430.78 Q1800.15 1430.78 1803.2 1435.39 Q1806.28 1439.97 1806.28 1448.72 Q1806.28 1457.45 1803.2 1462.05 Q1800.15 1466.64 1794.34 1466.64 Q1788.53 1466.64 1785.45 1462.05 Q1782.39 1457.45 1782.39 1448.72 Q1782.39 1439.97 1785.45 1435.39 Q1788.53 1430.78 1794.34 1430.78 Z" fill="#000000" fill-rule="nonzero" fill-opacity="1" /><path clip-path="url(#clip810)" d="M1814.5 1460.08 L1819.38 1460.08 L1819.38 1465.96 L1814.5 1465.96 L1814.5 1460.08 Z" fill="#000000" fill-rule="nonzero" fill-opacity="1" /><path clip-path="url(#clip810)" d="M1842.41 1435.48 L1830.61 1453.93 L1842.41 1453.93 L1842.41 1435.48 M1841.19 1431.4 L1847.07 1431.4 L1847.07 1453.93 L1852 1453.93 L1852 1457.82 L1847.07 1457.82 L1847.07 1465.96 L1842.41 1465.96 L1842.41 1457.82 L1826.81 1457.82 L1826.81 1453.3 L1841.19 1431.4 Z" fill="#000000" fill-rule="nonzero" fill-opacity="1" /><path clip-path="url(#clip810)" d="M992.667 1509.98 L998.524 1509.98 L998.524 1545.63 L992.667 1545.63 L992.667 1509.98 M992.667 1496.1 L998.524 1496.1 L998.524 1503.52 L992.667 1503.52 L992.667 1496.1 Z" fill="#000000" fill-rule="nonzero" fill-opacity="1" /><path clip-path="url(#clip810)" d="M1040.41 1524.11 L1040.41 1545.63 L1034.55 1545.63 L1034.55 1524.3 Q1034.55 1519.24 1032.58 1516.73 Q1030.61 1514.21 1026.66 1514.21 Q1021.92 1514.21 1019.18 1517.24 Q1016.44 1520.26 1016.44 1525.48 L1016.44 1545.63 L1010.56 1545.63 L1010.56 1509.98 L1016.44 1509.98 L1016.44 1515.52 Q1018.54 1512.3 1021.38 1510.71 Q1024.24 1509.12 1027.97 1509.12 Q1034.11 1509.12 1037.26 1512.94 Q1040.41 1516.73 1040.41 1524.11 Z" fill="#000000" fill-rule="nonzero" fill-opacity="1" /><path clip-path="url(#clip810)" d="M1077.75 1511.35 L1077.75 1516.82 Q1075.26 1515.45 1072.75 1514.79 Q1070.27 1514.09 1067.72 1514.09 Q1062.02 1514.09 1058.87 1517.71 Q1055.72 1521.31 1055.72 1527.84 Q1055.72 1534.36 1058.87 1537.99 Q1062.02 1541.59 1067.72 1541.59 Q1070.27 1541.59 1072.75 1540.92 Q1075.26 1540.22 1077.75 1538.85 L1077.75 1544.26 Q1075.29 1545.41 1072.65 1545.98 Q1070.04 1546.55 1067.08 1546.55 Q1059.03 1546.55 1054.29 1541.49 Q1049.55 1536.43 1049.55 1527.84 Q1049.55 1519.11 1054.32 1514.12 Q1059.13 1509.12 1067.46 1509.12 Q1070.17 1509.12 1072.75 1509.69 Q1075.33 1510.23 1077.75 1511.35 Z" fill="#000000" fill-rule="nonzero" fill-opacity="1" /><path clip-path="url(#clip810)" d="M1101.74 1514.09 Q1097.03 1514.09 1094.3 1517.78 Q1091.56 1521.44 1091.56 1527.84 Q1091.56 1534.23 1094.26 1537.93 Q1097 1541.59 1101.74 1541.59 Q1106.42 1541.59 1109.16 1537.89 Q1111.9 1534.2 1111.9 1527.84 Q1111.9 1521.5 1109.16 1517.81 Q1106.42 1514.09 1101.74 1514.09 M1101.74 1509.12 Q1109.38 1509.12 1113.74 1514.09 Q1118.1 1519.05 1118.1 1527.84 Q1118.1 1536.59 1113.74 1541.59 Q1109.38 1546.55 1101.74 1546.55 Q1094.07 1546.55 1089.71 1541.59 Q1085.38 1536.59 1085.38 1527.84 Q1085.38 1519.05 1089.71 1514.09 Q1094.07 1509.12 1101.74 1509.12 Z" fill="#000000" fill-rule="nonzero" fill-opacity="1" /><path clip-path="url(#clip810)" d="M1155.57 1516.82 Q1157.76 1512.88 1160.82 1511 Q1163.87 1509.12 1168.01 1509.12 Q1173.58 1509.12 1176.6 1513.04 Q1179.63 1516.92 1179.63 1524.11 L1179.63 1545.63 L1173.74 1545.63 L1173.74 1524.3 Q1173.74 1519.18 1171.93 1516.7 Q1170.11 1514.21 1166.39 1514.21 Q1161.84 1514.21 1159.19 1517.24 Q1156.55 1520.26 1156.55 1525.48 L1156.55 1545.63 L1150.66 1545.63 L1150.66 1524.3 Q1150.66 1519.15 1148.85 1516.7 Q1147.04 1514.21 1143.25 1514.21 Q1138.76 1514.21 1136.12 1517.27 Q1133.48 1520.29 1133.48 1525.48 L1133.48 1545.63 L1127.59 1545.63 L1127.59 1509.98 L1133.48 1509.98 L1133.48 1515.52 Q1135.48 1512.24 1138.28 1510.68 Q1141.08 1509.12 1144.94 1509.12 Q1148.82 1509.12 1151.52 1511.09 Q1154.26 1513.07 1155.57 1516.82 Z" fill="#000000" fill-rule="nonzero" fill-opacity="1" /><path clip-path="url(#clip810)" d="M1221.8 1526.34 L1221.8 1529.2 L1194.87 1529.2 Q1195.26 1535.25 1198.5 1538.43 Q1201.78 1541.59 1207.61 1541.59 Q1210.98 1541.59 1214.13 1540.76 Q1217.31 1539.93 1220.43 1538.28 L1220.43 1543.81 Q1217.28 1545.15 1213.97 1545.85 Q1210.66 1546.55 1207.26 1546.55 Q1198.73 1546.55 1193.73 1541.59 Q1188.76 1536.62 1188.76 1528.15 Q1188.76 1519.4 1193.47 1514.28 Q1198.22 1509.12 1206.24 1509.12 Q1213.43 1509.12 1217.6 1513.77 Q1221.8 1518.38 1221.8 1526.34 M1215.94 1524.62 Q1215.88 1519.81 1213.24 1516.95 Q1210.63 1514.09 1206.3 1514.09 Q1201.4 1514.09 1198.44 1516.85 Q1195.51 1519.62 1195.07 1524.65 L1215.94 1524.62 Z" fill="#000000" fill-rule="nonzero" fill-opacity="1" /><polyline clip-path="url(#clip812)" style="stroke:#000000; stroke-linecap:round; stroke-linejoin:round; stroke-width:2; stroke-opacity:0.1; fill:none" points="261.713,1224.69 1952.76,1224.69 "/>
<polyline clip-path="url(#clip812)" style="stroke:#000000; stroke-linecap:round; stroke-linejoin:round; stroke-width:2; stroke-opacity:0.1; fill:none" points="261.713,952.899 1952.76,952.899 "/>
<polyline clip-path="url(#clip812)" style="stroke:#000000; stroke-linecap:round; stroke-linejoin:round; stroke-width:2; stroke-opacity:0.1; fill:none" points="261.713,681.106 1952.76,681.106 "/>
<polyline clip-path="url(#clip812)" style="stroke:#000000; stroke-linecap:round; stroke-linejoin:round; stroke-width:2; stroke-opacity:0.1; fill:none" points="261.713,409.314 1952.76,409.314 "/>
<polyline clip-path="url(#clip812)" style="stroke:#000000; stroke-linecap:round; stroke-linejoin:round; stroke-width:2; stroke-opacity:0.1; fill:none" points="261.713,137.521 1952.76,137.521 "/>
<polyline clip-path="url(#clip810)" style="stroke:#000000; stroke-linecap:round; stroke-linejoin:round; stroke-width:4; stroke-opacity:1; fill:none" points="261.713,1406.76 261.713,47.2441 "/>
<polyline clip-path="url(#clip810)" style="stroke:#000000; stroke-linecap:round; stroke-linejoin:round; stroke-width:4; stroke-opacity:1; fill:none" points="261.713,1224.69 280.61,1224.69 "/>
<polyline clip-path="url(#clip810)" style="stroke:#000000; stroke-linecap:round; stroke-linejoin:round; stroke-width:4; stroke-opacity:1; fill:none" points="261.713,952.899 280.61,952.899 "/>
<polyline clip-path="url(#clip810)" style="stroke:#000000; stroke-linecap:round; stroke-linejoin:round; stroke-width:4; stroke-opacity:1; fill:none" points="261.713,681.106 280.61,681.106 "/>
<polyline clip-path="url(#clip810)" style="stroke:#000000; stroke-linecap:round; stroke-linejoin:round; stroke-width:4; stroke-opacity:1; fill:none" points="261.713,409.314 280.61,409.314 "/>
<polyline clip-path="url(#clip810)" style="stroke:#000000; stroke-linecap:round; stroke-linejoin:round; stroke-width:4; stroke-opacity:1; fill:none" points="261.713,137.521 280.61,137.521 "/>
<path clip-path="url(#clip810)" d="M125.764 1225.14 L155.44 1225.14 L155.44 1229.08 L125.764 1229.08 L125.764 1225.14 Z" fill="#000000" fill-rule="nonzero" fill-opacity="1" /><path clip-path="url(#clip810)" d="M175.532 1210.49 Q171.921 1210.49 170.093 1214.05 Q168.287 1217.6 168.287 1224.73 Q168.287 1231.83 170.093 1235.4 Q171.921 1238.94 175.532 1238.94 Q179.167 1238.94 180.972 1235.4 Q182.801 1231.83 182.801 1224.73 Q182.801 1217.6 180.972 1214.05 Q179.167 1210.49 175.532 1210.49 M175.532 1206.79 Q181.343 1206.79 184.398 1211.39 Q187.477 1215.98 187.477 1224.73 Q187.477 1233.45 184.398 1238.06 Q181.343 1242.64 175.532 1242.64 Q169.722 1242.64 166.644 1238.06 Q163.588 1233.45 163.588 1224.73 Q163.588 1215.98 166.644 1211.39 Q169.722 1206.79 175.532 1206.79 Z" fill="#000000" fill-rule="nonzero" fill-opacity="1" /><path clip-path="url(#clip810)" d="M195.694 1236.09 L200.579 1236.09 L200.579 1241.97 L195.694 1241.97 L195.694 1236.09 Z" fill="#000000" fill-rule="nonzero" fill-opacity="1" /><path clip-path="url(#clip810)" d="M210.81 1207.41 L229.166 1207.41 L229.166 1211.35 L215.092 1211.35 L215.092 1219.82 Q216.111 1219.47 217.129 1219.31 Q218.148 1219.12 219.166 1219.12 Q224.953 1219.12 228.333 1222.3 Q231.713 1225.47 231.713 1230.88 Q231.713 1236.46 228.24 1239.56 Q224.768 1242.64 218.449 1242.64 Q216.273 1242.64 214.004 1242.27 Q211.759 1241.9 209.352 1241.16 L209.352 1236.46 Q211.435 1237.6 213.657 1238.15 Q215.879 1238.71 218.356 1238.71 Q222.361 1238.71 224.699 1236.6 Q227.037 1234.49 227.037 1230.88 Q227.037 1227.27 224.699 1225.17 Q222.361 1223.06 218.356 1223.06 Q216.481 1223.06 214.606 1223.48 Q212.754 1223.89 210.81 1224.77 L210.81 1207.41 Z" fill="#000000" fill-rule="nonzero" fill-opacity="1" /><path clip-path="url(#clip810)" d="M174.537 938.697 Q170.926 938.697 169.097 942.262 Q167.292 945.804 167.292 952.933 Q167.292 960.04 169.097 963.605 Q170.926 967.146 174.537 967.146 Q178.171 967.146 179.977 963.605 Q181.806 960.04 181.806 952.933 Q181.806 945.804 179.977 942.262 Q178.171 938.697 174.537 938.697 M174.537 934.994 Q180.347 934.994 183.403 939.6 Q186.481 944.183 186.481 952.933 Q186.481 961.66 183.403 966.267 Q180.347 970.85 174.537 970.85 Q168.727 970.85 165.648 966.267 Q162.593 961.66 162.593 952.933 Q162.593 944.183 165.648 939.6 Q168.727 934.994 174.537 934.994 Z" fill="#000000" fill-rule="nonzero" fill-opacity="1" /><path clip-path="url(#clip810)" d="M194.699 964.299 L199.583 964.299 L199.583 970.179 L194.699 970.179 L194.699 964.299 Z" fill="#000000" fill-rule="nonzero" fill-opacity="1" /><path clip-path="url(#clip810)" d="M219.768 938.697 Q216.157 938.697 214.328 942.262 Q212.523 945.804 212.523 952.933 Q212.523 960.04 214.328 963.605 Q216.157 967.146 219.768 967.146 Q223.403 967.146 225.208 963.605 Q227.037 960.04 227.037 952.933 Q227.037 945.804 225.208 942.262 Q223.403 938.697 219.768 938.697 M219.768 934.994 Q225.578 934.994 228.634 939.6 Q231.713 944.183 231.713 952.933 Q231.713 961.66 228.634 966.267 Q225.578 970.85 219.768 970.85 Q213.958 970.85 210.879 966.267 Q207.824 961.66 207.824 952.933 Q207.824 944.183 210.879 939.6 Q213.958 934.994 219.768 934.994 Z" fill="#000000" fill-rule="nonzero" fill-opacity="1" /><path clip-path="url(#clip810)" d="M175.532 666.905 Q171.921 666.905 170.093 670.47 Q168.287 674.011 168.287 681.141 Q168.287 688.247 170.093 691.812 Q171.921 695.354 175.532 695.354 Q179.167 695.354 180.972 691.812 Q182.801 688.247 182.801 681.141 Q182.801 674.011 180.972 670.47 Q179.167 666.905 175.532 666.905 M175.532 663.201 Q181.343 663.201 184.398 667.808 Q187.477 672.391 187.477 681.141 Q187.477 689.868 184.398 694.474 Q181.343 699.057 175.532 699.057 Q169.722 699.057 166.644 694.474 Q163.588 689.868 163.588 681.141 Q163.588 672.391 166.644 667.808 Q169.722 663.201 175.532 663.201 Z" fill="#000000" fill-rule="nonzero" fill-opacity="1" /><path clip-path="url(#clip810)" d="M195.694 692.507 L200.579 692.507 L200.579 698.386 L195.694 698.386 L195.694 692.507 Z" fill="#000000" fill-rule="nonzero" fill-opacity="1" /><path clip-path="url(#clip810)" d="M210.81 663.826 L229.166 663.826 L229.166 667.761 L215.092 667.761 L215.092 676.233 Q216.111 675.886 217.129 675.724 Q218.148 675.539 219.166 675.539 Q224.953 675.539 228.333 678.71 Q231.713 681.882 231.713 687.298 Q231.713 692.877 228.24 695.979 Q224.768 699.057 218.449 699.057 Q216.273 699.057 214.004 698.687 Q211.759 698.317 209.352 697.576 L209.352 692.877 Q211.435 694.011 213.657 694.567 Q215.879 695.122 218.356 695.122 Q222.361 695.122 224.699 693.016 Q227.037 690.909 227.037 687.298 Q227.037 683.687 224.699 681.581 Q222.361 679.474 218.356 679.474 Q216.481 679.474 214.606 679.891 Q212.754 680.308 210.81 681.187 L210.81 663.826 Z" fill="#000000" fill-rule="nonzero" fill-opacity="1" /><path clip-path="url(#clip810)" d="M165.347 422.659 L172.986 422.659 L172.986 396.293 L164.676 397.96 L164.676 393.7 L172.94 392.034 L177.616 392.034 L177.616 422.659 L185.255 422.659 L185.255 426.594 L165.347 426.594 L165.347 422.659 Z" fill="#000000" fill-rule="nonzero" fill-opacity="1" /><path clip-path="url(#clip810)" d="M194.699 420.714 L199.583 420.714 L199.583 426.594 L194.699 426.594 L194.699 420.714 Z" fill="#000000" fill-rule="nonzero" fill-opacity="1" /><path clip-path="url(#clip810)" d="M219.768 395.112 Q216.157 395.112 214.328 398.677 Q212.523 402.219 212.523 409.348 Q212.523 416.455 214.328 420.02 Q216.157 423.561 219.768 423.561 Q223.403 423.561 225.208 420.02 Q227.037 416.455 227.037 409.348 Q227.037 402.219 225.208 398.677 Q223.403 395.112 219.768 395.112 M219.768 391.409 Q225.578 391.409 228.634 396.015 Q231.713 400.599 231.713 409.348 Q231.713 418.075 228.634 422.682 Q225.578 427.265 219.768 427.265 Q213.958 427.265 210.879 422.682 Q207.824 418.075 207.824 409.348 Q207.824 400.599 210.879 396.015 Q213.958 391.409 219.768 391.409 Z" fill="#000000" fill-rule="nonzero" fill-opacity="1" /><path clip-path="url(#clip810)" d="M166.343 150.866 L173.981 150.866 L173.981 124.501 L165.671 126.167 L165.671 121.908 L173.935 120.241 L178.611 120.241 L178.611 150.866 L186.25 150.866 L186.25 154.801 L166.343 154.801 L166.343 150.866 Z" fill="#000000" fill-rule="nonzero" fill-opacity="1" /><path clip-path="url(#clip810)" d="M195.694 148.922 L200.579 148.922 L200.579 154.801 L195.694 154.801 L195.694 148.922 Z" fill="#000000" fill-rule="nonzero" fill-opacity="1" /><path clip-path="url(#clip810)" d="M210.81 120.241 L229.166 120.241 L229.166 124.177 L215.092 124.177 L215.092 132.649 Q216.111 132.301 217.129 132.139 Q218.148 131.954 219.166 131.954 Q224.953 131.954 228.333 135.126 Q231.713 138.297 231.713 143.713 Q231.713 149.292 228.24 152.394 Q224.768 155.473 218.449 155.473 Q216.273 155.473 214.004 155.102 Q211.759 154.732 209.352 153.991 L209.352 149.292 Q211.435 150.426 213.657 150.982 Q215.879 151.537 218.356 151.537 Q222.361 151.537 224.699 149.431 Q227.037 147.325 227.037 143.713 Q227.037 140.102 224.699 137.996 Q222.361 135.889 218.356 135.889 Q216.481 135.889 214.606 136.306 Q212.754 136.723 210.81 137.602 L210.81 120.241 Z" fill="#000000" fill-rule="nonzero" fill-opacity="1" /><path clip-path="url(#clip810)" d="M63.5887 765.596 Q63.5887 772.694 65.2119 775.431 Q66.8352 778.168 70.7501 778.168 Q73.8693 778.168 75.7154 776.131 Q77.5296 774.062 77.5296 770.529 Q77.5296 765.66 74.0921 762.731 Q70.6228 759.771 64.8937 759.771 L63.5887 759.771 L63.5887 765.596 M61.1697 753.915 L81.5082 753.915 L81.5082 759.771 L76.0973 759.771 Q79.3438 761.777 80.9034 764.769 Q82.4312 767.76 82.4312 772.089 Q82.4312 777.564 79.3756 780.81 Q76.2883 784.025 71.1321 784.025 Q65.1165 784.025 62.0609 780.014 Q59.0054 775.972 59.0054 767.983 L59.0054 759.771 L58.4325 759.771 Q54.3902 759.771 52.1941 762.445 Q49.9661 765.087 49.9661 769.893 Q49.9661 772.948 50.6981 775.845 Q51.4302 778.741 52.8943 781.415 L47.4835 781.415 Q46.2421 778.2 45.6374 775.176 Q45.0008 772.153 45.0008 769.288 Q45.0008 761.554 49.0112 757.734 Q53.0216 753.915 61.1697 753.915 Z" fill="#000000" fill-rule="nonzero" fill-opacity="1" /><path clip-path="url(#clip810)" d="M63.2704 718.394 Q56.9047 718.394 53.4036 721.036 Q49.9024 723.646 49.9024 728.389 Q49.9024 733.099 53.4036 735.741 Q56.9047 738.351 63.2704 738.351 Q69.6043 738.351 73.1054 735.741 Q76.6066 733.099 76.6066 728.389 Q76.6066 723.646 73.1054 721.036 Q69.6043 718.394 63.2704 718.394 M77.084 712.538 Q86.187 712.538 90.6111 716.58 Q95.0671 720.622 95.0671 728.961 Q95.0671 732.049 94.5897 734.786 Q94.1441 737.523 93.1892 740.101 L87.4919 740.101 Q88.8924 737.523 89.5608 735.009 Q90.2292 732.494 90.2292 729.884 Q90.2292 724.123 87.2055 721.259 Q84.2136 718.394 78.1343 718.394 L75.2379 718.394 Q78.389 720.209 79.9486 723.041 Q81.5082 725.874 81.5082 729.821 Q81.5082 736.377 76.5111 740.388 Q71.514 744.398 63.2704 744.398 Q54.995 744.398 49.9979 740.388 Q45.0008 736.377 45.0008 729.821 Q45.0008 725.874 46.5604 723.041 Q48.12 720.209 51.2711 718.394 L45.8602 718.394 L45.8602 712.538 L77.084 712.538 Z" fill="#000000" fill-rule="nonzero" fill-opacity="1" /><path clip-path="url(#clip810)" d="M62.2201 669.983 L65.0846 669.983 L65.0846 696.91 Q71.1321 696.528 74.3149 693.282 Q77.4659 690.003 77.4659 684.179 Q77.4659 680.805 76.6384 677.654 Q75.8109 674.471 74.1558 671.352 L79.6939 671.352 Q81.0307 674.503 81.731 677.813 Q82.4312 681.123 82.4312 684.529 Q82.4312 693.059 77.4659 698.056 Q72.5007 703.021 64.0343 703.021 Q55.2814 703.021 50.1571 698.311 Q45.0008 693.568 45.0008 685.547 Q45.0008 678.354 49.6478 674.185 Q54.2629 669.983 62.2201 669.983 M60.5013 675.84 Q55.6952 675.903 52.8306 678.545 Q49.9661 681.155 49.9661 685.484 Q49.9661 690.385 52.7352 693.345 Q55.5042 696.274 60.5332 696.719 L60.5013 675.84 Z" fill="#000000" fill-rule="nonzero" fill-opacity="1" /><circle clip-path="url(#clip812)" cx="377.283" cy="1368.29" r="36" fill="#00a1ff" fill-rule="evenodd" fill-opacity="1" stroke="#000000" stroke-opacity="1" stroke-width="3.2"/>
<circle clip-path="url(#clip812)" cx="1057.86" cy="588.472" r="36" fill="#e69f00" fill-rule="evenodd" fill-opacity="1" stroke="#000000" stroke-opacity="1" stroke-width="3.2"/>
<polyline clip-path="url(#clip812)" style="stroke:#000000; stroke-linecap:round; stroke-linejoin:round; stroke-width:8; stroke-opacity:1; fill:none" points="377.283,1368.29 1057.86,588.472 "/>
<polyline clip-path="url(#clip812)" style="stroke:#000000; stroke-linecap:round; stroke-linejoin:round; stroke-width:8; stroke-opacity:1; fill:none" points="1026.83,601.211 1057.86,588.472 1049.43,620.937 "/>
<polyline clip-path="url(#clip812)" style="stroke:#000000; stroke-linecap:round; stroke-linejoin:round; stroke-width:8; stroke-opacity:1; fill:none" points="1057.86,588.472 377.283,1368.29 "/>
<circle clip-path="url(#clip812)" cx="1079.16" cy="1368.29" r="36" fill="#00a1ff" fill-rule="evenodd" fill-opacity="1" stroke="#000000" stroke-opacity="1" stroke-width="3.2"/>
<circle clip-path="url(#clip812)" cx="1174.79" cy="632.703" r="36" fill="#e69f00" fill-rule="evenodd" fill-opacity="1" stroke="#000000" stroke-opacity="1" stroke-width="3.2"/>
<polyline clip-path="url(#clip812)" style="stroke:#000000; stroke-linecap:round; stroke-linejoin:round; stroke-width:8; stroke-opacity:1; fill:none" points="1079.16,1368.29 1174.79,632.703 "/>
<polyline clip-path="url(#clip812)" style="stroke:#000000; stroke-linecap:round; stroke-linejoin:round; stroke-width:8; stroke-opacity:1; fill:none" points="1156.05,660.519 1174.79,632.703 1185.8,664.386 "/>
<polyline clip-path="url(#clip812)" style="stroke:#000000; stroke-linecap:round; stroke-linejoin:round; stroke-width:8; stroke-opacity:1; fill:none" points="1174.79,632.703 1079.16,1368.29 "/>
<circle clip-path="url(#clip812)" cx="700.559" cy="1329.42" r="36" fill="#00a1ff" fill-rule="evenodd" fill-opacity="1" stroke="#000000" stroke-opacity="1" stroke-width="3.2"/>
<circle clip-path="url(#clip812)" cx="1179.89" cy="680.247" r="36" fill="#e69f00" fill-rule="evenodd" fill-opacity="1" stroke="#000000" stroke-opacity="1" stroke-width="3.2"/>
<polyline clip-path="url(#clip812)" style="stroke:#000000; stroke-linecap:round; stroke-linejoin:round; stroke-width:8; stroke-opacity:1; fill:none" points="700.559,1329.42 1179.89,680.247 "/>
<polyline clip-path="url(#clip812)" style="stroke:#000000; stroke-linecap:round; stroke-linejoin:round; stroke-width:8; stroke-opacity:1; fill:none" points="1150.01,695.471 1179.89,680.247 1174.14,713.291 "/>
<polyline clip-path="url(#clip812)" style="stroke:#000000; stroke-linecap:round; stroke-linejoin:round; stroke-width:8; stroke-opacity:1; fill:none" points="1179.89,680.247 700.559,1329.42 "/>
<circle clip-path="url(#clip812)" cx="771.159" cy="435.512" r="36" fill="#00a1ff" fill-rule="evenodd" fill-opacity="1" stroke="#000000" stroke-opacity="1" stroke-width="3.2"/>
<circle clip-path="url(#clip812)" cx="908.199" cy="435.512" r="36" fill="#e69f00" fill-rule="evenodd" fill-opacity="1" stroke="#000000" stroke-opacity="1" stroke-width="3.2"/>
<polyline clip-path="url(#clip812)" style="stroke:#000000; stroke-linecap:round; stroke-linejoin:round; stroke-width:8; stroke-opacity:1; fill:none" points="771.159,435.512 908.199,435.512 "/>
<polyline clip-path="url(#clip812)" style="stroke:#000000; stroke-linecap:round; stroke-linejoin:round; stroke-width:8; stroke-opacity:1; fill:none" points="878.199,420.512 908.199,435.512 878.199,450.512 "/>
<polyline clip-path="url(#clip812)" style="stroke:#000000; stroke-linecap:round; stroke-linejoin:round; stroke-width:8; stroke-opacity:1; fill:none" points="908.199,435.512 771.159,435.512 "/>
<circle clip-path="url(#clip812)" cx="752.167" cy="1096.23" r="36" fill="#00a1ff" fill-rule="evenodd" fill-opacity="1" stroke="#000000" stroke-opacity="1" stroke-width="3.2"/>
<circle clip-path="url(#clip812)" cx="1405.49" cy="675.042" r="36" fill="#e69f00" fill-rule="evenodd" fill-opacity="1" stroke="#000000" stroke-opacity="1" stroke-width="3.2"/>
<polyline clip-path="url(#clip812)" style="stroke:#000000; stroke-linecap:round; stroke-linejoin:round; stroke-width:8; stroke-opacity:1; fill:none" points="752.167,1096.23 1405.49,675.042 "/>
<polyline clip-path="url(#clip812)" style="stroke:#000000; stroke-linecap:round; stroke-linejoin:round; stroke-width:8; stroke-opacity:1; fill:none" points="1372.14,678.691 1405.49,675.042 1388.4,703.905 "/>
<polyline clip-path="url(#clip812)" style="stroke:#000000; stroke-linecap:round; stroke-linejoin:round; stroke-width:8; stroke-opacity:1; fill:none" points="1405.49,675.042 752.167,1096.23 "/>
<circle clip-path="url(#clip812)" cx="993.076" cy="785.302" r="36" fill="#00a1ff" fill-rule="evenodd" fill-opacity="1" stroke="#000000" stroke-opacity="1" stroke-width="3.2"/>
<circle clip-path="url(#clip812)" cx="1205.11" cy="638.752" r="36" fill="#e69f00" fill-rule="evenodd" fill-opacity="1" stroke="#000000" stroke-opacity="1" stroke-width="3.2"/>
<polyline clip-path="url(#clip812)" style="stroke:#000000; stroke-linecap:round; stroke-linejoin:round; stroke-width:8; stroke-opacity:1; fill:none" points="993.076,785.302 1205.11,638.752 "/>
<polyline clip-path="url(#clip812)" style="stroke:#000000; stroke-linecap:round; stroke-linejoin:round; stroke-width:8; stroke-opacity:1; fill:none" points="1171.9,643.47 1205.11,638.752 1188.96,668.149 "/>
<polyline clip-path="url(#clip812)" style="stroke:#000000; stroke-linecap:round; stroke-linejoin:round; stroke-width:8; stroke-opacity:1; fill:none" points="1205.11,638.752 993.076,785.302 "/>
<circle clip-path="url(#clip812)" cx="309.572" cy="1173.96" r="36" fill="#00a1ff" fill-rule="evenodd" fill-opacity="1" stroke="#000000" stroke-opacity="1" stroke-width="3.2"/>
<circle clip-path="url(#clip812)" cx="1248.88" cy="612.018" r="36" fill="#e69f00" fill-rule="evenodd" fill-opacity="1" stroke="#000000" stroke-opacity="1" stroke-width="3.2"/>
<polyline clip-path="url(#clip812)" style="stroke:#000000; stroke-linecap:round; stroke-linejoin:round; stroke-width:8; stroke-opacity:1; fill:none" points="309.572,1173.96 1248.88,612.018 "/>
<polyline clip-path="url(#clip812)" style="stroke:#000000; stroke-linecap:round; stroke-linejoin:round; stroke-width:8; stroke-opacity:1; fill:none" points="1215.44,614.548 1248.88,612.018 1230.84,640.292 "/>
<polyline clip-path="url(#clip812)" style="stroke:#000000; stroke-linecap:round; stroke-linejoin:round; stroke-width:8; stroke-opacity:1; fill:none" points="1248.88,612.018 309.572,1173.96 "/>
<circle clip-path="url(#clip812)" cx="576.285" cy="85.7211" r="36" fill="#00a1ff" fill-rule="evenodd" fill-opacity="1" stroke="#000000" stroke-opacity="1" stroke-width="3.2"/>
<circle clip-path="url(#clip812)" cx="1132.9" cy="85.7211" r="36" fill="#e69f00" fill-rule="evenodd" fill-opacity="1" stroke="#000000" stroke-opacity="1" stroke-width="3.2"/>
<polyline clip-path="url(#clip812)" style="stroke:#000000; stroke-linecap:round; stroke-linejoin:round; stroke-width:8; stroke-opacity:1; fill:none" points="576.285,85.7211 1132.9,85.7211 "/>
<polyline clip-path="url(#clip812)" style="stroke:#000000; stroke-linecap:round; stroke-linejoin:round; stroke-width:8; stroke-opacity:1; fill:none" points="1102.9,70.7211 1132.9,85.7211 1102.9,100.721 "/>
<polyline clip-path="url(#clip812)" style="stroke:#000000; stroke-linecap:round; stroke-linejoin:round; stroke-width:8; stroke-opacity:1; fill:none" points="1132.9,85.7211 576.285,85.7211 "/>
<circle clip-path="url(#clip812)" cx="1904.9" cy="1018.5" r="36" fill="#00a1ff" fill-rule="evenodd" fill-opacity="1" stroke="#000000" stroke-opacity="1" stroke-width="3.2"/>
<circle clip-path="url(#clip812)" cx="1248.76" cy="661.541" r="36" fill="#e69f00" fill-rule="evenodd" fill-opacity="1" stroke="#000000" stroke-opacity="1" stroke-width="3.2"/>
<polyline clip-path="url(#clip812)" style="stroke:#000000; stroke-linecap:round; stroke-linejoin:round; stroke-width:8; stroke-opacity:1; fill:none" points="1904.9,1018.5 1248.76,661.541 "/>
<polyline clip-path="url(#clip812)" style="stroke:#000000; stroke-linecap:round; stroke-linejoin:round; stroke-width:8; stroke-opacity:1; fill:none" points="1267.94,689.054 1248.76,661.541 1282.28,662.701 "/>
<polyline clip-path="url(#clip812)" style="stroke:#000000; stroke-linecap:round; stroke-linejoin:round; stroke-width:8; stroke-opacity:1; fill:none" points="1248.76,661.541 1904.9,1018.5 "/>
<circle clip-path="url(#clip812)" cx="1410.9" cy="863.034" r="36" fill="#00a1ff" fill-rule="evenodd" fill-opacity="1" stroke="#000000" stroke-opacity="1" stroke-width="3.2"/>
<circle clip-path="url(#clip812)" cx="1277.76" cy="651.174" r="36" fill="#e69f00" fill-rule="evenodd" fill-opacity="1" stroke="#000000" stroke-opacity="1" stroke-width="3.2"/>
<polyline clip-path="url(#clip812)" style="stroke:#000000; stroke-linecap:round; stroke-linejoin:round; stroke-width:8; stroke-opacity:1; fill:none" points="1410.9,863.034 1277.76,651.174 "/>
<polyline clip-path="url(#clip812)" style="stroke:#000000; stroke-linecap:round; stroke-linejoin:round; stroke-width:8; stroke-opacity:1; fill:none" points="1281.03,684.556 1277.76,651.174 1306.43,668.594 "/>
<polyline clip-path="url(#clip812)" style="stroke:#000000; stroke-linecap:round; stroke-linejoin:round; stroke-width:8; stroke-opacity:1; fill:none" points="1277.76,651.174 1410.9,863.034 "/>
<path clip-path="url(#clip810)" d="M1399.37 1361.45 L1896.39 1361.45 L1896.39 1205.93 L1399.37 1205.93  Z" fill="#ffffff" fill-rule="evenodd" fill-opacity="1"/>
<polyline clip-path="url(#clip810)" style="stroke:#000000; stroke-linecap:round; stroke-linejoin:round; stroke-width:4; stroke-opacity:1; fill:none" points="1399.37,1361.45 1896.39,1361.45 1896.39,1205.93 1399.37,1205.93 1399.37,1361.45 "/>
<circle clip-path="url(#clip810)" cx="1474.53" cy="1257.77" r="21.9429" fill="#00a1ff" fill-rule="evenodd" fill-opacity="1" stroke="#000000" stroke-opacity="1" stroke-width="1.95048"/>
<path clip-path="url(#clip810)" d="M1549.68 1240.49 L1554.36 1240.49 L1554.36 1271.11 L1571.19 1271.11 L1571.19 1275.05 L1549.68 1275.05 L1549.68 1240.49 Z" fill="#000000" fill-rule="nonzero" fill-opacity="1" /><path clip-path="url(#clip810)" d="M1585.12 1252.11 Q1581.7 1252.11 1579.71 1254.79 Q1577.72 1257.45 1577.72 1262.11 Q1577.72 1266.76 1579.68 1269.44 Q1581.67 1272.11 1585.12 1272.11 Q1588.53 1272.11 1590.52 1269.42 Q1592.51 1266.74 1592.51 1262.11 Q1592.51 1257.5 1590.52 1254.82 Q1588.53 1252.11 1585.12 1252.11 M1585.12 1248.5 Q1590.68 1248.5 1593.85 1252.11 Q1597.02 1255.72 1597.02 1262.11 Q1597.02 1268.47 1593.85 1272.11 Q1590.68 1275.72 1585.12 1275.72 Q1579.54 1275.72 1576.37 1272.11 Q1573.23 1268.47 1573.23 1262.11 Q1573.23 1255.72 1576.37 1252.11 Q1579.54 1248.5 1585.12 1248.5 Z" fill="#000000" fill-rule="nonzero" fill-opacity="1" /><path clip-path="url(#clip810)" d="M1615.86 1262.01 Q1610.7 1262.01 1608.71 1263.19 Q1606.72 1264.38 1606.72 1267.22 Q1606.72 1269.49 1608.2 1270.83 Q1609.71 1272.15 1612.28 1272.15 Q1615.82 1272.15 1617.95 1269.65 Q1620.1 1267.13 1620.1 1262.96 L1620.1 1262.01 L1615.86 1262.01 M1624.36 1260.25 L1624.36 1275.05 L1620.1 1275.05 L1620.1 1271.11 Q1618.64 1273.47 1616.47 1274.61 Q1614.29 1275.72 1611.14 1275.72 Q1607.16 1275.72 1604.8 1273.5 Q1602.46 1271.25 1602.46 1267.5 Q1602.46 1263.13 1605.38 1260.9 Q1608.32 1258.68 1614.13 1258.68 L1620.1 1258.68 L1620.1 1258.26 Q1620.1 1255.32 1618.16 1253.73 Q1616.23 1252.11 1612.74 1252.11 Q1610.52 1252.11 1608.41 1252.64 Q1606.3 1253.17 1604.36 1254.24 L1604.36 1250.3 Q1606.7 1249.4 1608.9 1248.96 Q1611.1 1248.5 1613.18 1248.5 Q1618.8 1248.5 1621.58 1251.41 Q1624.36 1254.33 1624.36 1260.25 Z" fill="#000000" fill-rule="nonzero" fill-opacity="1" /><path clip-path="url(#clip810)" d="M1654.68 1259.4 L1654.68 1275.05 L1650.42 1275.05 L1650.42 1259.54 Q1650.42 1255.86 1648.99 1254.03 Q1647.55 1252.2 1644.68 1252.2 Q1641.23 1252.2 1639.24 1254.4 Q1637.25 1256.6 1637.25 1260.39 L1637.25 1275.05 L1632.97 1275.05 L1632.97 1249.12 L1637.25 1249.12 L1637.25 1253.15 Q1638.78 1250.81 1640.84 1249.65 Q1642.92 1248.5 1645.63 1248.5 Q1650.1 1248.5 1652.39 1251.27 Q1654.68 1254.03 1654.68 1259.4 Z" fill="#000000" fill-rule="nonzero" fill-opacity="1" /><path clip-path="url(#clip810)" d="M1695.31 1253.06 L1695.31 1239.03 L1699.57 1239.03 L1699.57 1275.05 L1695.31 1275.05 L1695.31 1271.16 Q1693.97 1273.47 1691.9 1274.61 Q1689.87 1275.72 1687 1275.72 Q1682.3 1275.72 1679.34 1271.97 Q1676.4 1268.22 1676.4 1262.11 Q1676.4 1256 1679.34 1252.25 Q1682.3 1248.5 1687 1248.5 Q1689.87 1248.5 1691.9 1249.63 Q1693.97 1250.74 1695.31 1253.06 M1680.79 1262.11 Q1680.79 1266.81 1682.72 1269.49 Q1684.66 1272.15 1688.04 1272.15 Q1691.42 1272.15 1693.36 1269.49 Q1695.31 1266.81 1695.31 1262.11 Q1695.31 1257.41 1693.36 1254.75 Q1691.42 1252.06 1688.04 1252.06 Q1684.66 1252.06 1682.72 1254.75 Q1680.79 1257.41 1680.79 1262.11 Z" fill="#000000" fill-rule="nonzero" fill-opacity="1" /><path clip-path="url(#clip810)" d="M1730.52 1261.02 L1730.52 1263.1 L1710.93 1263.1 Q1711.21 1267.5 1713.57 1269.82 Q1715.96 1272.11 1720.19 1272.11 Q1722.65 1272.11 1724.94 1271.5 Q1727.25 1270.9 1729.52 1269.7 L1729.52 1273.73 Q1727.23 1274.7 1724.82 1275.21 Q1722.41 1275.72 1719.94 1275.72 Q1713.73 1275.72 1710.1 1272.11 Q1706.49 1268.5 1706.49 1262.34 Q1706.49 1255.97 1709.91 1252.25 Q1713.36 1248.5 1719.2 1248.5 Q1724.43 1248.5 1727.46 1251.88 Q1730.52 1255.23 1730.52 1261.02 M1726.26 1259.77 Q1726.21 1256.27 1724.29 1254.19 Q1722.39 1252.11 1719.24 1252.11 Q1715.68 1252.11 1713.53 1254.12 Q1711.4 1256.13 1711.07 1259.79 L1726.26 1259.77 Z" fill="#000000" fill-rule="nonzero" fill-opacity="1" /><path clip-path="url(#clip810)" d="M1759.06 1259.4 L1759.06 1275.05 L1754.8 1275.05 L1754.8 1259.54 Q1754.8 1255.86 1753.36 1254.03 Q1751.93 1252.2 1749.06 1252.2 Q1745.61 1252.2 1743.62 1254.4 Q1741.63 1256.6 1741.63 1260.39 L1741.63 1275.05 L1737.34 1275.05 L1737.34 1249.12 L1741.63 1249.12 L1741.63 1253.15 Q1743.15 1250.81 1745.21 1249.65 Q1747.3 1248.5 1750.01 1248.5 Q1754.47 1248.5 1756.77 1251.27 Q1759.06 1254.03 1759.06 1259.4 Z" fill="#000000" fill-rule="nonzero" fill-opacity="1" /><path clip-path="url(#clip810)" d="M1767.55 1249.12 L1771.81 1249.12 L1771.81 1275.05 L1767.55 1275.05 L1767.55 1249.12 M1767.55 1239.03 L1771.81 1239.03 L1771.81 1244.42 L1767.55 1244.42 L1767.55 1239.03 Z" fill="#000000" fill-rule="nonzero" fill-opacity="1" /><path clip-path="url(#clip810)" d="M1802.9 1261.02 L1802.9 1263.1 L1783.32 1263.1 Q1783.59 1267.5 1785.96 1269.82 Q1788.34 1272.11 1792.58 1272.11 Q1795.03 1272.11 1797.32 1271.5 Q1799.64 1270.9 1801.9 1269.7 L1801.9 1273.73 Q1799.61 1274.7 1797.21 1275.21 Q1794.8 1275.72 1792.32 1275.72 Q1786.12 1275.72 1782.48 1272.11 Q1778.87 1268.5 1778.87 1262.34 Q1778.87 1255.97 1782.3 1252.25 Q1785.75 1248.5 1791.58 1248.5 Q1796.81 1248.5 1799.84 1251.88 Q1802.9 1255.23 1802.9 1261.02 M1798.64 1259.77 Q1798.59 1256.27 1796.67 1254.19 Q1794.77 1252.11 1791.63 1252.11 Q1788.06 1252.11 1785.91 1254.12 Q1783.78 1256.13 1783.46 1259.79 L1798.64 1259.77 Z" fill="#000000" fill-rule="nonzero" fill-opacity="1" /><path clip-path="url(#clip810)" d="M1826.95 1253.06 L1826.95 1239.03 L1831.21 1239.03 L1831.21 1275.05 L1826.95 1275.05 L1826.95 1271.16 Q1825.61 1273.47 1823.55 1274.61 Q1821.51 1275.72 1818.64 1275.72 Q1813.94 1275.72 1810.98 1271.97 Q1808.04 1268.22 1808.04 1262.11 Q1808.04 1256 1810.98 1252.25 Q1813.94 1248.5 1818.64 1248.5 Q1821.51 1248.5 1823.55 1249.63 Q1825.61 1250.74 1826.95 1253.06 M1812.44 1262.11 Q1812.44 1266.81 1814.36 1269.49 Q1816.3 1272.15 1819.68 1272.15 Q1823.06 1272.15 1825.01 1269.49 Q1826.95 1266.81 1826.95 1262.11 Q1826.95 1257.41 1825.01 1254.75 Q1823.06 1252.06 1819.68 1252.06 Q1816.3 1252.06 1814.36 1254.75 Q1812.44 1257.41 1812.44 1262.11 Z" fill="#000000" fill-rule="nonzero" fill-opacity="1" /><circle clip-path="url(#clip810)" cx="1474.53" cy="1309.61" r="21.9429" fill="#e69f00" fill-rule="evenodd" fill-opacity="1" stroke="#000000" stroke-opacity="1" stroke-width="1.95048"/>
<path clip-path="url(#clip810)" d="M1549.68 1292.33 L1554.36 1292.33 L1554.36 1322.95 L1571.19 1322.95 L1571.19 1326.89 L1549.68 1326.89 L1549.68 1292.33 Z" fill="#000000" fill-rule="nonzero" fill-opacity="1" /><path clip-path="url(#clip810)" d="M1585.12 1303.95 Q1581.7 1303.95 1579.71 1306.63 Q1577.72 1309.29 1577.72 1313.95 Q1577.72 1318.6 1579.68 1321.28 Q1581.67 1323.95 1585.12 1323.95 Q1588.53 1323.95 1590.52 1321.26 Q1592.51 1318.58 1592.51 1313.95 Q1592.51 1309.34 1590.52 1306.66 Q1588.53 1303.95 1585.12 1303.95 M1585.12 1300.34 Q1590.68 1300.34 1593.85 1303.95 Q1597.02 1307.56 1597.02 1313.95 Q1597.02 1320.31 1593.85 1323.95 Q1590.68 1327.56 1585.12 1327.56 Q1579.54 1327.56 1576.37 1323.95 Q1573.23 1320.31 1573.23 1313.95 Q1573.23 1307.56 1576.37 1303.95 Q1579.54 1300.34 1585.12 1300.34 Z" fill="#000000" fill-rule="nonzero" fill-opacity="1" /><path clip-path="url(#clip810)" d="M1615.86 1313.85 Q1610.7 1313.85 1608.71 1315.03 Q1606.72 1316.22 1606.72 1319.06 Q1606.72 1321.33 1608.2 1322.67 Q1609.71 1323.99 1612.28 1323.99 Q1615.82 1323.99 1617.95 1321.49 Q1620.1 1318.97 1620.1 1314.8 L1620.1 1313.85 L1615.86 1313.85 M1624.36 1312.09 L1624.36 1326.89 L1620.1 1326.89 L1620.1 1322.95 Q1618.64 1325.31 1616.47 1326.45 Q1614.29 1327.56 1611.14 1327.56 Q1607.16 1327.56 1604.8 1325.34 Q1602.46 1323.09 1602.46 1319.34 Q1602.46 1314.97 1605.38 1312.74 Q1608.32 1310.52 1614.13 1310.52 L1620.1 1310.52 L1620.1 1310.1 Q1620.1 1307.16 1618.16 1305.57 Q1616.23 1303.95 1612.74 1303.95 Q1610.52 1303.95 1608.41 1304.48 Q1606.3 1305.01 1604.36 1306.08 L1604.36 1302.14 Q1606.7 1301.24 1608.9 1300.8 Q1611.1 1300.34 1613.18 1300.34 Q1618.8 1300.34 1621.58 1303.25 Q1624.36 1306.17 1624.36 1312.09 Z" fill="#000000" fill-rule="nonzero" fill-opacity="1" /><path clip-path="url(#clip810)" d="M1654.68 1311.24 L1654.68 1326.89 L1650.42 1326.89 L1650.42 1311.38 Q1650.42 1307.7 1648.99 1305.87 Q1647.55 1304.04 1644.68 1304.04 Q1641.23 1304.04 1639.24 1306.24 Q1637.25 1308.44 1637.25 1312.23 L1637.25 1326.89 L1632.97 1326.89 L1632.97 1300.96 L1637.25 1300.96 L1637.25 1304.99 Q1638.78 1302.65 1640.84 1301.49 Q1642.92 1300.34 1645.63 1300.34 Q1650.1 1300.34 1652.39 1303.11 Q1654.68 1305.87 1654.68 1311.24 Z" fill="#000000" fill-rule="nonzero" fill-opacity="1" /><path clip-path="url(#clip810)" d="M1682.37 1323 L1682.37 1336.75 L1678.09 1336.75 L1678.09 1300.96 L1682.37 1300.96 L1682.37 1304.9 Q1683.71 1302.58 1685.75 1301.47 Q1687.81 1300.34 1690.65 1300.34 Q1695.38 1300.34 1698.32 1304.09 Q1701.28 1307.84 1701.28 1313.95 Q1701.28 1320.06 1698.32 1323.81 Q1695.38 1327.56 1690.65 1327.56 Q1687.81 1327.56 1685.75 1326.45 Q1683.71 1325.31 1682.37 1323 M1696.86 1313.95 Q1696.86 1309.25 1694.91 1306.59 Q1692.99 1303.9 1689.61 1303.9 Q1686.23 1303.9 1684.29 1306.59 Q1682.37 1309.25 1682.37 1313.95 Q1682.37 1318.65 1684.29 1321.33 Q1686.23 1323.99 1689.61 1323.99 Q1692.99 1323.99 1694.91 1321.33 Q1696.86 1318.65 1696.86 1313.95 Z" fill="#000000" fill-rule="nonzero" fill-opacity="1" /><path clip-path="url(#clip810)" d="M1723.36 1304.94 Q1722.65 1304.53 1721.79 1304.34 Q1720.96 1304.13 1719.94 1304.13 Q1716.33 1304.13 1714.38 1306.49 Q1712.46 1308.83 1712.46 1313.23 L1712.46 1326.89 L1708.18 1326.89 L1708.18 1300.96 L1712.46 1300.96 L1712.46 1304.99 Q1713.8 1302.63 1715.96 1301.49 Q1718.11 1300.34 1721.19 1300.34 Q1721.63 1300.34 1722.16 1300.41 Q1722.69 1300.45 1723.34 1300.57 L1723.36 1304.94 Z" fill="#000000" fill-rule="nonzero" fill-opacity="1" /><path clip-path="url(#clip810)" d="M1736.84 1303.95 Q1733.41 1303.95 1731.42 1306.63 Q1729.43 1309.29 1729.43 1313.95 Q1729.43 1318.6 1731.4 1321.28 Q1733.39 1323.95 1736.84 1323.95 Q1740.24 1323.95 1742.23 1321.26 Q1744.22 1318.58 1744.22 1313.95 Q1744.22 1309.34 1742.23 1306.66 Q1740.24 1303.95 1736.84 1303.95 M1736.84 1300.34 Q1742.39 1300.34 1745.56 1303.95 Q1748.73 1307.56 1748.73 1313.95 Q1748.73 1320.31 1745.56 1323.95 Q1742.39 1327.56 1736.84 1327.56 Q1731.26 1327.56 1728.09 1323.95 Q1724.94 1320.31 1724.94 1313.95 Q1724.94 1307.56 1728.09 1303.95 Q1731.26 1300.34 1736.84 1300.34 Z" fill="#000000" fill-rule="nonzero" fill-opacity="1" /><path clip-path="url(#clip810)" d="M1752.74 1300.96 L1757.25 1300.96 L1765.35 1322.72 L1773.46 1300.96 L1777.97 1300.96 L1768.25 1326.89 L1762.46 1326.89 L1752.74 1300.96 Z" fill="#000000" fill-rule="nonzero" fill-opacity="1" /><path clip-path="url(#clip810)" d="M1783.85 1300.96 L1788.11 1300.96 L1788.11 1326.89 L1783.85 1326.89 L1783.85 1300.96 M1783.85 1290.87 L1788.11 1290.87 L1788.11 1296.26 L1783.85 1296.26 L1783.85 1290.87 Z" fill="#000000" fill-rule="nonzero" fill-opacity="1" /><path clip-path="url(#clip810)" d="M1814.08 1304.9 L1814.08 1290.87 L1818.34 1290.87 L1818.34 1326.89 L1814.08 1326.89 L1814.08 1323 Q1812.74 1325.31 1810.68 1326.45 Q1808.64 1327.56 1805.77 1327.56 Q1801.07 1327.56 1798.11 1323.81 Q1795.17 1320.06 1795.17 1313.95 Q1795.17 1307.84 1798.11 1304.09 Q1801.07 1300.34 1805.77 1300.34 Q1808.64 1300.34 1810.68 1301.47 Q1812.74 1302.58 1814.08 1304.9 M1799.57 1313.95 Q1799.57 1318.65 1801.49 1321.33 Q1803.43 1323.99 1806.81 1323.99 Q1810.19 1323.99 1812.14 1321.33 Q1814.08 1318.65 1814.08 1313.95 Q1814.08 1309.25 1812.14 1306.59 Q1810.19 1303.9 1806.81 1303.9 Q1803.43 1303.9 1801.49 1306.59 Q1799.57 1309.25 1799.57 1313.95 Z" fill="#000000" fill-rule="nonzero" fill-opacity="1" /><path clip-path="url(#clip810)" d="M1849.29 1312.86 L1849.29 1314.94 L1829.71 1314.94 Q1829.98 1319.34 1832.34 1321.66 Q1834.73 1323.95 1838.96 1323.95 Q1841.42 1323.95 1843.71 1323.34 Q1846.02 1322.74 1848.29 1321.54 L1848.29 1325.57 Q1846 1326.54 1843.59 1327.05 Q1841.19 1327.56 1838.71 1327.56 Q1832.51 1327.56 1828.87 1323.95 Q1825.26 1320.34 1825.26 1314.18 Q1825.26 1307.81 1828.69 1304.09 Q1832.14 1300.34 1837.97 1300.34 Q1843.2 1300.34 1846.23 1303.72 Q1849.29 1307.07 1849.29 1312.86 M1845.03 1311.61 Q1844.98 1308.11 1843.06 1306.03 Q1841.16 1303.95 1838.02 1303.95 Q1834.45 1303.95 1832.3 1305.96 Q1830.17 1307.97 1829.84 1311.63 L1845.03 1311.61 Z" fill="#000000" fill-rule="nonzero" fill-opacity="1" /><path clip-path="url(#clip810)" d="M1873.34 1304.9 L1873.34 1290.87 L1877.6 1290.87 L1877.6 1326.89 L1873.34 1326.89 L1873.34 1323 Q1872 1325.31 1869.94 1326.45 Q1867.9 1327.56 1865.03 1327.56 Q1860.33 1327.56 1857.37 1323.81 Q1854.43 1320.06 1854.43 1313.95 Q1854.43 1307.84 1857.37 1304.09 Q1860.33 1300.34 1865.03 1300.34 Q1867.9 1300.34 1869.94 1301.47 Q1872 1302.58 1873.34 1304.9 M1858.83 1313.95 Q1858.83 1318.65 1860.75 1321.33 Q1862.69 1323.99 1866.07 1323.99 Q1869.45 1323.99 1871.39 1321.33 Q1873.34 1318.65 1873.34 1313.95 Q1873.34 1309.25 1871.39 1306.59 Q1869.45 1303.9 1866.07 1303.9 Q1862.69 1303.9 1860.75 1306.59 Q1858.83 1309.25 1858.83 1313.95 Z" fill="#000000" fill-rule="nonzero" fill-opacity="1" /></svg>
