<?xml version="1.0" encoding="utf-8"?>
<svg xmlns="http://www.w3.org/2000/svg" xmlns:xlink="http://www.w3.org/1999/xlink" width="500" height="400" viewBox="0 0 2000 1600">
<defs>
  <clipPath id="clip420">
    <rect x="0" y="0" width="2000" height="1600"/>
  </clipPath>
</defs>
<path clip-path="url(#clip420)" d="M0 1600 L2000 1600 L2000 0 L0 0  Z" fill="#ffffff" fill-rule="evenodd" fill-opacity="1"/>
<defs>
  <clipPath id="clip421">
    <rect x="400" y="0" width="1401" height="1401"/>
  </clipPath>
</defs>
<path clip-path="url(#clip420)" d="M262.708 1406.76 L1952.76 1406.76 L1952.76 47.2441 L262.708 47.2441  Z" fill="#ffffff" fill-rule="evenodd" fill-opacity="1"/>
<defs>
  <clipPath id="clip422">
    <rect x="262" y="47" width="1691" height="1361"/>
  </clipPath>
</defs>
<polyline clip-path="url(#clip422)" style="stroke:#000000; stroke-linecap:round; stroke-linejoin:round; stroke-width:2; stroke-opacity:0.1; fill:none" points="273.845,1406.76 273.845,47.2441 "/>
<polyline clip-path="url(#clip422)" style="stroke:#000000; stroke-linecap:round; stroke-linejoin:round; stroke-width:2; stroke-opacity:0.1; fill:none" points="673.12,1406.76 673.12,47.2441 "/>
<polyline clip-path="url(#clip422)" style="stroke:#000000; stroke-linecap:round; stroke-linejoin:round; stroke-width:2; stroke-opacity:0.1; fill:none" points="1072.4,1406.76 1072.4,47.2441 "/>
<polyline clip-path="url(#clip422)" style="stroke:#000000; stroke-linecap:round; stroke-linejoin:round; stroke-width:2; stroke-opacity:0.1; fill:none" points="1471.67,1406.76 1471.67,47.2441 "/>
<polyline clip-path="url(#clip422)" style="stroke:#000000; stroke-linecap:round; stroke-linejoin:round; stroke-width:2; stroke-opacity:0.1; fill:none" points="1870.95,1406.76 1870.95,47.2441 "/>
<polyline clip-path="url(#clip420)" style="stroke:#000000; stroke-linecap:round; stroke-linejoin:round; stroke-width:4; stroke-opacity:1; fill:none" points="262.708,1406.76 1952.76,1406.76 "/>
<polyline clip-path="url(#clip420)" style="stroke:#000000; stroke-linecap:round; stroke-linejoin:round; stroke-width:4; stroke-opacity:1; fill:none" points="273.845,1406.76 273.845,1387.87 "/>
<polyline clip-path="url(#clip420)" style="stroke:#000000; stroke-linecap:round; stroke-linejoin:round; stroke-width:4; stroke-opacity:1; fill:none" points="673.12,1406.76 673.12,1387.87 "/>
<polyline clip-path="url(#clip420)" style="stroke:#000000; stroke-linecap:round; stroke-linejoin:round; stroke-width:4; stroke-opacity:1; fill:none" points="1072.4,1406.76 1072.4,1387.87 "/>
<polyline clip-path="url(#clip420)" style="stroke:#000000; stroke-linecap:round; stroke-linejoin:round; stroke-width:4; stroke-opacity:1; fill:none" points="1471.67,1406.76 1471.67,1387.87 "/>
<polyline clip-path="url(#clip420)" style="stroke:#000000; stroke-linecap:round; stroke-linejoin:round; stroke-width:4; stroke-opacity:1; fill:none" points="1870.95,1406.76 1870.95,1387.87 "/>
<path clip-path="url(#clip420)" d="M220.292 1449.14 L249.968 1449.14 L249.968 1453.07 L220.292 1453.07 L220.292 1449.14 Z" fill="#000000" fill-rule="nonzero" fill-opacity="1" /><path clip-path="url(#clip420)" d="M270.06 1434.48 Q266.449 1434.48 264.62 1438.05 Q262.815 1441.59 262.815 1448.72 Q262.815 1455.83 264.62 1459.39 Q266.449 1462.93 270.06 1462.93 Q273.694 1462.93 275.5 1459.39 Q277.328 1455.83 277.328 1448.72 Q277.328 1441.59 275.5 1438.05 Q273.694 1434.48 270.06 1434.48 M270.06 1430.78 Q275.87 1430.78 278.926 1435.39 Q282.004 1439.97 282.004 1448.72 Q282.004 1457.45 278.926 1462.05 Q275.87 1466.64 270.06 1466.64 Q264.25 1466.64 261.171 1462.05 Q258.116 1457.45 258.116 1448.72 Q258.116 1439.97 261.171 1435.39 Q264.25 1430.78 270.06 1430.78 Z" fill="#000000" fill-rule="nonzero" fill-opacity="1" /><path clip-path="url(#clip420)" d="M290.222 1460.08 L295.106 1460.08 L295.106 1465.96 L290.222 1465.96 L290.222 1460.08 Z" fill="#000000" fill-rule="nonzero" fill-opacity="1" /><path clip-path="url(#clip420)" d="M315.87 1446.82 Q312.722 1446.82 310.87 1448.97 Q309.041 1451.13 309.041 1454.88 Q309.041 1458.6 310.87 1460.78 Q312.722 1462.93 315.87 1462.93 Q319.018 1462.93 320.847 1460.78 Q322.699 1458.6 322.699 1454.88 Q322.699 1451.13 320.847 1448.97 Q319.018 1446.82 315.87 1446.82 M325.152 1432.17 L325.152 1436.43 Q323.393 1435.59 321.587 1435.15 Q319.805 1434.71 318.046 1434.71 Q313.416 1434.71 310.963 1437.84 Q308.532 1440.96 308.185 1447.28 Q309.551 1445.27 311.611 1444.2 Q313.671 1443.12 316.148 1443.12 Q321.356 1443.12 324.365 1446.29 Q327.398 1449.44 327.398 1454.88 Q327.398 1460.2 324.25 1463.42 Q321.101 1466.64 315.87 1466.64 Q309.875 1466.64 306.703 1462.05 Q303.532 1457.45 303.532 1448.72 Q303.532 1440.52 307.421 1435.66 Q311.31 1430.78 317.861 1430.78 Q319.62 1430.78 321.402 1431.13 Q323.208 1431.47 325.152 1432.17 Z" fill="#000000" fill-rule="nonzero" fill-opacity="1" /><path clip-path="url(#clip420)" d="M619.405 1449.14 L649.081 1449.14 L649.081 1453.07 L619.405 1453.07 L619.405 1449.14 Z" fill="#000000" fill-rule="nonzero" fill-opacity="1" /><path clip-path="url(#clip420)" d="M669.173 1434.48 Q665.562 1434.48 663.733 1438.05 Q661.928 1441.59 661.928 1448.72 Q661.928 1455.83 663.733 1459.39 Q665.562 1462.93 669.173 1462.93 Q672.808 1462.93 674.613 1459.39 Q676.442 1455.83 676.442 1448.72 Q676.442 1441.59 674.613 1438.05 Q672.808 1434.48 669.173 1434.48 M669.173 1430.78 Q674.983 1430.78 678.039 1435.39 Q681.118 1439.97 681.118 1448.72 Q681.118 1457.45 678.039 1462.05 Q674.983 1466.64 669.173 1466.64 Q663.363 1466.64 660.284 1462.05 Q657.229 1457.45 657.229 1448.72 Q657.229 1439.97 660.284 1435.39 Q663.363 1430.78 669.173 1430.78 Z" fill="#000000" fill-rule="nonzero" fill-opacity="1" /><path clip-path="url(#clip420)" d="M689.335 1460.08 L694.219 1460.08 L694.219 1465.96 L689.335 1465.96 L689.335 1460.08 Z" fill="#000000" fill-rule="nonzero" fill-opacity="1" /><path clip-path="url(#clip420)" d="M717.252 1435.48 L705.446 1453.93 L717.252 1453.93 L717.252 1435.48 M716.025 1431.4 L721.904 1431.4 L721.904 1453.93 L726.835 1453.93 L726.835 1457.82 L721.904 1457.82 L721.904 1465.96 L717.252 1465.96 L717.252 1457.82 L701.65 1457.82 L701.65 1453.3 L716.025 1431.4 Z" fill="#000000" fill-rule="nonzero" fill-opacity="1" /><path clip-path="url(#clip420)" d="M1019.72 1449.14 L1049.4 1449.14 L1049.4 1453.07 L1019.72 1453.07 L1019.72 1449.14 Z" fill="#000000" fill-rule="nonzero" fill-opacity="1" /><path clip-path="url(#clip420)" d="M1069.49 1434.48 Q1065.88 1434.48 1064.05 1438.05 Q1062.24 1441.59 1062.24 1448.72 Q1062.24 1455.83 1064.05 1459.39 Q1065.88 1462.93 1069.49 1462.93 Q1073.12 1462.93 1074.93 1459.39 Q1076.76 1455.83 1076.76 1448.72 Q1076.76 1441.59 1074.93 1438.05 Q1073.12 1434.48 1069.49 1434.48 M1069.49 1430.78 Q1075.3 1430.78 1078.36 1435.39 Q1081.43 1439.97 1081.43 1448.72 Q1081.43 1457.45 1078.36 1462.05 Q1075.3 1466.64 1069.49 1466.64 Q1063.68 1466.64 1060.6 1462.05 Q1057.55 1457.45 1057.55 1448.72 Q1057.55 1439.97 1060.6 1435.39 Q1063.68 1430.78 1069.49 1430.78 Z" fill="#000000" fill-rule="nonzero" fill-opacity="1" /><path clip-path="url(#clip420)" d="M1089.65 1460.08 L1094.54 1460.08 L1094.54 1465.96 L1089.65 1465.96 L1089.65 1460.08 Z" fill="#000000" fill-rule="nonzero" fill-opacity="1" /><path clip-path="url(#clip420)" d="M1108.75 1462.03 L1125.07 1462.03 L1125.07 1465.96 L1103.12 1465.96 L1103.12 1462.03 Q1105.79 1459.27 1110.37 1454.64 Q1114.98 1449.99 1116.16 1448.65 Q1118.4 1446.13 1119.28 1444.39 Q1120.18 1442.63 1120.18 1440.94 Q1120.18 1438.19 1118.24 1436.45 Q1116.32 1434.71 1113.22 1434.71 Q1111.02 1434.71 1108.56 1435.48 Q1106.13 1436.24 1103.36 1437.79 L1103.36 1433.07 Q1106.18 1431.94 1108.63 1431.36 Q1111.09 1430.78 1113.12 1430.78 Q1118.49 1430.78 1121.69 1433.46 Q1124.88 1436.15 1124.88 1440.64 Q1124.88 1442.77 1124.07 1444.69 Q1123.29 1446.59 1121.18 1449.18 Q1120.6 1449.85 1117.5 1453.07 Q1114.4 1456.26 1108.75 1462.03 Z" fill="#000000" fill-rule="nonzero" fill-opacity="1" /><path clip-path="url(#clip420)" d="M1449.06 1434.48 Q1445.44 1434.48 1443.62 1438.05 Q1441.81 1441.59 1441.81 1448.72 Q1441.81 1455.83 1443.62 1459.39 Q1445.44 1462.93 1449.06 1462.93 Q1452.69 1462.93 1454.49 1459.39 Q1456.32 1455.83 1456.32 1448.72 Q1456.32 1441.59 1454.49 1438.05 Q1452.69 1434.48 1449.06 1434.48 M1449.06 1430.78 Q1454.87 1430.78 1457.92 1435.39 Q1461 1439.97 1461 1448.72 Q1461 1457.45 1457.92 1462.05 Q1454.87 1466.64 1449.06 1466.64 Q1443.24 1466.64 1440.17 1462.05 Q1437.11 1457.45 1437.11 1448.72 Q1437.11 1439.97 1440.17 1435.39 Q1443.24 1430.78 1449.06 1430.78 Z" fill="#000000" fill-rule="nonzero" fill-opacity="1" /><path clip-path="url(#clip420)" d="M1469.22 1460.08 L1474.1 1460.08 L1474.1 1465.96 L1469.22 1465.96 L1469.22 1460.08 Z" fill="#000000" fill-rule="nonzero" fill-opacity="1" /><path clip-path="url(#clip420)" d="M1494.29 1434.48 Q1490.68 1434.48 1488.85 1438.05 Q1487.04 1441.59 1487.04 1448.72 Q1487.04 1455.83 1488.85 1459.39 Q1490.68 1462.93 1494.29 1462.93 Q1497.92 1462.93 1499.73 1459.39 Q1501.55 1455.83 1501.55 1448.72 Q1501.55 1441.59 1499.73 1438.05 Q1497.92 1434.48 1494.29 1434.48 M1494.29 1430.78 Q1500.1 1430.78 1503.15 1435.39 Q1506.23 1439.97 1506.23 1448.72 Q1506.23 1457.45 1503.15 1462.05 Q1500.1 1466.64 1494.29 1466.64 Q1488.48 1466.64 1485.4 1462.05 Q1482.34 1457.45 1482.34 1448.72 Q1482.34 1439.97 1485.4 1435.39 Q1488.48 1430.78 1494.29 1430.78 Z" fill="#000000" fill-rule="nonzero" fill-opacity="1" /><path clip-path="url(#clip420)" d="M1849.13 1434.48 Q1845.52 1434.48 1843.69 1438.05 Q1841.88 1441.59 1841.88 1448.72 Q1841.88 1455.83 1843.69 1459.39 Q1845.52 1462.93 1849.13 1462.93 Q1852.76 1462.93 1854.57 1459.39 Q1856.4 1455.83 1856.4 1448.72 Q1856.4 1441.59 1854.57 1438.05 Q1852.76 1434.48 1849.13 1434.48 M1849.13 1430.78 Q1854.94 1430.78 1857.99 1435.39 Q1861.07 1439.97 1861.07 1448.72 Q1861.07 1457.45 1857.99 1462.05 Q1854.94 1466.64 1849.13 1466.64 Q1843.32 1466.64 1840.24 1462.05 Q1837.18 1457.45 1837.18 1448.72 Q1837.18 1439.97 1840.24 1435.39 Q1843.32 1430.78 1849.13 1430.78 Z" fill="#000000" fill-rule="nonzero" fill-opacity="1" /><path clip-path="url(#clip420)" d="M1869.29 1460.08 L1874.18 1460.08 L1874.18 1465.96 L1869.29 1465.96 L1869.29 1460.08 Z" fill="#000000" fill-rule="nonzero" fill-opacity="1" /><path clip-path="url(#clip420)" d="M1888.39 1462.03 L1904.71 1462.03 L1904.71 1465.96 L1882.76 1465.96 L1882.76 1462.03 Q1885.43 1459.27 1890.01 1454.64 Q1894.61 1449.99 1895.8 1448.65 Q1898.04 1446.13 1898.92 1444.39 Q1899.82 1442.63 1899.82 1440.94 Q1899.82 1438.19 1897.88 1436.45 Q1895.96 1434.71 1892.86 1434.71 Q1890.66 1434.71 1888.2 1435.48 Q1885.77 1436.24 1882.99 1437.79 L1882.99 1433.07 Q1885.82 1431.94 1888.27 1431.36 Q1890.73 1430.78 1892.76 1430.78 Q1898.13 1430.78 1901.33 1433.46 Q1904.52 1436.15 1904.52 1440.64 Q1904.52 1442.77 1903.71 1444.69 Q1902.92 1446.59 1900.82 1449.18 Q1900.24 1449.85 1897.14 1453.07 Q1894.04 1456.26 1888.39 1462.03 Z" fill="#000000" fill-rule="nonzero" fill-opacity="1" /><path clip-path="url(#clip420)" d="M993.165 1509.98 L999.022 1509.98 L999.022 1545.63 L993.165 1545.63 L993.165 1509.98 M993.165 1496.1 L999.022 1496.1 L999.022 1503.52 L993.165 1503.52 L993.165 1496.1 Z" fill="#000000" fill-rule="nonzero" fill-opacity="1" /><path clip-path="url(#clip420)" d="M1040.91 1524.11 L1040.91 1545.63 L1035.05 1545.63 L1035.05 1524.3 Q1035.05 1519.24 1033.08 1516.73 Q1031.1 1514.21 1027.16 1514.21 Q1022.42 1514.21 1019.68 1517.24 Q1016.94 1520.26 1016.94 1525.48 L1016.94 1545.63 L1011.05 1545.63 L1011.05 1509.98 L1016.94 1509.98 L1016.94 1515.52 Q1019.04 1512.3 1021.87 1510.71 Q1024.74 1509.12 1028.46 1509.12 Q1034.61 1509.12 1037.76 1512.94 Q1040.91 1516.73 1040.91 1524.11 Z" fill="#000000" fill-rule="nonzero" fill-opacity="1" /><path clip-path="url(#clip420)" d="M1078.24 1511.35 L1078.24 1516.82 Q1075.76 1515.45 1073.25 1514.79 Q1070.76 1514.09 1068.22 1514.09 Q1062.52 1514.09 1059.37 1517.71 Q1056.22 1521.31 1056.22 1527.84 Q1056.22 1534.36 1059.37 1537.99 Q1062.52 1541.59 1068.22 1541.59 Q1070.76 1541.59 1073.25 1540.92 Q1075.76 1540.22 1078.24 1538.85 L1078.24 1544.26 Q1075.79 1545.41 1073.15 1545.98 Q1070.54 1546.55 1067.58 1546.55 Q1059.53 1546.55 1054.79 1541.49 Q1050.04 1536.43 1050.04 1527.84 Q1050.04 1519.11 1054.82 1514.12 Q1059.62 1509.12 1067.96 1509.12 Q1070.67 1509.12 1073.25 1509.69 Q1075.82 1510.23 1078.24 1511.35 Z" fill="#000000" fill-rule="nonzero" fill-opacity="1" /><path clip-path="url(#clip420)" d="M1102.24 1514.09 Q1097.53 1514.09 1094.79 1517.78 Q1092.06 1521.44 1092.06 1527.84 Q1092.06 1534.23 1094.76 1537.93 Q1097.5 1541.59 1102.24 1541.59 Q1106.92 1541.59 1109.66 1537.89 Q1112.39 1534.2 1112.39 1527.84 Q1112.39 1521.5 1109.66 1517.81 Q1106.92 1514.09 1102.24 1514.09 M1102.24 1509.12 Q1109.88 1509.12 1114.24 1514.09 Q1118.6 1519.05 1118.6 1527.84 Q1118.6 1536.59 1114.24 1541.59 Q1109.88 1546.55 1102.24 1546.55 Q1094.57 1546.55 1090.21 1541.59 Q1085.88 1536.59 1085.88 1527.84 Q1085.88 1519.05 1090.21 1514.09 Q1094.57 1509.12 1102.24 1509.12 Z" fill="#000000" fill-rule="nonzero" fill-opacity="1" /><path clip-path="url(#clip420)" d="M1156.06 1516.82 Q1158.26 1512.88 1161.32 1511 Q1164.37 1509.12 1168.51 1509.12 Q1174.08 1509.12 1177.1 1513.04 Q1180.13 1516.92 1180.13 1524.11 L1180.13 1545.63 L1174.24 1545.63 L1174.24 1524.3 Q1174.24 1519.18 1172.42 1516.7 Q1170.61 1514.21 1166.89 1514.21 Q1162.33 1514.21 1159.69 1517.24 Q1157.05 1520.26 1157.05 1525.48 L1157.05 1545.63 L1151.16 1545.63 L1151.16 1524.3 Q1151.16 1519.15 1149.35 1516.7 Q1147.53 1514.21 1143.75 1514.21 Q1139.26 1514.21 1136.62 1517.27 Q1133.97 1520.29 1133.97 1525.48 L1133.97 1545.63 L1128.09 1545.63 L1128.09 1509.98 L1133.97 1509.98 L1133.97 1515.52 Q1135.98 1512.24 1138.78 1510.68 Q1141.58 1509.12 1145.43 1509.12 Q1149.32 1509.12 1152.02 1511.09 Q1154.76 1513.07 1156.06 1516.82 Z" fill="#000000" fill-rule="nonzero" fill-opacity="1" /><path clip-path="url(#clip420)" d="M1222.3 1526.34 L1222.3 1529.2 L1195.37 1529.2 Q1195.75 1535.25 1199 1538.43 Q1202.28 1541.59 1208.1 1541.59 Q1211.48 1541.59 1214.63 1540.76 Q1217.81 1539.93 1220.93 1538.28 L1220.93 1543.81 Q1217.78 1545.15 1214.47 1545.85 Q1211.16 1546.55 1207.75 1546.55 Q1199.22 1546.55 1194.23 1541.59 Q1189.26 1536.62 1189.26 1528.15 Q1189.26 1519.4 1193.97 1514.28 Q1198.71 1509.12 1206.73 1509.12 Q1213.93 1509.12 1218.1 1513.77 Q1222.3 1518.38 1222.3 1526.34 M1216.44 1524.62 Q1216.38 1519.81 1213.74 1516.95 Q1211.13 1514.09 1206.8 1514.09 Q1201.9 1514.09 1198.94 1516.85 Q1196.01 1519.62 1195.56 1524.65 L1216.44 1524.62 Z" fill="#000000" fill-rule="nonzero" fill-opacity="1" /><polyline clip-path="url(#clip422)" style="stroke:#000000; stroke-linecap:round; stroke-linejoin:round; stroke-width:2; stroke-opacity:0.1; fill:none" points="262.708,1228.33 1952.76,1228.33 "/>
<polyline clip-path="url(#clip422)" style="stroke:#000000; stroke-linecap:round; stroke-linejoin:round; stroke-width:2; stroke-opacity:0.1; fill:none" points="262.708,1020.15 1952.76,1020.15 "/>
<polyline clip-path="url(#clip422)" style="stroke:#000000; stroke-linecap:round; stroke-linejoin:round; stroke-width:2; stroke-opacity:0.1; fill:none" points="262.708,811.973 1952.76,811.973 "/>
<polyline clip-path="url(#clip422)" style="stroke:#000000; stroke-linecap:round; stroke-linejoin:round; stroke-width:2; stroke-opacity:0.1; fill:none" points="262.708,603.796 1952.76,603.796 "/>
<polyline clip-path="url(#clip422)" style="stroke:#000000; stroke-linecap:round; stroke-linejoin:round; stroke-width:2; stroke-opacity:0.1; fill:none" points="262.708,395.619 1952.76,395.619 "/>
<polyline clip-path="url(#clip422)" style="stroke:#000000; stroke-linecap:round; stroke-linejoin:round; stroke-width:2; stroke-opacity:0.1; fill:none" points="262.708,187.442 1952.76,187.442 "/>
<polyline clip-path="url(#clip420)" style="stroke:#000000; stroke-linecap:round; stroke-linejoin:round; stroke-width:4; stroke-opacity:1; fill:none" points="262.708,1406.76 262.708,47.2441 "/>
<polyline clip-path="url(#clip420)" style="stroke:#000000; stroke-linecap:round; stroke-linejoin:round; stroke-width:4; stroke-opacity:1; fill:none" points="262.708,1228.33 281.606,1228.33 "/>
<polyline clip-path="url(#clip420)" style="stroke:#000000; stroke-linecap:round; stroke-linejoin:round; stroke-width:4; stroke-opacity:1; fill:none" points="262.708,1020.15 281.606,1020.15 "/>
<polyline clip-path="url(#clip420)" style="stroke:#000000; stroke-linecap:round; stroke-linejoin:round; stroke-width:4; stroke-opacity:1; fill:none" points="262.708,811.973 281.606,811.973 "/>
<polyline clip-path="url(#clip420)" style="stroke:#000000; stroke-linecap:round; stroke-linejoin:round; stroke-width:4; stroke-opacity:1; fill:none" points="262.708,603.796 281.606,603.796 "/>
<polyline clip-path="url(#clip420)" style="stroke:#000000; stroke-linecap:round; stroke-linejoin:round; stroke-width:4; stroke-opacity:1; fill:none" points="262.708,395.619 281.606,395.619 "/>
<polyline clip-path="url(#clip420)" style="stroke:#000000; stroke-linecap:round; stroke-linejoin:round; stroke-width:4; stroke-opacity:1; fill:none" points="262.708,187.442 281.606,187.442 "/>
<path clip-path="url(#clip420)" d="M125.764 1228.78 L155.44 1228.78 L155.44 1232.71 L125.764 1232.71 L125.764 1228.78 Z" fill="#000000" fill-rule="nonzero" fill-opacity="1" /><path clip-path="url(#clip420)" d="M166.343 1241.67 L173.981 1241.67 L173.981 1215.31 L165.671 1216.97 L165.671 1212.71 L173.935 1211.05 L178.611 1211.05 L178.611 1241.67 L186.25 1241.67 L186.25 1245.61 L166.343 1245.61 L166.343 1241.67 Z" fill="#000000" fill-rule="nonzero" fill-opacity="1" /><path clip-path="url(#clip420)" d="M195.694 1239.73 L200.579 1239.73 L200.579 1245.61 L195.694 1245.61 L195.694 1239.73 Z" fill="#000000" fill-rule="nonzero" fill-opacity="1" /><path clip-path="url(#clip420)" d="M220.764 1214.13 Q217.153 1214.13 215.324 1217.69 Q213.518 1221.23 213.518 1228.36 Q213.518 1235.47 215.324 1239.03 Q217.153 1242.58 220.764 1242.58 Q224.398 1242.58 226.203 1239.03 Q228.032 1235.47 228.032 1228.36 Q228.032 1221.23 226.203 1217.69 Q224.398 1214.13 220.764 1214.13 M220.764 1210.42 Q226.574 1210.42 229.629 1215.03 Q232.708 1219.61 232.708 1228.36 Q232.708 1237.09 229.629 1241.7 Q226.574 1246.28 220.764 1246.28 Q214.953 1246.28 211.875 1241.7 Q208.819 1237.09 208.819 1228.36 Q208.819 1219.61 211.875 1215.03 Q214.953 1210.42 220.764 1210.42 Z" fill="#000000" fill-rule="nonzero" fill-opacity="1" /><path clip-path="url(#clip420)" d="M126.76 1020.6 L156.435 1020.6 L156.435 1024.54 L126.76 1024.54 L126.76 1020.6 Z" fill="#000000" fill-rule="nonzero" fill-opacity="1" /><path clip-path="url(#clip420)" d="M176.528 1005.95 Q172.917 1005.95 171.088 1009.51 Q169.282 1013.06 169.282 1020.19 Q169.282 1027.29 171.088 1030.86 Q172.917 1034.4 176.528 1034.4 Q180.162 1034.4 181.968 1030.86 Q183.796 1027.29 183.796 1020.19 Q183.796 1013.06 181.968 1009.51 Q180.162 1005.95 176.528 1005.95 M176.528 1002.25 Q182.338 1002.25 185.393 1006.85 Q188.472 1011.44 188.472 1020.19 Q188.472 1028.91 185.393 1033.52 Q182.338 1038.1 176.528 1038.1 Q170.718 1038.1 167.639 1033.52 Q164.583 1028.91 164.583 1020.19 Q164.583 1011.44 167.639 1006.85 Q170.718 1002.25 176.528 1002.25 Z" fill="#000000" fill-rule="nonzero" fill-opacity="1" /><path clip-path="url(#clip420)" d="M196.69 1031.55 L201.574 1031.55 L201.574 1037.43 L196.69 1037.43 L196.69 1031.55 Z" fill="#000000" fill-rule="nonzero" fill-opacity="1" /><path clip-path="url(#clip420)" d="M211.805 1002.87 L230.162 1002.87 L230.162 1006.81 L216.088 1006.81 L216.088 1015.28 Q217.106 1014.93 218.125 1014.77 Q219.143 1014.58 220.162 1014.58 Q225.949 1014.58 229.328 1017.75 Q232.708 1020.93 232.708 1026.34 Q232.708 1031.92 229.236 1035.02 Q225.764 1038.1 219.444 1038.1 Q217.268 1038.1 215 1037.73 Q212.754 1037.36 210.347 1036.62 L210.347 1031.92 Q212.43 1033.06 214.653 1033.61 Q216.875 1034.17 219.352 1034.17 Q223.356 1034.17 225.694 1032.06 Q228.032 1029.95 228.032 1026.34 Q228.032 1022.73 225.694 1020.62 Q223.356 1018.52 219.352 1018.52 Q217.477 1018.52 215.602 1018.94 Q213.75 1019.35 211.805 1020.23 L211.805 1002.87 Z" fill="#000000" fill-rule="nonzero" fill-opacity="1" /><path clip-path="url(#clip420)" d="M175.532 797.772 Q171.921 797.772 170.093 801.337 Q168.287 804.878 168.287 812.008 Q168.287 819.114 170.093 822.679 Q171.921 826.221 175.532 826.221 Q179.167 826.221 180.972 822.679 Q182.801 819.114 182.801 812.008 Q182.801 804.878 180.972 801.337 Q179.167 797.772 175.532 797.772 M175.532 794.068 Q181.343 794.068 184.398 798.675 Q187.477 803.258 187.477 812.008 Q187.477 820.735 184.398 825.341 Q181.343 829.925 175.532 829.925 Q169.722 829.925 166.644 825.341 Q163.588 820.735 163.588 812.008 Q163.588 803.258 166.644 798.675 Q169.722 794.068 175.532 794.068 Z" fill="#000000" fill-rule="nonzero" fill-opacity="1" /><path clip-path="url(#clip420)" d="M195.694 823.374 L200.579 823.374 L200.579 829.253 L195.694 829.253 L195.694 823.374 Z" fill="#000000" fill-rule="nonzero" fill-opacity="1" /><path clip-path="url(#clip420)" d="M220.764 797.772 Q217.153 797.772 215.324 801.337 Q213.518 804.878 213.518 812.008 Q213.518 819.114 215.324 822.679 Q217.153 826.221 220.764 826.221 Q224.398 826.221 226.203 822.679 Q228.032 819.114 228.032 812.008 Q228.032 804.878 226.203 801.337 Q224.398 797.772 220.764 797.772 M220.764 794.068 Q226.574 794.068 229.629 798.675 Q232.708 803.258 232.708 812.008 Q232.708 820.735 229.629 825.341 Q226.574 829.925 220.764 829.925 Q214.953 829.925 211.875 825.341 Q208.819 820.735 208.819 812.008 Q208.819 803.258 211.875 798.675 Q214.953 794.068 220.764 794.068 Z" fill="#000000" fill-rule="nonzero" fill-opacity="1" /><path clip-path="url(#clip420)" d="M176.528 589.595 Q172.917 589.595 171.088 593.16 Q169.282 596.701 169.282 603.831 Q169.282 610.937 171.088 614.502 Q172.917 618.044 176.528 618.044 Q180.162 618.044 181.968 614.502 Q183.796 610.937 183.796 603.831 Q183.796 596.701 181.968 593.16 Q180.162 589.595 176.528 589.595 M176.528 585.891 Q182.338 585.891 185.393 590.498 Q188.472 595.081 188.472 603.831 Q188.472 612.558 185.393 617.164 Q182.338 621.748 176.528 621.748 Q170.718 621.748 167.639 617.164 Q164.583 612.558 164.583 603.831 Q164.583 595.081 167.639 590.498 Q170.718 585.891 176.528 585.891 Z" fill="#000000" fill-rule="nonzero" fill-opacity="1" /><path clip-path="url(#clip420)" d="M196.69 615.197 L201.574 615.197 L201.574 621.076 L196.69 621.076 L196.69 615.197 Z" fill="#000000" fill-rule="nonzero" fill-opacity="1" /><path clip-path="url(#clip420)" d="M211.805 586.516 L230.162 586.516 L230.162 590.451 L216.088 590.451 L216.088 598.924 Q217.106 598.576 218.125 598.414 Q219.143 598.229 220.162 598.229 Q225.949 598.229 229.328 601.4 Q232.708 604.572 232.708 609.988 Q232.708 615.567 229.236 618.669 Q225.764 621.748 219.444 621.748 Q217.268 621.748 215 621.377 Q212.754 621.007 210.347 620.266 L210.347 615.567 Q212.43 616.701 214.653 617.257 Q216.875 617.812 219.352 617.812 Q223.356 617.812 225.694 615.706 Q228.032 613.599 228.032 609.988 Q228.032 606.377 225.694 604.271 Q223.356 602.164 219.352 602.164 Q217.477 602.164 215.602 602.581 Q213.75 602.998 211.805 603.877 L211.805 586.516 Z" fill="#000000" fill-rule="nonzero" fill-opacity="1" /><path clip-path="url(#clip420)" d="M166.343 408.964 L173.981 408.964 L173.981 382.598 L165.671 384.265 L165.671 380.006 L173.935 378.339 L178.611 378.339 L178.611 408.964 L186.25 408.964 L186.25 412.899 L166.343 412.899 L166.343 408.964 Z" fill="#000000" fill-rule="nonzero" fill-opacity="1" /><path clip-path="url(#clip420)" d="M195.694 407.02 L200.579 407.02 L200.579 412.899 L195.694 412.899 L195.694 407.02 Z" fill="#000000" fill-rule="nonzero" fill-opacity="1" /><path clip-path="url(#clip420)" d="M220.764 381.418 Q217.153 381.418 215.324 384.983 Q213.518 388.524 213.518 395.654 Q213.518 402.76 215.324 406.325 Q217.153 409.867 220.764 409.867 Q224.398 409.867 226.203 406.325 Q228.032 402.76 228.032 395.654 Q228.032 388.524 226.203 384.983 Q224.398 381.418 220.764 381.418 M220.764 377.714 Q226.574 377.714 229.629 382.321 Q232.708 386.904 232.708 395.654 Q232.708 404.381 229.629 408.987 Q226.574 413.57 220.764 413.57 Q214.953 413.57 211.875 408.987 Q208.819 404.381 208.819 395.654 Q208.819 386.904 211.875 382.321 Q214.953 377.714 220.764 377.714 Z" fill="#000000" fill-rule="nonzero" fill-opacity="1" /><path clip-path="url(#clip420)" d="M167.338 200.787 L174.977 200.787 L174.977 174.421 L166.667 176.088 L166.667 171.829 L174.931 170.162 L179.606 170.162 L179.606 200.787 L187.245 200.787 L187.245 204.722 L167.338 204.722 L167.338 200.787 Z" fill="#000000" fill-rule="nonzero" fill-opacity="1" /><path clip-path="url(#clip420)" d="M196.69 198.842 L201.574 198.842 L201.574 204.722 L196.69 204.722 L196.69 198.842 Z" fill="#000000" fill-rule="nonzero" fill-opacity="1" /><path clip-path="url(#clip420)" d="M211.805 170.162 L230.162 170.162 L230.162 174.097 L216.088 174.097 L216.088 182.569 Q217.106 182.222 218.125 182.06 Q219.143 181.875 220.162 181.875 Q225.949 181.875 229.328 185.046 Q232.708 188.218 232.708 193.634 Q232.708 199.213 229.236 202.315 Q225.764 205.393 219.444 205.393 Q217.268 205.393 215 205.023 Q212.754 204.653 210.347 203.912 L210.347 199.213 Q212.43 200.347 214.653 200.903 Q216.875 201.458 219.352 201.458 Q223.356 201.458 225.694 199.352 Q228.032 197.245 228.032 193.634 Q228.032 190.023 225.694 187.917 Q223.356 185.81 219.352 185.81 Q217.477 185.81 215.602 186.227 Q213.75 186.643 211.805 187.523 L211.805 170.162 Z" fill="#000000" fill-rule="nonzero" fill-opacity="1" /><path clip-path="url(#clip420)" d="M63.5887 765.596 Q63.5887 772.694 65.2119 775.431 Q66.8352 778.168 70.7501 778.168 Q73.8693 778.168 75.7154 776.131 Q77.5296 774.062 77.5296 770.529 Q77.5296 765.66 74.0921 762.731 Q70.6228 759.771 64.8937 759.771 L63.5887 759.771 L63.5887 765.596 M61.1697 753.915 L81.5082 753.915 L81.5082 759.771 L76.0973 759.771 Q79.3438 761.777 80.9034 764.769 Q82.4312 767.76 82.4312 772.089 Q82.4312 777.564 79.3756 780.81 Q76.2883 784.025 71.1321 784.025 Q65.1165 784.025 62.0609 780.014 Q59.0054 775.972 59.0054 767.983 L59.0054 759.771 L58.4325 759.771 Q54.3902 759.771 52.1941 762.445 Q49.9661 765.087 49.9661 769.893 Q49.9661 772.948 50.6981 775.845 Q51.4302 778.741 52.8943 781.415 L47.4835 781.415 Q46.2421 778.2 45.6374 775.176 Q45.0008 772.153 45.0008 769.288 Q45.0008 761.554 49.0112 757.734 Q53.0216 753.915 61.1697 753.915 Z" fill="#000000" fill-rule="nonzero" fill-opacity="1" /><path clip-path="url(#clip420)" d="M63.2704 718.394 Q56.9047 718.394 53.4036 721.036 Q49.9024 723.646 49.9024 728.389 Q49.9024 733.099 53.4036 735.741 Q56.9047 738.351 63.2704 738.351 Q69.6043 738.351 73.1054 735.741 Q76.6066 733.099 76.6066 728.389 Q76.6066 723.646 73.1054 721.036 Q69.6043 718.394 63.2704 718.394 M77.084 712.538 Q86.187 712.538 90.6111 716.58 Q95.0671 720.622 95.0671 728.961 Q95.0671 732.049 94.5897 734.786 Q94.1441 737.523 93.1892 740.101 L87.4919 740.101 Q88.8924 737.523 89.5608 735.009 Q90.2292 732.494 90.2292 729.884 Q90.2292 724.123 87.2055 721.259 Q84.2136 718.394 78.1343 718.394 L75.2379 718.394 Q78.389 720.209 79.9486 723.041 Q81.5082 725.874 81.5082 729.821 Q81.5082 736.377 76.5111 740.388 Q71.514 744.398 63.2704 744.398 Q54.995 744.398 49.9979 740.388 Q45.0008 736.377 45.0008 729.821 Q45.0008 725.874 46.5604 723.041 Q48.12 720.209 51.2711 718.394 L45.8602 718.394 L45.8602 712.538 L77.084 712.538 Z" fill="#000000" fill-rule="nonzero" fill-opacity="1" /><path clip-path="url(#clip420)" d="M62.2201 669.983 L65.0846 669.983 L65.0846 696.91 Q71.1321 696.528 74.3149 693.282 Q77.4659 690.003 77.4659 684.179 Q77.4659 680.805 76.6384 677.654 Q75.8109 674.471 74.1558 671.352 L79.6939 671.352 Q81.0307 674.503 81.731 677.813 Q82.4312 681.123 82.4312 684.529 Q82.4312 693.059 77.4659 698.056 Q72.5007 703.021 64.0343 703.021 Q55.2814 703.021 50.1571 698.311 Q45.0008 693.568 45.0008 685.547 Q45.0008 678.354 49.6478 674.185 Q54.2629 669.983 62.2201 669.983 M60.5013 675.84 Q55.6952 675.903 52.8306 678.545 Q49.9661 681.155 49.9661 685.484 Q49.9661 690.385 52.7352 693.345 Q55.5042 696.274 60.5332 696.719 L60.5013 675.84 Z" fill="#000000" fill-rule="nonzero" fill-opacity="1" /><circle clip-path="url(#clip422)" cx="672.525" cy="653.836" r="36" fill="#00a1ff" fill-rule="evenodd" fill-opacity="1" stroke="#000000" stroke-opacity="1" stroke-width="3.2"/>
<circle clip-path="url(#clip422)" cx="1377.25" cy="619.587" r="36" fill="#e69f00" fill-rule="evenodd" fill-opacity="1" stroke="#000000" stroke-opacity="1" stroke-width="3.2"/>
<polyline clip-path="url(#clip422)" style="stroke:#000000; stroke-linecap:round; stroke-linejoin:round; stroke-width:8; stroke-opacity:1; fill:none" points="672.525,653.836 1377.25,619.587 "/>
<polyline clip-path="url(#clip422)" style="stroke:#000000; stroke-linecap:round; stroke-linejoin:round; stroke-width:8; stroke-opacity:1; fill:none" points="1346.56,606.061 1377.25,619.587 1348.01,636.025 "/>
<polyline clip-path="url(#clip422)" style="stroke:#000000; stroke-linecap:round; stroke-linejoin:round; stroke-width:8; stroke-opacity:1; fill:none" points="1377.25,619.587 672.525,653.836 "/>
<circle clip-path="url(#clip422)" cx="310.54" cy="1308.75" r="36" fill="#00a1ff" fill-rule="evenodd" fill-opacity="1" stroke="#000000" stroke-opacity="1" stroke-width="3.2"/>
<circle clip-path="url(#clip422)" cx="1073.35" cy="1179.05" r="36" fill="#e69f00" fill-rule="evenodd" fill-opacity="1" stroke="#000000" stroke-opacity="1" stroke-width="3.2"/>
<polyline clip-path="url(#clip422)" style="stroke:#000000; stroke-linecap:round; stroke-linejoin:round; stroke-width:8; stroke-opacity:1; fill:none" points="310.54,1308.75 1073.35,1179.05 "/>
<polyline clip-path="url(#clip422)" style="stroke:#000000; stroke-linecap:round; stroke-linejoin:round; stroke-width:8; stroke-opacity:1; fill:none" points="1041.26,1169.29 1073.35,1179.05 1046.29,1198.87 "/>
<polyline clip-path="url(#clip422)" style="stroke:#000000; stroke-linecap:round; stroke-linejoin:round; stroke-width:8; stroke-opacity:1; fill:none" points="1073.35,1179.05 310.54,1308.75 "/>
<circle clip-path="url(#clip422)" cx="1039.67" cy="445.454" r="36" fill="#00a1ff" fill-rule="evenodd" fill-opacity="1" stroke="#000000" stroke-opacity="1" stroke-width="3.2"/>
<circle clip-path="url(#clip422)" cx="1206.02" cy="443.896" r="36" fill="#e69f00" fill-rule="evenodd" fill-opacity="1" stroke="#000000" stroke-opacity="1" stroke-width="3.2"/>
<polyline clip-path="url(#clip422)" style="stroke:#000000; stroke-linecap:round; stroke-linejoin:round; stroke-width:8; stroke-opacity:1; fill:none" points="1039.67,445.454 1206.02,443.896 "/>
<polyline clip-path="url(#clip422)" style="stroke:#000000; stroke-linecap:round; stroke-linejoin:round; stroke-width:8; stroke-opacity:1; fill:none" points="1175.88,429.178 1206.02,443.896 1176.16,459.176 "/>
<polyline clip-path="url(#clip422)" style="stroke:#000000; stroke-linecap:round; stroke-linejoin:round; stroke-width:8; stroke-opacity:1; fill:none" points="1206.02,443.896 1039.67,445.454 "/>
<circle clip-path="url(#clip422)" cx="1245.14" cy="802.68" r="36" fill="#00a1ff" fill-rule="evenodd" fill-opacity="1" stroke="#000000" stroke-opacity="1" stroke-width="3.2"/>
<circle clip-path="url(#clip422)" cx="1335.93" cy="760.334" r="36" fill="#e69f00" fill-rule="evenodd" fill-opacity="1" stroke="#000000" stroke-opacity="1" stroke-width="3.2"/>
<polyline clip-path="url(#clip422)" style="stroke:#000000; stroke-linecap:round; stroke-linejoin:round; stroke-width:8; stroke-opacity:1; fill:none" points="1245.14,802.68 1335.93,760.334 "/>
<polyline clip-path="url(#clip422)" style="stroke:#000000; stroke-linecap:round; stroke-linejoin:round; stroke-width:8; stroke-opacity:1; fill:none" points="1302.4,759.422 1335.93,760.334 1315.08,786.609 "/>
<polyline clip-path="url(#clip422)" style="stroke:#000000; stroke-linecap:round; stroke-linejoin:round; stroke-width:8; stroke-opacity:1; fill:none" points="1335.93,760.334 1245.14,802.68 "/>
<circle clip-path="url(#clip422)" cx="337.483" cy="296.61" r="36" fill="#00a1ff" fill-rule="evenodd" fill-opacity="1" stroke="#000000" stroke-opacity="1" stroke-width="3.2"/>
<circle clip-path="url(#clip422)" cx="1449.18" cy="291.874" r="36" fill="#e69f00" fill-rule="evenodd" fill-opacity="1" stroke="#000000" stroke-opacity="1" stroke-width="3.2"/>
<polyline clip-path="url(#clip422)" style="stroke:#000000; stroke-linecap:round; stroke-linejoin:round; stroke-width:8; stroke-opacity:1; fill:none" points="337.483,296.61 1449.18,291.874 "/>
<polyline clip-path="url(#clip422)" style="stroke:#000000; stroke-linecap:round; stroke-linejoin:round; stroke-width:8; stroke-opacity:1; fill:none" points="1419.12,277.002 1449.18,291.874 1419.25,307.001 "/>
<polyline clip-path="url(#clip422)" style="stroke:#000000; stroke-linecap:round; stroke-linejoin:round; stroke-width:8; stroke-opacity:1; fill:none" points="1449.18,291.874 337.483,296.61 "/>
<circle clip-path="url(#clip422)" cx="1334.88" cy="683.604" r="36" fill="#00a1ff" fill-rule="evenodd" fill-opacity="1" stroke="#000000" stroke-opacity="1" stroke-width="3.2"/>
<circle clip-path="url(#clip422)" cx="1432.82" cy="664.302" r="36" fill="#e69f00" fill-rule="evenodd" fill-opacity="1" stroke="#000000" stroke-opacity="1" stroke-width="3.2"/>
<polyline clip-path="url(#clip422)" style="stroke:#000000; stroke-linecap:round; stroke-linejoin:round; stroke-width:8; stroke-opacity:1; fill:none" points="1334.88,683.604 1432.82,664.302 "/>
<polyline clip-path="url(#clip422)" style="stroke:#000000; stroke-linecap:round; stroke-linejoin:round; stroke-width:8; stroke-opacity:1; fill:none" points="1400.49,655.386 1432.82,664.302 1406.29,684.82 "/>
<polyline clip-path="url(#clip422)" style="stroke:#000000; stroke-linecap:round; stroke-linejoin:round; stroke-width:8; stroke-opacity:1; fill:none" points="1432.82,664.302 1334.88,683.604 "/>
<circle clip-path="url(#clip422)" cx="1901.17" cy="1368.29" r="36" fill="#00a1ff" fill-rule="evenodd" fill-opacity="1" stroke="#000000" stroke-opacity="1" stroke-width="3.2"/>
<circle clip-path="url(#clip422)" cx="1904.92" cy="1292.78" r="36" fill="#e69f00" fill-rule="evenodd" fill-opacity="1" stroke="#000000" stroke-opacity="1" stroke-width="3.2"/>
<polyline clip-path="url(#clip422)" style="stroke:#000000; stroke-linecap:round; stroke-linejoin:round; stroke-width:8; stroke-opacity:1; fill:none" points="1901.17,1368.29 1904.92,1292.78 "/>
<polyline clip-path="url(#clip422)" style="stroke:#000000; stroke-linecap:round; stroke-linejoin:round; stroke-width:8; stroke-opacity:1; fill:none" points="1888.45,1322 1904.92,1292.78 1918.42,1323.49 "/>
<polyline clip-path="url(#clip422)" style="stroke:#000000; stroke-linecap:round; stroke-linejoin:round; stroke-width:8; stroke-opacity:1; fill:none" points="1904.92,1292.78 1901.17,1368.29 "/>
<circle clip-path="url(#clip422)" cx="635.975" cy="1130.14" r="36" fill="#00a1ff" fill-rule="evenodd" fill-opacity="1" stroke="#000000" stroke-opacity="1" stroke-width="3.2"/>
<circle clip-path="url(#clip422)" cx="1167.99" cy="959.563" r="36" fill="#e69f00" fill-rule="evenodd" fill-opacity="1" stroke="#000000" stroke-opacity="1" stroke-width="3.2"/>
<polyline clip-path="url(#clip422)" style="stroke:#000000; stroke-linecap:round; stroke-linejoin:round; stroke-width:8; stroke-opacity:1; fill:none" points="635.975,1130.14 1167.99,959.563 "/>
<polyline clip-path="url(#clip422)" style="stroke:#000000; stroke-linecap:round; stroke-linejoin:round; stroke-width:8; stroke-opacity:1; fill:none" points="1134.84,954.439 1167.99,959.563 1144,983.006 "/>
<polyline clip-path="url(#clip422)" style="stroke:#000000; stroke-linecap:round; stroke-linejoin:round; stroke-width:8; stroke-opacity:1; fill:none" points="1167.99,959.563 635.975,1130.14 "/>
<circle clip-path="url(#clip422)" cx="1829.94" cy="88.2284" r="36" fill="#00a1ff" fill-rule="evenodd" fill-opacity="1" stroke="#000000" stroke-opacity="1" stroke-width="3.2"/>
<circle clip-path="url(#clip422)" cx="1801.66" cy="85.7211" r="36" fill="#e69f00" fill-rule="evenodd" fill-opacity="1" stroke="#000000" stroke-opacity="1" stroke-width="3.2"/>
<polyline clip-path="url(#clip422)" style="stroke:#000000; stroke-linecap:round; stroke-linejoin:round; stroke-width:8; stroke-opacity:1; fill:none" points="1829.94,88.2284 1801.66,85.7211 "/>
<polyline clip-path="url(#clip422)" style="stroke:#000000; stroke-linecap:round; stroke-linejoin:round; stroke-width:8; stroke-opacity:1; fill:none" points="1830.21,103.311 1801.66,85.7211 1832.86,73.4285 "/>
<polyline clip-path="url(#clip422)" style="stroke:#000000; stroke-linecap:round; stroke-linejoin:round; stroke-width:8; stroke-opacity:1; fill:none" points="1801.66,85.7211 1829.94,88.2284 "/>
<circle clip-path="url(#clip422)" cx="987.418" cy="802.68" r="36" fill="#00a1ff" fill-rule="evenodd" fill-opacity="1" stroke="#000000" stroke-opacity="1" stroke-width="3.2"/>
<circle clip-path="url(#clip422)" cx="1144.4" cy="731.694" r="36" fill="#e69f00" fill-rule="evenodd" fill-opacity="1" stroke="#000000" stroke-opacity="1" stroke-width="3.2"/>
<polyline clip-path="url(#clip422)" style="stroke:#000000; stroke-linecap:round; stroke-linejoin:round; stroke-width:8; stroke-opacity:1; fill:none" points="987.418,802.68 1144.4,731.694 "/>
<polyline clip-path="url(#clip422)" style="stroke:#000000; stroke-linecap:round; stroke-linejoin:round; stroke-width:8; stroke-opacity:1; fill:none" points="1110.89,730.387 1144.4,731.694 1123.25,757.722 "/>
<polyline clip-path="url(#clip422)" style="stroke:#000000; stroke-linecap:round; stroke-linejoin:round; stroke-width:8; stroke-opacity:1; fill:none" points="1144.4,731.694 987.418,802.68 "/>
<path clip-path="url(#clip420)" d="M1411.72 1361.45 L1896.42 1361.45 L1896.42 1205.93 L1411.72 1205.93  Z" fill="#ffffff" fill-rule="evenodd" fill-opacity="1"/>
<polyline clip-path="url(#clip420)" style="stroke:#000000; stroke-linecap:round; stroke-linejoin:round; stroke-width:4; stroke-opacity:1; fill:none" points="1411.72,1361.45 1896.42,1361.45 1896.42,1205.93 1411.72,1205.93 1411.72,1361.45 "/>
<circle clip-path="url(#clip420)" cx="1486.84" cy="1257.77" r="21.9429" fill="#00a1ff" fill-rule="evenodd" fill-opacity="1" stroke="#000000" stroke-opacity="1" stroke-width="1.95048"/>
<path clip-path="url(#clip420)" d="M1561.95 1239.03 L1566.21 1239.03 L1566.21 1275.05 L1561.95 1275.05 L1561.95 1239.03 Z" fill="#000000" fill-rule="nonzero" fill-opacity="1" /><path clip-path="url(#clip420)" d="M1585.17 1252.11 Q1581.74 1252.11 1579.75 1254.79 Q1577.76 1257.45 1577.76 1262.11 Q1577.76 1266.76 1579.73 1269.44 Q1581.72 1272.11 1585.17 1272.11 Q1588.57 1272.11 1590.56 1269.42 Q1592.55 1266.74 1592.55 1262.11 Q1592.55 1257.5 1590.56 1254.82 Q1588.57 1252.11 1585.17 1252.11 M1585.17 1248.5 Q1590.72 1248.5 1593.89 1252.11 Q1597.07 1255.72 1597.07 1262.11 Q1597.07 1268.47 1593.89 1272.11 Q1590.72 1275.72 1585.17 1275.72 Q1579.59 1275.72 1576.42 1272.11 Q1573.27 1268.47 1573.27 1262.11 Q1573.27 1255.72 1576.42 1252.11 Q1579.59 1248.5 1585.17 1248.5 Z" fill="#000000" fill-rule="nonzero" fill-opacity="1" /><path clip-path="url(#clip420)" d="M1615.91 1262.01 Q1610.75 1262.01 1608.76 1263.19 Q1606.76 1264.38 1606.76 1267.22 Q1606.76 1269.49 1608.25 1270.83 Q1609.75 1272.15 1612.32 1272.15 Q1615.86 1272.15 1617.99 1269.65 Q1620.14 1267.13 1620.14 1262.96 L1620.14 1262.01 L1615.91 1262.01 M1624.4 1260.25 L1624.4 1275.05 L1620.14 1275.05 L1620.14 1271.11 Q1618.69 1273.47 1616.51 1274.61 Q1614.33 1275.72 1611.19 1275.72 Q1607.2 1275.72 1604.84 1273.5 Q1602.51 1271.25 1602.51 1267.5 Q1602.51 1263.13 1605.42 1260.9 Q1608.36 1258.68 1614.17 1258.68 L1620.14 1258.68 L1620.14 1258.26 Q1620.14 1255.32 1618.2 1253.73 Q1616.28 1252.11 1612.78 1252.11 Q1610.56 1252.11 1608.45 1252.64 Q1606.35 1253.17 1604.4 1254.24 L1604.4 1250.3 Q1606.74 1249.4 1608.94 1248.96 Q1611.14 1248.5 1613.22 1248.5 Q1618.85 1248.5 1621.63 1251.41 Q1624.4 1254.33 1624.4 1260.25 Z" fill="#000000" fill-rule="nonzero" fill-opacity="1" /><path clip-path="url(#clip420)" d="M1654.73 1259.4 L1654.73 1275.05 L1650.47 1275.05 L1650.47 1259.54 Q1650.47 1255.86 1649.03 1254.03 Q1647.6 1252.2 1644.73 1252.2 Q1641.28 1252.2 1639.29 1254.4 Q1637.3 1256.6 1637.3 1260.39 L1637.3 1275.05 L1633.01 1275.05 L1633.01 1249.12 L1637.3 1249.12 L1637.3 1253.15 Q1638.82 1250.81 1640.88 1249.65 Q1642.97 1248.5 1645.68 1248.5 Q1650.14 1248.5 1652.44 1251.27 Q1654.73 1254.03 1654.73 1259.4 Z" fill="#000000" fill-rule="nonzero" fill-opacity="1" /><path clip-path="url(#clip420)" d="M1695.35 1253.06 L1695.35 1239.03 L1699.61 1239.03 L1699.61 1275.05 L1695.35 1275.05 L1695.35 1271.16 Q1694.01 1273.47 1691.95 1274.61 Q1689.91 1275.72 1687.04 1275.72 Q1682.34 1275.72 1679.38 1271.97 Q1676.44 1268.22 1676.44 1262.11 Q1676.44 1256 1679.38 1252.25 Q1682.34 1248.5 1687.04 1248.5 Q1689.91 1248.5 1691.95 1249.63 Q1694.01 1250.74 1695.35 1253.06 M1680.84 1262.11 Q1680.84 1266.81 1682.76 1269.49 Q1684.7 1272.15 1688.08 1272.15 Q1691.46 1272.15 1693.41 1269.49 Q1695.35 1266.81 1695.35 1262.11 Q1695.35 1257.41 1693.41 1254.75 Q1691.46 1252.06 1688.08 1252.06 Q1684.7 1252.06 1682.76 1254.75 Q1680.84 1257.41 1680.84 1262.11 Z" fill="#000000" fill-rule="nonzero" fill-opacity="1" /><path clip-path="url(#clip420)" d="M1730.56 1261.02 L1730.56 1263.1 L1710.98 1263.1 Q1711.25 1267.5 1713.62 1269.82 Q1716 1272.11 1720.24 1272.11 Q1722.69 1272.11 1724.98 1271.5 Q1727.3 1270.9 1729.56 1269.7 L1729.56 1273.73 Q1727.27 1274.7 1724.87 1275.21 Q1722.46 1275.72 1719.98 1275.72 Q1713.78 1275.72 1710.14 1272.11 Q1706.53 1268.5 1706.53 1262.34 Q1706.53 1255.97 1709.96 1252.25 Q1713.41 1248.5 1719.24 1248.5 Q1724.47 1248.5 1727.5 1251.88 Q1730.56 1255.23 1730.56 1261.02 M1726.3 1259.77 Q1726.25 1256.27 1724.33 1254.19 Q1722.44 1252.11 1719.29 1252.11 Q1715.72 1252.11 1713.57 1254.12 Q1711.44 1256.13 1711.12 1259.79 L1726.3 1259.77 Z" fill="#000000" fill-rule="nonzero" fill-opacity="1" /><path clip-path="url(#clip420)" d="M1759.1 1259.4 L1759.1 1275.05 L1754.84 1275.05 L1754.84 1259.54 Q1754.84 1255.86 1753.41 1254.03 Q1751.97 1252.2 1749.1 1252.2 Q1745.65 1252.2 1743.66 1254.4 Q1741.67 1256.6 1741.67 1260.39 L1741.67 1275.05 L1737.39 1275.05 L1737.39 1249.12 L1741.67 1249.12 L1741.67 1253.15 Q1743.2 1250.81 1745.26 1249.65 Q1747.34 1248.5 1750.05 1248.5 Q1754.52 1248.5 1756.81 1251.27 Q1759.1 1254.03 1759.1 1259.4 Z" fill="#000000" fill-rule="nonzero" fill-opacity="1" /><path clip-path="url(#clip420)" d="M1767.6 1249.12 L1771.86 1249.12 L1771.86 1275.05 L1767.6 1275.05 L1767.6 1249.12 M1767.6 1239.03 L1771.86 1239.03 L1771.86 1244.42 L1767.6 1244.42 L1767.6 1239.03 Z" fill="#000000" fill-rule="nonzero" fill-opacity="1" /><path clip-path="url(#clip420)" d="M1802.94 1261.02 L1802.94 1263.1 L1783.36 1263.1 Q1783.64 1267.5 1786 1269.82 Q1788.38 1272.11 1792.62 1272.11 Q1795.07 1272.11 1797.37 1271.5 Q1799.68 1270.9 1801.95 1269.7 L1801.95 1273.73 Q1799.66 1274.7 1797.25 1275.21 Q1794.84 1275.72 1792.37 1275.72 Q1786.16 1275.72 1782.53 1272.11 Q1778.92 1268.5 1778.92 1262.34 Q1778.92 1255.97 1782.34 1252.25 Q1785.79 1248.5 1791.62 1248.5 Q1796.86 1248.5 1799.89 1251.88 Q1802.94 1255.23 1802.94 1261.02 M1798.68 1259.77 Q1798.64 1256.27 1796.72 1254.19 Q1794.82 1252.11 1791.67 1252.11 Q1788.11 1252.11 1785.95 1254.12 Q1783.82 1256.13 1783.5 1259.79 L1798.68 1259.77 Z" fill="#000000" fill-rule="nonzero" fill-opacity="1" /><path clip-path="url(#clip420)" d="M1826.99 1253.06 L1826.99 1239.03 L1831.25 1239.03 L1831.25 1275.05 L1826.99 1275.05 L1826.99 1271.16 Q1825.65 1273.47 1823.59 1274.61 Q1821.56 1275.72 1818.68 1275.72 Q1813.99 1275.72 1811.02 1271.97 Q1808.08 1268.22 1808.08 1262.11 Q1808.08 1256 1811.02 1252.25 Q1813.99 1248.5 1818.68 1248.5 Q1821.56 1248.5 1823.59 1249.63 Q1825.65 1250.74 1826.99 1253.06 M1812.48 1262.11 Q1812.48 1266.81 1814.4 1269.49 Q1816.35 1272.15 1819.73 1272.15 Q1823.11 1272.15 1825.05 1269.49 Q1826.99 1266.81 1826.99 1262.11 Q1826.99 1257.41 1825.05 1254.75 Q1823.11 1252.06 1819.73 1252.06 Q1816.35 1252.06 1814.4 1254.75 Q1812.48 1257.41 1812.48 1262.11 Z" fill="#000000" fill-rule="nonzero" fill-opacity="1" /><circle clip-path="url(#clip420)" cx="1486.84" cy="1309.61" r="21.9429" fill="#e69f00" fill-rule="evenodd" fill-opacity="1" stroke="#000000" stroke-opacity="1" stroke-width="1.95048"/>
<path clip-path="url(#clip420)" d="M1561.95 1290.87 L1566.21 1290.87 L1566.21 1326.89 L1561.95 1326.89 L1561.95 1290.87 Z" fill="#000000" fill-rule="nonzero" fill-opacity="1" /><path clip-path="url(#clip420)" d="M1585.17 1303.95 Q1581.74 1303.95 1579.75 1306.63 Q1577.76 1309.29 1577.76 1313.95 Q1577.76 1318.6 1579.73 1321.28 Q1581.72 1323.95 1585.17 1323.95 Q1588.57 1323.95 1590.56 1321.26 Q1592.55 1318.58 1592.55 1313.95 Q1592.55 1309.34 1590.56 1306.66 Q1588.57 1303.95 1585.17 1303.95 M1585.17 1300.34 Q1590.72 1300.34 1593.89 1303.95 Q1597.07 1307.56 1597.07 1313.95 Q1597.07 1320.31 1593.89 1323.95 Q1590.72 1327.56 1585.17 1327.56 Q1579.59 1327.56 1576.42 1323.95 Q1573.27 1320.31 1573.27 1313.95 Q1573.27 1307.56 1576.42 1303.95 Q1579.59 1300.34 1585.17 1300.34 Z" fill="#000000" fill-rule="nonzero" fill-opacity="1" /><path clip-path="url(#clip420)" d="M1615.91 1313.85 Q1610.75 1313.85 1608.76 1315.03 Q1606.76 1316.22 1606.76 1319.06 Q1606.76 1321.33 1608.25 1322.67 Q1609.75 1323.99 1612.32 1323.99 Q1615.86 1323.99 1617.99 1321.49 Q1620.14 1318.97 1620.14 1314.8 L1620.14 1313.85 L1615.91 1313.85 M1624.4 1312.09 L1624.4 1326.89 L1620.14 1326.89 L1620.14 1322.95 Q1618.69 1325.31 1616.51 1326.45 Q1614.33 1327.56 1611.19 1327.56 Q1607.2 1327.56 1604.84 1325.34 Q1602.51 1323.09 1602.51 1319.34 Q1602.51 1314.97 1605.42 1312.74 Q1608.36 1310.52 1614.17 1310.52 L1620.14 1310.52 L1620.14 1310.1 Q1620.14 1307.16 1618.2 1305.57 Q1616.28 1303.95 1612.78 1303.95 Q1610.56 1303.95 1608.45 1304.48 Q1606.35 1305.01 1604.4 1306.08 L1604.4 1302.14 Q1606.74 1301.24 1608.94 1300.8 Q1611.14 1300.34 1613.22 1300.34 Q1618.85 1300.34 1621.63 1303.25 Q1624.4 1306.17 1624.4 1312.09 Z" fill="#000000" fill-rule="nonzero" fill-opacity="1" /><path clip-path="url(#clip420)" d="M1654.73 1311.24 L1654.73 1326.89 L1650.47 1326.89 L1650.47 1311.38 Q1650.47 1307.7 1649.03 1305.87 Q1647.6 1304.04 1644.73 1304.04 Q1641.28 1304.04 1639.29 1306.24 Q1637.3 1308.44 1637.3 1312.23 L1637.3 1326.89 L1633.01 1326.89 L1633.01 1300.96 L1637.3 1300.96 L1637.3 1304.99 Q1638.82 1302.65 1640.88 1301.49 Q1642.97 1300.34 1645.68 1300.34 Q1650.14 1300.34 1652.44 1303.11 Q1654.73 1305.87 1654.73 1311.24 Z" fill="#000000" fill-rule="nonzero" fill-opacity="1" /><path clip-path="url(#clip420)" d="M1682.41 1323 L1682.41 1336.75 L1678.13 1336.75 L1678.13 1300.96 L1682.41 1300.96 L1682.41 1304.9 Q1683.75 1302.58 1685.79 1301.47 Q1687.85 1300.34 1690.7 1300.34 Q1695.42 1300.34 1698.36 1304.09 Q1701.32 1307.84 1701.32 1313.95 Q1701.32 1320.06 1698.36 1323.81 Q1695.42 1327.56 1690.7 1327.56 Q1687.85 1327.56 1685.79 1326.45 Q1683.75 1325.31 1682.41 1323 M1696.9 1313.95 Q1696.9 1309.25 1694.96 1306.59 Q1693.04 1303.9 1689.66 1303.9 Q1686.28 1303.9 1684.33 1306.59 Q1682.41 1309.25 1682.41 1313.95 Q1682.41 1318.65 1684.33 1321.33 Q1686.28 1323.99 1689.66 1323.99 Q1693.04 1323.99 1694.96 1321.33 Q1696.9 1318.65 1696.9 1313.95 Z" fill="#000000" fill-rule="nonzero" fill-opacity="1" /><path clip-path="url(#clip420)" d="M1723.41 1304.94 Q1722.69 1304.53 1721.83 1304.34 Q1721 1304.13 1719.98 1304.13 Q1716.37 1304.13 1714.43 1306.49 Q1712.5 1308.83 1712.5 1313.23 L1712.5 1326.89 L1708.22 1326.89 L1708.22 1300.96 L1712.5 1300.96 L1712.5 1304.99 Q1713.85 1302.63 1716 1301.49 Q1718.15 1300.34 1721.23 1300.34 Q1721.67 1300.34 1722.2 1300.41 Q1722.74 1300.45 1723.38 1300.57 L1723.41 1304.94 Z" fill="#000000" fill-rule="nonzero" fill-opacity="1" /><path clip-path="url(#clip420)" d="M1736.88 1303.95 Q1733.45 1303.95 1731.46 1306.63 Q1729.47 1309.29 1729.47 1313.95 Q1729.47 1318.6 1731.44 1321.28 Q1733.43 1323.95 1736.88 1323.95 Q1740.28 1323.95 1742.27 1321.26 Q1744.26 1318.58 1744.26 1313.95 Q1744.26 1309.34 1742.27 1306.66 Q1740.28 1303.95 1736.88 1303.95 M1736.88 1300.34 Q1742.44 1300.34 1745.61 1303.95 Q1748.78 1307.56 1748.78 1313.95 Q1748.78 1320.31 1745.61 1323.95 Q1742.44 1327.56 1736.88 1327.56 Q1731.3 1327.56 1728.13 1323.95 Q1724.98 1320.31 1724.98 1313.95 Q1724.98 1307.56 1728.13 1303.95 Q1731.3 1300.34 1736.88 1300.34 Z" fill="#000000" fill-rule="nonzero" fill-opacity="1" /><path clip-path="url(#clip420)" d="M1752.78 1300.96 L1757.3 1300.96 L1765.4 1322.72 L1773.5 1300.96 L1778.01 1300.96 L1768.29 1326.89 L1762.5 1326.89 L1752.78 1300.96 Z" fill="#000000" fill-rule="nonzero" fill-opacity="1" /><path clip-path="url(#clip420)" d="M1783.89 1300.96 L1788.15 1300.96 L1788.15 1326.89 L1783.89 1326.89 L1783.89 1300.96 M1783.89 1290.87 L1788.15 1290.87 L1788.15 1296.26 L1783.89 1296.26 L1783.89 1290.87 Z" fill="#000000" fill-rule="nonzero" fill-opacity="1" /><path clip-path="url(#clip420)" d="M1814.12 1304.9 L1814.12 1290.87 L1818.38 1290.87 L1818.38 1326.89 L1814.12 1326.89 L1814.12 1323 Q1812.78 1325.31 1810.72 1326.45 Q1808.68 1327.56 1805.81 1327.56 Q1801.12 1327.56 1798.15 1323.81 Q1795.21 1320.06 1795.21 1313.95 Q1795.21 1307.84 1798.15 1304.09 Q1801.12 1300.34 1805.81 1300.34 Q1808.68 1300.34 1810.72 1301.47 Q1812.78 1302.58 1814.12 1304.9 M1799.61 1313.95 Q1799.61 1318.65 1801.53 1321.33 Q1803.48 1323.99 1806.86 1323.99 Q1810.24 1323.99 1812.18 1321.33 Q1814.12 1318.65 1814.12 1313.95 Q1814.12 1309.25 1812.18 1306.59 Q1810.24 1303.9 1806.86 1303.9 Q1803.48 1303.9 1801.53 1306.59 Q1799.61 1309.25 1799.61 1313.95 Z" fill="#000000" fill-rule="nonzero" fill-opacity="1" /><path clip-path="url(#clip420)" d="M1849.33 1312.86 L1849.33 1314.94 L1829.75 1314.94 Q1830.03 1319.34 1832.39 1321.66 Q1834.77 1323.95 1839.01 1323.95 Q1841.46 1323.95 1843.75 1323.34 Q1846.07 1322.74 1848.34 1321.54 L1848.34 1325.57 Q1846.05 1326.54 1843.64 1327.05 Q1841.23 1327.56 1838.75 1327.56 Q1832.55 1327.56 1828.92 1323.95 Q1825.3 1320.34 1825.3 1314.18 Q1825.3 1307.81 1828.73 1304.09 Q1832.18 1300.34 1838.01 1300.34 Q1843.24 1300.34 1846.28 1303.72 Q1849.33 1307.07 1849.33 1312.86 M1845.07 1311.61 Q1845.03 1308.11 1843.11 1306.03 Q1841.21 1303.95 1838.06 1303.95 Q1834.49 1303.95 1832.34 1305.96 Q1830.21 1307.97 1829.89 1311.63 L1845.07 1311.61 Z" fill="#000000" fill-rule="nonzero" fill-opacity="1" /><path clip-path="url(#clip420)" d="M1873.38 1304.9 L1873.38 1290.87 L1877.64 1290.87 L1877.64 1326.89 L1873.38 1326.89 L1873.38 1323 Q1872.04 1325.31 1869.98 1326.45 Q1867.94 1327.56 1865.07 1327.56 Q1860.37 1327.56 1857.41 1323.81 Q1854.47 1320.06 1854.47 1313.95 Q1854.47 1307.84 1857.41 1304.09 Q1860.37 1300.34 1865.07 1300.34 Q1867.94 1300.34 1869.98 1301.47 Q1872.04 1302.58 1873.38 1304.9 M1858.87 1313.95 Q1858.87 1318.65 1860.79 1321.33 Q1862.74 1323.99 1866.11 1323.99 Q1869.49 1323.99 1871.44 1321.33 Q1873.38 1318.65 1873.38 1313.95 Q1873.38 1309.25 1871.44 1306.59 Q1869.49 1303.9 1866.11 1303.9 Q1862.74 1303.9 1860.79 1306.59 Q1858.87 1309.25 1858.87 1313.95 Z" fill="#000000" fill-rule="nonzero" fill-opacity="1" /></svg>
