<?xml version="1.0" encoding="utf-8"?>
<svg xmlns="http://www.w3.org/2000/svg" xmlns:xlink="http://www.w3.org/1999/xlink" width="500" height="400" viewBox="0 0 2000 1600">
<defs>
  <clipPath id="clip160">
    <rect x="0" y="0" width="2000" height="1600"/>
  </clipPath>
</defs>
<path clip-path="url(#clip160)" d="M0 1600 L2000 1600 L2000 0 L0 0  Z" fill="#ffffff" fill-rule="evenodd" fill-opacity="1"/>
<defs>
  <clipPath id="clip161">
    <rect x="400" y="0" width="1401" height="1401"/>
  </clipPath>
</defs>
<path clip-path="url(#clip160)" d="M262.708 1406.76 L1952.76 1406.76 L1952.76 47.2441 L262.708 47.2441  Z" fill="#ffffff" fill-rule="evenodd" fill-opacity="1"/>
<defs>
  <clipPath id="clip162">
    <rect x="262" y="47" width="1691" height="1361"/>
  </clipPath>
</defs>
<polyline clip-path="url(#clip162)" style="stroke:#000000; stroke-linecap:round; stroke-linejoin:round; stroke-width:2; stroke-opacity:0.1; fill:none" points="275.478,1406.76 275.478,47.2441 "/>
<polyline clip-path="url(#clip162)" style="stroke:#000000; stroke-linecap:round; stroke-linejoin:round; stroke-width:2; stroke-opacity:0.1; fill:none" points="656.983,1406.76 656.983,47.2441 "/>
<polyline clip-path="url(#clip162)" style="stroke:#000000; stroke-linecap:round; stroke-linejoin:round; stroke-width:2; stroke-opacity:0.1; fill:none" points="1038.49,1406.76 1038.49,47.2441 "/>
<polyline clip-path="url(#clip162)" style="stroke:#000000; stroke-linecap:round; stroke-linejoin:round; stroke-width:2; stroke-opacity:0.1; fill:none" points="1419.99,1406.76 1419.99,47.2441 "/>
<polyline clip-path="url(#clip162)" style="stroke:#000000; stroke-linecap:round; stroke-linejoin:round; stroke-width:2; stroke-opacity:0.1; fill:none" points="1801.5,1406.76 1801.5,47.2441 "/>
<polyline clip-path="url(#clip160)" style="stroke:#000000; stroke-linecap:round; stroke-linejoin:round; stroke-width:4; stroke-opacity:1; fill:none" points="262.708,1406.76 1952.76,1406.76 "/>
<polyline clip-path="url(#clip160)" style="stroke:#000000; stroke-linecap:round; stroke-linejoin:round; stroke-width:4; stroke-opacity:1; fill:none" points="275.478,1406.76 275.478,1387.87 "/>
<polyline clip-path="url(#clip160)" style="stroke:#000000; stroke-linecap:round; stroke-linejoin:round; stroke-width:4; stroke-opacity:1; fill:none" points="656.983,1406.76 656.983,1387.87 "/>
<polyline clip-path="url(#clip160)" style="stroke:#000000; stroke-linecap:round; stroke-linejoin:round; stroke-width:4; stroke-opacity:1; fill:none" points="1038.49,1406.76 1038.49,1387.87 "/>
<polyline clip-path="url(#clip160)" style="stroke:#000000; stroke-linecap:round; stroke-linejoin:round; stroke-width:4; stroke-opacity:1; fill:none" points="1419.99,1406.76 1419.99,1387.87 "/>
<polyline clip-path="url(#clip160)" style="stroke:#000000; stroke-linecap:round; stroke-linejoin:round; stroke-width:4; stroke-opacity:1; fill:none" points="1801.5,1406.76 1801.5,1387.87 "/>
<path clip-path="url(#clip160)" d="M221.925 1449.14 L251.601 1449.14 L251.601 1453.07 L221.925 1453.07 L221.925 1449.14 Z" fill="#000000" fill-rule="nonzero" fill-opacity="1" /><path clip-path="url(#clip160)" d="M271.693 1434.48 Q268.082 1434.48 266.253 1438.05 Q264.448 1441.59 264.448 1448.72 Q264.448 1455.83 266.253 1459.39 Q268.082 1462.93 271.693 1462.93 Q275.327 1462.93 277.133 1459.39 Q278.962 1455.83 278.962 1448.72 Q278.962 1441.59 277.133 1438.05 Q275.327 1434.48 271.693 1434.48 M271.693 1430.78 Q277.503 1430.78 280.559 1435.39 Q283.638 1439.97 283.638 1448.72 Q283.638 1457.45 280.559 1462.05 Q277.503 1466.64 271.693 1466.64 Q265.883 1466.64 262.804 1462.05 Q259.749 1457.45 259.749 1448.72 Q259.749 1439.97 262.804 1435.39 Q265.883 1430.78 271.693 1430.78 Z" fill="#000000" fill-rule="nonzero" fill-opacity="1" /><path clip-path="url(#clip160)" d="M291.855 1460.08 L296.739 1460.08 L296.739 1465.96 L291.855 1465.96 L291.855 1460.08 Z" fill="#000000" fill-rule="nonzero" fill-opacity="1" /><path clip-path="url(#clip160)" d="M317.503 1446.82 Q314.355 1446.82 312.503 1448.97 Q310.674 1451.13 310.674 1454.88 Q310.674 1458.6 312.503 1460.78 Q314.355 1462.93 317.503 1462.93 Q320.651 1462.93 322.48 1460.78 Q324.332 1458.6 324.332 1454.88 Q324.332 1451.13 322.48 1448.97 Q320.651 1446.82 317.503 1446.82 M326.785 1432.17 L326.785 1436.43 Q325.026 1435.59 323.221 1435.15 Q321.438 1434.71 319.679 1434.71 Q315.049 1434.71 312.596 1437.84 Q310.165 1440.96 309.818 1447.28 Q311.184 1445.27 313.244 1444.2 Q315.304 1443.12 317.781 1443.12 Q322.989 1443.12 325.998 1446.29 Q329.031 1449.44 329.031 1454.88 Q329.031 1460.2 325.883 1463.42 Q322.735 1466.64 317.503 1466.64 Q311.508 1466.64 308.336 1462.05 Q305.165 1457.45 305.165 1448.72 Q305.165 1440.52 309.054 1435.66 Q312.943 1430.78 319.494 1430.78 Q321.253 1430.78 323.035 1431.13 Q324.841 1431.47 326.785 1432.17 Z" fill="#000000" fill-rule="nonzero" fill-opacity="1" /><path clip-path="url(#clip160)" d="M603.268 1449.14 L632.944 1449.14 L632.944 1453.07 L603.268 1453.07 L603.268 1449.14 Z" fill="#000000" fill-rule="nonzero" fill-opacity="1" /><path clip-path="url(#clip160)" d="M653.036 1434.48 Q649.425 1434.48 647.597 1438.05 Q645.791 1441.59 645.791 1448.72 Q645.791 1455.83 647.597 1459.39 Q649.425 1462.93 653.036 1462.93 Q656.671 1462.93 658.476 1459.39 Q660.305 1455.83 660.305 1448.72 Q660.305 1441.59 658.476 1438.05 Q656.671 1434.48 653.036 1434.48 M653.036 1430.78 Q658.846 1430.78 661.902 1435.39 Q664.981 1439.97 664.981 1448.72 Q664.981 1457.45 661.902 1462.05 Q658.846 1466.64 653.036 1466.64 Q647.226 1466.64 644.147 1462.05 Q641.092 1457.45 641.092 1448.72 Q641.092 1439.97 644.147 1435.39 Q647.226 1430.78 653.036 1430.78 Z" fill="#000000" fill-rule="nonzero" fill-opacity="1" /><path clip-path="url(#clip160)" d="M673.198 1460.08 L678.082 1460.08 L678.082 1465.96 L673.198 1465.96 L673.198 1460.08 Z" fill="#000000" fill-rule="nonzero" fill-opacity="1" /><path clip-path="url(#clip160)" d="M701.115 1435.48 L689.309 1453.93 L701.115 1453.93 L701.115 1435.48 M699.888 1431.4 L705.768 1431.4 L705.768 1453.93 L710.698 1453.93 L710.698 1457.82 L705.768 1457.82 L705.768 1465.96 L701.115 1465.96 L701.115 1457.82 L685.513 1457.82 L685.513 1453.3 L699.888 1431.4 Z" fill="#000000" fill-rule="nonzero" fill-opacity="1" /><path clip-path="url(#clip160)" d="M985.815 1449.14 L1015.49 1449.14 L1015.49 1453.07 L985.815 1453.07 L985.815 1449.14 Z" fill="#000000" fill-rule="nonzero" fill-opacity="1" /><path clip-path="url(#clip160)" d="M1035.58 1434.48 Q1031.97 1434.48 1030.14 1438.05 Q1028.34 1441.59 1028.34 1448.72 Q1028.34 1455.83 1030.14 1459.39 Q1031.97 1462.93 1035.58 1462.93 Q1039.22 1462.93 1041.02 1459.39 Q1042.85 1455.83 1042.85 1448.72 Q1042.85 1441.59 1041.02 1438.05 Q1039.22 1434.48 1035.58 1434.48 M1035.58 1430.78 Q1041.39 1430.78 1044.45 1435.39 Q1047.53 1439.97 1047.53 1448.72 Q1047.53 1457.45 1044.45 1462.05 Q1041.39 1466.64 1035.58 1466.64 Q1029.77 1466.64 1026.69 1462.05 Q1023.64 1457.45 1023.64 1448.72 Q1023.64 1439.97 1026.69 1435.39 Q1029.77 1430.78 1035.58 1430.78 Z" fill="#000000" fill-rule="nonzero" fill-opacity="1" /><path clip-path="url(#clip160)" d="M1055.75 1460.08 L1060.63 1460.08 L1060.63 1465.96 L1055.75 1465.96 L1055.75 1460.08 Z" fill="#000000" fill-rule="nonzero" fill-opacity="1" /><path clip-path="url(#clip160)" d="M1074.84 1462.03 L1091.16 1462.03 L1091.16 1465.96 L1069.22 1465.96 L1069.22 1462.03 Q1071.88 1459.27 1076.46 1454.64 Q1081.07 1449.99 1082.25 1448.65 Q1084.49 1446.13 1085.37 1444.39 Q1086.28 1442.63 1086.28 1440.94 Q1086.28 1438.19 1084.33 1436.45 Q1082.41 1434.71 1079.31 1434.71 Q1077.11 1434.71 1074.66 1435.48 Q1072.23 1436.24 1069.45 1437.79 L1069.45 1433.07 Q1072.27 1431.94 1074.73 1431.36 Q1077.18 1430.78 1079.22 1430.78 Q1084.59 1430.78 1087.78 1433.46 Q1090.98 1436.15 1090.98 1440.64 Q1090.98 1442.77 1090.17 1444.69 Q1089.38 1446.59 1087.27 1449.18 Q1086.69 1449.85 1083.59 1453.07 Q1080.49 1456.26 1074.84 1462.03 Z" fill="#000000" fill-rule="nonzero" fill-opacity="1" /><path clip-path="url(#clip160)" d="M1397.38 1434.48 Q1393.77 1434.48 1391.94 1438.05 Q1390.13 1441.59 1390.13 1448.72 Q1390.13 1455.83 1391.94 1459.39 Q1393.77 1462.93 1397.38 1462.93 Q1401.01 1462.93 1402.82 1459.39 Q1404.65 1455.83 1404.65 1448.72 Q1404.65 1441.59 1402.82 1438.05 Q1401.01 1434.48 1397.38 1434.48 M1397.38 1430.78 Q1403.19 1430.78 1406.24 1435.39 Q1409.32 1439.97 1409.32 1448.72 Q1409.32 1457.45 1406.24 1462.05 Q1403.19 1466.64 1397.38 1466.64 Q1391.57 1466.64 1388.49 1462.05 Q1385.43 1457.45 1385.43 1448.72 Q1385.43 1439.97 1388.49 1435.39 Q1391.57 1430.78 1397.38 1430.78 Z" fill="#000000" fill-rule="nonzero" fill-opacity="1" /><path clip-path="url(#clip160)" d="M1417.54 1460.08 L1422.42 1460.08 L1422.42 1465.96 L1417.54 1465.96 L1417.54 1460.08 Z" fill="#000000" fill-rule="nonzero" fill-opacity="1" /><path clip-path="url(#clip160)" d="M1442.61 1434.48 Q1439 1434.48 1437.17 1438.05 Q1435.36 1441.59 1435.36 1448.72 Q1435.36 1455.83 1437.17 1459.39 Q1439 1462.93 1442.61 1462.93 Q1446.24 1462.93 1448.05 1459.39 Q1449.88 1455.83 1449.88 1448.72 Q1449.88 1441.59 1448.05 1438.05 Q1446.24 1434.48 1442.61 1434.48 M1442.61 1430.78 Q1448.42 1430.78 1451.47 1435.39 Q1454.55 1439.97 1454.55 1448.72 Q1454.55 1457.45 1451.47 1462.05 Q1448.42 1466.64 1442.61 1466.64 Q1436.8 1466.64 1433.72 1462.05 Q1430.66 1457.45 1430.66 1448.72 Q1430.66 1439.97 1433.72 1435.39 Q1436.8 1430.78 1442.61 1430.78 Z" fill="#000000" fill-rule="nonzero" fill-opacity="1" /><path clip-path="url(#clip160)" d="M1779.68 1434.48 Q1776.07 1434.48 1774.24 1438.05 Q1772.44 1441.59 1772.44 1448.72 Q1772.44 1455.83 1774.24 1459.39 Q1776.07 1462.93 1779.68 1462.93 Q1783.32 1462.93 1785.12 1459.39 Q1786.95 1455.83 1786.95 1448.72 Q1786.95 1441.59 1785.12 1438.05 Q1783.32 1434.48 1779.68 1434.48 M1779.68 1430.78 Q1785.49 1430.78 1788.55 1435.39 Q1791.63 1439.97 1791.63 1448.72 Q1791.63 1457.45 1788.55 1462.05 Q1785.49 1466.64 1779.68 1466.64 Q1773.87 1466.64 1770.79 1462.05 Q1767.74 1457.45 1767.74 1448.72 Q1767.74 1439.97 1770.79 1435.39 Q1773.87 1430.78 1779.68 1430.78 Z" fill="#000000" fill-rule="nonzero" fill-opacity="1" /><path clip-path="url(#clip160)" d="M1799.84 1460.08 L1804.73 1460.08 L1804.73 1465.96 L1799.84 1465.96 L1799.84 1460.08 Z" fill="#000000" fill-rule="nonzero" fill-opacity="1" /><path clip-path="url(#clip160)" d="M1818.94 1462.03 L1835.26 1462.03 L1835.26 1465.96 L1813.32 1465.96 L1813.32 1462.03 Q1815.98 1459.27 1820.56 1454.64 Q1825.17 1449.99 1826.35 1448.65 Q1828.59 1446.13 1829.47 1444.39 Q1830.38 1442.63 1830.38 1440.94 Q1830.38 1438.19 1828.43 1436.45 Q1826.51 1434.71 1823.41 1434.71 Q1821.21 1434.71 1818.76 1435.48 Q1816.33 1436.24 1813.55 1437.79 L1813.55 1433.07 Q1816.37 1431.94 1818.83 1431.36 Q1821.28 1430.78 1823.32 1430.78 Q1828.69 1430.78 1831.88 1433.46 Q1835.07 1436.15 1835.07 1440.64 Q1835.07 1442.77 1834.26 1444.69 Q1833.48 1446.59 1831.37 1449.18 Q1830.79 1449.85 1827.69 1453.07 Q1824.59 1456.26 1818.94 1462.03 Z" fill="#000000" fill-rule="nonzero" fill-opacity="1" /><path clip-path="url(#clip160)" d="M993.165 1509.98 L999.022 1509.98 L999.022 1545.63 L993.165 1545.63 L993.165 1509.98 M993.165 1496.1 L999.022 1496.1 L999.022 1503.52 L993.165 1503.52 L993.165 1496.1 Z" fill="#000000" fill-rule="nonzero" fill-opacity="1" /><path clip-path="url(#clip160)" d="M1040.91 1524.11 L1040.91 1545.63 L1035.05 1545.63 L1035.05 1524.3 Q1035.05 1519.24 1033.08 1516.73 Q1031.1 1514.21 1027.16 1514.21 Q1022.42 1514.21 1019.68 1517.24 Q1016.94 1520.26 1016.94 1525.48 L1016.94 1545.63 L1011.05 1545.63 L1011.05 1509.98 L1016.94 1509.98 L1016.94 1515.52 Q1019.04 1512.3 1021.87 1510.71 Q1024.74 1509.12 1028.46 1509.12 Q1034.61 1509.12 1037.76 1512.94 Q1040.91 1516.73 1040.91 1524.11 Z" fill="#000000" fill-rule="nonzero" fill-opacity="1" /><path clip-path="url(#clip160)" d="M1078.24 1511.35 L1078.24 1516.82 Q1075.76 1515.45 1073.25 1514.79 Q1070.76 1514.09 1068.22 1514.09 Q1062.52 1514.09 1059.37 1517.71 Q1056.22 1521.31 1056.22 1527.84 Q1056.22 1534.36 1059.37 1537.99 Q1062.52 1541.59 1068.22 1541.59 Q1070.76 1541.59 1073.25 1540.92 Q1075.76 1540.22 1078.24 1538.85 L1078.24 1544.26 Q1075.79 1545.41 1073.15 1545.98 Q1070.54 1546.55 1067.58 1546.55 Q1059.53 1546.55 1054.79 1541.49 Q1050.04 1536.43 1050.04 1527.84 Q1050.04 1519.11 1054.82 1514.12 Q1059.62 1509.12 1067.96 1509.12 Q1070.67 1509.12 1073.25 1509.69 Q1075.82 1510.23 1078.24 1511.35 Z" fill="#000000" fill-rule="nonzero" fill-opacity="1" /><path clip-path="url(#clip160)" d="M1102.24 1514.09 Q1097.53 1514.09 1094.79 1517.78 Q1092.06 1521.44 1092.06 1527.84 Q1092.06 1534.23 1094.76 1537.93 Q1097.5 1541.59 1102.24 1541.59 Q1106.92 1541.59 1109.66 1537.89 Q1112.39 1534.2 1112.39 1527.84 Q1112.39 1521.5 1109.66 1517.81 Q1106.92 1514.09 1102.24 1514.09 M1102.24 1509.12 Q1109.88 1509.12 1114.24 1514.09 Q1118.6 1519.05 1118.6 1527.84 Q1118.6 1536.59 1114.24 1541.59 Q1109.88 1546.55 1102.24 1546.55 Q1094.57 1546.55 1090.21 1541.59 Q1085.88 1536.59 1085.88 1527.84 Q1085.88 1519.05 1090.21 1514.09 Q1094.57 1509.12 1102.24 1509.12 Z" fill="#000000" fill-rule="nonzero" fill-opacity="1" /><path clip-path="url(#clip160)" d="M1156.06 1516.82 Q1158.26 1512.88 1161.32 1511 Q1164.37 1509.12 1168.51 1509.12 Q1174.08 1509.12 1177.1 1513.04 Q1180.13 1516.92 1180.13 1524.11 L1180.13 1545.63 L1174.24 1545.63 L1174.24 1524.3 Q1174.24 1519.18 1172.42 1516.7 Q1170.61 1514.21 1166.89 1514.21 Q1162.33 1514.21 1159.69 1517.24 Q1157.05 1520.26 1157.05 1525.48 L1157.05 1545.63 L1151.16 1545.63 L1151.16 1524.3 Q1151.16 1519.15 1149.35 1516.7 Q1147.53 1514.21 1143.75 1514.21 Q1139.26 1514.21 1136.62 1517.27 Q1133.97 1520.29 1133.97 1525.48 L1133.97 1545.63 L1128.09 1545.63 L1128.09 1509.98 L1133.97 1509.98 L1133.97 1515.52 Q1135.98 1512.24 1138.78 1510.68 Q1141.58 1509.12 1145.43 1509.12 Q1149.32 1509.12 1152.02 1511.09 Q1154.76 1513.07 1156.06 1516.82 Z" fill="#000000" fill-rule="nonzero" fill-opacity="1" /><path clip-path="url(#clip160)" d="M1222.3 1526.34 L1222.3 1529.2 L1195.37 1529.2 Q1195.75 1535.25 1199 1538.43 Q1202.28 1541.59 1208.1 1541.59 Q1211.48 1541.59 1214.63 1540.76 Q1217.81 1539.93 1220.93 1538.28 L1220.93 1543.81 Q1217.78 1545.15 1214.47 1545.85 Q1211.16 1546.55 1207.75 1546.55 Q1199.22 1546.55 1194.23 1541.59 Q1189.26 1536.62 1189.26 1528.15 Q1189.26 1519.4 1193.97 1514.28 Q1198.71 1509.12 1206.73 1509.12 Q1213.93 1509.12 1218.1 1513.77 Q1222.3 1518.38 1222.3 1526.34 M1216.44 1524.62 Q1216.38 1519.81 1213.74 1516.95 Q1211.13 1514.09 1206.8 1514.09 Q1201.9 1514.09 1198.94 1516.85 Q1196.01 1519.62 1195.56 1524.65 L1216.44 1524.62 Z" fill="#000000" fill-rule="nonzero" fill-opacity="1" /><polyline clip-path="url(#clip162)" style="stroke:#000000; stroke-linecap:round; stroke-linejoin:round; stroke-width:2; stroke-opacity:0.1; fill:none" points="262.708,1276.87 1952.76,1276.87 "/>
<polyline clip-path="url(#clip162)" style="stroke:#000000; stroke-linecap:round; stroke-linejoin:round; stroke-width:2; stroke-opacity:0.1; fill:none" points="262.708,1040.84 1952.76,1040.84 "/>
<polyline clip-path="url(#clip162)" style="stroke:#000000; stroke-linecap:round; stroke-linejoin:round; stroke-width:2; stroke-opacity:0.1; fill:none" points="262.708,804.813 1952.76,804.813 "/>
<polyline clip-path="url(#clip162)" style="stroke:#000000; stroke-linecap:round; stroke-linejoin:round; stroke-width:2; stroke-opacity:0.1; fill:none" points="262.708,568.782 1952.76,568.782 "/>
<polyline clip-path="url(#clip162)" style="stroke:#000000; stroke-linecap:round; stroke-linejoin:round; stroke-width:2; stroke-opacity:0.1; fill:none" points="262.708,332.752 1952.76,332.752 "/>
<polyline clip-path="url(#clip162)" style="stroke:#000000; stroke-linecap:round; stroke-linejoin:round; stroke-width:2; stroke-opacity:0.1; fill:none" points="262.708,96.7219 1952.76,96.7219 "/>
<polyline clip-path="url(#clip160)" style="stroke:#000000; stroke-linecap:round; stroke-linejoin:round; stroke-width:4; stroke-opacity:1; fill:none" points="262.708,1406.76 262.708,47.2441 "/>
<polyline clip-path="url(#clip160)" style="stroke:#000000; stroke-linecap:round; stroke-linejoin:round; stroke-width:4; stroke-opacity:1; fill:none" points="262.708,1276.87 281.606,1276.87 "/>
<polyline clip-path="url(#clip160)" style="stroke:#000000; stroke-linecap:round; stroke-linejoin:round; stroke-width:4; stroke-opacity:1; fill:none" points="262.708,1040.84 281.606,1040.84 "/>
<polyline clip-path="url(#clip160)" style="stroke:#000000; stroke-linecap:round; stroke-linejoin:round; stroke-width:4; stroke-opacity:1; fill:none" points="262.708,804.813 281.606,804.813 "/>
<polyline clip-path="url(#clip160)" style="stroke:#000000; stroke-linecap:round; stroke-linejoin:round; stroke-width:4; stroke-opacity:1; fill:none" points="262.708,568.782 281.606,568.782 "/>
<polyline clip-path="url(#clip160)" style="stroke:#000000; stroke-linecap:round; stroke-linejoin:round; stroke-width:4; stroke-opacity:1; fill:none" points="262.708,332.752 281.606,332.752 "/>
<polyline clip-path="url(#clip160)" style="stroke:#000000; stroke-linecap:round; stroke-linejoin:round; stroke-width:4; stroke-opacity:1; fill:none" points="262.708,96.7219 281.606,96.7219 "/>
<path clip-path="url(#clip160)" d="M126.76 1277.32 L156.435 1277.32 L156.435 1281.26 L126.76 1281.26 L126.76 1277.32 Z" fill="#000000" fill-rule="nonzero" fill-opacity="1" /><path clip-path="url(#clip160)" d="M167.338 1290.22 L174.977 1290.22 L174.977 1263.85 L166.667 1265.52 L166.667 1261.26 L174.931 1259.59 L179.606 1259.59 L179.606 1290.22 L187.245 1290.22 L187.245 1294.15 L167.338 1294.15 L167.338 1290.22 Z" fill="#000000" fill-rule="nonzero" fill-opacity="1" /><path clip-path="url(#clip160)" d="M196.69 1288.27 L201.574 1288.27 L201.574 1294.15 L196.69 1294.15 L196.69 1288.27 Z" fill="#000000" fill-rule="nonzero" fill-opacity="1" /><path clip-path="url(#clip160)" d="M211.805 1259.59 L230.162 1259.59 L230.162 1263.53 L216.088 1263.53 L216.088 1272 Q217.106 1271.65 218.125 1271.49 Q219.143 1271.31 220.162 1271.31 Q225.949 1271.31 229.328 1274.48 Q232.708 1277.65 232.708 1283.07 Q232.708 1288.64 229.236 1291.75 Q225.764 1294.82 219.444 1294.82 Q217.268 1294.82 215 1294.45 Q212.754 1294.08 210.347 1293.34 L210.347 1288.64 Q212.43 1289.78 214.653 1290.33 Q216.875 1290.89 219.352 1290.89 Q223.356 1290.89 225.694 1288.78 Q228.032 1286.68 228.032 1283.07 Q228.032 1279.45 225.694 1277.35 Q223.356 1275.24 219.352 1275.24 Q217.477 1275.24 215.602 1275.66 Q213.75 1276.07 211.805 1276.95 L211.805 1259.59 Z" fill="#000000" fill-rule="nonzero" fill-opacity="1" /><path clip-path="url(#clip160)" d="M125.764 1041.29 L155.44 1041.29 L155.44 1045.23 L125.764 1045.23 L125.764 1041.29 Z" fill="#000000" fill-rule="nonzero" fill-opacity="1" /><path clip-path="url(#clip160)" d="M166.343 1054.19 L173.981 1054.19 L173.981 1027.82 L165.671 1029.49 L165.671 1025.23 L173.935 1023.56 L178.611 1023.56 L178.611 1054.19 L186.25 1054.19 L186.25 1058.12 L166.343 1058.12 L166.343 1054.19 Z" fill="#000000" fill-rule="nonzero" fill-opacity="1" /><path clip-path="url(#clip160)" d="M195.694 1052.24 L200.579 1052.24 L200.579 1058.12 L195.694 1058.12 L195.694 1052.24 Z" fill="#000000" fill-rule="nonzero" fill-opacity="1" /><path clip-path="url(#clip160)" d="M220.764 1026.64 Q217.153 1026.64 215.324 1030.21 Q213.518 1033.75 213.518 1040.88 Q213.518 1047.98 215.324 1051.55 Q217.153 1055.09 220.764 1055.09 Q224.398 1055.09 226.203 1051.55 Q228.032 1047.98 228.032 1040.88 Q228.032 1033.75 226.203 1030.21 Q224.398 1026.64 220.764 1026.64 M220.764 1022.94 Q226.574 1022.94 229.629 1027.54 Q232.708 1032.13 232.708 1040.88 Q232.708 1049.6 229.629 1054.21 Q226.574 1058.79 220.764 1058.79 Q214.953 1058.79 211.875 1054.21 Q208.819 1049.6 208.819 1040.88 Q208.819 1032.13 211.875 1027.54 Q214.953 1022.94 220.764 1022.94 Z" fill="#000000" fill-rule="nonzero" fill-opacity="1" /><path clip-path="url(#clip160)" d="M126.76 805.264 L156.435 805.264 L156.435 809.199 L126.76 809.199 L126.76 805.264 Z" fill="#000000" fill-rule="nonzero" fill-opacity="1" /><path clip-path="url(#clip160)" d="M176.528 790.611 Q172.917 790.611 171.088 794.176 Q169.282 797.718 169.282 804.847 Q169.282 811.954 171.088 815.519 Q172.917 819.06 176.528 819.06 Q180.162 819.06 181.968 815.519 Q183.796 811.954 183.796 804.847 Q183.796 797.718 181.968 794.176 Q180.162 790.611 176.528 790.611 M176.528 786.908 Q182.338 786.908 185.393 791.514 Q188.472 796.097 188.472 804.847 Q188.472 813.574 185.393 818.181 Q182.338 822.764 176.528 822.764 Q170.718 822.764 167.639 818.181 Q164.583 813.574 164.583 804.847 Q164.583 796.097 167.639 791.514 Q170.718 786.908 176.528 786.908 Z" fill="#000000" fill-rule="nonzero" fill-opacity="1" /><path clip-path="url(#clip160)" d="M196.69 816.213 L201.574 816.213 L201.574 822.093 L196.69 822.093 L196.69 816.213 Z" fill="#000000" fill-rule="nonzero" fill-opacity="1" /><path clip-path="url(#clip160)" d="M211.805 787.533 L230.162 787.533 L230.162 791.468 L216.088 791.468 L216.088 799.94 Q217.106 799.593 218.125 799.431 Q219.143 799.246 220.162 799.246 Q225.949 799.246 229.328 802.417 Q232.708 805.588 232.708 811.005 Q232.708 816.583 229.236 819.685 Q225.764 822.764 219.444 822.764 Q217.268 822.764 215 822.394 Q212.754 822.023 210.347 821.282 L210.347 816.583 Q212.43 817.718 214.653 818.273 Q216.875 818.829 219.352 818.829 Q223.356 818.829 225.694 816.722 Q228.032 814.616 228.032 811.005 Q228.032 807.394 225.694 805.287 Q223.356 803.181 219.352 803.181 Q217.477 803.181 215.602 803.597 Q213.75 804.014 211.805 804.894 L211.805 787.533 Z" fill="#000000" fill-rule="nonzero" fill-opacity="1" /><path clip-path="url(#clip160)" d="M175.532 554.581 Q171.921 554.581 170.093 558.146 Q168.287 561.688 168.287 568.817 Q168.287 575.924 170.093 579.488 Q171.921 583.03 175.532 583.03 Q179.167 583.03 180.972 579.488 Q182.801 575.924 182.801 568.817 Q182.801 561.688 180.972 558.146 Q179.167 554.581 175.532 554.581 M175.532 550.877 Q181.343 550.877 184.398 555.484 Q187.477 560.067 187.477 568.817 Q187.477 577.544 184.398 582.15 Q181.343 586.734 175.532 586.734 Q169.722 586.734 166.644 582.15 Q163.588 577.544 163.588 568.817 Q163.588 560.067 166.644 555.484 Q169.722 550.877 175.532 550.877 Z" fill="#000000" fill-rule="nonzero" fill-opacity="1" /><path clip-path="url(#clip160)" d="M195.694 580.183 L200.579 580.183 L200.579 586.062 L195.694 586.062 L195.694 580.183 Z" fill="#000000" fill-rule="nonzero" fill-opacity="1" /><path clip-path="url(#clip160)" d="M220.764 554.581 Q217.153 554.581 215.324 558.146 Q213.518 561.688 213.518 568.817 Q213.518 575.924 215.324 579.488 Q217.153 583.03 220.764 583.03 Q224.398 583.03 226.203 579.488 Q228.032 575.924 228.032 568.817 Q228.032 561.688 226.203 558.146 Q224.398 554.581 220.764 554.581 M220.764 550.877 Q226.574 550.877 229.629 555.484 Q232.708 560.067 232.708 568.817 Q232.708 577.544 229.629 582.15 Q226.574 586.734 220.764 586.734 Q214.953 586.734 211.875 582.15 Q208.819 577.544 208.819 568.817 Q208.819 560.067 211.875 555.484 Q214.953 550.877 220.764 550.877 Z" fill="#000000" fill-rule="nonzero" fill-opacity="1" /><path clip-path="url(#clip160)" d="M176.528 318.551 Q172.917 318.551 171.088 322.116 Q169.282 325.657 169.282 332.787 Q169.282 339.893 171.088 343.458 Q172.917 347 176.528 347 Q180.162 347 181.968 343.458 Q183.796 339.893 183.796 332.787 Q183.796 325.657 181.968 322.116 Q180.162 318.551 176.528 318.551 M176.528 314.847 Q182.338 314.847 185.393 319.454 Q188.472 324.037 188.472 332.787 Q188.472 341.514 185.393 346.12 Q182.338 350.703 176.528 350.703 Q170.718 350.703 167.639 346.12 Q164.583 341.514 164.583 332.787 Q164.583 324.037 167.639 319.454 Q170.718 314.847 176.528 314.847 Z" fill="#000000" fill-rule="nonzero" fill-opacity="1" /><path clip-path="url(#clip160)" d="M196.69 344.153 L201.574 344.153 L201.574 350.032 L196.69 350.032 L196.69 344.153 Z" fill="#000000" fill-rule="nonzero" fill-opacity="1" /><path clip-path="url(#clip160)" d="M211.805 315.472 L230.162 315.472 L230.162 319.407 L216.088 319.407 L216.088 327.879 Q217.106 327.532 218.125 327.37 Q219.143 327.185 220.162 327.185 Q225.949 327.185 229.328 330.356 Q232.708 333.528 232.708 338.944 Q232.708 344.523 229.236 347.625 Q225.764 350.703 219.444 350.703 Q217.268 350.703 215 350.333 Q212.754 349.963 210.347 349.222 L210.347 344.523 Q212.43 345.657 214.653 346.213 Q216.875 346.768 219.352 346.768 Q223.356 346.768 225.694 344.662 Q228.032 342.555 228.032 338.944 Q228.032 335.333 225.694 333.227 Q223.356 331.12 219.352 331.12 Q217.477 331.12 215.602 331.537 Q213.75 331.954 211.805 332.833 L211.805 315.472 Z" fill="#000000" fill-rule="nonzero" fill-opacity="1" /><path clip-path="url(#clip160)" d="M166.343 110.067 L173.981 110.067 L173.981 83.7011 L165.671 85.3678 L165.671 81.1086 L173.935 79.4419 L178.611 79.4419 L178.611 110.067 L186.25 110.067 L186.25 114.002 L166.343 114.002 L166.343 110.067 Z" fill="#000000" fill-rule="nonzero" fill-opacity="1" /><path clip-path="url(#clip160)" d="M195.694 108.122 L200.579 108.122 L200.579 114.002 L195.694 114.002 L195.694 108.122 Z" fill="#000000" fill-rule="nonzero" fill-opacity="1" /><path clip-path="url(#clip160)" d="M220.764 82.5206 Q217.153 82.5206 215.324 86.0854 Q213.518 89.627 213.518 96.7566 Q213.518 103.863 215.324 107.428 Q217.153 110.97 220.764 110.97 Q224.398 110.97 226.203 107.428 Q228.032 103.863 228.032 96.7566 Q228.032 89.627 226.203 86.0854 Q224.398 82.5206 220.764 82.5206 M220.764 78.8169 Q226.574 78.8169 229.629 83.4234 Q232.708 88.0067 232.708 96.7566 Q232.708 105.483 229.629 110.09 Q226.574 114.673 220.764 114.673 Q214.953 114.673 211.875 110.09 Q208.819 105.483 208.819 96.7566 Q208.819 88.0067 211.875 83.4234 Q214.953 78.8169 220.764 78.8169 Z" fill="#000000" fill-rule="nonzero" fill-opacity="1" /><path clip-path="url(#clip160)" d="M63.5887 765.596 Q63.5887 772.694 65.2119 775.431 Q66.8352 778.168 70.7501 778.168 Q73.8693 778.168 75.7154 776.131 Q77.5296 774.062 77.5296 770.529 Q77.5296 765.66 74.0921 762.731 Q70.6228 759.771 64.8937 759.771 L63.5887 759.771 L63.5887 765.596 M61.1697 753.915 L81.5082 753.915 L81.5082 759.771 L76.0973 759.771 Q79.3438 761.777 80.9034 764.769 Q82.4312 767.76 82.4312 772.089 Q82.4312 777.564 79.3756 780.81 Q76.2883 784.025 71.1321 784.025 Q65.1165 784.025 62.0609 780.014 Q59.0054 775.972 59.0054 767.983 L59.0054 759.771 L58.4325 759.771 Q54.3902 759.771 52.1941 762.445 Q49.9661 765.087 49.9661 769.893 Q49.9661 772.948 50.6981 775.845 Q51.4302 778.741 52.8943 781.415 L47.4835 781.415 Q46.2421 778.2 45.6374 775.176 Q45.0008 772.153 45.0008 769.288 Q45.0008 761.554 49.0112 757.734 Q53.0216 753.915 61.1697 753.915 Z" fill="#000000" fill-rule="nonzero" fill-opacity="1" /><path clip-path="url(#clip160)" d="M63.2704 718.394 Q56.9047 718.394 53.4036 721.036 Q49.9024 723.646 49.9024 728.389 Q49.9024 733.099 53.4036 735.741 Q56.9047 738.351 63.2704 738.351 Q69.6043 738.351 73.1054 735.741 Q76.6066 733.099 76.6066 728.389 Q76.6066 723.646 73.1054 721.036 Q69.6043 718.394 63.2704 718.394 M77.084 712.538 Q86.187 712.538 90.6111 716.58 Q95.0671 720.622 95.0671 728.961 Q95.0671 732.049 94.5897 734.786 Q94.1441 737.523 93.1892 740.101 L87.4919 740.101 Q88.8924 737.523 89.5608 735.009 Q90.2292 732.494 90.2292 729.884 Q90.2292 724.123 87.2055 721.259 Q84.2136 718.394 78.1343 718.394 L75.2379 718.394 Q78.389 720.209 79.9486 723.041 Q81.5082 725.874 81.5082 729.821 Q81.5082 736.377 76.5111 740.388 Q71.514 744.398 63.2704 744.398 Q54.995 744.398 49.9979 740.388 Q45.0008 736.377 45.0008 729.821 Q45.0008 725.874 46.5604 723.041 Q48.12 720.209 51.2711 718.394 L45.8602 718.394 L45.8602 712.538 L77.084 712.538 Z" fill="#000000" fill-rule="nonzero" fill-opacity="1" /><path clip-path="url(#clip160)" d="M62.2201 669.983 L65.0846 669.983 L65.0846 696.91 Q71.1321 696.528 74.3149 693.282 Q77.4659 690.003 77.4659 684.179 Q77.4659 680.805 76.6384 677.654 Q75.8109 674.471 74.1558 671.352 L79.6939 671.352 Q81.0307 674.503 81.731 677.813 Q82.4312 681.123 82.4312 684.529 Q82.4312 693.059 77.4659 698.056 Q72.5007 703.021 64.0343 703.021 Q55.2814 703.021 50.1571 698.311 Q45.0008 693.568 45.0008 685.547 Q45.0008 678.354 49.6478 674.185 Q54.2629 669.983 62.2201 669.983 M60.5013 675.84 Q55.6952 675.903 52.8306 678.545 Q49.9661 681.155 49.9661 685.484 Q49.9661 690.385 52.7352 693.345 Q55.5042 696.274 60.5332 696.719 L60.5013 675.84 Z" fill="#000000" fill-rule="nonzero" fill-opacity="1" /><circle clip-path="url(#clip162)" cx="1904.92" cy="490.742" r="36" fill="#00a1ff" fill-rule="evenodd" fill-opacity="1" stroke="#000000" stroke-opacity="1" stroke-width="3.2"/>
<circle clip-path="url(#clip162)" cx="1533.72" cy="344.801" r="36" fill="#e69f00" fill-rule="evenodd" fill-opacity="1" stroke="#000000" stroke-opacity="1" stroke-width="3.2"/>
<polyline clip-path="url(#clip162)" style="stroke:#000000; stroke-linecap:round; stroke-linejoin:round; stroke-width:8; stroke-opacity:1; fill:none" points="1904.92,490.742 1533.72,344.801 "/>
<polyline clip-path="url(#clip162)" style="stroke:#000000; stroke-linecap:round; stroke-linejoin:round; stroke-width:8; stroke-opacity:1; fill:none" points="1556.15,369.738 1533.72,344.801 1567.13,341.818 "/>
<polyline clip-path="url(#clip162)" style="stroke:#000000; stroke-linecap:round; stroke-linejoin:round; stroke-width:8; stroke-opacity:1; fill:none" points="1533.72,344.801 1904.92,490.742 "/>
<circle clip-path="url(#clip162)" cx="310.54" cy="1132.02" r="36" fill="#00a1ff" fill-rule="evenodd" fill-opacity="1" stroke="#000000" stroke-opacity="1" stroke-width="3.2"/>
<circle clip-path="url(#clip162)" cx="1549.27" cy="350.28" r="36" fill="#e69f00" fill-rule="evenodd" fill-opacity="1" stroke="#000000" stroke-opacity="1" stroke-width="3.2"/>
<polyline clip-path="url(#clip162)" style="stroke:#000000; stroke-linecap:round; stroke-linejoin:round; stroke-width:8; stroke-opacity:1; fill:none" points="310.54,1132.02 1549.27,350.28 "/>
<polyline clip-path="url(#clip162)" style="stroke:#000000; stroke-linecap:round; stroke-linejoin:round; stroke-width:8; stroke-opacity:1; fill:none" points="1515.89,353.605 1549.27,350.28 1531.9,378.976 "/>
<polyline clip-path="url(#clip162)" style="stroke:#000000; stroke-linecap:round; stroke-linejoin:round; stroke-width:8; stroke-opacity:1; fill:none" points="1549.27,350.28 310.54,1132.02 "/>
<circle clip-path="url(#clip162)" cx="870.432" cy="1165.78" r="36" fill="#00a1ff" fill-rule="evenodd" fill-opacity="1" stroke="#000000" stroke-opacity="1" stroke-width="3.2"/>
<circle clip-path="url(#clip162)" cx="1029.4" cy="609.414" r="36" fill="#e69f00" fill-rule="evenodd" fill-opacity="1" stroke="#000000" stroke-opacity="1" stroke-width="3.2"/>
<polyline clip-path="url(#clip162)" style="stroke:#000000; stroke-linecap:round; stroke-linejoin:round; stroke-width:8; stroke-opacity:1; fill:none" points="870.432,1165.78 1029.4,609.414 "/>
<polyline clip-path="url(#clip162)" style="stroke:#000000; stroke-linecap:round; stroke-linejoin:round; stroke-width:8; stroke-opacity:1; fill:none" points="1006.74,634.139 1029.4,609.414 1035.58,642.381 "/>
<polyline clip-path="url(#clip162)" style="stroke:#000000; stroke-linecap:round; stroke-linejoin:round; stroke-width:8; stroke-opacity:1; fill:none" points="1029.4,609.414 870.432,1165.78 "/>
<circle clip-path="url(#clip162)" cx="330.464" cy="1368.29" r="36" fill="#00a1ff" fill-rule="evenodd" fill-opacity="1" stroke="#000000" stroke-opacity="1" stroke-width="3.2"/>
<circle clip-path="url(#clip162)" cx="1455.41" cy="372.613" r="36" fill="#e69f00" fill-rule="evenodd" fill-opacity="1" stroke="#000000" stroke-opacity="1" stroke-width="3.2"/>
<polyline clip-path="url(#clip162)" style="stroke:#000000; stroke-linecap:round; stroke-linejoin:round; stroke-width:8; stroke-opacity:1; fill:none" points="330.464,1368.29 1455.41,372.613 "/>
<polyline clip-path="url(#clip162)" style="stroke:#000000; stroke-linecap:round; stroke-linejoin:round; stroke-width:8; stroke-opacity:1; fill:none" points="1423,381.264 1455.41,372.613 1442.89,403.728 "/>
<polyline clip-path="url(#clip162)" style="stroke:#000000; stroke-linecap:round; stroke-linejoin:round; stroke-width:8; stroke-opacity:1; fill:none" points="1455.41,372.613 330.464,1368.29 "/>
<circle clip-path="url(#clip162)" cx="1341.45" cy="963.266" r="36" fill="#00a1ff" fill-rule="evenodd" fill-opacity="1" stroke="#000000" stroke-opacity="1" stroke-width="3.2"/>
<circle clip-path="url(#clip162)" cx="1534.96" cy="393.065" r="36" fill="#e69f00" fill-rule="evenodd" fill-opacity="1" stroke="#000000" stroke-opacity="1" stroke-width="3.2"/>
<polyline clip-path="url(#clip162)" style="stroke:#000000; stroke-linecap:round; stroke-linejoin:round; stroke-width:8; stroke-opacity:1; fill:none" points="1341.45,963.266 1534.96,393.065 "/>
<polyline clip-path="url(#clip162)" style="stroke:#000000; stroke-linecap:round; stroke-linejoin:round; stroke-width:8; stroke-opacity:1; fill:none" points="1511.12,416.653 1534.96,393.065 1539.53,426.295 "/>
<polyline clip-path="url(#clip162)" style="stroke:#000000; stroke-linecap:round; stroke-linejoin:round; stroke-width:8; stroke-opacity:1; fill:none" points="1534.96,393.065 1341.45,963.266 "/>
<circle clip-path="url(#clip162)" cx="1167.06" cy="423.238" r="36" fill="#00a1ff" fill-rule="evenodd" fill-opacity="1" stroke="#000000" stroke-opacity="1" stroke-width="3.2"/>
<circle clip-path="url(#clip162)" cx="1599.56" cy="372.077" r="36" fill="#e69f00" fill-rule="evenodd" fill-opacity="1" stroke="#000000" stroke-opacity="1" stroke-width="3.2"/>
<polyline clip-path="url(#clip162)" style="stroke:#000000; stroke-linecap:round; stroke-linejoin:round; stroke-width:8; stroke-opacity:1; fill:none" points="1167.06,423.238 1599.56,372.077 "/>
<polyline clip-path="url(#clip162)" style="stroke:#000000; stroke-linecap:round; stroke-linejoin:round; stroke-width:8; stroke-opacity:1; fill:none" points="1568,360.705 1599.56,372.077 1571.53,390.498 "/>
<polyline clip-path="url(#clip162)" style="stroke:#000000; stroke-linecap:round; stroke-linejoin:round; stroke-width:8; stroke-opacity:1; fill:none" points="1599.56,372.077 1167.06,423.238 "/>
<circle clip-path="url(#clip162)" cx="1830.38" cy="1199.53" r="36" fill="#00a1ff" fill-rule="evenodd" fill-opacity="1" stroke="#000000" stroke-opacity="1" stroke-width="3.2"/>
<circle clip-path="url(#clip162)" cx="1641.55" cy="357.852" r="36" fill="#e69f00" fill-rule="evenodd" fill-opacity="1" stroke="#000000" stroke-opacity="1" stroke-width="3.2"/>
<polyline clip-path="url(#clip162)" style="stroke:#000000; stroke-linecap:round; stroke-linejoin:round; stroke-width:8; stroke-opacity:1; fill:none" points="1830.38,1199.53 1641.55,357.852 "/>
<polyline clip-path="url(#clip162)" style="stroke:#000000; stroke-linecap:round; stroke-linejoin:round; stroke-width:8; stroke-opacity:1; fill:none" points="1633.48,390.408 1641.55,357.852 1662.75,383.841 "/>
<polyline clip-path="url(#clip162)" style="stroke:#000000; stroke-linecap:round; stroke-linejoin:round; stroke-width:8; stroke-opacity:1; fill:none" points="1641.55,357.852 1830.38,1199.53 "/>
<circle clip-path="url(#clip162)" cx="599.105" cy="254.48" r="36" fill="#00a1ff" fill-rule="evenodd" fill-opacity="1" stroke="#000000" stroke-opacity="1" stroke-width="3.2"/>
<circle clip-path="url(#clip162)" cx="544.251" cy="254.48" r="36" fill="#e69f00" fill-rule="evenodd" fill-opacity="1" stroke="#000000" stroke-opacity="1" stroke-width="3.2"/>
<polyline clip-path="url(#clip162)" style="stroke:#000000; stroke-linecap:round; stroke-linejoin:round; stroke-width:8; stroke-opacity:1; fill:none" points="599.105,254.48 544.251,254.48 "/>
<polyline clip-path="url(#clip162)" style="stroke:#000000; stroke-linecap:round; stroke-linejoin:round; stroke-width:8; stroke-opacity:1; fill:none" points="574.251,269.48 544.251,254.48 574.251,239.48 "/>
<polyline clip-path="url(#clip162)" style="stroke:#000000; stroke-linecap:round; stroke-linejoin:round; stroke-width:8; stroke-opacity:1; fill:none" points="544.251,254.48 599.105,254.48 "/>
<circle clip-path="url(#clip162)" cx="1830.38" cy="929.514" r="36" fill="#00a1ff" fill-rule="evenodd" fill-opacity="1" stroke="#000000" stroke-opacity="1" stroke-width="3.2"/>
<circle clip-path="url(#clip162)" cx="1531.48" cy="364.958" r="36" fill="#e69f00" fill-rule="evenodd" fill-opacity="1" stroke="#000000" stroke-opacity="1" stroke-width="3.2"/>
<polyline clip-path="url(#clip162)" style="stroke:#000000; stroke-linecap:round; stroke-linejoin:round; stroke-width:8; stroke-opacity:1; fill:none" points="1830.38,929.514 1531.48,364.958 "/>
<polyline clip-path="url(#clip162)" style="stroke:#000000; stroke-linecap:round; stroke-linejoin:round; stroke-width:8; stroke-opacity:1; fill:none" points="1532.26,398.49 1531.48,364.958 1558.78,384.453 "/>
<polyline clip-path="url(#clip162)" style="stroke:#000000; stroke-linecap:round; stroke-linejoin:round; stroke-width:8; stroke-opacity:1; fill:none" points="1531.48,364.958 1830.38,929.514 "/>
<circle clip-path="url(#clip162)" cx="1405.03" cy="85.7211" r="36" fill="#00a1ff" fill-rule="evenodd" fill-opacity="1" stroke="#000000" stroke-opacity="1" stroke-width="3.2"/>
<circle clip-path="url(#clip162)" cx="1554.61" cy="85.7211" r="36" fill="#e69f00" fill-rule="evenodd" fill-opacity="1" stroke="#000000" stroke-opacity="1" stroke-width="3.2"/>
<polyline clip-path="url(#clip162)" style="stroke:#000000; stroke-linecap:round; stroke-linejoin:round; stroke-width:8; stroke-opacity:1; fill:none" points="1405.03,85.7211 1554.61,85.7211 "/>
<polyline clip-path="url(#clip162)" style="stroke:#000000; stroke-linecap:round; stroke-linejoin:round; stroke-width:8; stroke-opacity:1; fill:none" points="1524.61,70.7211 1554.61,85.7211 1524.61,100.721 "/>
<polyline clip-path="url(#clip162)" style="stroke:#000000; stroke-linecap:round; stroke-linejoin:round; stroke-width:8; stroke-opacity:1; fill:none" points="1554.61,85.7211 1405.03,85.7211 "/>
<path clip-path="url(#clip160)" d="M1411.72 1361.45 L1896.42 1361.45 L1896.42 1205.93 L1411.72 1205.93  Z" fill="#ffffff" fill-rule="evenodd" fill-opacity="1"/>
<polyline clip-path="url(#clip160)" style="stroke:#000000; stroke-linecap:round; stroke-linejoin:round; stroke-width:4; stroke-opacity:1; fill:none" points="1411.72,1361.45 1896.42,1361.45 1896.42,1205.93 1411.72,1205.93 1411.72,1361.45 "/>
<circle clip-path="url(#clip160)" cx="1486.84" cy="1257.77" r="21.9429" fill="#00a1ff" fill-rule="evenodd" fill-opacity="1" stroke="#000000" stroke-opacity="1" stroke-width="1.95048"/>
<path clip-path="url(#clip160)" d="M1561.95 1239.03 L1566.21 1239.03 L1566.21 1275.05 L1561.95 1275.05 L1561.95 1239.03 Z" fill="#000000" fill-rule="nonzero" fill-opacity="1" /><path clip-path="url(#clip160)" d="M1585.17 1252.11 Q1581.74 1252.11 1579.75 1254.79 Q1577.76 1257.45 1577.76 1262.11 Q1577.76 1266.76 1579.73 1269.44 Q1581.72 1272.11 1585.17 1272.11 Q1588.57 1272.11 1590.56 1269.42 Q1592.55 1266.74 1592.55 1262.11 Q1592.55 1257.5 1590.56 1254.82 Q1588.57 1252.11 1585.17 1252.11 M1585.17 1248.5 Q1590.72 1248.5 1593.89 1252.11 Q1597.07 1255.72 1597.07 1262.11 Q1597.07 1268.47 1593.89 1272.11 Q1590.72 1275.72 1585.17 1275.72 Q1579.59 1275.72 1576.42 1272.11 Q1573.27 1268.47 1573.27 1262.11 Q1573.27 1255.72 1576.42 1252.11 Q1579.59 1248.5 1585.17 1248.5 Z" fill="#000000" fill-rule="nonzero" fill-opacity="1" /><path clip-path="url(#clip160)" d="M1615.91 1262.01 Q1610.75 1262.01 1608.76 1263.19 Q1606.76 1264.38 1606.76 1267.22 Q1606.76 1269.49 1608.25 1270.83 Q1609.75 1272.15 1612.32 1272.15 Q1615.86 1272.15 1617.99 1269.65 Q1620.14 1267.13 1620.14 1262.96 L1620.14 1262.01 L1615.91 1262.01 M1624.4 1260.25 L1624.4 1275.05 L1620.14 1275.05 L1620.14 1271.11 Q1618.69 1273.47 1616.51 1274.61 Q1614.33 1275.72 1611.19 1275.72 Q1607.2 1275.72 1604.84 1273.5 Q1602.51 1271.25 1602.51 1267.5 Q1602.51 1263.13 1605.42 1260.9 Q1608.36 1258.68 1614.17 1258.68 L1620.14 1258.68 L1620.14 1258.26 Q1620.14 1255.32 1618.2 1253.73 Q1616.28 1252.11 1612.78 1252.11 Q1610.56 1252.11 1608.45 1252.64 Q1606.35 1253.17 1604.4 1254.24 L1604.4 1250.3 Q1606.74 1249.4 1608.94 1248.96 Q1611.14 1248.5 1613.22 1248.5 Q1618.85 1248.5 1621.63 1251.41 Q1624.4 1254.33 1624.4 1260.25 Z" fill="#000000" fill-rule="nonzero" fill-opacity="1" /><path clip-path="url(#clip160)" d="M1654.73 1259.4 L1654.73 1275.05 L1650.47 1275.05 L1650.47 1259.54 Q1650.47 1255.86 1649.03 1254.03 Q1647.6 1252.2 1644.73 1252.2 Q1641.28 1252.2 1639.29 1254.4 Q1637.3 1256.6 1637.3 1260.39 L1637.3 1275.05 L1633.01 1275.05 L1633.01 1249.12 L1637.3 1249.12 L1637.3 1253.15 Q1638.82 1250.81 1640.88 1249.65 Q1642.97 1248.5 1645.68 1248.5 Q1650.14 1248.5 1652.44 1251.27 Q1654.73 1254.03 1654.73 1259.4 Z" fill="#000000" fill-rule="nonzero" fill-opacity="1" /><path clip-path="url(#clip160)" d="M1695.35 1253.06 L1695.35 1239.03 L1699.61 1239.03 L1699.61 1275.05 L1695.35 1275.05 L1695.35 1271.16 Q1694.01 1273.47 1691.95 1274.61 Q1689.91 1275.72 1687.04 1275.72 Q1682.34 1275.72 1679.38 1271.97 Q1676.44 1268.22 1676.44 1262.11 Q1676.44 1256 1679.38 1252.25 Q1682.34 1248.5 1687.04 1248.5 Q1689.91 1248.5 1691.95 1249.63 Q1694.01 1250.74 1695.35 1253.06 M1680.84 1262.11 Q1680.84 1266.81 1682.76 1269.49 Q1684.7 1272.15 1688.08 1272.15 Q1691.46 1272.15 1693.41 1269.49 Q1695.35 1266.81 1695.35 1262.11 Q1695.35 1257.41 1693.41 1254.75 Q1691.46 1252.06 1688.08 1252.06 Q1684.7 1252.06 1682.76 1254.75 Q1680.84 1257.41 1680.84 1262.11 Z" fill="#000000" fill-rule="nonzero" fill-opacity="1" /><path clip-path="url(#clip160)" d="M1730.56 1261.02 L1730.56 1263.1 L1710.98 1263.1 Q1711.25 1267.5 1713.62 1269.82 Q1716 1272.11 1720.24 1272.11 Q1722.69 1272.11 1724.98 1271.5 Q1727.3 1270.9 1729.56 1269.7 L1729.56 1273.73 Q1727.27 1274.7 1724.87 1275.21 Q1722.46 1275.72 1719.98 1275.72 Q1713.78 1275.72 1710.14 1272.11 Q1706.53 1268.5 1706.53 1262.34 Q1706.53 1255.97 1709.96 1252.25 Q1713.41 1248.5 1719.24 1248.5 Q1724.47 1248.5 1727.5 1251.88 Q1730.56 1255.23 1730.56 1261.02 M1726.3 1259.77 Q1726.25 1256.27 1724.33 1254.19 Q1722.44 1252.11 1719.29 1252.11 Q1715.72 1252.11 1713.57 1254.12 Q1711.44 1256.13 1711.12 1259.79 L1726.3 1259.77 Z" fill="#000000" fill-rule="nonzero" fill-opacity="1" /><path clip-path="url(#clip160)" d="M1759.1 1259.4 L1759.1 1275.05 L1754.84 1275.05 L1754.84 1259.54 Q1754.84 1255.86 1753.41 1254.03 Q1751.97 1252.2 1749.1 1252.2 Q1745.65 1252.2 1743.66 1254.4 Q1741.67 1256.6 1741.67 1260.39 L1741.67 1275.05 L1737.39 1275.05 L1737.39 1249.12 L1741.67 1249.12 L1741.67 1253.15 Q1743.2 1250.81 1745.26 1249.65 Q1747.34 1248.5 1750.05 1248.5 Q1754.52 1248.5 1756.81 1251.27 Q1759.1 1254.03 1759.1 1259.4 Z" fill="#000000" fill-rule="nonzero" fill-opacity="1" /><path clip-path="url(#clip160)" d="M1767.6 1249.12 L1771.86 1249.12 L1771.86 1275.05 L1767.6 1275.05 L1767.6 1249.12 M1767.6 1239.03 L1771.86 1239.03 L1771.86 1244.42 L1767.6 1244.42 L1767.6 1239.03 Z" fill="#000000" fill-rule="nonzero" fill-opacity="1" /><path clip-path="url(#clip160)" d="M1802.94 1261.02 L1802.94 1263.1 L1783.36 1263.1 Q1783.64 1267.5 1786 1269.82 Q1788.38 1272.11 1792.62 1272.11 Q1795.07 1272.11 1797.37 1271.5 Q1799.68 1270.9 1801.95 1269.7 L1801.95 1273.73 Q1799.66 1274.7 1797.25 1275.21 Q1794.84 1275.72 1792.37 1275.72 Q1786.16 1275.72 1782.53 1272.11 Q1778.92 1268.5 1778.92 1262.34 Q1778.92 1255.97 1782.34 1252.25 Q1785.79 1248.5 1791.62 1248.5 Q1796.86 1248.5 1799.89 1251.88 Q1802.94 1255.23 1802.94 1261.02 M1798.68 1259.77 Q1798.64 1256.27 1796.72 1254.19 Q1794.82 1252.11 1791.67 1252.11 Q1788.11 1252.11 1785.95 1254.12 Q1783.82 1256.13 1783.5 1259.79 L1798.68 1259.77 Z" fill="#000000" fill-rule="nonzero" fill-opacity="1" /><path clip-path="url(#clip160)" d="M1826.99 1253.06 L1826.99 1239.03 L1831.25 1239.03 L1831.25 1275.05 L1826.99 1275.05 L1826.99 1271.16 Q1825.65 1273.47 1823.59 1274.61 Q1821.56 1275.72 1818.68 1275.72 Q1813.99 1275.72 1811.02 1271.97 Q1808.08 1268.22 1808.08 1262.11 Q1808.08 1256 1811.02 1252.25 Q1813.99 1248.5 1818.68 1248.5 Q1821.56 1248.5 1823.59 1249.63 Q1825.65 1250.74 1826.99 1253.06 M1812.48 1262.11 Q1812.48 1266.81 1814.4 1269.49 Q1816.35 1272.15 1819.73 1272.15 Q1823.11 1272.15 1825.05 1269.49 Q1826.99 1266.81 1826.99 1262.11 Q1826.99 1257.41 1825.05 1254.75 Q1823.11 1252.06 1819.73 1252.06 Q1816.35 1252.06 1814.4 1254.75 Q1812.48 1257.41 1812.48 1262.11 Z" fill="#000000" fill-rule="nonzero" fill-opacity="1" /><circle clip-path="url(#clip160)" cx="1486.84" cy="1309.61" r="21.9429" fill="#e69f00" fill-rule="evenodd" fill-opacity="1" stroke="#000000" stroke-opacity="1" stroke-width="1.95048"/>
<path clip-path="url(#clip160)" d="M1561.95 1290.87 L1566.21 1290.87 L1566.21 1326.89 L1561.95 1326.89 L1561.95 1290.87 Z" fill="#000000" fill-rule="nonzero" fill-opacity="1" /><path clip-path="url(#clip160)" d="M1585.17 1303.95 Q1581.74 1303.95 1579.75 1306.63 Q1577.76 1309.29 1577.76 1313.95 Q1577.76 1318.6 1579.73 1321.28 Q1581.72 1323.95 1585.17 1323.95 Q1588.57 1323.95 1590.56 1321.26 Q1592.55 1318.58 1592.55 1313.95 Q1592.55 1309.34 1590.56 1306.66 Q1588.57 1303.95 1585.17 1303.95 M1585.17 1300.34 Q1590.72 1300.34 1593.89 1303.95 Q1597.07 1307.56 1597.07 1313.95 Q1597.07 1320.31 1593.89 1323.95 Q1590.72 1327.56 1585.17 1327.56 Q1579.59 1327.56 1576.42 1323.95 Q1573.27 1320.31 1573.27 1313.95 Q1573.27 1307.56 1576.42 1303.95 Q1579.59 1300.34 1585.17 1300.34 Z" fill="#000000" fill-rule="nonzero" fill-opacity="1" /><path clip-path="url(#clip160)" d="M1615.91 1313.85 Q1610.75 1313.85 1608.76 1315.03 Q1606.76 1316.22 1606.76 1319.06 Q1606.76 1321.33 1608.25 1322.67 Q1609.75 1323.99 1612.32 1323.99 Q1615.86 1323.99 1617.99 1321.49 Q1620.14 1318.97 1620.14 1314.8 L1620.14 1313.85 L1615.91 1313.85 M1624.4 1312.09 L1624.4 1326.89 L1620.14 1326.89 L1620.14 1322.95 Q1618.69 1325.31 1616.51 1326.45 Q1614.33 1327.56 1611.19 1327.56 Q1607.2 1327.56 1604.84 1325.34 Q1602.51 1323.09 1602.51 1319.34 Q1602.51 1314.97 1605.42 1312.74 Q1608.36 1310.52 1614.17 1310.52 L1620.14 1310.52 L1620.14 1310.1 Q1620.14 1307.16 1618.2 1305.57 Q1616.28 1303.95 1612.78 1303.95 Q1610.56 1303.95 1608.45 1304.48 Q1606.35 1305.01 1604.4 1306.08 L1604.4 1302.14 Q1606.74 1301.24 1608.94 1300.8 Q1611.14 1300.34 1613.22 1300.34 Q1618.85 1300.34 1621.63 1303.25 Q1624.4 1306.17 1624.4 1312.09 Z" fill="#000000" fill-rule="nonzero" fill-opacity="1" /><path clip-path="url(#clip160)" d="M1654.73 1311.24 L1654.73 1326.89 L1650.47 1326.89 L1650.47 1311.38 Q1650.47 1307.7 1649.03 1305.87 Q1647.6 1304.04 1644.73 1304.04 Q1641.28 1304.04 1639.29 1306.24 Q1637.3 1308.44 1637.3 1312.23 L1637.3 1326.89 L1633.01 1326.89 L1633.01 1300.96 L1637.3 1300.96 L1637.3 1304.99 Q1638.82 1302.65 1640.88 1301.49 Q1642.97 1300.34 1645.68 1300.34 Q1650.14 1300.34 1652.44 1303.11 Q1654.73 1305.87 1654.73 1311.24 Z" fill="#000000" fill-rule="nonzero" fill-opacity="1" /><path clip-path="url(#clip160)" d="M1682.41 1323 L1682.41 1336.75 L1678.13 1336.75 L1678.13 1300.96 L1682.41 1300.96 L1682.41 1304.9 Q1683.75 1302.58 1685.79 1301.47 Q1687.85 1300.34 1690.7 1300.34 Q1695.42 1300.34 1698.36 1304.09 Q1701.32 1307.84 1701.32 1313.95 Q1701.32 1320.06 1698.36 1323.81 Q1695.42 1327.56 1690.7 1327.56 Q1687.85 1327.56 1685.79 1326.45 Q1683.75 1325.31 1682.41 1323 M1696.9 1313.95 Q1696.9 1309.25 1694.96 1306.59 Q1693.04 1303.9 1689.66 1303.9 Q1686.28 1303.9 1684.33 1306.59 Q1682.41 1309.25 1682.41 1313.95 Q1682.41 1318.65 1684.33 1321.33 Q1686.28 1323.99 1689.66 1323.99 Q1693.04 1323.99 1694.96 1321.33 Q1696.9 1318.65 1696.9 1313.95 Z" fill="#000000" fill-rule="nonzero" fill-opacity="1" /><path clip-path="url(#clip160)" d="M1723.41 1304.94 Q1722.69 1304.53 1721.83 1304.34 Q1721 1304.13 1719.98 1304.13 Q1716.37 1304.13 1714.43 1306.49 Q1712.5 1308.83 1712.5 1313.23 L1712.5 1326.89 L1708.22 1326.89 L1708.22 1300.96 L1712.5 1300.96 L1712.5 1304.99 Q1713.85 1302.63 1716 1301.49 Q1718.15 1300.34 1721.23 1300.34 Q1721.67 1300.34 1722.2 1300.41 Q1722.74 1300.45 1723.38 1300.57 L1723.41 1304.94 Z" fill="#000000" fill-rule="nonzero" fill-opacity="1" /><path clip-path="url(#clip160)" d="M1736.88 1303.95 Q1733.45 1303.95 1731.46 1306.63 Q1729.47 1309.29 1729.47 1313.95 Q1729.47 1318.6 1731.44 1321.28 Q1733.43 1323.95 1736.88 1323.95 Q1740.28 1323.95 1742.27 1321.26 Q1744.26 1318.58 1744.26 1313.95 Q1744.26 1309.34 1742.27 1306.66 Q1740.28 1303.95 1736.88 1303.95 M1736.88 1300.34 Q1742.44 1300.34 1745.61 1303.95 Q1748.78 1307.56 1748.78 1313.95 Q1748.78 1320.31 1745.61 1323.95 Q1742.44 1327.56 1736.88 1327.56 Q1731.3 1327.56 1728.13 1323.95 Q1724.98 1320.31 1724.98 1313.95 Q1724.98 1307.56 1728.13 1303.95 Q1731.3 1300.34 1736.88 1300.34 Z" fill="#000000" fill-rule="nonzero" fill-opacity="1" /><path clip-path="url(#clip160)" d="M1752.78 1300.96 L1757.3 1300.96 L1765.4 1322.72 L1773.5 1300.96 L1778.01 1300.96 L1768.29 1326.89 L1762.5 1326.89 L1752.78 1300.96 Z" fill="#000000" fill-rule="nonzero" fill-opacity="1" /><path clip-path="url(#clip160)" d="M1783.89 1300.96 L1788.15 1300.96 L1788.15 1326.89 L1783.89 1326.89 L1783.89 1300.96 M1783.89 1290.87 L1788.15 1290.87 L1788.15 1296.26 L1783.89 1296.26 L1783.89 1290.87 Z" fill="#000000" fill-rule="nonzero" fill-opacity="1" /><path clip-path="url(#clip160)" d="M1814.12 1304.9 L1814.12 1290.87 L1818.38 1290.87 L1818.38 1326.89 L1814.12 1326.89 L1814.12 1323 Q1812.78 1325.31 1810.72 1326.45 Q1808.68 1327.56 1805.81 1327.56 Q1801.12 1327.56 1798.15 1323.81 Q1795.21 1320.06 1795.21 1313.95 Q1795.21 1307.84 1798.15 1304.09 Q1801.12 1300.34 1805.81 1300.34 Q1808.68 1300.34 1810.72 1301.47 Q1812.78 1302.58 1814.12 1304.9 M1799.61 1313.95 Q1799.61 1318.65 1801.53 1321.33 Q1803.48 1323.99 1806.86 1323.99 Q1810.24 1323.99 1812.18 1321.33 Q1814.12 1318.65 1814.12 1313.95 Q1814.12 1309.25 1812.18 1306.59 Q1810.24 1303.9 1806.86 1303.9 Q1803.48 1303.9 1801.53 1306.59 Q1799.61 1309.25 1799.61 1313.95 Z" fill="#000000" fill-rule="nonzero" fill-opacity="1" /><path clip-path="url(#clip160)" d="M1849.33 1312.86 L1849.33 1314.94 L1829.75 1314.94 Q1830.03 1319.34 1832.39 1321.66 Q1834.77 1323.95 1839.01 1323.95 Q1841.46 1323.95 1843.75 1323.34 Q1846.07 1322.74 1848.34 1321.54 L1848.34 1325.57 Q1846.05 1326.54 1843.64 1327.05 Q1841.23 1327.56 1838.75 1327.56 Q1832.55 1327.56 1828.92 1323.95 Q1825.3 1320.34 1825.3 1314.18 Q1825.3 1307.81 1828.73 1304.09 Q1832.18 1300.34 1838.01 1300.34 Q1843.24 1300.34 1846.28 1303.72 Q1849.33 1307.07 1849.33 1312.86 M1845.07 1311.61 Q1845.03 1308.11 1843.11 1306.03 Q1841.21 1303.95 1838.06 1303.95 Q1834.49 1303.95 1832.34 1305.96 Q1830.21 1307.97 1829.89 1311.63 L1845.07 1311.61 Z" fill="#000000" fill-rule="nonzero" fill-opacity="1" /><path clip-path="url(#clip160)" d="M1873.38 1304.9 L1873.38 1290.87 L1877.64 1290.87 L1877.64 1326.89 L1873.38 1326.89 L1873.38 1323 Q1872.04 1325.31 1869.98 1326.45 Q1867.94 1327.56 1865.07 1327.56 Q1860.37 1327.56 1857.41 1323.81 Q1854.47 1320.06 1854.47 1313.95 Q1854.47 1307.84 1857.41 1304.09 Q1860.37 1300.34 1865.07 1300.34 Q1867.94 1300.34 1869.98 1301.47 Q1872.04 1302.58 1873.38 1304.9 M1858.87 1313.95 Q1858.87 1318.65 1860.79 1321.33 Q1862.74 1323.99 1866.11 1323.99 Q1869.49 1323.99 1871.44 1321.33 Q1873.38 1318.65 1873.38 1313.95 Q1873.38 1309.25 1871.44 1306.59 Q1869.49 1303.9 1866.11 1303.9 Q1862.74 1303.9 1860.79 1306.59 Q1858.87 1309.25 1858.87 1313.95 Z" fill="#000000" fill-rule="nonzero" fill-opacity="1" /></svg>
