<?xml version="1.0" encoding="utf-8"?>
<svg xmlns="http://www.w3.org/2000/svg" xmlns:xlink="http://www.w3.org/1999/xlink" width="500" height="400" viewBox="0 0 2000 1600">
<defs>
  <clipPath id="clip150">
    <rect x="0" y="0" width="2000" height="1600"/>
  </clipPath>
</defs>
<path clip-path="url(#clip150)" d="M0 1600 L2000 1600 L2000 0 L0 0  Z" fill="#ffffff" fill-rule="evenodd" fill-opacity="1"/>
<defs>
  <clipPath id="clip151">
    <rect x="400" y="0" width="1401" height="1401"/>
  </clipPath>
</defs>
<path clip-path="url(#clip150)" d="M262.708 1406.76 L1952.76 1406.76 L1952.76 47.2441 L262.708 47.2441  Z" fill="#ffffff" fill-rule="evenodd" fill-opacity="1"/>
<defs>
  <clipPath id="clip152">
    <rect x="262" y="47" width="1691" height="1361"/>
  </clipPath>
</defs>
<polyline clip-path="url(#clip152)" style="stroke:#000000; stroke-linecap:round; stroke-linejoin:round; stroke-width:2; stroke-opacity:0.1; fill:none" points="359.454,1406.76 359.454,47.2441 "/>
<polyline clip-path="url(#clip152)" style="stroke:#000000; stroke-linecap:round; stroke-linejoin:round; stroke-width:2; stroke-opacity:0.1; fill:none" points="685.618,1406.76 685.618,47.2441 "/>
<polyline clip-path="url(#clip152)" style="stroke:#000000; stroke-linecap:round; stroke-linejoin:round; stroke-width:2; stroke-opacity:0.1; fill:none" points="1011.78,1406.76 1011.78,47.2441 "/>
<polyline clip-path="url(#clip152)" style="stroke:#000000; stroke-linecap:round; stroke-linejoin:round; stroke-width:2; stroke-opacity:0.1; fill:none" points="1337.95,1406.76 1337.95,47.2441 "/>
<polyline clip-path="url(#clip152)" style="stroke:#000000; stroke-linecap:round; stroke-linejoin:round; stroke-width:2; stroke-opacity:0.1; fill:none" points="1664.11,1406.76 1664.11,47.2441 "/>
<polyline clip-path="url(#clip150)" style="stroke:#000000; stroke-linecap:round; stroke-linejoin:round; stroke-width:4; stroke-opacity:1; fill:none" points="262.708,1406.76 1952.76,1406.76 "/>
<polyline clip-path="url(#clip150)" style="stroke:#000000; stroke-linecap:round; stroke-linejoin:round; stroke-width:4; stroke-opacity:1; fill:none" points="359.454,1406.76 359.454,1387.87 "/>
<polyline clip-path="url(#clip150)" style="stroke:#000000; stroke-linecap:round; stroke-linejoin:round; stroke-width:4; stroke-opacity:1; fill:none" points="685.618,1406.76 685.618,1387.87 "/>
<polyline clip-path="url(#clip150)" style="stroke:#000000; stroke-linecap:round; stroke-linejoin:round; stroke-width:4; stroke-opacity:1; fill:none" points="1011.78,1406.76 1011.78,1387.87 "/>
<polyline clip-path="url(#clip150)" style="stroke:#000000; stroke-linecap:round; stroke-linejoin:round; stroke-width:4; stroke-opacity:1; fill:none" points="1337.95,1406.76 1337.95,1387.87 "/>
<polyline clip-path="url(#clip150)" style="stroke:#000000; stroke-linecap:round; stroke-linejoin:round; stroke-width:4; stroke-opacity:1; fill:none" points="1664.11,1406.76 1664.11,1387.87 "/>
<path clip-path="url(#clip150)" d="M290.901 1449.14 L320.577 1449.14 L320.577 1453.07 L290.901 1453.07 L290.901 1449.14 Z" fill="#000000" fill-rule="evenodd" fill-opacity="1" /><path clip-path="url(#clip150)" d="M340.669 1434.48 Q337.058 1434.48 335.229 1438.05 Q333.424 1441.59 333.424 1448.72 Q333.424 1455.83 335.229 1459.39 Q337.058 1462.93 340.669 1462.93 Q344.303 1462.93 346.109 1459.39 Q347.937 1455.83 347.937 1448.72 Q347.937 1441.59 346.109 1438.05 Q344.303 1434.48 340.669 1434.48 M340.669 1430.78 Q346.479 1430.78 349.535 1435.39 Q352.613 1439.97 352.613 1448.72 Q352.613 1457.45 349.535 1462.05 Q346.479 1466.64 340.669 1466.64 Q334.859 1466.64 331.78 1462.05 Q328.725 1457.45 328.725 1448.72 Q328.725 1439.97 331.78 1435.39 Q334.859 1430.78 340.669 1430.78 Z" fill="#000000" fill-rule="evenodd" fill-opacity="1" /><path clip-path="url(#clip150)" d="M360.831 1460.08 L365.715 1460.08 L365.715 1465.96 L360.831 1465.96 L360.831 1460.08 Z" fill="#000000" fill-rule="evenodd" fill-opacity="1" /><path clip-path="url(#clip150)" d="M375.947 1431.4 L394.303 1431.4 L394.303 1435.34 L380.229 1435.34 L380.229 1443.81 Q381.247 1443.46 382.266 1443.3 Q383.285 1443.12 384.303 1443.12 Q390.09 1443.12 393.47 1446.29 Q396.849 1449.46 396.849 1454.88 Q396.849 1460.45 393.377 1463.56 Q389.905 1466.64 383.585 1466.64 Q381.41 1466.64 379.141 1466.26 Q376.896 1465.89 374.488 1465.15 L374.488 1460.45 Q376.572 1461.59 378.794 1462.14 Q381.016 1462.7 383.493 1462.7 Q387.497 1462.7 389.835 1460.59 Q392.173 1458.49 392.173 1454.88 Q392.173 1451.26 389.835 1449.16 Q387.497 1447.05 383.493 1447.05 Q381.618 1447.05 379.743 1447.47 Q377.891 1447.89 375.947 1448.76 L375.947 1431.4 Z" fill="#000000" fill-rule="evenodd" fill-opacity="1" /><path clip-path="url(#clip150)" d="M416.062 1434.48 Q412.451 1434.48 410.622 1438.05 Q408.817 1441.59 408.817 1448.72 Q408.817 1455.83 410.622 1459.39 Q412.451 1462.93 416.062 1462.93 Q419.696 1462.93 421.502 1459.39 Q423.331 1455.83 423.331 1448.72 Q423.331 1441.59 421.502 1438.05 Q419.696 1434.48 416.062 1434.48 M416.062 1430.78 Q421.872 1430.78 424.928 1435.39 Q428.006 1439.97 428.006 1448.72 Q428.006 1457.45 424.928 1462.05 Q421.872 1466.64 416.062 1466.64 Q410.252 1466.64 407.173 1462.05 Q404.118 1457.45 404.118 1448.72 Q404.118 1439.97 407.173 1435.39 Q410.252 1430.78 416.062 1430.78 Z" fill="#000000" fill-rule="evenodd" fill-opacity="1" /><path clip-path="url(#clip150)" d="M617.563 1449.14 L647.239 1449.14 L647.239 1453.07 L617.563 1453.07 L617.563 1449.14 Z" fill="#000000" fill-rule="evenodd" fill-opacity="1" /><path clip-path="url(#clip150)" d="M667.331 1434.48 Q663.72 1434.48 661.891 1438.05 Q660.086 1441.59 660.086 1448.72 Q660.086 1455.83 661.891 1459.39 Q663.72 1462.93 667.331 1462.93 Q670.965 1462.93 672.771 1459.39 Q674.6 1455.83 674.6 1448.72 Q674.6 1441.59 672.771 1438.05 Q670.965 1434.48 667.331 1434.48 M667.331 1430.78 Q673.141 1430.78 676.197 1435.39 Q679.275 1439.97 679.275 1448.72 Q679.275 1457.45 676.197 1462.05 Q673.141 1466.64 667.331 1466.64 Q661.521 1466.64 658.442 1462.05 Q655.387 1457.45 655.387 1448.72 Q655.387 1439.97 658.442 1435.39 Q661.521 1430.78 667.331 1430.78 Z" fill="#000000" fill-rule="evenodd" fill-opacity="1" /><path clip-path="url(#clip150)" d="M687.493 1460.08 L692.377 1460.08 L692.377 1465.96 L687.493 1465.96 L687.493 1460.08 Z" fill="#000000" fill-rule="evenodd" fill-opacity="1" /><path clip-path="url(#clip150)" d="M706.59 1462.03 L722.91 1462.03 L722.91 1465.96 L700.965 1465.96 L700.965 1462.03 Q703.627 1459.27 708.211 1454.64 Q712.817 1449.99 713.998 1448.65 Q716.243 1446.13 717.122 1444.39 Q718.025 1442.63 718.025 1440.94 Q718.025 1438.19 716.081 1436.45 Q714.16 1434.71 711.058 1434.71 Q708.859 1434.71 706.405 1435.48 Q703.974 1436.24 701.197 1437.79 L701.197 1433.07 Q704.021 1431.94 706.474 1431.36 Q708.928 1430.78 710.965 1430.78 Q716.335 1430.78 719.53 1433.46 Q722.724 1436.15 722.724 1440.64 Q722.724 1442.77 721.914 1444.69 Q721.127 1446.59 719.021 1449.18 Q718.442 1449.85 715.34 1453.07 Q712.238 1456.26 706.59 1462.03 Z" fill="#000000" fill-rule="evenodd" fill-opacity="1" /><path clip-path="url(#clip150)" d="M732.771 1431.4 L751.127 1431.4 L751.127 1435.34 L737.053 1435.34 L737.053 1443.81 Q738.071 1443.46 739.09 1443.3 Q740.108 1443.12 741.127 1443.12 Q746.914 1443.12 750.294 1446.29 Q753.673 1449.46 753.673 1454.88 Q753.673 1460.45 750.201 1463.56 Q746.729 1466.64 740.409 1466.64 Q738.233 1466.64 735.965 1466.26 Q733.72 1465.89 731.312 1465.15 L731.312 1460.45 Q733.396 1461.59 735.618 1462.14 Q737.84 1462.7 740.317 1462.7 Q744.321 1462.7 746.659 1460.59 Q748.997 1458.49 748.997 1454.88 Q748.997 1451.26 746.659 1449.16 Q744.321 1447.05 740.317 1447.05 Q738.442 1447.05 736.567 1447.47 Q734.715 1447.89 732.771 1448.76 L732.771 1431.4 Z" fill="#000000" fill-rule="evenodd" fill-opacity="1" /><path clip-path="url(#clip150)" d="M974.086 1434.48 Q970.475 1434.48 968.646 1438.05 Q966.841 1441.59 966.841 1448.72 Q966.841 1455.83 968.646 1459.39 Q970.475 1462.93 974.086 1462.93 Q977.72 1462.93 979.526 1459.39 Q981.354 1455.83 981.354 1448.72 Q981.354 1441.59 979.526 1438.05 Q977.72 1434.48 974.086 1434.48 M974.086 1430.78 Q979.896 1430.78 982.952 1435.39 Q986.03 1439.97 986.03 1448.72 Q986.03 1457.45 982.952 1462.05 Q979.896 1466.64 974.086 1466.64 Q968.276 1466.64 965.197 1462.05 Q962.142 1457.45 962.142 1448.72 Q962.142 1439.97 965.197 1435.39 Q968.276 1430.78 974.086 1430.78 Z" fill="#000000" fill-rule="evenodd" fill-opacity="1" /><path clip-path="url(#clip150)" d="M994.248 1460.08 L999.132 1460.08 L999.132 1465.96 L994.248 1465.96 L994.248 1460.08 Z" fill="#000000" fill-rule="evenodd" fill-opacity="1" /><path clip-path="url(#clip150)" d="M1019.32 1434.48 Q1015.71 1434.48 1013.88 1438.05 Q1012.07 1441.59 1012.07 1448.72 Q1012.07 1455.83 1013.88 1459.39 Q1015.71 1462.93 1019.32 1462.93 Q1022.95 1462.93 1024.76 1459.39 Q1026.59 1455.83 1026.59 1448.72 Q1026.59 1441.59 1024.76 1438.05 Q1022.95 1434.48 1019.32 1434.48 M1019.32 1430.78 Q1025.13 1430.78 1028.18 1435.39 Q1031.26 1439.97 1031.26 1448.72 Q1031.26 1457.45 1028.18 1462.05 Q1025.13 1466.64 1019.32 1466.64 Q1013.51 1466.64 1010.43 1462.05 Q1007.37 1457.45 1007.37 1448.72 Q1007.37 1439.97 1010.43 1435.39 Q1013.51 1430.78 1019.32 1430.78 Z" fill="#000000" fill-rule="evenodd" fill-opacity="1" /><path clip-path="url(#clip150)" d="M1049.48 1434.48 Q1045.87 1434.48 1044.04 1438.05 Q1042.23 1441.59 1042.23 1448.72 Q1042.23 1455.83 1044.04 1459.39 Q1045.87 1462.93 1049.48 1462.93 Q1053.11 1462.93 1054.92 1459.39 Q1056.75 1455.83 1056.75 1448.72 Q1056.75 1441.59 1054.92 1438.05 Q1053.11 1434.48 1049.48 1434.48 M1049.48 1430.78 Q1055.29 1430.78 1058.34 1435.39 Q1061.42 1439.97 1061.42 1448.72 Q1061.42 1457.45 1058.34 1462.05 Q1055.29 1466.64 1049.48 1466.64 Q1043.67 1466.64 1040.59 1462.05 Q1037.53 1457.45 1037.53 1448.72 Q1037.53 1439.97 1040.59 1435.39 Q1043.67 1430.78 1049.48 1430.78 Z" fill="#000000" fill-rule="evenodd" fill-opacity="1" /><path clip-path="url(#clip150)" d="M1300.75 1434.48 Q1297.14 1434.48 1295.31 1438.05 Q1293.5 1441.59 1293.5 1448.72 Q1293.5 1455.83 1295.31 1459.39 Q1297.14 1462.93 1300.75 1462.93 Q1304.38 1462.93 1306.19 1459.39 Q1308.02 1455.83 1308.02 1448.72 Q1308.02 1441.59 1306.19 1438.05 Q1304.38 1434.48 1300.75 1434.48 M1300.75 1430.78 Q1306.56 1430.78 1309.61 1435.39 Q1312.69 1439.97 1312.69 1448.72 Q1312.69 1457.45 1309.61 1462.05 Q1306.56 1466.64 1300.75 1466.64 Q1294.94 1466.64 1291.86 1462.05 Q1288.8 1457.45 1288.8 1448.72 Q1288.8 1439.97 1291.86 1435.39 Q1294.94 1430.78 1300.75 1430.78 Z" fill="#000000" fill-rule="evenodd" fill-opacity="1" /><path clip-path="url(#clip150)" d="M1320.91 1460.08 L1325.79 1460.08 L1325.79 1465.96 L1320.91 1465.96 L1320.91 1460.08 Z" fill="#000000" fill-rule="evenodd" fill-opacity="1" /><path clip-path="url(#clip150)" d="M1340.01 1462.03 L1356.33 1462.03 L1356.33 1465.96 L1334.38 1465.96 L1334.38 1462.03 Q1337.04 1459.27 1341.63 1454.64 Q1346.23 1449.99 1347.41 1448.65 Q1349.66 1446.13 1350.54 1444.39 Q1351.44 1442.63 1351.44 1440.94 Q1351.44 1438.19 1349.5 1436.45 Q1347.58 1434.71 1344.47 1434.71 Q1342.28 1434.71 1339.82 1435.48 Q1337.39 1436.24 1334.61 1437.79 L1334.61 1433.07 Q1337.44 1431.94 1339.89 1431.36 Q1342.35 1430.78 1344.38 1430.78 Q1349.75 1430.78 1352.95 1433.46 Q1356.14 1436.15 1356.14 1440.64 Q1356.14 1442.77 1355.33 1444.69 Q1354.54 1446.59 1352.44 1449.18 Q1351.86 1449.85 1348.76 1453.07 Q1345.66 1456.26 1340.01 1462.03 Z" fill="#000000" fill-rule="evenodd" fill-opacity="1" /><path clip-path="url(#clip150)" d="M1366.19 1431.4 L1384.54 1431.4 L1384.54 1435.34 L1370.47 1435.34 L1370.47 1443.81 Q1371.49 1443.46 1372.51 1443.3 Q1373.53 1443.12 1374.54 1443.12 Q1380.33 1443.12 1383.71 1446.29 Q1387.09 1449.46 1387.09 1454.88 Q1387.09 1460.45 1383.62 1463.56 Q1380.15 1466.64 1373.83 1466.64 Q1371.65 1466.64 1369.38 1466.26 Q1367.14 1465.89 1364.73 1465.15 L1364.73 1460.45 Q1366.81 1461.59 1369.03 1462.14 Q1371.26 1462.7 1373.73 1462.7 Q1377.74 1462.7 1380.08 1460.59 Q1382.41 1458.49 1382.41 1454.88 Q1382.41 1451.26 1380.08 1449.16 Q1377.74 1447.05 1373.73 1447.05 Q1371.86 1447.05 1369.98 1447.47 Q1368.13 1447.89 1366.19 1448.76 L1366.19 1431.4 Z" fill="#000000" fill-rule="evenodd" fill-opacity="1" /><path clip-path="url(#clip150)" d="M1626.41 1434.48 Q1622.8 1434.48 1620.97 1438.05 Q1619.17 1441.59 1619.17 1448.72 Q1619.17 1455.83 1620.97 1459.39 Q1622.8 1462.93 1626.41 1462.93 Q1630.05 1462.93 1631.85 1459.39 Q1633.68 1455.83 1633.68 1448.72 Q1633.68 1441.59 1631.85 1438.05 Q1630.05 1434.48 1626.41 1434.48 M1626.41 1430.78 Q1632.22 1430.78 1635.28 1435.39 Q1638.36 1439.97 1638.36 1448.72 Q1638.36 1457.45 1635.28 1462.05 Q1632.22 1466.64 1626.41 1466.64 Q1620.6 1466.64 1617.53 1462.05 Q1614.47 1457.45 1614.47 1448.72 Q1614.47 1439.97 1617.53 1435.39 Q1620.6 1430.78 1626.41 1430.78 Z" fill="#000000" fill-rule="evenodd" fill-opacity="1" /><path clip-path="url(#clip150)" d="M1646.58 1460.08 L1651.46 1460.08 L1651.46 1465.96 L1646.58 1465.96 L1646.58 1460.08 Z" fill="#000000" fill-rule="evenodd" fill-opacity="1" /><path clip-path="url(#clip150)" d="M1661.69 1431.4 L1680.05 1431.4 L1680.05 1435.34 L1665.97 1435.34 L1665.97 1443.81 Q1666.99 1443.46 1668.01 1443.3 Q1669.03 1443.12 1670.05 1443.12 Q1675.84 1443.12 1679.22 1446.29 Q1682.6 1449.46 1682.6 1454.88 Q1682.6 1460.45 1679.12 1463.56 Q1675.65 1466.64 1669.33 1466.64 Q1667.16 1466.64 1664.89 1466.26 Q1662.64 1465.89 1660.23 1465.15 L1660.23 1460.45 Q1662.32 1461.59 1664.54 1462.14 Q1666.76 1462.7 1669.24 1462.7 Q1673.24 1462.7 1675.58 1460.59 Q1677.92 1458.49 1677.92 1454.88 Q1677.92 1451.26 1675.58 1449.16 Q1673.24 1447.05 1669.24 1447.05 Q1667.36 1447.05 1665.49 1447.47 Q1663.64 1447.89 1661.69 1448.76 L1661.69 1431.4 Z" fill="#000000" fill-rule="evenodd" fill-opacity="1" /><path clip-path="url(#clip150)" d="M1701.81 1434.48 Q1698.2 1434.48 1696.37 1438.05 Q1694.56 1441.59 1694.56 1448.72 Q1694.56 1455.83 1696.37 1459.39 Q1698.2 1462.93 1701.81 1462.93 Q1705.44 1462.93 1707.25 1459.39 Q1709.08 1455.83 1709.08 1448.72 Q1709.08 1441.59 1707.25 1438.05 Q1705.44 1434.48 1701.81 1434.48 M1701.81 1430.78 Q1707.62 1430.78 1710.67 1435.39 Q1713.75 1439.97 1713.75 1448.72 Q1713.75 1457.45 1710.67 1462.05 Q1707.62 1466.64 1701.81 1466.64 Q1696 1466.64 1692.92 1462.05 Q1689.86 1457.45 1689.86 1448.72 Q1689.86 1439.97 1692.92 1435.39 Q1696 1430.78 1701.81 1430.78 Z" fill="#000000" fill-rule="evenodd" fill-opacity="1" /><path clip-path="url(#clip150)" d="M993.165 1509.98 L999.022 1509.98 L999.022 1545.63 L993.165 1545.63 L993.165 1509.98 M993.165 1496.1 L999.022 1496.1 L999.022 1503.52 L993.165 1503.52 L993.165 1496.1 Z" fill="#000000" fill-rule="evenodd" fill-opacity="1" /><path clip-path="url(#clip150)" d="M1040.91 1524.11 L1040.91 1545.63 L1035.05 1545.63 L1035.05 1524.3 Q1035.05 1519.24 1033.08 1516.73 Q1031.1 1514.21 1027.16 1514.21 Q1022.42 1514.21 1019.68 1517.24 Q1016.94 1520.26 1016.94 1525.48 L1016.94 1545.63 L1011.05 1545.63 L1011.05 1509.98 L1016.94 1509.98 L1016.94 1515.52 Q1019.04 1512.3 1021.87 1510.71 Q1024.74 1509.12 1028.46 1509.12 Q1034.61 1509.12 1037.76 1512.94 Q1040.91 1516.73 1040.91 1524.11 Z" fill="#000000" fill-rule="evenodd" fill-opacity="1" /><path clip-path="url(#clip150)" d="M1078.24 1511.35 L1078.24 1516.82 Q1075.76 1515.45 1073.25 1514.79 Q1070.76 1514.09 1068.22 1514.09 Q1062.52 1514.09 1059.37 1517.71 Q1056.22 1521.31 1056.22 1527.84 Q1056.22 1534.36 1059.37 1537.99 Q1062.52 1541.59 1068.22 1541.59 Q1070.76 1541.59 1073.25 1540.92 Q1075.76 1540.22 1078.24 1538.85 L1078.24 1544.26 Q1075.79 1545.41 1073.15 1545.98 Q1070.54 1546.55 1067.58 1546.55 Q1059.53 1546.55 1054.79 1541.49 Q1050.04 1536.43 1050.04 1527.84 Q1050.04 1519.11 1054.82 1514.12 Q1059.62 1509.12 1067.96 1509.12 Q1070.67 1509.12 1073.25 1509.69 Q1075.82 1510.23 1078.24 1511.35 Z" fill="#000000" fill-rule="evenodd" fill-opacity="1" /><path clip-path="url(#clip150)" d="M1102.24 1514.09 Q1097.53 1514.09 1094.79 1517.78 Q1092.06 1521.44 1092.06 1527.84 Q1092.06 1534.23 1094.76 1537.93 Q1097.5 1541.59 1102.24 1541.59 Q1106.92 1541.59 1109.66 1537.89 Q1112.39 1534.2 1112.39 1527.84 Q1112.39 1521.5 1109.66 1517.81 Q1106.92 1514.09 1102.24 1514.09 M1102.24 1509.12 Q1109.88 1509.12 1114.24 1514.09 Q1118.6 1519.05 1118.6 1527.84 Q1118.6 1536.59 1114.24 1541.59 Q1109.88 1546.55 1102.24 1546.55 Q1094.57 1546.55 1090.21 1541.59 Q1085.88 1536.59 1085.88 1527.84 Q1085.88 1519.05 1090.21 1514.09 Q1094.57 1509.12 1102.24 1509.12 Z" fill="#000000" fill-rule="evenodd" fill-opacity="1" /><path clip-path="url(#clip150)" d="M1156.06 1516.82 Q1158.26 1512.88 1161.32 1511 Q1164.37 1509.12 1168.51 1509.12 Q1174.08 1509.12 1177.1 1513.04 Q1180.13 1516.92 1180.13 1524.11 L1180.13 1545.63 L1174.24 1545.63 L1174.24 1524.3 Q1174.24 1519.18 1172.42 1516.7 Q1170.61 1514.21 1166.89 1514.21 Q1162.33 1514.21 1159.69 1517.24 Q1157.05 1520.26 1157.05 1525.48 L1157.05 1545.63 L1151.16 1545.63 L1151.16 1524.3 Q1151.16 1519.15 1149.35 1516.7 Q1147.53 1514.21 1143.75 1514.21 Q1139.26 1514.21 1136.62 1517.27 Q1133.97 1520.29 1133.97 1525.48 L1133.97 1545.63 L1128.09 1545.63 L1128.09 1509.98 L1133.97 1509.98 L1133.97 1515.52 Q1135.98 1512.24 1138.78 1510.68 Q1141.58 1509.12 1145.43 1509.12 Q1149.32 1509.12 1152.02 1511.09 Q1154.76 1513.07 1156.06 1516.82 Z" fill="#000000" fill-rule="evenodd" fill-opacity="1" /><path clip-path="url(#clip150)" d="M1222.3 1526.34 L1222.3 1529.2 L1195.37 1529.2 Q1195.75 1535.25 1199 1538.43 Q1202.28 1541.59 1208.1 1541.59 Q1211.48 1541.59 1214.63 1540.76 Q1217.81 1539.93 1220.93 1538.28 L1220.93 1543.81 Q1217.78 1545.15 1214.47 1545.85 Q1211.16 1546.55 1207.75 1546.55 Q1199.22 1546.55 1194.23 1541.59 Q1189.26 1536.62 1189.26 1528.15 Q1189.26 1519.4 1193.97 1514.28 Q1198.71 1509.12 1206.73 1509.12 Q1213.93 1509.12 1218.1 1513.77 Q1222.3 1518.38 1222.3 1526.34 M1216.44 1524.62 Q1216.38 1519.81 1213.74 1516.95 Q1211.13 1514.09 1206.8 1514.09 Q1201.9 1514.09 1198.94 1516.85 Q1196.01 1519.62 1195.56 1524.65 L1216.44 1524.62 Z" fill="#000000" fill-rule="evenodd" fill-opacity="1" /><polyline clip-path="url(#clip152)" style="stroke:#000000; stroke-linecap:round; stroke-linejoin:round; stroke-width:2; stroke-opacity:0.1; fill:none" points="262.708,1095.63 1952.76,1095.63 "/>
<polyline clip-path="url(#clip152)" style="stroke:#000000; stroke-linecap:round; stroke-linejoin:round; stroke-width:2; stroke-opacity:0.1; fill:none" points="262.708,761.216 1952.76,761.216 "/>
<polyline clip-path="url(#clip152)" style="stroke:#000000; stroke-linecap:round; stroke-linejoin:round; stroke-width:2; stroke-opacity:0.1; fill:none" points="262.708,426.798 1952.76,426.798 "/>
<polyline clip-path="url(#clip152)" style="stroke:#000000; stroke-linecap:round; stroke-linejoin:round; stroke-width:2; stroke-opacity:0.1; fill:none" points="262.708,92.3796 1952.76,92.3796 "/>
<polyline clip-path="url(#clip150)" style="stroke:#000000; stroke-linecap:round; stroke-linejoin:round; stroke-width:4; stroke-opacity:1; fill:none" points="262.708,1406.76 262.708,47.2441 "/>
<polyline clip-path="url(#clip150)" style="stroke:#000000; stroke-linecap:round; stroke-linejoin:round; stroke-width:4; stroke-opacity:1; fill:none" points="262.708,1095.63 281.606,1095.63 "/>
<polyline clip-path="url(#clip150)" style="stroke:#000000; stroke-linecap:round; stroke-linejoin:round; stroke-width:4; stroke-opacity:1; fill:none" points="262.708,761.216 281.606,761.216 "/>
<polyline clip-path="url(#clip150)" style="stroke:#000000; stroke-linecap:round; stroke-linejoin:round; stroke-width:4; stroke-opacity:1; fill:none" points="262.708,426.798 281.606,426.798 "/>
<polyline clip-path="url(#clip150)" style="stroke:#000000; stroke-linecap:round; stroke-linejoin:round; stroke-width:4; stroke-opacity:1; fill:none" points="262.708,92.3796 281.606,92.3796 "/>
<path clip-path="url(#clip150)" d="M125.764 1096.08 L155.44 1096.08 L155.44 1100.02 L125.764 1100.02 L125.764 1096.08 Z" fill="#000000" fill-rule="evenodd" fill-opacity="1" /><path clip-path="url(#clip150)" d="M166.343 1108.98 L173.981 1108.98 L173.981 1082.61 L165.671 1084.28 L165.671 1080.02 L173.935 1078.35 L178.611 1078.35 L178.611 1108.98 L186.25 1108.98 L186.25 1112.91 L166.343 1112.91 L166.343 1108.98 Z" fill="#000000" fill-rule="evenodd" fill-opacity="1" /><path clip-path="url(#clip150)" d="M195.694 1107.03 L200.579 1107.03 L200.579 1112.91 L195.694 1112.91 L195.694 1107.03 Z" fill="#000000" fill-rule="evenodd" fill-opacity="1" /><path clip-path="url(#clip150)" d="M220.764 1081.43 Q217.153 1081.43 215.324 1085 Q213.518 1088.54 213.518 1095.67 Q213.518 1102.77 215.324 1106.34 Q217.153 1109.88 220.764 1109.88 Q224.398 1109.88 226.203 1106.34 Q228.032 1102.77 228.032 1095.67 Q228.032 1088.54 226.203 1085 Q224.398 1081.43 220.764 1081.43 M220.764 1077.73 Q226.574 1077.73 229.629 1082.34 Q232.708 1086.92 232.708 1095.67 Q232.708 1104.4 229.629 1109 Q226.574 1113.58 220.764 1113.58 Q214.953 1113.58 211.875 1109 Q208.819 1104.4 208.819 1095.67 Q208.819 1086.92 211.875 1082.34 Q214.953 1077.73 220.764 1077.73 Z" fill="#000000" fill-rule="evenodd" fill-opacity="1" /><path clip-path="url(#clip150)" d="M126.76 761.667 L156.435 761.667 L156.435 765.602 L126.76 765.602 L126.76 761.667 Z" fill="#000000" fill-rule="evenodd" fill-opacity="1" /><path clip-path="url(#clip150)" d="M176.528 747.014 Q172.917 747.014 171.088 750.579 Q169.282 754.121 169.282 761.25 Q169.282 768.357 171.088 771.922 Q172.917 775.463 176.528 775.463 Q180.162 775.463 181.968 771.922 Q183.796 768.357 183.796 761.25 Q183.796 754.121 181.968 750.579 Q180.162 747.014 176.528 747.014 M176.528 743.311 Q182.338 743.311 185.393 747.917 Q188.472 752.5 188.472 761.25 Q188.472 769.977 185.393 774.584 Q182.338 779.167 176.528 779.167 Q170.718 779.167 167.639 774.584 Q164.583 769.977 164.583 761.25 Q164.583 752.5 167.639 747.917 Q170.718 743.311 176.528 743.311 Z" fill="#000000" fill-rule="evenodd" fill-opacity="1" /><path clip-path="url(#clip150)" d="M196.69 772.616 L201.574 772.616 L201.574 778.496 L196.69 778.496 L196.69 772.616 Z" fill="#000000" fill-rule="evenodd" fill-opacity="1" /><path clip-path="url(#clip150)" d="M211.805 743.936 L230.162 743.936 L230.162 747.871 L216.088 747.871 L216.088 756.343 Q217.106 755.996 218.125 755.834 Q219.143 755.649 220.162 755.649 Q225.949 755.649 229.328 758.82 Q232.708 761.991 232.708 767.408 Q232.708 772.986 229.236 776.088 Q225.764 779.167 219.444 779.167 Q217.268 779.167 215 778.797 Q212.754 778.426 210.347 777.685 L210.347 772.986 Q212.43 774.121 214.653 774.676 Q216.875 775.232 219.352 775.232 Q223.356 775.232 225.694 773.125 Q228.032 771.019 228.032 767.408 Q228.032 763.797 225.694 761.69 Q223.356 759.584 219.352 759.584 Q217.477 759.584 215.602 760 Q213.75 760.417 211.805 761.297 L211.805 743.936 Z" fill="#000000" fill-rule="evenodd" fill-opacity="1" /><path clip-path="url(#clip150)" d="M175.532 412.596 Q171.921 412.596 170.093 416.161 Q168.287 419.703 168.287 426.832 Q168.287 433.939 170.093 437.504 Q171.921 441.045 175.532 441.045 Q179.167 441.045 180.972 437.504 Q182.801 433.939 182.801 426.832 Q182.801 419.703 180.972 416.161 Q179.167 412.596 175.532 412.596 M175.532 408.893 Q181.343 408.893 184.398 413.499 Q187.477 418.082 187.477 426.832 Q187.477 435.559 184.398 440.166 Q181.343 444.749 175.532 444.749 Q169.722 444.749 166.644 440.166 Q163.588 435.559 163.588 426.832 Q163.588 418.082 166.644 413.499 Q169.722 408.893 175.532 408.893 Z" fill="#000000" fill-rule="evenodd" fill-opacity="1" /><path clip-path="url(#clip150)" d="M195.694 438.198 L200.579 438.198 L200.579 444.078 L195.694 444.078 L195.694 438.198 Z" fill="#000000" fill-rule="evenodd" fill-opacity="1" /><path clip-path="url(#clip150)" d="M220.764 412.596 Q217.153 412.596 215.324 416.161 Q213.518 419.703 213.518 426.832 Q213.518 433.939 215.324 437.504 Q217.153 441.045 220.764 441.045 Q224.398 441.045 226.203 437.504 Q228.032 433.939 228.032 426.832 Q228.032 419.703 226.203 416.161 Q224.398 412.596 220.764 412.596 M220.764 408.893 Q226.574 408.893 229.629 413.499 Q232.708 418.082 232.708 426.832 Q232.708 435.559 229.629 440.166 Q226.574 444.749 220.764 444.749 Q214.953 444.749 211.875 440.166 Q208.819 435.559 208.819 426.832 Q208.819 418.082 211.875 413.499 Q214.953 408.893 220.764 408.893 Z" fill="#000000" fill-rule="evenodd" fill-opacity="1" /><path clip-path="url(#clip150)" d="M176.528 78.1783 Q172.917 78.1783 171.088 81.7431 Q169.282 85.2848 169.282 92.4144 Q169.282 99.5208 171.088 103.086 Q172.917 106.627 176.528 106.627 Q180.162 106.627 181.968 103.086 Q183.796 99.5208 183.796 92.4144 Q183.796 85.2848 181.968 81.7431 Q180.162 78.1783 176.528 78.1783 M176.528 74.4746 Q182.338 74.4746 185.393 79.0811 Q188.472 83.6644 188.472 92.4144 Q188.472 101.141 185.393 105.748 Q182.338 110.331 176.528 110.331 Q170.718 110.331 167.639 105.748 Q164.583 101.141 164.583 92.4144 Q164.583 83.6644 167.639 79.0811 Q170.718 74.4746 176.528 74.4746 Z" fill="#000000" fill-rule="evenodd" fill-opacity="1" /><path clip-path="url(#clip150)" d="M196.69 103.78 L201.574 103.78 L201.574 109.66 L196.69 109.66 L196.69 103.78 Z" fill="#000000" fill-rule="evenodd" fill-opacity="1" /><path clip-path="url(#clip150)" d="M211.805 75.0996 L230.162 75.0996 L230.162 79.0348 L216.088 79.0348 L216.088 87.507 Q217.106 87.1598 218.125 86.9977 Q219.143 86.8125 220.162 86.8125 Q225.949 86.8125 229.328 89.9838 Q232.708 93.1551 232.708 98.5717 Q232.708 104.15 229.236 107.252 Q225.764 110.331 219.444 110.331 Q217.268 110.331 215 109.961 Q212.754 109.59 210.347 108.849 L210.347 104.15 Q212.43 105.285 214.653 105.84 Q216.875 106.396 219.352 106.396 Q223.356 106.396 225.694 104.289 Q228.032 102.183 228.032 98.5717 Q228.032 94.9606 225.694 92.8542 Q223.356 90.7477 219.352 90.7477 Q217.477 90.7477 215.602 91.1644 Q213.75 91.581 211.805 92.4607 L211.805 75.0996 Z" fill="#000000" fill-rule="evenodd" fill-opacity="1" /><path clip-path="url(#clip150)" d="M63.5887 765.596 Q63.5887 772.694 65.2119 775.431 Q66.8352 778.168 70.7501 778.168 Q73.8693 778.168 75.7154 776.131 Q77.5296 774.062 77.5296 770.529 Q77.5296 765.66 74.0921 762.731 Q70.6228 759.771 64.8937 759.771 L63.5887 759.771 L63.5887 765.596 M61.1697 753.915 L81.5082 753.915 L81.5082 759.771 L76.0973 759.771 Q79.3438 761.777 80.9034 764.769 Q82.4312 767.76 82.4312 772.089 Q82.4312 777.564 79.3756 780.81 Q76.2883 784.025 71.1321 784.025 Q65.1165 784.025 62.0609 780.014 Q59.0054 775.972 59.0054 767.983 L59.0054 759.771 L58.4325 759.771 Q54.3902 759.771 52.1941 762.445 Q49.9661 765.087 49.9661 769.893 Q49.9661 772.948 50.6981 775.845 Q51.4302 778.741 52.8943 781.415 L47.4835 781.415 Q46.2421 778.2 45.6374 775.176 Q45.0008 772.153 45.0008 769.288 Q45.0008 761.554 49.0112 757.734 Q53.0216 753.915 61.1697 753.915 Z" fill="#000000" fill-rule="evenodd" fill-opacity="1" /><path clip-path="url(#clip150)" d="M63.2704 718.394 Q56.9047 718.394 53.4036 721.036 Q49.9024 723.646 49.9024 728.389 Q49.9024 733.099 53.4036 735.741 Q56.9047 738.351 63.2704 738.351 Q69.6043 738.351 73.1054 735.741 Q76.6066 733.099 76.6066 728.389 Q76.6066 723.646 73.1054 721.036 Q69.6043 718.394 63.2704 718.394 M77.084 712.538 Q86.187 712.538 90.6111 716.58 Q95.0671 720.622 95.0671 728.961 Q95.0671 732.049 94.5897 734.786 Q94.1441 737.523 93.1892 740.101 L87.4919 740.101 Q88.8924 737.523 89.5608 735.009 Q90.2292 732.494 90.2292 729.884 Q90.2292 724.123 87.2055 721.259 Q84.2136 718.394 78.1343 718.394 L75.2379 718.394 Q78.389 720.209 79.9486 723.041 Q81.5082 725.874 81.5082 729.821 Q81.5082 736.377 76.5111 740.388 Q71.514 744.398 63.2704 744.398 Q54.995 744.398 49.9979 740.388 Q45.0008 736.377 45.0008 729.821 Q45.0008 725.874 46.5604 723.041 Q48.12 720.209 51.2711 718.394 L45.8602 718.394 L45.8602 712.538 L77.084 712.538 Z" fill="#000000" fill-rule="evenodd" fill-opacity="1" /><path clip-path="url(#clip150)" d="M62.2201 669.983 L65.0846 669.983 L65.0846 696.91 Q71.1321 696.528 74.3149 693.282 Q77.4659 690.003 77.4659 684.179 Q77.4659 680.805 76.6384 677.654 Q75.8109 674.471 74.1558 671.352 L79.6939 671.352 Q81.0307 674.503 81.731 677.813 Q82.4312 681.123 82.4312 684.529 Q82.4312 693.059 77.4659 698.056 Q72.5007 703.021 64.0343 703.021 Q55.2814 703.021 50.1571 698.311 Q45.0008 693.568 45.0008 685.547 Q45.0008 678.354 49.6478 674.185 Q54.2629 669.983 62.2201 669.983 M60.5013 675.84 Q55.6952 675.903 52.8306 678.545 Q49.9661 681.155 49.9661 685.484 Q49.9661 690.385 52.7352 693.345 Q55.5042 696.274 60.5332 696.719 L60.5013 675.84 Z" fill="#000000" fill-rule="evenodd" fill-opacity="1" /><circle clip-path="url(#clip152)" cx="526.891" cy="1368.29" r="36" fill="#00a1ff" fill-rule="evenodd" fill-opacity="1" stroke="#000000" stroke-opacity="1" stroke-width="3.2"/>
<circle clip-path="url(#clip152)" cx="1044.91" cy="85.7211" r="36" fill="#e69f00" fill-rule="evenodd" fill-opacity="1" stroke="#000000" stroke-opacity="1" stroke-width="3.2"/>
<polyline clip-path="url(#clip152)" style="stroke:#000000; stroke-linecap:round; stroke-linejoin:round; stroke-width:8; stroke-opacity:1; fill:none" points="526.891,1368.29 1044.91,85.7211 "/>
<polyline clip-path="url(#clip152)" style="stroke:#000000; stroke-linecap:round; stroke-linejoin:round; stroke-width:8; stroke-opacity:1; fill:none" points="1019.77,107.92 1044.91,85.7211 1047.58,119.155 "/>
<polyline clip-path="url(#clip152)" style="stroke:#000000; stroke-linecap:round; stroke-linejoin:round; stroke-width:8; stroke-opacity:1; fill:none" points="1044.91,85.7211 526.891,1368.29 "/>
<circle clip-path="url(#clip152)" cx="603.448" cy="1368.29" r="36" fill="#00a1ff" fill-rule="evenodd" fill-opacity="1" stroke="#000000" stroke-opacity="1" stroke-width="3.2"/>
<circle clip-path="url(#clip152)" cx="1012.09" cy="113.495" r="36" fill="#e69f00" fill-rule="evenodd" fill-opacity="1" stroke="#000000" stroke-opacity="1" stroke-width="3.2"/>
<polyline clip-path="url(#clip152)" style="stroke:#000000; stroke-linecap:round; stroke-linejoin:round; stroke-width:8; stroke-opacity:1; fill:none" points="603.448,1368.29 1012.09,113.495 "/>
<polyline clip-path="url(#clip152)" style="stroke:#000000; stroke-linecap:round; stroke-linejoin:round; stroke-width:8; stroke-opacity:1; fill:none" points="988.541,137.376 1012.09,113.495 1017.07,146.665 "/>
<polyline clip-path="url(#clip152)" style="stroke:#000000; stroke-linecap:round; stroke-linejoin:round; stroke-width:8; stroke-opacity:1; fill:none" points="1012.09,113.495 603.448,1368.29 "/>
<circle clip-path="url(#clip152)" cx="1264.9" cy="1224.82" r="36" fill="#00a1ff" fill-rule="evenodd" fill-opacity="1" stroke="#000000" stroke-opacity="1" stroke-width="3.2"/>
<circle clip-path="url(#clip152)" cx="1161.36" cy="144.757" r="36" fill="#e69f00" fill-rule="evenodd" fill-opacity="1" stroke="#000000" stroke-opacity="1" stroke-width="3.2"/>
<polyline clip-path="url(#clip152)" style="stroke:#000000; stroke-linecap:round; stroke-linejoin:round; stroke-width:8; stroke-opacity:1; fill:none" points="1264.9,1224.82 1161.36,144.757 "/>
<polyline clip-path="url(#clip152)" style="stroke:#000000; stroke-linecap:round; stroke-linejoin:round; stroke-width:8; stroke-opacity:1; fill:none" points="1149.29,176.051 1161.36,144.757 1179.16,173.188 "/>
<polyline clip-path="url(#clip152)" style="stroke:#000000; stroke-linecap:round; stroke-linejoin:round; stroke-width:8; stroke-opacity:1; fill:none" points="1161.36,144.757 1264.9,1224.82 "/>
<circle clip-path="url(#clip152)" cx="1904.92" cy="650.973" r="36" fill="#00a1ff" fill-rule="evenodd" fill-opacity="1" stroke="#000000" stroke-opacity="1" stroke-width="3.2"/>
<circle clip-path="url(#clip152)" cx="1046.79" cy="111.68" r="36" fill="#e69f00" fill-rule="evenodd" fill-opacity="1" stroke="#000000" stroke-opacity="1" stroke-width="3.2"/>
<polyline clip-path="url(#clip152)" style="stroke:#000000; stroke-linecap:round; stroke-linejoin:round; stroke-width:8; stroke-opacity:1; fill:none" points="1904.92,650.973 1046.79,111.68 "/>
<polyline clip-path="url(#clip152)" style="stroke:#000000; stroke-linecap:round; stroke-linejoin:round; stroke-width:8; stroke-opacity:1; fill:none" points="1064.21,140.343 1046.79,111.68 1080.18,114.942 "/>
<polyline clip-path="url(#clip152)" style="stroke:#000000; stroke-linecap:round; stroke-linejoin:round; stroke-width:8; stroke-opacity:1; fill:none" points="1046.79,111.68 1904.92,650.973 "/>
<circle clip-path="url(#clip152)" cx="373.776" cy="985.719" r="36" fill="#00a1ff" fill-rule="evenodd" fill-opacity="1" stroke="#000000" stroke-opacity="1" stroke-width="3.2"/>
<circle clip-path="url(#clip152)" cx="1122.41" cy="102.069" r="36" fill="#e69f00" fill-rule="evenodd" fill-opacity="1" stroke="#000000" stroke-opacity="1" stroke-width="3.2"/>
<polyline clip-path="url(#clip152)" style="stroke:#000000; stroke-linecap:round; stroke-linejoin:round; stroke-width:8; stroke-opacity:1; fill:none" points="373.776,985.719 1122.41,102.069 "/>
<polyline clip-path="url(#clip152)" style="stroke:#000000; stroke-linecap:round; stroke-linejoin:round; stroke-width:8; stroke-opacity:1; fill:none" points="1091.58,115.263 1122.41,102.069 1114.47,134.655 "/>
<polyline clip-path="url(#clip152)" style="stroke:#000000; stroke-linecap:round; stroke-linejoin:round; stroke-width:8; stroke-opacity:1; fill:none" points="1122.41,102.069 373.776,985.719 "/>
<circle clip-path="url(#clip152)" cx="1037.53" cy="459.689" r="36" fill="#00a1ff" fill-rule="evenodd" fill-opacity="1" stroke="#000000" stroke-opacity="1" stroke-width="3.2"/>
<circle clip-path="url(#clip152)" cx="1185.75" cy="135.275" r="36" fill="#e69f00" fill-rule="evenodd" fill-opacity="1" stroke="#000000" stroke-opacity="1" stroke-width="3.2"/>
<polyline clip-path="url(#clip152)" style="stroke:#000000; stroke-linecap:round; stroke-linejoin:round; stroke-width:8; stroke-opacity:1; fill:none" points="1037.53,459.689 1185.75,135.275 "/>
<polyline clip-path="url(#clip152)" style="stroke:#000000; stroke-linecap:round; stroke-linejoin:round; stroke-width:8; stroke-opacity:1; fill:none" points="1159.64,156.328 1185.75,135.275 1186.92,168.795 "/>
<polyline clip-path="url(#clip152)" style="stroke:#000000; stroke-linecap:round; stroke-linejoin:round; stroke-width:8; stroke-opacity:1; fill:none" points="1185.75,135.275 1037.53,459.689 "/>
<circle clip-path="url(#clip152)" cx="766.516" cy="555.331" r="36" fill="#00a1ff" fill-rule="evenodd" fill-opacity="1" stroke="#000000" stroke-opacity="1" stroke-width="3.2"/>
<circle clip-path="url(#clip152)" cx="1008.72" cy="97.8877" r="36" fill="#e69f00" fill-rule="evenodd" fill-opacity="1" stroke="#000000" stroke-opacity="1" stroke-width="3.2"/>
<polyline clip-path="url(#clip152)" style="stroke:#000000; stroke-linecap:round; stroke-linejoin:round; stroke-width:8; stroke-opacity:1; fill:none" points="766.516,555.331 1008.72,97.8877 "/>
<polyline clip-path="url(#clip152)" style="stroke:#000000; stroke-linecap:round; stroke-linejoin:round; stroke-width:8; stroke-opacity:1; fill:none" points="981.425,117.382 1008.72,97.8877 1007.94,131.42 "/>
<polyline clip-path="url(#clip152)" style="stroke:#000000; stroke-linecap:round; stroke-linejoin:round; stroke-width:8; stroke-opacity:1; fill:none" points="1008.72,97.8877 766.516,555.331 "/>
<circle clip-path="url(#clip152)" cx="680.006" cy="1081.36" r="36" fill="#00a1ff" fill-rule="evenodd" fill-opacity="1" stroke="#000000" stroke-opacity="1" stroke-width="3.2"/>
<circle clip-path="url(#clip152)" cx="1137.04" cy="121.397" r="36" fill="#e69f00" fill-rule="evenodd" fill-opacity="1" stroke="#000000" stroke-opacity="1" stroke-width="3.2"/>
<polyline clip-path="url(#clip152)" style="stroke:#000000; stroke-linecap:round; stroke-linejoin:round; stroke-width:8; stroke-opacity:1; fill:none" points="680.006,1081.36 1137.04,121.397 "/>
<polyline clip-path="url(#clip152)" style="stroke:#000000; stroke-linecap:round; stroke-linejoin:round; stroke-width:8; stroke-opacity:1; fill:none" points="1110.6,142.036 1137.04,121.397 1137.69,154.932 "/>
<polyline clip-path="url(#clip152)" style="stroke:#000000; stroke-linecap:round; stroke-linejoin:round; stroke-width:8; stroke-opacity:1; fill:none" points="1137.04,121.397 680.006,1081.36 "/>
<circle clip-path="url(#clip152)" cx="310.54" cy="555.331" r="36" fill="#00a1ff" fill-rule="evenodd" fill-opacity="1" stroke="#000000" stroke-opacity="1" stroke-width="3.2"/>
<circle clip-path="url(#clip152)" cx="1046.86" cy="129.041" r="36" fill="#e69f00" fill-rule="evenodd" fill-opacity="1" stroke="#000000" stroke-opacity="1" stroke-width="3.2"/>
<polyline clip-path="url(#clip152)" style="stroke:#000000; stroke-linecap:round; stroke-linejoin:round; stroke-width:8; stroke-opacity:1; fill:none" points="310.54,555.331 1046.86,129.041 "/>
<polyline clip-path="url(#clip152)" style="stroke:#000000; stroke-linecap:round; stroke-linejoin:round; stroke-width:8; stroke-opacity:1; fill:none" points="1013.38,131.09 1046.86,129.041 1028.41,157.053 "/>
<polyline clip-path="url(#clip152)" style="stroke:#000000; stroke-linecap:round; stroke-linejoin:round; stroke-width:8; stroke-opacity:1; fill:none" points="1046.86,129.041 310.54,555.331 "/>
<circle clip-path="url(#clip152)" cx="626.415" cy="1224.82" r="36" fill="#00a1ff" fill-rule="evenodd" fill-opacity="1" stroke="#000000" stroke-opacity="1" stroke-width="3.2"/>
<circle clip-path="url(#clip152)" cx="1072.52" cy="101.479" r="36" fill="#e69f00" fill-rule="evenodd" fill-opacity="1" stroke="#000000" stroke-opacity="1" stroke-width="3.2"/>
<polyline clip-path="url(#clip152)" style="stroke:#000000; stroke-linecap:round; stroke-linejoin:round; stroke-width:8; stroke-opacity:1; fill:none" points="626.415,1224.82 1072.52,101.479 "/>
<polyline clip-path="url(#clip152)" style="stroke:#000000; stroke-linecap:round; stroke-linejoin:round; stroke-width:8; stroke-opacity:1; fill:none" points="1047.51,123.825 1072.52,101.479 1075.39,134.898 "/>
<polyline clip-path="url(#clip152)" style="stroke:#000000; stroke-linecap:round; stroke-linejoin:round; stroke-width:8; stroke-opacity:1; fill:none" points="1072.52,101.479 626.415,1224.82 "/>
<path clip-path="url(#clip150)" d="M1411.72 1361.45 L1896.42 1361.45 L1896.42 1205.93 L1411.72 1205.93  Z" fill="#ffffff" fill-rule="evenodd" fill-opacity="1"/>
<polyline clip-path="url(#clip150)" style="stroke:#000000; stroke-linecap:round; stroke-linejoin:round; stroke-width:4; stroke-opacity:1; fill:none" points="1411.72,1361.45 1896.42,1361.45 1896.42,1205.93 1411.72,1205.93 1411.72,1361.45 "/>
<circle clip-path="url(#clip150)" cx="1486.84" cy="1257.77" r="23.04" fill="#00a1ff" fill-rule="evenodd" fill-opacity="1" stroke="#000000" stroke-opacity="1" stroke-width="2.048"/>
<path clip-path="url(#clip150)" d="M1561.95 1239.03 L1566.21 1239.03 L1566.21 1275.05 L1561.95 1275.05 L1561.95 1239.03 Z" fill="#000000" fill-rule="evenodd" fill-opacity="1" /><path clip-path="url(#clip150)" d="M1585.17 1252.11 Q1581.74 1252.11 1579.75 1254.79 Q1577.76 1257.45 1577.76 1262.11 Q1577.76 1266.76 1579.73 1269.44 Q1581.72 1272.11 1585.17 1272.11 Q1588.57 1272.11 1590.56 1269.42 Q1592.55 1266.74 1592.55 1262.11 Q1592.55 1257.5 1590.56 1254.82 Q1588.57 1252.11 1585.17 1252.11 M1585.17 1248.5 Q1590.72 1248.5 1593.89 1252.11 Q1597.07 1255.72 1597.07 1262.11 Q1597.07 1268.47 1593.89 1272.11 Q1590.72 1275.72 1585.17 1275.72 Q1579.59 1275.72 1576.42 1272.11 Q1573.27 1268.47 1573.27 1262.11 Q1573.27 1255.72 1576.42 1252.11 Q1579.59 1248.5 1585.17 1248.5 Z" fill="#000000" fill-rule="evenodd" fill-opacity="1" /><path clip-path="url(#clip150)" d="M1615.91 1262.01 Q1610.75 1262.01 1608.76 1263.19 Q1606.76 1264.38 1606.76 1267.22 Q1606.76 1269.49 1608.25 1270.83 Q1609.75 1272.15 1612.32 1272.15 Q1615.86 1272.15 1617.99 1269.65 Q1620.14 1267.13 1620.14 1262.96 L1620.14 1262.01 L1615.91 1262.01 M1624.4 1260.25 L1624.4 1275.05 L1620.14 1275.05 L1620.14 1271.11 Q1618.69 1273.47 1616.51 1274.61 Q1614.33 1275.72 1611.19 1275.72 Q1607.2 1275.72 1604.84 1273.5 Q1602.51 1271.25 1602.51 1267.5 Q1602.51 1263.13 1605.42 1260.9 Q1608.36 1258.68 1614.17 1258.68 L1620.14 1258.68 L1620.14 1258.26 Q1620.14 1255.32 1618.2 1253.73 Q1616.28 1252.11 1612.78 1252.11 Q1610.56 1252.11 1608.45 1252.64 Q1606.35 1253.17 1604.4 1254.24 L1604.4 1250.3 Q1606.74 1249.4 1608.94 1248.96 Q1611.14 1248.5 1613.22 1248.5 Q1618.85 1248.5 1621.63 1251.41 Q1624.4 1254.33 1624.4 1260.25 Z" fill="#000000" fill-rule="evenodd" fill-opacity="1" /><path clip-path="url(#clip150)" d="M1654.73 1259.4 L1654.73 1275.05 L1650.47 1275.05 L1650.47 1259.54 Q1650.47 1255.86 1649.03 1254.03 Q1647.6 1252.2 1644.73 1252.2 Q1641.28 1252.2 1639.29 1254.4 Q1637.3 1256.6 1637.3 1260.39 L1637.3 1275.05 L1633.01 1275.05 L1633.01 1249.12 L1637.3 1249.12 L1637.3 1253.15 Q1638.82 1250.81 1640.88 1249.65 Q1642.97 1248.5 1645.68 1248.5 Q1650.14 1248.5 1652.44 1251.27 Q1654.73 1254.03 1654.73 1259.4 Z" fill="#000000" fill-rule="evenodd" fill-opacity="1" /><path clip-path="url(#clip150)" d="M1695.35 1253.06 L1695.35 1239.03 L1699.61 1239.03 L1699.61 1275.05 L1695.35 1275.05 L1695.35 1271.16 Q1694.01 1273.47 1691.95 1274.61 Q1689.91 1275.72 1687.04 1275.72 Q1682.34 1275.72 1679.38 1271.97 Q1676.44 1268.22 1676.44 1262.11 Q1676.44 1256 1679.38 1252.25 Q1682.34 1248.5 1687.04 1248.5 Q1689.91 1248.5 1691.95 1249.63 Q1694.01 1250.74 1695.35 1253.06 M1680.84 1262.11 Q1680.84 1266.81 1682.76 1269.49 Q1684.7 1272.15 1688.08 1272.15 Q1691.46 1272.15 1693.41 1269.49 Q1695.35 1266.81 1695.35 1262.11 Q1695.35 1257.41 1693.41 1254.75 Q1691.46 1252.06 1688.08 1252.06 Q1684.7 1252.06 1682.76 1254.75 Q1680.84 1257.41 1680.84 1262.11 Z" fill="#000000" fill-rule="evenodd" fill-opacity="1" /><path clip-path="url(#clip150)" d="M1730.56 1261.02 L1730.56 1263.1 L1710.98 1263.1 Q1711.25 1267.5 1713.62 1269.82 Q1716 1272.11 1720.24 1272.11 Q1722.69 1272.11 1724.98 1271.5 Q1727.3 1270.9 1729.56 1269.7 L1729.56 1273.73 Q1727.27 1274.7 1724.87 1275.21 Q1722.46 1275.72 1719.98 1275.72 Q1713.78 1275.72 1710.14 1272.11 Q1706.53 1268.5 1706.53 1262.34 Q1706.53 1255.97 1709.96 1252.25 Q1713.41 1248.5 1719.24 1248.5 Q1724.47 1248.5 1727.5 1251.88 Q1730.56 1255.23 1730.56 1261.02 M1726.3 1259.77 Q1726.25 1256.27 1724.33 1254.19 Q1722.44 1252.11 1719.29 1252.11 Q1715.72 1252.11 1713.57 1254.12 Q1711.44 1256.13 1711.12 1259.79 L1726.3 1259.77 Z" fill="#000000" fill-rule="evenodd" fill-opacity="1" /><path clip-path="url(#clip150)" d="M1759.1 1259.4 L1759.1 1275.05 L1754.84 1275.05 L1754.84 1259.54 Q1754.84 1255.86 1753.41 1254.03 Q1751.97 1252.2 1749.1 1252.2 Q1745.65 1252.2 1743.66 1254.4 Q1741.67 1256.6 1741.67 1260.39 L1741.67 1275.05 L1737.39 1275.05 L1737.39 1249.12 L1741.67 1249.12 L1741.67 1253.15 Q1743.2 1250.81 1745.26 1249.65 Q1747.34 1248.5 1750.05 1248.5 Q1754.52 1248.5 1756.81 1251.27 Q1759.1 1254.03 1759.1 1259.4 Z" fill="#000000" fill-rule="evenodd" fill-opacity="1" /><path clip-path="url(#clip150)" d="M1767.6 1249.12 L1771.86 1249.12 L1771.86 1275.05 L1767.6 1275.05 L1767.6 1249.12 M1767.6 1239.03 L1771.86 1239.03 L1771.86 1244.42 L1767.6 1244.42 L1767.6 1239.03 Z" fill="#000000" fill-rule="evenodd" fill-opacity="1" /><path clip-path="url(#clip150)" d="M1802.94 1261.02 L1802.94 1263.1 L1783.36 1263.1 Q1783.64 1267.5 1786 1269.82 Q1788.38 1272.11 1792.62 1272.11 Q1795.07 1272.11 1797.37 1271.5 Q1799.68 1270.9 1801.95 1269.7 L1801.95 1273.73 Q1799.66 1274.7 1797.25 1275.21 Q1794.84 1275.72 1792.37 1275.72 Q1786.16 1275.72 1782.53 1272.11 Q1778.92 1268.5 1778.92 1262.34 Q1778.92 1255.97 1782.34 1252.25 Q1785.79 1248.5 1791.62 1248.5 Q1796.86 1248.5 1799.89 1251.88 Q1802.94 1255.23 1802.94 1261.02 M1798.68 1259.77 Q1798.64 1256.27 1796.72 1254.19 Q1794.82 1252.11 1791.67 1252.11 Q1788.11 1252.11 1785.95 1254.12 Q1783.82 1256.13 1783.5 1259.79 L1798.68 1259.77 Z" fill="#000000" fill-rule="evenodd" fill-opacity="1" /><path clip-path="url(#clip150)" d="M1826.99 1253.06 L1826.99 1239.03 L1831.25 1239.03 L1831.25 1275.05 L1826.99 1275.05 L1826.99 1271.16 Q1825.65 1273.47 1823.59 1274.61 Q1821.56 1275.72 1818.68 1275.72 Q1813.99 1275.72 1811.02 1271.97 Q1808.08 1268.22 1808.08 1262.11 Q1808.08 1256 1811.02 1252.25 Q1813.99 1248.5 1818.68 1248.5 Q1821.56 1248.5 1823.59 1249.63 Q1825.65 1250.74 1826.99 1253.06 M1812.48 1262.11 Q1812.48 1266.81 1814.4 1269.49 Q1816.35 1272.15 1819.73 1272.15 Q1823.11 1272.15 1825.05 1269.49 Q1826.99 1266.81 1826.99 1262.11 Q1826.99 1257.41 1825.05 1254.75 Q1823.11 1252.06 1819.73 1252.06 Q1816.35 1252.06 1814.4 1254.75 Q1812.48 1257.41 1812.48 1262.11 Z" fill="#000000" fill-rule="evenodd" fill-opacity="1" /><circle clip-path="url(#clip150)" cx="1486.84" cy="1309.61" r="23.04" fill="#e69f00" fill-rule="evenodd" fill-opacity="1" stroke="#000000" stroke-opacity="1" stroke-width="2.048"/>
<path clip-path="url(#clip150)" d="M1561.95 1290.87 L1566.21 1290.87 L1566.21 1326.89 L1561.95 1326.89 L1561.95 1290.87 Z" fill="#000000" fill-rule="evenodd" fill-opacity="1" /><path clip-path="url(#clip150)" d="M1585.17 1303.95 Q1581.74 1303.95 1579.75 1306.63 Q1577.76 1309.29 1577.76 1313.95 Q1577.76 1318.6 1579.73 1321.28 Q1581.72 1323.95 1585.17 1323.95 Q1588.57 1323.95 1590.56 1321.26 Q1592.55 1318.58 1592.55 1313.95 Q1592.55 1309.34 1590.56 1306.66 Q1588.57 1303.95 1585.17 1303.95 M1585.17 1300.34 Q1590.72 1300.34 1593.89 1303.95 Q1597.07 1307.56 1597.07 1313.95 Q1597.07 1320.31 1593.89 1323.95 Q1590.72 1327.56 1585.17 1327.56 Q1579.59 1327.56 1576.42 1323.95 Q1573.27 1320.31 1573.27 1313.95 Q1573.27 1307.56 1576.42 1303.95 Q1579.59 1300.34 1585.17 1300.34 Z" fill="#000000" fill-rule="evenodd" fill-opacity="1" /><path clip-path="url(#clip150)" d="M1615.91 1313.85 Q1610.75 1313.85 1608.76 1315.03 Q1606.76 1316.22 1606.76 1319.06 Q1606.76 1321.33 1608.25 1322.67 Q1609.75 1323.99 1612.32 1323.99 Q1615.86 1323.99 1617.99 1321.49 Q1620.14 1318.97 1620.14 1314.8 L1620.14 1313.85 L1615.91 1313.85 M1624.4 1312.09 L1624.4 1326.89 L1620.14 1326.89 L1620.14 1322.95 Q1618.69 1325.31 1616.51 1326.45 Q1614.33 1327.56 1611.19 1327.56 Q1607.2 1327.56 1604.84 1325.34 Q1602.51 1323.09 1602.51 1319.34 Q1602.51 1314.97 1605.42 1312.74 Q1608.36 1310.52 1614.17 1310.52 L1620.14 1310.52 L1620.14 1310.1 Q1620.14 1307.16 1618.2 1305.57 Q1616.28 1303.95 1612.78 1303.95 Q1610.56 1303.95 1608.45 1304.48 Q1606.35 1305.01 1604.4 1306.08 L1604.4 1302.14 Q1606.74 1301.24 1608.94 1300.8 Q1611.14 1300.34 1613.22 1300.34 Q1618.85 1300.34 1621.63 1303.25 Q1624.4 1306.17 1624.4 1312.09 Z" fill="#000000" fill-rule="evenodd" fill-opacity="1" /><path clip-path="url(#clip150)" d="M1654.73 1311.24 L1654.73 1326.89 L1650.47 1326.89 L1650.47 1311.38 Q1650.47 1307.7 1649.03 1305.87 Q1647.6 1304.04 1644.73 1304.04 Q1641.28 1304.04 1639.29 1306.24 Q1637.3 1308.44 1637.3 1312.23 L1637.3 1326.89 L1633.01 1326.89 L1633.01 1300.96 L1637.3 1300.96 L1637.3 1304.99 Q1638.82 1302.65 1640.88 1301.49 Q1642.97 1300.34 1645.68 1300.34 Q1650.14 1300.34 1652.44 1303.11 Q1654.73 1305.87 1654.73 1311.24 Z" fill="#000000" fill-rule="evenodd" fill-opacity="1" /><path clip-path="url(#clip150)" d="M1682.41 1323 L1682.41 1336.75 L1678.13 1336.75 L1678.13 1300.96 L1682.41 1300.96 L1682.41 1304.9 Q1683.75 1302.58 1685.79 1301.47 Q1687.85 1300.34 1690.7 1300.34 Q1695.42 1300.34 1698.36 1304.09 Q1701.32 1307.84 1701.32 1313.95 Q1701.32 1320.06 1698.36 1323.81 Q1695.42 1327.56 1690.7 1327.56 Q1687.85 1327.56 1685.79 1326.45 Q1683.75 1325.31 1682.41 1323 M1696.9 1313.95 Q1696.9 1309.25 1694.96 1306.59 Q1693.04 1303.9 1689.66 1303.9 Q1686.28 1303.9 1684.33 1306.59 Q1682.41 1309.25 1682.41 1313.95 Q1682.41 1318.65 1684.33 1321.33 Q1686.28 1323.99 1689.66 1323.99 Q1693.04 1323.99 1694.96 1321.33 Q1696.9 1318.65 1696.9 1313.95 Z" fill="#000000" fill-rule="evenodd" fill-opacity="1" /><path clip-path="url(#clip150)" d="M1723.41 1304.94 Q1722.69 1304.53 1721.83 1304.34 Q1721 1304.13 1719.98 1304.13 Q1716.37 1304.13 1714.43 1306.49 Q1712.5 1308.83 1712.5 1313.23 L1712.5 1326.89 L1708.22 1326.89 L1708.22 1300.96 L1712.5 1300.96 L1712.5 1304.99 Q1713.85 1302.63 1716 1301.49 Q1718.15 1300.34 1721.23 1300.34 Q1721.67 1300.34 1722.2 1300.41 Q1722.74 1300.45 1723.38 1300.57 L1723.41 1304.94 Z" fill="#000000" fill-rule="evenodd" fill-opacity="1" /><path clip-path="url(#clip150)" d="M1736.88 1303.95 Q1733.45 1303.95 1731.46 1306.63 Q1729.47 1309.29 1729.47 1313.95 Q1729.47 1318.6 1731.44 1321.28 Q1733.43 1323.95 1736.88 1323.95 Q1740.28 1323.95 1742.27 1321.26 Q1744.26 1318.58 1744.26 1313.95 Q1744.26 1309.34 1742.27 1306.66 Q1740.28 1303.95 1736.88 1303.95 M1736.88 1300.34 Q1742.44 1300.34 1745.61 1303.95 Q1748.78 1307.56 1748.78 1313.95 Q1748.78 1320.31 1745.61 1323.95 Q1742.44 1327.56 1736.88 1327.56 Q1731.3 1327.56 1728.13 1323.95 Q1724.98 1320.31 1724.98 1313.95 Q1724.98 1307.56 1728.13 1303.95 Q1731.3 1300.34 1736.88 1300.34 Z" fill="#000000" fill-rule="evenodd" fill-opacity="1" /><path clip-path="url(#clip150)" d="M1752.78 1300.96 L1757.3 1300.96 L1765.4 1322.72 L1773.5 1300.96 L1778.01 1300.96 L1768.29 1326.89 L1762.5 1326.89 L1752.78 1300.96 Z" fill="#000000" fill-rule="evenodd" fill-opacity="1" /><path clip-path="url(#clip150)" d="M1783.89 1300.96 L1788.15 1300.96 L1788.15 1326.89 L1783.89 1326.89 L1783.89 1300.96 M1783.89 1290.87 L1788.15 1290.87 L1788.15 1296.26 L1783.89 1296.26 L1783.89 1290.87 Z" fill="#000000" fill-rule="evenodd" fill-opacity="1" /><path clip-path="url(#clip150)" d="M1814.12 1304.9 L1814.12 1290.87 L1818.38 1290.87 L1818.38 1326.89 L1814.12 1326.89 L1814.12 1323 Q1812.78 1325.31 1810.72 1326.45 Q1808.68 1327.56 1805.81 1327.56 Q1801.12 1327.56 1798.15 1323.81 Q1795.21 1320.06 1795.21 1313.95 Q1795.21 1307.84 1798.15 1304.09 Q1801.12 1300.34 1805.81 1300.34 Q1808.68 1300.34 1810.72 1301.47 Q1812.78 1302.58 1814.12 1304.9 M1799.61 1313.95 Q1799.61 1318.65 1801.53 1321.33 Q1803.48 1323.99 1806.86 1323.99 Q1810.24 1323.99 1812.18 1321.33 Q1814.12 1318.65 1814.12 1313.95 Q1814.12 1309.25 1812.18 1306.59 Q1810.24 1303.9 1806.86 1303.9 Q1803.48 1303.9 1801.53 1306.59 Q1799.61 1309.25 1799.61 1313.95 Z" fill="#000000" fill-rule="evenodd" fill-opacity="1" /><path clip-path="url(#clip150)" d="M1849.33 1312.86 L1849.33 1314.94 L1829.75 1314.94 Q1830.03 1319.34 1832.39 1321.66 Q1834.77 1323.95 1839.01 1323.95 Q1841.46 1323.95 1843.75 1323.34 Q1846.07 1322.74 1848.34 1321.54 L1848.34 1325.57 Q1846.05 1326.54 1843.64 1327.05 Q1841.23 1327.56 1838.75 1327.56 Q1832.55 1327.56 1828.92 1323.95 Q1825.3 1320.34 1825.3 1314.18 Q1825.3 1307.81 1828.73 1304.09 Q1832.18 1300.34 1838.01 1300.34 Q1843.24 1300.34 1846.28 1303.72 Q1849.33 1307.07 1849.33 1312.86 M1845.07 1311.61 Q1845.03 1308.11 1843.11 1306.03 Q1841.21 1303.95 1838.06 1303.95 Q1834.49 1303.95 1832.34 1305.96 Q1830.21 1307.97 1829.89 1311.63 L1845.07 1311.61 Z" fill="#000000" fill-rule="evenodd" fill-opacity="1" /><path clip-path="url(#clip150)" d="M1873.38 1304.9 L1873.38 1290.87 L1877.64 1290.87 L1877.64 1326.89 L1873.38 1326.89 L1873.38 1323 Q1872.04 1325.31 1869.98 1326.45 Q1867.94 1327.56 1865.07 1327.56 Q1860.37 1327.56 1857.41 1323.81 Q1854.47 1320.06 1854.47 1313.95 Q1854.47 1307.84 1857.41 1304.09 Q1860.37 1300.34 1865.07 1300.34 Q1867.94 1300.34 1869.98 1301.47 Q1872.04 1302.58 1873.38 1304.9 M1858.87 1313.95 Q1858.87 1318.65 1860.79 1321.33 Q1862.74 1323.99 1866.11 1323.99 Q1869.49 1323.99 1871.44 1321.33 Q1873.38 1318.65 1873.38 1313.95 Q1873.38 1309.25 1871.44 1306.59 Q1869.49 1303.9 1866.11 1303.9 Q1862.74 1303.9 1860.79 1306.59 Q1858.87 1309.25 1858.87 1313.95 Z" fill="#000000" fill-rule="evenodd" fill-opacity="1" /></svg>
