<?xml version="1.0" encoding="utf-8"?>
<svg xmlns="http://www.w3.org/2000/svg" xmlns:xlink="http://www.w3.org/1999/xlink" width="500" height="400" viewBox="0 0 2000 1600">
<defs>
  <clipPath id="clip580">
    <rect x="0" y="0" width="2000" height="1600"/>
  </clipPath>
</defs>
<path clip-path="url(#clip580)" d="M0 1600 L2000 1600 L2000 0 L0 0  Z" fill="#ffffff" fill-rule="evenodd" fill-opacity="1"/>
<defs>
  <clipPath id="clip581">
    <rect x="400" y="0" width="1401" height="1401"/>
  </clipPath>
</defs>
<path clip-path="url(#clip580)" d="M262.708 1406.76 L1952.76 1406.76 L1952.76 47.2441 L262.708 47.2441  Z" fill="#ffffff" fill-rule="evenodd" fill-opacity="1"/>
<defs>
  <clipPath id="clip582">
    <rect x="262" y="47" width="1691" height="1361"/>
  </clipPath>
</defs>
<polyline clip-path="url(#clip582)" style="stroke:#000000; stroke-linecap:round; stroke-linejoin:round; stroke-width:2; stroke-opacity:0.1; fill:none" points="423.371,1406.76 423.371,47.2441 "/>
<polyline clip-path="url(#clip582)" style="stroke:#000000; stroke-linecap:round; stroke-linejoin:round; stroke-width:2; stroke-opacity:0.1; fill:none" points="790.623,1406.76 790.623,47.2441 "/>
<polyline clip-path="url(#clip582)" style="stroke:#000000; stroke-linecap:round; stroke-linejoin:round; stroke-width:2; stroke-opacity:0.1; fill:none" points="1157.88,1406.76 1157.88,47.2441 "/>
<polyline clip-path="url(#clip582)" style="stroke:#000000; stroke-linecap:round; stroke-linejoin:round; stroke-width:2; stroke-opacity:0.1; fill:none" points="1525.13,1406.76 1525.13,47.2441 "/>
<polyline clip-path="url(#clip582)" style="stroke:#000000; stroke-linecap:round; stroke-linejoin:round; stroke-width:2; stroke-opacity:0.1; fill:none" points="1892.38,1406.76 1892.38,47.2441 "/>
<polyline clip-path="url(#clip580)" style="stroke:#000000; stroke-linecap:round; stroke-linejoin:round; stroke-width:4; stroke-opacity:1; fill:none" points="262.708,1406.76 1952.76,1406.76 "/>
<polyline clip-path="url(#clip580)" style="stroke:#000000; stroke-linecap:round; stroke-linejoin:round; stroke-width:4; stroke-opacity:1; fill:none" points="423.371,1406.76 423.371,1387.87 "/>
<polyline clip-path="url(#clip580)" style="stroke:#000000; stroke-linecap:round; stroke-linejoin:round; stroke-width:4; stroke-opacity:1; fill:none" points="790.623,1406.76 790.623,1387.87 "/>
<polyline clip-path="url(#clip580)" style="stroke:#000000; stroke-linecap:round; stroke-linejoin:round; stroke-width:4; stroke-opacity:1; fill:none" points="1157.88,1406.76 1157.88,1387.87 "/>
<polyline clip-path="url(#clip580)" style="stroke:#000000; stroke-linecap:round; stroke-linejoin:round; stroke-width:4; stroke-opacity:1; fill:none" points="1525.13,1406.76 1525.13,1387.87 "/>
<polyline clip-path="url(#clip580)" style="stroke:#000000; stroke-linecap:round; stroke-linejoin:round; stroke-width:4; stroke-opacity:1; fill:none" points="1892.38,1406.76 1892.38,1387.87 "/>
<path clip-path="url(#clip580)" d="M354.818 1449.14 L384.493 1449.14 L384.493 1453.07 L354.818 1453.07 L354.818 1449.14 Z" fill="#000000" fill-rule="evenodd" fill-opacity="1" /><path clip-path="url(#clip580)" d="M404.586 1434.48 Q400.975 1434.48 399.146 1438.05 Q397.341 1441.59 397.341 1448.72 Q397.341 1455.83 399.146 1459.39 Q400.975 1462.93 404.586 1462.93 Q408.22 1462.93 410.026 1459.39 Q411.854 1455.83 411.854 1448.72 Q411.854 1441.59 410.026 1438.05 Q408.22 1434.48 404.586 1434.48 M404.586 1430.78 Q410.396 1430.78 413.452 1435.39 Q416.53 1439.97 416.53 1448.72 Q416.53 1457.45 413.452 1462.05 Q410.396 1466.64 404.586 1466.64 Q398.776 1466.64 395.697 1462.05 Q392.642 1457.45 392.642 1448.72 Q392.642 1439.97 395.697 1435.39 Q398.776 1430.78 404.586 1430.78 Z" fill="#000000" fill-rule="evenodd" fill-opacity="1" /><path clip-path="url(#clip580)" d="M424.748 1460.08 L429.632 1460.08 L429.632 1465.96 L424.748 1465.96 L424.748 1460.08 Z" fill="#000000" fill-rule="evenodd" fill-opacity="1" /><path clip-path="url(#clip580)" d="M439.864 1431.4 L458.22 1431.4 L458.22 1435.34 L444.146 1435.34 L444.146 1443.81 Q445.164 1443.46 446.183 1443.3 Q447.201 1443.12 448.22 1443.12 Q454.007 1443.12 457.387 1446.29 Q460.766 1449.46 460.766 1454.88 Q460.766 1460.45 457.294 1463.56 Q453.822 1466.64 447.502 1466.64 Q445.326 1466.64 443.058 1466.26 Q440.813 1465.89 438.405 1465.15 L438.405 1460.45 Q440.489 1461.59 442.711 1462.14 Q444.933 1462.7 447.41 1462.7 Q451.414 1462.7 453.752 1460.59 Q456.09 1458.49 456.09 1454.88 Q456.09 1451.26 453.752 1449.16 Q451.414 1447.05 447.41 1447.05 Q445.535 1447.05 443.66 1447.47 Q441.808 1447.89 439.864 1448.76 L439.864 1431.4 Z" fill="#000000" fill-rule="evenodd" fill-opacity="1" /><path clip-path="url(#clip580)" d="M479.979 1434.48 Q476.368 1434.48 474.539 1438.05 Q472.734 1441.59 472.734 1448.72 Q472.734 1455.83 474.539 1459.39 Q476.368 1462.93 479.979 1462.93 Q483.613 1462.93 485.419 1459.39 Q487.248 1455.83 487.248 1448.72 Q487.248 1441.59 485.419 1438.05 Q483.613 1434.48 479.979 1434.48 M479.979 1430.78 Q485.789 1430.78 488.845 1435.39 Q491.923 1439.97 491.923 1448.72 Q491.923 1457.45 488.845 1462.05 Q485.789 1466.64 479.979 1466.64 Q474.169 1466.64 471.09 1462.05 Q468.035 1457.45 468.035 1448.72 Q468.035 1439.97 471.09 1435.39 Q474.169 1430.78 479.979 1430.78 Z" fill="#000000" fill-rule="evenodd" fill-opacity="1" /><path clip-path="url(#clip580)" d="M722.568 1449.14 L752.244 1449.14 L752.244 1453.07 L722.568 1453.07 L722.568 1449.14 Z" fill="#000000" fill-rule="evenodd" fill-opacity="1" /><path clip-path="url(#clip580)" d="M772.336 1434.48 Q768.725 1434.48 766.896 1438.05 Q765.091 1441.59 765.091 1448.72 Q765.091 1455.83 766.896 1459.39 Q768.725 1462.93 772.336 1462.93 Q775.97 1462.93 777.776 1459.39 Q779.604 1455.83 779.604 1448.72 Q779.604 1441.59 777.776 1438.05 Q775.97 1434.48 772.336 1434.48 M772.336 1430.78 Q778.146 1430.78 781.202 1435.39 Q784.28 1439.97 784.28 1448.72 Q784.28 1457.45 781.202 1462.05 Q778.146 1466.64 772.336 1466.64 Q766.526 1466.64 763.447 1462.05 Q760.392 1457.45 760.392 1448.72 Q760.392 1439.97 763.447 1435.39 Q766.526 1430.78 772.336 1430.78 Z" fill="#000000" fill-rule="evenodd" fill-opacity="1" /><path clip-path="url(#clip580)" d="M792.498 1460.08 L797.382 1460.08 L797.382 1465.96 L792.498 1465.96 L792.498 1460.08 Z" fill="#000000" fill-rule="evenodd" fill-opacity="1" /><path clip-path="url(#clip580)" d="M811.595 1462.03 L827.914 1462.03 L827.914 1465.96 L805.97 1465.96 L805.97 1462.03 Q808.632 1459.27 813.215 1454.64 Q817.822 1449.99 819.002 1448.65 Q821.248 1446.13 822.127 1444.39 Q823.03 1442.63 823.03 1440.94 Q823.03 1438.19 821.086 1436.45 Q819.164 1434.71 816.063 1434.71 Q813.864 1434.71 811.41 1435.48 Q808.979 1436.24 806.202 1437.79 L806.202 1433.07 Q809.026 1431.94 811.479 1431.36 Q813.933 1430.78 815.97 1430.78 Q821.34 1430.78 824.535 1433.46 Q827.729 1436.15 827.729 1440.64 Q827.729 1442.77 826.919 1444.69 Q826.132 1446.59 824.026 1449.18 Q823.447 1449.85 820.345 1453.07 Q817.243 1456.26 811.595 1462.03 Z" fill="#000000" fill-rule="evenodd" fill-opacity="1" /><path clip-path="url(#clip580)" d="M837.775 1431.4 L856.132 1431.4 L856.132 1435.34 L842.058 1435.34 L842.058 1443.81 Q843.076 1443.46 844.095 1443.3 Q845.113 1443.12 846.132 1443.12 Q851.919 1443.12 855.299 1446.29 Q858.678 1449.46 858.678 1454.88 Q858.678 1460.45 855.206 1463.56 Q851.734 1466.64 845.414 1466.64 Q843.238 1466.64 840.97 1466.26 Q838.725 1465.89 836.317 1465.15 L836.317 1460.45 Q838.4 1461.59 840.623 1462.14 Q842.845 1462.7 845.322 1462.7 Q849.326 1462.7 851.664 1460.59 Q854.002 1458.49 854.002 1454.88 Q854.002 1451.26 851.664 1449.16 Q849.326 1447.05 845.322 1447.05 Q843.447 1447.05 841.572 1447.47 Q839.72 1447.89 837.775 1448.76 L837.775 1431.4 Z" fill="#000000" fill-rule="evenodd" fill-opacity="1" /><path clip-path="url(#clip580)" d="M1120.18 1434.48 Q1116.57 1434.48 1114.74 1438.05 Q1112.93 1441.59 1112.93 1448.72 Q1112.93 1455.83 1114.74 1459.39 Q1116.57 1462.93 1120.18 1462.93 Q1123.81 1462.93 1125.62 1459.39 Q1127.45 1455.83 1127.45 1448.72 Q1127.45 1441.59 1125.62 1438.05 Q1123.81 1434.48 1120.18 1434.48 M1120.18 1430.78 Q1125.99 1430.78 1129.04 1435.39 Q1132.12 1439.97 1132.12 1448.72 Q1132.12 1457.45 1129.04 1462.05 Q1125.99 1466.64 1120.18 1466.64 Q1114.37 1466.64 1111.29 1462.05 Q1108.23 1457.45 1108.23 1448.72 Q1108.23 1439.97 1111.29 1435.39 Q1114.37 1430.78 1120.18 1430.78 Z" fill="#000000" fill-rule="evenodd" fill-opacity="1" /><path clip-path="url(#clip580)" d="M1140.34 1460.08 L1145.22 1460.08 L1145.22 1465.96 L1140.34 1465.96 L1140.34 1460.08 Z" fill="#000000" fill-rule="evenodd" fill-opacity="1" /><path clip-path="url(#clip580)" d="M1165.41 1434.48 Q1161.8 1434.48 1159.97 1438.05 Q1158.16 1441.59 1158.16 1448.72 Q1158.16 1455.83 1159.97 1459.39 Q1161.8 1462.93 1165.41 1462.93 Q1169.04 1462.93 1170.85 1459.39 Q1172.68 1455.83 1172.68 1448.72 Q1172.68 1441.59 1170.85 1438.05 Q1169.04 1434.48 1165.41 1434.48 M1165.41 1430.78 Q1171.22 1430.78 1174.28 1435.39 Q1177.35 1439.97 1177.35 1448.72 Q1177.35 1457.45 1174.28 1462.05 Q1171.22 1466.64 1165.41 1466.64 Q1159.6 1466.64 1156.52 1462.05 Q1153.47 1457.45 1153.47 1448.72 Q1153.47 1439.97 1156.52 1435.39 Q1159.6 1430.78 1165.41 1430.78 Z" fill="#000000" fill-rule="evenodd" fill-opacity="1" /><path clip-path="url(#clip580)" d="M1195.57 1434.48 Q1191.96 1434.48 1190.13 1438.05 Q1188.33 1441.59 1188.33 1448.72 Q1188.33 1455.83 1190.13 1459.39 Q1191.96 1462.93 1195.57 1462.93 Q1199.21 1462.93 1201.01 1459.39 Q1202.84 1455.83 1202.84 1448.72 Q1202.84 1441.59 1201.01 1438.05 Q1199.21 1434.48 1195.57 1434.48 M1195.57 1430.78 Q1201.38 1430.78 1204.44 1435.39 Q1207.52 1439.97 1207.52 1448.72 Q1207.52 1457.45 1204.44 1462.05 Q1201.38 1466.64 1195.57 1466.64 Q1189.76 1466.64 1186.68 1462.05 Q1183.63 1457.45 1183.63 1448.72 Q1183.63 1439.97 1186.68 1435.39 Q1189.76 1430.78 1195.57 1430.78 Z" fill="#000000" fill-rule="evenodd" fill-opacity="1" /><path clip-path="url(#clip580)" d="M1487.93 1434.48 Q1484.32 1434.48 1482.49 1438.05 Q1480.68 1441.59 1480.68 1448.72 Q1480.68 1455.83 1482.49 1459.39 Q1484.32 1462.93 1487.93 1462.93 Q1491.56 1462.93 1493.37 1459.39 Q1495.2 1455.83 1495.2 1448.72 Q1495.2 1441.59 1493.37 1438.05 Q1491.56 1434.48 1487.93 1434.48 M1487.93 1430.78 Q1493.74 1430.78 1496.79 1435.39 Q1499.87 1439.97 1499.87 1448.72 Q1499.87 1457.45 1496.79 1462.05 Q1493.74 1466.64 1487.93 1466.64 Q1482.12 1466.64 1479.04 1462.05 Q1475.98 1457.45 1475.98 1448.72 Q1475.98 1439.97 1479.04 1435.39 Q1482.12 1430.78 1487.93 1430.78 Z" fill="#000000" fill-rule="evenodd" fill-opacity="1" /><path clip-path="url(#clip580)" d="M1508.09 1460.08 L1512.98 1460.08 L1512.98 1465.96 L1508.09 1465.96 L1508.09 1460.08 Z" fill="#000000" fill-rule="evenodd" fill-opacity="1" /><path clip-path="url(#clip580)" d="M1527.19 1462.03 L1543.51 1462.03 L1543.51 1465.96 L1521.56 1465.96 L1521.56 1462.03 Q1524.22 1459.27 1528.81 1454.64 Q1533.41 1449.99 1534.6 1448.65 Q1536.84 1446.13 1537.72 1444.39 Q1538.62 1442.63 1538.62 1440.94 Q1538.62 1438.19 1536.68 1436.45 Q1534.76 1434.71 1531.66 1434.71 Q1529.46 1434.71 1527 1435.48 Q1524.57 1436.24 1521.79 1437.79 L1521.79 1433.07 Q1524.62 1431.94 1527.07 1431.36 Q1529.53 1430.78 1531.56 1430.78 Q1536.93 1430.78 1540.13 1433.46 Q1543.32 1436.15 1543.32 1440.64 Q1543.32 1442.77 1542.51 1444.69 Q1541.72 1446.59 1539.62 1449.18 Q1539.04 1449.85 1535.94 1453.07 Q1532.84 1456.26 1527.19 1462.03 Z" fill="#000000" fill-rule="evenodd" fill-opacity="1" /><path clip-path="url(#clip580)" d="M1553.37 1431.4 L1571.72 1431.4 L1571.72 1435.34 L1557.65 1435.34 L1557.65 1443.81 Q1558.67 1443.46 1559.69 1443.3 Q1560.71 1443.12 1561.72 1443.12 Q1567.51 1443.12 1570.89 1446.29 Q1574.27 1449.46 1574.27 1454.88 Q1574.27 1460.45 1570.8 1463.56 Q1567.33 1466.64 1561.01 1466.64 Q1558.83 1466.64 1556.56 1466.26 Q1554.32 1465.89 1551.91 1465.15 L1551.91 1460.45 Q1553.99 1461.59 1556.22 1462.14 Q1558.44 1462.7 1560.91 1462.7 Q1564.92 1462.7 1567.26 1460.59 Q1569.6 1458.49 1569.6 1454.88 Q1569.6 1451.26 1567.26 1449.16 Q1564.92 1447.05 1560.91 1447.05 Q1559.04 1447.05 1557.16 1447.47 Q1555.31 1447.89 1553.37 1448.76 L1553.37 1431.4 Z" fill="#000000" fill-rule="evenodd" fill-opacity="1" /><path clip-path="url(#clip580)" d="M1854.68 1434.48 Q1851.07 1434.48 1849.24 1438.05 Q1847.44 1441.59 1847.44 1448.72 Q1847.44 1455.83 1849.24 1459.39 Q1851.07 1462.93 1854.68 1462.93 Q1858.32 1462.93 1860.12 1459.39 Q1861.95 1455.83 1861.95 1448.72 Q1861.95 1441.59 1860.12 1438.05 Q1858.32 1434.48 1854.68 1434.48 M1854.68 1430.78 Q1860.49 1430.78 1863.55 1435.39 Q1866.63 1439.97 1866.63 1448.72 Q1866.63 1457.45 1863.55 1462.05 Q1860.49 1466.64 1854.68 1466.64 Q1848.87 1466.64 1845.79 1462.05 Q1842.74 1457.45 1842.74 1448.72 Q1842.74 1439.97 1845.79 1435.39 Q1848.87 1430.78 1854.68 1430.78 Z" fill="#000000" fill-rule="evenodd" fill-opacity="1" /><path clip-path="url(#clip580)" d="M1874.85 1460.08 L1879.73 1460.08 L1879.73 1465.96 L1874.85 1465.96 L1874.85 1460.08 Z" fill="#000000" fill-rule="evenodd" fill-opacity="1" /><path clip-path="url(#clip580)" d="M1889.96 1431.4 L1908.32 1431.4 L1908.32 1435.34 L1894.24 1435.34 L1894.24 1443.81 Q1895.26 1443.46 1896.28 1443.3 Q1897.3 1443.12 1898.32 1443.12 Q1904.1 1443.12 1907.48 1446.29 Q1910.86 1449.46 1910.86 1454.88 Q1910.86 1460.45 1907.39 1463.56 Q1903.92 1466.64 1897.6 1466.64 Q1895.42 1466.64 1893.16 1466.26 Q1890.91 1465.89 1888.5 1465.15 L1888.5 1460.45 Q1890.59 1461.59 1892.81 1462.14 Q1895.03 1462.7 1897.51 1462.7 Q1901.51 1462.7 1903.85 1460.59 Q1906.19 1458.49 1906.19 1454.88 Q1906.19 1451.26 1903.85 1449.16 Q1901.51 1447.05 1897.51 1447.05 Q1895.63 1447.05 1893.76 1447.47 Q1891.91 1447.89 1889.96 1448.76 L1889.96 1431.4 Z" fill="#000000" fill-rule="evenodd" fill-opacity="1" /><path clip-path="url(#clip580)" d="M1930.08 1434.48 Q1926.47 1434.48 1924.64 1438.05 Q1922.83 1441.59 1922.83 1448.72 Q1922.83 1455.83 1924.64 1459.39 Q1926.47 1462.93 1930.08 1462.93 Q1933.71 1462.93 1935.52 1459.39 Q1937.35 1455.83 1937.35 1448.72 Q1937.35 1441.59 1935.52 1438.05 Q1933.71 1434.48 1930.08 1434.48 M1930.08 1430.78 Q1935.89 1430.78 1938.94 1435.39 Q1942.02 1439.97 1942.02 1448.72 Q1942.02 1457.45 1938.94 1462.05 Q1935.89 1466.64 1930.08 1466.64 Q1924.27 1466.64 1921.19 1462.05 Q1918.13 1457.45 1918.13 1448.72 Q1918.13 1439.97 1921.19 1435.39 Q1924.27 1430.78 1930.08 1430.78 Z" fill="#000000" fill-rule="evenodd" fill-opacity="1" /><path clip-path="url(#clip580)" d="M993.165 1509.98 L999.022 1509.98 L999.022 1545.63 L993.165 1545.63 L993.165 1509.98 M993.165 1496.1 L999.022 1496.1 L999.022 1503.52 L993.165 1503.52 L993.165 1496.1 Z" fill="#000000" fill-rule="evenodd" fill-opacity="1" /><path clip-path="url(#clip580)" d="M1040.91 1524.11 L1040.91 1545.63 L1035.05 1545.63 L1035.05 1524.3 Q1035.05 1519.24 1033.08 1516.73 Q1031.1 1514.21 1027.16 1514.21 Q1022.42 1514.21 1019.68 1517.24 Q1016.94 1520.26 1016.94 1525.48 L1016.94 1545.63 L1011.05 1545.63 L1011.05 1509.98 L1016.94 1509.98 L1016.94 1515.52 Q1019.04 1512.3 1021.87 1510.71 Q1024.74 1509.12 1028.46 1509.12 Q1034.61 1509.12 1037.76 1512.94 Q1040.91 1516.73 1040.91 1524.11 Z" fill="#000000" fill-rule="evenodd" fill-opacity="1" /><path clip-path="url(#clip580)" d="M1078.24 1511.35 L1078.24 1516.82 Q1075.76 1515.45 1073.25 1514.79 Q1070.76 1514.09 1068.22 1514.09 Q1062.52 1514.09 1059.37 1517.71 Q1056.22 1521.31 1056.22 1527.84 Q1056.22 1534.36 1059.37 1537.99 Q1062.52 1541.59 1068.22 1541.59 Q1070.76 1541.59 1073.25 1540.92 Q1075.76 1540.22 1078.24 1538.85 L1078.24 1544.26 Q1075.79 1545.41 1073.15 1545.98 Q1070.54 1546.55 1067.58 1546.55 Q1059.53 1546.55 1054.79 1541.49 Q1050.04 1536.43 1050.04 1527.84 Q1050.04 1519.11 1054.82 1514.12 Q1059.62 1509.12 1067.96 1509.12 Q1070.67 1509.12 1073.25 1509.69 Q1075.82 1510.23 1078.24 1511.35 Z" fill="#000000" fill-rule="evenodd" fill-opacity="1" /><path clip-path="url(#clip580)" d="M1102.24 1514.09 Q1097.53 1514.09 1094.79 1517.78 Q1092.06 1521.44 1092.06 1527.84 Q1092.06 1534.23 1094.76 1537.93 Q1097.5 1541.59 1102.24 1541.59 Q1106.92 1541.59 1109.66 1537.89 Q1112.39 1534.2 1112.39 1527.84 Q1112.39 1521.5 1109.66 1517.81 Q1106.92 1514.09 1102.24 1514.09 M1102.24 1509.12 Q1109.88 1509.12 1114.24 1514.09 Q1118.6 1519.05 1118.6 1527.84 Q1118.6 1536.59 1114.24 1541.59 Q1109.88 1546.55 1102.24 1546.55 Q1094.57 1546.55 1090.21 1541.59 Q1085.88 1536.59 1085.88 1527.84 Q1085.88 1519.05 1090.21 1514.09 Q1094.57 1509.12 1102.24 1509.12 Z" fill="#000000" fill-rule="evenodd" fill-opacity="1" /><path clip-path="url(#clip580)" d="M1156.06 1516.82 Q1158.26 1512.88 1161.32 1511 Q1164.37 1509.12 1168.51 1509.12 Q1174.08 1509.12 1177.1 1513.04 Q1180.13 1516.92 1180.13 1524.11 L1180.13 1545.63 L1174.24 1545.63 L1174.24 1524.3 Q1174.24 1519.18 1172.42 1516.7 Q1170.61 1514.21 1166.89 1514.21 Q1162.33 1514.21 1159.69 1517.24 Q1157.05 1520.26 1157.05 1525.48 L1157.05 1545.63 L1151.16 1545.63 L1151.16 1524.3 Q1151.16 1519.15 1149.35 1516.7 Q1147.53 1514.21 1143.75 1514.21 Q1139.26 1514.21 1136.62 1517.27 Q1133.97 1520.29 1133.97 1525.48 L1133.97 1545.63 L1128.09 1545.63 L1128.09 1509.98 L1133.97 1509.98 L1133.97 1515.52 Q1135.98 1512.24 1138.78 1510.68 Q1141.58 1509.12 1145.43 1509.12 Q1149.32 1509.12 1152.02 1511.09 Q1154.76 1513.07 1156.06 1516.82 Z" fill="#000000" fill-rule="evenodd" fill-opacity="1" /><path clip-path="url(#clip580)" d="M1222.3 1526.34 L1222.3 1529.2 L1195.37 1529.2 Q1195.75 1535.25 1199 1538.43 Q1202.28 1541.59 1208.1 1541.59 Q1211.48 1541.59 1214.63 1540.76 Q1217.81 1539.93 1220.93 1538.28 L1220.93 1543.81 Q1217.78 1545.15 1214.47 1545.85 Q1211.16 1546.55 1207.75 1546.55 Q1199.22 1546.55 1194.23 1541.59 Q1189.26 1536.62 1189.26 1528.15 Q1189.26 1519.4 1193.97 1514.28 Q1198.71 1509.12 1206.73 1509.12 Q1213.93 1509.12 1218.1 1513.77 Q1222.3 1518.38 1222.3 1526.34 M1216.44 1524.62 Q1216.38 1519.81 1213.74 1516.95 Q1211.13 1514.09 1206.8 1514.09 Q1201.9 1514.09 1198.94 1516.85 Q1196.01 1519.62 1195.56 1524.65 L1216.44 1524.62 Z" fill="#000000" fill-rule="evenodd" fill-opacity="1" /><polyline clip-path="url(#clip582)" style="stroke:#000000; stroke-linecap:round; stroke-linejoin:round; stroke-width:2; stroke-opacity:0.1; fill:none" points="262.708,1267.73 1952.76,1267.73 "/>
<polyline clip-path="url(#clip582)" style="stroke:#000000; stroke-linecap:round; stroke-linejoin:round; stroke-width:2; stroke-opacity:0.1; fill:none" points="262.708,1008.11 1952.76,1008.11 "/>
<polyline clip-path="url(#clip582)" style="stroke:#000000; stroke-linecap:round; stroke-linejoin:round; stroke-width:2; stroke-opacity:0.1; fill:none" points="262.708,748.485 1952.76,748.485 "/>
<polyline clip-path="url(#clip582)" style="stroke:#000000; stroke-linecap:round; stroke-linejoin:round; stroke-width:2; stroke-opacity:0.1; fill:none" points="262.708,488.86 1952.76,488.86 "/>
<polyline clip-path="url(#clip582)" style="stroke:#000000; stroke-linecap:round; stroke-linejoin:round; stroke-width:2; stroke-opacity:0.1; fill:none" points="262.708,229.235 1952.76,229.235 "/>
<polyline clip-path="url(#clip580)" style="stroke:#000000; stroke-linecap:round; stroke-linejoin:round; stroke-width:4; stroke-opacity:1; fill:none" points="262.708,1406.76 262.708,47.2441 "/>
<polyline clip-path="url(#clip580)" style="stroke:#000000; stroke-linecap:round; stroke-linejoin:round; stroke-width:4; stroke-opacity:1; fill:none" points="262.708,1267.73 281.606,1267.73 "/>
<polyline clip-path="url(#clip580)" style="stroke:#000000; stroke-linecap:round; stroke-linejoin:round; stroke-width:4; stroke-opacity:1; fill:none" points="262.708,1008.11 281.606,1008.11 "/>
<polyline clip-path="url(#clip580)" style="stroke:#000000; stroke-linecap:round; stroke-linejoin:round; stroke-width:4; stroke-opacity:1; fill:none" points="262.708,748.485 281.606,748.485 "/>
<polyline clip-path="url(#clip580)" style="stroke:#000000; stroke-linecap:round; stroke-linejoin:round; stroke-width:4; stroke-opacity:1; fill:none" points="262.708,488.86 281.606,488.86 "/>
<polyline clip-path="url(#clip580)" style="stroke:#000000; stroke-linecap:round; stroke-linejoin:round; stroke-width:4; stroke-opacity:1; fill:none" points="262.708,229.235 281.606,229.235 "/>
<path clip-path="url(#clip580)" d="M126.76 1268.19 L156.435 1268.19 L156.435 1272.12 L126.76 1272.12 L126.76 1268.19 Z" fill="#000000" fill-rule="evenodd" fill-opacity="1" /><path clip-path="url(#clip580)" d="M167.338 1281.08 L174.977 1281.08 L174.977 1254.71 L166.667 1256.38 L166.667 1252.12 L174.931 1250.45 L179.606 1250.45 L179.606 1281.08 L187.245 1281.08 L187.245 1285.01 L167.338 1285.01 L167.338 1281.08 Z" fill="#000000" fill-rule="evenodd" fill-opacity="1" /><path clip-path="url(#clip580)" d="M196.69 1279.14 L201.574 1279.14 L201.574 1285.01 L196.69 1285.01 L196.69 1279.14 Z" fill="#000000" fill-rule="evenodd" fill-opacity="1" /><path clip-path="url(#clip580)" d="M211.805 1250.45 L230.162 1250.45 L230.162 1254.39 L216.088 1254.39 L216.088 1262.86 Q217.106 1262.52 218.125 1262.35 Q219.143 1262.17 220.162 1262.17 Q225.949 1262.17 229.328 1265.34 Q232.708 1268.51 232.708 1273.93 Q232.708 1279.51 229.236 1282.61 Q225.764 1285.69 219.444 1285.69 Q217.268 1285.69 215 1285.32 Q212.754 1284.95 210.347 1284.2 L210.347 1279.51 Q212.43 1280.64 214.653 1281.2 Q216.875 1281.75 219.352 1281.75 Q223.356 1281.75 225.694 1279.64 Q228.032 1277.54 228.032 1273.93 Q228.032 1270.32 225.694 1268.21 Q223.356 1266.1 219.352 1266.1 Q217.477 1266.1 215.602 1266.52 Q213.75 1266.94 211.805 1267.82 L211.805 1250.45 Z" fill="#000000" fill-rule="evenodd" fill-opacity="1" /><path clip-path="url(#clip580)" d="M125.764 1008.56 L155.44 1008.56 L155.44 1012.5 L125.764 1012.5 L125.764 1008.56 Z" fill="#000000" fill-rule="evenodd" fill-opacity="1" /><path clip-path="url(#clip580)" d="M166.343 1021.45 L173.981 1021.45 L173.981 995.089 L165.671 996.756 L165.671 992.497 L173.935 990.83 L178.611 990.83 L178.611 1021.45 L186.25 1021.45 L186.25 1025.39 L166.343 1025.39 L166.343 1021.45 Z" fill="#000000" fill-rule="evenodd" fill-opacity="1" /><path clip-path="url(#clip580)" d="M195.694 1019.51 L200.579 1019.51 L200.579 1025.39 L195.694 1025.39 L195.694 1019.51 Z" fill="#000000" fill-rule="evenodd" fill-opacity="1" /><path clip-path="url(#clip580)" d="M220.764 993.909 Q217.153 993.909 215.324 997.473 Q213.518 1001.02 213.518 1008.14 Q213.518 1015.25 215.324 1018.82 Q217.153 1022.36 220.764 1022.36 Q224.398 1022.36 226.203 1018.82 Q228.032 1015.25 228.032 1008.14 Q228.032 1001.02 226.203 997.473 Q224.398 993.909 220.764 993.909 M220.764 990.205 Q226.574 990.205 229.629 994.811 Q232.708 999.395 232.708 1008.14 Q232.708 1016.87 229.629 1021.48 Q226.574 1026.06 220.764 1026.06 Q214.953 1026.06 211.875 1021.48 Q208.819 1016.87 208.819 1008.14 Q208.819 999.395 211.875 994.811 Q214.953 990.205 220.764 990.205 Z" fill="#000000" fill-rule="evenodd" fill-opacity="1" /><path clip-path="url(#clip580)" d="M126.76 748.936 L156.435 748.936 L156.435 752.871 L126.76 752.871 L126.76 748.936 Z" fill="#000000" fill-rule="evenodd" fill-opacity="1" /><path clip-path="url(#clip580)" d="M176.528 734.284 Q172.917 734.284 171.088 737.848 Q169.282 741.39 169.282 748.52 Q169.282 755.626 171.088 759.191 Q172.917 762.733 176.528 762.733 Q180.162 762.733 181.968 759.191 Q183.796 755.626 183.796 748.52 Q183.796 741.39 181.968 737.848 Q180.162 734.284 176.528 734.284 M176.528 730.58 Q182.338 730.58 185.393 735.186 Q188.472 739.77 188.472 748.52 Q188.472 757.246 185.393 761.853 Q182.338 766.436 176.528 766.436 Q170.718 766.436 167.639 761.853 Q164.583 757.246 164.583 748.52 Q164.583 739.77 167.639 735.186 Q170.718 730.58 176.528 730.58 Z" fill="#000000" fill-rule="evenodd" fill-opacity="1" /><path clip-path="url(#clip580)" d="M196.69 759.885 L201.574 759.885 L201.574 765.765 L196.69 765.765 L196.69 759.885 Z" fill="#000000" fill-rule="evenodd" fill-opacity="1" /><path clip-path="url(#clip580)" d="M211.805 731.205 L230.162 731.205 L230.162 735.14 L216.088 735.14 L216.088 743.612 Q217.106 743.265 218.125 743.103 Q219.143 742.918 220.162 742.918 Q225.949 742.918 229.328 746.089 Q232.708 749.26 232.708 754.677 Q232.708 760.256 229.236 763.358 Q225.764 766.436 219.444 766.436 Q217.268 766.436 215 766.066 Q212.754 765.695 210.347 764.955 L210.347 760.256 Q212.43 761.39 214.653 761.945 Q216.875 762.501 219.352 762.501 Q223.356 762.501 225.694 760.395 Q228.032 758.288 228.032 754.677 Q228.032 751.066 225.694 748.959 Q223.356 746.853 219.352 746.853 Q217.477 746.853 215.602 747.27 Q213.75 747.686 211.805 748.566 L211.805 731.205 Z" fill="#000000" fill-rule="evenodd" fill-opacity="1" /><path clip-path="url(#clip580)" d="M175.532 474.659 Q171.921 474.659 170.093 478.223 Q168.287 481.765 168.287 488.895 Q168.287 496.001 170.093 499.566 Q171.921 503.108 175.532 503.108 Q179.167 503.108 180.972 499.566 Q182.801 496.001 182.801 488.895 Q182.801 481.765 180.972 478.223 Q179.167 474.659 175.532 474.659 M175.532 470.955 Q181.343 470.955 184.398 475.561 Q187.477 480.145 187.477 488.895 Q187.477 497.621 184.398 502.228 Q181.343 506.811 175.532 506.811 Q169.722 506.811 166.644 502.228 Q163.588 497.621 163.588 488.895 Q163.588 480.145 166.644 475.561 Q169.722 470.955 175.532 470.955 Z" fill="#000000" fill-rule="evenodd" fill-opacity="1" /><path clip-path="url(#clip580)" d="M195.694 500.26 L200.579 500.26 L200.579 506.14 L195.694 506.14 L195.694 500.26 Z" fill="#000000" fill-rule="evenodd" fill-opacity="1" /><path clip-path="url(#clip580)" d="M220.764 474.659 Q217.153 474.659 215.324 478.223 Q213.518 481.765 213.518 488.895 Q213.518 496.001 215.324 499.566 Q217.153 503.108 220.764 503.108 Q224.398 503.108 226.203 499.566 Q228.032 496.001 228.032 488.895 Q228.032 481.765 226.203 478.223 Q224.398 474.659 220.764 474.659 M220.764 470.955 Q226.574 470.955 229.629 475.561 Q232.708 480.145 232.708 488.895 Q232.708 497.621 229.629 502.228 Q226.574 506.811 220.764 506.811 Q214.953 506.811 211.875 502.228 Q208.819 497.621 208.819 488.895 Q208.819 480.145 211.875 475.561 Q214.953 470.955 220.764 470.955 Z" fill="#000000" fill-rule="evenodd" fill-opacity="1" /><path clip-path="url(#clip580)" d="M176.528 215.034 Q172.917 215.034 171.088 218.598 Q169.282 222.14 169.282 229.27 Q169.282 236.376 171.088 239.941 Q172.917 243.483 176.528 243.483 Q180.162 243.483 181.968 239.941 Q183.796 236.376 183.796 229.27 Q183.796 222.14 181.968 218.598 Q180.162 215.034 176.528 215.034 M176.528 211.33 Q182.338 211.33 185.393 215.936 Q188.472 220.52 188.472 229.27 Q188.472 237.996 185.393 242.603 Q182.338 247.186 176.528 247.186 Q170.718 247.186 167.639 242.603 Q164.583 237.996 164.583 229.27 Q164.583 220.52 167.639 215.936 Q170.718 211.33 176.528 211.33 Z" fill="#000000" fill-rule="evenodd" fill-opacity="1" /><path clip-path="url(#clip580)" d="M196.69 240.635 L201.574 240.635 L201.574 246.515 L196.69 246.515 L196.69 240.635 Z" fill="#000000" fill-rule="evenodd" fill-opacity="1" /><path clip-path="url(#clip580)" d="M211.805 211.955 L230.162 211.955 L230.162 215.89 L216.088 215.89 L216.088 224.362 Q217.106 224.015 218.125 223.853 Q219.143 223.668 220.162 223.668 Q225.949 223.668 229.328 226.839 Q232.708 230.01 232.708 235.427 Q232.708 241.006 229.236 244.108 Q225.764 247.186 219.444 247.186 Q217.268 247.186 215 246.816 Q212.754 246.445 210.347 245.705 L210.347 241.006 Q212.43 242.14 214.653 242.696 Q216.875 243.251 219.352 243.251 Q223.356 243.251 225.694 241.145 Q228.032 239.038 228.032 235.427 Q228.032 231.816 225.694 229.709 Q223.356 227.603 219.352 227.603 Q217.477 227.603 215.602 228.02 Q213.75 228.436 211.805 229.316 L211.805 211.955 Z" fill="#000000" fill-rule="evenodd" fill-opacity="1" /><path clip-path="url(#clip580)" d="M63.5887 765.596 Q63.5887 772.694 65.2119 775.431 Q66.8352 778.168 70.7501 778.168 Q73.8693 778.168 75.7154 776.131 Q77.5296 774.062 77.5296 770.529 Q77.5296 765.66 74.0921 762.731 Q70.6228 759.771 64.8937 759.771 L63.5887 759.771 L63.5887 765.596 M61.1697 753.915 L81.5082 753.915 L81.5082 759.771 L76.0973 759.771 Q79.3438 761.777 80.9034 764.769 Q82.4312 767.76 82.4312 772.089 Q82.4312 777.564 79.3756 780.81 Q76.2883 784.025 71.1321 784.025 Q65.1165 784.025 62.0609 780.014 Q59.0054 775.972 59.0054 767.983 L59.0054 759.771 L58.4325 759.771 Q54.3902 759.771 52.1941 762.445 Q49.9661 765.087 49.9661 769.893 Q49.9661 772.948 50.6981 775.845 Q51.4302 778.741 52.8943 781.415 L47.4835 781.415 Q46.2421 778.2 45.6374 775.176 Q45.0008 772.153 45.0008 769.288 Q45.0008 761.554 49.0112 757.734 Q53.0216 753.915 61.1697 753.915 Z" fill="#000000" fill-rule="evenodd" fill-opacity="1" /><path clip-path="url(#clip580)" d="M63.2704 718.394 Q56.9047 718.394 53.4036 721.036 Q49.9024 723.646 49.9024 728.389 Q49.9024 733.099 53.4036 735.741 Q56.9047 738.351 63.2704 738.351 Q69.6043 738.351 73.1054 735.741 Q76.6066 733.099 76.6066 728.389 Q76.6066 723.646 73.1054 721.036 Q69.6043 718.394 63.2704 718.394 M77.084 712.538 Q86.187 712.538 90.6111 716.58 Q95.0671 720.622 95.0671 728.961 Q95.0671 732.049 94.5897 734.786 Q94.1441 737.523 93.1892 740.101 L87.4919 740.101 Q88.8924 737.523 89.5608 735.009 Q90.2292 732.494 90.2292 729.884 Q90.2292 724.123 87.2055 721.259 Q84.2136 718.394 78.1343 718.394 L75.2379 718.394 Q78.389 720.209 79.9486 723.041 Q81.5082 725.874 81.5082 729.821 Q81.5082 736.377 76.5111 740.388 Q71.514 744.398 63.2704 744.398 Q54.995 744.398 49.9979 740.388 Q45.0008 736.377 45.0008 729.821 Q45.0008 725.874 46.5604 723.041 Q48.12 720.209 51.2711 718.394 L45.8602 718.394 L45.8602 712.538 L77.084 712.538 Z" fill="#000000" fill-rule="evenodd" fill-opacity="1" /><path clip-path="url(#clip580)" d="M62.2201 669.983 L65.0846 669.983 L65.0846 696.91 Q71.1321 696.528 74.3149 693.282 Q77.4659 690.003 77.4659 684.179 Q77.4659 680.805 76.6384 677.654 Q75.8109 674.471 74.1558 671.352 L79.6939 671.352 Q81.0307 674.503 81.731 677.813 Q82.4312 681.123 82.4312 684.529 Q82.4312 693.059 77.4659 698.056 Q72.5007 703.021 64.0343 703.021 Q55.2814 703.021 50.1571 698.311 Q45.0008 693.568 45.0008 685.547 Q45.0008 678.354 49.6478 674.185 Q54.2629 669.983 62.2201 669.983 M60.5013 675.84 Q55.6952 675.903 52.8306 678.545 Q49.9661 681.155 49.9661 685.484 Q49.9661 690.385 52.7352 693.345 Q55.5042 696.274 60.5332 696.719 L60.5013 675.84 Z" fill="#000000" fill-rule="evenodd" fill-opacity="1" /><circle clip-path="url(#clip582)" cx="583.109" cy="662.898" r="36" fill="#00a1ff" fill-rule="evenodd" fill-opacity="1" stroke="#000000" stroke-opacity="1" stroke-width="3.2"/>
<circle clip-path="url(#clip582)" cx="802.088" cy="648.317" r="36" fill="#e69f00" fill-rule="evenodd" fill-opacity="1" stroke="#000000" stroke-opacity="1" stroke-width="3.2"/>
<polyline clip-path="url(#clip582)" style="stroke:#000000; stroke-linecap:round; stroke-linejoin:round; stroke-width:8; stroke-opacity:1; fill:none" points="583.109,662.898 802.088,648.317 "/>
<polyline clip-path="url(#clip582)" style="stroke:#000000; stroke-linecap:round; stroke-linejoin:round; stroke-width:8; stroke-opacity:1; fill:none" points="771.158,635.344 802.088,648.317 773.151,665.277 "/>
<polyline clip-path="url(#clip582)" style="stroke:#000000; stroke-linecap:round; stroke-linejoin:round; stroke-width:8; stroke-opacity:1; fill:none" points="802.088,648.317 583.109,662.898 "/>
<circle clip-path="url(#clip582)" cx="1381.34" cy="365.892" r="36" fill="#00a1ff" fill-rule="evenodd" fill-opacity="1" stroke="#000000" stroke-opacity="1" stroke-width="3.2"/>
<circle clip-path="url(#clip582)" cx="1377.37" cy="297.769" r="36" fill="#e69f00" fill-rule="evenodd" fill-opacity="1" stroke="#000000" stroke-opacity="1" stroke-width="3.2"/>
<polyline clip-path="url(#clip582)" style="stroke:#000000; stroke-linecap:round; stroke-linejoin:round; stroke-width:8; stroke-opacity:1; fill:none" points="1381.34,365.892 1377.37,297.769 "/>
<polyline clip-path="url(#clip582)" style="stroke:#000000; stroke-linecap:round; stroke-linejoin:round; stroke-width:8; stroke-opacity:1; fill:none" points="1364.14,328.589 1377.37,297.769 1394.09,326.847 "/>
<polyline clip-path="url(#clip582)" style="stroke:#000000; stroke-linecap:round; stroke-linejoin:round; stroke-width:8; stroke-opacity:1; fill:none" points="1377.37,297.769 1381.34,365.892 "/>
<circle clip-path="url(#clip582)" cx="594.66" cy="106.012" r="36" fill="#00a1ff" fill-rule="evenodd" fill-opacity="1" stroke="#000000" stroke-opacity="1" stroke-width="3.2"/>
<circle clip-path="url(#clip582)" cx="932.031" cy="85.7211" r="36" fill="#e69f00" fill-rule="evenodd" fill-opacity="1" stroke="#000000" stroke-opacity="1" stroke-width="3.2"/>
<polyline clip-path="url(#clip582)" style="stroke:#000000; stroke-linecap:round; stroke-linejoin:round; stroke-width:8; stroke-opacity:1; fill:none" points="594.66,106.012 932.031,85.7211 "/>
<polyline clip-path="url(#clip582)" style="stroke:#000000; stroke-linecap:round; stroke-linejoin:round; stroke-width:8; stroke-opacity:1; fill:none" points="901.185,72.5492 932.031,85.7211 902.986,102.495 "/>
<polyline clip-path="url(#clip582)" style="stroke:#000000; stroke-linecap:round; stroke-linejoin:round; stroke-width:8; stroke-opacity:1; fill:none" points="932.031,85.7211 594.66,106.012 "/>
<circle clip-path="url(#clip582)" cx="1052.56" cy="365.892" r="36" fill="#00a1ff" fill-rule="evenodd" fill-opacity="1" stroke="#000000" stroke-opacity="1" stroke-width="3.2"/>
<circle clip-path="url(#clip582)" cx="1087.13" cy="365.892" r="36" fill="#e69f00" fill-rule="evenodd" fill-opacity="1" stroke="#000000" stroke-opacity="1" stroke-width="3.2"/>
<polyline clip-path="url(#clip582)" style="stroke:#000000; stroke-linecap:round; stroke-linejoin:round; stroke-width:8; stroke-opacity:1; fill:none" points="1052.56,365.892 1087.13,365.892 "/>
<polyline clip-path="url(#clip582)" style="stroke:#000000; stroke-linecap:round; stroke-linejoin:round; stroke-width:8; stroke-opacity:1; fill:none" points="1057.13,350.892 1087.13,365.892 1057.13,380.892 "/>
<polyline clip-path="url(#clip582)" style="stroke:#000000; stroke-linecap:round; stroke-linejoin:round; stroke-width:8; stroke-opacity:1; fill:none" points="1087.13,365.892 1052.56,365.892 "/>
<circle clip-path="url(#clip582)" cx="956.707" cy="959.904" r="36" fill="#00a1ff" fill-rule="evenodd" fill-opacity="1" stroke="#000000" stroke-opacity="1" stroke-width="3.2"/>
<circle clip-path="url(#clip582)" cx="935.989" cy="882.685" r="36" fill="#e69f00" fill-rule="evenodd" fill-opacity="1" stroke="#000000" stroke-opacity="1" stroke-width="3.2"/>
<polyline clip-path="url(#clip582)" style="stroke:#000000; stroke-linecap:round; stroke-linejoin:round; stroke-width:8; stroke-opacity:1; fill:none" points="956.707,959.904 935.989,882.685 "/>
<polyline clip-path="url(#clip582)" style="stroke:#000000; stroke-linecap:round; stroke-linejoin:round; stroke-width:8; stroke-opacity:1; fill:none" points="929.275,915.548 935.989,882.685 958.25,907.773 "/>
<polyline clip-path="url(#clip582)" style="stroke:#000000; stroke-linecap:round; stroke-linejoin:round; stroke-width:8; stroke-opacity:1; fill:none" points="935.989,882.685 956.707,959.904 "/>
<circle clip-path="url(#clip582)" cx="456.737" cy="774.275" r="36" fill="#00a1ff" fill-rule="evenodd" fill-opacity="1" stroke="#000000" stroke-opacity="1" stroke-width="3.2"/>
<circle clip-path="url(#clip582)" cx="549.499" cy="722.88" r="36" fill="#e69f00" fill-rule="evenodd" fill-opacity="1" stroke="#000000" stroke-opacity="1" stroke-width="3.2"/>
<polyline clip-path="url(#clip582)" style="stroke:#000000; stroke-linecap:round; stroke-linejoin:round; stroke-width:8; stroke-opacity:1; fill:none" points="456.737,774.275 549.499,722.88 "/>
<polyline clip-path="url(#clip582)" style="stroke:#000000; stroke-linecap:round; stroke-linejoin:round; stroke-width:8; stroke-opacity:1; fill:none" points="515.988,724.298 549.499,722.88 530.527,750.54 "/>
<polyline clip-path="url(#clip582)" style="stroke:#000000; stroke-linecap:round; stroke-linejoin:round; stroke-width:8; stroke-opacity:1; fill:none" points="549.499,722.88 456.737,774.275 "/>
<circle clip-path="url(#clip582)" cx="703.619" cy="106.012" r="36" fill="#00a1ff" fill-rule="evenodd" fill-opacity="1" stroke="#000000" stroke-opacity="1" stroke-width="3.2"/>
<circle clip-path="url(#clip582)" cx="824.292" cy="106.012" r="36" fill="#e69f00" fill-rule="evenodd" fill-opacity="1" stroke="#000000" stroke-opacity="1" stroke-width="3.2"/>
<polyline clip-path="url(#clip582)" style="stroke:#000000; stroke-linecap:round; stroke-linejoin:round; stroke-width:8; stroke-opacity:1; fill:none" points="703.619,106.012 824.292,106.012 "/>
<polyline clip-path="url(#clip582)" style="stroke:#000000; stroke-linecap:round; stroke-linejoin:round; stroke-width:8; stroke-opacity:1; fill:none" points="794.292,91.0123 824.292,106.012 794.292,121.012 "/>
<polyline clip-path="url(#clip582)" style="stroke:#000000; stroke-linecap:round; stroke-linejoin:round; stroke-width:8; stroke-opacity:1; fill:none" points="824.292,106.012 703.619,106.012 "/>
<circle clip-path="url(#clip582)" cx="439.497" cy="1368.29" r="36" fill="#00a1ff" fill-rule="evenodd" fill-opacity="1" stroke="#000000" stroke-opacity="1" stroke-width="3.2"/>
<circle clip-path="url(#clip582)" cx="432.767" cy="1322.08" r="36" fill="#e69f00" fill-rule="evenodd" fill-opacity="1" stroke="#000000" stroke-opacity="1" stroke-width="3.2"/>
<polyline clip-path="url(#clip582)" style="stroke:#000000; stroke-linecap:round; stroke-linejoin:round; stroke-width:8; stroke-opacity:1; fill:none" points="439.497,1368.29 432.767,1322.08 "/>
<polyline clip-path="url(#clip582)" style="stroke:#000000; stroke-linecap:round; stroke-linejoin:round; stroke-width:8; stroke-opacity:1; fill:none" points="422.248,1353.93 432.767,1322.08 451.935,1349.61 "/>
<polyline clip-path="url(#clip582)" style="stroke:#000000; stroke-linecap:round; stroke-linejoin:round; stroke-width:8; stroke-opacity:1; fill:none" points="432.767,1322.08 439.497,1368.29 "/>
<circle clip-path="url(#clip582)" cx="310.54" cy="291.641" r="36" fill="#00a1ff" fill-rule="evenodd" fill-opacity="1" stroke="#000000" stroke-opacity="1" stroke-width="3.2"/>
<circle clip-path="url(#clip582)" cx="405.858" cy="291.641" r="36" fill="#e69f00" fill-rule="evenodd" fill-opacity="1" stroke="#000000" stroke-opacity="1" stroke-width="3.2"/>
<polyline clip-path="url(#clip582)" style="stroke:#000000; stroke-linecap:round; stroke-linejoin:round; stroke-width:8; stroke-opacity:1; fill:none" points="310.54,291.641 405.858,291.641 "/>
<polyline clip-path="url(#clip582)" style="stroke:#000000; stroke-linecap:round; stroke-linejoin:round; stroke-width:8; stroke-opacity:1; fill:none" points="375.858,276.641 405.858,291.641 375.858,306.641 "/>
<polyline clip-path="url(#clip582)" style="stroke:#000000; stroke-linecap:round; stroke-linejoin:round; stroke-width:8; stroke-opacity:1; fill:none" points="405.858,291.641 310.54,291.641 "/>
<circle clip-path="url(#clip582)" cx="1904.92" cy="403.018" r="36" fill="#00a1ff" fill-rule="evenodd" fill-opacity="1" stroke="#000000" stroke-opacity="1" stroke-width="3.2"/>
<circle clip-path="url(#clip582)" cx="1737.78" cy="403.018" r="36" fill="#e69f00" fill-rule="evenodd" fill-opacity="1" stroke="#000000" stroke-opacity="1" stroke-width="3.2"/>
<polyline clip-path="url(#clip582)" style="stroke:#000000; stroke-linecap:round; stroke-linejoin:round; stroke-width:8; stroke-opacity:1; fill:none" points="1904.92,403.018 1737.78,403.018 "/>
<polyline clip-path="url(#clip582)" style="stroke:#000000; stroke-linecap:round; stroke-linejoin:round; stroke-width:8; stroke-opacity:1; fill:none" points="1767.78,418.018 1737.78,403.018 1767.78,388.018 "/>
<polyline clip-path="url(#clip582)" style="stroke:#000000; stroke-linecap:round; stroke-linejoin:round; stroke-width:8; stroke-opacity:1; fill:none" points="1737.78,403.018 1904.92,403.018 "/>
<path clip-path="url(#clip580)" d="M1411.72 1361.45 L1896.42 1361.45 L1896.42 1205.93 L1411.72 1205.93  Z" fill="#ffffff" fill-rule="evenodd" fill-opacity="1"/>
<polyline clip-path="url(#clip580)" style="stroke:#000000; stroke-linecap:round; stroke-linejoin:round; stroke-width:4; stroke-opacity:1; fill:none" points="1411.72,1361.45 1896.42,1361.45 1896.42,1205.93 1411.72,1205.93 1411.72,1361.45 "/>
<circle clip-path="url(#clip580)" cx="1486.84" cy="1257.77" r="23.04" fill="#00a1ff" fill-rule="evenodd" fill-opacity="1" stroke="#000000" stroke-opacity="1" stroke-width="2.048"/>
<path clip-path="url(#clip580)" d="M1561.95 1239.03 L1566.21 1239.03 L1566.21 1275.05 L1561.95 1275.05 L1561.95 1239.03 Z" fill="#000000" fill-rule="evenodd" fill-opacity="1" /><path clip-path="url(#clip580)" d="M1585.17 1252.11 Q1581.74 1252.11 1579.75 1254.79 Q1577.76 1257.45 1577.76 1262.11 Q1577.76 1266.76 1579.73 1269.44 Q1581.72 1272.11 1585.17 1272.11 Q1588.57 1272.11 1590.56 1269.42 Q1592.55 1266.74 1592.55 1262.11 Q1592.55 1257.5 1590.56 1254.82 Q1588.57 1252.11 1585.17 1252.11 M1585.17 1248.5 Q1590.72 1248.5 1593.89 1252.11 Q1597.07 1255.72 1597.07 1262.11 Q1597.07 1268.47 1593.89 1272.11 Q1590.72 1275.72 1585.17 1275.72 Q1579.59 1275.72 1576.42 1272.11 Q1573.27 1268.47 1573.27 1262.11 Q1573.27 1255.72 1576.42 1252.11 Q1579.59 1248.5 1585.17 1248.5 Z" fill="#000000" fill-rule="evenodd" fill-opacity="1" /><path clip-path="url(#clip580)" d="M1615.91 1262.01 Q1610.75 1262.01 1608.76 1263.19 Q1606.76 1264.38 1606.76 1267.22 Q1606.76 1269.49 1608.25 1270.83 Q1609.75 1272.15 1612.32 1272.15 Q1615.86 1272.15 1617.99 1269.65 Q1620.14 1267.13 1620.14 1262.96 L1620.14 1262.01 L1615.91 1262.01 M1624.4 1260.25 L1624.4 1275.05 L1620.14 1275.05 L1620.14 1271.11 Q1618.69 1273.47 1616.51 1274.61 Q1614.33 1275.72 1611.19 1275.72 Q1607.2 1275.72 1604.84 1273.5 Q1602.51 1271.25 1602.51 1267.5 Q1602.51 1263.13 1605.42 1260.9 Q1608.36 1258.68 1614.17 1258.68 L1620.14 1258.68 L1620.14 1258.26 Q1620.14 1255.32 1618.2 1253.73 Q1616.28 1252.11 1612.78 1252.11 Q1610.56 1252.11 1608.45 1252.64 Q1606.35 1253.17 1604.4 1254.24 L1604.4 1250.3 Q1606.74 1249.4 1608.94 1248.96 Q1611.14 1248.5 1613.22 1248.5 Q1618.85 1248.5 1621.63 1251.41 Q1624.4 1254.33 1624.4 1260.25 Z" fill="#000000" fill-rule="evenodd" fill-opacity="1" /><path clip-path="url(#clip580)" d="M1654.73 1259.4 L1654.73 1275.05 L1650.47 1275.05 L1650.47 1259.54 Q1650.47 1255.86 1649.03 1254.03 Q1647.6 1252.2 1644.73 1252.2 Q1641.28 1252.2 1639.29 1254.4 Q1637.3 1256.6 1637.3 1260.39 L1637.3 1275.05 L1633.01 1275.05 L1633.01 1249.12 L1637.3 1249.12 L1637.3 1253.15 Q1638.82 1250.81 1640.88 1249.65 Q1642.97 1248.5 1645.68 1248.5 Q1650.14 1248.5 1652.44 1251.27 Q1654.73 1254.03 1654.73 1259.4 Z" fill="#000000" fill-rule="evenodd" fill-opacity="1" /><path clip-path="url(#clip580)" d="M1695.35 1253.06 L1695.35 1239.03 L1699.61 1239.03 L1699.61 1275.05 L1695.35 1275.05 L1695.35 1271.16 Q1694.01 1273.47 1691.95 1274.61 Q1689.91 1275.72 1687.04 1275.72 Q1682.34 1275.72 1679.38 1271.97 Q1676.44 1268.22 1676.44 1262.11 Q1676.44 1256 1679.38 1252.25 Q1682.34 1248.5 1687.04 1248.5 Q1689.91 1248.5 1691.95 1249.63 Q1694.01 1250.74 1695.35 1253.06 M1680.84 1262.11 Q1680.84 1266.81 1682.76 1269.49 Q1684.7 1272.15 1688.08 1272.15 Q1691.46 1272.15 1693.41 1269.49 Q1695.35 1266.81 1695.35 1262.11 Q1695.35 1257.41 1693.41 1254.75 Q1691.46 1252.06 1688.08 1252.06 Q1684.7 1252.06 1682.76 1254.75 Q1680.84 1257.41 1680.84 1262.11 Z" fill="#000000" fill-rule="evenodd" fill-opacity="1" /><path clip-path="url(#clip580)" d="M1730.56 1261.02 L1730.56 1263.1 L1710.98 1263.1 Q1711.25 1267.5 1713.62 1269.82 Q1716 1272.11 1720.24 1272.11 Q1722.69 1272.11 1724.98 1271.5 Q1727.3 1270.9 1729.56 1269.7 L1729.56 1273.73 Q1727.27 1274.7 1724.87 1275.21 Q1722.46 1275.72 1719.98 1275.72 Q1713.78 1275.72 1710.14 1272.11 Q1706.53 1268.5 1706.53 1262.34 Q1706.53 1255.97 1709.96 1252.25 Q1713.41 1248.5 1719.24 1248.5 Q1724.47 1248.5 1727.5 1251.88 Q1730.56 1255.23 1730.56 1261.02 M1726.3 1259.77 Q1726.25 1256.27 1724.33 1254.19 Q1722.44 1252.11 1719.29 1252.11 Q1715.72 1252.11 1713.57 1254.12 Q1711.44 1256.13 1711.12 1259.79 L1726.3 1259.77 Z" fill="#000000" fill-rule="evenodd" fill-opacity="1" /><path clip-path="url(#clip580)" d="M1759.1 1259.4 L1759.1 1275.05 L1754.84 1275.05 L1754.84 1259.54 Q1754.84 1255.86 1753.41 1254.03 Q1751.97 1252.2 1749.1 1252.2 Q1745.65 1252.2 1743.66 1254.4 Q1741.67 1256.6 1741.67 1260.39 L1741.67 1275.05 L1737.39 1275.05 L1737.39 1249.12 L1741.67 1249.12 L1741.67 1253.15 Q1743.2 1250.81 1745.26 1249.65 Q1747.34 1248.5 1750.05 1248.5 Q1754.52 1248.5 1756.81 1251.27 Q1759.1 1254.03 1759.1 1259.4 Z" fill="#000000" fill-rule="evenodd" fill-opacity="1" /><path clip-path="url(#clip580)" d="M1767.6 1249.12 L1771.86 1249.12 L1771.86 1275.05 L1767.6 1275.05 L1767.6 1249.12 M1767.6 1239.03 L1771.86 1239.03 L1771.86 1244.42 L1767.6 1244.42 L1767.6 1239.03 Z" fill="#000000" fill-rule="evenodd" fill-opacity="1" /><path clip-path="url(#clip580)" d="M1802.94 1261.02 L1802.94 1263.1 L1783.36 1263.1 Q1783.64 1267.5 1786 1269.82 Q1788.38 1272.11 1792.62 1272.11 Q1795.07 1272.11 1797.37 1271.5 Q1799.68 1270.9 1801.95 1269.7 L1801.95 1273.73 Q1799.66 1274.7 1797.25 1275.21 Q1794.84 1275.72 1792.37 1275.72 Q1786.16 1275.72 1782.53 1272.11 Q1778.92 1268.5 1778.92 1262.34 Q1778.92 1255.97 1782.34 1252.25 Q1785.79 1248.5 1791.62 1248.5 Q1796.86 1248.5 1799.89 1251.88 Q1802.94 1255.23 1802.94 1261.02 M1798.68 1259.77 Q1798.64 1256.27 1796.72 1254.19 Q1794.82 1252.11 1791.67 1252.11 Q1788.11 1252.11 1785.95 1254.12 Q1783.82 1256.13 1783.5 1259.79 L1798.68 1259.77 Z" fill="#000000" fill-rule="evenodd" fill-opacity="1" /><path clip-path="url(#clip580)" d="M1826.99 1253.06 L1826.99 1239.03 L1831.25 1239.03 L1831.25 1275.05 L1826.99 1275.05 L1826.99 1271.16 Q1825.65 1273.47 1823.59 1274.61 Q1821.56 1275.72 1818.68 1275.72 Q1813.99 1275.72 1811.02 1271.97 Q1808.08 1268.22 1808.08 1262.11 Q1808.08 1256 1811.02 1252.25 Q1813.99 1248.5 1818.68 1248.5 Q1821.56 1248.5 1823.59 1249.63 Q1825.65 1250.74 1826.99 1253.06 M1812.48 1262.11 Q1812.48 1266.81 1814.4 1269.49 Q1816.35 1272.15 1819.73 1272.15 Q1823.11 1272.15 1825.05 1269.49 Q1826.99 1266.81 1826.99 1262.11 Q1826.99 1257.41 1825.05 1254.75 Q1823.11 1252.06 1819.73 1252.06 Q1816.35 1252.06 1814.4 1254.75 Q1812.48 1257.41 1812.48 1262.11 Z" fill="#000000" fill-rule="evenodd" fill-opacity="1" /><circle clip-path="url(#clip580)" cx="1486.84" cy="1309.61" r="23.04" fill="#e69f00" fill-rule="evenodd" fill-opacity="1" stroke="#000000" stroke-opacity="1" stroke-width="2.048"/>
<path clip-path="url(#clip580)" d="M1561.95 1290.87 L1566.21 1290.87 L1566.21 1326.89 L1561.95 1326.89 L1561.95 1290.87 Z" fill="#000000" fill-rule="evenodd" fill-opacity="1" /><path clip-path="url(#clip580)" d="M1585.17 1303.95 Q1581.74 1303.95 1579.75 1306.63 Q1577.76 1309.29 1577.76 1313.95 Q1577.76 1318.6 1579.73 1321.28 Q1581.72 1323.95 1585.17 1323.95 Q1588.57 1323.95 1590.56 1321.26 Q1592.55 1318.58 1592.55 1313.95 Q1592.55 1309.34 1590.56 1306.66 Q1588.57 1303.95 1585.17 1303.95 M1585.17 1300.34 Q1590.72 1300.34 1593.89 1303.95 Q1597.07 1307.56 1597.07 1313.95 Q1597.07 1320.31 1593.89 1323.95 Q1590.72 1327.56 1585.17 1327.56 Q1579.59 1327.56 1576.42 1323.95 Q1573.27 1320.31 1573.27 1313.95 Q1573.27 1307.56 1576.42 1303.95 Q1579.59 1300.34 1585.17 1300.34 Z" fill="#000000" fill-rule="evenodd" fill-opacity="1" /><path clip-path="url(#clip580)" d="M1615.91 1313.85 Q1610.75 1313.85 1608.76 1315.03 Q1606.76 1316.22 1606.76 1319.06 Q1606.76 1321.33 1608.25 1322.67 Q1609.75 1323.99 1612.32 1323.99 Q1615.86 1323.99 1617.99 1321.49 Q1620.14 1318.97 1620.14 1314.8 L1620.14 1313.85 L1615.91 1313.85 M1624.4 1312.09 L1624.4 1326.89 L1620.14 1326.89 L1620.14 1322.95 Q1618.69 1325.31 1616.51 1326.45 Q1614.33 1327.56 1611.19 1327.56 Q1607.2 1327.56 1604.84 1325.34 Q1602.51 1323.09 1602.51 1319.34 Q1602.51 1314.97 1605.42 1312.74 Q1608.36 1310.52 1614.17 1310.52 L1620.14 1310.52 L1620.14 1310.1 Q1620.14 1307.16 1618.2 1305.57 Q1616.28 1303.95 1612.78 1303.95 Q1610.56 1303.95 1608.45 1304.48 Q1606.35 1305.01 1604.4 1306.08 L1604.4 1302.14 Q1606.74 1301.24 1608.94 1300.8 Q1611.14 1300.34 1613.22 1300.34 Q1618.85 1300.34 1621.63 1303.25 Q1624.4 1306.17 1624.4 1312.09 Z" fill="#000000" fill-rule="evenodd" fill-opacity="1" /><path clip-path="url(#clip580)" d="M1654.73 1311.24 L1654.73 1326.89 L1650.47 1326.89 L1650.47 1311.38 Q1650.47 1307.7 1649.03 1305.87 Q1647.6 1304.04 1644.73 1304.04 Q1641.28 1304.04 1639.29 1306.24 Q1637.3 1308.44 1637.3 1312.23 L1637.3 1326.89 L1633.01 1326.89 L1633.01 1300.96 L1637.3 1300.96 L1637.3 1304.99 Q1638.82 1302.65 1640.88 1301.49 Q1642.97 1300.34 1645.68 1300.34 Q1650.14 1300.34 1652.44 1303.11 Q1654.73 1305.87 1654.73 1311.24 Z" fill="#000000" fill-rule="evenodd" fill-opacity="1" /><path clip-path="url(#clip580)" d="M1682.41 1323 L1682.41 1336.75 L1678.13 1336.75 L1678.13 1300.96 L1682.41 1300.96 L1682.41 1304.9 Q1683.75 1302.58 1685.79 1301.47 Q1687.85 1300.34 1690.7 1300.34 Q1695.42 1300.34 1698.36 1304.09 Q1701.32 1307.84 1701.32 1313.95 Q1701.32 1320.06 1698.36 1323.81 Q1695.42 1327.56 1690.7 1327.56 Q1687.85 1327.56 1685.79 1326.45 Q1683.75 1325.31 1682.41 1323 M1696.9 1313.95 Q1696.9 1309.25 1694.96 1306.59 Q1693.04 1303.9 1689.66 1303.9 Q1686.28 1303.9 1684.33 1306.59 Q1682.41 1309.25 1682.41 1313.95 Q1682.41 1318.65 1684.33 1321.33 Q1686.28 1323.99 1689.66 1323.99 Q1693.04 1323.99 1694.96 1321.33 Q1696.9 1318.65 1696.9 1313.95 Z" fill="#000000" fill-rule="evenodd" fill-opacity="1" /><path clip-path="url(#clip580)" d="M1723.41 1304.94 Q1722.69 1304.53 1721.83 1304.34 Q1721 1304.13 1719.98 1304.13 Q1716.37 1304.13 1714.43 1306.49 Q1712.5 1308.83 1712.5 1313.23 L1712.5 1326.89 L1708.22 1326.89 L1708.22 1300.96 L1712.5 1300.96 L1712.5 1304.99 Q1713.85 1302.63 1716 1301.49 Q1718.15 1300.34 1721.23 1300.34 Q1721.67 1300.34 1722.2 1300.41 Q1722.74 1300.45 1723.38 1300.57 L1723.41 1304.94 Z" fill="#000000" fill-rule="evenodd" fill-opacity="1" /><path clip-path="url(#clip580)" d="M1736.88 1303.95 Q1733.45 1303.95 1731.46 1306.63 Q1729.47 1309.29 1729.47 1313.95 Q1729.47 1318.6 1731.44 1321.28 Q1733.43 1323.95 1736.88 1323.95 Q1740.28 1323.95 1742.27 1321.26 Q1744.26 1318.58 1744.26 1313.95 Q1744.26 1309.34 1742.27 1306.66 Q1740.28 1303.95 1736.88 1303.95 M1736.88 1300.34 Q1742.44 1300.34 1745.61 1303.95 Q1748.78 1307.56 1748.78 1313.95 Q1748.78 1320.31 1745.61 1323.95 Q1742.44 1327.56 1736.88 1327.56 Q1731.3 1327.56 1728.13 1323.95 Q1724.98 1320.31 1724.98 1313.95 Q1724.98 1307.56 1728.13 1303.95 Q1731.3 1300.34 1736.88 1300.34 Z" fill="#000000" fill-rule="evenodd" fill-opacity="1" /><path clip-path="url(#clip580)" d="M1752.78 1300.96 L1757.3 1300.96 L1765.4 1322.72 L1773.5 1300.96 L1778.01 1300.96 L1768.29 1326.89 L1762.5 1326.89 L1752.78 1300.96 Z" fill="#000000" fill-rule="evenodd" fill-opacity="1" /><path clip-path="url(#clip580)" d="M1783.89 1300.96 L1788.15 1300.96 L1788.15 1326.89 L1783.89 1326.89 L1783.89 1300.96 M1783.89 1290.87 L1788.15 1290.87 L1788.15 1296.26 L1783.89 1296.26 L1783.89 1290.87 Z" fill="#000000" fill-rule="evenodd" fill-opacity="1" /><path clip-path="url(#clip580)" d="M1814.12 1304.9 L1814.12 1290.87 L1818.38 1290.87 L1818.38 1326.89 L1814.12 1326.89 L1814.12 1323 Q1812.78 1325.31 1810.72 1326.45 Q1808.68 1327.56 1805.81 1327.56 Q1801.12 1327.56 1798.15 1323.81 Q1795.21 1320.06 1795.21 1313.95 Q1795.21 1307.84 1798.15 1304.09 Q1801.12 1300.34 1805.81 1300.34 Q1808.68 1300.34 1810.72 1301.47 Q1812.78 1302.58 1814.12 1304.9 M1799.61 1313.95 Q1799.61 1318.65 1801.53 1321.33 Q1803.48 1323.99 1806.86 1323.99 Q1810.24 1323.99 1812.18 1321.33 Q1814.12 1318.65 1814.12 1313.95 Q1814.12 1309.25 1812.18 1306.59 Q1810.24 1303.9 1806.86 1303.9 Q1803.48 1303.9 1801.53 1306.59 Q1799.61 1309.25 1799.61 1313.95 Z" fill="#000000" fill-rule="evenodd" fill-opacity="1" /><path clip-path="url(#clip580)" d="M1849.33 1312.86 L1849.33 1314.94 L1829.75 1314.94 Q1830.03 1319.34 1832.39 1321.66 Q1834.77 1323.95 1839.01 1323.95 Q1841.46 1323.95 1843.75 1323.34 Q1846.07 1322.74 1848.34 1321.54 L1848.34 1325.57 Q1846.05 1326.54 1843.64 1327.05 Q1841.23 1327.56 1838.75 1327.56 Q1832.55 1327.56 1828.92 1323.95 Q1825.3 1320.34 1825.3 1314.18 Q1825.3 1307.81 1828.73 1304.09 Q1832.18 1300.34 1838.01 1300.34 Q1843.24 1300.34 1846.28 1303.72 Q1849.33 1307.07 1849.33 1312.86 M1845.07 1311.61 Q1845.03 1308.11 1843.11 1306.03 Q1841.21 1303.95 1838.06 1303.95 Q1834.49 1303.95 1832.34 1305.96 Q1830.21 1307.97 1829.89 1311.63 L1845.07 1311.61 Z" fill="#000000" fill-rule="evenodd" fill-opacity="1" /><path clip-path="url(#clip580)" d="M1873.38 1304.9 L1873.38 1290.87 L1877.64 1290.87 L1877.64 1326.89 L1873.38 1326.89 L1873.38 1323 Q1872.04 1325.31 1869.98 1326.45 Q1867.94 1327.56 1865.07 1327.56 Q1860.37 1327.56 1857.41 1323.81 Q1854.47 1320.06 1854.47 1313.95 Q1854.47 1307.84 1857.41 1304.09 Q1860.37 1300.34 1865.07 1300.34 Q1867.94 1300.34 1869.98 1301.47 Q1872.04 1302.58 1873.38 1304.9 M1858.87 1313.95 Q1858.87 1318.65 1860.79 1321.33 Q1862.74 1323.99 1866.11 1323.99 Q1869.49 1323.99 1871.44 1321.33 Q1873.38 1318.65 1873.38 1313.95 Q1873.38 1309.25 1871.44 1306.59 Q1869.49 1303.9 1866.11 1303.9 Q1862.74 1303.9 1860.79 1306.59 Q1858.87 1309.25 1858.87 1313.95 Z" fill="#000000" fill-rule="evenodd" fill-opacity="1" /></svg>
