<?xml version="1.0" encoding="utf-8"?>
<svg xmlns="http://www.w3.org/2000/svg" xmlns:xlink="http://www.w3.org/1999/xlink" width="500" height="400" viewBox="0 0 2000 1600">
<defs>
  <clipPath id="clip210">
    <rect x="0" y="0" width="2000" height="1600"/>
  </clipPath>
</defs>
<path clip-path="url(#clip210)" d="M0 1600 L2000 1600 L2000 0 L0 0  Z" fill="#ffffff" fill-rule="evenodd" fill-opacity="1"/>
<defs>
  <clipPath id="clip211">
    <rect x="400" y="0" width="1401" height="1401"/>
  </clipPath>
</defs>
<path clip-path="url(#clip210)" d="M262.87 1406.76 L1952.76 1406.76 L1952.76 47.2441 L262.87 47.2441  Z" fill="#ffffff" fill-rule="evenodd" fill-opacity="1"/>
<defs>
  <clipPath id="clip212">
    <rect x="262" y="47" width="1691" height="1361"/>
  </clipPath>
</defs>
<polyline clip-path="url(#clip212)" style="stroke:#000000; stroke-linecap:round; stroke-linejoin:round; stroke-width:2; stroke-opacity:0.1; fill:none" points="359.606,1406.76 359.606,47.2441 "/>
<polyline clip-path="url(#clip212)" style="stroke:#000000; stroke-linecap:round; stroke-linejoin:round; stroke-width:2; stroke-opacity:0.1; fill:none" points="685.74,1406.76 685.74,47.2441 "/>
<polyline clip-path="url(#clip212)" style="stroke:#000000; stroke-linecap:round; stroke-linejoin:round; stroke-width:2; stroke-opacity:0.1; fill:none" points="1011.87,1406.76 1011.87,47.2441 "/>
<polyline clip-path="url(#clip212)" style="stroke:#000000; stroke-linecap:round; stroke-linejoin:round; stroke-width:2; stroke-opacity:0.1; fill:none" points="1338.01,1406.76 1338.01,47.2441 "/>
<polyline clip-path="url(#clip212)" style="stroke:#000000; stroke-linecap:round; stroke-linejoin:round; stroke-width:2; stroke-opacity:0.1; fill:none" points="1664.14,1406.76 1664.14,47.2441 "/>
<polyline clip-path="url(#clip210)" style="stroke:#000000; stroke-linecap:round; stroke-linejoin:round; stroke-width:4; stroke-opacity:1; fill:none" points="262.87,1406.76 1952.76,1406.76 "/>
<polyline clip-path="url(#clip210)" style="stroke:#000000; stroke-linecap:round; stroke-linejoin:round; stroke-width:4; stroke-opacity:1; fill:none" points="359.606,1406.76 359.606,1387.87 "/>
<polyline clip-path="url(#clip210)" style="stroke:#000000; stroke-linecap:round; stroke-linejoin:round; stroke-width:4; stroke-opacity:1; fill:none" points="685.74,1406.76 685.74,1387.87 "/>
<polyline clip-path="url(#clip210)" style="stroke:#000000; stroke-linecap:round; stroke-linejoin:round; stroke-width:4; stroke-opacity:1; fill:none" points="1011.87,1406.76 1011.87,1387.87 "/>
<polyline clip-path="url(#clip210)" style="stroke:#000000; stroke-linecap:round; stroke-linejoin:round; stroke-width:4; stroke-opacity:1; fill:none" points="1338.01,1406.76 1338.01,1387.87 "/>
<polyline clip-path="url(#clip210)" style="stroke:#000000; stroke-linecap:round; stroke-linejoin:round; stroke-width:4; stroke-opacity:1; fill:none" points="1664.14,1406.76 1664.14,1387.87 "/>
<path clip-path="url(#clip210)" d="M291.054 1449.14 L320.729 1449.14 L320.729 1453.07 L291.054 1453.07 L291.054 1449.14 Z" fill="#000000" fill-rule="evenodd" fill-opacity="1" /><path clip-path="url(#clip210)" d="M340.822 1434.48 Q337.211 1434.48 335.382 1438.05 Q333.576 1441.59 333.576 1448.72 Q333.576 1455.83 335.382 1459.39 Q337.211 1462.93 340.822 1462.93 Q344.456 1462.93 346.262 1459.39 Q348.09 1455.83 348.09 1448.72 Q348.09 1441.59 346.262 1438.05 Q344.456 1434.48 340.822 1434.48 M340.822 1430.78 Q346.632 1430.78 349.687 1435.39 Q352.766 1439.97 352.766 1448.72 Q352.766 1457.45 349.687 1462.05 Q346.632 1466.64 340.822 1466.64 Q335.012 1466.64 331.933 1462.05 Q328.877 1457.45 328.877 1448.72 Q328.877 1439.97 331.933 1435.39 Q335.012 1430.78 340.822 1430.78 Z" fill="#000000" fill-rule="evenodd" fill-opacity="1" /><path clip-path="url(#clip210)" d="M360.984 1460.08 L365.868 1460.08 L365.868 1465.96 L360.984 1465.96 L360.984 1460.08 Z" fill="#000000" fill-rule="evenodd" fill-opacity="1" /><path clip-path="url(#clip210)" d="M376.099 1431.4 L394.456 1431.4 L394.456 1435.34 L380.382 1435.34 L380.382 1443.81 Q381.4 1443.46 382.419 1443.3 Q383.437 1443.12 384.456 1443.12 Q390.243 1443.12 393.622 1446.29 Q397.002 1449.46 397.002 1454.88 Q397.002 1460.45 393.53 1463.56 Q390.058 1466.64 383.738 1466.64 Q381.562 1466.64 379.294 1466.26 Q377.048 1465.89 374.641 1465.15 L374.641 1460.45 Q376.724 1461.59 378.947 1462.14 Q381.169 1462.7 383.646 1462.7 Q387.65 1462.7 389.988 1460.59 Q392.326 1458.49 392.326 1454.88 Q392.326 1451.26 389.988 1449.16 Q387.65 1447.05 383.646 1447.05 Q381.771 1447.05 379.896 1447.47 Q378.044 1447.89 376.099 1448.76 L376.099 1431.4 Z" fill="#000000" fill-rule="evenodd" fill-opacity="1" /><path clip-path="url(#clip210)" d="M416.215 1434.48 Q412.604 1434.48 410.775 1438.05 Q408.97 1441.59 408.97 1448.72 Q408.97 1455.83 410.775 1459.39 Q412.604 1462.93 416.215 1462.93 Q419.849 1462.93 421.655 1459.39 Q423.483 1455.83 423.483 1448.72 Q423.483 1441.59 421.655 1438.05 Q419.849 1434.48 416.215 1434.48 M416.215 1430.78 Q422.025 1430.78 425.081 1435.39 Q428.159 1439.97 428.159 1448.72 Q428.159 1457.45 425.081 1462.05 Q422.025 1466.64 416.215 1466.64 Q410.405 1466.64 407.326 1462.05 Q404.27 1457.45 404.27 1448.72 Q404.27 1439.97 407.326 1435.39 Q410.405 1430.78 416.215 1430.78 Z" fill="#000000" fill-rule="evenodd" fill-opacity="1" /><path clip-path="url(#clip210)" d="M617.684 1449.14 L647.36 1449.14 L647.36 1453.07 L617.684 1453.07 L617.684 1449.14 Z" fill="#000000" fill-rule="evenodd" fill-opacity="1" /><path clip-path="url(#clip210)" d="M667.453 1434.48 Q663.841 1434.48 662.013 1438.05 Q660.207 1441.59 660.207 1448.72 Q660.207 1455.83 662.013 1459.39 Q663.841 1462.93 667.453 1462.93 Q671.087 1462.93 672.892 1459.39 Q674.721 1455.83 674.721 1448.72 Q674.721 1441.59 672.892 1438.05 Q671.087 1434.48 667.453 1434.48 M667.453 1430.78 Q673.263 1430.78 676.318 1435.39 Q679.397 1439.97 679.397 1448.72 Q679.397 1457.45 676.318 1462.05 Q673.263 1466.64 667.453 1466.64 Q661.642 1466.64 658.564 1462.05 Q655.508 1457.45 655.508 1448.72 Q655.508 1439.97 658.564 1435.39 Q661.642 1430.78 667.453 1430.78 Z" fill="#000000" fill-rule="evenodd" fill-opacity="1" /><path clip-path="url(#clip210)" d="M687.615 1460.08 L692.499 1460.08 L692.499 1465.96 L687.615 1465.96 L687.615 1460.08 Z" fill="#000000" fill-rule="evenodd" fill-opacity="1" /><path clip-path="url(#clip210)" d="M706.712 1462.03 L723.031 1462.03 L723.031 1465.96 L701.087 1465.96 L701.087 1462.03 Q703.749 1459.27 708.332 1454.64 Q712.938 1449.99 714.119 1448.65 Q716.364 1446.13 717.244 1444.39 Q718.147 1442.63 718.147 1440.94 Q718.147 1438.19 716.202 1436.45 Q714.281 1434.71 711.179 1434.71 Q708.98 1434.71 706.526 1435.48 Q704.096 1436.24 701.318 1437.79 L701.318 1433.07 Q704.142 1431.94 706.596 1431.36 Q709.05 1430.78 711.087 1430.78 Q716.457 1430.78 719.651 1433.46 Q722.846 1436.15 722.846 1440.64 Q722.846 1442.77 722.036 1444.69 Q721.249 1446.59 719.142 1449.18 Q718.563 1449.85 715.462 1453.07 Q712.36 1456.26 706.712 1462.03 Z" fill="#000000" fill-rule="evenodd" fill-opacity="1" /><path clip-path="url(#clip210)" d="M732.892 1431.4 L751.248 1431.4 L751.248 1435.34 L737.174 1435.34 L737.174 1443.81 Q738.193 1443.46 739.211 1443.3 Q740.23 1443.12 741.248 1443.12 Q747.035 1443.12 750.415 1446.29 Q753.795 1449.46 753.795 1454.88 Q753.795 1460.45 750.323 1463.56 Q746.85 1466.64 740.531 1466.64 Q738.355 1466.64 736.086 1466.26 Q733.841 1465.89 731.434 1465.15 L731.434 1460.45 Q733.517 1461.59 735.739 1462.14 Q737.961 1462.7 740.438 1462.7 Q744.443 1462.7 746.781 1460.59 Q749.119 1458.49 749.119 1454.88 Q749.119 1451.26 746.781 1449.16 Q744.443 1447.05 740.438 1447.05 Q738.563 1447.05 736.688 1447.47 Q734.836 1447.89 732.892 1448.76 L732.892 1431.4 Z" fill="#000000" fill-rule="evenodd" fill-opacity="1" /><path clip-path="url(#clip210)" d="M974.176 1434.48 Q970.565 1434.48 968.736 1438.05 Q966.931 1441.59 966.931 1448.72 Q966.931 1455.83 968.736 1459.39 Q970.565 1462.93 974.176 1462.93 Q977.81 1462.93 979.616 1459.39 Q981.445 1455.83 981.445 1448.72 Q981.445 1441.59 979.616 1438.05 Q977.81 1434.48 974.176 1434.48 M974.176 1430.78 Q979.986 1430.78 983.042 1435.39 Q986.121 1439.97 986.121 1448.72 Q986.121 1457.45 983.042 1462.05 Q979.986 1466.64 974.176 1466.64 Q968.366 1466.64 965.287 1462.05 Q962.232 1457.45 962.232 1448.72 Q962.232 1439.97 965.287 1435.39 Q968.366 1430.78 974.176 1430.78 Z" fill="#000000" fill-rule="evenodd" fill-opacity="1" /><path clip-path="url(#clip210)" d="M994.338 1460.08 L999.222 1460.08 L999.222 1465.96 L994.338 1465.96 L994.338 1460.08 Z" fill="#000000" fill-rule="evenodd" fill-opacity="1" /><path clip-path="url(#clip210)" d="M1019.41 1434.48 Q1015.8 1434.48 1013.97 1438.05 Q1012.16 1441.59 1012.16 1448.72 Q1012.16 1455.83 1013.97 1459.39 Q1015.8 1462.93 1019.41 1462.93 Q1023.04 1462.93 1024.85 1459.39 Q1026.68 1455.83 1026.68 1448.72 Q1026.68 1441.59 1024.85 1438.05 Q1023.04 1434.48 1019.41 1434.48 M1019.41 1430.78 Q1025.22 1430.78 1028.27 1435.39 Q1031.35 1439.97 1031.35 1448.72 Q1031.35 1457.45 1028.27 1462.05 Q1025.22 1466.64 1019.41 1466.64 Q1013.6 1466.64 1010.52 1462.05 Q1007.46 1457.45 1007.46 1448.72 Q1007.46 1439.97 1010.52 1435.39 Q1013.6 1430.78 1019.41 1430.78 Z" fill="#000000" fill-rule="evenodd" fill-opacity="1" /><path clip-path="url(#clip210)" d="M1049.57 1434.48 Q1045.96 1434.48 1044.13 1438.05 Q1042.32 1441.59 1042.32 1448.72 Q1042.32 1455.83 1044.13 1459.39 Q1045.96 1462.93 1049.57 1462.93 Q1053.2 1462.93 1055.01 1459.39 Q1056.84 1455.83 1056.84 1448.72 Q1056.84 1441.59 1055.01 1438.05 Q1053.2 1434.48 1049.57 1434.48 M1049.57 1430.78 Q1055.38 1430.78 1058.43 1435.39 Q1061.51 1439.97 1061.51 1448.72 Q1061.51 1457.45 1058.43 1462.05 Q1055.38 1466.64 1049.57 1466.64 Q1043.76 1466.64 1040.68 1462.05 Q1037.62 1457.45 1037.62 1448.72 Q1037.62 1439.97 1040.68 1435.39 Q1043.76 1430.78 1049.57 1430.78 Z" fill="#000000" fill-rule="evenodd" fill-opacity="1" /><path clip-path="url(#clip210)" d="M1300.81 1434.48 Q1297.2 1434.48 1295.37 1438.05 Q1293.56 1441.59 1293.56 1448.72 Q1293.56 1455.83 1295.37 1459.39 Q1297.2 1462.93 1300.81 1462.93 Q1304.44 1462.93 1306.25 1459.39 Q1308.08 1455.83 1308.08 1448.72 Q1308.08 1441.59 1306.25 1438.05 Q1304.44 1434.48 1300.81 1434.48 M1300.81 1430.78 Q1306.62 1430.78 1309.67 1435.39 Q1312.75 1439.97 1312.75 1448.72 Q1312.75 1457.45 1309.67 1462.05 Q1306.62 1466.64 1300.81 1466.64 Q1295 1466.64 1291.92 1462.05 Q1288.86 1457.45 1288.86 1448.72 Q1288.86 1439.97 1291.92 1435.39 Q1295 1430.78 1300.81 1430.78 Z" fill="#000000" fill-rule="evenodd" fill-opacity="1" /><path clip-path="url(#clip210)" d="M1320.97 1460.08 L1325.85 1460.08 L1325.85 1465.96 L1320.97 1465.96 L1320.97 1460.08 Z" fill="#000000" fill-rule="evenodd" fill-opacity="1" /><path clip-path="url(#clip210)" d="M1340.07 1462.03 L1356.39 1462.03 L1356.39 1465.96 L1334.44 1465.96 L1334.44 1462.03 Q1337.1 1459.27 1341.69 1454.64 Q1346.29 1449.99 1347.47 1448.65 Q1349.72 1446.13 1350.6 1444.39 Q1351.5 1442.63 1351.5 1440.94 Q1351.5 1438.19 1349.56 1436.45 Q1347.64 1434.71 1344.53 1434.71 Q1342.33 1434.71 1339.88 1435.48 Q1337.45 1436.24 1334.67 1437.79 L1334.67 1433.07 Q1337.5 1431.94 1339.95 1431.36 Q1342.4 1430.78 1344.44 1430.78 Q1349.81 1430.78 1353.01 1433.46 Q1356.2 1436.15 1356.2 1440.64 Q1356.2 1442.77 1355.39 1444.69 Q1354.6 1446.59 1352.5 1449.18 Q1351.92 1449.85 1348.82 1453.07 Q1345.71 1456.26 1340.07 1462.03 Z" fill="#000000" fill-rule="evenodd" fill-opacity="1" /><path clip-path="url(#clip210)" d="M1366.25 1431.4 L1384.6 1431.4 L1384.6 1435.34 L1370.53 1435.34 L1370.53 1443.81 Q1371.55 1443.46 1372.57 1443.3 Q1373.58 1443.12 1374.6 1443.12 Q1380.39 1443.12 1383.77 1446.29 Q1387.15 1449.46 1387.15 1454.88 Q1387.15 1460.45 1383.68 1463.56 Q1380.2 1466.64 1373.89 1466.64 Q1371.71 1466.64 1369.44 1466.26 Q1367.2 1465.89 1364.79 1465.15 L1364.79 1460.45 Q1366.87 1461.59 1369.09 1462.14 Q1371.32 1462.7 1373.79 1462.7 Q1377.8 1462.7 1380.14 1460.59 Q1382.47 1458.49 1382.47 1454.88 Q1382.47 1451.26 1380.14 1449.16 Q1377.8 1447.05 1373.79 1447.05 Q1371.92 1447.05 1370.04 1447.47 Q1368.19 1447.89 1366.25 1448.76 L1366.25 1431.4 Z" fill="#000000" fill-rule="evenodd" fill-opacity="1" /><path clip-path="url(#clip210)" d="M1626.44 1434.48 Q1622.83 1434.48 1621 1438.05 Q1619.2 1441.59 1619.2 1448.72 Q1619.2 1455.83 1621 1459.39 Q1622.83 1462.93 1626.44 1462.93 Q1630.08 1462.93 1631.88 1459.39 Q1633.71 1455.83 1633.71 1448.72 Q1633.71 1441.59 1631.88 1438.05 Q1630.08 1434.48 1626.44 1434.48 M1626.44 1430.78 Q1632.25 1430.78 1635.31 1435.39 Q1638.39 1439.97 1638.39 1448.72 Q1638.39 1457.45 1635.31 1462.05 Q1632.25 1466.64 1626.44 1466.64 Q1620.63 1466.64 1617.55 1462.05 Q1614.5 1457.45 1614.5 1448.72 Q1614.5 1439.97 1617.55 1435.39 Q1620.63 1430.78 1626.44 1430.78 Z" fill="#000000" fill-rule="evenodd" fill-opacity="1" /><path clip-path="url(#clip210)" d="M1646.6 1460.08 L1651.49 1460.08 L1651.49 1465.96 L1646.6 1465.96 L1646.6 1460.08 Z" fill="#000000" fill-rule="evenodd" fill-opacity="1" /><path clip-path="url(#clip210)" d="M1661.72 1431.4 L1680.08 1431.4 L1680.08 1435.34 L1666 1435.34 L1666 1443.81 Q1667.02 1443.46 1668.04 1443.3 Q1669.06 1443.12 1670.08 1443.12 Q1675.86 1443.12 1679.24 1446.29 Q1682.62 1449.46 1682.62 1454.88 Q1682.62 1460.45 1679.15 1463.56 Q1675.68 1466.64 1669.36 1466.64 Q1667.18 1466.64 1664.91 1466.26 Q1662.67 1465.89 1660.26 1465.15 L1660.26 1460.45 Q1662.35 1461.59 1664.57 1462.14 Q1666.79 1462.7 1669.27 1462.7 Q1673.27 1462.7 1675.61 1460.59 Q1677.95 1458.49 1677.95 1454.88 Q1677.95 1451.26 1675.61 1449.16 Q1673.27 1447.05 1669.27 1447.05 Q1667.39 1447.05 1665.52 1447.47 Q1663.66 1447.89 1661.72 1448.76 L1661.72 1431.4 Z" fill="#000000" fill-rule="evenodd" fill-opacity="1" /><path clip-path="url(#clip210)" d="M1701.84 1434.48 Q1698.22 1434.48 1696.4 1438.05 Q1694.59 1441.59 1694.59 1448.72 Q1694.59 1455.83 1696.4 1459.39 Q1698.22 1462.93 1701.84 1462.93 Q1705.47 1462.93 1707.28 1459.39 Q1709.1 1455.83 1709.1 1448.72 Q1709.1 1441.59 1707.28 1438.05 Q1705.47 1434.48 1701.84 1434.48 M1701.84 1430.78 Q1707.65 1430.78 1710.7 1435.39 Q1713.78 1439.97 1713.78 1448.72 Q1713.78 1457.45 1710.7 1462.05 Q1707.65 1466.64 1701.84 1466.64 Q1696.03 1466.64 1692.95 1462.05 Q1689.89 1457.45 1689.89 1448.72 Q1689.89 1439.97 1692.95 1435.39 Q1696.03 1430.78 1701.84 1430.78 Z" fill="#000000" fill-rule="evenodd" fill-opacity="1" /><path clip-path="url(#clip210)" d="M993.246 1509.98 L999.103 1509.98 L999.103 1545.63 L993.246 1545.63 L993.246 1509.98 M993.246 1496.1 L999.103 1496.1 L999.103 1503.52 L993.246 1503.52 L993.246 1496.1 Z" fill="#000000" fill-rule="evenodd" fill-opacity="1" /><path clip-path="url(#clip210)" d="M1040.99 1524.11 L1040.99 1545.63 L1035.13 1545.63 L1035.13 1524.3 Q1035.13 1519.24 1033.16 1516.73 Q1031.19 1514.21 1027.24 1514.21 Q1022.5 1514.21 1019.76 1517.24 Q1017.02 1520.26 1017.02 1525.48 L1017.02 1545.63 L1011.13 1545.63 L1011.13 1509.98 L1017.02 1509.98 L1017.02 1515.52 Q1019.12 1512.3 1021.96 1510.71 Q1024.82 1509.12 1028.54 1509.12 Q1034.69 1509.12 1037.84 1512.94 Q1040.99 1516.73 1040.99 1524.11 Z" fill="#000000" fill-rule="evenodd" fill-opacity="1" /><path clip-path="url(#clip210)" d="M1078.32 1511.35 L1078.32 1516.82 Q1075.84 1515.45 1073.33 1514.79 Q1070.84 1514.09 1068.3 1514.09 Q1062.6 1514.09 1059.45 1517.71 Q1056.3 1521.31 1056.3 1527.84 Q1056.3 1534.36 1059.45 1537.99 Q1062.6 1541.59 1068.3 1541.59 Q1070.84 1541.59 1073.33 1540.92 Q1075.84 1540.22 1078.32 1538.85 L1078.32 1544.26 Q1075.87 1545.41 1073.23 1545.98 Q1070.62 1546.55 1067.66 1546.55 Q1059.61 1546.55 1054.87 1541.49 Q1050.12 1536.43 1050.12 1527.84 Q1050.12 1519.11 1054.9 1514.12 Q1059.7 1509.12 1068.04 1509.12 Q1070.75 1509.12 1073.33 1509.69 Q1075.9 1510.23 1078.32 1511.35 Z" fill="#000000" fill-rule="evenodd" fill-opacity="1" /><path clip-path="url(#clip210)" d="M1102.32 1514.09 Q1097.61 1514.09 1094.87 1517.78 Q1092.14 1521.44 1092.14 1527.84 Q1092.14 1534.23 1094.84 1537.93 Q1097.58 1541.59 1102.32 1541.59 Q1107 1541.59 1109.74 1537.89 Q1112.48 1534.2 1112.48 1527.84 Q1112.48 1521.5 1109.74 1517.81 Q1107 1514.09 1102.32 1514.09 M1102.32 1509.12 Q1109.96 1509.12 1114.32 1514.09 Q1118.68 1519.05 1118.68 1527.84 Q1118.68 1536.59 1114.32 1541.59 Q1109.96 1546.55 1102.32 1546.55 Q1094.65 1546.55 1090.29 1541.59 Q1085.96 1536.59 1085.96 1527.84 Q1085.96 1519.05 1090.29 1514.09 Q1094.65 1509.12 1102.32 1509.12 Z" fill="#000000" fill-rule="evenodd" fill-opacity="1" /><path clip-path="url(#clip210)" d="M1156.14 1516.82 Q1158.34 1512.88 1161.4 1511 Q1164.45 1509.12 1168.59 1509.12 Q1174.16 1509.12 1177.18 1513.04 Q1180.21 1516.92 1180.21 1524.11 L1180.21 1545.63 L1174.32 1545.63 L1174.32 1524.3 Q1174.32 1519.18 1172.5 1516.7 Q1170.69 1514.21 1166.97 1514.21 Q1162.41 1514.21 1159.77 1517.24 Q1157.13 1520.26 1157.13 1525.48 L1157.13 1545.63 L1151.24 1545.63 L1151.24 1524.3 Q1151.24 1519.15 1149.43 1516.7 Q1147.61 1514.21 1143.83 1514.21 Q1139.34 1514.21 1136.7 1517.27 Q1134.06 1520.29 1134.06 1525.48 L1134.06 1545.63 L1128.17 1545.63 L1128.17 1509.98 L1134.06 1509.98 L1134.06 1515.52 Q1136.06 1512.24 1138.86 1510.68 Q1141.66 1509.12 1145.51 1509.12 Q1149.4 1509.12 1152.1 1511.09 Q1154.84 1513.07 1156.14 1516.82 Z" fill="#000000" fill-rule="evenodd" fill-opacity="1" /><path clip-path="url(#clip210)" d="M1222.38 1526.34 L1222.38 1529.2 L1195.45 1529.2 Q1195.83 1535.25 1199.08 1538.43 Q1202.36 1541.59 1208.18 1541.59 Q1211.56 1541.59 1214.71 1540.76 Q1217.89 1539.93 1221.01 1538.28 L1221.01 1543.81 Q1217.86 1545.15 1214.55 1545.85 Q1211.24 1546.55 1207.83 1546.55 Q1199.3 1546.55 1194.31 1541.59 Q1189.34 1536.62 1189.34 1528.15 Q1189.34 1519.4 1194.05 1514.28 Q1198.79 1509.12 1206.82 1509.12 Q1214.01 1509.12 1218.18 1513.77 Q1222.38 1518.38 1222.38 1526.34 M1216.52 1524.62 Q1216.46 1519.81 1213.82 1516.95 Q1211.21 1514.09 1206.88 1514.09 Q1201.98 1514.09 1199.02 1516.85 Q1196.09 1519.62 1195.64 1524.65 L1216.52 1524.62 Z" fill="#000000" fill-rule="evenodd" fill-opacity="1" /><polyline clip-path="url(#clip212)" style="stroke:#000000; stroke-linecap:round; stroke-linejoin:round; stroke-width:2; stroke-opacity:0.1; fill:none" points="262.87,1182.52 1952.76,1182.52 "/>
<polyline clip-path="url(#clip212)" style="stroke:#000000; stroke-linecap:round; stroke-linejoin:round; stroke-width:2; stroke-opacity:0.1; fill:none" points="262.87,914.14 1952.76,914.14 "/>
<polyline clip-path="url(#clip212)" style="stroke:#000000; stroke-linecap:round; stroke-linejoin:round; stroke-width:2; stroke-opacity:0.1; fill:none" points="262.87,645.761 1952.76,645.761 "/>
<polyline clip-path="url(#clip212)" style="stroke:#000000; stroke-linecap:round; stroke-linejoin:round; stroke-width:2; stroke-opacity:0.1; fill:none" points="262.87,377.381 1952.76,377.381 "/>
<polyline clip-path="url(#clip212)" style="stroke:#000000; stroke-linecap:round; stroke-linejoin:round; stroke-width:2; stroke-opacity:0.1; fill:none" points="262.87,109.001 1952.76,109.001 "/>
<polyline clip-path="url(#clip210)" style="stroke:#000000; stroke-linecap:round; stroke-linejoin:round; stroke-width:4; stroke-opacity:1; fill:none" points="262.87,1406.76 262.87,47.2441 "/>
<polyline clip-path="url(#clip210)" style="stroke:#000000; stroke-linecap:round; stroke-linejoin:round; stroke-width:4; stroke-opacity:1; fill:none" points="262.87,1182.52 281.768,1182.52 "/>
<polyline clip-path="url(#clip210)" style="stroke:#000000; stroke-linecap:round; stroke-linejoin:round; stroke-width:4; stroke-opacity:1; fill:none" points="262.87,914.14 281.768,914.14 "/>
<polyline clip-path="url(#clip210)" style="stroke:#000000; stroke-linecap:round; stroke-linejoin:round; stroke-width:4; stroke-opacity:1; fill:none" points="262.87,645.761 281.768,645.761 "/>
<polyline clip-path="url(#clip210)" style="stroke:#000000; stroke-linecap:round; stroke-linejoin:round; stroke-width:4; stroke-opacity:1; fill:none" points="262.87,377.381 281.768,377.381 "/>
<polyline clip-path="url(#clip210)" style="stroke:#000000; stroke-linecap:round; stroke-linejoin:round; stroke-width:4; stroke-opacity:1; fill:none" points="262.87,109.001 281.768,109.001 "/>
<path clip-path="url(#clip210)" d="M127.523 1182.97 L157.199 1182.97 L157.199 1186.91 L127.523 1186.91 L127.523 1182.97 Z" fill="#000000" fill-rule="evenodd" fill-opacity="1" /><path clip-path="url(#clip210)" d="M168.102 1195.87 L175.741 1195.87 L175.741 1169.5 L167.431 1171.17 L167.431 1166.91 L175.694 1165.24 L180.37 1165.24 L180.37 1195.87 L188.009 1195.87 L188.009 1199.8 L168.102 1199.8 L168.102 1195.87 Z" fill="#000000" fill-rule="evenodd" fill-opacity="1" /><path clip-path="url(#clip210)" d="M197.454 1193.92 L202.338 1193.92 L202.338 1199.8 L197.454 1199.8 L197.454 1193.92 Z" fill="#000000" fill-rule="evenodd" fill-opacity="1" /><path clip-path="url(#clip210)" d="M216.551 1195.87 L232.87 1195.87 L232.87 1199.8 L210.926 1199.8 L210.926 1195.87 Q213.588 1193.11 218.171 1188.48 Q222.778 1183.83 223.958 1182.49 Q226.203 1179.96 227.083 1178.23 Q227.986 1176.47 227.986 1174.78 Q227.986 1172.02 226.041 1170.29 Q224.12 1168.55 221.018 1168.55 Q218.819 1168.55 216.366 1169.31 Q213.935 1170.08 211.157 1171.63 L211.157 1166.91 Q213.981 1165.77 216.435 1165.19 Q218.889 1164.62 220.926 1164.62 Q226.296 1164.62 229.49 1167.3 Q232.685 1169.99 232.685 1174.48 Q232.685 1176.61 231.875 1178.53 Q231.088 1180.43 228.981 1183.02 Q228.402 1183.69 225.301 1186.91 Q222.199 1190.1 216.551 1195.87 Z" fill="#000000" fill-rule="evenodd" fill-opacity="1" /><path clip-path="url(#clip210)" d="M126.111 914.592 L155.787 914.592 L155.787 918.527 L126.111 918.527 L126.111 914.592 Z" fill="#000000" fill-rule="evenodd" fill-opacity="1" /><path clip-path="url(#clip210)" d="M175.88 899.939 Q172.269 899.939 170.44 903.504 Q168.634 907.046 168.634 914.175 Q168.634 921.282 170.44 924.846 Q172.269 928.388 175.88 928.388 Q179.514 928.388 181.319 924.846 Q183.148 921.282 183.148 914.175 Q183.148 907.046 181.319 903.504 Q179.514 899.939 175.88 899.939 M175.88 896.235 Q181.69 896.235 184.745 900.842 Q187.824 905.425 187.824 914.175 Q187.824 922.902 184.745 927.508 Q181.69 932.092 175.88 932.092 Q170.069 932.092 166.991 927.508 Q163.935 922.902 163.935 914.175 Q163.935 905.425 166.991 900.842 Q170.069 896.235 175.88 896.235 Z" fill="#000000" fill-rule="evenodd" fill-opacity="1" /><path clip-path="url(#clip210)" d="M196.042 925.541 L200.926 925.541 L200.926 931.42 L196.042 931.42 L196.042 925.541 Z" fill="#000000" fill-rule="evenodd" fill-opacity="1" /><path clip-path="url(#clip210)" d="M211.25 930.703 L211.25 926.444 Q213.009 927.277 214.815 927.717 Q216.62 928.157 218.356 928.157 Q222.986 928.157 225.416 925.055 Q227.87 921.93 228.217 915.587 Q226.875 917.578 224.815 918.643 Q222.754 919.708 220.254 919.708 Q215.069 919.708 212.037 916.583 Q209.028 913.434 209.028 907.995 Q209.028 902.671 212.176 899.453 Q215.324 896.235 220.555 896.235 Q226.551 896.235 229.699 900.842 Q232.87 905.425 232.87 914.175 Q232.87 922.346 228.981 927.231 Q225.115 932.092 218.565 932.092 Q216.805 932.092 215 931.745 Q213.194 931.397 211.25 930.703 M220.555 916.05 Q223.703 916.05 225.532 913.897 Q227.384 911.745 227.384 907.995 Q227.384 904.268 225.532 902.115 Q223.703 899.939 220.555 899.939 Q217.407 899.939 215.555 902.115 Q213.727 904.268 213.727 907.995 Q213.727 911.745 215.555 913.897 Q217.407 916.05 220.555 916.05 Z" fill="#000000" fill-rule="evenodd" fill-opacity="1" /><path clip-path="url(#clip210)" d="M125.764 646.212 L155.44 646.212 L155.44 650.147 L125.764 650.147 L125.764 646.212 Z" fill="#000000" fill-rule="evenodd" fill-opacity="1" /><path clip-path="url(#clip210)" d="M175.532 631.559 Q171.921 631.559 170.093 635.124 Q168.287 638.666 168.287 645.795 Q168.287 652.902 170.093 656.467 Q171.921 660.008 175.532 660.008 Q179.167 660.008 180.972 656.467 Q182.801 652.902 182.801 645.795 Q182.801 638.666 180.972 635.124 Q179.167 631.559 175.532 631.559 M175.532 627.856 Q181.343 627.856 184.398 632.462 Q187.477 637.045 187.477 645.795 Q187.477 654.522 184.398 659.129 Q181.343 663.712 175.532 663.712 Q169.722 663.712 166.644 659.129 Q163.588 654.522 163.588 645.795 Q163.588 637.045 166.644 632.462 Q169.722 627.856 175.532 627.856 Z" fill="#000000" fill-rule="evenodd" fill-opacity="1" /><path clip-path="url(#clip210)" d="M195.694 657.161 L200.579 657.161 L200.579 663.041 L195.694 663.041 L195.694 657.161 Z" fill="#000000" fill-rule="evenodd" fill-opacity="1" /><path clip-path="url(#clip210)" d="M221.342 643.897 Q218.194 643.897 216.342 646.05 Q214.514 648.203 214.514 651.953 Q214.514 655.68 216.342 657.856 Q218.194 660.008 221.342 660.008 Q224.49 660.008 226.319 657.856 Q228.171 655.68 228.171 651.953 Q228.171 648.203 226.319 646.05 Q224.49 643.897 221.342 643.897 M230.625 629.245 L230.625 633.504 Q228.865 632.67 227.06 632.231 Q225.278 631.791 223.518 631.791 Q218.889 631.791 216.435 634.916 Q214.004 638.041 213.657 644.36 Q215.023 642.346 217.083 641.282 Q219.143 640.194 221.62 640.194 Q226.828 640.194 229.838 643.365 Q232.87 646.513 232.87 651.953 Q232.87 657.277 229.722 660.494 Q226.574 663.712 221.342 663.712 Q215.347 663.712 212.176 659.129 Q209.004 654.522 209.004 645.795 Q209.004 637.601 212.893 632.74 Q216.782 627.856 223.333 627.856 Q225.092 627.856 226.875 628.203 Q228.68 628.55 230.625 629.245 Z" fill="#000000" fill-rule="evenodd" fill-opacity="1" /><path clip-path="url(#clip210)" d="M126.574 377.832 L156.25 377.832 L156.25 381.767 L126.574 381.767 L126.574 377.832 Z" fill="#000000" fill-rule="evenodd" fill-opacity="1" /><path clip-path="url(#clip210)" d="M176.343 363.18 Q172.731 363.18 170.903 366.744 Q169.097 370.286 169.097 377.416 Q169.097 384.522 170.903 388.087 Q172.731 391.629 176.343 391.629 Q179.977 391.629 181.782 388.087 Q183.611 384.522 183.611 377.416 Q183.611 370.286 181.782 366.744 Q179.977 363.18 176.343 363.18 M176.343 359.476 Q182.153 359.476 185.208 364.082 Q188.287 368.666 188.287 377.416 Q188.287 386.142 185.208 390.749 Q182.153 395.332 176.343 395.332 Q170.532 395.332 167.454 390.749 Q164.398 386.142 164.398 377.416 Q164.398 368.666 167.454 364.082 Q170.532 359.476 176.343 359.476 Z" fill="#000000" fill-rule="evenodd" fill-opacity="1" /><path clip-path="url(#clip210)" d="M196.505 388.781 L201.389 388.781 L201.389 394.661 L196.505 394.661 L196.505 388.781 Z" fill="#000000" fill-rule="evenodd" fill-opacity="1" /><path clip-path="url(#clip210)" d="M225.74 376.027 Q229.097 376.744 230.972 379.013 Q232.87 381.281 232.87 384.615 Q232.87 389.73 229.352 392.531 Q225.833 395.332 219.352 395.332 Q217.176 395.332 214.861 394.892 Q212.569 394.476 210.116 393.619 L210.116 389.105 Q212.06 390.24 214.375 390.818 Q216.69 391.397 219.213 391.397 Q223.611 391.397 225.903 389.661 Q228.217 387.925 228.217 384.615 Q228.217 381.559 226.065 379.846 Q223.935 378.11 220.116 378.11 L216.088 378.11 L216.088 374.268 L220.301 374.268 Q223.75 374.268 225.578 372.902 Q227.407 371.513 227.407 368.92 Q227.407 366.258 225.509 364.846 Q223.634 363.411 220.116 363.411 Q218.194 363.411 215.995 363.828 Q213.796 364.244 211.157 365.124 L211.157 360.957 Q213.819 360.217 216.134 359.846 Q218.472 359.476 220.532 359.476 Q225.856 359.476 228.958 361.906 Q232.06 364.314 232.06 368.434 Q232.06 371.305 230.416 373.295 Q228.773 375.263 225.74 376.027 Z" fill="#000000" fill-rule="evenodd" fill-opacity="1" /><path clip-path="url(#clip210)" d="M175.694 94.7998 Q172.083 94.7998 170.255 98.3646 Q168.449 101.906 168.449 109.036 Q168.449 116.142 170.255 119.707 Q172.083 123.249 175.694 123.249 Q179.329 123.249 181.134 119.707 Q182.963 116.142 182.963 109.036 Q182.963 101.906 181.134 98.3646 Q179.329 94.7998 175.694 94.7998 M175.694 91.0961 Q181.505 91.0961 184.56 95.7026 Q187.639 100.286 187.639 109.036 Q187.639 117.763 184.56 122.369 Q181.505 126.952 175.694 126.952 Q169.884 126.952 166.806 122.369 Q163.75 117.763 163.75 109.036 Q163.75 100.286 166.806 95.7026 Q169.884 91.0961 175.694 91.0961 Z" fill="#000000" fill-rule="evenodd" fill-opacity="1" /><path clip-path="url(#clip210)" d="M195.856 120.402 L200.741 120.402 L200.741 126.281 L195.856 126.281 L195.856 120.402 Z" fill="#000000" fill-rule="evenodd" fill-opacity="1" /><path clip-path="url(#clip210)" d="M220.926 94.7998 Q217.315 94.7998 215.486 98.3646 Q213.68 101.906 213.68 109.036 Q213.68 116.142 215.486 119.707 Q217.315 123.249 220.926 123.249 Q224.56 123.249 226.365 119.707 Q228.194 116.142 228.194 109.036 Q228.194 101.906 226.365 98.3646 Q224.56 94.7998 220.926 94.7998 M220.926 91.0961 Q226.736 91.0961 229.791 95.7026 Q232.87 100.286 232.87 109.036 Q232.87 117.763 229.791 122.369 Q226.736 126.952 220.926 126.952 Q215.116 126.952 212.037 122.369 Q208.981 117.763 208.981 109.036 Q208.981 100.286 212.037 95.7026 Q215.116 91.0961 220.926 91.0961 Z" fill="#000000" fill-rule="evenodd" fill-opacity="1" /><path clip-path="url(#clip210)" d="M63.5887 765.596 Q63.5887 772.694 65.2119 775.431 Q66.8352 778.168 70.7501 778.168 Q73.8693 778.168 75.7154 776.131 Q77.5296 774.062 77.5296 770.529 Q77.5296 765.66 74.0921 762.731 Q70.6228 759.771 64.8937 759.771 L63.5887 759.771 L63.5887 765.596 M61.1697 753.915 L81.5082 753.915 L81.5082 759.771 L76.0973 759.771 Q79.3438 761.777 80.9034 764.769 Q82.4312 767.76 82.4312 772.089 Q82.4312 777.564 79.3756 780.81 Q76.2883 784.025 71.1321 784.025 Q65.1165 784.025 62.0609 780.014 Q59.0054 775.972 59.0054 767.983 L59.0054 759.771 L58.4325 759.771 Q54.3902 759.771 52.1941 762.445 Q49.9661 765.087 49.9661 769.893 Q49.9661 772.948 50.6981 775.845 Q51.4302 778.741 52.8943 781.415 L47.4835 781.415 Q46.2421 778.2 45.6374 775.176 Q45.0008 772.153 45.0008 769.288 Q45.0008 761.554 49.0112 757.734 Q53.0216 753.915 61.1697 753.915 Z" fill="#000000" fill-rule="evenodd" fill-opacity="1" /><path clip-path="url(#clip210)" d="M63.2704 718.394 Q56.9047 718.394 53.4036 721.036 Q49.9024 723.646 49.9024 728.389 Q49.9024 733.099 53.4036 735.741 Q56.9047 738.351 63.2704 738.351 Q69.6043 738.351 73.1054 735.741 Q76.6066 733.099 76.6066 728.389 Q76.6066 723.646 73.1054 721.036 Q69.6043 718.394 63.2704 718.394 M77.084 712.538 Q86.187 712.538 90.6111 716.58 Q95.0671 720.622 95.0671 728.961 Q95.0671 732.049 94.5897 734.786 Q94.1441 737.523 93.1892 740.101 L87.4919 740.101 Q88.8924 737.523 89.5608 735.009 Q90.2292 732.494 90.2292 729.884 Q90.2292 724.123 87.2055 721.259 Q84.2136 718.394 78.1343 718.394 L75.2379 718.394 Q78.389 720.209 79.9486 723.041 Q81.5082 725.874 81.5082 729.821 Q81.5082 736.377 76.5111 740.388 Q71.514 744.398 63.2704 744.398 Q54.995 744.398 49.9979 740.388 Q45.0008 736.377 45.0008 729.821 Q45.0008 725.874 46.5604 723.041 Q48.12 720.209 51.2711 718.394 L45.8602 718.394 L45.8602 712.538 L77.084 712.538 Z" fill="#000000" fill-rule="evenodd" fill-opacity="1" /><path clip-path="url(#clip210)" d="M62.2201 669.983 L65.0846 669.983 L65.0846 696.91 Q71.1321 696.528 74.3149 693.282 Q77.4659 690.003 77.4659 684.179 Q77.4659 680.805 76.6384 677.654 Q75.8109 674.471 74.1558 671.352 L79.6939 671.352 Q81.0307 674.503 81.731 677.813 Q82.4312 681.123 82.4312 684.529 Q82.4312 693.059 77.4659 698.056 Q72.5007 703.021 64.0343 703.021 Q55.2814 703.021 50.1571 698.311 Q45.0008 693.568 45.0008 685.547 Q45.0008 678.354 49.6478 674.185 Q54.2629 669.983 62.2201 669.983 M60.5013 675.84 Q55.6952 675.903 52.8306 678.545 Q49.9661 681.155 49.9661 685.484 Q49.9661 690.385 52.7352 693.345 Q55.5042 696.274 60.5332 696.719 L60.5013 675.84 Z" fill="#000000" fill-rule="evenodd" fill-opacity="1" /><circle clip-path="url(#clip212)" cx="527.028" cy="1368.29" r="36" fill="#00a1ff" fill-rule="evenodd" fill-opacity="1" stroke="#000000" stroke-opacity="1" stroke-width="3.2"/>
<circle clip-path="url(#clip212)" cx="572.544" cy="1264.66" r="36" fill="#e69f00" fill-rule="evenodd" fill-opacity="1" stroke="#000000" stroke-opacity="1" stroke-width="3.2"/>
<polyline clip-path="url(#clip212)" style="stroke:#000000; stroke-linecap:round; stroke-linejoin:round; stroke-width:8; stroke-opacity:1; fill:none" points="527.028,1368.29 572.544,1264.66 "/>
<polyline clip-path="url(#clip212)" style="stroke:#000000; stroke-linecap:round; stroke-linejoin:round; stroke-width:8; stroke-opacity:1; fill:none" points="546.746,1286.09 572.544,1264.66 574.213,1298.16 "/>
<polyline clip-path="url(#clip212)" style="stroke:#000000; stroke-linecap:round; stroke-linejoin:round; stroke-width:8; stroke-opacity:1; fill:none" points="572.544,1264.66 527.028,1368.29 "/>
<circle clip-path="url(#clip212)" cx="603.578" cy="1368.29" r="36" fill="#00a1ff" fill-rule="evenodd" fill-opacity="1" stroke="#000000" stroke-opacity="1" stroke-width="3.2"/>
<circle clip-path="url(#clip212)" cx="683.889" cy="1340.64" r="36" fill="#e69f00" fill-rule="evenodd" fill-opacity="1" stroke="#000000" stroke-opacity="1" stroke-width="3.2"/>
<polyline clip-path="url(#clip212)" style="stroke:#000000; stroke-linecap:round; stroke-linejoin:round; stroke-width:8; stroke-opacity:1; fill:none" points="603.578,1368.29 683.889,1340.64 "/>
<polyline clip-path="url(#clip212)" style="stroke:#000000; stroke-linecap:round; stroke-linejoin:round; stroke-width:8; stroke-opacity:1; fill:none" points="650.64,1336.22 683.889,1340.64 660.405,1364.59 "/>
<polyline clip-path="url(#clip212)" style="stroke:#000000; stroke-linecap:round; stroke-linejoin:round; stroke-width:8; stroke-opacity:1; fill:none" points="683.889,1340.64 603.578,1368.29 "/>
<circle clip-path="url(#clip212)" cx="1264.97" cy="1176.4" r="36" fill="#00a1ff" fill-rule="evenodd" fill-opacity="1" stroke="#000000" stroke-opacity="1" stroke-width="3.2"/>
<circle clip-path="url(#clip212)" cx="1235.6" cy="1079.11" r="36" fill="#e69f00" fill-rule="evenodd" fill-opacity="1" stroke="#000000" stroke-opacity="1" stroke-width="3.2"/>
<polyline clip-path="url(#clip212)" style="stroke:#000000; stroke-linecap:round; stroke-linejoin:round; stroke-width:8; stroke-opacity:1; fill:none" points="1264.97,1176.4 1235.6,1079.11 "/>
<polyline clip-path="url(#clip212)" style="stroke:#000000; stroke-linecap:round; stroke-linejoin:round; stroke-width:8; stroke-opacity:1; fill:none" points="1229.91,1112.16 1235.6,1079.11 1258.63,1103.49 "/>
<polyline clip-path="url(#clip212)" style="stroke:#000000; stroke-linecap:round; stroke-linejoin:round; stroke-width:8; stroke-opacity:1; fill:none" points="1235.6,1079.11 1264.97,1176.4 "/>
<circle clip-path="url(#clip212)" cx="1904.93" cy="408.846" r="36" fill="#00a1ff" fill-rule="evenodd" fill-opacity="1" stroke="#000000" stroke-opacity="1" stroke-width="3.2"/>
<circle clip-path="url(#clip212)" cx="1864.93" cy="408.846" r="36" fill="#e69f00" fill-rule="evenodd" fill-opacity="1" stroke="#000000" stroke-opacity="1" stroke-width="3.2"/>
<polyline clip-path="url(#clip212)" style="stroke:#000000; stroke-linecap:round; stroke-linejoin:round; stroke-width:8; stroke-opacity:1; fill:none" points="1904.93,408.846 1864.93,408.846 "/>
<polyline clip-path="url(#clip212)" style="stroke:#000000; stroke-linecap:round; stroke-linejoin:round; stroke-width:8; stroke-opacity:1; fill:none" points="1894.93,423.846 1864.93,408.846 1894.93,393.846 "/>
<polyline clip-path="url(#clip212)" style="stroke:#000000; stroke-linecap:round; stroke-linejoin:round; stroke-width:8; stroke-opacity:1; fill:none" points="1864.93,408.846 1904.93,408.846 "/>
<circle clip-path="url(#clip212)" cx="373.927" cy="856.585" r="36" fill="#00a1ff" fill-rule="evenodd" fill-opacity="1" stroke="#000000" stroke-opacity="1" stroke-width="3.2"/>
<circle clip-path="url(#clip212)" cx="807.946" cy="764.069" r="36" fill="#e69f00" fill-rule="evenodd" fill-opacity="1" stroke="#000000" stroke-opacity="1" stroke-width="3.2"/>
<polyline clip-path="url(#clip212)" style="stroke:#000000; stroke-linecap:round; stroke-linejoin:round; stroke-width:8; stroke-opacity:1; fill:none" points="373.927,856.585 807.946,764.069 "/>
<polyline clip-path="url(#clip212)" style="stroke:#000000; stroke-linecap:round; stroke-linejoin:round; stroke-width:8; stroke-opacity:1; fill:none" points="775.478,755.653 807.946,764.069 781.732,784.994 "/>
<polyline clip-path="url(#clip212)" style="stroke:#000000; stroke-linecap:round; stroke-linejoin:round; stroke-width:8; stroke-opacity:1; fill:none" points="807.946,764.069 373.927,856.585 "/>
<circle clip-path="url(#clip212)" cx="1037.62" cy="152.995" r="36" fill="#00a1ff" fill-rule="evenodd" fill-opacity="1" stroke="#000000" stroke-opacity="1" stroke-width="3.2"/>
<circle clip-path="url(#clip212)" cx="1092.94" cy="85.7211" r="36" fill="#e69f00" fill-rule="evenodd" fill-opacity="1" stroke="#000000" stroke-opacity="1" stroke-width="3.2"/>
<polyline clip-path="url(#clip212)" style="stroke:#000000; stroke-linecap:round; stroke-linejoin:round; stroke-width:8; stroke-opacity:1; fill:none" points="1037.62,152.995 1092.94,85.7211 "/>
<polyline clip-path="url(#clip212)" style="stroke:#000000; stroke-linecap:round; stroke-linejoin:round; stroke-width:8; stroke-opacity:1; fill:none" points="1062.3,99.3656 1092.94,85.7211 1085.47,118.42 "/>
<polyline clip-path="url(#clip212)" style="stroke:#000000; stroke-linecap:round; stroke-linejoin:round; stroke-width:8; stroke-opacity:1; fill:none" points="1092.94,85.7211 1037.62,152.995 "/>
<circle clip-path="url(#clip212)" cx="766.629" cy="280.921" r="36" fill="#00a1ff" fill-rule="evenodd" fill-opacity="1" stroke="#000000" stroke-opacity="1" stroke-width="3.2"/>
<circle clip-path="url(#clip212)" cx="880.403" cy="221.248" r="36" fill="#e69f00" fill-rule="evenodd" fill-opacity="1" stroke="#000000" stroke-opacity="1" stroke-width="3.2"/>
<polyline clip-path="url(#clip212)" style="stroke:#000000; stroke-linecap:round; stroke-linejoin:round; stroke-width:8; stroke-opacity:1; fill:none" points="766.629,280.921 880.403,221.248 "/>
<polyline clip-path="url(#clip212)" style="stroke:#000000; stroke-linecap:round; stroke-linejoin:round; stroke-width:8; stroke-opacity:1; fill:none" points="846.869,221.898 880.403,221.248 860.803,248.466 "/>
<polyline clip-path="url(#clip212)" style="stroke:#000000; stroke-linecap:round; stroke-linejoin:round; stroke-width:8; stroke-opacity:1; fill:none" points="880.403,221.248 766.629,280.921 "/>
<circle clip-path="url(#clip212)" cx="680.128" cy="984.511" r="36" fill="#00a1ff" fill-rule="evenodd" fill-opacity="1" stroke="#000000" stroke-opacity="1" stroke-width="3.2"/>
<circle clip-path="url(#clip212)" cx="882.331" cy="974.083" r="36" fill="#e69f00" fill-rule="evenodd" fill-opacity="1" stroke="#000000" stroke-opacity="1" stroke-width="3.2"/>
<polyline clip-path="url(#clip212)" style="stroke:#000000; stroke-linecap:round; stroke-linejoin:round; stroke-width:8; stroke-opacity:1; fill:none" points="680.128,984.511 882.331,974.083 "/>
<polyline clip-path="url(#clip212)" style="stroke:#000000; stroke-linecap:round; stroke-linejoin:round; stroke-width:8; stroke-opacity:1; fill:none" points="851.598,960.648 882.331,974.083 853.143,990.608 "/>
<polyline clip-path="url(#clip212)" style="stroke:#000000; stroke-linecap:round; stroke-linejoin:round; stroke-width:8; stroke-opacity:1; fill:none" points="882.331,974.083 680.128,984.511 "/>
<circle clip-path="url(#clip212)" cx="310.697" cy="280.921" r="36" fill="#00a1ff" fill-rule="evenodd" fill-opacity="1" stroke="#000000" stroke-opacity="1" stroke-width="3.2"/>
<circle clip-path="url(#clip212)" cx="376.459" cy="241.099" r="36" fill="#e69f00" fill-rule="evenodd" fill-opacity="1" stroke="#000000" stroke-opacity="1" stroke-width="3.2"/>
<polyline clip-path="url(#clip212)" style="stroke:#000000; stroke-linecap:round; stroke-linejoin:round; stroke-width:8; stroke-opacity:1; fill:none" points="310.697,280.921 376.459,241.099 "/>
<polyline clip-path="url(#clip212)" style="stroke:#000000; stroke-linecap:round; stroke-linejoin:round; stroke-width:8; stroke-opacity:1; fill:none" points="343.028,243.807 376.459,241.099 358.567,269.469 "/>
<polyline clip-path="url(#clip212)" style="stroke:#000000; stroke-linecap:round; stroke-linejoin:round; stroke-width:8; stroke-opacity:1; fill:none" points="376.459,241.099 310.697,280.921 "/>
<circle clip-path="url(#clip212)" cx="626.543" cy="1176.4" r="36" fill="#00a1ff" fill-rule="evenodd" fill-opacity="1" stroke="#000000" stroke-opacity="1" stroke-width="3.2"/>
<circle clip-path="url(#clip212)" cx="637.239" cy="1140.68" r="36" fill="#e69f00" fill-rule="evenodd" fill-opacity="1" stroke="#000000" stroke-opacity="1" stroke-width="3.2"/>
<polyline clip-path="url(#clip212)" style="stroke:#000000; stroke-linecap:round; stroke-linejoin:round; stroke-width:8; stroke-opacity:1; fill:none" points="626.543,1176.4 637.239,1140.68 "/>
<polyline clip-path="url(#clip212)" style="stroke:#000000; stroke-linecap:round; stroke-linejoin:round; stroke-width:8; stroke-opacity:1; fill:none" points="614.263,1165.12 637.239,1140.68 643.002,1173.72 "/>
<polyline clip-path="url(#clip212)" style="stroke:#000000; stroke-linecap:round; stroke-linejoin:round; stroke-width:8; stroke-opacity:1; fill:none" points="637.239,1140.68 626.543,1176.4 "/>
<path clip-path="url(#clip210)" d="M1411.75 1361.45 L1896.43 1361.45 L1896.43 1205.93 L1411.75 1205.93  Z" fill="#ffffff" fill-rule="evenodd" fill-opacity="1"/>
<polyline clip-path="url(#clip210)" style="stroke:#000000; stroke-linecap:round; stroke-linejoin:round; stroke-width:4; stroke-opacity:1; fill:none" points="1411.75,1361.45 1896.43,1361.45 1896.43,1205.93 1411.75,1205.93 1411.75,1361.45 "/>
<circle clip-path="url(#clip210)" cx="1486.85" cy="1257.77" r="23.04" fill="#00a1ff" fill-rule="evenodd" fill-opacity="1" stroke="#000000" stroke-opacity="1" stroke-width="2.048"/>
<path clip-path="url(#clip210)" d="M1561.96 1239.03 L1566.22 1239.03 L1566.22 1275.05 L1561.96 1275.05 L1561.96 1239.03 Z" fill="#000000" fill-rule="evenodd" fill-opacity="1" /><path clip-path="url(#clip210)" d="M1585.17 1252.11 Q1581.75 1252.11 1579.76 1254.79 Q1577.77 1257.45 1577.77 1262.11 Q1577.77 1266.76 1579.73 1269.44 Q1581.73 1272.11 1585.17 1272.11 Q1588.58 1272.11 1590.57 1269.42 Q1592.56 1266.74 1592.56 1262.11 Q1592.56 1257.5 1590.57 1254.82 Q1588.58 1252.11 1585.17 1252.11 M1585.17 1248.5 Q1590.73 1248.5 1593.9 1252.11 Q1597.07 1255.72 1597.07 1262.11 Q1597.07 1268.47 1593.9 1272.11 Q1590.73 1275.72 1585.17 1275.72 Q1579.6 1275.72 1576.42 1272.11 Q1573.28 1268.47 1573.28 1262.11 Q1573.28 1255.72 1576.42 1252.11 Q1579.6 1248.5 1585.17 1248.5 Z" fill="#000000" fill-rule="evenodd" fill-opacity="1" /><path clip-path="url(#clip210)" d="M1615.92 1262.01 Q1610.75 1262.01 1608.76 1263.19 Q1606.77 1264.38 1606.77 1267.22 Q1606.77 1269.49 1608.25 1270.83 Q1609.76 1272.15 1612.33 1272.15 Q1615.87 1272.15 1618 1269.65 Q1620.15 1267.13 1620.15 1262.96 L1620.15 1262.01 L1615.92 1262.01 M1624.41 1260.25 L1624.41 1275.05 L1620.15 1275.05 L1620.15 1271.11 Q1618.69 1273.47 1616.52 1274.61 Q1614.34 1275.72 1611.19 1275.72 Q1607.21 1275.72 1604.85 1273.5 Q1602.51 1271.25 1602.51 1267.5 Q1602.51 1263.13 1605.43 1260.9 Q1608.37 1258.68 1614.18 1258.68 L1620.15 1258.68 L1620.15 1258.26 Q1620.15 1255.32 1618.21 1253.73 Q1616.29 1252.11 1612.79 1252.11 Q1610.57 1252.11 1608.46 1252.64 Q1606.36 1253.17 1604.41 1254.24 L1604.41 1250.3 Q1606.75 1249.4 1608.95 1248.96 Q1611.15 1248.5 1613.23 1248.5 Q1618.85 1248.5 1621.63 1251.41 Q1624.41 1254.33 1624.41 1260.25 Z" fill="#000000" fill-rule="evenodd" fill-opacity="1" /><path clip-path="url(#clip210)" d="M1654.73 1259.4 L1654.73 1275.05 L1650.48 1275.05 L1650.48 1259.54 Q1650.48 1255.86 1649.04 1254.03 Q1647.6 1252.2 1644.73 1252.2 Q1641.29 1252.2 1639.29 1254.4 Q1637.3 1256.6 1637.3 1260.39 L1637.3 1275.05 L1633.02 1275.05 L1633.02 1249.12 L1637.3 1249.12 L1637.3 1253.15 Q1638.83 1250.81 1640.89 1249.65 Q1642.98 1248.5 1645.68 1248.5 Q1650.15 1248.5 1652.44 1251.27 Q1654.73 1254.03 1654.73 1259.4 Z" fill="#000000" fill-rule="evenodd" fill-opacity="1" /><path clip-path="url(#clip210)" d="M1695.36 1253.06 L1695.36 1239.03 L1699.62 1239.03 L1699.62 1275.05 L1695.36 1275.05 L1695.36 1271.16 Q1694.02 1273.47 1691.96 1274.61 Q1689.92 1275.72 1687.05 1275.72 Q1682.35 1275.72 1679.39 1271.97 Q1676.45 1268.22 1676.45 1262.11 Q1676.45 1256 1679.39 1252.25 Q1682.35 1248.5 1687.05 1248.5 Q1689.92 1248.5 1691.96 1249.63 Q1694.02 1250.74 1695.36 1253.06 M1680.85 1262.11 Q1680.85 1266.81 1682.77 1269.49 Q1684.71 1272.15 1688.09 1272.15 Q1691.47 1272.15 1693.41 1269.49 Q1695.36 1266.81 1695.36 1262.11 Q1695.36 1257.41 1693.41 1254.75 Q1691.47 1252.06 1688.09 1252.06 Q1684.71 1252.06 1682.77 1254.75 Q1680.85 1257.41 1680.85 1262.11 Z" fill="#000000" fill-rule="evenodd" fill-opacity="1" /><path clip-path="url(#clip210)" d="M1730.57 1261.02 L1730.57 1263.1 L1710.98 1263.1 Q1711.26 1267.5 1713.62 1269.82 Q1716.01 1272.11 1720.24 1272.11 Q1722.7 1272.11 1724.99 1271.5 Q1727.3 1270.9 1729.57 1269.7 L1729.57 1273.73 Q1727.28 1274.7 1724.87 1275.21 Q1722.47 1275.72 1719.99 1275.72 Q1713.79 1275.72 1710.15 1272.11 Q1706.54 1268.5 1706.54 1262.34 Q1706.54 1255.97 1709.97 1252.25 Q1713.41 1248.5 1719.25 1248.5 Q1724.48 1248.5 1727.51 1251.88 Q1730.57 1255.23 1730.57 1261.02 M1726.31 1259.77 Q1726.26 1256.27 1724.34 1254.19 Q1722.44 1252.11 1719.29 1252.11 Q1715.73 1252.11 1713.58 1254.12 Q1711.45 1256.13 1711.12 1259.79 L1726.31 1259.77 Z" fill="#000000" fill-rule="evenodd" fill-opacity="1" /><path clip-path="url(#clip210)" d="M1759.11 1259.4 L1759.11 1275.05 L1754.85 1275.05 L1754.85 1259.54 Q1754.85 1255.86 1753.41 1254.03 Q1751.98 1252.2 1749.11 1252.2 Q1745.66 1252.2 1743.67 1254.4 Q1741.68 1256.6 1741.68 1260.39 L1741.68 1275.05 L1737.4 1275.05 L1737.4 1249.12 L1741.68 1249.12 L1741.68 1253.15 Q1743.21 1250.81 1745.27 1249.65 Q1747.35 1248.5 1750.06 1248.5 Q1754.53 1248.5 1756.82 1251.27 Q1759.11 1254.03 1759.11 1259.4 Z" fill="#000000" fill-rule="evenodd" fill-opacity="1" /><path clip-path="url(#clip210)" d="M1767.6 1249.12 L1771.86 1249.12 L1771.86 1275.05 L1767.6 1275.05 L1767.6 1249.12 M1767.6 1239.03 L1771.86 1239.03 L1771.86 1244.42 L1767.6 1244.42 L1767.6 1239.03 Z" fill="#000000" fill-rule="evenodd" fill-opacity="1" /><path clip-path="url(#clip210)" d="M1802.95 1261.02 L1802.95 1263.1 L1783.37 1263.1 Q1783.65 1267.5 1786.01 1269.82 Q1788.39 1272.11 1792.63 1272.11 Q1795.08 1272.11 1797.37 1271.5 Q1799.69 1270.9 1801.96 1269.7 L1801.96 1273.73 Q1799.66 1274.7 1797.26 1275.21 Q1794.85 1275.72 1792.37 1275.72 Q1786.17 1275.72 1782.53 1272.11 Q1778.92 1268.5 1778.92 1262.34 Q1778.92 1255.97 1782.35 1252.25 Q1785.8 1248.5 1791.63 1248.5 Q1796.86 1248.5 1799.9 1251.88 Q1802.95 1255.23 1802.95 1261.02 M1798.69 1259.77 Q1798.65 1256.27 1796.72 1254.19 Q1794.83 1252.11 1791.68 1252.11 Q1788.11 1252.11 1785.96 1254.12 Q1783.83 1256.13 1783.51 1259.79 L1798.69 1259.77 Z" fill="#000000" fill-rule="evenodd" fill-opacity="1" /><path clip-path="url(#clip210)" d="M1827 1253.06 L1827 1239.03 L1831.26 1239.03 L1831.26 1275.05 L1827 1275.05 L1827 1271.16 Q1825.66 1273.47 1823.6 1274.61 Q1821.56 1275.72 1818.69 1275.72 Q1813.99 1275.72 1811.03 1271.97 Q1808.09 1268.22 1808.09 1262.11 Q1808.09 1256 1811.03 1252.25 Q1813.99 1248.5 1818.69 1248.5 Q1821.56 1248.5 1823.6 1249.63 Q1825.66 1250.74 1827 1253.06 M1812.49 1262.11 Q1812.49 1266.81 1814.41 1269.49 Q1816.35 1272.15 1819.73 1272.15 Q1823.11 1272.15 1825.06 1269.49 Q1827 1266.81 1827 1262.11 Q1827 1257.41 1825.06 1254.75 Q1823.11 1252.06 1819.73 1252.06 Q1816.35 1252.06 1814.41 1254.75 Q1812.49 1257.41 1812.49 1262.11 Z" fill="#000000" fill-rule="evenodd" fill-opacity="1" /><circle clip-path="url(#clip210)" cx="1486.85" cy="1309.61" r="23.04" fill="#e69f00" fill-rule="evenodd" fill-opacity="1" stroke="#000000" stroke-opacity="1" stroke-width="2.048"/>
<path clip-path="url(#clip210)" d="M1561.96 1290.87 L1566.22 1290.87 L1566.22 1326.89 L1561.96 1326.89 L1561.96 1290.87 Z" fill="#000000" fill-rule="evenodd" fill-opacity="1" /><path clip-path="url(#clip210)" d="M1585.17 1303.95 Q1581.75 1303.95 1579.76 1306.63 Q1577.77 1309.29 1577.77 1313.95 Q1577.77 1318.6 1579.73 1321.28 Q1581.73 1323.95 1585.17 1323.95 Q1588.58 1323.95 1590.57 1321.26 Q1592.56 1318.58 1592.56 1313.95 Q1592.56 1309.34 1590.57 1306.66 Q1588.58 1303.95 1585.17 1303.95 M1585.17 1300.34 Q1590.73 1300.34 1593.9 1303.95 Q1597.07 1307.56 1597.07 1313.95 Q1597.07 1320.31 1593.9 1323.95 Q1590.73 1327.56 1585.17 1327.56 Q1579.6 1327.56 1576.42 1323.95 Q1573.28 1320.31 1573.28 1313.95 Q1573.28 1307.56 1576.42 1303.95 Q1579.6 1300.34 1585.17 1300.34 Z" fill="#000000" fill-rule="evenodd" fill-opacity="1" /><path clip-path="url(#clip210)" d="M1615.92 1313.85 Q1610.75 1313.85 1608.76 1315.03 Q1606.77 1316.22 1606.77 1319.06 Q1606.77 1321.33 1608.25 1322.67 Q1609.76 1323.99 1612.33 1323.99 Q1615.87 1323.99 1618 1321.49 Q1620.15 1318.97 1620.15 1314.8 L1620.15 1313.85 L1615.92 1313.85 M1624.41 1312.09 L1624.41 1326.89 L1620.15 1326.89 L1620.15 1322.95 Q1618.69 1325.31 1616.52 1326.45 Q1614.34 1327.56 1611.19 1327.56 Q1607.21 1327.56 1604.85 1325.34 Q1602.51 1323.09 1602.51 1319.34 Q1602.51 1314.97 1605.43 1312.74 Q1608.37 1310.52 1614.18 1310.52 L1620.15 1310.52 L1620.15 1310.1 Q1620.15 1307.16 1618.21 1305.57 Q1616.29 1303.95 1612.79 1303.95 Q1610.57 1303.95 1608.46 1304.48 Q1606.36 1305.01 1604.41 1306.08 L1604.41 1302.14 Q1606.75 1301.24 1608.95 1300.8 Q1611.15 1300.34 1613.23 1300.34 Q1618.85 1300.34 1621.63 1303.25 Q1624.41 1306.17 1624.41 1312.09 Z" fill="#000000" fill-rule="evenodd" fill-opacity="1" /><path clip-path="url(#clip210)" d="M1654.73 1311.24 L1654.73 1326.89 L1650.48 1326.89 L1650.48 1311.38 Q1650.48 1307.7 1649.04 1305.87 Q1647.6 1304.04 1644.73 1304.04 Q1641.29 1304.04 1639.29 1306.24 Q1637.3 1308.44 1637.3 1312.23 L1637.3 1326.89 L1633.02 1326.89 L1633.02 1300.96 L1637.3 1300.96 L1637.3 1304.99 Q1638.83 1302.65 1640.89 1301.49 Q1642.98 1300.34 1645.68 1300.34 Q1650.15 1300.34 1652.44 1303.11 Q1654.73 1305.87 1654.73 1311.24 Z" fill="#000000" fill-rule="evenodd" fill-opacity="1" /><path clip-path="url(#clip210)" d="M1682.42 1323 L1682.42 1336.75 L1678.14 1336.75 L1678.14 1300.96 L1682.42 1300.96 L1682.42 1304.9 Q1683.76 1302.58 1685.8 1301.47 Q1687.86 1300.34 1690.71 1300.34 Q1695.43 1300.34 1698.37 1304.09 Q1701.33 1307.84 1701.33 1313.95 Q1701.33 1320.06 1698.37 1323.81 Q1695.43 1327.56 1690.71 1327.56 Q1687.86 1327.56 1685.8 1326.45 Q1683.76 1325.31 1682.42 1323 M1696.91 1313.95 Q1696.91 1309.25 1694.97 1306.59 Q1693.04 1303.9 1689.66 1303.9 Q1686.29 1303.9 1684.34 1306.59 Q1682.42 1309.25 1682.42 1313.95 Q1682.42 1318.65 1684.34 1321.33 Q1686.29 1323.99 1689.66 1323.99 Q1693.04 1323.99 1694.97 1321.33 Q1696.91 1318.65 1696.91 1313.95 Z" fill="#000000" fill-rule="evenodd" fill-opacity="1" /><path clip-path="url(#clip210)" d="M1723.41 1304.94 Q1722.7 1304.53 1721.84 1304.34 Q1721.01 1304.13 1719.99 1304.13 Q1716.38 1304.13 1714.43 1306.49 Q1712.51 1308.83 1712.51 1313.23 L1712.51 1326.89 L1708.23 1326.89 L1708.23 1300.96 L1712.51 1300.96 L1712.51 1304.99 Q1713.85 1302.63 1716.01 1301.49 Q1718.16 1300.34 1721.24 1300.34 Q1721.68 1300.34 1722.21 1300.41 Q1722.74 1300.45 1723.39 1300.57 L1723.41 1304.94 Z" fill="#000000" fill-rule="evenodd" fill-opacity="1" /><path clip-path="url(#clip210)" d="M1736.89 1303.95 Q1733.46 1303.95 1731.47 1306.63 Q1729.48 1309.29 1729.48 1313.95 Q1729.48 1318.6 1731.45 1321.28 Q1733.44 1323.95 1736.89 1323.95 Q1740.29 1323.95 1742.28 1321.26 Q1744.27 1318.58 1744.27 1313.95 Q1744.27 1309.34 1742.28 1306.66 Q1740.29 1303.95 1736.89 1303.95 M1736.89 1300.34 Q1742.44 1300.34 1745.61 1303.95 Q1748.78 1307.56 1748.78 1313.95 Q1748.78 1320.31 1745.61 1323.95 Q1742.44 1327.56 1736.89 1327.56 Q1731.31 1327.56 1728.14 1323.95 Q1724.99 1320.31 1724.99 1313.95 Q1724.99 1307.56 1728.14 1303.95 Q1731.31 1300.34 1736.89 1300.34 Z" fill="#000000" fill-rule="evenodd" fill-opacity="1" /><path clip-path="url(#clip210)" d="M1752.79 1300.96 L1757.3 1300.96 L1765.41 1322.72 L1773.51 1300.96 L1778.02 1300.96 L1768.3 1326.89 L1762.51 1326.89 L1752.79 1300.96 Z" fill="#000000" fill-rule="evenodd" fill-opacity="1" /><path clip-path="url(#clip210)" d="M1783.9 1300.96 L1788.16 1300.96 L1788.16 1326.89 L1783.9 1326.89 L1783.9 1300.96 M1783.9 1290.87 L1788.16 1290.87 L1788.16 1296.26 L1783.9 1296.26 L1783.9 1290.87 Z" fill="#000000" fill-rule="evenodd" fill-opacity="1" /><path clip-path="url(#clip210)" d="M1814.13 1304.9 L1814.13 1290.87 L1818.39 1290.87 L1818.39 1326.89 L1814.13 1326.89 L1814.13 1323 Q1812.79 1325.31 1810.73 1326.45 Q1808.69 1327.56 1805.82 1327.56 Q1801.12 1327.56 1798.16 1323.81 Q1795.22 1320.06 1795.22 1313.95 Q1795.22 1307.84 1798.16 1304.09 Q1801.12 1300.34 1805.82 1300.34 Q1808.69 1300.34 1810.73 1301.47 Q1812.79 1302.58 1814.13 1304.9 M1799.62 1313.95 Q1799.62 1318.65 1801.54 1321.33 Q1803.48 1323.99 1806.86 1323.99 Q1810.24 1323.99 1812.19 1321.33 Q1814.13 1318.65 1814.13 1313.95 Q1814.13 1309.25 1812.19 1306.59 Q1810.24 1303.9 1806.86 1303.9 Q1803.48 1303.9 1801.54 1306.59 Q1799.62 1309.25 1799.62 1313.95 Z" fill="#000000" fill-rule="evenodd" fill-opacity="1" /><path clip-path="url(#clip210)" d="M1849.34 1312.86 L1849.34 1314.94 L1829.76 1314.94 Q1830.03 1319.34 1832.4 1321.66 Q1834.78 1323.95 1839.02 1323.95 Q1841.47 1323.95 1843.76 1323.34 Q1846.08 1322.74 1848.34 1321.54 L1848.34 1325.57 Q1846.05 1326.54 1843.65 1327.05 Q1841.24 1327.56 1838.76 1327.56 Q1832.56 1327.56 1828.92 1323.95 Q1825.31 1320.34 1825.31 1314.18 Q1825.31 1307.81 1828.74 1304.09 Q1832.19 1300.34 1838.02 1300.34 Q1843.25 1300.34 1846.28 1303.72 Q1849.34 1307.07 1849.34 1312.86 M1845.08 1311.61 Q1845.03 1308.11 1843.11 1306.03 Q1841.21 1303.95 1838.07 1303.95 Q1834.5 1303.95 1832.35 1305.96 Q1830.22 1307.97 1829.9 1311.63 L1845.08 1311.61 Z" fill="#000000" fill-rule="evenodd" fill-opacity="1" /><path clip-path="url(#clip210)" d="M1873.39 1304.9 L1873.39 1290.87 L1877.65 1290.87 L1877.65 1326.89 L1873.39 1326.89 L1873.39 1323 Q1872.05 1325.31 1869.99 1326.45 Q1867.95 1327.56 1865.08 1327.56 Q1860.38 1327.56 1857.42 1323.81 Q1854.48 1320.06 1854.48 1313.95 Q1854.48 1307.84 1857.42 1304.09 Q1860.38 1300.34 1865.08 1300.34 Q1867.95 1300.34 1869.99 1301.47 Q1872.05 1302.58 1873.39 1304.9 M1858.88 1313.95 Q1858.88 1318.65 1860.8 1321.33 Q1862.74 1323.99 1866.12 1323.99 Q1869.5 1323.99 1871.45 1321.33 Q1873.39 1318.65 1873.39 1313.95 Q1873.39 1309.25 1871.45 1306.59 Q1869.5 1303.9 1866.12 1303.9 Q1862.74 1303.9 1860.8 1306.59 Q1858.88 1309.25 1858.88 1313.95 Z" fill="#000000" fill-rule="evenodd" fill-opacity="1" /></svg>
