<?xml version="1.0" encoding="utf-8"?>
<svg xmlns="http://www.w3.org/2000/svg" xmlns:xlink="http://www.w3.org/1999/xlink" width="500" height="400" viewBox="0 0 2000 1600">
<defs>
  <clipPath id="clip380">
    <rect x="0" y="0" width="2000" height="1600"/>
  </clipPath>
</defs>
<path clip-path="url(#clip380)" d="M0 1600 L2000 1600 L2000 0 L0 0  Z" fill="#ffffff" fill-rule="evenodd" fill-opacity="1"/>
<defs>
  <clipPath id="clip381">
    <rect x="400" y="0" width="1401" height="1401"/>
  </clipPath>
</defs>
<path clip-path="url(#clip380)" d="M292.87 1406.76 L1952.76 1406.76 L1952.76 47.2441 L292.87 47.2441  Z" fill="#ffffff" fill-rule="evenodd" fill-opacity="1"/>
<defs>
  <clipPath id="clip382">
    <rect x="292" y="47" width="1661" height="1361"/>
  </clipPath>
</defs>
<polyline clip-path="url(#clip382)" style="stroke:#000000; stroke-linecap:round; stroke-linejoin:round; stroke-width:2; stroke-opacity:0.1; fill:none" points="387.889,1406.76 387.889,47.2441 "/>
<polyline clip-path="url(#clip382)" style="stroke:#000000; stroke-linecap:round; stroke-linejoin:round; stroke-width:2; stroke-opacity:0.1; fill:none" points="708.232,1406.76 708.232,47.2441 "/>
<polyline clip-path="url(#clip382)" style="stroke:#000000; stroke-linecap:round; stroke-linejoin:round; stroke-width:2; stroke-opacity:0.1; fill:none" points="1028.58,1406.76 1028.58,47.2441 "/>
<polyline clip-path="url(#clip382)" style="stroke:#000000; stroke-linecap:round; stroke-linejoin:round; stroke-width:2; stroke-opacity:0.1; fill:none" points="1348.92,1406.76 1348.92,47.2441 "/>
<polyline clip-path="url(#clip382)" style="stroke:#000000; stroke-linecap:round; stroke-linejoin:round; stroke-width:2; stroke-opacity:0.1; fill:none" points="1669.26,1406.76 1669.26,47.2441 "/>
<polyline clip-path="url(#clip380)" style="stroke:#000000; stroke-linecap:round; stroke-linejoin:round; stroke-width:4; stroke-opacity:1; fill:none" points="292.87,1406.76 1952.76,1406.76 "/>
<polyline clip-path="url(#clip380)" style="stroke:#000000; stroke-linecap:round; stroke-linejoin:round; stroke-width:4; stroke-opacity:1; fill:none" points="387.889,1406.76 387.889,1387.87 "/>
<polyline clip-path="url(#clip380)" style="stroke:#000000; stroke-linecap:round; stroke-linejoin:round; stroke-width:4; stroke-opacity:1; fill:none" points="708.232,1406.76 708.232,1387.87 "/>
<polyline clip-path="url(#clip380)" style="stroke:#000000; stroke-linecap:round; stroke-linejoin:round; stroke-width:4; stroke-opacity:1; fill:none" points="1028.58,1406.76 1028.58,1387.87 "/>
<polyline clip-path="url(#clip380)" style="stroke:#000000; stroke-linecap:round; stroke-linejoin:round; stroke-width:4; stroke-opacity:1; fill:none" points="1348.92,1406.76 1348.92,1387.87 "/>
<polyline clip-path="url(#clip380)" style="stroke:#000000; stroke-linecap:round; stroke-linejoin:round; stroke-width:4; stroke-opacity:1; fill:none" points="1669.26,1406.76 1669.26,1387.87 "/>
<path clip-path="url(#clip380)" d="M319.336 1449.14 L349.012 1449.14 L349.012 1453.07 L319.336 1453.07 L319.336 1449.14 Z" fill="#000000" fill-rule="evenodd" fill-opacity="1" /><path clip-path="url(#clip380)" d="M369.104 1434.48 Q365.493 1434.48 363.664 1438.05 Q361.859 1441.59 361.859 1448.72 Q361.859 1455.83 363.664 1459.39 Q365.493 1462.93 369.104 1462.93 Q372.739 1462.93 374.544 1459.39 Q376.373 1455.83 376.373 1448.72 Q376.373 1441.59 374.544 1438.05 Q372.739 1434.48 369.104 1434.48 M369.104 1430.78 Q374.914 1430.78 377.97 1435.39 Q381.049 1439.97 381.049 1448.72 Q381.049 1457.45 377.97 1462.05 Q374.914 1466.64 369.104 1466.64 Q363.294 1466.64 360.215 1462.05 Q357.16 1457.45 357.16 1448.72 Q357.16 1439.97 360.215 1435.39 Q363.294 1430.78 369.104 1430.78 Z" fill="#000000" fill-rule="evenodd" fill-opacity="1" /><path clip-path="url(#clip380)" d="M389.266 1460.08 L394.15 1460.08 L394.15 1465.96 L389.266 1465.96 L389.266 1460.08 Z" fill="#000000" fill-rule="evenodd" fill-opacity="1" /><path clip-path="url(#clip380)" d="M404.382 1431.4 L422.738 1431.4 L422.738 1435.34 L408.664 1435.34 L408.664 1443.81 Q409.683 1443.46 410.701 1443.3 Q411.72 1443.12 412.738 1443.12 Q418.525 1443.12 421.905 1446.29 Q425.285 1449.46 425.285 1454.88 Q425.285 1460.45 421.812 1463.56 Q418.34 1466.64 412.021 1466.64 Q409.845 1466.64 407.576 1466.26 Q405.331 1465.89 402.924 1465.15 L402.924 1460.45 Q405.007 1461.59 407.229 1462.14 Q409.451 1462.7 411.928 1462.7 Q415.933 1462.7 418.271 1460.59 Q420.609 1458.49 420.609 1454.88 Q420.609 1451.26 418.271 1449.16 Q415.933 1447.05 411.928 1447.05 Q410.053 1447.05 408.178 1447.47 Q406.326 1447.89 404.382 1448.76 L404.382 1431.4 Z" fill="#000000" fill-rule="evenodd" fill-opacity="1" /><path clip-path="url(#clip380)" d="M444.497 1434.48 Q440.886 1434.48 439.058 1438.05 Q437.252 1441.59 437.252 1448.72 Q437.252 1455.83 439.058 1459.39 Q440.886 1462.93 444.497 1462.93 Q448.132 1462.93 449.937 1459.39 Q451.766 1455.83 451.766 1448.72 Q451.766 1441.59 449.937 1438.05 Q448.132 1434.48 444.497 1434.48 M444.497 1430.78 Q450.308 1430.78 453.363 1435.39 Q456.442 1439.97 456.442 1448.72 Q456.442 1457.45 453.363 1462.05 Q450.308 1466.64 444.497 1466.64 Q438.687 1466.64 435.609 1462.05 Q432.553 1457.45 432.553 1448.72 Q432.553 1439.97 435.609 1435.39 Q438.687 1430.78 444.497 1430.78 Z" fill="#000000" fill-rule="evenodd" fill-opacity="1" /><path clip-path="url(#clip380)" d="M640.177 1449.14 L669.853 1449.14 L669.853 1453.07 L640.177 1453.07 L640.177 1449.14 Z" fill="#000000" fill-rule="evenodd" fill-opacity="1" /><path clip-path="url(#clip380)" d="M689.945 1434.48 Q686.334 1434.48 684.506 1438.05 Q682.7 1441.59 682.7 1448.72 Q682.7 1455.83 684.506 1459.39 Q686.334 1462.93 689.945 1462.93 Q693.58 1462.93 695.385 1459.39 Q697.214 1455.83 697.214 1448.72 Q697.214 1441.59 695.385 1438.05 Q693.58 1434.48 689.945 1434.48 M689.945 1430.78 Q695.756 1430.78 698.811 1435.39 Q701.89 1439.97 701.89 1448.72 Q701.89 1457.45 698.811 1462.05 Q695.756 1466.64 689.945 1466.64 Q684.135 1466.64 681.057 1462.05 Q678.001 1457.45 678.001 1448.72 Q678.001 1439.97 681.057 1435.39 Q684.135 1430.78 689.945 1430.78 Z" fill="#000000" fill-rule="evenodd" fill-opacity="1" /><path clip-path="url(#clip380)" d="M710.107 1460.08 L714.992 1460.08 L714.992 1465.96 L710.107 1465.96 L710.107 1460.08 Z" fill="#000000" fill-rule="evenodd" fill-opacity="1" /><path clip-path="url(#clip380)" d="M729.204 1462.03 L745.524 1462.03 L745.524 1465.96 L723.579 1465.96 L723.579 1462.03 Q726.242 1459.27 730.825 1454.64 Q735.431 1449.99 736.612 1448.65 Q738.857 1446.13 739.737 1444.39 Q740.64 1442.63 740.64 1440.94 Q740.64 1438.19 738.695 1436.45 Q736.774 1434.71 733.672 1434.71 Q731.473 1434.71 729.019 1435.48 Q726.589 1436.24 723.811 1437.79 L723.811 1433.07 Q726.635 1431.94 729.089 1431.36 Q731.542 1430.78 733.579 1430.78 Q738.95 1430.78 742.144 1433.46 Q745.339 1436.15 745.339 1440.64 Q745.339 1442.77 744.528 1444.69 Q743.741 1446.59 741.635 1449.18 Q741.056 1449.85 737.954 1453.07 Q734.853 1456.26 729.204 1462.03 Z" fill="#000000" fill-rule="evenodd" fill-opacity="1" /><path clip-path="url(#clip380)" d="M755.385 1431.4 L773.741 1431.4 L773.741 1435.34 L759.667 1435.34 L759.667 1443.81 Q760.686 1443.46 761.704 1443.3 Q762.723 1443.12 763.741 1443.12 Q769.528 1443.12 772.908 1446.29 Q776.288 1449.46 776.288 1454.88 Q776.288 1460.45 772.815 1463.56 Q769.343 1466.64 763.024 1466.64 Q760.848 1466.64 758.579 1466.26 Q756.334 1465.89 753.927 1465.15 L753.927 1460.45 Q756.01 1461.59 758.232 1462.14 Q760.454 1462.7 762.931 1462.7 Q766.936 1462.7 769.274 1460.59 Q771.612 1458.49 771.612 1454.88 Q771.612 1451.26 769.274 1449.16 Q766.936 1447.05 762.931 1447.05 Q761.056 1447.05 759.181 1447.47 Q757.329 1447.89 755.385 1448.76 L755.385 1431.4 Z" fill="#000000" fill-rule="evenodd" fill-opacity="1" /><path clip-path="url(#clip380)" d="M990.879 1434.48 Q987.268 1434.48 985.439 1438.05 Q983.634 1441.59 983.634 1448.72 Q983.634 1455.83 985.439 1459.39 Q987.268 1462.93 990.879 1462.93 Q994.513 1462.93 996.319 1459.39 Q998.148 1455.83 998.148 1448.72 Q998.148 1441.59 996.319 1438.05 Q994.513 1434.48 990.879 1434.48 M990.879 1430.78 Q996.689 1430.78 999.745 1435.39 Q1002.82 1439.97 1002.82 1448.72 Q1002.82 1457.45 999.745 1462.05 Q996.689 1466.64 990.879 1466.64 Q985.069 1466.64 981.99 1462.05 Q978.935 1457.45 978.935 1448.72 Q978.935 1439.97 981.99 1435.39 Q985.069 1430.78 990.879 1430.78 Z" fill="#000000" fill-rule="evenodd" fill-opacity="1" /><path clip-path="url(#clip380)" d="M1011.04 1460.08 L1015.93 1460.08 L1015.93 1465.96 L1011.04 1465.96 L1011.04 1460.08 Z" fill="#000000" fill-rule="evenodd" fill-opacity="1" /><path clip-path="url(#clip380)" d="M1036.11 1434.48 Q1032.5 1434.48 1030.67 1438.05 Q1028.87 1441.59 1028.87 1448.72 Q1028.87 1455.83 1030.67 1459.39 Q1032.5 1462.93 1036.11 1462.93 Q1039.74 1462.93 1041.55 1459.39 Q1043.38 1455.83 1043.38 1448.72 Q1043.38 1441.59 1041.55 1438.05 Q1039.74 1434.48 1036.11 1434.48 M1036.11 1430.78 Q1041.92 1430.78 1044.98 1435.39 Q1048.05 1439.97 1048.05 1448.72 Q1048.05 1457.45 1044.98 1462.05 Q1041.92 1466.64 1036.11 1466.64 Q1030.3 1466.64 1027.22 1462.05 Q1024.17 1457.45 1024.17 1448.72 Q1024.17 1439.97 1027.22 1435.39 Q1030.3 1430.78 1036.11 1430.78 Z" fill="#000000" fill-rule="evenodd" fill-opacity="1" /><path clip-path="url(#clip380)" d="M1066.27 1434.48 Q1062.66 1434.48 1060.83 1438.05 Q1059.03 1441.59 1059.03 1448.72 Q1059.03 1455.83 1060.83 1459.39 Q1062.66 1462.93 1066.27 1462.93 Q1069.91 1462.93 1071.71 1459.39 Q1073.54 1455.83 1073.54 1448.72 Q1073.54 1441.59 1071.71 1438.05 Q1069.91 1434.48 1066.27 1434.48 M1066.27 1430.78 Q1072.08 1430.78 1075.14 1435.39 Q1078.22 1439.97 1078.22 1448.72 Q1078.22 1457.45 1075.14 1462.05 Q1072.08 1466.64 1066.27 1466.64 Q1060.46 1466.64 1057.38 1462.05 Q1054.33 1457.45 1054.33 1448.72 Q1054.33 1439.97 1057.38 1435.39 Q1060.46 1430.78 1066.27 1430.78 Z" fill="#000000" fill-rule="evenodd" fill-opacity="1" /><path clip-path="url(#clip380)" d="M1311.72 1434.48 Q1308.11 1434.48 1306.28 1438.05 Q1304.48 1441.59 1304.48 1448.72 Q1304.48 1455.83 1306.28 1459.39 Q1308.11 1462.93 1311.72 1462.93 Q1315.35 1462.93 1317.16 1459.39 Q1318.99 1455.83 1318.99 1448.72 Q1318.99 1441.59 1317.16 1438.05 Q1315.35 1434.48 1311.72 1434.48 M1311.72 1430.78 Q1317.53 1430.78 1320.59 1435.39 Q1323.66 1439.97 1323.66 1448.72 Q1323.66 1457.45 1320.59 1462.05 Q1317.53 1466.64 1311.72 1466.64 Q1305.91 1466.64 1302.83 1462.05 Q1299.78 1457.45 1299.78 1448.72 Q1299.78 1439.97 1302.83 1435.39 Q1305.91 1430.78 1311.72 1430.78 Z" fill="#000000" fill-rule="evenodd" fill-opacity="1" /><path clip-path="url(#clip380)" d="M1331.88 1460.08 L1336.77 1460.08 L1336.77 1465.96 L1331.88 1465.96 L1331.88 1460.08 Z" fill="#000000" fill-rule="evenodd" fill-opacity="1" /><path clip-path="url(#clip380)" d="M1350.98 1462.03 L1367.3 1462.03 L1367.3 1465.96 L1345.35 1465.96 L1345.35 1462.03 Q1348.02 1459.27 1352.6 1454.64 Q1357.21 1449.99 1358.39 1448.65 Q1360.63 1446.13 1361.51 1444.39 Q1362.41 1442.63 1362.41 1440.94 Q1362.41 1438.19 1360.47 1436.45 Q1358.55 1434.71 1355.45 1434.71 Q1353.25 1434.71 1350.79 1435.48 Q1348.36 1436.24 1345.59 1437.79 L1345.59 1433.07 Q1348.41 1431.94 1350.86 1431.36 Q1353.32 1430.78 1355.35 1430.78 Q1360.72 1430.78 1363.92 1433.46 Q1367.11 1436.15 1367.11 1440.64 Q1367.11 1442.77 1366.3 1444.69 Q1365.52 1446.59 1363.41 1449.18 Q1362.83 1449.85 1359.73 1453.07 Q1356.63 1456.26 1350.98 1462.03 Z" fill="#000000" fill-rule="evenodd" fill-opacity="1" /><path clip-path="url(#clip380)" d="M1377.16 1431.4 L1395.52 1431.4 L1395.52 1435.34 L1381.44 1435.34 L1381.44 1443.81 Q1382.46 1443.46 1383.48 1443.3 Q1384.5 1443.12 1385.52 1443.12 Q1391.3 1443.12 1394.68 1446.29 Q1398.06 1449.46 1398.06 1454.88 Q1398.06 1460.45 1394.59 1463.56 Q1391.12 1466.64 1384.8 1466.64 Q1382.62 1466.64 1380.35 1466.26 Q1378.11 1465.89 1375.7 1465.15 L1375.7 1460.45 Q1377.78 1461.59 1380.01 1462.14 Q1382.23 1462.7 1384.71 1462.7 Q1388.71 1462.7 1391.05 1460.59 Q1393.39 1458.49 1393.39 1454.88 Q1393.39 1451.26 1391.05 1449.16 Q1388.71 1447.05 1384.71 1447.05 Q1382.83 1447.05 1380.96 1447.47 Q1379.1 1447.89 1377.16 1448.76 L1377.16 1431.4 Z" fill="#000000" fill-rule="evenodd" fill-opacity="1" /><path clip-path="url(#clip380)" d="M1631.57 1434.48 Q1627.96 1434.48 1626.13 1438.05 Q1624.32 1441.59 1624.32 1448.72 Q1624.32 1455.83 1626.13 1459.39 Q1627.96 1462.93 1631.57 1462.93 Q1635.2 1462.93 1637.01 1459.39 Q1638.83 1455.83 1638.83 1448.72 Q1638.83 1441.59 1637.01 1438.05 Q1635.2 1434.48 1631.57 1434.48 M1631.57 1430.78 Q1637.38 1430.78 1640.43 1435.39 Q1643.51 1439.97 1643.51 1448.72 Q1643.51 1457.45 1640.43 1462.05 Q1637.38 1466.64 1631.57 1466.64 Q1625.76 1466.64 1622.68 1462.05 Q1619.62 1457.45 1619.62 1448.72 Q1619.62 1439.97 1622.68 1435.39 Q1625.76 1430.78 1631.57 1430.78 Z" fill="#000000" fill-rule="evenodd" fill-opacity="1" /><path clip-path="url(#clip380)" d="M1651.73 1460.08 L1656.61 1460.08 L1656.61 1465.96 L1651.73 1465.96 L1651.73 1460.08 Z" fill="#000000" fill-rule="evenodd" fill-opacity="1" /><path clip-path="url(#clip380)" d="M1666.84 1431.4 L1685.2 1431.4 L1685.2 1435.34 L1671.13 1435.34 L1671.13 1443.81 Q1672.14 1443.46 1673.16 1443.3 Q1674.18 1443.12 1675.2 1443.12 Q1680.99 1443.12 1684.37 1446.29 Q1687.75 1449.46 1687.75 1454.88 Q1687.75 1460.45 1684.27 1463.56 Q1680.8 1466.64 1674.48 1466.64 Q1672.31 1466.64 1670.04 1466.26 Q1667.79 1465.89 1665.39 1465.15 L1665.39 1460.45 Q1667.47 1461.59 1669.69 1462.14 Q1671.91 1462.7 1674.39 1462.7 Q1678.39 1462.7 1680.73 1460.59 Q1683.07 1458.49 1683.07 1454.88 Q1683.07 1451.26 1680.73 1449.16 Q1678.39 1447.05 1674.39 1447.05 Q1672.51 1447.05 1670.64 1447.47 Q1668.79 1447.89 1666.84 1448.76 L1666.84 1431.4 Z" fill="#000000" fill-rule="evenodd" fill-opacity="1" /><path clip-path="url(#clip380)" d="M1706.96 1434.48 Q1703.35 1434.48 1701.52 1438.05 Q1699.71 1441.59 1699.71 1448.72 Q1699.71 1455.83 1701.52 1459.39 Q1703.35 1462.93 1706.96 1462.93 Q1710.59 1462.93 1712.4 1459.39 Q1714.23 1455.83 1714.23 1448.72 Q1714.23 1441.59 1712.4 1438.05 Q1710.59 1434.48 1706.96 1434.48 M1706.96 1430.78 Q1712.77 1430.78 1715.82 1435.39 Q1718.9 1439.97 1718.9 1448.72 Q1718.9 1457.45 1715.82 1462.05 Q1712.77 1466.64 1706.96 1466.64 Q1701.15 1466.64 1698.07 1462.05 Q1695.01 1457.45 1695.01 1448.72 Q1695.01 1439.97 1698.07 1435.39 Q1701.15 1430.78 1706.96 1430.78 Z" fill="#000000" fill-rule="evenodd" fill-opacity="1" /><path clip-path="url(#clip380)" d="M1008.25 1509.98 L1014.1 1509.98 L1014.1 1545.63 L1008.25 1545.63 L1008.25 1509.98 M1008.25 1496.1 L1014.1 1496.1 L1014.1 1503.52 L1008.25 1503.52 L1008.25 1496.1 Z" fill="#000000" fill-rule="evenodd" fill-opacity="1" /><path clip-path="url(#clip380)" d="M1055.99 1524.11 L1055.99 1545.63 L1050.13 1545.63 L1050.13 1524.3 Q1050.13 1519.24 1048.16 1516.73 Q1046.19 1514.21 1042.24 1514.21 Q1037.5 1514.21 1034.76 1517.24 Q1032.02 1520.26 1032.02 1525.48 L1032.02 1545.63 L1026.13 1545.63 L1026.13 1509.98 L1032.02 1509.98 L1032.02 1515.52 Q1034.12 1512.3 1036.96 1510.71 Q1039.82 1509.12 1043.54 1509.12 Q1049.69 1509.12 1052.84 1512.94 Q1055.99 1516.73 1055.99 1524.11 Z" fill="#000000" fill-rule="evenodd" fill-opacity="1" /><path clip-path="url(#clip380)" d="M1093.32 1511.35 L1093.32 1516.82 Q1090.84 1515.45 1088.33 1514.79 Q1085.84 1514.09 1083.3 1514.09 Q1077.6 1514.09 1074.45 1517.71 Q1071.3 1521.31 1071.3 1527.84 Q1071.3 1534.36 1074.45 1537.99 Q1077.6 1541.59 1083.3 1541.59 Q1085.84 1541.59 1088.33 1540.92 Q1090.84 1540.22 1093.32 1538.85 L1093.32 1544.26 Q1090.87 1545.41 1088.23 1545.98 Q1085.62 1546.55 1082.66 1546.55 Q1074.61 1546.55 1069.87 1541.49 Q1065.12 1536.43 1065.12 1527.84 Q1065.12 1519.11 1069.9 1514.12 Q1074.7 1509.12 1083.04 1509.12 Q1085.75 1509.12 1088.33 1509.69 Q1090.9 1510.23 1093.32 1511.35 Z" fill="#000000" fill-rule="evenodd" fill-opacity="1" /><path clip-path="url(#clip380)" d="M1117.32 1514.09 Q1112.61 1514.09 1109.87 1517.78 Q1107.14 1521.44 1107.14 1527.84 Q1107.14 1534.23 1109.84 1537.93 Q1112.58 1541.59 1117.32 1541.59 Q1122 1541.59 1124.74 1537.89 Q1127.48 1534.2 1127.48 1527.84 Q1127.48 1521.5 1124.74 1517.81 Q1122 1514.09 1117.32 1514.09 M1117.32 1509.12 Q1124.96 1509.12 1129.32 1514.09 Q1133.68 1519.05 1133.68 1527.84 Q1133.68 1536.59 1129.32 1541.59 Q1124.96 1546.55 1117.32 1546.55 Q1109.65 1546.55 1105.29 1541.59 Q1100.96 1536.59 1100.96 1527.84 Q1100.96 1519.05 1105.29 1514.09 Q1109.65 1509.12 1117.32 1509.12 Z" fill="#000000" fill-rule="evenodd" fill-opacity="1" /><path clip-path="url(#clip380)" d="M1171.14 1516.82 Q1173.34 1512.88 1176.4 1511 Q1179.45 1509.12 1183.59 1509.12 Q1189.16 1509.12 1192.18 1513.04 Q1195.21 1516.92 1195.21 1524.11 L1195.21 1545.63 L1189.32 1545.63 L1189.32 1524.3 Q1189.32 1519.18 1187.5 1516.7 Q1185.69 1514.21 1181.97 1514.21 Q1177.41 1514.21 1174.77 1517.24 Q1172.13 1520.26 1172.13 1525.48 L1172.13 1545.63 L1166.24 1545.63 L1166.24 1524.3 Q1166.24 1519.15 1164.43 1516.7 Q1162.61 1514.21 1158.83 1514.21 Q1154.34 1514.21 1151.7 1517.27 Q1149.06 1520.29 1149.06 1525.48 L1149.06 1545.63 L1143.17 1545.63 L1143.17 1509.98 L1149.06 1509.98 L1149.06 1515.52 Q1151.06 1512.24 1153.86 1510.68 Q1156.66 1509.12 1160.51 1509.12 Q1164.4 1509.12 1167.1 1511.09 Q1169.84 1513.07 1171.14 1516.82 Z" fill="#000000" fill-rule="evenodd" fill-opacity="1" /><path clip-path="url(#clip380)" d="M1237.38 1526.34 L1237.38 1529.2 L1210.45 1529.2 Q1210.83 1535.25 1214.08 1538.43 Q1217.36 1541.59 1223.18 1541.59 Q1226.56 1541.59 1229.71 1540.76 Q1232.89 1539.93 1236.01 1538.28 L1236.01 1543.81 Q1232.86 1545.15 1229.55 1545.85 Q1226.24 1546.55 1222.83 1546.55 Q1214.3 1546.55 1209.31 1541.59 Q1204.34 1536.62 1204.34 1528.15 Q1204.34 1519.4 1209.05 1514.28 Q1213.79 1509.12 1221.82 1509.12 Q1229.01 1509.12 1233.18 1513.77 Q1237.38 1518.38 1237.38 1526.34 M1231.52 1524.62 Q1231.46 1519.81 1228.82 1516.95 Q1226.21 1514.09 1221.88 1514.09 Q1216.98 1514.09 1214.02 1516.85 Q1211.09 1519.62 1210.64 1524.65 L1231.52 1524.62 Z" fill="#000000" fill-rule="evenodd" fill-opacity="1" /><polyline clip-path="url(#clip382)" style="stroke:#000000; stroke-linecap:round; stroke-linejoin:round; stroke-width:2; stroke-opacity:0.1; fill:none" points="292.87,1257.98 1952.76,1257.98 "/>
<polyline clip-path="url(#clip382)" style="stroke:#000000; stroke-linecap:round; stroke-linejoin:round; stroke-width:2; stroke-opacity:0.1; fill:none" points="292.87,1083.06 1952.76,1083.06 "/>
<polyline clip-path="url(#clip382)" style="stroke:#000000; stroke-linecap:round; stroke-linejoin:round; stroke-width:2; stroke-opacity:0.1; fill:none" points="292.87,908.147 1952.76,908.147 "/>
<polyline clip-path="url(#clip382)" style="stroke:#000000; stroke-linecap:round; stroke-linejoin:round; stroke-width:2; stroke-opacity:0.1; fill:none" points="292.87,733.23 1952.76,733.23 "/>
<polyline clip-path="url(#clip382)" style="stroke:#000000; stroke-linecap:round; stroke-linejoin:round; stroke-width:2; stroke-opacity:0.1; fill:none" points="292.87,558.312 1952.76,558.312 "/>
<polyline clip-path="url(#clip382)" style="stroke:#000000; stroke-linecap:round; stroke-linejoin:round; stroke-width:2; stroke-opacity:0.1; fill:none" points="292.87,383.395 1952.76,383.395 "/>
<polyline clip-path="url(#clip382)" style="stroke:#000000; stroke-linecap:round; stroke-linejoin:round; stroke-width:2; stroke-opacity:0.1; fill:none" points="292.87,208.478 1952.76,208.478 "/>
<polyline clip-path="url(#clip380)" style="stroke:#000000; stroke-linecap:round; stroke-linejoin:round; stroke-width:4; stroke-opacity:1; fill:none" points="292.87,1406.76 292.87,47.2441 "/>
<polyline clip-path="url(#clip380)" style="stroke:#000000; stroke-linecap:round; stroke-linejoin:round; stroke-width:4; stroke-opacity:1; fill:none" points="292.87,1257.98 311.768,1257.98 "/>
<polyline clip-path="url(#clip380)" style="stroke:#000000; stroke-linecap:round; stroke-linejoin:round; stroke-width:4; stroke-opacity:1; fill:none" points="292.87,1083.06 311.768,1083.06 "/>
<polyline clip-path="url(#clip380)" style="stroke:#000000; stroke-linecap:round; stroke-linejoin:round; stroke-width:4; stroke-opacity:1; fill:none" points="292.87,908.147 311.768,908.147 "/>
<polyline clip-path="url(#clip380)" style="stroke:#000000; stroke-linecap:round; stroke-linejoin:round; stroke-width:4; stroke-opacity:1; fill:none" points="292.87,733.23 311.768,733.23 "/>
<polyline clip-path="url(#clip380)" style="stroke:#000000; stroke-linecap:round; stroke-linejoin:round; stroke-width:4; stroke-opacity:1; fill:none" points="292.87,558.312 311.768,558.312 "/>
<polyline clip-path="url(#clip380)" style="stroke:#000000; stroke-linecap:round; stroke-linejoin:round; stroke-width:4; stroke-opacity:1; fill:none" points="292.87,383.395 311.768,383.395 "/>
<polyline clip-path="url(#clip380)" style="stroke:#000000; stroke-linecap:round; stroke-linejoin:round; stroke-width:4; stroke-opacity:1; fill:none" points="292.87,208.478 311.768,208.478 "/>
<path clip-path="url(#clip380)" d="M126.76 1258.43 L156.435 1258.43 L156.435 1262.37 L126.76 1262.37 L126.76 1258.43 Z" fill="#000000" fill-rule="evenodd" fill-opacity="1" /><path clip-path="url(#clip380)" d="M167.338 1271.33 L174.977 1271.33 L174.977 1244.96 L166.667 1246.63 L166.667 1242.37 L174.931 1240.7 L179.606 1240.7 L179.606 1271.33 L187.245 1271.33 L187.245 1275.26 L167.338 1275.26 L167.338 1271.33 Z" fill="#000000" fill-rule="evenodd" fill-opacity="1" /><path clip-path="url(#clip380)" d="M196.69 1269.38 L201.574 1269.38 L201.574 1275.26 L196.69 1275.26 L196.69 1269.38 Z" fill="#000000" fill-rule="evenodd" fill-opacity="1" /><path clip-path="url(#clip380)" d="M215.787 1271.33 L232.106 1271.33 L232.106 1275.26 L210.162 1275.26 L210.162 1271.33 Q212.824 1268.57 217.407 1263.94 Q222.014 1259.29 223.194 1257.95 Q225.44 1255.42 226.319 1253.69 Q227.222 1251.93 227.222 1250.24 Q227.222 1247.48 225.278 1245.75 Q223.356 1244.01 220.254 1244.01 Q218.055 1244.01 215.602 1244.78 Q213.171 1245.54 210.393 1247.09 L210.393 1242.37 Q213.217 1241.23 215.671 1240.66 Q218.125 1240.08 220.162 1240.08 Q225.532 1240.08 228.727 1242.76 Q231.921 1245.45 231.921 1249.94 Q231.921 1252.07 231.111 1253.99 Q230.324 1255.89 228.217 1258.48 Q227.639 1259.15 224.537 1262.37 Q221.435 1265.56 215.787 1271.33 Z" fill="#000000" fill-rule="evenodd" fill-opacity="1" /><path clip-path="url(#clip380)" d="M241.967 1240.7 L260.324 1240.7 L260.324 1244.64 L246.25 1244.64 L246.25 1253.11 Q247.268 1252.76 248.287 1252.6 Q249.305 1252.41 250.324 1252.41 Q256.111 1252.41 259.49 1255.59 Q262.87 1258.76 262.87 1264.17 Q262.87 1269.75 259.398 1272.85 Q255.925 1275.93 249.606 1275.93 Q247.43 1275.93 245.162 1275.56 Q242.916 1275.19 240.509 1274.45 L240.509 1269.75 Q242.592 1270.89 244.814 1271.44 Q247.037 1272 249.513 1272 Q253.518 1272 255.856 1269.89 Q258.194 1267.78 258.194 1264.17 Q258.194 1260.56 255.856 1258.46 Q253.518 1256.35 249.513 1256.35 Q247.639 1256.35 245.764 1256.77 Q243.912 1257.18 241.967 1258.06 L241.967 1240.7 Z" fill="#000000" fill-rule="evenodd" fill-opacity="1" /><path clip-path="url(#clip380)" d="M125.764 1083.52 L155.44 1083.52 L155.44 1087.45 L125.764 1087.45 L125.764 1083.52 Z" fill="#000000" fill-rule="evenodd" fill-opacity="1" /><path clip-path="url(#clip380)" d="M166.343 1096.41 L173.981 1096.41 L173.981 1070.04 L165.671 1071.71 L165.671 1067.45 L173.935 1065.78 L178.611 1065.78 L178.611 1096.41 L186.25 1096.41 L186.25 1100.34 L166.343 1100.34 L166.343 1096.41 Z" fill="#000000" fill-rule="evenodd" fill-opacity="1" /><path clip-path="url(#clip380)" d="M195.694 1094.46 L200.579 1094.46 L200.579 1100.34 L195.694 1100.34 L195.694 1094.46 Z" fill="#000000" fill-rule="evenodd" fill-opacity="1" /><path clip-path="url(#clip380)" d="M220.764 1068.86 Q217.153 1068.86 215.324 1072.43 Q213.518 1075.97 213.518 1083.1 Q213.518 1090.21 215.324 1093.77 Q217.153 1097.31 220.764 1097.31 Q224.398 1097.31 226.203 1093.77 Q228.032 1090.21 228.032 1083.1 Q228.032 1075.97 226.203 1072.43 Q224.398 1068.86 220.764 1068.86 M220.764 1065.16 Q226.574 1065.16 229.629 1069.77 Q232.708 1074.35 232.708 1083.1 Q232.708 1091.83 229.629 1096.43 Q226.574 1101.02 220.764 1101.02 Q214.953 1101.02 211.875 1096.43 Q208.819 1091.83 208.819 1083.1 Q208.819 1074.35 211.875 1069.77 Q214.953 1065.16 220.764 1065.16 Z" fill="#000000" fill-rule="evenodd" fill-opacity="1" /><path clip-path="url(#clip380)" d="M250.926 1068.86 Q247.314 1068.86 245.486 1072.43 Q243.68 1075.97 243.68 1083.1 Q243.68 1090.21 245.486 1093.77 Q247.314 1097.31 250.926 1097.31 Q254.56 1097.31 256.365 1093.77 Q258.194 1090.21 258.194 1083.1 Q258.194 1075.97 256.365 1072.43 Q254.56 1068.86 250.926 1068.86 M250.926 1065.16 Q256.736 1065.16 259.791 1069.77 Q262.87 1074.35 262.87 1083.1 Q262.87 1091.83 259.791 1096.43 Q256.736 1101.02 250.926 1101.02 Q245.115 1101.02 242.037 1096.43 Q238.981 1091.83 238.981 1083.1 Q238.981 1074.35 242.037 1069.77 Q245.115 1065.16 250.926 1065.16 Z" fill="#000000" fill-rule="evenodd" fill-opacity="1" /><path clip-path="url(#clip380)" d="M126.76 908.598 L156.435 908.598 L156.435 912.533 L126.76 912.533 L126.76 908.598 Z" fill="#000000" fill-rule="evenodd" fill-opacity="1" /><path clip-path="url(#clip380)" d="M176.528 893.946 Q172.917 893.946 171.088 897.51 Q169.282 901.052 169.282 908.182 Q169.282 915.288 171.088 918.853 Q172.917 922.395 176.528 922.395 Q180.162 922.395 181.968 918.853 Q183.796 915.288 183.796 908.182 Q183.796 901.052 181.968 897.51 Q180.162 893.946 176.528 893.946 M176.528 890.242 Q182.338 890.242 185.393 894.848 Q188.472 899.432 188.472 908.182 Q188.472 916.908 185.393 921.515 Q182.338 926.098 176.528 926.098 Q170.718 926.098 167.639 921.515 Q164.583 916.908 164.583 908.182 Q164.583 899.432 167.639 894.848 Q170.718 890.242 176.528 890.242 Z" fill="#000000" fill-rule="evenodd" fill-opacity="1" /><path clip-path="url(#clip380)" d="M196.69 919.547 L201.574 919.547 L201.574 925.427 L196.69 925.427 L196.69 919.547 Z" fill="#000000" fill-rule="evenodd" fill-opacity="1" /><path clip-path="url(#clip380)" d="M210.579 890.867 L232.801 890.867 L232.801 892.858 L220.254 925.427 L215.37 925.427 L227.176 894.802 L210.579 894.802 L210.579 890.867 Z" fill="#000000" fill-rule="evenodd" fill-opacity="1" /><path clip-path="url(#clip380)" d="M241.967 890.867 L260.324 890.867 L260.324 894.802 L246.25 894.802 L246.25 903.274 Q247.268 902.927 248.287 902.765 Q249.305 902.58 250.324 902.58 Q256.111 902.58 259.49 905.751 Q262.87 908.922 262.87 914.339 Q262.87 919.918 259.398 923.02 Q255.925 926.098 249.606 926.098 Q247.43 926.098 245.162 925.728 Q242.916 925.357 240.509 924.617 L240.509 919.918 Q242.592 921.052 244.814 921.607 Q247.037 922.163 249.513 922.163 Q253.518 922.163 255.856 920.057 Q258.194 917.95 258.194 914.339 Q258.194 910.728 255.856 908.621 Q253.518 906.515 249.513 906.515 Q247.639 906.515 245.764 906.932 Q243.912 907.348 241.967 908.228 L241.967 890.867 Z" fill="#000000" fill-rule="evenodd" fill-opacity="1" /><path clip-path="url(#clip380)" d="M125.764 733.681 L155.44 733.681 L155.44 737.616 L125.764 737.616 L125.764 733.681 Z" fill="#000000" fill-rule="evenodd" fill-opacity="1" /><path clip-path="url(#clip380)" d="M175.532 719.028 Q171.921 719.028 170.093 722.593 Q168.287 726.135 168.287 733.264 Q168.287 740.371 170.093 743.936 Q171.921 747.477 175.532 747.477 Q179.167 747.477 180.972 743.936 Q182.801 740.371 182.801 733.264 Q182.801 726.135 180.972 722.593 Q179.167 719.028 175.532 719.028 M175.532 715.325 Q181.343 715.325 184.398 719.931 Q187.477 724.514 187.477 733.264 Q187.477 741.991 184.398 746.598 Q181.343 751.181 175.532 751.181 Q169.722 751.181 166.644 746.598 Q163.588 741.991 163.588 733.264 Q163.588 724.514 166.644 719.931 Q169.722 715.325 175.532 715.325 Z" fill="#000000" fill-rule="evenodd" fill-opacity="1" /><path clip-path="url(#clip380)" d="M195.694 744.63 L200.579 744.63 L200.579 750.51 L195.694 750.51 L195.694 744.63 Z" fill="#000000" fill-rule="evenodd" fill-opacity="1" /><path clip-path="url(#clip380)" d="M210.81 715.95 L229.166 715.95 L229.166 719.885 L215.092 719.885 L215.092 728.357 Q216.111 728.01 217.129 727.848 Q218.148 727.662 219.166 727.662 Q224.953 727.662 228.333 730.834 Q231.713 734.005 231.713 739.422 Q231.713 745 228.24 748.102 Q224.768 751.181 218.449 751.181 Q216.273 751.181 214.004 750.81 Q211.759 750.44 209.352 749.699 L209.352 745 Q211.435 746.135 213.657 746.69 Q215.879 747.246 218.356 747.246 Q222.361 747.246 224.699 745.139 Q227.037 743.033 227.037 739.422 Q227.037 735.811 224.699 733.704 Q222.361 731.598 218.356 731.598 Q216.481 731.598 214.606 732.014 Q212.754 732.431 210.81 733.311 L210.81 715.95 Z" fill="#000000" fill-rule="evenodd" fill-opacity="1" /><path clip-path="url(#clip380)" d="M250.926 719.028 Q247.314 719.028 245.486 722.593 Q243.68 726.135 243.68 733.264 Q243.68 740.371 245.486 743.936 Q247.314 747.477 250.926 747.477 Q254.56 747.477 256.365 743.936 Q258.194 740.371 258.194 733.264 Q258.194 726.135 256.365 722.593 Q254.56 719.028 250.926 719.028 M250.926 715.325 Q256.736 715.325 259.791 719.931 Q262.87 724.514 262.87 733.264 Q262.87 741.991 259.791 746.598 Q256.736 751.181 250.926 751.181 Q245.115 751.181 242.037 746.598 Q238.981 741.991 238.981 733.264 Q238.981 724.514 242.037 719.931 Q245.115 715.325 250.926 715.325 Z" fill="#000000" fill-rule="evenodd" fill-opacity="1" /><path clip-path="url(#clip380)" d="M126.76 558.764 L156.435 558.764 L156.435 562.699 L126.76 562.699 L126.76 558.764 Z" fill="#000000" fill-rule="evenodd" fill-opacity="1" /><path clip-path="url(#clip380)" d="M176.528 544.111 Q172.917 544.111 171.088 547.676 Q169.282 551.217 169.282 558.347 Q169.282 565.453 171.088 569.018 Q172.917 572.56 176.528 572.56 Q180.162 572.56 181.968 569.018 Q183.796 565.453 183.796 558.347 Q183.796 551.217 181.968 547.676 Q180.162 544.111 176.528 544.111 M176.528 540.407 Q182.338 540.407 185.393 545.014 Q188.472 549.597 188.472 558.347 Q188.472 567.074 185.393 571.68 Q182.338 576.264 176.528 576.264 Q170.718 576.264 167.639 571.68 Q164.583 567.074 164.583 558.347 Q164.583 549.597 167.639 545.014 Q170.718 540.407 176.528 540.407 Z" fill="#000000" fill-rule="evenodd" fill-opacity="1" /><path clip-path="url(#clip380)" d="M196.69 569.713 L201.574 569.713 L201.574 575.592 L196.69 575.592 L196.69 569.713 Z" fill="#000000" fill-rule="evenodd" fill-opacity="1" /><path clip-path="url(#clip380)" d="M215.787 571.657 L232.106 571.657 L232.106 575.592 L210.162 575.592 L210.162 571.657 Q212.824 568.902 217.407 564.273 Q222.014 559.62 223.194 558.278 Q225.44 555.754 226.319 554.018 Q227.222 552.259 227.222 550.569 Q227.222 547.815 225.278 546.078 Q223.356 544.342 220.254 544.342 Q218.055 544.342 215.602 545.106 Q213.171 545.87 210.393 547.421 L210.393 542.699 Q213.217 541.565 215.671 540.986 Q218.125 540.407 220.162 540.407 Q225.532 540.407 228.727 543.092 Q231.921 545.778 231.921 550.268 Q231.921 552.398 231.111 554.319 Q230.324 556.217 228.217 558.81 Q227.639 559.481 224.537 562.699 Q221.435 565.893 215.787 571.657 Z" fill="#000000" fill-rule="evenodd" fill-opacity="1" /><path clip-path="url(#clip380)" d="M241.967 541.032 L260.324 541.032 L260.324 544.967 L246.25 544.967 L246.25 553.44 Q247.268 553.092 248.287 552.93 Q249.305 552.745 250.324 552.745 Q256.111 552.745 259.49 555.916 Q262.87 559.088 262.87 564.504 Q262.87 570.083 259.398 573.185 Q255.925 576.264 249.606 576.264 Q247.43 576.264 245.162 575.893 Q242.916 575.523 240.509 574.782 L240.509 570.083 Q242.592 571.217 244.814 571.773 Q247.037 572.328 249.513 572.328 Q253.518 572.328 255.856 570.222 Q258.194 568.115 258.194 564.504 Q258.194 560.893 255.856 558.787 Q253.518 556.68 249.513 556.68 Q247.639 556.68 245.764 557.097 Q243.912 557.514 241.967 558.393 L241.967 541.032 Z" fill="#000000" fill-rule="evenodd" fill-opacity="1" /><path clip-path="url(#clip380)" d="M175.532 369.194 Q171.921 369.194 170.093 372.758 Q168.287 376.3 168.287 383.43 Q168.287 390.536 170.093 394.101 Q171.921 397.642 175.532 397.642 Q179.167 397.642 180.972 394.101 Q182.801 390.536 182.801 383.43 Q182.801 376.3 180.972 372.758 Q179.167 369.194 175.532 369.194 M175.532 365.49 Q181.343 365.49 184.398 370.096 Q187.477 374.68 187.477 383.43 Q187.477 392.156 184.398 396.763 Q181.343 401.346 175.532 401.346 Q169.722 401.346 166.644 396.763 Q163.588 392.156 163.588 383.43 Q163.588 374.68 166.644 370.096 Q169.722 365.49 175.532 365.49 Z" fill="#000000" fill-rule="evenodd" fill-opacity="1" /><path clip-path="url(#clip380)" d="M195.694 394.795 L200.579 394.795 L200.579 400.675 L195.694 400.675 L195.694 394.795 Z" fill="#000000" fill-rule="evenodd" fill-opacity="1" /><path clip-path="url(#clip380)" d="M220.764 369.194 Q217.153 369.194 215.324 372.758 Q213.518 376.3 213.518 383.43 Q213.518 390.536 215.324 394.101 Q217.153 397.642 220.764 397.642 Q224.398 397.642 226.203 394.101 Q228.032 390.536 228.032 383.43 Q228.032 376.3 226.203 372.758 Q224.398 369.194 220.764 369.194 M220.764 365.49 Q226.574 365.49 229.629 370.096 Q232.708 374.68 232.708 383.43 Q232.708 392.156 229.629 396.763 Q226.574 401.346 220.764 401.346 Q214.953 401.346 211.875 396.763 Q208.819 392.156 208.819 383.43 Q208.819 374.68 211.875 370.096 Q214.953 365.49 220.764 365.49 Z" fill="#000000" fill-rule="evenodd" fill-opacity="1" /><path clip-path="url(#clip380)" d="M250.926 369.194 Q247.314 369.194 245.486 372.758 Q243.68 376.3 243.68 383.43 Q243.68 390.536 245.486 394.101 Q247.314 397.642 250.926 397.642 Q254.56 397.642 256.365 394.101 Q258.194 390.536 258.194 383.43 Q258.194 376.3 256.365 372.758 Q254.56 369.194 250.926 369.194 M250.926 365.49 Q256.736 365.49 259.791 370.096 Q262.87 374.68 262.87 383.43 Q262.87 392.156 259.791 396.763 Q256.736 401.346 250.926 401.346 Q245.115 401.346 242.037 396.763 Q238.981 392.156 238.981 383.43 Q238.981 374.68 242.037 370.096 Q245.115 365.49 250.926 365.49 Z" fill="#000000" fill-rule="evenodd" fill-opacity="1" /><path clip-path="url(#clip380)" d="M176.528 194.276 Q172.917 194.276 171.088 197.841 Q169.282 201.383 169.282 208.512 Q169.282 215.619 171.088 219.184 Q172.917 222.725 176.528 222.725 Q180.162 222.725 181.968 219.184 Q183.796 215.619 183.796 208.512 Q183.796 201.383 181.968 197.841 Q180.162 194.276 176.528 194.276 M176.528 190.573 Q182.338 190.573 185.393 195.179 Q188.472 199.762 188.472 208.512 Q188.472 217.239 185.393 221.846 Q182.338 226.429 176.528 226.429 Q170.718 226.429 167.639 221.846 Q164.583 217.239 164.583 208.512 Q164.583 199.762 167.639 195.179 Q170.718 190.573 176.528 190.573 Z" fill="#000000" fill-rule="evenodd" fill-opacity="1" /><path clip-path="url(#clip380)" d="M196.69 219.878 L201.574 219.878 L201.574 225.758 L196.69 225.758 L196.69 219.878 Z" fill="#000000" fill-rule="evenodd" fill-opacity="1" /><path clip-path="url(#clip380)" d="M215.787 221.822 L232.106 221.822 L232.106 225.758 L210.162 225.758 L210.162 221.822 Q212.824 219.068 217.407 214.438 Q222.014 209.785 223.194 208.443 Q225.44 205.92 226.319 204.184 Q227.222 202.424 227.222 200.735 Q227.222 197.98 225.278 196.244 Q223.356 194.508 220.254 194.508 Q218.055 194.508 215.602 195.272 Q213.171 196.035 210.393 197.586 L210.393 192.864 Q213.217 191.73 215.671 191.151 Q218.125 190.573 220.162 190.573 Q225.532 190.573 228.727 193.258 Q231.921 195.943 231.921 200.434 Q231.921 202.563 231.111 204.485 Q230.324 206.383 228.217 208.975 Q227.639 209.647 224.537 212.864 Q221.435 216.059 215.787 221.822 Z" fill="#000000" fill-rule="evenodd" fill-opacity="1" /><path clip-path="url(#clip380)" d="M241.967 191.198 L260.324 191.198 L260.324 195.133 L246.25 195.133 L246.25 203.605 Q247.268 203.258 248.287 203.096 Q249.305 202.91 250.324 202.91 Q256.111 202.91 259.49 206.082 Q262.87 209.253 262.87 214.67 Q262.87 220.248 259.398 223.35 Q255.925 226.429 249.606 226.429 Q247.43 226.429 245.162 226.058 Q242.916 225.688 240.509 224.947 L240.509 220.248 Q242.592 221.383 244.814 221.938 Q247.037 222.494 249.513 222.494 Q253.518 222.494 255.856 220.387 Q258.194 218.281 258.194 214.67 Q258.194 211.059 255.856 208.952 Q253.518 206.846 249.513 206.846 Q247.639 206.846 245.764 207.262 Q243.912 207.679 241.967 208.559 L241.967 191.198 Z" fill="#000000" fill-rule="evenodd" fill-opacity="1" /><path clip-path="url(#clip380)" d="M63.5887 765.596 Q63.5887 772.694 65.2119 775.431 Q66.8352 778.168 70.7501 778.168 Q73.8693 778.168 75.7154 776.131 Q77.5296 774.062 77.5296 770.529 Q77.5296 765.66 74.0921 762.731 Q70.6228 759.771 64.8937 759.771 L63.5887 759.771 L63.5887 765.596 M61.1697 753.915 L81.5082 753.915 L81.5082 759.771 L76.0973 759.771 Q79.3438 761.777 80.9034 764.769 Q82.4312 767.76 82.4312 772.089 Q82.4312 777.564 79.3756 780.81 Q76.2883 784.025 71.1321 784.025 Q65.1165 784.025 62.0609 780.014 Q59.0054 775.972 59.0054 767.983 L59.0054 759.771 L58.4325 759.771 Q54.3902 759.771 52.1941 762.445 Q49.9661 765.087 49.9661 769.893 Q49.9661 772.948 50.6981 775.845 Q51.4302 778.741 52.8943 781.415 L47.4835 781.415 Q46.2421 778.2 45.6374 775.176 Q45.0008 772.153 45.0008 769.288 Q45.0008 761.554 49.0112 757.734 Q53.0216 753.915 61.1697 753.915 Z" fill="#000000" fill-rule="evenodd" fill-opacity="1" /><path clip-path="url(#clip380)" d="M63.2704 718.394 Q56.9047 718.394 53.4036 721.036 Q49.9024 723.646 49.9024 728.389 Q49.9024 733.099 53.4036 735.741 Q56.9047 738.351 63.2704 738.351 Q69.6043 738.351 73.1054 735.741 Q76.6066 733.099 76.6066 728.389 Q76.6066 723.646 73.1054 721.036 Q69.6043 718.394 63.2704 718.394 M77.084 712.538 Q86.187 712.538 90.6111 716.58 Q95.0671 720.622 95.0671 728.961 Q95.0671 732.049 94.5897 734.786 Q94.1441 737.523 93.1892 740.101 L87.4919 740.101 Q88.8924 737.523 89.5608 735.009 Q90.2292 732.494 90.2292 729.884 Q90.2292 724.123 87.2055 721.259 Q84.2136 718.394 78.1343 718.394 L75.2379 718.394 Q78.389 720.209 79.9486 723.041 Q81.5082 725.874 81.5082 729.821 Q81.5082 736.377 76.5111 740.388 Q71.514 744.398 63.2704 744.398 Q54.995 744.398 49.9979 740.388 Q45.0008 736.377 45.0008 729.821 Q45.0008 725.874 46.5604 723.041 Q48.12 720.209 51.2711 718.394 L45.8602 718.394 L45.8602 712.538 L77.084 712.538 Z" fill="#000000" fill-rule="evenodd" fill-opacity="1" /><path clip-path="url(#clip380)" d="M62.2201 669.983 L65.0846 669.983 L65.0846 696.91 Q71.1321 696.528 74.3149 693.282 Q77.4659 690.003 77.4659 684.179 Q77.4659 680.805 76.6384 677.654 Q75.8109 674.471 74.1558 671.352 L79.6939 671.352 Q81.0307 674.503 81.731 677.813 Q82.4312 681.123 82.4312 684.529 Q82.4312 693.059 77.4659 698.056 Q72.5007 703.021 64.0343 703.021 Q55.2814 703.021 50.1571 698.311 Q45.0008 693.568 45.0008 685.547 Q45.0008 678.354 49.6478 674.185 Q54.2629 669.983 62.2201 669.983 M60.5013 675.84 Q55.6952 675.903 52.8306 678.545 Q49.9661 681.155 49.9661 685.484 Q49.9661 690.385 52.7352 693.345 Q55.5042 696.274 60.5332 696.719 L60.5013 675.84 Z" fill="#000000" fill-rule="evenodd" fill-opacity="1" /><circle clip-path="url(#clip382)" cx="552.338" cy="1368.29" r="36" fill="#00a1ff" fill-rule="evenodd" fill-opacity="1" stroke="#000000" stroke-opacity="1" stroke-width="3.2"/>
<circle clip-path="url(#clip382)" cx="757.418" cy="1011.89" r="36" fill="#e69f00" fill-rule="evenodd" fill-opacity="1" stroke="#000000" stroke-opacity="1" stroke-width="3.2"/>
<polyline clip-path="url(#clip382)" style="stroke:#000000; stroke-linecap:round; stroke-linejoin:round; stroke-width:8; stroke-opacity:1; fill:none" points="552.338,1368.29 757.418,1011.89 "/>
<polyline clip-path="url(#clip382)" style="stroke:#000000; stroke-linecap:round; stroke-linejoin:round; stroke-width:8; stroke-opacity:1; fill:none" points="729.454,1030.41 757.418,1011.89 755.456,1045.38 "/>
<polyline clip-path="url(#clip382)" style="stroke:#000000; stroke-linecap:round; stroke-linejoin:round; stroke-width:8; stroke-opacity:1; fill:none" points="757.418,1011.89 552.338,1368.29 "/>
<circle clip-path="url(#clip382)" cx="627.529" cy="1368.29" r="36" fill="#00a1ff" fill-rule="evenodd" fill-opacity="1" stroke="#000000" stroke-opacity="1" stroke-width="3.2"/>
<circle clip-path="url(#clip382)" cx="635.03" cy="1335.15" r="36" fill="#e69f00" fill-rule="evenodd" fill-opacity="1" stroke="#000000" stroke-opacity="1" stroke-width="3.2"/>
<polyline clip-path="url(#clip382)" style="stroke:#000000; stroke-linecap:round; stroke-linejoin:round; stroke-width:8; stroke-opacity:1; fill:none" points="627.529,1368.29 635.03,1335.15 "/>
<polyline clip-path="url(#clip382)" style="stroke:#000000; stroke-linecap:round; stroke-linejoin:round; stroke-width:8; stroke-opacity:1; fill:none" points="613.778,1361.09 635.03,1335.15 643.037,1367.72 "/>
<polyline clip-path="url(#clip382)" style="stroke:#000000; stroke-linecap:round; stroke-linejoin:round; stroke-width:8; stroke-opacity:1; fill:none" points="635.03,1335.15 627.529,1368.29 "/>
<circle clip-path="url(#clip382)" cx="1277.18" cy="1218.21" r="36" fill="#00a1ff" fill-rule="evenodd" fill-opacity="1" stroke="#000000" stroke-opacity="1" stroke-width="3.2"/>
<circle clip-path="url(#clip382)" cx="1271.17" cy="1134.7" r="36" fill="#e69f00" fill-rule="evenodd" fill-opacity="1" stroke="#000000" stroke-opacity="1" stroke-width="3.2"/>
<polyline clip-path="url(#clip382)" style="stroke:#000000; stroke-linecap:round; stroke-linejoin:round; stroke-width:8; stroke-opacity:1; fill:none" points="1277.18,1218.21 1271.17,1134.7 "/>
<polyline clip-path="url(#clip382)" style="stroke:#000000; stroke-linecap:round; stroke-linejoin:round; stroke-width:8; stroke-opacity:1; fill:none" points="1258.36,1165.7 1271.17,1134.7 1288.28,1163.55 "/>
<polyline clip-path="url(#clip382)" style="stroke:#000000; stroke-linecap:round; stroke-linejoin:round; stroke-width:8; stroke-opacity:1; fill:none" points="1271.17,1134.7 1277.18,1218.21 "/>
<circle clip-path="url(#clip382)" cx="1905.78" cy="617.905" r="36" fill="#00a1ff" fill-rule="evenodd" fill-opacity="1" stroke="#000000" stroke-opacity="1" stroke-width="3.2"/>
<circle clip-path="url(#clip382)" cx="1686.64" cy="503.412" r="36" fill="#e69f00" fill-rule="evenodd" fill-opacity="1" stroke="#000000" stroke-opacity="1" stroke-width="3.2"/>
<polyline clip-path="url(#clip382)" style="stroke:#000000; stroke-linecap:round; stroke-linejoin:round; stroke-width:8; stroke-opacity:1; fill:none" points="1905.78,617.905 1686.64,503.412 "/>
<polyline clip-path="url(#clip382)" style="stroke:#000000; stroke-linecap:round; stroke-linejoin:round; stroke-width:8; stroke-opacity:1; fill:none" points="1706.28,530.599 1686.64,503.412 1720.18,504.01 "/>
<polyline clip-path="url(#clip382)" style="stroke:#000000; stroke-linecap:round; stroke-linejoin:round; stroke-width:8; stroke-opacity:1; fill:none" points="1686.64,503.412 1905.78,617.905 "/>
<circle clip-path="url(#clip382)" cx="401.956" cy="968.083" r="36" fill="#00a1ff" fill-rule="evenodd" fill-opacity="1" stroke="#000000" stroke-opacity="1" stroke-width="3.2"/>
<circle clip-path="url(#clip382)" cx="1051.04" cy="85.7211" r="36" fill="#e69f00" fill-rule="evenodd" fill-opacity="1" stroke="#000000" stroke-opacity="1" stroke-width="3.2"/>
<polyline clip-path="url(#clip382)" style="stroke:#000000; stroke-linecap:round; stroke-linejoin:round; stroke-width:8; stroke-opacity:1; fill:none" points="401.956,968.083 1051.04,85.7211 "/>
<polyline clip-path="url(#clip382)" style="stroke:#000000; stroke-linecap:round; stroke-linejoin:round; stroke-width:8; stroke-opacity:1; fill:none" points="1021.18,100.998 1051.04,85.7211 1045.35,118.775 "/>
<polyline clip-path="url(#clip382)" style="stroke:#000000; stroke-linecap:round; stroke-linejoin:round; stroke-width:8; stroke-opacity:1; fill:none" points="1051.04,85.7211 401.956,968.083 "/>
<circle clip-path="url(#clip382)" cx="1053.86" cy="417.803" r="36" fill="#00a1ff" fill-rule="evenodd" fill-opacity="1" stroke="#000000" stroke-opacity="1" stroke-width="3.2"/>
<circle clip-path="url(#clip382)" cx="1128.34" cy="353.062" r="36" fill="#e69f00" fill-rule="evenodd" fill-opacity="1" stroke="#000000" stroke-opacity="1" stroke-width="3.2"/>
<polyline clip-path="url(#clip382)" style="stroke:#000000; stroke-linecap:round; stroke-linejoin:round; stroke-width:8; stroke-opacity:1; fill:none" points="1053.86,417.803 1128.34,353.062 "/>
<polyline clip-path="url(#clip382)" style="stroke:#000000; stroke-linecap:round; stroke-linejoin:round; stroke-width:8; stroke-opacity:1; fill:none" points="1095.85,361.424 1128.34,353.062 1115.54,384.064 "/>
<polyline clip-path="url(#clip382)" style="stroke:#000000; stroke-linecap:round; stroke-linejoin:round; stroke-width:8; stroke-opacity:1; fill:none" points="1128.34,353.062 1053.86,417.803 "/>
<circle clip-path="url(#clip382)" cx="787.686" cy="517.854" r="36" fill="#00a1ff" fill-rule="evenodd" fill-opacity="1" stroke="#000000" stroke-opacity="1" stroke-width="3.2"/>
<circle clip-path="url(#clip382)" cx="954.616" cy="417.778" r="36" fill="#e69f00" fill-rule="evenodd" fill-opacity="1" stroke="#000000" stroke-opacity="1" stroke-width="3.2"/>
<polyline clip-path="url(#clip382)" style="stroke:#000000; stroke-linecap:round; stroke-linejoin:round; stroke-width:8; stroke-opacity:1; fill:none" points="787.686,517.854 954.616,417.778 "/>
<polyline clip-path="url(#clip382)" style="stroke:#000000; stroke-linecap:round; stroke-linejoin:round; stroke-width:8; stroke-opacity:1; fill:none" points="921.173,420.339 954.616,417.778 936.598,446.069 "/>
<polyline clip-path="url(#clip382)" style="stroke:#000000; stroke-linecap:round; stroke-linejoin:round; stroke-width:8; stroke-opacity:1; fill:none" points="954.616,417.778 787.686,517.854 "/>
<circle clip-path="url(#clip382)" cx="702.72" cy="1068.13" r="36" fill="#00a1ff" fill-rule="evenodd" fill-opacity="1" stroke="#000000" stroke-opacity="1" stroke-width="3.2"/>
<circle clip-path="url(#clip382)" cx="825.548" cy="1047.17" r="36" fill="#e69f00" fill-rule="evenodd" fill-opacity="1" stroke="#000000" stroke-opacity="1" stroke-width="3.2"/>
<polyline clip-path="url(#clip382)" style="stroke:#000000; stroke-linecap:round; stroke-linejoin:round; stroke-width:8; stroke-opacity:1; fill:none" points="702.72,1068.13 825.548,1047.17 "/>
<polyline clip-path="url(#clip382)" style="stroke:#000000; stroke-linecap:round; stroke-linejoin:round; stroke-width:8; stroke-opacity:1; fill:none" points="793.452,1037.43 825.548,1047.17 798.5,1067 "/>
<polyline clip-path="url(#clip382)" style="stroke:#000000; stroke-linecap:round; stroke-linejoin:round; stroke-width:8; stroke-opacity:1; fill:none" points="825.548,1047.17 702.72,1068.13 "/>
<circle clip-path="url(#clip382)" cx="339.848" cy="517.854" r="36" fill="#00a1ff" fill-rule="evenodd" fill-opacity="1" stroke="#000000" stroke-opacity="1" stroke-width="3.2"/>
<circle clip-path="url(#clip382)" cx="564.364" cy="468.69" r="36" fill="#e69f00" fill-rule="evenodd" fill-opacity="1" stroke="#000000" stroke-opacity="1" stroke-width="3.2"/>
<polyline clip-path="url(#clip382)" style="stroke:#000000; stroke-linecap:round; stroke-linejoin:round; stroke-width:8; stroke-opacity:1; fill:none" points="339.848,517.854 564.364,468.69 "/>
<polyline clip-path="url(#clip382)" style="stroke:#000000; stroke-linecap:round; stroke-linejoin:round; stroke-width:8; stroke-opacity:1; fill:none" points="531.85,460.455 564.364,468.69 538.267,489.76 "/>
<polyline clip-path="url(#clip382)" style="stroke:#000000; stroke-linecap:round; stroke-linejoin:round; stroke-width:8; stroke-opacity:1; fill:none" points="564.364,468.69 339.848,517.854 "/>
<circle clip-path="url(#clip382)" cx="650.086" cy="1218.21" r="36" fill="#00a1ff" fill-rule="evenodd" fill-opacity="1" stroke="#000000" stroke-opacity="1" stroke-width="3.2"/>
<circle clip-path="url(#clip382)" cx="738.235" cy="964.309" r="36" fill="#e69f00" fill-rule="evenodd" fill-opacity="1" stroke="#000000" stroke-opacity="1" stroke-width="3.2"/>
<polyline clip-path="url(#clip382)" style="stroke:#000000; stroke-linecap:round; stroke-linejoin:round; stroke-width:8; stroke-opacity:1; fill:none" points="650.086,1218.21 738.235,964.309 "/>
<polyline clip-path="url(#clip382)" style="stroke:#000000; stroke-linecap:round; stroke-linejoin:round; stroke-width:8; stroke-opacity:1; fill:none" points="714.225,987.73 738.235,964.309 742.566,997.569 "/>
<polyline clip-path="url(#clip382)" style="stroke:#000000; stroke-linecap:round; stroke-linejoin:round; stroke-width:8; stroke-opacity:1; fill:none" points="738.235,964.309 650.086,1218.21 "/>
<path clip-path="url(#clip380)" d="M1415.75 1361.45 L1897.43 1361.45 L1897.43 1205.93 L1415.75 1205.93  Z" fill="#ffffff" fill-rule="evenodd" fill-opacity="1"/>
<polyline clip-path="url(#clip380)" style="stroke:#000000; stroke-linecap:round; stroke-linejoin:round; stroke-width:4; stroke-opacity:1; fill:none" points="1415.75,1361.45 1897.43,1361.45 1897.43,1205.93 1415.75,1205.93 1415.75,1361.45 "/>
<circle clip-path="url(#clip380)" cx="1489.52" cy="1257.77" r="23.04" fill="#00a1ff" fill-rule="evenodd" fill-opacity="1" stroke="#000000" stroke-opacity="1" stroke-width="2.048"/>
<path clip-path="url(#clip380)" d="M1563.29 1239.03 L1567.55 1239.03 L1567.55 1275.05 L1563.29 1275.05 L1563.29 1239.03 Z" fill="#000000" fill-rule="evenodd" fill-opacity="1" /><path clip-path="url(#clip380)" d="M1586.51 1252.11 Q1583.08 1252.11 1581.09 1254.79 Q1579.1 1257.45 1579.1 1262.11 Q1579.1 1266.76 1581.07 1269.44 Q1583.06 1272.11 1586.51 1272.11 Q1589.91 1272.11 1591.9 1269.42 Q1593.89 1266.74 1593.89 1262.11 Q1593.89 1257.5 1591.9 1254.82 Q1589.91 1252.11 1586.51 1252.11 M1586.51 1248.5 Q1592.06 1248.5 1595.23 1252.11 Q1598.41 1255.72 1598.41 1262.11 Q1598.41 1268.47 1595.23 1272.11 Q1592.06 1275.72 1586.51 1275.72 Q1580.93 1275.72 1577.76 1272.11 Q1574.61 1268.47 1574.61 1262.11 Q1574.61 1255.72 1577.76 1252.11 Q1580.93 1248.5 1586.51 1248.5 Z" fill="#000000" fill-rule="evenodd" fill-opacity="1" /><path clip-path="url(#clip380)" d="M1617.25 1262.01 Q1612.09 1262.01 1610.1 1263.19 Q1608.11 1264.38 1608.11 1267.22 Q1608.11 1269.49 1609.59 1270.83 Q1611.09 1272.15 1613.66 1272.15 Q1617.2 1272.15 1619.33 1269.65 Q1621.48 1267.13 1621.48 1262.96 L1621.48 1262.01 L1617.25 1262.01 M1625.74 1260.25 L1625.74 1275.05 L1621.48 1275.05 L1621.48 1271.11 Q1620.03 1273.47 1617.85 1274.61 Q1615.67 1275.72 1612.53 1275.72 Q1608.54 1275.72 1606.18 1273.5 Q1603.85 1271.25 1603.85 1267.5 Q1603.85 1263.13 1606.76 1260.9 Q1609.7 1258.68 1615.51 1258.68 L1621.48 1258.68 L1621.48 1258.26 Q1621.48 1255.32 1619.54 1253.73 Q1617.62 1252.11 1614.12 1252.11 Q1611.9 1252.11 1609.79 1252.64 Q1607.69 1253.17 1605.74 1254.24 L1605.74 1250.3 Q1608.08 1249.4 1610.28 1248.96 Q1612.48 1248.5 1614.56 1248.5 Q1620.19 1248.5 1622.97 1251.41 Q1625.74 1254.33 1625.74 1260.25 Z" fill="#000000" fill-rule="evenodd" fill-opacity="1" /><path clip-path="url(#clip380)" d="M1656.07 1259.4 L1656.07 1275.05 L1651.81 1275.05 L1651.81 1259.54 Q1651.81 1255.86 1650.37 1254.03 Q1648.94 1252.2 1646.07 1252.2 Q1642.62 1252.2 1640.63 1254.4 Q1638.64 1256.6 1638.64 1260.39 L1638.64 1275.05 L1634.35 1275.05 L1634.35 1249.12 L1638.64 1249.12 L1638.64 1253.15 Q1640.17 1250.81 1642.23 1249.65 Q1644.31 1248.5 1647.02 1248.5 Q1651.48 1248.5 1653.78 1251.27 Q1656.07 1254.03 1656.07 1259.4 Z" fill="#000000" fill-rule="evenodd" fill-opacity="1" /><path clip-path="url(#clip380)" d="M1696.69 1253.06 L1696.69 1239.03 L1700.95 1239.03 L1700.95 1275.05 L1696.69 1275.05 L1696.69 1271.16 Q1695.35 1273.47 1693.29 1274.61 Q1691.25 1275.72 1688.38 1275.72 Q1683.68 1275.72 1680.72 1271.97 Q1677.78 1268.22 1677.78 1262.11 Q1677.78 1256 1680.72 1252.25 Q1683.68 1248.5 1688.38 1248.5 Q1691.25 1248.5 1693.29 1249.63 Q1695.35 1250.74 1696.69 1253.06 M1682.18 1262.11 Q1682.18 1266.81 1684.1 1269.49 Q1686.04 1272.15 1689.42 1272.15 Q1692.8 1272.15 1694.75 1269.49 Q1696.69 1266.81 1696.69 1262.11 Q1696.69 1257.41 1694.75 1254.75 Q1692.8 1252.06 1689.42 1252.06 Q1686.04 1252.06 1684.1 1254.75 Q1682.18 1257.41 1682.18 1262.11 Z" fill="#000000" fill-rule="evenodd" fill-opacity="1" /><path clip-path="url(#clip380)" d="M1731.9 1261.02 L1731.9 1263.1 L1712.32 1263.1 Q1712.6 1267.5 1714.96 1269.82 Q1717.34 1272.11 1721.58 1272.11 Q1724.03 1272.11 1726.32 1271.5 Q1728.64 1270.9 1730.91 1269.7 L1730.91 1273.73 Q1728.61 1274.7 1726.21 1275.21 Q1723.8 1275.72 1721.32 1275.72 Q1715.12 1275.72 1711.48 1272.11 Q1707.87 1268.5 1707.87 1262.34 Q1707.87 1255.97 1711.3 1252.25 Q1714.75 1248.5 1720.58 1248.5 Q1725.81 1248.5 1728.85 1251.88 Q1731.9 1255.23 1731.9 1261.02 M1727.64 1259.77 Q1727.6 1256.27 1725.67 1254.19 Q1723.78 1252.11 1720.63 1252.11 Q1717.06 1252.11 1714.91 1254.12 Q1712.78 1256.13 1712.46 1259.79 L1727.64 1259.77 Z" fill="#000000" fill-rule="evenodd" fill-opacity="1" /><path clip-path="url(#clip380)" d="M1760.44 1259.4 L1760.44 1275.05 L1756.18 1275.05 L1756.18 1259.54 Q1756.18 1255.86 1754.75 1254.03 Q1753.31 1252.2 1750.44 1252.2 Q1746.99 1252.2 1745 1254.4 Q1743.01 1256.6 1743.01 1260.39 L1743.01 1275.05 L1738.73 1275.05 L1738.73 1249.12 L1743.01 1249.12 L1743.01 1253.15 Q1744.54 1250.81 1746.6 1249.65 Q1748.68 1248.5 1751.39 1248.5 Q1755.86 1248.5 1758.15 1251.27 Q1760.44 1254.03 1760.44 1259.4 Z" fill="#000000" fill-rule="evenodd" fill-opacity="1" /><path clip-path="url(#clip380)" d="M1768.94 1249.12 L1773.2 1249.12 L1773.2 1275.05 L1768.94 1275.05 L1768.94 1249.12 M1768.94 1239.03 L1773.2 1239.03 L1773.2 1244.42 L1768.94 1244.42 L1768.94 1239.03 Z" fill="#000000" fill-rule="evenodd" fill-opacity="1" /><path clip-path="url(#clip380)" d="M1804.28 1261.02 L1804.28 1263.1 L1784.7 1263.1 Q1784.98 1267.5 1787.34 1269.82 Q1789.72 1272.11 1793.96 1272.11 Q1796.41 1272.11 1798.71 1271.5 Q1801.02 1270.9 1803.29 1269.7 L1803.29 1273.73 Q1801 1274.7 1798.59 1275.21 Q1796.18 1275.72 1793.71 1275.72 Q1787.5 1275.72 1783.87 1272.11 Q1780.26 1268.5 1780.26 1262.34 Q1780.26 1255.97 1783.68 1252.25 Q1787.13 1248.5 1792.97 1248.5 Q1798.2 1248.5 1801.23 1251.88 Q1804.28 1255.23 1804.28 1261.02 M1800.03 1259.77 Q1799.98 1256.27 1798.06 1254.19 Q1796.16 1252.11 1793.01 1252.11 Q1789.45 1252.11 1787.29 1254.12 Q1785.16 1256.13 1784.84 1259.79 L1800.03 1259.77 Z" fill="#000000" fill-rule="evenodd" fill-opacity="1" /><path clip-path="url(#clip380)" d="M1828.34 1253.06 L1828.34 1239.03 L1832.59 1239.03 L1832.59 1275.05 L1828.34 1275.05 L1828.34 1271.16 Q1826.99 1273.47 1824.93 1274.61 Q1822.9 1275.72 1820.03 1275.72 Q1815.33 1275.72 1812.36 1271.97 Q1809.42 1268.22 1809.42 1262.11 Q1809.42 1256 1812.36 1252.25 Q1815.33 1248.5 1820.03 1248.5 Q1822.9 1248.5 1824.93 1249.63 Q1826.99 1250.74 1828.34 1253.06 M1813.82 1262.11 Q1813.82 1266.81 1815.74 1269.49 Q1817.69 1272.15 1821.07 1272.15 Q1824.45 1272.15 1826.39 1269.49 Q1828.34 1266.81 1828.34 1262.11 Q1828.34 1257.41 1826.39 1254.75 Q1824.45 1252.06 1821.07 1252.06 Q1817.69 1252.06 1815.74 1254.75 Q1813.82 1257.41 1813.82 1262.11 Z" fill="#000000" fill-rule="evenodd" fill-opacity="1" /><circle clip-path="url(#clip380)" cx="1489.52" cy="1309.61" r="23.04" fill="#e69f00" fill-rule="evenodd" fill-opacity="1" stroke="#000000" stroke-opacity="1" stroke-width="2.048"/>
<path clip-path="url(#clip380)" d="M1563.29 1290.87 L1567.55 1290.87 L1567.55 1326.89 L1563.29 1326.89 L1563.29 1290.87 Z" fill="#000000" fill-rule="evenodd" fill-opacity="1" /><path clip-path="url(#clip380)" d="M1586.51 1303.95 Q1583.08 1303.95 1581.09 1306.63 Q1579.1 1309.29 1579.1 1313.95 Q1579.1 1318.6 1581.07 1321.28 Q1583.06 1323.95 1586.51 1323.95 Q1589.91 1323.95 1591.9 1321.26 Q1593.89 1318.58 1593.89 1313.95 Q1593.89 1309.34 1591.9 1306.66 Q1589.91 1303.95 1586.51 1303.95 M1586.51 1300.34 Q1592.06 1300.34 1595.23 1303.95 Q1598.41 1307.56 1598.41 1313.95 Q1598.41 1320.31 1595.23 1323.95 Q1592.06 1327.56 1586.51 1327.56 Q1580.93 1327.56 1577.76 1323.95 Q1574.61 1320.31 1574.61 1313.95 Q1574.61 1307.56 1577.76 1303.95 Q1580.93 1300.34 1586.51 1300.34 Z" fill="#000000" fill-rule="evenodd" fill-opacity="1" /><path clip-path="url(#clip380)" d="M1617.25 1313.85 Q1612.09 1313.85 1610.1 1315.03 Q1608.11 1316.22 1608.11 1319.06 Q1608.11 1321.33 1609.59 1322.67 Q1611.09 1323.99 1613.66 1323.99 Q1617.2 1323.99 1619.33 1321.49 Q1621.48 1318.97 1621.48 1314.8 L1621.48 1313.85 L1617.25 1313.85 M1625.74 1312.09 L1625.74 1326.89 L1621.48 1326.89 L1621.48 1322.95 Q1620.03 1325.31 1617.85 1326.45 Q1615.67 1327.56 1612.53 1327.56 Q1608.54 1327.56 1606.18 1325.34 Q1603.85 1323.09 1603.85 1319.34 Q1603.85 1314.97 1606.76 1312.74 Q1609.7 1310.52 1615.51 1310.52 L1621.48 1310.52 L1621.48 1310.1 Q1621.48 1307.16 1619.54 1305.57 Q1617.62 1303.95 1614.12 1303.95 Q1611.9 1303.95 1609.79 1304.48 Q1607.69 1305.01 1605.74 1306.08 L1605.74 1302.14 Q1608.08 1301.24 1610.28 1300.8 Q1612.48 1300.34 1614.56 1300.34 Q1620.19 1300.34 1622.97 1303.25 Q1625.74 1306.17 1625.74 1312.09 Z" fill="#000000" fill-rule="evenodd" fill-opacity="1" /><path clip-path="url(#clip380)" d="M1656.07 1311.24 L1656.07 1326.89 L1651.81 1326.89 L1651.81 1311.38 Q1651.81 1307.7 1650.37 1305.87 Q1648.94 1304.04 1646.07 1304.04 Q1642.62 1304.04 1640.63 1306.24 Q1638.64 1308.44 1638.64 1312.23 L1638.64 1326.89 L1634.35 1326.89 L1634.35 1300.96 L1638.64 1300.96 L1638.64 1304.99 Q1640.17 1302.65 1642.23 1301.49 Q1644.31 1300.34 1647.02 1300.34 Q1651.48 1300.34 1653.78 1303.11 Q1656.07 1305.87 1656.07 1311.24 Z" fill="#000000" fill-rule="evenodd" fill-opacity="1" /><path clip-path="url(#clip380)" d="M1683.75 1323 L1683.75 1336.75 L1679.47 1336.75 L1679.47 1300.96 L1683.75 1300.96 L1683.75 1304.9 Q1685.1 1302.58 1687.13 1301.47 Q1689.19 1300.34 1692.04 1300.34 Q1696.76 1300.34 1699.7 1304.09 Q1702.66 1307.84 1702.66 1313.95 Q1702.66 1320.06 1699.7 1323.81 Q1696.76 1327.56 1692.04 1327.56 Q1689.19 1327.56 1687.13 1326.45 Q1685.1 1325.31 1683.75 1323 M1698.24 1313.95 Q1698.24 1309.25 1696.3 1306.59 Q1694.38 1303.9 1691 1303.9 Q1687.62 1303.9 1685.67 1306.59 Q1683.75 1309.25 1683.75 1313.95 Q1683.75 1318.65 1685.67 1321.33 Q1687.62 1323.99 1691 1323.99 Q1694.38 1323.99 1696.3 1321.33 Q1698.24 1318.65 1698.24 1313.95 Z" fill="#000000" fill-rule="evenodd" fill-opacity="1" /><path clip-path="url(#clip380)" d="M1724.75 1304.94 Q1724.03 1304.53 1723.17 1304.34 Q1722.34 1304.13 1721.32 1304.13 Q1717.71 1304.13 1715.77 1306.49 Q1713.85 1308.83 1713.85 1313.23 L1713.85 1326.89 L1709.56 1326.89 L1709.56 1300.96 L1713.85 1300.96 L1713.85 1304.99 Q1715.19 1302.63 1717.34 1301.49 Q1719.49 1300.34 1722.57 1300.34 Q1723.01 1300.34 1723.54 1300.41 Q1724.08 1300.45 1724.72 1300.57 L1724.75 1304.94 Z" fill="#000000" fill-rule="evenodd" fill-opacity="1" /><path clip-path="url(#clip380)" d="M1738.22 1303.95 Q1734.79 1303.95 1732.8 1306.63 Q1730.81 1309.29 1730.81 1313.95 Q1730.81 1318.6 1732.78 1321.28 Q1734.77 1323.95 1738.22 1323.95 Q1741.62 1323.95 1743.61 1321.26 Q1745.6 1318.58 1745.6 1313.95 Q1745.6 1309.34 1743.61 1306.66 Q1741.62 1303.95 1738.22 1303.95 M1738.22 1300.34 Q1743.78 1300.34 1746.95 1303.95 Q1750.12 1307.56 1750.12 1313.95 Q1750.12 1320.31 1746.95 1323.95 Q1743.78 1327.56 1738.22 1327.56 Q1732.64 1327.56 1729.47 1323.95 Q1726.32 1320.31 1726.32 1313.95 Q1726.32 1307.56 1729.47 1303.95 Q1732.64 1300.34 1738.22 1300.34 Z" fill="#000000" fill-rule="evenodd" fill-opacity="1" /><path clip-path="url(#clip380)" d="M1754.12 1300.96 L1758.64 1300.96 L1766.74 1322.72 L1774.84 1300.96 L1779.35 1300.96 L1769.63 1326.89 L1763.84 1326.89 L1754.12 1300.96 Z" fill="#000000" fill-rule="evenodd" fill-opacity="1" /><path clip-path="url(#clip380)" d="M1785.23 1300.96 L1789.49 1300.96 L1789.49 1326.89 L1785.23 1326.89 L1785.23 1300.96 M1785.23 1290.87 L1789.49 1290.87 L1789.49 1296.26 L1785.23 1296.26 L1785.23 1290.87 Z" fill="#000000" fill-rule="evenodd" fill-opacity="1" /><path clip-path="url(#clip380)" d="M1815.47 1304.9 L1815.47 1290.87 L1819.72 1290.87 L1819.72 1326.89 L1815.47 1326.89 L1815.47 1323 Q1814.12 1325.31 1812.06 1326.45 Q1810.03 1327.56 1807.15 1327.56 Q1802.46 1327.56 1799.49 1323.81 Q1796.55 1320.06 1796.55 1313.95 Q1796.55 1307.84 1799.49 1304.09 Q1802.46 1300.34 1807.15 1300.34 Q1810.03 1300.34 1812.06 1301.47 Q1814.12 1302.58 1815.47 1304.9 M1800.95 1313.95 Q1800.95 1318.65 1802.87 1321.33 Q1804.82 1323.99 1808.2 1323.99 Q1811.58 1323.99 1813.52 1321.33 Q1815.47 1318.65 1815.47 1313.95 Q1815.47 1309.25 1813.52 1306.59 Q1811.58 1303.9 1808.2 1303.9 Q1804.82 1303.9 1802.87 1306.59 Q1800.95 1309.25 1800.95 1313.95 Z" fill="#000000" fill-rule="evenodd" fill-opacity="1" /><path clip-path="url(#clip380)" d="M1850.67 1312.86 L1850.67 1314.94 L1831.09 1314.94 Q1831.37 1319.34 1833.73 1321.66 Q1836.11 1323.95 1840.35 1323.95 Q1842.8 1323.95 1845.09 1323.34 Q1847.41 1322.74 1849.68 1321.54 L1849.68 1325.57 Q1847.39 1326.54 1844.98 1327.05 Q1842.57 1327.56 1840.09 1327.56 Q1833.89 1327.56 1830.26 1323.95 Q1826.65 1320.34 1826.65 1314.18 Q1826.65 1307.81 1830.07 1304.09 Q1833.52 1300.34 1839.35 1300.34 Q1844.59 1300.34 1847.62 1303.72 Q1850.67 1307.07 1850.67 1312.86 M1846.41 1311.61 Q1846.37 1308.11 1844.45 1306.03 Q1842.55 1303.95 1839.4 1303.95 Q1835.84 1303.95 1833.68 1305.96 Q1831.55 1307.97 1831.23 1311.63 L1846.41 1311.61 Z" fill="#000000" fill-rule="evenodd" fill-opacity="1" /><path clip-path="url(#clip380)" d="M1874.72 1304.9 L1874.72 1290.87 L1878.98 1290.87 L1878.98 1326.89 L1874.72 1326.89 L1874.72 1323 Q1873.38 1325.31 1871.32 1326.45 Q1869.28 1327.56 1866.41 1327.56 Q1861.71 1327.56 1858.75 1323.81 Q1855.81 1320.06 1855.81 1313.95 Q1855.81 1307.84 1858.75 1304.09 Q1861.71 1300.34 1866.41 1300.34 Q1869.28 1300.34 1871.32 1301.47 Q1873.38 1302.58 1874.72 1304.9 M1860.21 1313.95 Q1860.21 1318.65 1862.13 1321.33 Q1864.08 1323.99 1867.46 1323.99 Q1870.84 1323.99 1872.78 1321.33 Q1874.72 1318.65 1874.72 1313.95 Q1874.72 1309.25 1872.78 1306.59 Q1870.84 1303.9 1867.46 1303.9 Q1864.08 1303.9 1862.13 1306.59 Q1860.21 1309.25 1860.21 1313.95 Z" fill="#000000" fill-rule="evenodd" fill-opacity="1" /></svg>
