<?xml version="1.0" encoding="utf-8"?>
<svg xmlns="http://www.w3.org/2000/svg" xmlns:xlink="http://www.w3.org/1999/xlink" width="500" height="400" viewBox="0 0 2000 1600">
<defs>
  <clipPath id="clip780">
    <rect x="0" y="0" width="2000" height="1600"/>
  </clipPath>
</defs>
<path clip-path="url(#clip780)" d="M0 1600 L2000 1600 L2000 0 L0 0  Z" fill="#ffffff" fill-rule="evenodd" fill-opacity="1"/>
<defs>
  <clipPath id="clip781">
    <rect x="400" y="0" width="1401" height="1401"/>
  </clipPath>
</defs>
<path clip-path="url(#clip780)" d="M216.25 1406.76 L1952.76 1406.76 L1952.76 47.2441 L216.25 47.2441  Z" fill="#ffffff" fill-rule="evenodd" fill-opacity="1"/>
<defs>
  <clipPath id="clip782">
    <rect x="216" y="47" width="1738" height="1361"/>
  </clipPath>
</defs>
<polyline clip-path="url(#clip782)" style="stroke:#000000; stroke-linecap:round; stroke-linejoin:round; stroke-width:2; stroke-opacity:0.1; fill:none" points="493.965,1406.76 493.965,47.2441 "/>
<polyline clip-path="url(#clip782)" style="stroke:#000000; stroke-linecap:round; stroke-linejoin:round; stroke-width:2; stroke-opacity:0.1; fill:none" points="839.831,1406.76 839.831,47.2441 "/>
<polyline clip-path="url(#clip782)" style="stroke:#000000; stroke-linecap:round; stroke-linejoin:round; stroke-width:2; stroke-opacity:0.1; fill:none" points="1185.7,1406.76 1185.7,47.2441 "/>
<polyline clip-path="url(#clip782)" style="stroke:#000000; stroke-linecap:round; stroke-linejoin:round; stroke-width:2; stroke-opacity:0.1; fill:none" points="1531.56,1406.76 1531.56,47.2441 "/>
<polyline clip-path="url(#clip782)" style="stroke:#000000; stroke-linecap:round; stroke-linejoin:round; stroke-width:2; stroke-opacity:0.1; fill:none" points="1877.43,1406.76 1877.43,47.2441 "/>
<polyline clip-path="url(#clip782)" style="stroke:#000000; stroke-linecap:round; stroke-linejoin:round; stroke-width:2; stroke-opacity:0.1; fill:none" points="216.25,1397.71 1952.76,1397.71 "/>
<polyline clip-path="url(#clip782)" style="stroke:#000000; stroke-linecap:round; stroke-linejoin:round; stroke-width:2; stroke-opacity:0.1; fill:none" points="216.25,1077.38 1952.76,1077.38 "/>
<polyline clip-path="url(#clip782)" style="stroke:#000000; stroke-linecap:round; stroke-linejoin:round; stroke-width:2; stroke-opacity:0.1; fill:none" points="216.25,757.057 1952.76,757.057 "/>
<polyline clip-path="url(#clip782)" style="stroke:#000000; stroke-linecap:round; stroke-linejoin:round; stroke-width:2; stroke-opacity:0.1; fill:none" points="216.25,436.73 1952.76,436.73 "/>
<polyline clip-path="url(#clip782)" style="stroke:#000000; stroke-linecap:round; stroke-linejoin:round; stroke-width:2; stroke-opacity:0.1; fill:none" points="216.25,116.404 1952.76,116.404 "/>
<polyline clip-path="url(#clip780)" style="stroke:#000000; stroke-linecap:round; stroke-linejoin:round; stroke-width:4; stroke-opacity:1; fill:none" points="216.25,1406.76 1952.76,1406.76 "/>
<polyline clip-path="url(#clip780)" style="stroke:#000000; stroke-linecap:round; stroke-linejoin:round; stroke-width:4; stroke-opacity:1; fill:none" points="493.965,1406.76 493.965,1387.87 "/>
<polyline clip-path="url(#clip780)" style="stroke:#000000; stroke-linecap:round; stroke-linejoin:round; stroke-width:4; stroke-opacity:1; fill:none" points="839.831,1406.76 839.831,1387.87 "/>
<polyline clip-path="url(#clip780)" style="stroke:#000000; stroke-linecap:round; stroke-linejoin:round; stroke-width:4; stroke-opacity:1; fill:none" points="1185.7,1406.76 1185.7,1387.87 "/>
<polyline clip-path="url(#clip780)" style="stroke:#000000; stroke-linecap:round; stroke-linejoin:round; stroke-width:4; stroke-opacity:1; fill:none" points="1531.56,1406.76 1531.56,1387.87 "/>
<polyline clip-path="url(#clip780)" style="stroke:#000000; stroke-linecap:round; stroke-linejoin:round; stroke-width:4; stroke-opacity:1; fill:none" points="1877.43,1406.76 1877.43,1387.87 "/>
<path clip-path="url(#clip780)" d="M440.412 1449.14 L470.088 1449.14 L470.088 1453.07 L440.412 1453.07 L440.412 1449.14 Z" fill="#000000" fill-rule="nonzero" fill-opacity="1" /><path clip-path="url(#clip780)" d="M490.18 1434.48 Q486.569 1434.48 484.741 1438.05 Q482.935 1441.59 482.935 1448.72 Q482.935 1455.83 484.741 1459.39 Q486.569 1462.93 490.18 1462.93 Q493.815 1462.93 495.62 1459.39 Q497.449 1455.83 497.449 1448.72 Q497.449 1441.59 495.62 1438.05 Q493.815 1434.48 490.18 1434.48 M490.18 1430.78 Q495.991 1430.78 499.046 1435.39 Q502.125 1439.97 502.125 1448.72 Q502.125 1457.45 499.046 1462.05 Q495.991 1466.64 490.18 1466.64 Q484.37 1466.64 481.292 1462.05 Q478.236 1457.45 478.236 1448.72 Q478.236 1439.97 481.292 1435.39 Q484.37 1430.78 490.18 1430.78 Z" fill="#000000" fill-rule="nonzero" fill-opacity="1" /><path clip-path="url(#clip780)" d="M510.342 1460.08 L515.227 1460.08 L515.227 1465.96 L510.342 1465.96 L510.342 1460.08 Z" fill="#000000" fill-rule="nonzero" fill-opacity="1" /><path clip-path="url(#clip780)" d="M535.99 1446.82 Q532.842 1446.82 530.99 1448.97 Q529.162 1451.13 529.162 1454.88 Q529.162 1458.6 530.99 1460.78 Q532.842 1462.93 535.99 1462.93 Q539.138 1462.93 540.967 1460.78 Q542.819 1458.6 542.819 1454.88 Q542.819 1451.13 540.967 1448.97 Q539.138 1446.82 535.99 1446.82 M545.273 1432.17 L545.273 1436.43 Q543.513 1435.59 541.708 1435.15 Q539.926 1434.71 538.166 1434.71 Q533.537 1434.71 531.083 1437.84 Q528.652 1440.96 528.305 1447.28 Q529.671 1445.27 531.731 1444.2 Q533.791 1443.12 536.268 1443.12 Q541.476 1443.12 544.486 1446.29 Q547.518 1449.44 547.518 1454.88 Q547.518 1460.2 544.37 1463.42 Q541.222 1466.64 535.99 1466.64 Q529.995 1466.64 526.824 1462.05 Q523.652 1457.45 523.652 1448.72 Q523.652 1440.52 527.541 1435.66 Q531.43 1430.78 537.981 1430.78 Q539.74 1430.78 541.523 1431.13 Q543.328 1431.47 545.273 1432.17 Z" fill="#000000" fill-rule="nonzero" fill-opacity="1" /><path clip-path="url(#clip780)" d="M786.116 1449.14 L815.792 1449.14 L815.792 1453.07 L786.116 1453.07 L786.116 1449.14 Z" fill="#000000" fill-rule="nonzero" fill-opacity="1" /><path clip-path="url(#clip780)" d="M835.884 1434.48 Q832.273 1434.48 830.445 1438.05 Q828.639 1441.59 828.639 1448.72 Q828.639 1455.83 830.445 1459.39 Q832.273 1462.93 835.884 1462.93 Q839.519 1462.93 841.324 1459.39 Q843.153 1455.83 843.153 1448.72 Q843.153 1441.59 841.324 1438.05 Q839.519 1434.48 835.884 1434.48 M835.884 1430.78 Q841.695 1430.78 844.75 1435.39 Q847.829 1439.97 847.829 1448.72 Q847.829 1457.45 844.75 1462.05 Q841.695 1466.64 835.884 1466.64 Q830.074 1466.64 826.996 1462.05 Q823.94 1457.45 823.94 1448.72 Q823.94 1439.97 826.996 1435.39 Q830.074 1430.78 835.884 1430.78 Z" fill="#000000" fill-rule="nonzero" fill-opacity="1" /><path clip-path="url(#clip780)" d="M856.046 1460.08 L860.931 1460.08 L860.931 1465.96 L856.046 1465.96 L856.046 1460.08 Z" fill="#000000" fill-rule="nonzero" fill-opacity="1" /><path clip-path="url(#clip780)" d="M883.963 1435.48 L872.157 1453.93 L883.963 1453.93 L883.963 1435.48 M882.736 1431.4 L888.616 1431.4 L888.616 1453.93 L893.546 1453.93 L893.546 1457.82 L888.616 1457.82 L888.616 1465.96 L883.963 1465.96 L883.963 1457.82 L868.361 1457.82 L868.361 1453.3 L882.736 1431.4 Z" fill="#000000" fill-rule="nonzero" fill-opacity="1" /><path clip-path="url(#clip780)" d="M1133.02 1449.14 L1162.7 1449.14 L1162.7 1453.07 L1133.02 1453.07 L1133.02 1449.14 Z" fill="#000000" fill-rule="nonzero" fill-opacity="1" /><path clip-path="url(#clip780)" d="M1182.79 1434.48 Q1179.18 1434.48 1177.35 1438.05 Q1175.55 1441.59 1175.55 1448.72 Q1175.55 1455.83 1177.35 1459.39 Q1179.18 1462.93 1182.79 1462.93 Q1186.43 1462.93 1188.23 1459.39 Q1190.06 1455.83 1190.06 1448.72 Q1190.06 1441.59 1188.23 1438.05 Q1186.43 1434.48 1182.79 1434.48 M1182.79 1430.78 Q1188.6 1430.78 1191.66 1435.39 Q1194.74 1439.97 1194.74 1448.72 Q1194.74 1457.45 1191.66 1462.05 Q1188.6 1466.64 1182.79 1466.64 Q1176.98 1466.64 1173.9 1462.05 Q1170.85 1457.45 1170.85 1448.72 Q1170.85 1439.97 1173.9 1435.39 Q1176.98 1430.78 1182.79 1430.78 Z" fill="#000000" fill-rule="nonzero" fill-opacity="1" /><path clip-path="url(#clip780)" d="M1202.95 1460.08 L1207.84 1460.08 L1207.84 1465.96 L1202.95 1465.96 L1202.95 1460.08 Z" fill="#000000" fill-rule="nonzero" fill-opacity="1" /><path clip-path="url(#clip780)" d="M1222.05 1462.03 L1238.37 1462.03 L1238.37 1465.96 L1216.43 1465.96 L1216.43 1462.03 Q1219.09 1459.27 1223.67 1454.64 Q1228.28 1449.99 1229.46 1448.65 Q1231.7 1446.13 1232.58 1444.39 Q1233.49 1442.63 1233.49 1440.94 Q1233.49 1438.19 1231.54 1436.45 Q1229.62 1434.71 1226.52 1434.71 Q1224.32 1434.71 1221.87 1435.48 Q1219.44 1436.24 1216.66 1437.79 L1216.66 1433.07 Q1219.48 1431.94 1221.94 1431.36 Q1224.39 1430.78 1226.43 1430.78 Q1231.8 1430.78 1234.99 1433.46 Q1238.19 1436.15 1238.19 1440.64 Q1238.19 1442.77 1237.38 1444.69 Q1236.59 1446.59 1234.48 1449.18 Q1233.9 1449.85 1230.8 1453.07 Q1227.7 1456.26 1222.05 1462.03 Z" fill="#000000" fill-rule="nonzero" fill-opacity="1" /><path clip-path="url(#clip780)" d="M1508.95 1434.48 Q1505.34 1434.48 1503.51 1438.05 Q1501.7 1441.59 1501.7 1448.72 Q1501.7 1455.83 1503.51 1459.39 Q1505.34 1462.93 1508.95 1462.93 Q1512.58 1462.93 1514.39 1459.39 Q1516.22 1455.83 1516.22 1448.72 Q1516.22 1441.59 1514.39 1438.05 Q1512.58 1434.48 1508.95 1434.48 M1508.95 1430.78 Q1514.76 1430.78 1517.81 1435.39 Q1520.89 1439.97 1520.89 1448.72 Q1520.89 1457.45 1517.81 1462.05 Q1514.76 1466.64 1508.95 1466.64 Q1503.14 1466.64 1500.06 1462.05 Q1497 1457.45 1497 1448.72 Q1497 1439.97 1500.06 1435.39 Q1503.14 1430.78 1508.95 1430.78 Z" fill="#000000" fill-rule="nonzero" fill-opacity="1" /><path clip-path="url(#clip780)" d="M1529.11 1460.08 L1533.99 1460.08 L1533.99 1465.96 L1529.11 1465.96 L1529.11 1460.08 Z" fill="#000000" fill-rule="nonzero" fill-opacity="1" /><path clip-path="url(#clip780)" d="M1554.18 1434.48 Q1550.57 1434.48 1548.74 1438.05 Q1546.93 1441.59 1546.93 1448.72 Q1546.93 1455.83 1548.74 1459.39 Q1550.57 1462.93 1554.18 1462.93 Q1557.81 1462.93 1559.62 1459.39 Q1561.45 1455.83 1561.45 1448.72 Q1561.45 1441.59 1559.62 1438.05 Q1557.81 1434.48 1554.18 1434.48 M1554.18 1430.78 Q1559.99 1430.78 1563.04 1435.39 Q1566.12 1439.97 1566.12 1448.72 Q1566.12 1457.45 1563.04 1462.05 Q1559.99 1466.64 1554.18 1466.64 Q1548.37 1466.64 1545.29 1462.05 Q1542.23 1457.45 1542.23 1448.72 Q1542.23 1439.97 1545.29 1435.39 Q1548.37 1430.78 1554.18 1430.78 Z" fill="#000000" fill-rule="nonzero" fill-opacity="1" /><path clip-path="url(#clip780)" d="M1855.61 1434.48 Q1852 1434.48 1850.17 1438.05 Q1848.37 1441.59 1848.37 1448.72 Q1848.37 1455.83 1850.17 1459.39 Q1852 1462.93 1855.61 1462.93 Q1859.25 1462.93 1861.05 1459.39 Q1862.88 1455.83 1862.88 1448.72 Q1862.88 1441.59 1861.05 1438.05 Q1859.25 1434.48 1855.61 1434.48 M1855.61 1430.78 Q1861.42 1430.78 1864.48 1435.39 Q1867.56 1439.97 1867.56 1448.72 Q1867.56 1457.45 1864.48 1462.05 Q1861.42 1466.64 1855.61 1466.64 Q1849.8 1466.64 1846.72 1462.05 Q1843.67 1457.45 1843.67 1448.72 Q1843.67 1439.97 1846.72 1435.39 Q1849.8 1430.78 1855.61 1430.78 Z" fill="#000000" fill-rule="nonzero" fill-opacity="1" /><path clip-path="url(#clip780)" d="M1875.77 1460.08 L1880.66 1460.08 L1880.66 1465.96 L1875.77 1465.96 L1875.77 1460.08 Z" fill="#000000" fill-rule="nonzero" fill-opacity="1" /><path clip-path="url(#clip780)" d="M1894.87 1462.03 L1911.19 1462.03 L1911.19 1465.96 L1889.25 1465.96 L1889.25 1462.03 Q1891.91 1459.27 1896.49 1454.64 Q1901.1 1449.99 1902.28 1448.65 Q1904.52 1446.13 1905.4 1444.39 Q1906.31 1442.63 1906.31 1440.94 Q1906.31 1438.19 1904.36 1436.45 Q1902.44 1434.71 1899.34 1434.71 Q1897.14 1434.71 1894.69 1435.48 Q1892.26 1436.24 1889.48 1437.79 L1889.48 1433.07 Q1892.3 1431.94 1894.76 1431.36 Q1897.21 1430.78 1899.25 1430.78 Q1904.62 1430.78 1907.81 1433.46 Q1911.01 1436.15 1911.01 1440.64 Q1911.01 1442.77 1910.2 1444.69 Q1909.41 1446.59 1907.3 1449.18 Q1906.72 1449.85 1903.62 1453.07 Q1900.52 1456.26 1894.87 1462.03 Z" fill="#000000" fill-rule="nonzero" fill-opacity="1" /><path clip-path="url(#clip780)" d="M969.936 1509.98 L975.793 1509.98 L975.793 1545.63 L969.936 1545.63 L969.936 1509.98 M969.936 1496.1 L975.793 1496.1 L975.793 1503.52 L969.936 1503.52 L969.936 1496.1 Z" fill="#000000" fill-rule="nonzero" fill-opacity="1" /><path clip-path="url(#clip780)" d="M1017.68 1524.11 L1017.68 1545.63 L1011.82 1545.63 L1011.82 1524.3 Q1011.82 1519.24 1009.85 1516.73 Q1007.88 1514.21 1003.93 1514.21 Q999.187 1514.21 996.449 1517.24 Q993.712 1520.26 993.712 1525.48 L993.712 1545.63 L987.824 1545.63 L987.824 1509.98 L993.712 1509.98 L993.712 1515.52 Q995.813 1512.3 998.645 1510.71 Q1001.51 1509.12 1005.23 1509.12 Q1011.38 1509.12 1014.53 1512.94 Q1017.68 1516.73 1017.68 1524.11 Z" fill="#000000" fill-rule="nonzero" fill-opacity="1" /><path clip-path="url(#clip780)" d="M1055.01 1511.35 L1055.01 1516.82 Q1052.53 1515.45 1050.02 1514.79 Q1047.53 1514.09 1044.99 1514.09 Q1039.29 1514.09 1036.14 1517.71 Q1032.99 1521.31 1032.99 1527.84 Q1032.99 1534.36 1036.14 1537.99 Q1039.29 1541.59 1044.99 1541.59 Q1047.53 1541.59 1050.02 1540.92 Q1052.53 1540.22 1055.01 1538.85 L1055.01 1544.26 Q1052.56 1545.41 1049.92 1545.98 Q1047.31 1546.55 1044.35 1546.55 Q1036.3 1546.55 1031.56 1541.49 Q1026.81 1536.43 1026.81 1527.84 Q1026.81 1519.11 1031.59 1514.12 Q1036.39 1509.12 1044.73 1509.12 Q1047.44 1509.12 1050.02 1509.69 Q1052.59 1510.23 1055.01 1511.35 Z" fill="#000000" fill-rule="nonzero" fill-opacity="1" /><path clip-path="url(#clip780)" d="M1079.01 1514.09 Q1074.3 1514.09 1071.56 1517.78 Q1068.83 1521.44 1068.83 1527.84 Q1068.83 1534.23 1071.53 1537.93 Q1074.27 1541.59 1079.01 1541.59 Q1083.69 1541.59 1086.43 1537.89 Q1089.17 1534.2 1089.17 1527.84 Q1089.17 1521.5 1086.43 1517.81 Q1083.69 1514.09 1079.01 1514.09 M1079.01 1509.12 Q1086.65 1509.12 1091.01 1514.09 Q1095.37 1519.05 1095.37 1527.84 Q1095.37 1536.59 1091.01 1541.59 Q1086.65 1546.55 1079.01 1546.55 Q1071.34 1546.55 1066.98 1541.59 Q1062.65 1536.59 1062.65 1527.84 Q1062.65 1519.05 1066.98 1514.09 Q1071.34 1509.12 1079.01 1509.12 Z" fill="#000000" fill-rule="nonzero" fill-opacity="1" /><path clip-path="url(#clip780)" d="M1132.83 1516.82 Q1135.03 1512.88 1138.09 1511 Q1141.14 1509.12 1145.28 1509.12 Q1150.85 1509.12 1153.87 1513.04 Q1156.9 1516.92 1156.9 1524.11 L1156.9 1545.63 L1151.01 1545.63 L1151.01 1524.3 Q1151.01 1519.18 1149.19 1516.7 Q1147.38 1514.21 1143.66 1514.21 Q1139.1 1514.21 1136.46 1517.24 Q1133.82 1520.26 1133.82 1525.48 L1133.82 1545.63 L1127.93 1545.63 L1127.93 1524.3 Q1127.93 1519.15 1126.12 1516.7 Q1124.3 1514.21 1120.52 1514.21 Q1116.03 1514.21 1113.39 1517.27 Q1110.75 1520.29 1110.75 1525.48 L1110.75 1545.63 L1104.86 1545.63 L1104.86 1509.98 L1110.75 1509.98 L1110.75 1515.52 Q1112.75 1512.24 1115.55 1510.68 Q1118.35 1509.12 1122.2 1509.12 Q1126.09 1509.12 1128.79 1511.09 Q1131.53 1513.07 1132.83 1516.82 Z" fill="#000000" fill-rule="nonzero" fill-opacity="1" /><path clip-path="url(#clip780)" d="M1199.07 1526.34 L1199.07 1529.2 L1172.14 1529.2 Q1172.52 1535.25 1175.77 1538.43 Q1179.05 1541.59 1184.87 1541.59 Q1188.25 1541.59 1191.4 1540.76 Q1194.58 1539.93 1197.7 1538.28 L1197.7 1543.81 Q1194.55 1545.15 1191.24 1545.85 Q1187.93 1546.55 1184.52 1546.55 Q1175.99 1546.55 1171 1541.59 Q1166.03 1536.62 1166.03 1528.15 Q1166.03 1519.4 1170.74 1514.28 Q1175.48 1509.12 1183.51 1509.12 Q1190.7 1509.12 1194.87 1513.77 Q1199.07 1518.38 1199.07 1526.34 M1193.21 1524.62 Q1193.15 1519.81 1190.51 1516.95 Q1187.9 1514.09 1183.57 1514.09 Q1178.67 1514.09 1175.71 1516.85 Q1172.78 1519.62 1172.33 1524.65 L1193.21 1524.62 Z" fill="#000000" fill-rule="nonzero" fill-opacity="1" /><polyline clip-path="url(#clip780)" style="stroke:#000000; stroke-linecap:round; stroke-linejoin:round; stroke-width:4; stroke-opacity:1; fill:none" points="216.25,1406.76 216.25,47.2441 "/>
<polyline clip-path="url(#clip780)" style="stroke:#000000; stroke-linecap:round; stroke-linejoin:round; stroke-width:4; stroke-opacity:1; fill:none" points="216.25,1397.71 235.148,1397.71 "/>
<polyline clip-path="url(#clip780)" style="stroke:#000000; stroke-linecap:round; stroke-linejoin:round; stroke-width:4; stroke-opacity:1; fill:none" points="216.25,1077.38 235.148,1077.38 "/>
<polyline clip-path="url(#clip780)" style="stroke:#000000; stroke-linecap:round; stroke-linejoin:round; stroke-width:4; stroke-opacity:1; fill:none" points="216.25,757.057 235.148,757.057 "/>
<polyline clip-path="url(#clip780)" style="stroke:#000000; stroke-linecap:round; stroke-linejoin:round; stroke-width:4; stroke-opacity:1; fill:none" points="216.25,436.73 235.148,436.73 "/>
<polyline clip-path="url(#clip780)" style="stroke:#000000; stroke-linecap:round; stroke-linejoin:round; stroke-width:4; stroke-opacity:1; fill:none" points="216.25,116.404 235.148,116.404 "/>
<path clip-path="url(#clip780)" d="M126.135 1398.16 L155.81 1398.16 L155.81 1402.1 L126.135 1402.1 L126.135 1398.16 Z" fill="#000000" fill-rule="nonzero" fill-opacity="1" /><path clip-path="url(#clip780)" d="M169.931 1411.06 L186.25 1411.06 L186.25 1414.99 L164.306 1414.99 L164.306 1411.06 Q166.968 1408.3 171.551 1403.67 Q176.157 1399.02 177.338 1397.68 Q179.583 1395.15 180.463 1393.42 Q181.366 1391.66 181.366 1389.97 Q181.366 1387.21 179.421 1385.48 Q177.5 1383.74 174.398 1383.74 Q172.199 1383.74 169.745 1384.5 Q167.315 1385.27 164.537 1386.82 L164.537 1382.1 Q167.361 1380.96 169.815 1380.38 Q172.269 1379.81 174.306 1379.81 Q179.676 1379.81 182.87 1382.49 Q186.065 1385.18 186.065 1389.67 Q186.065 1391.8 185.255 1393.72 Q184.468 1395.62 182.361 1398.21 Q181.782 1398.88 178.681 1402.1 Q175.579 1405.29 169.931 1411.06 Z" fill="#000000" fill-rule="nonzero" fill-opacity="1" /><path clip-path="url(#clip780)" d="M125.764 1077.84 L155.44 1077.84 L155.44 1081.77 L125.764 1081.77 L125.764 1077.84 Z" fill="#000000" fill-rule="nonzero" fill-opacity="1" /><path clip-path="url(#clip780)" d="M166.343 1090.73 L173.981 1090.73 L173.981 1064.36 L165.671 1066.03 L165.671 1061.77 L173.935 1060.1 L178.611 1060.1 L178.611 1090.73 L186.25 1090.73 L186.25 1094.66 L166.343 1094.66 L166.343 1090.73 Z" fill="#000000" fill-rule="nonzero" fill-opacity="1" /><path clip-path="url(#clip780)" d="M174.306 742.856 Q170.694 742.856 168.866 746.421 Q167.06 749.962 167.06 757.092 Q167.06 764.198 168.866 767.763 Q170.694 771.305 174.306 771.305 Q177.94 771.305 179.745 767.763 Q181.574 764.198 181.574 757.092 Q181.574 749.962 179.745 746.421 Q177.94 742.856 174.306 742.856 M174.306 739.152 Q180.116 739.152 183.171 743.759 Q186.25 748.342 186.25 757.092 Q186.25 765.819 183.171 770.425 Q180.116 775.008 174.306 775.008 Q168.495 775.008 165.417 770.425 Q162.361 765.819 162.361 757.092 Q162.361 748.342 165.417 743.759 Q168.495 739.152 174.306 739.152 Z" fill="#000000" fill-rule="nonzero" fill-opacity="1" /><path clip-path="url(#clip780)" d="M166.343 450.075 L173.981 450.075 L173.981 423.71 L165.671 425.376 L165.671 421.117 L173.935 419.45 L178.611 419.45 L178.611 450.075 L186.25 450.075 L186.25 454.01 L166.343 454.01 L166.343 450.075 Z" fill="#000000" fill-rule="nonzero" fill-opacity="1" /><path clip-path="url(#clip780)" d="M169.931 129.748 L186.25 129.748 L186.25 133.684 L164.306 133.684 L164.306 129.748 Q166.968 126.994 171.551 122.364 Q176.157 117.711 177.338 116.369 Q179.583 113.846 180.463 112.11 Q181.366 110.35 181.366 108.661 Q181.366 105.906 179.421 104.17 Q177.5 102.434 174.398 102.434 Q172.199 102.434 169.745 103.198 Q167.315 103.962 164.537 105.512 L164.537 100.79 Q167.361 99.656 169.815 99.0773 Q172.269 98.4986 174.306 98.4986 Q179.676 98.4986 182.87 101.184 Q186.065 103.869 186.065 108.36 Q186.065 110.489 185.255 112.411 Q184.468 114.309 182.361 116.901 Q181.782 117.573 178.681 120.79 Q175.579 123.985 169.931 129.748 Z" fill="#000000" fill-rule="nonzero" fill-opacity="1" /><path clip-path="url(#clip780)" d="M63.5887 765.596 Q63.5887 772.694 65.2119 775.431 Q66.8352 778.168 70.7501 778.168 Q73.8693 778.168 75.7154 776.131 Q77.5296 774.062 77.5296 770.529 Q77.5296 765.66 74.0921 762.731 Q70.6228 759.771 64.8937 759.771 L63.5887 759.771 L63.5887 765.596 M61.1697 753.915 L81.5082 753.915 L81.5082 759.771 L76.0973 759.771 Q79.3438 761.777 80.9034 764.769 Q82.4312 767.76 82.4312 772.089 Q82.4312 777.564 79.3756 780.81 Q76.2883 784.025 71.1321 784.025 Q65.1165 784.025 62.0609 780.014 Q59.0054 775.972 59.0054 767.983 L59.0054 759.771 L58.4325 759.771 Q54.3902 759.771 52.1941 762.445 Q49.9661 765.087 49.9661 769.893 Q49.9661 772.948 50.6981 775.845 Q51.4302 778.741 52.8943 781.415 L47.4835 781.415 Q46.2421 778.2 45.6374 775.176 Q45.0008 772.153 45.0008 769.288 Q45.0008 761.554 49.0112 757.734 Q53.0216 753.915 61.1697 753.915 Z" fill="#000000" fill-rule="nonzero" fill-opacity="1" /><path clip-path="url(#clip780)" d="M63.2704 718.394 Q56.9047 718.394 53.4036 721.036 Q49.9024 723.646 49.9024 728.389 Q49.9024 733.099 53.4036 735.741 Q56.9047 738.351 63.2704 738.351 Q69.6043 738.351 73.1054 735.741 Q76.6066 733.099 76.6066 728.389 Q76.6066 723.646 73.1054 721.036 Q69.6043 718.394 63.2704 718.394 M77.084 712.538 Q86.187 712.538 90.6111 716.58 Q95.0671 720.622 95.0671 728.961 Q95.0671 732.049 94.5897 734.786 Q94.1441 737.523 93.1892 740.101 L87.4919 740.101 Q88.8924 737.523 89.5608 735.009 Q90.2292 732.494 90.2292 729.884 Q90.2292 724.123 87.2055 721.259 Q84.2136 718.394 78.1343 718.394 L75.2379 718.394 Q78.389 720.209 79.9486 723.041 Q81.5082 725.874 81.5082 729.821 Q81.5082 736.377 76.5111 740.388 Q71.514 744.398 63.2704 744.398 Q54.995 744.398 49.9979 740.388 Q45.0008 736.377 45.0008 729.821 Q45.0008 725.874 46.5604 723.041 Q48.12 720.209 51.2711 718.394 L45.8602 718.394 L45.8602 712.538 L77.084 712.538 Z" fill="#000000" fill-rule="nonzero" fill-opacity="1" /><path clip-path="url(#clip780)" d="M62.2201 669.983 L65.0846 669.983 L65.0846 696.91 Q71.1321 696.528 74.3149 693.282 Q77.4659 690.003 77.4659 684.179 Q77.4659 680.805 76.6384 677.654 Q75.8109 674.471 74.1558 671.352 L79.6939 671.352 Q81.0307 674.503 81.731 677.813 Q82.4312 681.123 82.4312 684.529 Q82.4312 693.059 77.4659 698.056 Q72.5007 703.021 64.0343 703.021 Q55.2814 703.021 50.1571 698.311 Q45.0008 693.568 45.0008 685.547 Q45.0008 678.354 49.6478 674.185 Q54.2629 669.983 62.2201 669.983 M60.5013 675.84 Q55.6952 675.903 52.8306 678.545 Q49.9661 681.155 49.9661 685.484 Q49.9661 690.385 52.7352 693.345 Q55.5042 696.274 60.5332 696.719 L60.5013 675.84 Z" fill="#000000" fill-rule="nonzero" fill-opacity="1" /><circle clip-path="url(#clip782)" cx="888.837" cy="1230.87" r="36" fill="#00a1ff" fill-rule="evenodd" fill-opacity="1" stroke="#000000" stroke-opacity="1" stroke-width="3.2"/>
<circle clip-path="url(#clip782)" cx="945.817" cy="1228.47" r="36" fill="#e69f00" fill-rule="evenodd" fill-opacity="1" stroke="#000000" stroke-opacity="1" stroke-width="3.2"/>
<polyline clip-path="url(#clip782)" style="stroke:#000000; stroke-linecap:round; stroke-linejoin:round; stroke-width:8; stroke-opacity:1; fill:none" points="888.837,1230.87 945.817,1228.47 "/>
<polyline clip-path="url(#clip782)" style="stroke:#000000; stroke-linecap:round; stroke-linejoin:round; stroke-width:8; stroke-opacity:1; fill:none" points="915.213,1214.75 945.817,1228.47 916.474,1244.72 "/>
<polyline clip-path="url(#clip782)" style="stroke:#000000; stroke-linecap:round; stroke-linejoin:round; stroke-width:8; stroke-opacity:1; fill:none" points="945.817,1228.47 888.837,1230.87 "/>
<circle clip-path="url(#clip782)" cx="827.951" cy="887.325" r="36" fill="#00a1ff" fill-rule="evenodd" fill-opacity="1" stroke="#000000" stroke-opacity="1" stroke-width="3.2"/>
<circle clip-path="url(#clip782)" cx="555.552" cy="879.915" r="36" fill="#e69f00" fill-rule="evenodd" fill-opacity="1" stroke="#000000" stroke-opacity="1" stroke-width="3.2"/>
<polyline clip-path="url(#clip782)" style="stroke:#000000; stroke-linecap:round; stroke-linejoin:round; stroke-width:8; stroke-opacity:1; fill:none" points="827.951,887.325 555.552,879.915 "/>
<polyline clip-path="url(#clip782)" style="stroke:#000000; stroke-linecap:round; stroke-linejoin:round; stroke-width:8; stroke-opacity:1; fill:none" points="585.133,895.726 555.552,879.915 585.949,865.737 "/>
<polyline clip-path="url(#clip782)" style="stroke:#000000; stroke-linecap:round; stroke-linejoin:round; stroke-width:8; stroke-opacity:1; fill:none" points="555.552,879.915 827.951,887.325 "/>
<circle clip-path="url(#clip782)" cx="1294.75" cy="1024.74" r="36" fill="#00a1ff" fill-rule="evenodd" fill-opacity="1" stroke="#000000" stroke-opacity="1" stroke-width="3.2"/>
<circle clip-path="url(#clip782)" cx="1326.95" cy="1021.13" r="36" fill="#e69f00" fill-rule="evenodd" fill-opacity="1" stroke="#000000" stroke-opacity="1" stroke-width="3.2"/>
<polyline clip-path="url(#clip782)" style="stroke:#000000; stroke-linecap:round; stroke-linejoin:round; stroke-width:8; stroke-opacity:1; fill:none" points="1294.75,1024.74 1326.95,1021.13 "/>
<polyline clip-path="url(#clip782)" style="stroke:#000000; stroke-linecap:round; stroke-linejoin:round; stroke-width:8; stroke-opacity:1; fill:none" points="1295.47,1009.57 1326.95,1021.13 1298.81,1039.38 "/>
<polyline clip-path="url(#clip782)" style="stroke:#000000; stroke-linecap:round; stroke-linejoin:round; stroke-width:8; stroke-opacity:1; fill:none" points="1326.95,1021.13 1294.75,1024.74 "/>
<circle clip-path="url(#clip782)" cx="1903.61" cy="1207.97" r="36" fill="#00a1ff" fill-rule="evenodd" fill-opacity="1" stroke="#000000" stroke-opacity="1" stroke-width="3.2"/>
<circle clip-path="url(#clip782)" cx="1812.04" cy="1203.19" r="36" fill="#e69f00" fill-rule="evenodd" fill-opacity="1" stroke="#000000" stroke-opacity="1" stroke-width="3.2"/>
<polyline clip-path="url(#clip782)" style="stroke:#000000; stroke-linecap:round; stroke-linejoin:round; stroke-width:8; stroke-opacity:1; fill:none" points="1903.61,1207.97 1812.04,1203.19 "/>
<polyline clip-path="url(#clip782)" style="stroke:#000000; stroke-linecap:round; stroke-linejoin:round; stroke-width:8; stroke-opacity:1; fill:none" points="1841.22,1219.73 1812.04,1203.19 1842.78,1189.77 "/>
<polyline clip-path="url(#clip782)" style="stroke:#000000; stroke-linecap:round; stroke-linejoin:round; stroke-width:8; stroke-opacity:1; fill:none" points="1812.04,1203.19 1903.61,1207.97 "/>
<circle clip-path="url(#clip782)" cx="990.314" cy="1024.74" r="36" fill="#00a1ff" fill-rule="evenodd" fill-opacity="1" stroke="#000000" stroke-opacity="1" stroke-width="3.2"/>
<circle clip-path="url(#clip782)" cx="982.013" cy="1024.74" r="36" fill="#e69f00" fill-rule="evenodd" fill-opacity="1" stroke="#000000" stroke-opacity="1" stroke-width="3.2"/>
<polyline clip-path="url(#clip782)" style="stroke:#000000; stroke-linecap:round; stroke-linejoin:round; stroke-width:8; stroke-opacity:1; fill:none" points="990.314,1024.74 982.013,1024.74 "/>
<polyline clip-path="url(#clip782)" style="stroke:#000000; stroke-linecap:round; stroke-linejoin:round; stroke-width:8; stroke-opacity:1; fill:none" points="1012.01,1039.74 982.013,1024.74 1012.01,1009.74 "/>
<polyline clip-path="url(#clip782)" style="stroke:#000000; stroke-linecap:round; stroke-linejoin:round; stroke-width:8; stroke-opacity:1; fill:none" points="982.013,1024.74 990.314,1024.74 "/>
<circle clip-path="url(#clip782)" cx="787.36" cy="85.7211" r="36" fill="#00a1ff" fill-rule="evenodd" fill-opacity="1" stroke="#000000" stroke-opacity="1" stroke-width="3.2"/>
<circle clip-path="url(#clip782)" cx="890.173" cy="85.7211" r="36" fill="#e69f00" fill-rule="evenodd" fill-opacity="1" stroke="#000000" stroke-opacity="1" stroke-width="3.2"/>
<polyline clip-path="url(#clip782)" style="stroke:#000000; stroke-linecap:round; stroke-linejoin:round; stroke-width:8; stroke-opacity:1; fill:none" points="787.36,85.7211 890.173,85.7211 "/>
<polyline clip-path="url(#clip782)" style="stroke:#000000; stroke-linecap:round; stroke-linejoin:round; stroke-width:8; stroke-opacity:1; fill:none" points="860.173,70.7211 890.173,85.7211 860.173,100.721 "/>
<polyline clip-path="url(#clip782)" style="stroke:#000000; stroke-linecap:round; stroke-linejoin:round; stroke-width:8; stroke-opacity:1; fill:none" points="890.173,85.7211 787.36,85.7211 "/>
<circle clip-path="url(#clip782)" cx="873.21" cy="177.333" r="36" fill="#00a1ff" fill-rule="evenodd" fill-opacity="1" stroke="#000000" stroke-opacity="1" stroke-width="3.2"/>
<circle clip-path="url(#clip782)" cx="965.851" cy="175.393" r="36" fill="#e69f00" fill-rule="evenodd" fill-opacity="1" stroke="#000000" stroke-opacity="1" stroke-width="3.2"/>
<polyline clip-path="url(#clip782)" style="stroke:#000000; stroke-linecap:round; stroke-linejoin:round; stroke-width:8; stroke-opacity:1; fill:none" points="873.21,177.333 965.851,175.393 "/>
<polyline clip-path="url(#clip782)" style="stroke:#000000; stroke-linecap:round; stroke-linejoin:round; stroke-width:8; stroke-opacity:1; fill:none" points="935.544,161.024 965.851,175.393 936.172,191.018 "/>
<polyline clip-path="url(#clip782)" style="stroke:#000000; stroke-linecap:round; stroke-linejoin:round; stroke-width:8; stroke-opacity:1; fill:none" points="965.851,175.393 873.21,177.333 "/>
<circle clip-path="url(#clip782)" cx="1362.33" cy="681.198" r="36" fill="#00a1ff" fill-rule="evenodd" fill-opacity="1" stroke="#000000" stroke-opacity="1" stroke-width="3.2"/>
<circle clip-path="url(#clip782)" cx="1724.84" cy="681.198" r="36" fill="#e69f00" fill-rule="evenodd" fill-opacity="1" stroke="#000000" stroke-opacity="1" stroke-width="3.2"/>
<polyline clip-path="url(#clip782)" style="stroke:#000000; stroke-linecap:round; stroke-linejoin:round; stroke-width:8; stroke-opacity:1; fill:none" points="1362.33,681.198 1724.84,681.198 "/>
<polyline clip-path="url(#clip782)" style="stroke:#000000; stroke-linecap:round; stroke-linejoin:round; stroke-width:8; stroke-opacity:1; fill:none" points="1694.84,666.198 1724.84,681.198 1694.84,696.198 "/>
<polyline clip-path="url(#clip782)" style="stroke:#000000; stroke-linecap:round; stroke-linejoin:round; stroke-width:8; stroke-opacity:1; fill:none" points="1724.84,681.198 1362.33,681.198 "/>
<circle clip-path="url(#clip782)" cx="279.974" cy="1368.29" r="36" fill="#00a1ff" fill-rule="evenodd" fill-opacity="1" stroke="#000000" stroke-opacity="1" stroke-width="3.2"/>
<circle clip-path="url(#clip782)" cx="265.396" cy="1368.29" r="36" fill="#e69f00" fill-rule="evenodd" fill-opacity="1" stroke="#000000" stroke-opacity="1" stroke-width="3.2"/>
<polyline clip-path="url(#clip782)" style="stroke:#000000; stroke-linecap:round; stroke-linejoin:round; stroke-width:8; stroke-opacity:1; fill:none" points="279.974,1368.29 265.396,1368.29 "/>
<polyline clip-path="url(#clip782)" style="stroke:#000000; stroke-linecap:round; stroke-linejoin:round; stroke-width:8; stroke-opacity:1; fill:none" points="295.396,1383.29 265.396,1368.29 295.396,1353.29 "/>
<polyline clip-path="url(#clip782)" style="stroke:#000000; stroke-linecap:round; stroke-linejoin:round; stroke-width:8; stroke-opacity:1; fill:none" points="265.396,1368.29 279.974,1368.29 "/>
<circle clip-path="url(#clip782)" cx="788.578" cy="1253.77" r="36" fill="#00a1ff" fill-rule="evenodd" fill-opacity="1" stroke="#000000" stroke-opacity="1" stroke-width="3.2"/>
<circle clip-path="url(#clip782)" cx="835.467" cy="1253.77" r="36" fill="#e69f00" fill-rule="evenodd" fill-opacity="1" stroke="#000000" stroke-opacity="1" stroke-width="3.2"/>
<polyline clip-path="url(#clip782)" style="stroke:#000000; stroke-linecap:round; stroke-linejoin:round; stroke-width:8; stroke-opacity:1; fill:none" points="788.578,1253.77 835.467,1253.77 "/>
<polyline clip-path="url(#clip782)" style="stroke:#000000; stroke-linecap:round; stroke-linejoin:round; stroke-width:8; stroke-opacity:1; fill:none" points="805.467,1238.77 835.467,1253.77 805.467,1268.77 "/>
<polyline clip-path="url(#clip782)" style="stroke:#000000; stroke-linecap:round; stroke-linejoin:round; stroke-width:8; stroke-opacity:1; fill:none" points="835.467,1253.77 788.578,1253.77 "/>
<path clip-path="url(#clip780)" d="M1393.31 1361.45 L1894.87 1361.45 L1894.87 1205.93 L1393.31 1205.93  Z" fill="#ffffff" fill-rule="evenodd" fill-opacity="1"/>
<polyline clip-path="url(#clip780)" style="stroke:#000000; stroke-linecap:round; stroke-linejoin:round; stroke-width:4; stroke-opacity:1; fill:none" points="1393.31,1361.45 1894.87,1361.45 1894.87,1205.93 1393.31,1205.93 1393.31,1361.45 "/>
<circle clip-path="url(#clip780)" cx="1470.48" cy="1257.77" r="21.9429" fill="#00a1ff" fill-rule="evenodd" fill-opacity="1" stroke="#000000" stroke-opacity="1" stroke-width="1.95048"/>
<path clip-path="url(#clip780)" d="M1547.66 1240.49 L1552.34 1240.49 L1552.34 1271.11 L1569.17 1271.11 L1569.17 1275.05 L1547.66 1275.05 L1547.66 1240.49 Z" fill="#000000" fill-rule="nonzero" fill-opacity="1" /><path clip-path="url(#clip780)" d="M1583.1 1252.11 Q1579.68 1252.11 1577.69 1254.79 Q1575.7 1257.45 1575.7 1262.11 Q1575.7 1266.76 1577.66 1269.44 Q1579.65 1272.11 1583.1 1272.11 Q1586.51 1272.11 1588.5 1269.42 Q1590.49 1266.74 1590.49 1262.11 Q1590.49 1257.5 1588.5 1254.82 Q1586.51 1252.11 1583.1 1252.11 M1583.1 1248.5 Q1588.66 1248.5 1591.83 1252.11 Q1595 1255.72 1595 1262.11 Q1595 1268.47 1591.83 1272.11 Q1588.66 1275.72 1583.1 1275.72 Q1577.52 1275.72 1574.35 1272.11 Q1571.2 1268.47 1571.2 1262.11 Q1571.2 1255.72 1574.35 1252.11 Q1577.52 1248.5 1583.1 1248.5 Z" fill="#000000" fill-rule="nonzero" fill-opacity="1" /><path clip-path="url(#clip780)" d="M1613.84 1262.01 Q1608.68 1262.01 1606.69 1263.19 Q1604.7 1264.38 1604.7 1267.22 Q1604.7 1269.49 1606.18 1270.83 Q1607.69 1272.15 1610.26 1272.15 Q1613.8 1272.15 1615.93 1269.65 Q1618.08 1267.13 1618.08 1262.96 L1618.08 1262.01 L1613.84 1262.01 M1622.34 1260.25 L1622.34 1275.05 L1618.08 1275.05 L1618.08 1271.11 Q1616.62 1273.47 1614.45 1274.61 Q1612.27 1275.72 1609.12 1275.72 Q1605.14 1275.72 1602.78 1273.5 Q1600.44 1271.25 1600.44 1267.5 Q1600.44 1263.13 1603.36 1260.9 Q1606.3 1258.68 1612.11 1258.68 L1618.08 1258.68 L1618.08 1258.26 Q1618.08 1255.32 1616.13 1253.73 Q1614.21 1252.11 1610.72 1252.11 Q1608.5 1252.11 1606.39 1252.64 Q1604.28 1253.17 1602.34 1254.24 L1602.34 1250.3 Q1604.68 1249.4 1606.88 1248.96 Q1609.07 1248.5 1611.16 1248.5 Q1616.78 1248.5 1619.56 1251.41 Q1622.34 1254.33 1622.34 1260.25 Z" fill="#000000" fill-rule="nonzero" fill-opacity="1" /><path clip-path="url(#clip780)" d="M1652.66 1259.4 L1652.66 1275.05 L1648.4 1275.05 L1648.4 1259.54 Q1648.4 1255.86 1646.97 1254.03 Q1645.53 1252.2 1642.66 1252.2 Q1639.21 1252.2 1637.22 1254.4 Q1635.23 1256.6 1635.23 1260.39 L1635.23 1275.05 L1630.95 1275.05 L1630.95 1249.12 L1635.23 1249.12 L1635.23 1253.15 Q1636.76 1250.81 1638.82 1249.65 Q1640.9 1248.5 1643.61 1248.5 Q1648.08 1248.5 1650.37 1251.27 Q1652.66 1254.03 1652.66 1259.4 Z" fill="#000000" fill-rule="nonzero" fill-opacity="1" /><path clip-path="url(#clip780)" d="M1693.29 1253.06 L1693.29 1239.03 L1697.55 1239.03 L1697.55 1275.05 L1693.29 1275.05 L1693.29 1271.16 Q1691.94 1273.47 1689.88 1274.61 Q1687.85 1275.72 1684.98 1275.72 Q1680.28 1275.72 1677.32 1271.97 Q1674.38 1268.22 1674.38 1262.11 Q1674.38 1256 1677.32 1252.25 Q1680.28 1248.5 1684.98 1248.5 Q1687.85 1248.5 1689.88 1249.63 Q1691.94 1250.74 1693.29 1253.06 M1678.77 1262.11 Q1678.77 1266.81 1680.69 1269.49 Q1682.64 1272.15 1686.02 1272.15 Q1689.4 1272.15 1691.34 1269.49 Q1693.29 1266.81 1693.29 1262.11 Q1693.29 1257.41 1691.34 1254.75 Q1689.4 1252.06 1686.02 1252.06 Q1682.64 1252.06 1680.69 1254.75 Q1678.77 1257.41 1678.77 1262.11 Z" fill="#000000" fill-rule="nonzero" fill-opacity="1" /><path clip-path="url(#clip780)" d="M1728.5 1261.02 L1728.5 1263.1 L1708.91 1263.1 Q1709.19 1267.5 1711.55 1269.82 Q1713.94 1272.11 1718.17 1272.11 Q1720.62 1272.11 1722.92 1271.5 Q1725.23 1270.9 1727.5 1269.7 L1727.5 1273.73 Q1725.21 1274.7 1722.8 1275.21 Q1720.39 1275.72 1717.92 1275.72 Q1711.71 1275.72 1708.08 1272.11 Q1704.47 1268.5 1704.47 1262.34 Q1704.47 1255.97 1707.89 1252.25 Q1711.34 1248.5 1717.18 1248.5 Q1722.41 1248.5 1725.44 1251.88 Q1728.5 1255.23 1728.5 1261.02 M1724.24 1259.77 Q1724.19 1256.27 1722.27 1254.19 Q1720.37 1252.11 1717.22 1252.11 Q1713.66 1252.11 1711.5 1254.12 Q1709.38 1256.13 1709.05 1259.79 L1724.24 1259.77 Z" fill="#000000" fill-rule="nonzero" fill-opacity="1" /><path clip-path="url(#clip780)" d="M1757.04 1259.4 L1757.04 1275.05 L1752.78 1275.05 L1752.78 1259.54 Q1752.78 1255.86 1751.34 1254.03 Q1749.91 1252.2 1747.04 1252.2 Q1743.59 1252.2 1741.6 1254.4 Q1739.61 1256.6 1739.61 1260.39 L1739.61 1275.05 L1735.32 1275.05 L1735.32 1249.12 L1739.61 1249.12 L1739.61 1253.15 Q1741.13 1250.81 1743.19 1249.65 Q1745.28 1248.5 1747.99 1248.5 Q1752.45 1248.5 1754.75 1251.27 Q1757.04 1254.03 1757.04 1259.4 Z" fill="#000000" fill-rule="nonzero" fill-opacity="1" /><path clip-path="url(#clip780)" d="M1765.53 1249.12 L1769.79 1249.12 L1769.79 1275.05 L1765.53 1275.05 L1765.53 1249.12 M1765.53 1239.03 L1769.79 1239.03 L1769.79 1244.42 L1765.53 1244.42 L1765.53 1239.03 Z" fill="#000000" fill-rule="nonzero" fill-opacity="1" /><path clip-path="url(#clip780)" d="M1800.88 1261.02 L1800.88 1263.1 L1781.3 1263.1 Q1781.57 1267.5 1783.93 1269.82 Q1786.32 1272.11 1790.56 1272.11 Q1793.01 1272.11 1795.3 1271.5 Q1797.62 1270.9 1799.88 1269.7 L1799.88 1273.73 Q1797.59 1274.7 1795.18 1275.21 Q1792.78 1275.72 1790.3 1275.72 Q1784.1 1275.72 1780.46 1272.11 Q1776.85 1268.5 1776.85 1262.34 Q1776.85 1255.97 1780.28 1252.25 Q1783.73 1248.5 1789.56 1248.5 Q1794.79 1248.5 1797.82 1251.88 Q1800.88 1255.23 1800.88 1261.02 M1796.62 1259.77 Q1796.57 1256.27 1794.65 1254.19 Q1792.75 1252.11 1789.61 1252.11 Q1786.04 1252.11 1783.89 1254.12 Q1781.76 1256.13 1781.43 1259.79 L1796.62 1259.77 Z" fill="#000000" fill-rule="nonzero" fill-opacity="1" /><path clip-path="url(#clip780)" d="M1824.93 1253.06 L1824.93 1239.03 L1829.19 1239.03 L1829.19 1275.05 L1824.93 1275.05 L1824.93 1271.16 Q1823.59 1273.47 1821.53 1274.61 Q1819.49 1275.72 1816.62 1275.72 Q1811.92 1275.72 1808.96 1271.97 Q1806.02 1268.22 1806.02 1262.11 Q1806.02 1256 1808.96 1252.25 Q1811.92 1248.5 1816.62 1248.5 Q1819.49 1248.5 1821.53 1249.63 Q1823.59 1250.74 1824.93 1253.06 M1810.42 1262.11 Q1810.42 1266.81 1812.34 1269.49 Q1814.28 1272.15 1817.66 1272.15 Q1821.04 1272.15 1822.99 1269.49 Q1824.93 1266.81 1824.93 1262.11 Q1824.93 1257.41 1822.99 1254.75 Q1821.04 1252.06 1817.66 1252.06 Q1814.28 1252.06 1812.34 1254.75 Q1810.42 1257.41 1810.42 1262.11 Z" fill="#000000" fill-rule="nonzero" fill-opacity="1" /><circle clip-path="url(#clip780)" cx="1470.48" cy="1309.61" r="21.9429" fill="#e69f00" fill-rule="evenodd" fill-opacity="1" stroke="#000000" stroke-opacity="1" stroke-width="1.95048"/>
<path clip-path="url(#clip780)" d="M1547.66 1292.33 L1552.34 1292.33 L1552.34 1322.95 L1569.17 1322.95 L1569.17 1326.89 L1547.66 1326.89 L1547.66 1292.33 Z" fill="#000000" fill-rule="nonzero" fill-opacity="1" /><path clip-path="url(#clip780)" d="M1583.1 1303.95 Q1579.68 1303.95 1577.69 1306.63 Q1575.7 1309.29 1575.7 1313.95 Q1575.7 1318.6 1577.66 1321.28 Q1579.65 1323.95 1583.1 1323.95 Q1586.51 1323.95 1588.5 1321.26 Q1590.49 1318.58 1590.49 1313.95 Q1590.49 1309.34 1588.5 1306.66 Q1586.51 1303.95 1583.1 1303.95 M1583.1 1300.34 Q1588.66 1300.34 1591.83 1303.95 Q1595 1307.56 1595 1313.95 Q1595 1320.31 1591.83 1323.95 Q1588.66 1327.56 1583.1 1327.56 Q1577.52 1327.56 1574.35 1323.95 Q1571.2 1320.31 1571.2 1313.95 Q1571.2 1307.56 1574.35 1303.95 Q1577.52 1300.34 1583.1 1300.34 Z" fill="#000000" fill-rule="nonzero" fill-opacity="1" /><path clip-path="url(#clip780)" d="M1613.84 1313.85 Q1608.68 1313.85 1606.69 1315.03 Q1604.7 1316.22 1604.7 1319.06 Q1604.7 1321.33 1606.18 1322.67 Q1607.69 1323.99 1610.26 1323.99 Q1613.8 1323.99 1615.93 1321.49 Q1618.08 1318.97 1618.08 1314.8 L1618.08 1313.85 L1613.84 1313.85 M1622.34 1312.09 L1622.34 1326.89 L1618.08 1326.89 L1618.08 1322.95 Q1616.62 1325.31 1614.45 1326.45 Q1612.27 1327.56 1609.12 1327.56 Q1605.14 1327.56 1602.78 1325.34 Q1600.44 1323.09 1600.44 1319.34 Q1600.44 1314.97 1603.36 1312.74 Q1606.3 1310.52 1612.11 1310.52 L1618.08 1310.52 L1618.08 1310.1 Q1618.08 1307.16 1616.13 1305.57 Q1614.21 1303.95 1610.72 1303.95 Q1608.5 1303.95 1606.39 1304.48 Q1604.28 1305.01 1602.34 1306.08 L1602.34 1302.14 Q1604.68 1301.24 1606.88 1300.8 Q1609.07 1300.34 1611.16 1300.34 Q1616.78 1300.34 1619.56 1303.25 Q1622.34 1306.17 1622.34 1312.09 Z" fill="#000000" fill-rule="nonzero" fill-opacity="1" /><path clip-path="url(#clip780)" d="M1652.66 1311.24 L1652.66 1326.89 L1648.4 1326.89 L1648.4 1311.38 Q1648.4 1307.7 1646.97 1305.87 Q1645.53 1304.04 1642.66 1304.04 Q1639.21 1304.04 1637.22 1306.24 Q1635.23 1308.44 1635.23 1312.23 L1635.23 1326.89 L1630.95 1326.89 L1630.95 1300.96 L1635.23 1300.96 L1635.23 1304.99 Q1636.76 1302.65 1638.82 1301.49 Q1640.9 1300.34 1643.61 1300.34 Q1648.08 1300.34 1650.37 1303.11 Q1652.66 1305.87 1652.66 1311.24 Z" fill="#000000" fill-rule="nonzero" fill-opacity="1" /><path clip-path="url(#clip780)" d="M1680.35 1323 L1680.35 1336.75 L1676.07 1336.75 L1676.07 1300.96 L1680.35 1300.96 L1680.35 1304.9 Q1681.69 1302.58 1683.73 1301.47 Q1685.79 1300.34 1688.63 1300.34 Q1693.36 1300.34 1696.3 1304.09 Q1699.26 1307.84 1699.26 1313.95 Q1699.26 1320.06 1696.3 1323.81 Q1693.36 1327.56 1688.63 1327.56 Q1685.79 1327.56 1683.73 1326.45 Q1681.69 1325.31 1680.35 1323 M1694.84 1313.95 Q1694.84 1309.25 1692.89 1306.59 Q1690.97 1303.9 1687.59 1303.9 Q1684.21 1303.9 1682.27 1306.59 Q1680.35 1309.25 1680.35 1313.95 Q1680.35 1318.65 1682.27 1321.33 Q1684.21 1323.99 1687.59 1323.99 Q1690.97 1323.99 1692.89 1321.33 Q1694.84 1318.65 1694.84 1313.95 Z" fill="#000000" fill-rule="nonzero" fill-opacity="1" /><path clip-path="url(#clip780)" d="M1721.34 1304.94 Q1720.62 1304.53 1719.77 1304.34 Q1718.94 1304.13 1717.92 1304.13 Q1714.31 1304.13 1712.36 1306.49 Q1710.44 1308.83 1710.44 1313.23 L1710.44 1326.89 L1706.16 1326.89 L1706.16 1300.96 L1710.44 1300.96 L1710.44 1304.99 Q1711.78 1302.63 1713.94 1301.49 Q1716.09 1300.34 1719.17 1300.34 Q1719.61 1300.34 1720.14 1300.41 Q1720.67 1300.45 1721.32 1300.57 L1721.34 1304.94 Z" fill="#000000" fill-rule="nonzero" fill-opacity="1" /><path clip-path="url(#clip780)" d="M1734.81 1303.95 Q1731.39 1303.95 1729.4 1306.63 Q1727.41 1309.29 1727.41 1313.95 Q1727.41 1318.6 1729.37 1321.28 Q1731.37 1323.95 1734.81 1323.95 Q1738.22 1323.95 1740.21 1321.26 Q1742.2 1318.58 1742.2 1313.95 Q1742.2 1309.34 1740.21 1306.66 Q1738.22 1303.95 1734.81 1303.95 M1734.81 1300.34 Q1740.37 1300.34 1743.54 1303.95 Q1746.71 1307.56 1746.71 1313.95 Q1746.71 1320.31 1743.54 1323.95 Q1740.37 1327.56 1734.81 1327.56 Q1729.24 1327.56 1726.06 1323.95 Q1722.92 1320.31 1722.92 1313.95 Q1722.92 1307.56 1726.06 1303.95 Q1729.24 1300.34 1734.81 1300.34 Z" fill="#000000" fill-rule="nonzero" fill-opacity="1" /><path clip-path="url(#clip780)" d="M1750.72 1300.96 L1755.23 1300.96 L1763.33 1322.72 L1771.43 1300.96 L1775.95 1300.96 L1766.23 1326.89 L1760.44 1326.89 L1750.72 1300.96 Z" fill="#000000" fill-rule="nonzero" fill-opacity="1" /><path clip-path="url(#clip780)" d="M1781.83 1300.96 L1786.09 1300.96 L1786.09 1326.89 L1781.83 1326.89 L1781.83 1300.96 M1781.83 1290.87 L1786.09 1290.87 L1786.09 1296.26 L1781.83 1296.26 L1781.83 1290.87 Z" fill="#000000" fill-rule="nonzero" fill-opacity="1" /><path clip-path="url(#clip780)" d="M1812.06 1304.9 L1812.06 1290.87 L1816.32 1290.87 L1816.32 1326.89 L1812.06 1326.89 L1812.06 1323 Q1810.72 1325.31 1808.66 1326.45 Q1806.62 1327.56 1803.75 1327.56 Q1799.05 1327.56 1796.09 1323.81 Q1793.15 1320.06 1793.15 1313.95 Q1793.15 1307.84 1796.09 1304.09 Q1799.05 1300.34 1803.75 1300.34 Q1806.62 1300.34 1808.66 1301.47 Q1810.72 1302.58 1812.06 1304.9 M1797.55 1313.95 Q1797.55 1318.65 1799.47 1321.33 Q1801.41 1323.99 1804.79 1323.99 Q1808.17 1323.99 1810.12 1321.33 Q1812.06 1318.65 1812.06 1313.95 Q1812.06 1309.25 1810.12 1306.59 Q1808.17 1303.9 1804.79 1303.9 Q1801.41 1303.9 1799.47 1306.59 Q1797.55 1309.25 1797.55 1313.95 Z" fill="#000000" fill-rule="nonzero" fill-opacity="1" /><path clip-path="url(#clip780)" d="M1847.27 1312.86 L1847.27 1314.94 L1827.68 1314.94 Q1827.96 1319.34 1830.32 1321.66 Q1832.71 1323.95 1836.94 1323.95 Q1839.4 1323.95 1841.69 1323.34 Q1844 1322.74 1846.27 1321.54 L1846.27 1325.57 Q1843.98 1326.54 1841.57 1327.05 Q1839.17 1327.56 1836.69 1327.56 Q1830.49 1327.56 1826.85 1323.95 Q1823.24 1320.34 1823.24 1314.18 Q1823.24 1307.81 1826.67 1304.09 Q1830.12 1300.34 1835.95 1300.34 Q1841.18 1300.34 1844.21 1303.72 Q1847.27 1307.07 1847.27 1312.86 M1843.01 1311.61 Q1842.96 1308.11 1841.04 1306.03 Q1839.14 1303.95 1835.99 1303.95 Q1832.43 1303.95 1830.28 1305.96 Q1828.15 1307.97 1827.82 1311.63 L1843.01 1311.61 Z" fill="#000000" fill-rule="nonzero" fill-opacity="1" /><path clip-path="url(#clip780)" d="M1871.32 1304.9 L1871.32 1290.87 L1875.58 1290.87 L1875.58 1326.89 L1871.32 1326.89 L1871.32 1323 Q1869.98 1325.31 1867.92 1326.45 Q1865.88 1327.56 1863.01 1327.56 Q1858.31 1327.56 1855.35 1323.81 Q1852.41 1320.06 1852.41 1313.95 Q1852.41 1307.84 1855.35 1304.09 Q1858.31 1300.34 1863.01 1300.34 Q1865.88 1300.34 1867.92 1301.47 Q1869.98 1302.58 1871.32 1304.9 M1856.8 1313.95 Q1856.8 1318.65 1858.73 1321.33 Q1860.67 1323.99 1864.05 1323.99 Q1867.43 1323.99 1869.37 1321.33 Q1871.32 1318.65 1871.32 1313.95 Q1871.32 1309.25 1869.37 1306.59 Q1867.43 1303.9 1864.05 1303.9 Q1860.67 1303.9 1858.73 1306.59 Q1856.8 1309.25 1856.8 1313.95 Z" fill="#000000" fill-rule="nonzero" fill-opacity="1" /></svg>
