<?xml version="1.0" encoding="utf-8"?>
<svg xmlns="http://www.w3.org/2000/svg" xmlns:xlink="http://www.w3.org/1999/xlink" width="500" height="400" viewBox="0 0 2000 1600">
<defs>
  <clipPath id="clip250">
    <rect x="0" y="0" width="2000" height="1600"/>
  </clipPath>
</defs>
<path clip-path="url(#clip250)" d="M0 1600 L2000 1600 L2000 -8.88178e-14 L0 -8.88178e-14  Z" fill="#ffffff" fill-rule="evenodd" fill-opacity="1"/>
<defs>
  <clipPath id="clip251">
    <rect x="400" y="0" width="1401" height="1401"/>
  </clipPath>
</defs>
<path clip-path="url(#clip250)" d="M262.708 1406.76 L1952.76 1406.76 L1952.76 47.2441 L262.708 47.2441  Z" fill="#ffffff" fill-rule="evenodd" fill-opacity="1"/>
<defs>
  <clipPath id="clip252">
    <rect x="262" y="47" width="1691" height="1361"/>
  </clipPath>
</defs>
<polyline clip-path="url(#clip252)" style="stroke:#000000; stroke-linecap:round; stroke-linejoin:round; stroke-width:2; stroke-opacity:0.1; fill:none" points="361.909,1406.76 361.909,47.2441 "/>
<polyline clip-path="url(#clip252)" style="stroke:#000000; stroke-linecap:round; stroke-linejoin:round; stroke-width:2; stroke-opacity:0.1; fill:none" points="696.257,1406.76 696.257,47.2441 "/>
<polyline clip-path="url(#clip252)" style="stroke:#000000; stroke-linecap:round; stroke-linejoin:round; stroke-width:2; stroke-opacity:0.1; fill:none" points="1030.6,1406.76 1030.6,47.2441 "/>
<polyline clip-path="url(#clip252)" style="stroke:#000000; stroke-linecap:round; stroke-linejoin:round; stroke-width:2; stroke-opacity:0.1; fill:none" points="1364.95,1406.76 1364.95,47.2441 "/>
<polyline clip-path="url(#clip252)" style="stroke:#000000; stroke-linecap:round; stroke-linejoin:round; stroke-width:2; stroke-opacity:0.1; fill:none" points="1699.3,1406.76 1699.3,47.2441 "/>
<polyline clip-path="url(#clip252)" style="stroke:#000000; stroke-linecap:round; stroke-linejoin:round; stroke-width:2; stroke-opacity:0.1; fill:none" points="262.708,1307.62 1952.76,1307.62 "/>
<polyline clip-path="url(#clip252)" style="stroke:#000000; stroke-linecap:round; stroke-linejoin:round; stroke-width:2; stroke-opacity:0.1; fill:none" points="262.708,1059.3 1952.76,1059.3 "/>
<polyline clip-path="url(#clip252)" style="stroke:#000000; stroke-linecap:round; stroke-linejoin:round; stroke-width:2; stroke-opacity:0.1; fill:none" points="262.708,810.978 1952.76,810.978 "/>
<polyline clip-path="url(#clip252)" style="stroke:#000000; stroke-linecap:round; stroke-linejoin:round; stroke-width:2; stroke-opacity:0.1; fill:none" points="262.708,562.656 1952.76,562.656 "/>
<polyline clip-path="url(#clip252)" style="stroke:#000000; stroke-linecap:round; stroke-linejoin:round; stroke-width:2; stroke-opacity:0.1; fill:none" points="262.708,314.334 1952.76,314.334 "/>
<polyline clip-path="url(#clip252)" style="stroke:#000000; stroke-linecap:round; stroke-linejoin:round; stroke-width:2; stroke-opacity:0.1; fill:none" points="262.708,66.0122 1952.76,66.0122 "/>
<polyline clip-path="url(#clip250)" style="stroke:#000000; stroke-linecap:round; stroke-linejoin:round; stroke-width:4; stroke-opacity:1; fill:none" points="262.708,1406.76 1952.76,1406.76 "/>
<polyline clip-path="url(#clip250)" style="stroke:#000000; stroke-linecap:round; stroke-linejoin:round; stroke-width:4; stroke-opacity:1; fill:none" points="361.909,1406.76 361.909,1387.87 "/>
<polyline clip-path="url(#clip250)" style="stroke:#000000; stroke-linecap:round; stroke-linejoin:round; stroke-width:4; stroke-opacity:1; fill:none" points="696.257,1406.76 696.257,1387.87 "/>
<polyline clip-path="url(#clip250)" style="stroke:#000000; stroke-linecap:round; stroke-linejoin:round; stroke-width:4; stroke-opacity:1; fill:none" points="1030.6,1406.76 1030.6,1387.87 "/>
<polyline clip-path="url(#clip250)" style="stroke:#000000; stroke-linecap:round; stroke-linejoin:round; stroke-width:4; stroke-opacity:1; fill:none" points="1364.95,1406.76 1364.95,1387.87 "/>
<polyline clip-path="url(#clip250)" style="stroke:#000000; stroke-linecap:round; stroke-linejoin:round; stroke-width:4; stroke-opacity:1; fill:none" points="1699.3,1406.76 1699.3,1387.87 "/>
<path clip-path="url(#clip250)" d="M308.356 1449.14 L338.032 1449.14 L338.032 1453.07 L308.356 1453.07 L308.356 1449.14 Z" fill="#000000" fill-rule="nonzero" fill-opacity="1" /><path clip-path="url(#clip250)" d="M358.124 1434.48 Q354.513 1434.48 352.684 1438.05 Q350.879 1441.59 350.879 1448.72 Q350.879 1455.83 352.684 1459.39 Q354.513 1462.93 358.124 1462.93 Q361.758 1462.93 363.564 1459.39 Q365.393 1455.83 365.393 1448.72 Q365.393 1441.59 363.564 1438.05 Q361.758 1434.48 358.124 1434.48 M358.124 1430.78 Q363.934 1430.78 366.99 1435.39 Q370.069 1439.97 370.069 1448.72 Q370.069 1457.45 366.99 1462.05 Q363.934 1466.64 358.124 1466.64 Q352.314 1466.64 349.235 1462.05 Q346.18 1457.45 346.18 1448.72 Q346.18 1439.97 349.235 1435.39 Q352.314 1430.78 358.124 1430.78 Z" fill="#000000" fill-rule="nonzero" fill-opacity="1" /><path clip-path="url(#clip250)" d="M378.286 1460.08 L383.17 1460.08 L383.17 1465.96 L378.286 1465.96 L378.286 1460.08 Z" fill="#000000" fill-rule="nonzero" fill-opacity="1" /><path clip-path="url(#clip250)" d="M403.934 1446.82 Q400.786 1446.82 398.934 1448.97 Q397.105 1451.13 397.105 1454.88 Q397.105 1458.6 398.934 1460.78 Q400.786 1462.93 403.934 1462.93 Q407.082 1462.93 408.911 1460.78 Q410.763 1458.6 410.763 1454.88 Q410.763 1451.13 408.911 1448.97 Q407.082 1446.82 403.934 1446.82 M413.217 1432.17 L413.217 1436.43 Q411.457 1435.59 409.652 1435.15 Q407.869 1434.71 406.11 1434.71 Q401.48 1434.71 399.027 1437.84 Q396.596 1440.96 396.249 1447.28 Q397.615 1445.27 399.675 1444.2 Q401.735 1443.12 404.212 1443.12 Q409.42 1443.12 412.429 1446.29 Q415.462 1449.44 415.462 1454.88 Q415.462 1460.2 412.314 1463.42 Q409.166 1466.64 403.934 1466.64 Q397.939 1466.64 394.768 1462.05 Q391.596 1457.45 391.596 1448.72 Q391.596 1440.52 395.485 1435.66 Q399.374 1430.78 405.925 1430.78 Q407.684 1430.78 409.467 1431.13 Q411.272 1431.47 413.217 1432.17 Z" fill="#000000" fill-rule="nonzero" fill-opacity="1" /><path clip-path="url(#clip250)" d="M642.542 1449.14 L672.218 1449.14 L672.218 1453.07 L642.542 1453.07 L642.542 1449.14 Z" fill="#000000" fill-rule="nonzero" fill-opacity="1" /><path clip-path="url(#clip250)" d="M692.31 1434.48 Q688.699 1434.48 686.87 1438.05 Q685.065 1441.59 685.065 1448.72 Q685.065 1455.83 686.87 1459.39 Q688.699 1462.93 692.31 1462.93 Q695.944 1462.93 697.75 1459.39 Q699.579 1455.83 699.579 1448.72 Q699.579 1441.59 697.75 1438.05 Q695.944 1434.48 692.31 1434.48 M692.31 1430.78 Q698.12 1430.78 701.176 1435.39 Q704.255 1439.97 704.255 1448.72 Q704.255 1457.45 701.176 1462.05 Q698.12 1466.64 692.31 1466.64 Q686.5 1466.64 683.421 1462.05 Q680.366 1457.45 680.366 1448.72 Q680.366 1439.97 683.421 1435.39 Q686.5 1430.78 692.31 1430.78 Z" fill="#000000" fill-rule="nonzero" fill-opacity="1" /><path clip-path="url(#clip250)" d="M712.472 1460.08 L717.356 1460.08 L717.356 1465.96 L712.472 1465.96 L712.472 1460.08 Z" fill="#000000" fill-rule="nonzero" fill-opacity="1" /><path clip-path="url(#clip250)" d="M740.389 1435.48 L728.583 1453.93 L740.389 1453.93 L740.389 1435.48 M739.162 1431.4 L745.041 1431.4 L745.041 1453.93 L749.972 1453.93 L749.972 1457.82 L745.041 1457.82 L745.041 1465.96 L740.389 1465.96 L740.389 1457.82 L724.787 1457.82 L724.787 1453.3 L739.162 1431.4 Z" fill="#000000" fill-rule="nonzero" fill-opacity="1" /><path clip-path="url(#clip250)" d="M977.932 1449.14 L1007.61 1449.14 L1007.61 1453.07 L977.932 1453.07 L977.932 1449.14 Z" fill="#000000" fill-rule="nonzero" fill-opacity="1" /><path clip-path="url(#clip250)" d="M1027.7 1434.48 Q1024.09 1434.48 1022.26 1438.05 Q1020.45 1441.59 1020.45 1448.72 Q1020.45 1455.83 1022.26 1459.39 Q1024.09 1462.93 1027.7 1462.93 Q1031.33 1462.93 1033.14 1459.39 Q1034.97 1455.83 1034.97 1448.72 Q1034.97 1441.59 1033.14 1438.05 Q1031.33 1434.48 1027.7 1434.48 M1027.7 1430.78 Q1033.51 1430.78 1036.57 1435.39 Q1039.64 1439.97 1039.64 1448.72 Q1039.64 1457.45 1036.57 1462.05 Q1033.51 1466.64 1027.7 1466.64 Q1021.89 1466.64 1018.81 1462.05 Q1015.76 1457.45 1015.76 1448.72 Q1015.76 1439.97 1018.81 1435.39 Q1021.89 1430.78 1027.7 1430.78 Z" fill="#000000" fill-rule="nonzero" fill-opacity="1" /><path clip-path="url(#clip250)" d="M1047.86 1460.08 L1052.75 1460.08 L1052.75 1465.96 L1047.86 1465.96 L1047.86 1460.08 Z" fill="#000000" fill-rule="nonzero" fill-opacity="1" /><path clip-path="url(#clip250)" d="M1066.96 1462.03 L1083.28 1462.03 L1083.28 1465.96 L1061.33 1465.96 L1061.33 1462.03 Q1064 1459.27 1068.58 1454.64 Q1073.19 1449.99 1074.37 1448.65 Q1076.61 1446.13 1077.49 1444.39 Q1078.39 1442.63 1078.39 1440.94 Q1078.39 1438.19 1076.45 1436.45 Q1074.53 1434.71 1071.43 1434.71 Q1069.23 1434.71 1066.77 1435.48 Q1064.34 1436.24 1061.57 1437.79 L1061.57 1433.07 Q1064.39 1431.94 1066.84 1431.36 Q1069.3 1430.78 1071.33 1430.78 Q1076.7 1430.78 1079.9 1433.46 Q1083.09 1436.15 1083.09 1440.64 Q1083.09 1442.77 1082.28 1444.69 Q1081.5 1446.59 1079.39 1449.18 Q1078.81 1449.85 1075.71 1453.07 Q1072.61 1456.26 1066.96 1462.03 Z" fill="#000000" fill-rule="nonzero" fill-opacity="1" /><path clip-path="url(#clip250)" d="M1342.34 1434.48 Q1338.73 1434.48 1336.9 1438.05 Q1335.09 1441.59 1335.09 1448.72 Q1335.09 1455.83 1336.9 1459.39 Q1338.73 1462.93 1342.34 1462.93 Q1345.97 1462.93 1347.78 1459.39 Q1349.61 1455.83 1349.61 1448.72 Q1349.61 1441.59 1347.78 1438.05 Q1345.97 1434.48 1342.34 1434.48 M1342.34 1430.78 Q1348.15 1430.78 1351.2 1435.39 Q1354.28 1439.97 1354.28 1448.72 Q1354.28 1457.45 1351.2 1462.05 Q1348.15 1466.64 1342.34 1466.64 Q1336.53 1466.64 1333.45 1462.05 Q1330.39 1457.45 1330.39 1448.72 Q1330.39 1439.97 1333.45 1435.39 Q1336.53 1430.78 1342.34 1430.78 Z" fill="#000000" fill-rule="nonzero" fill-opacity="1" /><path clip-path="url(#clip250)" d="M1362.5 1460.08 L1367.38 1460.08 L1367.38 1465.96 L1362.5 1465.96 L1362.5 1460.08 Z" fill="#000000" fill-rule="nonzero" fill-opacity="1" /><path clip-path="url(#clip250)" d="M1387.57 1434.48 Q1383.96 1434.48 1382.13 1438.05 Q1380.32 1441.59 1380.32 1448.72 Q1380.32 1455.83 1382.13 1459.39 Q1383.96 1462.93 1387.57 1462.93 Q1391.2 1462.93 1393.01 1459.39 Q1394.84 1455.83 1394.84 1448.72 Q1394.84 1441.59 1393.01 1438.05 Q1391.2 1434.48 1387.57 1434.48 M1387.57 1430.78 Q1393.38 1430.78 1396.43 1435.39 Q1399.51 1439.97 1399.51 1448.72 Q1399.51 1457.45 1396.43 1462.05 Q1393.38 1466.64 1387.57 1466.64 Q1381.76 1466.64 1378.68 1462.05 Q1375.62 1457.45 1375.62 1448.72 Q1375.62 1439.97 1378.68 1435.39 Q1381.76 1430.78 1387.57 1430.78 Z" fill="#000000" fill-rule="nonzero" fill-opacity="1" /><path clip-path="url(#clip250)" d="M1677.48 1434.48 Q1673.87 1434.48 1672.04 1438.05 Q1670.24 1441.59 1670.24 1448.72 Q1670.24 1455.83 1672.04 1459.39 Q1673.87 1462.93 1677.48 1462.93 Q1681.12 1462.93 1682.92 1459.39 Q1684.75 1455.83 1684.75 1448.72 Q1684.75 1441.59 1682.92 1438.05 Q1681.12 1434.48 1677.48 1434.48 M1677.48 1430.78 Q1683.29 1430.78 1686.35 1435.39 Q1689.43 1439.97 1689.43 1448.72 Q1689.43 1457.45 1686.35 1462.05 Q1683.29 1466.64 1677.48 1466.64 Q1671.67 1466.64 1668.6 1462.05 Q1665.54 1457.45 1665.54 1448.72 Q1665.54 1439.97 1668.6 1435.39 Q1671.67 1430.78 1677.48 1430.78 Z" fill="#000000" fill-rule="nonzero" fill-opacity="1" /><path clip-path="url(#clip250)" d="M1697.65 1460.08 L1702.53 1460.08 L1702.53 1465.96 L1697.65 1465.96 L1697.65 1460.08 Z" fill="#000000" fill-rule="nonzero" fill-opacity="1" /><path clip-path="url(#clip250)" d="M1716.74 1462.03 L1733.06 1462.03 L1733.06 1465.96 L1711.12 1465.96 L1711.12 1462.03 Q1713.78 1459.27 1718.36 1454.64 Q1722.97 1449.99 1724.15 1448.65 Q1726.4 1446.13 1727.28 1444.39 Q1728.18 1442.63 1728.18 1440.94 Q1728.18 1438.19 1726.23 1436.45 Q1724.31 1434.71 1721.21 1434.71 Q1719.01 1434.71 1716.56 1435.48 Q1714.13 1436.24 1711.35 1437.79 L1711.35 1433.07 Q1714.17 1431.94 1716.63 1431.36 Q1719.08 1430.78 1721.12 1430.78 Q1726.49 1430.78 1729.68 1433.46 Q1732.88 1436.15 1732.88 1440.64 Q1732.88 1442.77 1732.07 1444.69 Q1731.28 1446.59 1729.17 1449.18 Q1728.59 1449.85 1725.49 1453.07 Q1722.39 1456.26 1716.74 1462.03 Z" fill="#000000" fill-rule="nonzero" fill-opacity="1" /><path clip-path="url(#clip250)" d="M993.165 1509.98 L999.022 1509.98 L999.022 1545.63 L993.165 1545.63 L993.165 1509.98 M993.165 1496.1 L999.022 1496.1 L999.022 1503.52 L993.165 1503.52 L993.165 1496.1 Z" fill="#000000" fill-rule="nonzero" fill-opacity="1" /><path clip-path="url(#clip250)" d="M1040.91 1524.11 L1040.91 1545.63 L1035.05 1545.63 L1035.05 1524.3 Q1035.05 1519.24 1033.08 1516.73 Q1031.1 1514.21 1027.16 1514.21 Q1022.42 1514.21 1019.68 1517.24 Q1016.94 1520.26 1016.94 1525.48 L1016.94 1545.63 L1011.05 1545.63 L1011.05 1509.98 L1016.94 1509.98 L1016.94 1515.52 Q1019.04 1512.3 1021.87 1510.71 Q1024.74 1509.12 1028.46 1509.12 Q1034.61 1509.12 1037.76 1512.94 Q1040.91 1516.73 1040.91 1524.11 Z" fill="#000000" fill-rule="nonzero" fill-opacity="1" /><path clip-path="url(#clip250)" d="M1078.24 1511.35 L1078.24 1516.82 Q1075.76 1515.45 1073.25 1514.79 Q1070.76 1514.09 1068.22 1514.09 Q1062.52 1514.09 1059.37 1517.71 Q1056.22 1521.31 1056.22 1527.84 Q1056.22 1534.36 1059.37 1537.99 Q1062.52 1541.59 1068.22 1541.59 Q1070.76 1541.59 1073.25 1540.92 Q1075.76 1540.22 1078.24 1538.85 L1078.24 1544.26 Q1075.79 1545.41 1073.15 1545.98 Q1070.54 1546.55 1067.58 1546.55 Q1059.53 1546.55 1054.79 1541.49 Q1050.04 1536.43 1050.04 1527.84 Q1050.04 1519.11 1054.82 1514.12 Q1059.62 1509.12 1067.96 1509.12 Q1070.67 1509.12 1073.25 1509.69 Q1075.82 1510.23 1078.24 1511.35 Z" fill="#000000" fill-rule="nonzero" fill-opacity="1" /><path clip-path="url(#clip250)" d="M1102.24 1514.09 Q1097.53 1514.09 1094.79 1517.78 Q1092.06 1521.44 1092.06 1527.84 Q1092.06 1534.23 1094.76 1537.93 Q1097.5 1541.59 1102.24 1541.59 Q1106.92 1541.59 1109.66 1537.89 Q1112.39 1534.2 1112.39 1527.84 Q1112.39 1521.5 1109.66 1517.81 Q1106.92 1514.09 1102.24 1514.09 M1102.24 1509.12 Q1109.88 1509.12 1114.24 1514.09 Q1118.6 1519.05 1118.6 1527.84 Q1118.6 1536.59 1114.24 1541.59 Q1109.88 1546.55 1102.24 1546.55 Q1094.57 1546.55 1090.21 1541.59 Q1085.88 1536.59 1085.88 1527.84 Q1085.88 1519.05 1090.21 1514.09 Q1094.57 1509.12 1102.24 1509.12 Z" fill="#000000" fill-rule="nonzero" fill-opacity="1" /><path clip-path="url(#clip250)" d="M1156.06 1516.82 Q1158.26 1512.88 1161.32 1511 Q1164.37 1509.12 1168.51 1509.12 Q1174.08 1509.12 1177.1 1513.04 Q1180.13 1516.92 1180.13 1524.11 L1180.13 1545.63 L1174.24 1545.63 L1174.24 1524.3 Q1174.24 1519.18 1172.42 1516.7 Q1170.61 1514.21 1166.89 1514.21 Q1162.33 1514.21 1159.69 1517.24 Q1157.05 1520.26 1157.05 1525.48 L1157.05 1545.63 L1151.16 1545.63 L1151.16 1524.3 Q1151.16 1519.15 1149.35 1516.7 Q1147.53 1514.21 1143.75 1514.21 Q1139.26 1514.21 1136.62 1517.27 Q1133.97 1520.29 1133.97 1525.48 L1133.97 1545.63 L1128.09 1545.63 L1128.09 1509.98 L1133.97 1509.98 L1133.97 1515.52 Q1135.98 1512.24 1138.78 1510.68 Q1141.58 1509.12 1145.43 1509.12 Q1149.32 1509.12 1152.02 1511.09 Q1154.76 1513.07 1156.06 1516.82 Z" fill="#000000" fill-rule="nonzero" fill-opacity="1" /><path clip-path="url(#clip250)" d="M1222.3 1526.34 L1222.3 1529.2 L1195.37 1529.2 Q1195.75 1535.25 1199 1538.43 Q1202.28 1541.59 1208.1 1541.59 Q1211.48 1541.59 1214.63 1540.76 Q1217.81 1539.93 1220.93 1538.28 L1220.93 1543.81 Q1217.78 1545.15 1214.47 1545.85 Q1211.16 1546.55 1207.75 1546.55 Q1199.22 1546.55 1194.23 1541.59 Q1189.26 1536.62 1189.26 1528.15 Q1189.26 1519.4 1193.97 1514.28 Q1198.71 1509.12 1206.73 1509.12 Q1213.93 1509.12 1218.1 1513.77 Q1222.3 1518.38 1222.3 1526.34 M1216.44 1524.62 Q1216.38 1519.81 1213.74 1516.95 Q1211.13 1514.09 1206.8 1514.09 Q1201.9 1514.09 1198.94 1516.85 Q1196.01 1519.62 1195.56 1524.65 L1216.44 1524.62 Z" fill="#000000" fill-rule="nonzero" fill-opacity="1" /><polyline clip-path="url(#clip250)" style="stroke:#000000; stroke-linecap:round; stroke-linejoin:round; stroke-width:4; stroke-opacity:1; fill:none" points="262.708,1406.76 262.708,47.2441 "/>
<polyline clip-path="url(#clip250)" style="stroke:#000000; stroke-linecap:round; stroke-linejoin:round; stroke-width:4; stroke-opacity:1; fill:none" points="262.708,1307.62 281.606,1307.62 "/>
<polyline clip-path="url(#clip250)" style="stroke:#000000; stroke-linecap:round; stroke-linejoin:round; stroke-width:4; stroke-opacity:1; fill:none" points="262.708,1059.3 281.606,1059.3 "/>
<polyline clip-path="url(#clip250)" style="stroke:#000000; stroke-linecap:round; stroke-linejoin:round; stroke-width:4; stroke-opacity:1; fill:none" points="262.708,810.978 281.606,810.978 "/>
<polyline clip-path="url(#clip250)" style="stroke:#000000; stroke-linecap:round; stroke-linejoin:round; stroke-width:4; stroke-opacity:1; fill:none" points="262.708,562.656 281.606,562.656 "/>
<polyline clip-path="url(#clip250)" style="stroke:#000000; stroke-linecap:round; stroke-linejoin:round; stroke-width:4; stroke-opacity:1; fill:none" points="262.708,314.334 281.606,314.334 "/>
<polyline clip-path="url(#clip250)" style="stroke:#000000; stroke-linecap:round; stroke-linejoin:round; stroke-width:4; stroke-opacity:1; fill:none" points="262.708,66.0122 281.606,66.0122 "/>
<path clip-path="url(#clip250)" d="M126.76 1308.07 L156.435 1308.07 L156.435 1312.01 L126.76 1312.01 L126.76 1308.07 Z" fill="#000000" fill-rule="nonzero" fill-opacity="1" /><path clip-path="url(#clip250)" d="M167.338 1320.97 L174.977 1320.97 L174.977 1294.6 L166.667 1296.27 L166.667 1292.01 L174.931 1290.34 L179.606 1290.34 L179.606 1320.97 L187.245 1320.97 L187.245 1324.9 L167.338 1324.9 L167.338 1320.97 Z" fill="#000000" fill-rule="nonzero" fill-opacity="1" /><path clip-path="url(#clip250)" d="M196.69 1319.02 L201.574 1319.02 L201.574 1324.9 L196.69 1324.9 L196.69 1319.02 Z" fill="#000000" fill-rule="nonzero" fill-opacity="1" /><path clip-path="url(#clip250)" d="M211.805 1290.34 L230.162 1290.34 L230.162 1294.28 L216.088 1294.28 L216.088 1302.75 Q217.106 1302.4 218.125 1302.24 Q219.143 1302.05 220.162 1302.05 Q225.949 1302.05 229.328 1305.23 Q232.708 1308.4 232.708 1313.81 Q232.708 1319.39 229.236 1322.49 Q225.764 1325.57 219.444 1325.57 Q217.268 1325.57 215 1325.2 Q212.754 1324.83 210.347 1324.09 L210.347 1319.39 Q212.43 1320.53 214.653 1321.08 Q216.875 1321.64 219.352 1321.64 Q223.356 1321.64 225.694 1319.53 Q228.032 1317.43 228.032 1313.81 Q228.032 1310.2 225.694 1308.1 Q223.356 1305.99 219.352 1305.99 Q217.477 1305.99 215.602 1306.41 Q213.75 1306.82 211.805 1307.7 L211.805 1290.34 Z" fill="#000000" fill-rule="nonzero" fill-opacity="1" /><path clip-path="url(#clip250)" d="M125.764 1059.75 L155.44 1059.75 L155.44 1063.69 L125.764 1063.69 L125.764 1059.75 Z" fill="#000000" fill-rule="nonzero" fill-opacity="1" /><path clip-path="url(#clip250)" d="M166.343 1072.64 L173.981 1072.64 L173.981 1046.28 L165.671 1047.95 L165.671 1043.69 L173.935 1042.02 L178.611 1042.02 L178.611 1072.64 L186.25 1072.64 L186.25 1076.58 L166.343 1076.58 L166.343 1072.64 Z" fill="#000000" fill-rule="nonzero" fill-opacity="1" /><path clip-path="url(#clip250)" d="M195.694 1070.7 L200.579 1070.7 L200.579 1076.58 L195.694 1076.58 L195.694 1070.7 Z" fill="#000000" fill-rule="nonzero" fill-opacity="1" /><path clip-path="url(#clip250)" d="M220.764 1045.1 Q217.153 1045.1 215.324 1048.66 Q213.518 1052.21 213.518 1059.33 Q213.518 1066.44 215.324 1070.01 Q217.153 1073.55 220.764 1073.55 Q224.398 1073.55 226.203 1070.01 Q228.032 1066.44 228.032 1059.33 Q228.032 1052.21 226.203 1048.66 Q224.398 1045.1 220.764 1045.1 M220.764 1041.4 Q226.574 1041.4 229.629 1046 Q232.708 1050.58 232.708 1059.33 Q232.708 1068.06 229.629 1072.67 Q226.574 1077.25 220.764 1077.25 Q214.953 1077.25 211.875 1072.67 Q208.819 1068.06 208.819 1059.33 Q208.819 1050.58 211.875 1046 Q214.953 1041.4 220.764 1041.4 Z" fill="#000000" fill-rule="nonzero" fill-opacity="1" /><path clip-path="url(#clip250)" d="M126.76 811.429 L156.435 811.429 L156.435 815.365 L126.76 815.365 L126.76 811.429 Z" fill="#000000" fill-rule="nonzero" fill-opacity="1" /><path clip-path="url(#clip250)" d="M176.528 796.777 Q172.917 796.777 171.088 800.342 Q169.282 803.883 169.282 811.013 Q169.282 818.119 171.088 821.684 Q172.917 825.226 176.528 825.226 Q180.162 825.226 181.968 821.684 Q183.796 818.119 183.796 811.013 Q183.796 803.883 181.968 800.342 Q180.162 796.777 176.528 796.777 M176.528 793.073 Q182.338 793.073 185.393 797.68 Q188.472 802.263 188.472 811.013 Q188.472 819.74 185.393 824.346 Q182.338 828.929 176.528 828.929 Q170.718 828.929 167.639 824.346 Q164.583 819.74 164.583 811.013 Q164.583 802.263 167.639 797.68 Q170.718 793.073 176.528 793.073 Z" fill="#000000" fill-rule="nonzero" fill-opacity="1" /><path clip-path="url(#clip250)" d="M196.69 822.378 L201.574 822.378 L201.574 828.258 L196.69 828.258 L196.69 822.378 Z" fill="#000000" fill-rule="nonzero" fill-opacity="1" /><path clip-path="url(#clip250)" d="M211.805 793.698 L230.162 793.698 L230.162 797.633 L216.088 797.633 L216.088 806.105 Q217.106 805.758 218.125 805.596 Q219.143 805.411 220.162 805.411 Q225.949 805.411 229.328 808.582 Q232.708 811.754 232.708 817.17 Q232.708 822.749 229.236 825.851 Q225.764 828.929 219.444 828.929 Q217.268 828.929 215 828.559 Q212.754 828.189 210.347 827.448 L210.347 822.749 Q212.43 823.883 214.653 824.439 Q216.875 824.994 219.352 824.994 Q223.356 824.994 225.694 822.888 Q228.032 820.781 228.032 817.17 Q228.032 813.559 225.694 811.453 Q223.356 809.346 219.352 809.346 Q217.477 809.346 215.602 809.763 Q213.75 810.179 211.805 811.059 L211.805 793.698 Z" fill="#000000" fill-rule="nonzero" fill-opacity="1" /><path clip-path="url(#clip250)" d="M175.532 548.455 Q171.921 548.455 170.093 552.02 Q168.287 555.561 168.287 562.691 Q168.287 569.797 170.093 573.362 Q171.921 576.904 175.532 576.904 Q179.167 576.904 180.972 573.362 Q182.801 569.797 182.801 562.691 Q182.801 555.561 180.972 552.02 Q179.167 548.455 175.532 548.455 M175.532 544.751 Q181.343 544.751 184.398 549.358 Q187.477 553.941 187.477 562.691 Q187.477 571.418 184.398 576.024 Q181.343 580.607 175.532 580.607 Q169.722 580.607 166.644 576.024 Q163.588 571.418 163.588 562.691 Q163.588 553.941 166.644 549.358 Q169.722 544.751 175.532 544.751 Z" fill="#000000" fill-rule="nonzero" fill-opacity="1" /><path clip-path="url(#clip250)" d="M195.694 574.057 L200.579 574.057 L200.579 579.936 L195.694 579.936 L195.694 574.057 Z" fill="#000000" fill-rule="nonzero" fill-opacity="1" /><path clip-path="url(#clip250)" d="M220.764 548.455 Q217.153 548.455 215.324 552.02 Q213.518 555.561 213.518 562.691 Q213.518 569.797 215.324 573.362 Q217.153 576.904 220.764 576.904 Q224.398 576.904 226.203 573.362 Q228.032 569.797 228.032 562.691 Q228.032 555.561 226.203 552.02 Q224.398 548.455 220.764 548.455 M220.764 544.751 Q226.574 544.751 229.629 549.358 Q232.708 553.941 232.708 562.691 Q232.708 571.418 229.629 576.024 Q226.574 580.607 220.764 580.607 Q214.953 580.607 211.875 576.024 Q208.819 571.418 208.819 562.691 Q208.819 553.941 211.875 549.358 Q214.953 544.751 220.764 544.751 Z" fill="#000000" fill-rule="nonzero" fill-opacity="1" /><path clip-path="url(#clip250)" d="M176.528 300.133 Q172.917 300.133 171.088 303.698 Q169.282 307.239 169.282 314.369 Q169.282 321.475 171.088 325.04 Q172.917 328.582 176.528 328.582 Q180.162 328.582 181.968 325.04 Q183.796 321.475 183.796 314.369 Q183.796 307.239 181.968 303.698 Q180.162 300.133 176.528 300.133 M176.528 296.429 Q182.338 296.429 185.393 301.036 Q188.472 305.619 188.472 314.369 Q188.472 323.096 185.393 327.702 Q182.338 332.285 176.528 332.285 Q170.718 332.285 167.639 327.702 Q164.583 323.096 164.583 314.369 Q164.583 305.619 167.639 301.036 Q170.718 296.429 176.528 296.429 Z" fill="#000000" fill-rule="nonzero" fill-opacity="1" /><path clip-path="url(#clip250)" d="M196.69 325.735 L201.574 325.735 L201.574 331.614 L196.69 331.614 L196.69 325.735 Z" fill="#000000" fill-rule="nonzero" fill-opacity="1" /><path clip-path="url(#clip250)" d="M211.805 297.054 L230.162 297.054 L230.162 300.989 L216.088 300.989 L216.088 309.461 Q217.106 309.114 218.125 308.952 Q219.143 308.767 220.162 308.767 Q225.949 308.767 229.328 311.938 Q232.708 315.11 232.708 320.526 Q232.708 326.105 229.236 329.207 Q225.764 332.285 219.444 332.285 Q217.268 332.285 215 331.915 Q212.754 331.545 210.347 330.804 L210.347 326.105 Q212.43 327.239 214.653 327.795 Q216.875 328.35 219.352 328.35 Q223.356 328.35 225.694 326.244 Q228.032 324.137 228.032 320.526 Q228.032 316.915 225.694 314.809 Q223.356 312.702 219.352 312.702 Q217.477 312.702 215.602 313.119 Q213.75 313.536 211.805 314.415 L211.805 297.054 Z" fill="#000000" fill-rule="nonzero" fill-opacity="1" /><path clip-path="url(#clip250)" d="M166.343 79.357 L173.981 79.357 L173.981 52.9914 L165.671 54.6581 L165.671 50.3989 L173.935 48.7322 L178.611 48.7322 L178.611 79.357 L186.25 79.357 L186.25 83.2922 L166.343 83.2922 L166.343 79.357 Z" fill="#000000" fill-rule="nonzero" fill-opacity="1" /><path clip-path="url(#clip250)" d="M195.694 77.4126 L200.579 77.4126 L200.579 83.2922 L195.694 83.2922 L195.694 77.4126 Z" fill="#000000" fill-rule="nonzero" fill-opacity="1" /><path clip-path="url(#clip250)" d="M220.764 51.8109 Q217.153 51.8109 215.324 55.3757 Q213.518 58.9173 213.518 66.0469 Q213.518 73.1534 215.324 76.7182 Q217.153 80.2598 220.764 80.2598 Q224.398 80.2598 226.203 76.7182 Q228.032 73.1534 228.032 66.0469 Q228.032 58.9173 226.203 55.3757 Q224.398 51.8109 220.764 51.8109 M220.764 48.1072 Q226.574 48.1072 229.629 52.7137 Q232.708 57.297 232.708 66.0469 Q232.708 74.7737 229.629 79.3802 Q226.574 83.9635 220.764 83.9635 Q214.953 83.9635 211.875 79.3802 Q208.819 74.7737 208.819 66.0469 Q208.819 57.297 211.875 52.7137 Q214.953 48.1072 220.764 48.1072 Z" fill="#000000" fill-rule="nonzero" fill-opacity="1" /><path clip-path="url(#clip250)" d="M63.5887 765.596 Q63.5887 772.694 65.2119 775.431 Q66.8352 778.168 70.7501 778.168 Q73.8693 778.168 75.7154 776.131 Q77.5296 774.062 77.5296 770.529 Q77.5296 765.66 74.0921 762.731 Q70.6228 759.771 64.8937 759.771 L63.5887 759.771 L63.5887 765.596 M61.1697 753.915 L81.5082 753.915 L81.5082 759.771 L76.0973 759.771 Q79.3438 761.777 80.9034 764.769 Q82.4312 767.76 82.4312 772.089 Q82.4312 777.564 79.3756 780.81 Q76.2883 784.025 71.1321 784.025 Q65.1165 784.025 62.0609 780.014 Q59.0054 775.972 59.0054 767.983 L59.0054 759.771 L58.4325 759.771 Q54.3902 759.771 52.1941 762.445 Q49.9661 765.087 49.9661 769.893 Q49.9661 772.948 50.6981 775.845 Q51.4302 778.741 52.8943 781.415 L47.4835 781.415 Q46.2421 778.2 45.6374 775.176 Q45.0008 772.153 45.0008 769.288 Q45.0008 761.554 49.0112 757.734 Q53.0216 753.915 61.1697 753.915 Z" fill="#000000" fill-rule="nonzero" fill-opacity="1" /><path clip-path="url(#clip250)" d="M63.2704 718.394 Q56.9047 718.394 53.4036 721.036 Q49.9024 723.646 49.9024 728.389 Q49.9024 733.099 53.4036 735.741 Q56.9047 738.351 63.2704 738.351 Q69.6043 738.351 73.1054 735.741 Q76.6066 733.099 76.6066 728.389 Q76.6066 723.646 73.1054 721.036 Q69.6043 718.394 63.2704 718.394 M77.084 712.538 Q86.187 712.538 90.6111 716.58 Q95.0671 720.622 95.0671 728.961 Q95.0671 732.049 94.5897 734.786 Q94.1441 737.523 93.1892 740.101 L87.4919 740.101 Q88.8924 737.523 89.5608 735.009 Q90.2292 732.494 90.2292 729.884 Q90.2292 724.123 87.2055 721.259 Q84.2136 718.394 78.1343 718.394 L75.2379 718.394 Q78.389 720.209 79.9486 723.041 Q81.5082 725.874 81.5082 729.821 Q81.5082 736.377 76.5111 740.388 Q71.514 744.398 63.2704 744.398 Q54.995 744.398 49.9979 740.388 Q45.0008 736.377 45.0008 729.821 Q45.0008 725.874 46.5604 723.041 Q48.12 720.209 51.2711 718.394 L45.8602 718.394 L45.8602 712.538 L77.084 712.538 Z" fill="#000000" fill-rule="nonzero" fill-opacity="1" /><path clip-path="url(#clip250)" d="M62.2201 669.983 L65.0846 669.983 L65.0846 696.91 Q71.1321 696.528 74.3149 693.282 Q77.4659 690.003 77.4659 684.179 Q77.4659 680.805 76.6384 677.654 Q75.8109 674.471 74.1558 671.352 L79.6939 671.352 Q81.0307 674.503 81.731 677.813 Q82.4312 681.123 82.4312 684.529 Q82.4312 693.059 77.4659 698.056 Q72.5007 703.021 64.0343 703.021 Q55.2814 703.021 50.1571 698.311 Q45.0008 693.568 45.0008 685.547 Q45.0008 678.354 49.6478 674.185 Q54.2629 669.983 62.2201 669.983 M60.5013 675.84 Q55.6952 675.903 52.8306 678.545 Q49.9661 681.155 49.9661 685.484 Q49.9661 690.385 52.7352 693.345 Q55.5042 696.274 60.5332 696.719 L60.5013 675.84 Z" fill="#000000" fill-rule="nonzero" fill-opacity="1" /><circle clip-path="url(#clip252)" cx="743.631" cy="1368.29" r="36" fill="#00a1ff" fill-rule="evenodd" fill-opacity="1" stroke="#000000" stroke-opacity="1" stroke-width="3.2"/>
<circle clip-path="url(#clip252)" cx="779.774" cy="1368.29" r="36" fill="#e69f00" fill-rule="evenodd" fill-opacity="1" stroke="#000000" stroke-opacity="1" stroke-width="3.2"/>
<polyline clip-path="url(#clip252)" style="stroke:#000000; stroke-linecap:round; stroke-linejoin:round; stroke-width:8; stroke-opacity:1; fill:none" points="743.631,1368.29 779.774,1368.29 "/>
<polyline clip-path="url(#clip252)" style="stroke:#000000; stroke-linecap:round; stroke-linejoin:round; stroke-width:8; stroke-opacity:1; fill:none" points="749.774,1353.29 779.774,1368.29 749.774,1383.29 "/>
<polyline clip-path="url(#clip252)" style="stroke:#000000; stroke-linecap:round; stroke-linejoin:round; stroke-width:8; stroke-opacity:1; fill:none" points="779.774,1368.29 743.631,1368.29 "/>
<circle clip-path="url(#clip252)" cx="1212.54" cy="196.476" r="36" fill="#00a1ff" fill-rule="evenodd" fill-opacity="1" stroke="#000000" stroke-opacity="1" stroke-width="3.2"/>
<circle clip-path="url(#clip252)" cx="1904.92" cy="85.7211" r="36" fill="#e69f00" fill-rule="evenodd" fill-opacity="1" stroke="#000000" stroke-opacity="1" stroke-width="3.2"/>
<polyline clip-path="url(#clip252)" style="stroke:#000000; stroke-linecap:round; stroke-linejoin:round; stroke-width:8; stroke-opacity:1; fill:none" points="1212.54,196.476 1904.92,85.7211 "/>
<polyline clip-path="url(#clip252)" style="stroke:#000000; stroke-linecap:round; stroke-linejoin:round; stroke-width:8; stroke-opacity:1; fill:none" points="1872.93,75.648 1904.92,85.7211 1877.67,105.271 "/>
<polyline clip-path="url(#clip252)" style="stroke:#000000; stroke-linecap:round; stroke-linejoin:round; stroke-width:8; stroke-opacity:1; fill:none" points="1904.92,85.7211 1212.54,196.476 "/>
<circle clip-path="url(#clip252)" cx="1136.02" cy="800.136" r="36" fill="#00a1ff" fill-rule="evenodd" fill-opacity="1" stroke="#000000" stroke-opacity="1" stroke-width="3.2"/>
<circle clip-path="url(#clip252)" cx="1197.23" cy="800.136" r="36" fill="#e69f00" fill-rule="evenodd" fill-opacity="1" stroke="#000000" stroke-opacity="1" stroke-width="3.2"/>
<polyline clip-path="url(#clip252)" style="stroke:#000000; stroke-linecap:round; stroke-linejoin:round; stroke-width:8; stroke-opacity:1; fill:none" points="1136.02,800.136 1197.23,800.136 "/>
<polyline clip-path="url(#clip252)" style="stroke:#000000; stroke-linecap:round; stroke-linejoin:round; stroke-width:8; stroke-opacity:1; fill:none" points="1167.23,785.136 1197.23,800.136 1167.23,815.136 "/>
<polyline clip-path="url(#clip252)" style="stroke:#000000; stroke-linecap:round; stroke-linejoin:round; stroke-width:8; stroke-opacity:1; fill:none" points="1197.23,800.136 1136.02,800.136 "/>
<circle clip-path="url(#clip252)" cx="625.913" cy="658.099" r="36" fill="#00a1ff" fill-rule="evenodd" fill-opacity="1" stroke="#000000" stroke-opacity="1" stroke-width="3.2"/>
<circle clip-path="url(#clip252)" cx="793.341" cy="635.524" r="36" fill="#e69f00" fill-rule="evenodd" fill-opacity="1" stroke="#000000" stroke-opacity="1" stroke-width="3.2"/>
<polyline clip-path="url(#clip252)" style="stroke:#000000; stroke-linecap:round; stroke-linejoin:round; stroke-width:8; stroke-opacity:1; fill:none" points="625.913,658.099 793.341,635.524 "/>
<polyline clip-path="url(#clip252)" style="stroke:#000000; stroke-linecap:round; stroke-linejoin:round; stroke-width:8; stroke-opacity:1; fill:none" points="761.606,624.668 793.341,635.524 765.615,654.399 "/>
<polyline clip-path="url(#clip252)" style="stroke:#000000; stroke-linecap:round; stroke-linejoin:round; stroke-width:8; stroke-opacity:1; fill:none" points="793.341,635.524 625.913,658.099 "/>
<circle clip-path="url(#clip252)" cx="1057.54" cy="835.646" r="36" fill="#00a1ff" fill-rule="evenodd" fill-opacity="1" stroke="#000000" stroke-opacity="1" stroke-width="3.2"/>
<circle clip-path="url(#clip252)" cx="711.24" cy="835.234" r="36" fill="#e69f00" fill-rule="evenodd" fill-opacity="1" stroke="#000000" stroke-opacity="1" stroke-width="3.2"/>
<polyline clip-path="url(#clip252)" style="stroke:#000000; stroke-linecap:round; stroke-linejoin:round; stroke-width:8; stroke-opacity:1; fill:none" points="1057.54,835.646 711.24,835.234 "/>
<polyline clip-path="url(#clip252)" style="stroke:#000000; stroke-linecap:round; stroke-linejoin:round; stroke-width:8; stroke-opacity:1; fill:none" points="741.222,850.269 711.24,835.234 741.258,820.27 "/>
<polyline clip-path="url(#clip252)" style="stroke:#000000; stroke-linecap:round; stroke-linejoin:round; stroke-width:8; stroke-opacity:1; fill:none" points="711.24,835.234 1057.54,835.646 "/>
<circle clip-path="url(#clip252)" cx="808.964" cy="800.136" r="36" fill="#00a1ff" fill-rule="evenodd" fill-opacity="1" stroke="#000000" stroke-opacity="1" stroke-width="3.2"/>
<circle clip-path="url(#clip252)" cx="895.177" cy="800.136" r="36" fill="#e69f00" fill-rule="evenodd" fill-opacity="1" stroke="#000000" stroke-opacity="1" stroke-width="3.2"/>
<polyline clip-path="url(#clip252)" style="stroke:#000000; stroke-linecap:round; stroke-linejoin:round; stroke-width:8; stroke-opacity:1; fill:none" points="808.964,800.136 895.177,800.136 "/>
<polyline clip-path="url(#clip252)" style="stroke:#000000; stroke-linecap:round; stroke-linejoin:round; stroke-width:8; stroke-opacity:1; fill:none" points="865.177,785.136 895.177,800.136 865.177,815.136 "/>
<polyline clip-path="url(#clip252)" style="stroke:#000000; stroke-linecap:round; stroke-linejoin:round; stroke-width:8; stroke-opacity:1; fill:none" points="895.177,800.136 808.964,800.136 "/>
<circle clip-path="url(#clip252)" cx="750.89" cy="977.683" r="36" fill="#00a1ff" fill-rule="evenodd" fill-opacity="1" stroke="#000000" stroke-opacity="1" stroke-width="3.2"/>
<circle clip-path="url(#clip252)" cx="310.54" cy="894.18" r="36" fill="#e69f00" fill-rule="evenodd" fill-opacity="1" stroke="#000000" stroke-opacity="1" stroke-width="3.2"/>
<polyline clip-path="url(#clip252)" style="stroke:#000000; stroke-linecap:round; stroke-linejoin:round; stroke-width:8; stroke-opacity:1; fill:none" points="750.89,977.683 310.54,894.18 "/>
<polyline clip-path="url(#clip252)" style="stroke:#000000; stroke-linecap:round; stroke-linejoin:round; stroke-width:8; stroke-opacity:1; fill:none" points="337.22,914.506 310.54,894.18 342.809,885.031 "/>
<polyline clip-path="url(#clip252)" style="stroke:#000000; stroke-linecap:round; stroke-linejoin:round; stroke-width:8; stroke-opacity:1; fill:none" points="310.54,894.18 750.89,977.683 "/>
<circle clip-path="url(#clip252)" cx="861.348" cy="196.476" r="36" fill="#00a1ff" fill-rule="evenodd" fill-opacity="1" stroke="#000000" stroke-opacity="1" stroke-width="3.2"/>
<circle clip-path="url(#clip252)" cx="1155.44" cy="180.021" r="36" fill="#e69f00" fill-rule="evenodd" fill-opacity="1" stroke="#000000" stroke-opacity="1" stroke-width="3.2"/>
<polyline clip-path="url(#clip252)" style="stroke:#000000; stroke-linecap:round; stroke-linejoin:round; stroke-width:8; stroke-opacity:1; fill:none" points="861.348,196.476 1155.44,180.021 "/>
<polyline clip-path="url(#clip252)" style="stroke:#000000; stroke-linecap:round; stroke-linejoin:round; stroke-width:8; stroke-opacity:1; fill:none" points="1124.65,166.72 1155.44,180.021 1126.33,196.673 "/>
<polyline clip-path="url(#clip252)" style="stroke:#000000; stroke-linecap:round; stroke-linejoin:round; stroke-width:8; stroke-opacity:1; fill:none" points="1155.44,180.021 861.348,196.476 "/>
<circle clip-path="url(#clip252)" cx="881.949" cy="1013.19" r="36" fill="#00a1ff" fill-rule="evenodd" fill-opacity="1" stroke="#000000" stroke-opacity="1" stroke-width="3.2"/>
<circle clip-path="url(#clip252)" cx="1712.23" cy="1013.19" r="36" fill="#e69f00" fill-rule="evenodd" fill-opacity="1" stroke="#000000" stroke-opacity="1" stroke-width="3.2"/>
<polyline clip-path="url(#clip252)" style="stroke:#000000; stroke-linecap:round; stroke-linejoin:round; stroke-width:8; stroke-opacity:1; fill:none" points="881.949,1013.19 1712.23,1013.19 "/>
<polyline clip-path="url(#clip252)" style="stroke:#000000; stroke-linecap:round; stroke-linejoin:round; stroke-width:8; stroke-opacity:1; fill:none" points="1682.23,998.193 1712.23,1013.19 1682.23,1028.19 "/>
<polyline clip-path="url(#clip252)" style="stroke:#000000; stroke-linecap:round; stroke-linejoin:round; stroke-width:8; stroke-opacity:1; fill:none" points="1712.23,1013.19 881.949,1013.19 "/>
<circle clip-path="url(#clip252)" cx="890.777" cy="1261.76" r="36" fill="#00a1ff" fill-rule="evenodd" fill-opacity="1" stroke="#000000" stroke-opacity="1" stroke-width="3.2"/>
<circle clip-path="url(#clip252)" cx="1716.57" cy="1261.76" r="36" fill="#e69f00" fill-rule="evenodd" fill-opacity="1" stroke="#000000" stroke-opacity="1" stroke-width="3.2"/>
<polyline clip-path="url(#clip252)" style="stroke:#000000; stroke-linecap:round; stroke-linejoin:round; stroke-width:8; stroke-opacity:1; fill:none" points="890.777,1261.76 1716.57,1261.76 "/>
<polyline clip-path="url(#clip252)" style="stroke:#000000; stroke-linecap:round; stroke-linejoin:round; stroke-width:8; stroke-opacity:1; fill:none" points="1686.57,1246.76 1716.57,1261.76 1686.57,1276.76 "/>
<polyline clip-path="url(#clip252)" style="stroke:#000000; stroke-linecap:round; stroke-linejoin:round; stroke-width:8; stroke-opacity:1; fill:none" points="1716.57,1261.76 890.777,1261.76 "/>
<path clip-path="url(#clip250)" d="M1399.5 1361.45 L1896.42 1361.45 L1896.42 1205.93 L1399.5 1205.93  Z" fill="#ffffff" fill-rule="evenodd" fill-opacity="1"/>
<polyline clip-path="url(#clip250)" style="stroke:#000000; stroke-linecap:round; stroke-linejoin:round; stroke-width:4; stroke-opacity:1; fill:none" points="1399.5,1361.45 1896.42,1361.45 1896.42,1205.93 1399.5,1205.93 1399.5,1361.45 "/>
<circle clip-path="url(#clip250)" cx="1474.61" cy="1257.77" r="21.9429" fill="#00a1ff" fill-rule="evenodd" fill-opacity="1" stroke="#000000" stroke-opacity="1" stroke-width="1.95048"/>
<path clip-path="url(#clip250)" d="M1549.73 1240.49 L1554.4 1240.49 L1554.4 1271.11 L1571.23 1271.11 L1571.23 1275.05 L1549.73 1275.05 L1549.73 1240.49 Z" fill="#000000" fill-rule="nonzero" fill-opacity="1" /><path clip-path="url(#clip250)" d="M1585.17 1252.11 Q1581.74 1252.11 1579.75 1254.79 Q1577.76 1257.45 1577.76 1262.11 Q1577.76 1266.76 1579.73 1269.44 Q1581.72 1272.11 1585.17 1272.11 Q1588.57 1272.11 1590.56 1269.42 Q1592.55 1266.74 1592.55 1262.11 Q1592.55 1257.5 1590.56 1254.82 Q1588.57 1252.11 1585.17 1252.11 M1585.17 1248.5 Q1590.72 1248.5 1593.89 1252.11 Q1597.07 1255.72 1597.07 1262.11 Q1597.07 1268.47 1593.89 1272.11 Q1590.72 1275.72 1585.17 1275.72 Q1579.59 1275.72 1576.42 1272.11 Q1573.27 1268.47 1573.27 1262.11 Q1573.27 1255.72 1576.42 1252.11 Q1579.59 1248.5 1585.17 1248.5 Z" fill="#000000" fill-rule="nonzero" fill-opacity="1" /><path clip-path="url(#clip250)" d="M1615.91 1262.01 Q1610.75 1262.01 1608.76 1263.19 Q1606.76 1264.38 1606.76 1267.22 Q1606.76 1269.49 1608.25 1270.83 Q1609.75 1272.15 1612.32 1272.15 Q1615.86 1272.15 1617.99 1269.65 Q1620.14 1267.13 1620.14 1262.96 L1620.14 1262.01 L1615.91 1262.01 M1624.4 1260.25 L1624.4 1275.05 L1620.14 1275.05 L1620.14 1271.11 Q1618.69 1273.47 1616.51 1274.61 Q1614.33 1275.72 1611.19 1275.72 Q1607.2 1275.72 1604.84 1273.5 Q1602.51 1271.25 1602.51 1267.5 Q1602.51 1263.13 1605.42 1260.9 Q1608.36 1258.68 1614.17 1258.68 L1620.14 1258.68 L1620.14 1258.26 Q1620.14 1255.32 1618.2 1253.73 Q1616.28 1252.11 1612.78 1252.11 Q1610.56 1252.11 1608.45 1252.64 Q1606.35 1253.17 1604.4 1254.24 L1604.4 1250.3 Q1606.74 1249.4 1608.94 1248.96 Q1611.14 1248.5 1613.22 1248.5 Q1618.85 1248.5 1621.63 1251.41 Q1624.4 1254.33 1624.4 1260.25 Z" fill="#000000" fill-rule="nonzero" fill-opacity="1" /><path clip-path="url(#clip250)" d="M1654.73 1259.4 L1654.73 1275.05 L1650.47 1275.05 L1650.47 1259.54 Q1650.47 1255.86 1649.03 1254.03 Q1647.6 1252.2 1644.73 1252.2 Q1641.28 1252.2 1639.29 1254.4 Q1637.3 1256.6 1637.3 1260.39 L1637.3 1275.05 L1633.01 1275.05 L1633.01 1249.12 L1637.3 1249.12 L1637.3 1253.15 Q1638.82 1250.81 1640.88 1249.65 Q1642.97 1248.5 1645.68 1248.5 Q1650.14 1248.5 1652.44 1251.27 Q1654.73 1254.03 1654.73 1259.4 Z" fill="#000000" fill-rule="nonzero" fill-opacity="1" /><path clip-path="url(#clip250)" d="M1695.35 1253.06 L1695.35 1239.03 L1699.61 1239.03 L1699.61 1275.05 L1695.35 1275.05 L1695.35 1271.16 Q1694.01 1273.47 1691.95 1274.61 Q1689.91 1275.72 1687.04 1275.72 Q1682.34 1275.72 1679.38 1271.97 Q1676.44 1268.22 1676.44 1262.11 Q1676.44 1256 1679.38 1252.25 Q1682.34 1248.5 1687.04 1248.5 Q1689.91 1248.5 1691.95 1249.63 Q1694.01 1250.74 1695.35 1253.06 M1680.84 1262.11 Q1680.84 1266.81 1682.76 1269.49 Q1684.7 1272.15 1688.08 1272.15 Q1691.46 1272.15 1693.41 1269.49 Q1695.35 1266.81 1695.35 1262.11 Q1695.35 1257.41 1693.41 1254.75 Q1691.46 1252.06 1688.08 1252.06 Q1684.7 1252.06 1682.76 1254.75 Q1680.84 1257.41 1680.84 1262.11 Z" fill="#000000" fill-rule="nonzero" fill-opacity="1" /><path clip-path="url(#clip250)" d="M1730.56 1261.02 L1730.56 1263.1 L1710.98 1263.1 Q1711.25 1267.5 1713.62 1269.82 Q1716 1272.11 1720.24 1272.11 Q1722.69 1272.11 1724.98 1271.5 Q1727.3 1270.9 1729.56 1269.7 L1729.56 1273.73 Q1727.27 1274.7 1724.87 1275.21 Q1722.46 1275.72 1719.98 1275.72 Q1713.78 1275.72 1710.14 1272.11 Q1706.53 1268.5 1706.53 1262.34 Q1706.53 1255.97 1709.96 1252.25 Q1713.41 1248.5 1719.24 1248.5 Q1724.47 1248.5 1727.5 1251.88 Q1730.56 1255.23 1730.56 1261.02 M1726.3 1259.77 Q1726.25 1256.27 1724.33 1254.19 Q1722.44 1252.11 1719.29 1252.11 Q1715.72 1252.11 1713.57 1254.12 Q1711.44 1256.13 1711.12 1259.79 L1726.3 1259.77 Z" fill="#000000" fill-rule="nonzero" fill-opacity="1" /><path clip-path="url(#clip250)" d="M1759.1 1259.4 L1759.1 1275.05 L1754.84 1275.05 L1754.84 1259.54 Q1754.84 1255.86 1753.41 1254.03 Q1751.97 1252.2 1749.1 1252.2 Q1745.65 1252.2 1743.66 1254.4 Q1741.67 1256.6 1741.67 1260.39 L1741.67 1275.05 L1737.39 1275.05 L1737.39 1249.12 L1741.67 1249.12 L1741.67 1253.15 Q1743.2 1250.81 1745.26 1249.65 Q1747.34 1248.5 1750.05 1248.5 Q1754.52 1248.5 1756.81 1251.27 Q1759.1 1254.03 1759.1 1259.4 Z" fill="#000000" fill-rule="nonzero" fill-opacity="1" /><path clip-path="url(#clip250)" d="M1767.6 1249.12 L1771.86 1249.12 L1771.86 1275.05 L1767.6 1275.05 L1767.6 1249.12 M1767.6 1239.03 L1771.86 1239.03 L1771.86 1244.42 L1767.6 1244.42 L1767.6 1239.03 Z" fill="#000000" fill-rule="nonzero" fill-opacity="1" /><path clip-path="url(#clip250)" d="M1802.94 1261.02 L1802.94 1263.1 L1783.36 1263.1 Q1783.64 1267.5 1786 1269.82 Q1788.38 1272.11 1792.62 1272.11 Q1795.07 1272.11 1797.37 1271.5 Q1799.68 1270.9 1801.95 1269.7 L1801.95 1273.73 Q1799.66 1274.7 1797.25 1275.21 Q1794.84 1275.72 1792.37 1275.72 Q1786.16 1275.72 1782.53 1272.11 Q1778.92 1268.5 1778.92 1262.34 Q1778.92 1255.97 1782.34 1252.25 Q1785.79 1248.5 1791.62 1248.5 Q1796.86 1248.5 1799.89 1251.88 Q1802.94 1255.23 1802.94 1261.02 M1798.68 1259.77 Q1798.64 1256.27 1796.72 1254.19 Q1794.82 1252.11 1791.67 1252.11 Q1788.11 1252.11 1785.95 1254.12 Q1783.82 1256.13 1783.5 1259.79 L1798.68 1259.77 Z" fill="#000000" fill-rule="nonzero" fill-opacity="1" /><path clip-path="url(#clip250)" d="M1826.99 1253.06 L1826.99 1239.03 L1831.25 1239.03 L1831.25 1275.05 L1826.99 1275.05 L1826.99 1271.16 Q1825.65 1273.47 1823.59 1274.61 Q1821.56 1275.72 1818.68 1275.72 Q1813.99 1275.72 1811.02 1271.97 Q1808.08 1268.22 1808.08 1262.11 Q1808.08 1256 1811.02 1252.25 Q1813.99 1248.5 1818.68 1248.5 Q1821.56 1248.5 1823.59 1249.63 Q1825.65 1250.74 1826.99 1253.06 M1812.48 1262.11 Q1812.48 1266.81 1814.4 1269.49 Q1816.35 1272.15 1819.73 1272.15 Q1823.11 1272.15 1825.05 1269.49 Q1826.99 1266.81 1826.99 1262.11 Q1826.99 1257.41 1825.05 1254.75 Q1823.11 1252.06 1819.73 1252.06 Q1816.35 1252.06 1814.4 1254.75 Q1812.48 1257.41 1812.48 1262.11 Z" fill="#000000" fill-rule="nonzero" fill-opacity="1" /><circle clip-path="url(#clip250)" cx="1474.61" cy="1309.61" r="21.9429" fill="#e69f00" fill-rule="evenodd" fill-opacity="1" stroke="#000000" stroke-opacity="1" stroke-width="1.95048"/>
<path clip-path="url(#clip250)" d="M1549.73 1292.33 L1554.4 1292.33 L1554.4 1322.95 L1571.23 1322.95 L1571.23 1326.89 L1549.73 1326.89 L1549.73 1292.33 Z" fill="#000000" fill-rule="nonzero" fill-opacity="1" /><path clip-path="url(#clip250)" d="M1585.17 1303.95 Q1581.74 1303.95 1579.75 1306.63 Q1577.76 1309.29 1577.76 1313.95 Q1577.76 1318.6 1579.73 1321.28 Q1581.72 1323.95 1585.17 1323.95 Q1588.57 1323.95 1590.56 1321.26 Q1592.55 1318.58 1592.55 1313.95 Q1592.55 1309.34 1590.56 1306.66 Q1588.57 1303.95 1585.17 1303.95 M1585.17 1300.34 Q1590.72 1300.34 1593.89 1303.95 Q1597.07 1307.56 1597.07 1313.95 Q1597.07 1320.31 1593.89 1323.95 Q1590.72 1327.56 1585.17 1327.56 Q1579.59 1327.56 1576.42 1323.95 Q1573.27 1320.31 1573.27 1313.95 Q1573.27 1307.56 1576.42 1303.95 Q1579.59 1300.34 1585.17 1300.34 Z" fill="#000000" fill-rule="nonzero" fill-opacity="1" /><path clip-path="url(#clip250)" d="M1615.91 1313.85 Q1610.75 1313.85 1608.76 1315.03 Q1606.76 1316.22 1606.76 1319.06 Q1606.76 1321.33 1608.25 1322.67 Q1609.75 1323.99 1612.32 1323.99 Q1615.86 1323.99 1617.99 1321.49 Q1620.14 1318.97 1620.14 1314.8 L1620.14 1313.85 L1615.91 1313.85 M1624.4 1312.09 L1624.4 1326.89 L1620.14 1326.89 L1620.14 1322.95 Q1618.69 1325.31 1616.51 1326.45 Q1614.33 1327.56 1611.19 1327.56 Q1607.2 1327.56 1604.84 1325.34 Q1602.51 1323.09 1602.51 1319.34 Q1602.51 1314.97 1605.42 1312.74 Q1608.36 1310.52 1614.17 1310.52 L1620.14 1310.52 L1620.14 1310.1 Q1620.14 1307.16 1618.2 1305.57 Q1616.28 1303.95 1612.78 1303.95 Q1610.56 1303.95 1608.45 1304.48 Q1606.35 1305.01 1604.4 1306.08 L1604.4 1302.14 Q1606.74 1301.24 1608.94 1300.8 Q1611.14 1300.34 1613.22 1300.34 Q1618.85 1300.34 1621.63 1303.25 Q1624.4 1306.17 1624.4 1312.09 Z" fill="#000000" fill-rule="nonzero" fill-opacity="1" /><path clip-path="url(#clip250)" d="M1654.73 1311.24 L1654.73 1326.89 L1650.47 1326.89 L1650.47 1311.38 Q1650.47 1307.7 1649.03 1305.87 Q1647.6 1304.04 1644.73 1304.04 Q1641.28 1304.04 1639.29 1306.24 Q1637.3 1308.44 1637.3 1312.23 L1637.3 1326.89 L1633.01 1326.89 L1633.01 1300.96 L1637.3 1300.96 L1637.3 1304.99 Q1638.82 1302.65 1640.88 1301.49 Q1642.97 1300.34 1645.68 1300.34 Q1650.14 1300.34 1652.44 1303.11 Q1654.73 1305.87 1654.73 1311.24 Z" fill="#000000" fill-rule="nonzero" fill-opacity="1" /><path clip-path="url(#clip250)" d="M1682.41 1323 L1682.41 1336.75 L1678.13 1336.75 L1678.13 1300.96 L1682.41 1300.96 L1682.41 1304.9 Q1683.75 1302.58 1685.79 1301.47 Q1687.85 1300.34 1690.7 1300.34 Q1695.42 1300.34 1698.36 1304.09 Q1701.32 1307.84 1701.32 1313.95 Q1701.32 1320.06 1698.36 1323.81 Q1695.42 1327.56 1690.7 1327.56 Q1687.85 1327.56 1685.79 1326.45 Q1683.75 1325.31 1682.41 1323 M1696.9 1313.95 Q1696.9 1309.25 1694.96 1306.59 Q1693.04 1303.9 1689.66 1303.9 Q1686.28 1303.9 1684.33 1306.59 Q1682.41 1309.25 1682.41 1313.95 Q1682.41 1318.65 1684.33 1321.33 Q1686.28 1323.99 1689.66 1323.99 Q1693.04 1323.99 1694.96 1321.33 Q1696.9 1318.65 1696.9 1313.95 Z" fill="#000000" fill-rule="nonzero" fill-opacity="1" /><path clip-path="url(#clip250)" d="M1723.41 1304.94 Q1722.69 1304.53 1721.83 1304.34 Q1721 1304.13 1719.98 1304.13 Q1716.37 1304.13 1714.43 1306.49 Q1712.5 1308.83 1712.5 1313.23 L1712.5 1326.89 L1708.22 1326.89 L1708.22 1300.96 L1712.5 1300.96 L1712.5 1304.99 Q1713.85 1302.63 1716 1301.49 Q1718.15 1300.34 1721.23 1300.34 Q1721.67 1300.34 1722.2 1300.41 Q1722.74 1300.45 1723.38 1300.57 L1723.41 1304.94 Z" fill="#000000" fill-rule="nonzero" fill-opacity="1" /><path clip-path="url(#clip250)" d="M1736.88 1303.95 Q1733.45 1303.95 1731.46 1306.63 Q1729.47 1309.29 1729.47 1313.95 Q1729.47 1318.6 1731.44 1321.28 Q1733.43 1323.95 1736.88 1323.95 Q1740.28 1323.95 1742.27 1321.26 Q1744.26 1318.58 1744.26 1313.95 Q1744.26 1309.34 1742.27 1306.66 Q1740.28 1303.95 1736.88 1303.95 M1736.88 1300.34 Q1742.44 1300.34 1745.61 1303.95 Q1748.78 1307.56 1748.78 1313.95 Q1748.78 1320.31 1745.61 1323.95 Q1742.44 1327.56 1736.88 1327.56 Q1731.3 1327.56 1728.13 1323.95 Q1724.98 1320.31 1724.98 1313.95 Q1724.98 1307.56 1728.13 1303.95 Q1731.3 1300.34 1736.88 1300.34 Z" fill="#000000" fill-rule="nonzero" fill-opacity="1" /><path clip-path="url(#clip250)" d="M1752.78 1300.96 L1757.3 1300.96 L1765.4 1322.72 L1773.5 1300.96 L1778.01 1300.96 L1768.29 1326.89 L1762.5 1326.89 L1752.78 1300.96 Z" fill="#000000" fill-rule="nonzero" fill-opacity="1" /><path clip-path="url(#clip250)" d="M1783.89 1300.96 L1788.15 1300.96 L1788.15 1326.89 L1783.89 1326.89 L1783.89 1300.96 M1783.89 1290.87 L1788.15 1290.87 L1788.15 1296.26 L1783.89 1296.26 L1783.89 1290.87 Z" fill="#000000" fill-rule="nonzero" fill-opacity="1" /><path clip-path="url(#clip250)" d="M1814.12 1304.9 L1814.12 1290.87 L1818.38 1290.87 L1818.38 1326.89 L1814.12 1326.89 L1814.12 1323 Q1812.78 1325.31 1810.72 1326.45 Q1808.68 1327.56 1805.81 1327.56 Q1801.12 1327.56 1798.15 1323.81 Q1795.21 1320.06 1795.21 1313.95 Q1795.21 1307.84 1798.15 1304.09 Q1801.12 1300.34 1805.81 1300.34 Q1808.68 1300.34 1810.72 1301.47 Q1812.78 1302.58 1814.12 1304.9 M1799.61 1313.95 Q1799.61 1318.65 1801.53 1321.33 Q1803.48 1323.99 1806.86 1323.99 Q1810.24 1323.99 1812.18 1321.33 Q1814.12 1318.65 1814.12 1313.95 Q1814.12 1309.25 1812.18 1306.59 Q1810.24 1303.9 1806.86 1303.9 Q1803.48 1303.9 1801.53 1306.59 Q1799.61 1309.25 1799.61 1313.95 Z" fill="#000000" fill-rule="nonzero" fill-opacity="1" /><path clip-path="url(#clip250)" d="M1849.33 1312.86 L1849.33 1314.94 L1829.75 1314.94 Q1830.03 1319.34 1832.39 1321.66 Q1834.77 1323.95 1839.01 1323.95 Q1841.46 1323.95 1843.75 1323.34 Q1846.07 1322.74 1848.34 1321.54 L1848.34 1325.57 Q1846.05 1326.54 1843.64 1327.05 Q1841.23 1327.56 1838.75 1327.56 Q1832.55 1327.56 1828.92 1323.95 Q1825.3 1320.34 1825.3 1314.18 Q1825.3 1307.81 1828.73 1304.09 Q1832.18 1300.34 1838.01 1300.34 Q1843.24 1300.34 1846.28 1303.72 Q1849.33 1307.07 1849.33 1312.86 M1845.07 1311.61 Q1845.03 1308.11 1843.11 1306.03 Q1841.21 1303.95 1838.06 1303.95 Q1834.49 1303.95 1832.34 1305.96 Q1830.21 1307.97 1829.89 1311.63 L1845.07 1311.61 Z" fill="#000000" fill-rule="nonzero" fill-opacity="1" /><path clip-path="url(#clip250)" d="M1873.38 1304.9 L1873.38 1290.87 L1877.64 1290.87 L1877.64 1326.89 L1873.38 1326.89 L1873.38 1323 Q1872.04 1325.31 1869.98 1326.45 Q1867.94 1327.56 1865.07 1327.56 Q1860.37 1327.56 1857.41 1323.81 Q1854.47 1320.06 1854.47 1313.95 Q1854.47 1307.84 1857.41 1304.09 Q1860.37 1300.34 1865.07 1300.34 Q1867.94 1300.34 1869.98 1301.47 Q1872.04 1302.58 1873.38 1304.9 M1858.87 1313.95 Q1858.87 1318.65 1860.79 1321.33 Q1862.74 1323.99 1866.11 1323.99 Q1869.49 1323.99 1871.44 1321.33 Q1873.38 1318.65 1873.38 1313.95 Q1873.38 1309.25 1871.44 1306.59 Q1869.49 1303.9 1866.11 1303.9 Q1862.74 1303.9 1860.79 1306.59 Q1858.87 1309.25 1858.87 1313.95 Z" fill="#000000" fill-rule="nonzero" fill-opacity="1" /></svg>
