<?xml version="1.0" encoding="UTF-8"?>
<svg xmlns="http://www.w3.org/2000/svg" xmlns:xlink="http://www.w3.org/1999/xlink" width="500pt" height="500pt" viewBox="0 0 500 500" version="1.1">
<g id="surface119">
<path style="fill:none;stroke-width:5;stroke-linecap:butt;stroke-linejoin:miter;stroke:rgb(25.1%,38.8%,84.7%);stroke-opacity:1;stroke-miterlimit:10;" d="M 313.144531 0 L 186.855469 500 "/>
<path style=" stroke:none;fill-rule:nonzero;fill:rgb(79.6%,23.5%,20%);fill-opacity:1;" d="M 218.65625 248.601562 C 218.65625 276.21875 196.273438 298.601562 168.65625 298.601562 C 141.042969 298.601562 118.65625 276.21875 118.65625 248.601562 C 118.65625 220.988281 141.042969 198.601562 168.65625 198.601562 C 196.273438 198.601562 218.65625 220.988281 218.65625 248.601562 "/>
<path style=" stroke:none;fill-rule:nonzero;fill:rgb(22%,59.6%,14.9%);fill-opacity:1;" d="M 222.722656 255.53125 C 222.722656 283.144531 200.339844 305.53125 172.722656 305.53125 C 145.109375 305.53125 122.722656 283.144531 122.722656 255.53125 C 122.722656 227.917969 145.109375 205.53125 172.722656 205.53125 C 200.339844 205.53125 222.722656 227.917969 222.722656 255.53125 "/>
<path style=" stroke:none;fill-rule:nonzero;fill:rgb(58.4%,34.5%,69.8%);fill-opacity:1;" d="M 378.460938 280.90625 C 378.460938 308.519531 356.074219 330.90625 328.460938 330.90625 C 300.847656 330.90625 278.460938 308.519531 278.460938 280.90625 C 278.460938 253.289062 300.847656 230.90625 328.460938 230.90625 C 356.074219 230.90625 378.460938 253.289062 378.460938 280.90625 "/>
<path style=" stroke:none;fill-rule:nonzero;fill:rgb(79.6%,23.5%,20%);fill-opacity:1;" d="M 232.035156 259.777344 C 232.035156 287.390625 209.652344 309.777344 182.035156 309.777344 C 154.421875 309.777344 132.035156 287.390625 132.035156 259.777344 C 132.035156 232.160156 154.421875 209.777344 182.035156 209.777344 C 209.652344 209.777344 232.035156 232.160156 232.035156 259.777344 "/>
<path style=" stroke:none;fill-rule:nonzero;fill:rgb(22%,59.6%,14.9%);fill-opacity:1;" d="M 216.789062 252.503906 C 216.789062 280.117188 194.40625 302.503906 166.789062 302.503906 C 139.175781 302.503906 116.789062 280.117188 116.789062 252.503906 C 116.789062 224.890625 139.175781 202.503906 166.789062 202.503906 C 194.40625 202.503906 216.789062 224.890625 216.789062 252.503906 "/>
<path style=" stroke:none;fill-rule:nonzero;fill:rgb(58.4%,34.5%,69.8%);fill-opacity:1;" d="M 222.308594 252.988281 C 222.308594 280.601562 199.921875 302.988281 172.308594 302.988281 C 144.691406 302.988281 122.308594 280.601562 122.308594 252.988281 C 122.308594 225.375 144.691406 202.988281 172.308594 202.988281 C 199.921875 202.988281 222.308594 225.375 222.308594 252.988281 "/>
<path style=" stroke:none;fill-rule:nonzero;fill:rgb(79.6%,23.5%,20%);fill-opacity:1;" d="M 369.65625 297.296875 C 369.65625 324.910156 347.269531 347.296875 319.65625 347.296875 C 292.039062 347.296875 269.65625 324.910156 269.65625 297.296875 C 269.65625 269.679688 292.039062 247.296875 319.65625 247.296875 C 347.269531 247.296875 369.65625 269.679688 369.65625 297.296875 "/>
<path style=" stroke:none;fill-rule:nonzero;fill:rgb(22%,59.6%,14.9%);fill-opacity:1;" d="M 377.609375 292.972656 C 377.609375 320.589844 355.222656 342.972656 327.609375 342.972656 C 299.996094 342.972656 277.609375 320.589844 277.609375 292.972656 C 277.609375 265.359375 299.996094 242.972656 327.609375 242.972656 C 355.222656 242.972656 377.609375 265.359375 377.609375 292.972656 "/>
<path style=" stroke:none;fill-rule:nonzero;fill:rgb(58.4%,34.5%,69.8%);fill-opacity:1;" d="M 219.296875 260.089844 C 219.296875 287.703125 196.914062 310.089844 169.296875 310.089844 C 141.683594 310.089844 119.296875 287.703125 119.296875 260.089844 C 119.296875 232.476562 141.683594 210.089844 169.296875 210.089844 C 196.914062 210.089844 219.296875 232.476562 219.296875 260.089844 "/>
<path style=" stroke:none;fill-rule:nonzero;fill:rgb(79.6%,23.5%,20%);fill-opacity:1;" d="M 220.230469 254.710938 C 220.230469 282.328125 197.84375 304.710938 170.230469 304.710938 C 142.617188 304.710938 120.230469 282.328125 120.230469 254.710938 C 120.230469 227.097656 142.617188 204.710938 170.230469 204.710938 C 197.84375 204.710938 220.230469 227.097656 220.230469 254.710938 "/>
<path style=" stroke:none;fill-rule:nonzero;fill:rgb(22%,59.6%,14.9%);fill-opacity:1;" d="M 368.960938 295.542969 C 368.960938 323.160156 346.578125 345.542969 318.960938 345.542969 C 291.347656 345.542969 268.960938 323.160156 268.960938 295.542969 C 268.960938 267.929688 291.347656 245.542969 318.960938 245.542969 C 346.578125 245.542969 368.960938 267.929688 368.960938 295.542969 "/>
<path style=" stroke:none;fill-rule:nonzero;fill:rgb(58.4%,34.5%,69.8%);fill-opacity:1;" d="M 385.710938 297.21875 C 385.710938 324.832031 363.328125 347.21875 335.710938 347.21875 C 308.097656 347.21875 285.710938 324.832031 285.710938 297.21875 C 285.710938 269.605469 308.097656 247.21875 335.710938 247.21875 C 363.328125 247.21875 385.710938 269.605469 385.710938 297.21875 "/>
<path style=" stroke:none;fill-rule:nonzero;fill:rgb(79.6%,23.5%,20%);fill-opacity:1;" d="M 230.949219 255.660156 C 230.949219 283.273438 208.5625 305.660156 180.949219 305.660156 C 153.335938 305.660156 130.949219 283.273438 130.949219 255.660156 C 130.949219 228.046875 153.335938 205.660156 180.949219 205.660156 C 208.5625 205.660156 230.949219 228.046875 230.949219 255.660156 "/>
<path style=" stroke:none;fill-rule:nonzero;fill:rgb(22%,59.6%,14.9%);fill-opacity:1;" d="M 218.851562 262.433594 C 218.851562 290.050781 196.464844 312.433594 168.851562 312.433594 C 141.238281 312.433594 118.851562 290.050781 118.851562 262.433594 C 118.851562 234.820312 141.238281 212.433594 168.851562 212.433594 C 196.464844 212.433594 218.851562 234.820312 218.851562 262.433594 "/>
<path style=" stroke:none;fill-rule:nonzero;fill:rgb(58.4%,34.5%,69.8%);fill-opacity:1;" d="M 383.039062 290.460938 C 383.039062 318.074219 360.652344 340.460938 333.039062 340.460938 C 305.425781 340.460938 283.039062 318.074219 283.039062 290.460938 C 283.039062 262.84375 305.425781 240.460938 333.039062 240.460938 C 360.652344 240.460938 383.039062 262.84375 383.039062 290.460938 "/>
<path style=" stroke:none;fill-rule:nonzero;fill:rgb(79.6%,23.5%,20%);fill-opacity:1;" d="M 223.976562 256.535156 C 223.976562 284.148438 201.589844 306.535156 173.976562 306.535156 C 146.363281 306.535156 123.976562 284.148438 123.976562 256.535156 C 123.976562 228.921875 146.363281 206.535156 173.976562 206.535156 C 201.589844 206.535156 223.976562 228.921875 223.976562 256.535156 "/>
<path style=" stroke:none;fill-rule:nonzero;fill:rgb(22%,59.6%,14.9%);fill-opacity:1;" d="M 229.289062 265.425781 C 229.289062 293.042969 206.902344 315.425781 179.289062 315.425781 C 151.671875 315.425781 129.289062 293.042969 129.289062 265.425781 C 129.289062 237.8125 151.671875 215.425781 179.289062 215.425781 C 206.902344 215.425781 229.289062 237.8125 229.289062 265.425781 "/>
<path style=" stroke:none;fill-rule:nonzero;fill:rgb(58.4%,34.5%,69.8%);fill-opacity:1;" d="M 377.453125 296.066406 C 377.453125 323.679688 355.066406 346.066406 327.453125 346.066406 C 299.835938 346.066406 277.453125 323.679688 277.453125 296.066406 C 277.453125 268.453125 299.835938 246.066406 327.453125 246.066406 C 355.066406 246.066406 377.453125 268.453125 377.453125 296.066406 "/>
<path style=" stroke:none;fill-rule:nonzero;fill:rgb(79.6%,23.5%,20%);fill-opacity:1;" d="M 227.097656 254.21875 C 227.097656 281.832031 204.710938 304.21875 177.097656 304.21875 C 149.484375 304.21875 127.097656 281.832031 127.097656 254.21875 C 127.097656 226.605469 149.484375 204.21875 177.097656 204.21875 C 204.710938 204.21875 227.097656 226.605469 227.097656 254.21875 "/>
<path style=" stroke:none;fill-rule:nonzero;fill:rgb(22%,59.6%,14.9%);fill-opacity:1;" d="M 220.09375 249.078125 C 220.09375 276.691406 197.707031 299.078125 170.09375 299.078125 C 142.476562 299.078125 120.09375 276.691406 120.09375 249.078125 C 120.09375 221.460938 142.476562 199.078125 170.09375 199.078125 C 197.707031 199.078125 220.09375 221.460938 220.09375 249.078125 "/>
</g>
</svg>
