<?xml version="1.0" encoding="UTF-8"?>
<svg xmlns="http://www.w3.org/2000/svg" xmlns:xlink="http://www.w3.org/1999/xlink" width="500pt" height="500pt" viewBox="0 0 500 500" version="1.1">
<defs>
<clipPath id="clip1">
  <path d="M 500 250 C 500 388.070312 388.070312 500 250 500 C 111.929688 500 0 388.070312 0 250 C 0 111.929688 111.929688 0 250 0 C 388.070312 0 500 111.929688 500 250 "/>
</clipPath>
<clipPath id="clip2">
  <path d="M 88 104 L 149 104 L 149 165 L 88 165 Z M 88 104 "/>
</clipPath>
<clipPath id="clip3">
  <path d="M 500 250 C 500 388.070312 388.070312 500 250 500 C 111.929688 500 0 388.070312 0 250 C 0 111.929688 111.929688 0 250 0 C 388.070312 0 500 111.929688 500 250 "/>
</clipPath>
<clipPath id="clip4">
  <path d="M 41 75 L 102 75 L 102 136 L 41 136 Z M 41 75 "/>
</clipPath>
<clipPath id="clip5">
  <path d="M 500 250 C 500 388.070312 388.070312 500 250 500 C 111.929688 500 0 388.070312 0 250 C 0 111.929688 111.929688 0 250 0 C 388.070312 0 500 111.929688 500 250 "/>
</clipPath>
<clipPath id="clip6">
  <path d="M 371 294 L 432 294 L 432 355 L 371 355 Z M 371 294 "/>
</clipPath>
<clipPath id="clip7">
  <path d="M 500 250 C 500 388.070312 388.070312 500 250 500 C 111.929688 500 0 388.070312 0 250 C 0 111.929688 111.929688 0 250 0 C 388.070312 0 500 111.929688 500 250 "/>
</clipPath>
<clipPath id="clip8">
  <path d="M 432 269 L 493 269 L 493 330 L 432 330 Z M 432 269 "/>
</clipPath>
<clipPath id="clip9">
  <path d="M 500 250 C 500 388.070312 388.070312 500 250 500 C 111.929688 500 0 388.070312 0 250 C 0 111.929688 111.929688 0 250 0 C 388.070312 0 500 111.929688 500 250 "/>
</clipPath>
<clipPath id="clip10">
  <path d="M 463 266 L 500 266 L 500 327 L 463 327 Z M 463 266 "/>
</clipPath>
<clipPath id="clip11">
  <path d="M 500 250 C 500 388.070312 388.070312 500 250 500 C 111.929688 500 0 388.070312 0 250 C 0 111.929688 111.929688 0 250 0 C 388.070312 0 500 111.929688 500 250 "/>
</clipPath>
<clipPath id="clip12">
  <path d="M 346 321 L 407 321 L 407 382 L 346 382 Z M 346 321 "/>
</clipPath>
<clipPath id="clip13">
  <path d="M 500 250 C 500 388.070312 388.070312 500 250 500 C 111.929688 500 0 388.070312 0 250 C 0 111.929688 111.929688 0 250 0 C 388.070312 0 500 111.929688 500 250 "/>
</clipPath>
<clipPath id="clip14">
  <path d="M 415 258 L 476 258 L 476 319 L 415 319 Z M 415 258 "/>
</clipPath>
<clipPath id="clip15">
  <path d="M 500 250 C 500 388.070312 388.070312 500 250 500 C 111.929688 500 0 388.070312 0 250 C 0 111.929688 111.929688 0 250 0 C 388.070312 0 500 111.929688 500 250 "/>
</clipPath>
<clipPath id="clip16">
  <path d="M 432 303 L 493 303 L 493 364 L 432 364 Z M 432 303 "/>
</clipPath>
<clipPath id="clip17">
  <path d="M 500 250 C 500 388.070312 388.070312 500 250 500 C 111.929688 500 0 388.070312 0 250 C 0 111.929688 111.929688 0 250 0 C 388.070312 0 500 111.929688 500 250 "/>
</clipPath>
<clipPath id="clip18">
  <path d="M 82 170 L 143 170 L 143 231 L 82 231 Z M 82 170 "/>
</clipPath>
<clipPath id="clip19">
  <path d="M 500 250 C 500 388.070312 388.070312 500 250 500 C 111.929688 500 0 388.070312 0 250 C 0 111.929688 111.929688 0 250 0 C 388.070312 0 500 111.929688 500 250 "/>
</clipPath>
<clipPath id="clip20">
  <path d="M 122 170 L 183 170 L 183 231 L 122 231 Z M 122 170 "/>
</clipPath>
<clipPath id="clip21">
  <path d="M 500 250 C 500 388.070312 388.070312 500 250 500 C 111.929688 500 0 388.070312 0 250 C 0 111.929688 111.929688 0 250 0 C 388.070312 0 500 111.929688 500 250 "/>
</clipPath>
<clipPath id="clip22">
  <path d="M 114 90 L 175 90 L 175 151 L 114 151 Z M 114 90 "/>
</clipPath>
<clipPath id="clip23">
  <path d="M 500 250 C 500 388.070312 388.070312 500 250 500 C 111.929688 500 0 388.070312 0 250 C 0 111.929688 111.929688 0 250 0 C 388.070312 0 500 111.929688 500 250 "/>
</clipPath>
<clipPath id="clip24">
  <path d="M 386 273 L 447 273 L 447 334 L 386 334 Z M 386 273 "/>
</clipPath>
<clipPath id="clip25">
  <path d="M 500 250 C 500 388.070312 388.070312 500 250 500 C 111.929688 500 0 388.070312 0 250 C 0 111.929688 111.929688 0 250 0 C 388.070312 0 500 111.929688 500 250 "/>
</clipPath>
<clipPath id="clip26">
  <path d="M 127 210 L 188 210 L 188 271 L 127 271 Z M 127 210 "/>
</clipPath>
<clipPath id="clip27">
  <path d="M 500 250 C 500 388.070312 388.070312 500 250 500 C 111.929688 500 0 388.070312 0 250 C 0 111.929688 111.929688 0 250 0 C 388.070312 0 500 111.929688 500 250 "/>
</clipPath>
<clipPath id="clip28">
  <path d="M 370 283 L 431 283 L 431 344 L 370 344 Z M 370 283 "/>
</clipPath>
<clipPath id="clip29">
  <path d="M 500 250 C 500 388.070312 388.070312 500 250 500 C 111.929688 500 0 388.070312 0 250 C 0 111.929688 111.929688 0 250 0 C 388.070312 0 500 111.929688 500 250 "/>
</clipPath>
<clipPath id="clip30">
  <path d="M 65 95 L 126 95 L 126 156 L 65 156 Z M 65 95 "/>
</clipPath>
<clipPath id="clip31">
  <path d="M 500 250 C 500 388.070312 388.070312 500 250 500 C 111.929688 500 0 388.070312 0 250 C 0 111.929688 111.929688 0 250 0 C 388.070312 0 500 111.929688 500 250 "/>
</clipPath>
<clipPath id="clip32">
  <path d="M 382 229 L 443 229 L 443 290 L 382 290 Z M 382 229 "/>
</clipPath>
<clipPath id="clip33">
  <path d="M 500 250 C 500 388.070312 388.070312 500 250 500 C 111.929688 500 0 388.070312 0 250 C 0 111.929688 111.929688 0 250 0 C 388.070312 0 500 111.929688 500 250 "/>
</clipPath>
<clipPath id="clip34">
  <path d="M 86 137 L 147 137 L 147 198 L 86 198 Z M 86 137 "/>
</clipPath>
<clipPath id="clip35">
  <path d="M 500 250 C 500 388.070312 388.070312 500 250 500 C 111.929688 500 0 388.070312 0 250 C 0 111.929688 111.929688 0 250 0 C 388.070312 0 500 111.929688 500 250 "/>
</clipPath>
<clipPath id="clip36">
  <path d="M 88 157 L 149 157 L 149 218 L 88 218 Z M 88 157 "/>
</clipPath>
<clipPath id="clip37">
  <path d="M 500 250 C 500 388.070312 388.070312 500 250 500 C 111.929688 500 0 388.070312 0 250 C 0 111.929688 111.929688 0 250 0 C 388.070312 0 500 111.929688 500 250 "/>
</clipPath>
<clipPath id="clip38">
  <path d="M 451 254 L 500 254 L 500 315 L 451 315 Z M 451 254 "/>
</clipPath>
<clipPath id="clip39">
  <path d="M 500 250 C 500 388.070312 388.070312 500 250 500 C 111.929688 500 0 388.070312 0 250 C 0 111.929688 111.929688 0 250 0 C 388.070312 0 500 111.929688 500 250 "/>
</clipPath>
<clipPath id="clip40">
  <path d="M 59 127 L 120 127 L 120 188 L 59 188 Z M 59 127 "/>
</clipPath>
<clipPath id="clip41">
  <path d="M 500 250 C 500 388.070312 388.070312 500 250 500 C 111.929688 500 0 388.070312 0 250 C 0 111.929688 111.929688 0 250 0 C 388.070312 0 500 111.929688 500 250 "/>
</clipPath>
<clipPath id="clip42">
  <path d="M 122 118 L 183 118 L 183 179 L 122 179 Z M 122 118 "/>
</clipPath>
<clipPath id="clip43">
  <path d="M 500 250 C 500 388.070312 388.070312 500 250 500 C 111.929688 500 0 388.070312 0 250 C 0 111.929688 111.929688 0 250 0 C 388.070312 0 500 111.929688 500 250 "/>
</clipPath>
<clipPath id="clip44">
  <path d="M 44 178 L 105 178 L 105 239 L 44 239 Z M 44 178 "/>
</clipPath>
<clipPath id="clip45">
  <path d="M 500 250 C 500 388.070312 388.070312 500 250 500 C 111.929688 500 0 388.070312 0 250 C 0 111.929688 111.929688 0 250 0 C 388.070312 0 500 111.929688 500 250 "/>
</clipPath>
<clipPath id="clip46">
  <path d="M 122 103 L 183 103 L 183 164 L 122 164 Z M 122 103 "/>
</clipPath>
<clipPath id="clip47">
  <path d="M 500 250 C 500 388.070312 388.070312 500 250 500 C 111.929688 500 0 388.070312 0 250 C 0 111.929688 111.929688 0 250 0 C 388.070312 0 500 111.929688 500 250 "/>
</clipPath>
<clipPath id="clip48">
  <path d="M 85 187 L 146 187 L 146 248 L 85 248 Z M 85 187 "/>
</clipPath>
<clipPath id="clip49">
  <path d="M 500 250 C 500 388.070312 388.070312 500 250 500 C 111.929688 500 0 388.070312 0 250 C 0 111.929688 111.929688 0 250 0 C 388.070312 0 500 111.929688 500 250 "/>
</clipPath>
<clipPath id="clip50">
  <path d="M 98 138 L 159 138 L 159 199 L 98 199 Z M 98 138 "/>
</clipPath>
<clipPath id="clip51">
  <path d="M 500 250 C 500 388.070312 388.070312 500 250 500 C 111.929688 500 0 388.070312 0 250 C 0 111.929688 111.929688 0 250 0 C 388.070312 0 500 111.929688 500 250 "/>
</clipPath>
<clipPath id="clip52">
  <path d="M 325 331 L 386 331 L 386 392 L 325 392 Z M 325 331 "/>
</clipPath>
<clipPath id="clip53">
  <path d="M 500 250 C 500 388.070312 388.070312 500 250 500 C 111.929688 500 0 388.070312 0 250 C 0 111.929688 111.929688 0 250 0 C 388.070312 0 500 111.929688 500 250 "/>
</clipPath>
<clipPath id="clip54">
  <path d="M 83 137 L 144 137 L 144 198 L 83 198 Z M 83 137 "/>
</clipPath>
<clipPath id="clip55">
  <path d="M 500 250 C 500 388.070312 388.070312 500 250 500 C 111.929688 500 0 388.070312 0 250 C 0 111.929688 111.929688 0 250 0 C 388.070312 0 500 111.929688 500 250 "/>
</clipPath>
<clipPath id="clip56">
  <path d="M 38 119 L 99 119 L 99 180 L 38 180 Z M 38 119 "/>
</clipPath>
<clipPath id="clip57">
  <path d="M 500 250 C 500 388.070312 388.070312 500 250 500 C 111.929688 500 0 388.070312 0 250 C 0 111.929688 111.929688 0 250 0 C 388.070312 0 500 111.929688 500 250 "/>
</clipPath>
<clipPath id="clip58">
  <path d="M 69 104 L 130 104 L 130 165 L 69 165 Z M 69 104 "/>
</clipPath>
<clipPath id="clip59">
  <path d="M 500 250 C 500 388.070312 388.070312 500 250 500 C 111.929688 500 0 388.070312 0 250 C 0 111.929688 111.929688 0 250 0 C 388.070312 0 500 111.929688 500 250 "/>
</clipPath>
<clipPath id="clip60">
  <path d="M 78 120 L 139 120 L 139 181 L 78 181 Z M 78 120 "/>
</clipPath>
<clipPath id="clip61">
  <path d="M 500 250 C 500 388.070312 388.070312 500 250 500 C 111.929688 500 0 388.070312 0 250 C 0 111.929688 111.929688 0 250 0 C 388.070312 0 500 111.929688 500 250 "/>
</clipPath>
<clipPath id="clip62">
  <path d="M 409 303 L 470 303 L 470 364 L 409 364 Z M 409 303 "/>
</clipPath>
<clipPath id="clip63">
  <path d="M 500 250 C 500 388.070312 388.070312 500 250 500 C 111.929688 500 0 388.070312 0 250 C 0 111.929688 111.929688 0 250 0 C 388.070312 0 500 111.929688 500 250 "/>
</clipPath>
<clipPath id="clip64">
  <path d="M 383 259 L 444 259 L 444 320 L 383 320 Z M 383 259 "/>
</clipPath>
<clipPath id="clip65">
  <path d="M 500 250 C 500 388.070312 388.070312 500 250 500 C 111.929688 500 0 388.070312 0 250 C 0 111.929688 111.929688 0 250 0 C 388.070312 0 500 111.929688 500 250 "/>
</clipPath>
<clipPath id="clip66">
  <path d="M 86 136 L 147 136 L 147 197 L 86 197 Z M 86 136 "/>
</clipPath>
<clipPath id="clip67">
  <path d="M 500 250 C 500 388.070312 388.070312 500 250 500 C 111.929688 500 0 388.070312 0 250 C 0 111.929688 111.929688 0 250 0 C 388.070312 0 500 111.929688 500 250 "/>
</clipPath>
<clipPath id="clip68">
  <path d="M 483 287 L 500 287 L 500 348 L 483 348 Z M 483 287 "/>
</clipPath>
<clipPath id="clip69">
  <path d="M 500 250 C 500 388.070312 388.070312 500 250 500 C 111.929688 500 0 388.070312 0 250 C 0 111.929688 111.929688 0 250 0 C 388.070312 0 500 111.929688 500 250 "/>
</clipPath>
<clipPath id="clip70">
  <path d="M 166 180 L 227 180 L 227 241 L 166 241 Z M 166 180 "/>
</clipPath>
<clipPath id="clip71">
  <path d="M 500 250 C 500 388.070312 388.070312 500 250 500 C 111.929688 500 0 388.070312 0 250 C 0 111.929688 111.929688 0 250 0 C 388.070312 0 500 111.929688 500 250 "/>
</clipPath>
<clipPath id="clip72">
  <path d="M 104 124 L 165 124 L 165 185 L 104 185 Z M 104 124 "/>
</clipPath>
<clipPath id="clip73">
  <path d="M 500 250 C 500 388.070312 388.070312 500 250 500 C 111.929688 500 0 388.070312 0 250 C 0 111.929688 111.929688 0 250 0 C 388.070312 0 500 111.929688 500 250 "/>
</clipPath>
<clipPath id="clip74">
  <path d="M 425 342 L 486 342 L 486 403 L 425 403 Z M 425 342 "/>
</clipPath>
<clipPath id="clip75">
  <path d="M 500 250 C 500 388.070312 388.070312 500 250 500 C 111.929688 500 0 388.070312 0 250 C 0 111.929688 111.929688 0 250 0 C 388.070312 0 500 111.929688 500 250 "/>
</clipPath>
<clipPath id="clip76">
  <path d="M 64 248 L 125 248 L 125 309 L 64 309 Z M 64 248 "/>
</clipPath>
<clipPath id="clip77">
  <path d="M 500 250 C 500 388.070312 388.070312 500 250 500 C 111.929688 500 0 388.070312 0 250 C 0 111.929688 111.929688 0 250 0 C 388.070312 0 500 111.929688 500 250 "/>
</clipPath>
<clipPath id="clip78">
  <path d="M 460 293 L 500 293 L 500 354 L 460 354 Z M 460 293 "/>
</clipPath>
<clipPath id="clip79">
  <path d="M 500 250 C 500 388.070312 388.070312 500 250 500 C 111.929688 500 0 388.070312 0 250 C 0 111.929688 111.929688 0 250 0 C 388.070312 0 500 111.929688 500 250 "/>
</clipPath>
<clipPath id="clip80">
  <path d="M 169 127 L 230 127 L 230 188 L 169 188 Z M 169 127 "/>
</clipPath>
<clipPath id="clip81">
  <path d="M 500 250 C 500 388.070312 388.070312 500 250 500 C 111.929688 500 0 388.070312 0 250 C 0 111.929688 111.929688 0 250 0 C 388.070312 0 500 111.929688 500 250 "/>
</clipPath>
<clipPath id="clip82">
  <path d="M 455 302 L 500 302 L 500 363 L 455 363 Z M 455 302 "/>
</clipPath>
<clipPath id="clip83">
  <path d="M 500 250 C 500 388.070312 388.070312 500 250 500 C 111.929688 500 0 388.070312 0 250 C 0 111.929688 111.929688 0 250 0 C 388.070312 0 500 111.929688 500 250 "/>
</clipPath>
<clipPath id="clip84">
  <path d="M 84 105 L 145 105 L 145 166 L 84 166 Z M 84 105 "/>
</clipPath>
<clipPath id="clip85">
  <path d="M 500 250 C 500 388.070312 388.070312 500 250 500 C 111.929688 500 0 388.070312 0 250 C 0 111.929688 111.929688 0 250 0 C 388.070312 0 500 111.929688 500 250 "/>
</clipPath>
<clipPath id="clip86">
  <path d="M 357 194 L 418 194 L 418 255 L 357 255 Z M 357 194 "/>
</clipPath>
<clipPath id="clip87">
  <path d="M 500 250 C 500 388.070312 388.070312 500 250 500 C 111.929688 500 0 388.070312 0 250 C 0 111.929688 111.929688 0 250 0 C 388.070312 0 500 111.929688 500 250 "/>
</clipPath>
<clipPath id="clip88">
  <path d="M 108 164 L 169 164 L 169 225 L 108 225 Z M 108 164 "/>
</clipPath>
<clipPath id="clip89">
  <path d="M 500 250 C 500 388.070312 388.070312 500 250 500 C 111.929688 500 0 388.070312 0 250 C 0 111.929688 111.929688 0 250 0 C 388.070312 0 500 111.929688 500 250 "/>
</clipPath>
<clipPath id="clip90">
  <path d="M 386 352 L 447 352 L 447 413 L 386 413 Z M 386 352 "/>
</clipPath>
<clipPath id="clip91">
  <path d="M 500 250 C 500 388.070312 388.070312 500 250 500 C 111.929688 500 0 388.070312 0 250 C 0 111.929688 111.929688 0 250 0 C 388.070312 0 500 111.929688 500 250 "/>
</clipPath>
<clipPath id="clip92">
  <path d="M 426 232 L 487 232 L 487 293 L 426 293 Z M 426 232 "/>
</clipPath>
<clipPath id="clip93">
  <path d="M 500 250 C 500 388.070312 388.070312 500 250 500 C 111.929688 500 0 388.070312 0 250 C 0 111.929688 111.929688 0 250 0 C 388.070312 0 500 111.929688 500 250 "/>
</clipPath>
<clipPath id="clip94">
  <path d="M 15 161 L 76 161 L 76 222 L 15 222 Z M 15 161 "/>
</clipPath>
<clipPath id="clip95">
  <path d="M 500 250 C 500 388.070312 388.070312 500 250 500 C 111.929688 500 0 388.070312 0 250 C 0 111.929688 111.929688 0 250 0 C 388.070312 0 500 111.929688 500 250 "/>
</clipPath>
<clipPath id="clip96">
  <path d="M 427 270 L 488 270 L 488 331 L 427 331 Z M 427 270 "/>
</clipPath>
<clipPath id="clip97">
  <path d="M 500 250 C 500 388.070312 388.070312 500 250 500 C 111.929688 500 0 388.070312 0 250 C 0 111.929688 111.929688 0 250 0 C 388.070312 0 500 111.929688 500 250 "/>
</clipPath>
<clipPath id="clip98">
  <path d="M 43 112 L 104 112 L 104 173 L 43 173 Z M 43 112 "/>
</clipPath>
<clipPath id="clip99">
  <path d="M 500 250 C 500 388.070312 388.070312 500 250 500 C 111.929688 500 0 388.070312 0 250 C 0 111.929688 111.929688 0 250 0 C 388.070312 0 500 111.929688 500 250 "/>
</clipPath>
<clipPath id="clip100">
  <path d="M 65 134 L 126 134 L 126 195 L 65 195 Z M 65 134 "/>
</clipPath>
<clipPath id="clip101">
  <path d="M 500 250 C 500 388.070312 388.070312 500 250 500 C 111.929688 500 0 388.070312 0 250 C 0 111.929688 111.929688 0 250 0 C 388.070312 0 500 111.929688 500 250 "/>
</clipPath>
<clipPath id="clip102">
  <path d="M 112 149 L 173 149 L 173 210 L 112 210 Z M 112 149 "/>
</clipPath>
<clipPath id="clip103">
  <path d="M 500 250 C 500 388.070312 388.070312 500 250 500 C 111.929688 500 0 388.070312 0 250 C 0 111.929688 111.929688 0 250 0 C 388.070312 0 500 111.929688 500 250 "/>
</clipPath>
<clipPath id="clip104">
  <path d="M 158 164 L 219 164 L 219 225 L 158 225 Z M 158 164 "/>
</clipPath>
<clipPath id="clip105">
  <path d="M 500 250 C 500 388.070312 388.070312 500 250 500 C 111.929688 500 0 388.070312 0 250 C 0 111.929688 111.929688 0 250 0 C 388.070312 0 500 111.929688 500 250 "/>
</clipPath>
<clipPath id="clip106">
  <path d="M 203 180 L 264 180 L 264 241 L 203 241 Z M 203 180 "/>
</clipPath>
<clipPath id="clip107">
  <path d="M 500 250 C 500 388.070312 388.070312 500 250 500 C 111.929688 500 0 388.070312 0 250 C 0 111.929688 111.929688 0 250 0 C 388.070312 0 500 111.929688 500 250 "/>
</clipPath>
<clipPath id="clip108">
  <path d="M 245 194 L 306 194 L 306 255 L 245 255 Z M 245 194 "/>
</clipPath>
<clipPath id="clip109">
  <path d="M 500 250 C 500 388.070312 388.070312 500 250 500 C 111.929688 500 0 388.070312 0 250 C 0 111.929688 111.929688 0 250 0 C 388.070312 0 500 111.929688 500 250 "/>
</clipPath>
<clipPath id="clip110">
  <path d="M 278 205 L 339 205 L 339 266 L 278 266 Z M 278 205 "/>
</clipPath>
<clipPath id="clip111">
  <path d="M 500 250 C 500 388.070312 388.070312 500 250 500 C 111.929688 500 0 388.070312 0 250 C 0 111.929688 111.929688 0 250 0 C 388.070312 0 500 111.929688 500 250 "/>
</clipPath>
<clipPath id="clip112">
  <path d="M 303 213 L 364 213 L 364 274 L 303 274 Z M 303 213 "/>
</clipPath>
<clipPath id="clip113">
  <path d="M 500 250 C 500 388.070312 388.070312 500 250 500 C 111.929688 500 0 388.070312 0 250 C 0 111.929688 111.929688 0 250 0 C 388.070312 0 500 111.929688 500 250 "/>
</clipPath>
<clipPath id="clip114">
  <path d="M 319 215 L 392 215 L 392 288 L 319 288 Z M 319 215 "/>
</clipPath>
<clipPath id="clip115">
  <path d="M 500 250 C 500 388.070312 388.070312 500 250 500 C 111.929688 500 0 388.070312 0 250 C 0 111.929688 111.929688 0 250 0 C 388.070312 0 500 111.929688 500 250 "/>
</clipPath>
</defs>
<g id="surface525">
<g clip-path="url(#clip1)" clip-rule="nonzero">
<path style="fill:none;stroke-width:2;stroke-linecap:butt;stroke-linejoin:miter;stroke:rgb(25.1%,38.8%,84.7%);stroke-opacity:1;stroke-miterlimit:10;" d="M 500 250 C 500 388.070312 388.070312 500 250 500 C 111.929688 500 0 388.070312 0 250 C 0 111.929688 111.929688 0 250 0 C 388.070312 0 500 111.929688 500 250 "/>
<path style="fill:none;stroke-width:6.666667;stroke-linecap:butt;stroke-linejoin:miter;stroke:rgb(22%,59.6%,14.9%);stroke-opacity:0.5;stroke-miterlimit:10;" d="M 445.507812 0 L 55.964844 500 "/>
</g>
<g clip-path="url(#clip2)" clip-rule="nonzero">
<g clip-path="url(#clip3)" clip-rule="nonzero">
<path style=" stroke:none;fill-rule:nonzero;fill:rgb(58.4%,34.5%,69.8%);fill-opacity:0.2;" d="M 148.472656 134.984375 C 148.472656 151.554688 135.039062 164.984375 118.472656 164.984375 C 101.902344 164.984375 88.472656 151.554688 88.472656 134.984375 C 88.472656 118.417969 101.902344 104.984375 118.472656 104.984375 C 135.039062 104.984375 148.472656 118.417969 148.472656 134.984375 "/>
</g>
</g>
<g clip-path="url(#clip4)" clip-rule="nonzero">
<g clip-path="url(#clip5)" clip-rule="nonzero">
<path style=" stroke:none;fill-rule:nonzero;fill:rgb(58.4%,34.5%,69.8%);fill-opacity:0.2;" d="M 101.988281 105.625 C 101.988281 122.191406 88.558594 135.625 71.988281 135.625 C 55.421875 135.625 41.988281 122.191406 41.988281 105.625 C 41.988281 89.054688 55.421875 75.625 71.988281 75.625 C 88.558594 75.625 101.988281 89.054688 101.988281 105.625 "/>
</g>
</g>
<g clip-path="url(#clip6)" clip-rule="nonzero">
<g clip-path="url(#clip7)" clip-rule="nonzero">
<path style=" stroke:none;fill-rule:nonzero;fill:rgb(79.6%,23.5%,20%);fill-opacity:0.2;" d="M 431.351562 324.585938 C 431.351562 341.152344 417.917969 354.585938 401.351562 354.585938 C 384.78125 354.585938 371.351562 341.152344 371.351562 324.585938 C 371.351562 308.015625 384.78125 294.585938 401.351562 294.585938 C 417.917969 294.585938 431.351562 308.015625 431.351562 324.585938 "/>
</g>
</g>
<g clip-path="url(#clip8)" clip-rule="nonzero">
<g clip-path="url(#clip9)" clip-rule="nonzero">
<path style=" stroke:none;fill-rule:nonzero;fill:rgb(79.6%,23.5%,20%);fill-opacity:0.2;" d="M 492.070312 299.128906 C 492.070312 315.699219 478.636719 329.128906 462.070312 329.128906 C 445.5 329.128906 432.070312 315.699219 432.070312 299.128906 C 432.070312 282.5625 445.5 269.128906 462.070312 269.128906 C 478.636719 269.128906 492.070312 282.5625 492.070312 299.128906 "/>
</g>
</g>
<g clip-path="url(#clip10)" clip-rule="nonzero">
<g clip-path="url(#clip11)" clip-rule="nonzero">
<path style=" stroke:none;fill-rule:nonzero;fill:rgb(79.6%,23.5%,20%);fill-opacity:0.2;" d="M 523.339844 296.730469 C 523.339844 313.300781 509.90625 326.730469 493.339844 326.730469 C 476.769531 326.730469 463.339844 313.300781 463.339844 296.730469 C 463.339844 280.164062 476.769531 266.730469 493.339844 266.730469 C 509.90625 266.730469 523.339844 280.164062 523.339844 296.730469 "/>
</g>
</g>
<g clip-path="url(#clip12)" clip-rule="nonzero">
<g clip-path="url(#clip13)" clip-rule="nonzero">
<path style=" stroke:none;fill-rule:nonzero;fill:rgb(79.6%,23.5%,20%);fill-opacity:0.2;" d="M 406.582031 351.839844 C 406.582031 368.410156 393.152344 381.839844 376.582031 381.839844 C 360.015625 381.839844 346.582031 368.410156 346.582031 351.839844 C 346.582031 335.273438 360.015625 321.839844 376.582031 321.839844 C 393.152344 321.839844 406.582031 335.273438 406.582031 351.839844 "/>
</g>
</g>
<g clip-path="url(#clip14)" clip-rule="nonzero">
<g clip-path="url(#clip15)" clip-rule="nonzero">
<path style=" stroke:none;fill-rule:nonzero;fill:rgb(79.6%,23.5%,20%);fill-opacity:0.2;" d="M 475.503906 288.738281 C 475.503906 305.308594 462.070312 318.738281 445.503906 318.738281 C 428.933594 318.738281 415.503906 305.308594 415.503906 288.738281 C 415.503906 272.171875 428.933594 258.738281 445.503906 258.738281 C 462.070312 258.738281 475.503906 272.171875 475.503906 288.738281 "/>
</g>
</g>
<g clip-path="url(#clip16)" clip-rule="nonzero">
<g clip-path="url(#clip17)" clip-rule="nonzero">
<path style=" stroke:none;fill-rule:nonzero;fill:rgb(79.6%,23.5%,20%);fill-opacity:0.2;" d="M 492.808594 333.367188 C 492.808594 349.9375 479.378906 363.367188 462.808594 363.367188 C 446.238281 363.367188 432.808594 349.9375 432.808594 333.367188 C 432.808594 316.800781 446.238281 303.367188 462.808594 303.367188 C 479.378906 303.367188 492.808594 316.800781 492.808594 333.367188 "/>
</g>
</g>
<g clip-path="url(#clip18)" clip-rule="nonzero">
<g clip-path="url(#clip19)" clip-rule="nonzero">
<path style=" stroke:none;fill-rule:nonzero;fill:rgb(58.4%,34.5%,69.8%);fill-opacity:0.2;" d="M 142.476562 200.222656 C 142.476562 216.789062 129.046875 230.222656 112.476562 230.222656 C 95.910156 230.222656 82.476562 216.789062 82.476562 200.222656 C 82.476562 183.652344 95.910156 170.222656 112.476562 170.222656 C 129.046875 170.222656 142.476562 183.652344 142.476562 200.222656 "/>
</g>
</g>
<g clip-path="url(#clip20)" clip-rule="nonzero">
<g clip-path="url(#clip21)" clip-rule="nonzero">
<path style=" stroke:none;fill-rule:nonzero;fill:rgb(58.4%,34.5%,69.8%);fill-opacity:0.2;" d="M 182.085938 200.535156 C 182.085938 217.101562 168.65625 230.535156 152.085938 230.535156 C 135.515625 230.535156 122.085938 217.101562 122.085938 200.535156 C 122.085938 183.964844 135.515625 170.535156 152.085938 170.535156 C 168.65625 170.535156 182.085938 183.964844 182.085938 200.535156 "/>
</g>
</g>
<g clip-path="url(#clip22)" clip-rule="nonzero">
<g clip-path="url(#clip23)" clip-rule="nonzero">
<path style=" stroke:none;fill-rule:nonzero;fill:rgb(58.4%,34.5%,69.8%);fill-opacity:0.2;" d="M 174.3125 120.710938 C 174.3125 137.277344 160.882812 150.710938 144.3125 150.710938 C 127.746094 150.710938 114.3125 137.277344 114.3125 120.710938 C 114.3125 104.140625 127.746094 90.710938 144.3125 90.710938 C 160.882812 90.710938 174.3125 104.140625 174.3125 120.710938 "/>
</g>
</g>
<g clip-path="url(#clip24)" clip-rule="nonzero">
<g clip-path="url(#clip25)" clip-rule="nonzero">
<path style=" stroke:none;fill-rule:nonzero;fill:rgb(79.6%,23.5%,20%);fill-opacity:0.2;" d="M 446.492188 303.667969 C 446.492188 320.234375 433.0625 333.667969 416.492188 333.667969 C 399.921875 333.667969 386.492188 320.234375 386.492188 303.667969 C 386.492188 287.097656 399.921875 273.667969 416.492188 273.667969 C 433.0625 273.667969 446.492188 287.097656 446.492188 303.667969 "/>
</g>
</g>
<g clip-path="url(#clip26)" clip-rule="nonzero">
<g clip-path="url(#clip27)" clip-rule="nonzero">
<path style=" stroke:none;fill-rule:nonzero;fill:rgb(58.4%,34.5%,69.8%);fill-opacity:0.2;" d="M 187.765625 240.898438 C 187.765625 257.46875 174.335938 270.898438 157.765625 270.898438 C 141.199219 270.898438 127.765625 257.46875 127.765625 240.898438 C 127.765625 224.332031 141.199219 210.898438 157.765625 210.898438 C 174.335938 210.898438 187.765625 224.332031 187.765625 240.898438 "/>
</g>
</g>
<g clip-path="url(#clip28)" clip-rule="nonzero">
<g clip-path="url(#clip29)" clip-rule="nonzero">
<path style=" stroke:none;fill-rule:nonzero;fill:rgb(79.6%,23.5%,20%);fill-opacity:0.2;" d="M 430.886719 313.539062 C 430.886719 330.109375 417.453125 343.539062 400.886719 343.539062 C 384.316406 343.539062 370.886719 330.109375 370.886719 313.539062 C 370.886719 296.96875 384.316406 283.539062 400.886719 283.539062 C 417.453125 283.539062 430.886719 296.96875 430.886719 313.539062 "/>
</g>
</g>
<g clip-path="url(#clip30)" clip-rule="nonzero">
<g clip-path="url(#clip31)" clip-rule="nonzero">
<path style=" stroke:none;fill-rule:nonzero;fill:rgb(58.4%,34.5%,69.8%);fill-opacity:0.2;" d="M 125.445312 125.414062 C 125.445312 141.984375 112.011719 155.414062 95.445312 155.414062 C 78.875 155.414062 65.445312 141.984375 65.445312 125.414062 C 65.445312 108.847656 78.875 95.414062 95.445312 95.414062 C 112.011719 95.414062 125.445312 108.847656 125.445312 125.414062 "/>
</g>
</g>
<g clip-path="url(#clip32)" clip-rule="nonzero">
<g clip-path="url(#clip33)" clip-rule="nonzero">
<path style=" stroke:none;fill-rule:nonzero;fill:rgb(79.6%,23.5%,20%);fill-opacity:0.2;" d="M 442.019531 259.972656 C 442.019531 276.542969 428.589844 289.972656 412.019531 289.972656 C 395.453125 289.972656 382.019531 276.542969 382.019531 259.972656 C 382.019531 243.402344 395.453125 229.972656 412.019531 229.972656 C 428.589844 229.972656 442.019531 243.402344 442.019531 259.972656 "/>
</g>
</g>
<g clip-path="url(#clip34)" clip-rule="nonzero">
<g clip-path="url(#clip35)" clip-rule="nonzero">
<path style=" stroke:none;fill-rule:nonzero;fill:rgb(58.4%,34.5%,69.8%);fill-opacity:0.2;" d="M 146.914062 167.816406 C 146.914062 184.386719 133.480469 197.816406 116.914062 197.816406 C 100.34375 197.816406 86.914062 184.386719 86.914062 167.816406 C 86.914062 151.25 100.34375 137.816406 116.914062 137.816406 C 133.480469 137.816406 146.914062 151.25 146.914062 167.816406 "/>
</g>
</g>
<g clip-path="url(#clip36)" clip-rule="nonzero">
<g clip-path="url(#clip37)" clip-rule="nonzero">
<path style=" stroke:none;fill-rule:nonzero;fill:rgb(58.4%,34.5%,69.8%);fill-opacity:0.2;" d="M 148.476562 187.847656 C 148.476562 204.417969 135.042969 217.847656 118.476562 217.847656 C 101.90625 217.847656 88.476562 204.417969 88.476562 187.847656 C 88.476562 171.28125 101.90625 157.847656 118.476562 157.847656 C 135.042969 157.847656 148.476562 171.28125 148.476562 187.847656 "/>
</g>
</g>
<g clip-path="url(#clip38)" clip-rule="nonzero">
<g clip-path="url(#clip39)" clip-rule="nonzero">
<path style=" stroke:none;fill-rule:nonzero;fill:rgb(79.6%,23.5%,20%);fill-opacity:0.2;" d="M 511.769531 284.398438 C 511.769531 300.964844 498.335938 314.398438 481.769531 314.398438 C 465.199219 314.398438 451.769531 300.964844 451.769531 284.398438 C 451.769531 267.828125 465.199219 254.398438 481.769531 254.398438 C 498.335938 254.398438 511.769531 267.828125 511.769531 284.398438 "/>
</g>
</g>
<g clip-path="url(#clip40)" clip-rule="nonzero">
<g clip-path="url(#clip41)" clip-rule="nonzero">
<path style=" stroke:none;fill-rule:nonzero;fill:rgb(58.4%,34.5%,69.8%);fill-opacity:0.2;" d="M 119.636719 157.800781 C 119.636719 174.371094 106.203125 187.800781 89.636719 187.800781 C 73.066406 187.800781 59.636719 174.371094 59.636719 157.800781 C 59.636719 141.234375 73.066406 127.800781 89.636719 127.800781 C 106.203125 127.800781 119.636719 141.234375 119.636719 157.800781 "/>
</g>
</g>
<g clip-path="url(#clip42)" clip-rule="nonzero">
<g clip-path="url(#clip43)" clip-rule="nonzero">
<path style=" stroke:none;fill-rule:nonzero;fill:rgb(58.4%,34.5%,69.8%);fill-opacity:0.2;" d="M 182.339844 148.691406 C 182.339844 165.257812 168.910156 178.691406 152.339844 178.691406 C 135.773438 178.691406 122.339844 165.257812 122.339844 148.691406 C 122.339844 132.121094 135.773438 118.691406 152.339844 118.691406 C 168.910156 118.691406 182.339844 132.121094 182.339844 148.691406 "/>
</g>
</g>
<g clip-path="url(#clip44)" clip-rule="nonzero">
<g clip-path="url(#clip45)" clip-rule="nonzero">
<path style=" stroke:none;fill-rule:nonzero;fill:rgb(58.4%,34.5%,69.8%);fill-opacity:0.2;" d="M 104.9375 208.757812 C 104.9375 225.328125 91.507812 238.757812 74.9375 238.757812 C 58.371094 238.757812 44.9375 225.328125 44.9375 208.757812 C 44.9375 192.191406 58.371094 178.757812 74.9375 178.757812 C 91.507812 178.757812 104.9375 192.191406 104.9375 208.757812 "/>
</g>
</g>
<g clip-path="url(#clip46)" clip-rule="nonzero">
<g clip-path="url(#clip47)" clip-rule="nonzero">
<path style=" stroke:none;fill-rule:nonzero;fill:rgb(58.4%,34.5%,69.8%);fill-opacity:0.2;" d="M 182.128906 133.222656 C 182.128906 149.792969 168.695312 163.222656 152.128906 163.222656 C 135.558594 163.222656 122.128906 149.792969 122.128906 133.222656 C 122.128906 116.65625 135.558594 103.222656 152.128906 103.222656 C 168.695312 103.222656 182.128906 116.65625 182.128906 133.222656 "/>
</g>
</g>
<g clip-path="url(#clip48)" clip-rule="nonzero">
<g clip-path="url(#clip49)" clip-rule="nonzero">
<path style=" stroke:none;fill-rule:nonzero;fill:rgb(58.4%,34.5%,69.8%);fill-opacity:0.2;" d="M 145.796875 217.9375 C 145.796875 234.507812 132.367188 247.9375 115.796875 247.9375 C 99.226562 247.9375 85.796875 234.507812 85.796875 217.9375 C 85.796875 201.371094 99.226562 187.9375 115.796875 187.9375 C 132.367188 187.9375 145.796875 201.371094 145.796875 217.9375 "/>
</g>
</g>
<g clip-path="url(#clip50)" clip-rule="nonzero">
<g clip-path="url(#clip51)" clip-rule="nonzero">
<path style=" stroke:none;fill-rule:nonzero;fill:rgb(58.4%,34.5%,69.8%);fill-opacity:0.2;" d="M 158.734375 168.007812 C 158.734375 184.574219 145.304688 198.007812 128.734375 198.007812 C 112.167969 198.007812 98.734375 184.574219 98.734375 168.007812 C 98.734375 151.4375 112.167969 138.007812 128.734375 138.007812 C 145.304688 138.007812 158.734375 151.4375 158.734375 168.007812 "/>
</g>
</g>
<g clip-path="url(#clip52)" clip-rule="nonzero">
<g clip-path="url(#clip53)" clip-rule="nonzero">
<path style=" stroke:none;fill-rule:nonzero;fill:rgb(79.6%,23.5%,20%);fill-opacity:0.2;" d="M 385.164062 361.136719 C 385.164062 377.703125 371.734375 391.136719 355.164062 391.136719 C 338.597656 391.136719 325.164062 377.703125 325.164062 361.136719 C 325.164062 344.566406 338.597656 331.136719 355.164062 331.136719 C 371.734375 331.136719 385.164062 344.566406 385.164062 361.136719 "/>
</g>
</g>
<g clip-path="url(#clip54)" clip-rule="nonzero">
<g clip-path="url(#clip55)" clip-rule="nonzero">
<path style=" stroke:none;fill-rule:nonzero;fill:rgb(58.4%,34.5%,69.8%);fill-opacity:0.2;" d="M 143.796875 167.589844 C 143.796875 184.15625 130.367188 197.589844 113.796875 197.589844 C 97.230469 197.589844 83.796875 184.15625 83.796875 167.589844 C 83.796875 151.019531 97.230469 137.589844 113.796875 137.589844 C 130.367188 137.589844 143.796875 151.019531 143.796875 167.589844 "/>
</g>
</g>
<g clip-path="url(#clip56)" clip-rule="nonzero">
<g clip-path="url(#clip57)" clip-rule="nonzero">
<path style=" stroke:none;fill-rule:nonzero;fill:rgb(58.4%,34.5%,69.8%);fill-opacity:0.2;" d="M 98.027344 149.78125 C 98.027344 166.351562 84.59375 179.78125 68.027344 179.78125 C 51.457031 179.78125 38.027344 166.351562 38.027344 149.78125 C 38.027344 133.214844 51.457031 119.78125 68.027344 119.78125 C 84.59375 119.78125 98.027344 133.214844 98.027344 149.78125 "/>
</g>
</g>
<g clip-path="url(#clip58)" clip-rule="nonzero">
<g clip-path="url(#clip59)" clip-rule="nonzero">
<path style=" stroke:none;fill-rule:nonzero;fill:rgb(58.4%,34.5%,69.8%);fill-opacity:0.2;" d="M 129.777344 134.558594 C 129.777344 151.125 116.34375 164.558594 99.777344 164.558594 C 83.207031 164.558594 69.777344 151.125 69.777344 134.558594 C 69.777344 117.988281 83.207031 104.558594 99.777344 104.558594 C 116.34375 104.558594 129.777344 117.988281 129.777344 134.558594 "/>
</g>
</g>
<g clip-path="url(#clip60)" clip-rule="nonzero">
<g clip-path="url(#clip61)" clip-rule="nonzero">
<path style=" stroke:none;fill-rule:nonzero;fill:rgb(58.4%,34.5%,69.8%);fill-opacity:0.2;" d="M 138.011719 150.566406 C 138.011719 167.132812 124.578125 180.566406 108.011719 180.566406 C 91.441406 180.566406 78.011719 167.132812 78.011719 150.566406 C 78.011719 133.996094 91.441406 120.566406 108.011719 120.566406 C 124.578125 120.566406 138.011719 133.996094 138.011719 150.566406 "/>
</g>
</g>
<g clip-path="url(#clip62)" clip-rule="nonzero">
<g clip-path="url(#clip63)" clip-rule="nonzero">
<path style=" stroke:none;fill-rule:nonzero;fill:rgb(79.6%,23.5%,20%);fill-opacity:0.2;" d="M 469.28125 333.132812 C 469.28125 349.699219 455.847656 363.132812 439.28125 363.132812 C 422.710938 363.132812 409.28125 349.699219 409.28125 333.132812 C 409.28125 316.5625 422.710938 303.132812 439.28125 303.132812 C 455.847656 303.132812 469.28125 316.5625 469.28125 333.132812 "/>
</g>
</g>
<g clip-path="url(#clip64)" clip-rule="nonzero">
<g clip-path="url(#clip65)" clip-rule="nonzero">
<path style=" stroke:none;fill-rule:nonzero;fill:rgb(79.6%,23.5%,20%);fill-opacity:0.2;" d="M 443.523438 289.972656 C 443.523438 306.542969 430.089844 319.972656 413.523438 319.972656 C 396.953125 319.972656 383.523438 306.542969 383.523438 289.972656 C 383.523438 273.40625 396.953125 259.972656 413.523438 259.972656 C 430.089844 259.972656 443.523438 273.40625 443.523438 289.972656 "/>
</g>
</g>
<g clip-path="url(#clip66)" clip-rule="nonzero">
<g clip-path="url(#clip67)" clip-rule="nonzero">
<path style=" stroke:none;fill-rule:nonzero;fill:rgb(58.4%,34.5%,69.8%);fill-opacity:0.2;" d="M 146.660156 166.070312 C 146.660156 182.636719 133.230469 196.070312 116.660156 196.070312 C 100.09375 196.070312 86.660156 182.636719 86.660156 166.070312 C 86.660156 149.5 100.09375 136.070312 116.660156 136.070312 C 133.230469 136.070312 146.660156 149.5 146.660156 166.070312 "/>
</g>
</g>
<g clip-path="url(#clip68)" clip-rule="nonzero">
<g clip-path="url(#clip69)" clip-rule="nonzero">
<path style=" stroke:none;fill-rule:nonzero;fill:rgb(79.6%,23.5%,20%);fill-opacity:0.2;" d="M 543.890625 317.90625 C 543.890625 334.476562 530.460938 347.90625 513.890625 347.90625 C 497.324219 347.90625 483.890625 334.476562 483.890625 317.90625 C 483.890625 301.339844 497.324219 287.90625 513.890625 287.90625 C 530.460938 287.90625 543.890625 301.339844 543.890625 317.90625 "/>
</g>
</g>
<g clip-path="url(#clip70)" clip-rule="nonzero">
<g clip-path="url(#clip71)" clip-rule="nonzero">
<path style=" stroke:none;fill-rule:nonzero;fill:rgb(58.4%,34.5%,69.8%);fill-opacity:0.2;" d="M 226.179688 210.253906 C 226.179688 226.820312 212.75 240.253906 196.179688 240.253906 C 179.609375 240.253906 166.179688 226.820312 166.179688 210.253906 C 166.179688 193.683594 179.609375 180.253906 196.179688 180.253906 C 212.75 180.253906 226.179688 193.683594 226.179688 210.253906 "/>
</g>
</g>
<g clip-path="url(#clip72)" clip-rule="nonzero">
<g clip-path="url(#clip73)" clip-rule="nonzero">
<path style=" stroke:none;fill-rule:nonzero;fill:rgb(58.4%,34.5%,69.8%);fill-opacity:0.2;" d="M 164.882812 154.351562 C 164.882812 170.917969 151.449219 184.351562 134.882812 184.351562 C 118.3125 184.351562 104.882812 170.917969 104.882812 154.351562 C 104.882812 137.78125 118.3125 124.351562 134.882812 124.351562 C 151.449219 124.351562 164.882812 137.78125 164.882812 154.351562 "/>
</g>
</g>
<g clip-path="url(#clip74)" clip-rule="nonzero">
<g clip-path="url(#clip75)" clip-rule="nonzero">
<path style=" stroke:none;fill-rule:nonzero;fill:rgb(79.6%,23.5%,20%);fill-opacity:0.2;" d="M 485.140625 372.367188 C 485.140625 388.933594 471.707031 402.367188 455.140625 402.367188 C 438.570312 402.367188 425.140625 388.933594 425.140625 372.367188 C 425.140625 355.796875 438.570312 342.367188 455.140625 342.367188 C 471.707031 342.367188 485.140625 355.796875 485.140625 372.367188 "/>
</g>
</g>
<g clip-path="url(#clip76)" clip-rule="nonzero">
<g clip-path="url(#clip77)" clip-rule="nonzero">
<path style=" stroke:none;fill-rule:nonzero;fill:rgb(58.4%,34.5%,69.8%);fill-opacity:0.2;" d="M 124.171875 278.542969 C 124.171875 295.109375 110.738281 308.542969 94.171875 308.542969 C 77.601562 308.542969 64.171875 295.109375 64.171875 278.542969 C 64.171875 261.972656 77.601562 248.542969 94.171875 248.542969 C 110.738281 248.542969 124.171875 261.972656 124.171875 278.542969 "/>
</g>
</g>
<g clip-path="url(#clip78)" clip-rule="nonzero">
<g clip-path="url(#clip79)" clip-rule="nonzero">
<path style=" stroke:none;fill-rule:nonzero;fill:rgb(79.6%,23.5%,20%);fill-opacity:0.2;" d="M 520.28125 323.308594 C 520.28125 339.878906 506.851562 353.308594 490.28125 353.308594 C 473.714844 353.308594 460.28125 339.878906 460.28125 323.308594 C 460.28125 306.742188 473.714844 293.308594 490.28125 293.308594 C 506.851562 293.308594 520.28125 306.742188 520.28125 323.308594 "/>
</g>
</g>
<g clip-path="url(#clip80)" clip-rule="nonzero">
<g clip-path="url(#clip81)" clip-rule="nonzero">
<path style=" stroke:none;fill-rule:nonzero;fill:rgb(58.4%,34.5%,69.8%);fill-opacity:0.2;" d="M 229.726562 157.136719 C 229.726562 173.703125 216.292969 187.136719 199.726562 187.136719 C 183.15625 187.136719 169.726562 173.703125 169.726562 157.136719 C 169.726562 140.566406 183.15625 127.136719 199.726562 127.136719 C 216.292969 127.136719 229.726562 140.566406 229.726562 157.136719 "/>
</g>
</g>
<g clip-path="url(#clip82)" clip-rule="nonzero">
<g clip-path="url(#clip83)" clip-rule="nonzero">
<path style=" stroke:none;fill-rule:nonzero;fill:rgb(79.6%,23.5%,20%);fill-opacity:0.2;" d="M 515.976562 332.15625 C 515.976562 348.726562 502.546875 362.15625 485.976562 362.15625 C 469.410156 362.15625 455.976562 348.726562 455.976562 332.15625 C 455.976562 315.589844 469.410156 302.15625 485.976562 302.15625 C 502.546875 302.15625 515.976562 315.589844 515.976562 332.15625 "/>
</g>
</g>
<g clip-path="url(#clip84)" clip-rule="nonzero">
<g clip-path="url(#clip85)" clip-rule="nonzero">
<path style=" stroke:none;fill-rule:nonzero;fill:rgb(58.4%,34.5%,69.8%);fill-opacity:0.2;" d="M 144.753906 135.90625 C 144.753906 152.476562 131.324219 165.90625 114.753906 165.90625 C 98.1875 165.90625 84.753906 152.476562 84.753906 135.90625 C 84.753906 119.339844 98.1875 105.90625 114.753906 105.90625 C 131.324219 105.90625 144.753906 119.339844 144.753906 135.90625 "/>
</g>
</g>
<g clip-path="url(#clip86)" clip-rule="nonzero">
<g clip-path="url(#clip87)" clip-rule="nonzero">
<path style=" stroke:none;fill-rule:nonzero;fill:rgb(79.6%,23.5%,20%);fill-opacity:0.2;" d="M 417.421875 224.625 C 417.421875 241.191406 403.988281 254.625 387.421875 254.625 C 370.851562 254.625 357.421875 241.191406 357.421875 224.625 C 357.421875 208.054688 370.851562 194.625 387.421875 194.625 C 403.988281 194.625 417.421875 208.054688 417.421875 224.625 "/>
</g>
</g>
<g clip-path="url(#clip88)" clip-rule="nonzero">
<g clip-path="url(#clip89)" clip-rule="nonzero">
<path style=" stroke:none;fill-rule:nonzero;fill:rgb(58.4%,34.5%,69.8%);fill-opacity:0.2;" d="M 168.03125 194.769531 C 168.03125 211.339844 154.601562 224.769531 138.03125 224.769531 C 121.460938 224.769531 108.03125 211.339844 108.03125 194.769531 C 108.03125 178.203125 121.460938 164.769531 138.03125 164.769531 C 154.601562 164.769531 168.03125 178.203125 168.03125 194.769531 "/>
</g>
</g>
<g clip-path="url(#clip90)" clip-rule="nonzero">
<g clip-path="url(#clip91)" clip-rule="nonzero">
<path style=" stroke:none;fill-rule:nonzero;fill:rgb(79.6%,23.5%,20%);fill-opacity:0.2;" d="M 446.859375 382.847656 C 446.859375 399.417969 433.429688 412.847656 416.859375 412.847656 C 400.292969 412.847656 386.859375 399.417969 386.859375 382.847656 C 386.859375 366.28125 400.292969 352.847656 416.859375 352.847656 C 433.429688 352.847656 446.859375 366.28125 446.859375 382.847656 "/>
</g>
</g>
<g clip-path="url(#clip92)" clip-rule="nonzero">
<g clip-path="url(#clip93)" clip-rule="nonzero">
<path style=" stroke:none;fill-rule:nonzero;fill:rgb(79.6%,23.5%,20%);fill-opacity:0.2;" d="M 486.277344 262.125 C 486.277344 278.695312 472.84375 292.125 456.277344 292.125 C 439.707031 292.125 426.277344 278.695312 426.277344 262.125 C 426.277344 245.554688 439.707031 232.125 456.277344 232.125 C 472.84375 232.125 486.277344 245.554688 486.277344 262.125 "/>
</g>
</g>
<g clip-path="url(#clip94)" clip-rule="nonzero">
<g clip-path="url(#clip95)" clip-rule="nonzero">
<path style=" stroke:none;fill-rule:nonzero;fill:rgb(58.4%,34.5%,69.8%);fill-opacity:0.2;" d="M 75.175781 191.972656 C 75.175781 208.542969 61.742188 221.972656 45.175781 221.972656 C 28.605469 221.972656 15.175781 208.542969 15.175781 191.972656 C 15.175781 175.402344 28.605469 161.972656 45.175781 161.972656 C 61.742188 161.972656 75.175781 175.402344 75.175781 191.972656 "/>
</g>
</g>
<g clip-path="url(#clip96)" clip-rule="nonzero">
<g clip-path="url(#clip97)" clip-rule="nonzero">
<path style=" stroke:none;fill-rule:nonzero;fill:rgb(79.6%,23.5%,20%);fill-opacity:0.2;" d="M 487.472656 300.992188 C 487.472656 317.558594 474.042969 330.992188 457.472656 330.992188 C 440.90625 330.992188 427.472656 317.558594 427.472656 300.992188 C 427.472656 284.421875 440.90625 270.992188 457.472656 270.992188 C 474.042969 270.992188 487.472656 284.421875 487.472656 300.992188 "/>
</g>
</g>
<g clip-path="url(#clip98)" clip-rule="nonzero">
<g clip-path="url(#clip99)" clip-rule="nonzero">
<path style=" stroke:none;fill-rule:nonzero;fill:rgb(58.4%,34.5%,69.8%);fill-opacity:0.2;" d="M 103.855469 142.8125 C 103.855469 159.378906 90.421875 172.8125 73.855469 172.8125 C 57.285156 172.8125 43.855469 159.378906 43.855469 142.8125 C 43.855469 126.242188 57.285156 112.8125 73.855469 112.8125 C 90.421875 112.8125 103.855469 126.242188 103.855469 142.8125 "/>
</g>
</g>
<g clip-path="url(#clip100)" clip-rule="nonzero">
<g clip-path="url(#clip101)" clip-rule="nonzero">
<path style=" stroke:none;fill-rule:nonzero;fill:rgb(58.4%,34.5%,69.8%);fill-opacity:0.3;" d="M 125.578125 164.023438 C 125.578125 180.589844 112.144531 194.023438 95.578125 194.023438 C 79.007812 194.023438 65.578125 180.589844 65.578125 164.023438 C 65.578125 147.453125 79.007812 134.023438 95.578125 134.023438 C 112.144531 134.023438 125.578125 147.453125 125.578125 164.023438 "/>
</g>
</g>
<g clip-path="url(#clip102)" clip-rule="nonzero">
<g clip-path="url(#clip103)" clip-rule="nonzero">
<path style=" stroke:none;fill-rule:nonzero;fill:rgb(58.4%,34.5%,69.8%);fill-opacity:0.4;" d="M 172.332031 179.53125 C 172.332031 196.097656 158.902344 209.53125 142.332031 209.53125 C 125.765625 209.53125 112.332031 196.097656 112.332031 179.53125 C 112.332031 162.960938 125.765625 149.53125 142.332031 149.53125 C 158.902344 149.53125 172.332031 162.960938 172.332031 179.53125 "/>
</g>
</g>
<g clip-path="url(#clip104)" clip-rule="nonzero">
<g clip-path="url(#clip105)" clip-rule="nonzero">
<path style=" stroke:none;fill-rule:nonzero;fill:rgb(58.4%,34.5%,69.8%);fill-opacity:0.5;" d="M 218.433594 194.828125 C 218.433594 211.398438 205.003906 224.828125 188.433594 224.828125 C 171.867188 224.828125 158.433594 211.398438 158.433594 194.828125 C 158.433594 178.261719 171.867188 164.828125 188.433594 164.828125 C 205.003906 164.828125 218.433594 178.261719 218.433594 194.828125 "/>
</g>
</g>
<g clip-path="url(#clip106)" clip-rule="nonzero">
<g clip-path="url(#clip107)" clip-rule="nonzero">
<path style=" stroke:none;fill-rule:nonzero;fill:rgb(58.4%,34.5%,69.8%);fill-opacity:0.6;" d="M 263.875 210.125 C 263.875 226.691406 250.445312 240.125 233.875 240.125 C 217.304688 240.125 203.875 226.691406 203.875 210.125 C 203.875 193.554688 217.304688 180.125 233.875 180.125 C 250.445312 180.125 263.875 193.554688 263.875 210.125 "/>
</g>
</g>
<g clip-path="url(#clip108)" clip-rule="nonzero">
<g clip-path="url(#clip109)" clip-rule="nonzero">
<path style=" stroke:none;fill-rule:nonzero;fill:rgb(58.4%,34.5%,69.8%);fill-opacity:0.7;" d="M 305.925781 224.378906 C 305.925781 240.945312 292.492188 254.378906 275.925781 254.378906 C 259.355469 254.378906 245.925781 240.945312 245.925781 224.378906 C 245.925781 207.808594 259.355469 194.378906 275.925781 194.378906 C 292.492188 194.378906 305.925781 207.808594 305.925781 224.378906 "/>
</g>
</g>
<g clip-path="url(#clip110)" clip-rule="nonzero">
<g clip-path="url(#clip111)" clip-rule="nonzero">
<path style=" stroke:none;fill-rule:nonzero;fill:rgb(58.4%,34.5%,69.8%);fill-opacity:0.8;" d="M 338.257812 235.085938 C 338.257812 251.65625 324.828125 265.085938 308.257812 265.085938 C 291.691406 265.085938 278.257812 251.65625 278.257812 235.085938 C 278.257812 218.519531 291.691406 205.085938 308.257812 205.085938 C 324.828125 205.085938 338.257812 218.519531 338.257812 235.085938 "/>
</g>
</g>
<g clip-path="url(#clip112)" clip-rule="nonzero">
<g clip-path="url(#clip113)" clip-rule="nonzero">
<path style=" stroke:none;fill-rule:nonzero;fill:rgb(58.4%,34.5%,69.8%);fill-opacity:0.9;" d="M 363.214844 243.339844 C 363.214844 259.910156 349.78125 273.339844 333.214844 273.339844 C 316.644531 273.339844 303.214844 259.910156 303.214844 243.339844 C 303.214844 226.773438 316.644531 213.339844 333.214844 213.339844 C 349.78125 213.339844 363.214844 226.773438 363.214844 243.339844 "/>
</g>
</g>
<g clip-path="url(#clip114)" clip-rule="nonzero">
<g clip-path="url(#clip115)" clip-rule="nonzero">
<path style=" stroke:none;fill-rule:nonzero;fill:rgb(79.6%,23.5%,20%);fill-opacity:1;" d="M 391.136719 251.042969 C 391.136719 270.925781 375.019531 287.042969 355.136719 287.042969 C 335.253906 287.042969 319.136719 270.925781 319.136719 251.042969 C 319.136719 231.160156 335.253906 215.042969 355.136719 215.042969 C 375.019531 215.042969 391.136719 231.160156 391.136719 251.042969 "/>
</g>
</g>
</g>
</svg>
