<?xml version="1.0" encoding="UTF-8"?>
<svg xmlns="http://www.w3.org/2000/svg" xmlns:xlink="http://www.w3.org/1999/xlink" width="500pt" height="500pt" viewBox="0 0 500 500" version="1.1">
<g id="surface111">
<path style="fill:none;stroke-width:5;stroke-linecap:butt;stroke-linejoin:miter;stroke:rgb(25.1%,38.8%,84.7%);stroke-opacity:1;stroke-miterlimit:10;" d="M 253.90625 0 L 246.34375 500 "/>
<path style=" stroke:none;fill-rule:nonzero;fill:rgb(79.6%,23.5%,20%);fill-opacity:0.2;" d="M 161.585938 301.691406 C 161.585938 310.894531 154.125 318.355469 144.917969 318.355469 C 135.714844 318.355469 128.25 310.894531 128.25 301.691406 C 128.25 292.484375 135.714844 285.023438 144.917969 285.023438 C 154.125 285.023438 161.585938 292.484375 161.585938 301.691406 "/>
<path style=" stroke:none;fill-rule:nonzero;fill:rgb(79.6%,23.5%,20%);fill-opacity:0.2;" d="M 168.207031 299.203125 C 168.207031 308.410156 160.746094 315.871094 151.539062 315.871094 C 142.335938 315.871094 134.875 308.410156 134.875 299.203125 C 134.875 290 142.335938 282.539062 151.539062 282.539062 C 160.746094 282.539062 168.207031 290 168.207031 299.203125 "/>
<path style=" stroke:none;fill-rule:nonzero;fill:rgb(22%,59.6%,14.9%);fill-opacity:0.2;" d="M 228.992188 285.628906 C 228.992188 294.835938 221.53125 302.296875 212.324219 302.296875 C 203.121094 302.296875 195.660156 294.835938 195.660156 285.628906 C 195.660156 276.425781 203.121094 268.964844 212.324219 268.964844 C 221.53125 268.964844 228.992188 276.425781 228.992188 285.628906 "/>
<path style=" stroke:none;fill-rule:nonzero;fill:rgb(79.6%,23.5%,20%);fill-opacity:0.2;" d="M 154.507812 307.390625 C 154.507812 316.59375 147.042969 324.054688 137.839844 324.054688 C 128.636719 324.054688 121.171875 316.59375 121.171875 307.390625 C 121.171875 298.183594 128.636719 290.722656 137.839844 290.722656 C 147.042969 290.722656 154.507812 298.183594 154.507812 307.390625 "/>
<path style=" stroke:none;fill-rule:nonzero;fill:rgb(22%,59.6%,14.9%);fill-opacity:0.2;" d="M 231.875 271.304688 C 231.875 280.507812 224.410156 287.96875 215.207031 287.96875 C 206.003906 287.96875 198.539062 280.507812 198.539062 271.304688 C 198.539062 262.097656 206.003906 254.636719 215.207031 254.636719 C 224.410156 254.636719 231.875 262.097656 231.875 271.304688 "/>
<path style=" stroke:none;fill-rule:nonzero;fill:rgb(79.6%,23.5%,20%);fill-opacity:0.2;" d="M 159.46875 305.25 C 159.46875 314.453125 152.007812 321.914062 142.804688 321.914062 C 133.597656 321.914062 126.136719 314.453125 126.136719 305.25 C 126.136719 296.042969 133.597656 288.582031 142.804688 288.582031 C 152.007812 288.582031 159.46875 296.042969 159.46875 305.25 "/>
<path style=" stroke:none;fill-rule:nonzero;fill:rgb(79.6%,23.5%,20%);fill-opacity:0.2;" d="M 156.707031 299.03125 C 156.707031 308.238281 149.246094 315.699219 140.042969 315.699219 C 130.835938 315.699219 123.375 308.238281 123.375 299.03125 C 123.375 289.828125 130.835938 282.363281 140.042969 282.363281 C 149.246094 282.363281 156.707031 289.828125 156.707031 299.03125 "/>
<path style=" stroke:none;fill-rule:nonzero;fill:rgb(22%,59.6%,14.9%);fill-opacity:0.2;" d="M 226.421875 283.367188 C 226.421875 292.570312 218.960938 300.03125 209.757812 300.03125 C 200.550781 300.03125 193.089844 292.570312 193.089844 283.367188 C 193.089844 274.160156 200.550781 266.699219 209.757812 266.699219 C 218.960938 266.699219 226.421875 274.160156 226.421875 283.367188 "/>
<path style=" stroke:none;fill-rule:nonzero;fill:rgb(22%,59.6%,14.9%);fill-opacity:0.2;" d="M 239.96875 282.570312 C 239.96875 291.773438 232.503906 299.238281 223.300781 299.238281 C 214.097656 299.238281 206.632812 291.773438 206.632812 282.570312 C 206.632812 273.363281 214.097656 265.902344 223.300781 265.902344 C 232.503906 265.902344 239.96875 273.363281 239.96875 282.570312 "/>
<path style=" stroke:none;fill-rule:nonzero;fill:rgb(79.6%,23.5%,20%);fill-opacity:0.2;" d="M 163.335938 302.15625 C 163.335938 311.363281 155.875 318.824219 146.671875 318.824219 C 137.464844 318.824219 130.003906 311.363281 130.003906 302.15625 C 130.003906 292.953125 137.464844 285.492188 146.671875 285.492188 C 155.875 285.492188 163.335938 292.953125 163.335938 302.15625 "/>
<path style=" stroke:none;fill-rule:nonzero;fill:rgb(79.6%,23.5%,20%);fill-opacity:0.2;" d="M 153.371094 307.972656 C 153.371094 317.179688 145.910156 324.640625 136.703125 324.640625 C 127.5 324.640625 120.039062 317.179688 120.039062 307.972656 C 120.039062 298.769531 127.5 291.304688 136.703125 291.304688 C 145.910156 291.304688 153.371094 298.769531 153.371094 307.972656 "/>
<path style=" stroke:none;fill-rule:nonzero;fill:rgb(79.6%,23.5%,20%);fill-opacity:0.2;" d="M 165.320312 305.3125 C 165.320312 314.515625 157.859375 321.980469 148.652344 321.980469 C 139.449219 321.980469 131.988281 314.515625 131.988281 305.3125 C 131.988281 296.105469 139.449219 288.644531 148.652344 288.644531 C 157.859375 288.644531 165.320312 296.105469 165.320312 305.3125 "/>
<path style=" stroke:none;fill-rule:nonzero;fill:rgb(22%,59.6%,14.9%);fill-opacity:0.2;" d="M 220.394531 284.945312 C 220.394531 294.152344 212.929688 301.613281 203.726562 301.613281 C 194.523438 301.613281 187.058594 294.152344 187.058594 284.945312 C 187.058594 275.742188 194.523438 268.28125 203.726562 268.28125 C 212.929688 268.28125 220.394531 275.742188 220.394531 284.945312 "/>
<path style=" stroke:none;fill-rule:nonzero;fill:rgb(79.6%,23.5%,20%);fill-opacity:0.2;" d="M 171.988281 307.507812 C 171.988281 316.714844 164.527344 324.175781 155.320312 324.175781 C 146.117188 324.175781 138.65625 316.714844 138.65625 307.507812 C 138.65625 298.304688 146.117188 290.839844 155.320312 290.839844 C 164.527344 290.839844 171.988281 298.304688 171.988281 307.507812 "/>
<path style=" stroke:none;fill-rule:nonzero;fill:rgb(79.6%,23.5%,20%);fill-opacity:0.2;" d="M 158.292969 306.707031 C 158.292969 315.910156 150.828125 323.375 141.625 323.375 C 132.421875 323.375 124.957031 315.910156 124.957031 306.707031 C 124.957031 297.503906 132.421875 290.039062 141.625 290.039062 C 150.828125 290.039062 158.292969 297.503906 158.292969 306.707031 "/>
<path style=" stroke:none;fill-rule:nonzero;fill:rgb(22%,59.6%,14.9%);fill-opacity:0.2;" d="M 226.605469 289.121094 C 226.605469 298.324219 219.144531 305.785156 209.941406 305.785156 C 200.734375 305.785156 193.273438 298.324219 193.273438 289.121094 C 193.273438 279.914062 200.734375 272.453125 209.941406 272.453125 C 219.144531 272.453125 226.605469 279.914062 226.605469 289.121094 "/>
<path style=" stroke:none;fill-rule:nonzero;fill:rgb(22%,59.6%,14.9%);fill-opacity:0.2;" d="M 231.335938 282.851562 C 231.335938 292.054688 223.875 299.519531 214.667969 299.519531 C 205.464844 299.519531 198.003906 292.054688 198.003906 282.851562 C 198.003906 273.648438 205.464844 266.183594 214.667969 266.183594 C 223.875 266.183594 231.335938 273.648438 231.335938 282.851562 "/>
<path style=" stroke:none;fill-rule:nonzero;fill:rgb(79.6%,23.5%,20%);fill-opacity:0.2;" d="M 153.320312 297.105469 C 153.320312 306.308594 145.859375 313.769531 136.65625 313.769531 C 127.449219 313.769531 119.988281 306.308594 119.988281 297.105469 C 119.988281 287.898438 127.449219 280.4375 136.65625 280.4375 C 145.859375 280.4375 153.320312 287.898438 153.320312 297.105469 "/>
<path style=" stroke:none;fill-rule:nonzero;fill:rgb(79.6%,23.5%,20%);fill-opacity:0.2;" d="M 163.542969 295.320312 C 163.542969 304.527344 156.082031 311.988281 146.878906 311.988281 C 137.671875 311.988281 130.210938 304.527344 130.210938 295.320312 C 130.210938 286.117188 137.671875 278.65625 146.878906 278.65625 C 156.082031 278.65625 163.542969 286.117188 163.542969 295.320312 "/>
<path style=" stroke:none;fill-rule:nonzero;fill:rgb(79.6%,23.5%,20%);fill-opacity:0.2;" d="M 157.507812 297.308594 C 157.507812 306.511719 150.046875 313.976562 140.839844 313.976562 C 131.636719 313.976562 124.175781 306.511719 124.175781 297.308594 C 124.175781 288.105469 131.636719 280.640625 140.839844 280.640625 C 150.046875 280.640625 157.507812 288.105469 157.507812 297.308594 "/>
<path style=" stroke:none;fill-rule:nonzero;fill:rgb(79.6%,23.5%,20%);fill-opacity:0.2;" d="M 161.09375 290.820312 C 161.09375 300.027344 153.628906 307.488281 144.425781 307.488281 C 135.222656 307.488281 127.757812 300.027344 127.757812 290.820312 C 127.757812 281.617188 135.222656 274.15625 144.425781 274.15625 C 153.628906 274.15625 161.09375 281.617188 161.09375 290.820312 "/>
<path style=" stroke:none;fill-rule:nonzero;fill:rgb(79.6%,23.5%,20%);fill-opacity:0.2;" d="M 163.703125 290.839844 C 163.703125 300.046875 156.238281 307.507812 147.035156 307.507812 C 137.828125 307.507812 130.367188 300.046875 130.367188 290.839844 C 130.367188 281.636719 137.828125 274.175781 147.035156 274.175781 C 156.238281 274.175781 163.703125 281.636719 163.703125 290.839844 "/>
<path style=" stroke:none;fill-rule:nonzero;fill:rgb(79.6%,23.5%,20%);fill-opacity:0.2;" d="M 166.292969 290.855469 C 166.292969 300.0625 158.832031 307.523438 149.625 307.523438 C 140.421875 307.523438 132.960938 300.0625 132.960938 290.855469 C 132.960938 281.652344 140.421875 274.191406 149.625 274.191406 C 158.832031 274.191406 166.292969 281.652344 166.292969 290.855469 "/>
<path style=" stroke:none;fill-rule:nonzero;fill:rgb(79.6%,23.5%,20%);fill-opacity:0.2;" d="M 168.871094 290.871094 C 168.871094 300.074219 161.40625 307.535156 152.203125 307.535156 C 142.996094 307.535156 135.535156 300.074219 135.535156 290.871094 C 135.535156 281.664062 142.996094 274.203125 152.203125 274.203125 C 161.40625 274.203125 168.871094 281.664062 168.871094 290.871094 "/>
<path style=" stroke:none;fill-rule:nonzero;fill:rgb(79.6%,23.5%,20%);fill-opacity:0.2;" d="M 171.425781 290.882812 C 171.425781 300.089844 163.964844 307.550781 154.761719 307.550781 C 145.554688 307.550781 138.09375 300.089844 138.09375 290.882812 C 138.09375 281.679688 145.554688 274.214844 154.761719 274.214844 C 163.964844 274.214844 171.425781 281.679688 171.425781 290.882812 "/>
<path style=" stroke:none;fill-rule:nonzero;fill:rgb(79.6%,23.5%,20%);fill-opacity:0.2;" d="M 173.960938 290.898438 C 173.960938 300.101562 166.5 307.5625 157.292969 307.5625 C 148.089844 307.5625 140.628906 300.101562 140.628906 290.898438 C 140.628906 281.691406 148.089844 274.230469 157.292969 274.230469 C 166.5 274.230469 173.960938 281.691406 173.960938 290.898438 "/>
<path style=" stroke:none;fill-rule:nonzero;fill:rgb(79.6%,23.5%,20%);fill-opacity:0.2;" d="M 176.460938 290.910156 C 176.460938 300.113281 169 307.574219 159.792969 307.574219 C 150.589844 307.574219 143.128906 300.113281 143.128906 290.910156 C 143.128906 281.703125 150.589844 274.242188 159.792969 274.242188 C 169 274.242188 176.460938 281.703125 176.460938 290.910156 "/>
<path style=" stroke:none;fill-rule:nonzero;fill:rgb(79.6%,23.5%,20%);fill-opacity:0.2;" d="M 178.917969 290.921875 C 178.917969 300.125 171.457031 307.589844 162.25 307.589844 C 153.046875 307.589844 145.585938 300.125 145.585938 290.921875 C 145.585938 281.71875 153.046875 274.253906 162.25 274.253906 C 171.457031 274.253906 178.917969 281.71875 178.917969 290.921875 "/>
<path style=" stroke:none;fill-rule:nonzero;fill:rgb(79.6%,23.5%,20%);fill-opacity:0.2;" d="M 181.320312 290.933594 C 181.320312 300.140625 173.859375 307.601562 164.652344 307.601562 C 155.449219 307.601562 147.988281 300.140625 147.988281 290.933594 C 147.988281 281.730469 155.449219 274.265625 164.652344 274.265625 C 173.859375 274.265625 181.320312 281.730469 181.320312 290.933594 "/>
<path style=" stroke:none;fill-rule:nonzero;fill:rgb(79.6%,23.5%,20%);fill-opacity:0.2;" d="M 183.652344 290.945312 C 183.652344 300.152344 176.191406 307.613281 166.984375 307.613281 C 157.78125 307.613281 150.320312 300.152344 150.320312 290.945312 C 150.320312 281.742188 157.78125 274.277344 166.984375 274.277344 C 176.191406 274.277344 183.652344 281.742188 183.652344 290.945312 "/>
<path style=" stroke:none;fill-rule:nonzero;fill:rgb(79.6%,23.5%,20%);fill-opacity:0.2;" d="M 185.902344 290.957031 C 185.902344 300.160156 178.4375 307.625 169.234375 307.625 C 160.03125 307.625 152.566406 300.160156 152.566406 290.957031 C 152.566406 281.753906 160.03125 274.289062 169.234375 274.289062 C 178.4375 274.289062 185.902344 281.753906 185.902344 290.957031 "/>
<path style=" stroke:none;fill-rule:nonzero;fill:rgb(79.6%,23.5%,20%);fill-opacity:0.2;" d="M 188.050781 290.96875 C 188.050781 300.171875 180.585938 307.632812 171.382812 307.632812 C 162.179688 307.632812 154.714844 300.171875 154.714844 290.96875 C 154.714844 281.761719 162.179688 274.300781 171.382812 274.300781 C 180.585938 274.300781 188.050781 281.761719 188.050781 290.96875 "/>
<path style=" stroke:none;fill-rule:nonzero;fill:rgb(79.6%,23.5%,20%);fill-opacity:0.2;" d="M 190.085938 290.976562 C 190.085938 300.183594 182.621094 307.644531 173.417969 307.644531 C 164.214844 307.644531 156.75 300.183594 156.75 290.976562 C 156.75 281.773438 164.214844 274.3125 173.417969 274.3125 C 182.621094 274.3125 190.085938 281.773438 190.085938 290.976562 "/>
<path style=" stroke:none;fill-rule:nonzero;fill:rgb(79.6%,23.5%,20%);fill-opacity:0.2;" d="M 191.996094 290.988281 C 191.996094 300.191406 184.535156 307.65625 175.328125 307.65625 C 166.125 307.65625 158.664062 300.191406 158.664062 290.988281 C 158.664062 281.78125 166.125 274.320312 175.328125 274.320312 C 184.535156 274.320312 191.996094 281.78125 191.996094 290.988281 "/>
<path style=" stroke:none;fill-rule:nonzero;fill:rgb(79.6%,23.5%,20%);fill-opacity:0.2;" d="M 193.777344 290.996094 C 193.777344 300.203125 186.316406 307.664062 177.109375 307.664062 C 167.90625 307.664062 160.445312 300.203125 160.445312 290.996094 C 160.445312 281.792969 167.90625 274.332031 177.109375 274.332031 C 186.316406 274.332031 193.777344 281.792969 193.777344 290.996094 "/>
<path style=" stroke:none;fill-rule:nonzero;fill:rgb(79.6%,23.5%,20%);fill-opacity:0.2;" d="M 195.425781 291.003906 C 195.425781 300.210938 187.964844 307.671875 178.757812 307.671875 C 169.554688 307.671875 162.09375 300.210938 162.09375 291.003906 C 162.09375 281.800781 169.554688 274.339844 178.757812 274.339844 C 187.964844 274.339844 195.425781 281.800781 195.425781 291.003906 "/>
<path style=" stroke:none;fill-rule:nonzero;fill:rgb(79.6%,23.5%,20%);fill-opacity:0.2;" d="M 196.945312 291.011719 C 196.945312 300.21875 189.484375 307.679688 180.28125 307.679688 C 171.074219 307.679688 163.613281 300.21875 163.613281 291.011719 C 163.613281 281.808594 171.074219 274.347656 180.28125 274.347656 C 189.484375 274.347656 196.945312 281.808594 196.945312 291.011719 "/>
<path style=" stroke:none;fill-rule:nonzero;fill:rgb(22%,59.6%,14.9%);fill-opacity:0.2;" d="M 198.34375 291.019531 C 198.34375 300.226562 190.882812 307.6875 181.675781 307.6875 C 172.472656 307.6875 165.011719 300.226562 165.011719 291.019531 C 165.011719 281.816406 172.472656 274.351562 181.675781 274.351562 C 190.882812 274.351562 198.34375 281.816406 198.34375 291.019531 "/>
</g>
</svg>
