<?xml version="1.0" encoding="UTF-8"?>
<svg xmlns="http://www.w3.org/2000/svg" xmlns:xlink="http://www.w3.org/1999/xlink" width="500pt" height="500pt" viewBox="0 0 500 500" version="1.1">
<defs>
<clipPath id="clip1">
  <path d="M 500 250 C 500 388.070312 388.070312 500 250 500 C 111.929688 500 0 388.070312 0 250 C 0 111.929688 111.929688 0 250 0 C 388.070312 0 500 111.929688 500 250 "/>
</clipPath>
<clipPath id="clip2">
  <path d="M 0 162 L 500 162 L 500 467 L 0 467 Z M 0 162 "/>
</clipPath>
<clipPath id="clip3">
  <path d="M 500 250 C 500 388.070312 388.070312 500 250 500 C 111.929688 500 0 388.070312 0 250 C 0 111.929688 111.929688 0 250 0 C 388.070312 0 500 111.929688 500 250 "/>
</clipPath>
<clipPath id="clip4">
  <path d="M 331 136 L 392 136 L 392 197 L 331 197 Z M 331 136 "/>
</clipPath>
<clipPath id="clip5">
  <path d="M 500 250 C 500 388.070312 388.070312 500 250 500 C 111.929688 500 0 388.070312 0 250 C 0 111.929688 111.929688 0 250 0 C 388.070312 0 500 111.929688 500 250 "/>
</clipPath>
<clipPath id="clip6">
  <path d="M 243 294 L 304 294 L 304 355 L 243 355 Z M 243 294 "/>
</clipPath>
<clipPath id="clip7">
  <path d="M 500 250 C 500 388.070312 388.070312 500 250 500 C 111.929688 500 0 388.070312 0 250 C 0 111.929688 111.929688 0 250 0 C 388.070312 0 500 111.929688 500 250 "/>
</clipPath>
<clipPath id="clip8">
  <path d="M 86 68 L 147 68 L 147 129 L 86 129 Z M 86 68 "/>
</clipPath>
<clipPath id="clip9">
  <path d="M 500 250 C 500 388.070312 388.070312 500 250 500 C 111.929688 500 0 388.070312 0 250 C 0 111.929688 111.929688 0 250 0 C 388.070312 0 500 111.929688 500 250 "/>
</clipPath>
<clipPath id="clip10">
  <path d="M 207 318 L 268 318 L 268 379 L 207 379 Z M 207 318 "/>
</clipPath>
<clipPath id="clip11">
  <path d="M 500 250 C 500 388.070312 388.070312 500 250 500 C 111.929688 500 0 388.070312 0 250 C 0 111.929688 111.929688 0 250 0 C 388.070312 0 500 111.929688 500 250 "/>
</clipPath>
<clipPath id="clip12">
  <path d="M 120 105 L 181 105 L 181 166 L 120 166 Z M 120 105 "/>
</clipPath>
<clipPath id="clip13">
  <path d="M 500 250 C 500 388.070312 388.070312 500 250 500 C 111.929688 500 0 388.070312 0 250 C 0 111.929688 111.929688 0 250 0 C 388.070312 0 500 111.929688 500 250 "/>
</clipPath>
<clipPath id="clip14">
  <path d="M 294 102 L 355 102 L 355 163 L 294 163 Z M 294 102 "/>
</clipPath>
<clipPath id="clip15">
  <path d="M 500 250 C 500 388.070312 388.070312 500 250 500 C 111.929688 500 0 388.070312 0 250 C 0 111.929688 111.929688 0 250 0 C 388.070312 0 500 111.929688 500 250 "/>
</clipPath>
<clipPath id="clip16">
  <path d="M 72 116 L 133 116 L 133 177 L 72 177 Z M 72 116 "/>
</clipPath>
<clipPath id="clip17">
  <path d="M 500 250 C 500 388.070312 388.070312 500 250 500 C 111.929688 500 0 388.070312 0 250 C 0 111.929688 111.929688 0 250 0 C 388.070312 0 500 111.929688 500 250 "/>
</clipPath>
<clipPath id="clip18">
  <path d="M 332 97 L 393 97 L 393 158 L 332 158 Z M 332 97 "/>
</clipPath>
<clipPath id="clip19">
  <path d="M 500 250 C 500 388.070312 388.070312 500 250 500 C 111.929688 500 0 388.070312 0 250 C 0 111.929688 111.929688 0 250 0 C 388.070312 0 500 111.929688 500 250 "/>
</clipPath>
<clipPath id="clip20">
  <path d="M 137 129 L 198 129 L 198 190 L 137 190 Z M 137 129 "/>
</clipPath>
<clipPath id="clip21">
  <path d="M 500 250 C 500 388.070312 388.070312 500 250 500 C 111.929688 500 0 388.070312 0 250 C 0 111.929688 111.929688 0 250 0 C 388.070312 0 500 111.929688 500 250 "/>
</clipPath>
<clipPath id="clip22">
  <path d="M 180 318 L 241 318 L 241 379 L 180 379 Z M 180 318 "/>
</clipPath>
<clipPath id="clip23">
  <path d="M 500 250 C 500 388.070312 388.070312 500 250 500 C 111.929688 500 0 388.070312 0 250 C 0 111.929688 111.929688 0 250 0 C 388.070312 0 500 111.929688 500 250 "/>
</clipPath>
<clipPath id="clip24">
  <path d="M 109 112 L 170 112 L 170 173 L 109 173 Z M 109 112 "/>
</clipPath>
<clipPath id="clip25">
  <path d="M 500 250 C 500 388.070312 388.070312 500 250 500 C 111.929688 500 0 388.070312 0 250 C 0 111.929688 111.929688 0 250 0 C 388.070312 0 500 111.929688 500 250 "/>
</clipPath>
<clipPath id="clip26">
  <path d="M 260 340 L 321 340 L 321 401 L 260 401 Z M 260 340 "/>
</clipPath>
<clipPath id="clip27">
  <path d="M 500 250 C 500 388.070312 388.070312 500 250 500 C 111.929688 500 0 388.070312 0 250 C 0 111.929688 111.929688 0 250 0 C 388.070312 0 500 111.929688 500 250 "/>
</clipPath>
<clipPath id="clip28">
  <path d="M 243 337 L 304 337 L 304 398 L 243 398 Z M 243 337 "/>
</clipPath>
<clipPath id="clip29">
  <path d="M 500 250 C 500 388.070312 388.070312 500 250 500 C 111.929688 500 0 388.070312 0 250 C 0 111.929688 111.929688 0 250 0 C 388.070312 0 500 111.929688 500 250 "/>
</clipPath>
<clipPath id="clip30">
  <path d="M 102 95 L 163 95 L 163 156 L 102 156 Z M 102 95 "/>
</clipPath>
<clipPath id="clip31">
  <path d="M 500 250 C 500 388.070312 388.070312 500 250 500 C 111.929688 500 0 388.070312 0 250 C 0 111.929688 111.929688 0 250 0 C 388.070312 0 500 111.929688 500 250 "/>
</clipPath>
<clipPath id="clip32">
  <path d="M 126 150 L 187 150 L 187 211 L 126 211 Z M 126 150 "/>
</clipPath>
<clipPath id="clip33">
  <path d="M 500 250 C 500 388.070312 388.070312 500 250 500 C 111.929688 500 0 388.070312 0 250 C 0 111.929688 111.929688 0 250 0 C 388.070312 0 500 111.929688 500 250 "/>
</clipPath>
<clipPath id="clip34">
  <path d="M 356 147 L 417 147 L 417 208 L 356 208 Z M 356 147 "/>
</clipPath>
<clipPath id="clip35">
  <path d="M 500 250 C 500 388.070312 388.070312 500 250 500 C 111.929688 500 0 388.070312 0 250 C 0 111.929688 111.929688 0 250 0 C 388.070312 0 500 111.929688 500 250 "/>
</clipPath>
<clipPath id="clip36">
  <path d="M 341 94 L 402 94 L 402 155 L 341 155 Z M 341 94 "/>
</clipPath>
<clipPath id="clip37">
  <path d="M 500 250 C 500 388.070312 388.070312 500 250 500 C 111.929688 500 0 388.070312 0 250 C 0 111.929688 111.929688 0 250 0 C 388.070312 0 500 111.929688 500 250 "/>
</clipPath>
<clipPath id="clip38">
  <path d="M 265 365 L 326 365 L 326 426 L 265 426 Z M 265 365 "/>
</clipPath>
<clipPath id="clip39">
  <path d="M 500 250 C 500 388.070312 388.070312 500 250 500 C 111.929688 500 0 388.070312 0 250 C 0 111.929688 111.929688 0 250 0 C 388.070312 0 500 111.929688 500 250 "/>
</clipPath>
<clipPath id="clip40">
  <path d="M 343 114 L 404 114 L 404 175 L 343 175 Z M 343 114 "/>
</clipPath>
<clipPath id="clip41">
  <path d="M 500 250 C 500 388.070312 388.070312 500 250 500 C 111.929688 500 0 388.070312 0 250 C 0 111.929688 111.929688 0 250 0 C 388.070312 0 500 111.929688 500 250 "/>
</clipPath>
<clipPath id="clip42">
  <path d="M 340 96 L 401 96 L 401 157 L 340 157 Z M 340 96 "/>
</clipPath>
<clipPath id="clip43">
  <path d="M 500 250 C 500 388.070312 388.070312 500 250 500 C 111.929688 500 0 388.070312 0 250 C 0 111.929688 111.929688 0 250 0 C 388.070312 0 500 111.929688 500 250 "/>
</clipPath>
<clipPath id="clip44">
  <path d="M 218 360 L 279 360 L 279 421 L 218 421 Z M 218 360 "/>
</clipPath>
<clipPath id="clip45">
  <path d="M 500 250 C 500 388.070312 388.070312 500 250 500 C 111.929688 500 0 388.070312 0 250 C 0 111.929688 111.929688 0 250 0 C 388.070312 0 500 111.929688 500 250 "/>
</clipPath>
<clipPath id="clip46">
  <path d="M 263 304 L 324 304 L 324 365 L 263 365 Z M 263 304 "/>
</clipPath>
<clipPath id="clip47">
  <path d="M 500 250 C 500 388.070312 388.070312 500 250 500 C 111.929688 500 0 388.070312 0 250 C 0 111.929688 111.929688 0 250 0 C 388.070312 0 500 111.929688 500 250 "/>
</clipPath>
<clipPath id="clip48">
  <path d="M 118 98 L 179 98 L 179 159 L 118 159 Z M 118 98 "/>
</clipPath>
<clipPath id="clip49">
  <path d="M 500 250 C 500 388.070312 388.070312 500 250 500 C 111.929688 500 0 388.070312 0 250 C 0 111.929688 111.929688 0 250 0 C 388.070312 0 500 111.929688 500 250 "/>
</clipPath>
<clipPath id="clip50">
  <path d="M 298 45 L 359 45 L 359 106 L 298 106 Z M 298 45 "/>
</clipPath>
<clipPath id="clip51">
  <path d="M 500 250 C 500 388.070312 388.070312 500 250 500 C 111.929688 500 0 388.070312 0 250 C 0 111.929688 111.929688 0 250 0 C 388.070312 0 500 111.929688 500 250 "/>
</clipPath>
<clipPath id="clip52">
  <path d="M 347 102 L 408 102 L 408 163 L 347 163 Z M 347 102 "/>
</clipPath>
<clipPath id="clip53">
  <path d="M 500 250 C 500 388.070312 388.070312 500 250 500 C 111.929688 500 0 388.070312 0 250 C 0 111.929688 111.929688 0 250 0 C 388.070312 0 500 111.929688 500 250 "/>
</clipPath>
<clipPath id="clip54">
  <path d="M 353 145 L 414 145 L 414 206 L 353 206 Z M 353 145 "/>
</clipPath>
<clipPath id="clip55">
  <path d="M 500 250 C 500 388.070312 388.070312 500 250 500 C 111.929688 500 0 388.070312 0 250 C 0 111.929688 111.929688 0 250 0 C 388.070312 0 500 111.929688 500 250 "/>
</clipPath>
<clipPath id="clip56">
  <path d="M 234 306 L 295 306 L 295 367 L 234 367 Z M 234 306 "/>
</clipPath>
<clipPath id="clip57">
  <path d="M 500 250 C 500 388.070312 388.070312 500 250 500 C 111.929688 500 0 388.070312 0 250 C 0 111.929688 111.929688 0 250 0 C 388.070312 0 500 111.929688 500 250 "/>
</clipPath>
<clipPath id="clip58">
  <path d="M 197 317 L 258 317 L 258 378 L 197 378 Z M 197 317 "/>
</clipPath>
<clipPath id="clip59">
  <path d="M 500 250 C 500 388.070312 388.070312 500 250 500 C 111.929688 500 0 388.070312 0 250 C 0 111.929688 111.929688 0 250 0 C 388.070312 0 500 111.929688 500 250 "/>
</clipPath>
<clipPath id="clip60">
  <path d="M 239 305 L 300 305 L 300 366 L 239 366 Z M 239 305 "/>
</clipPath>
<clipPath id="clip61">
  <path d="M 500 250 C 500 388.070312 388.070312 500 250 500 C 111.929688 500 0 388.070312 0 250 C 0 111.929688 111.929688 0 250 0 C 388.070312 0 500 111.929688 500 250 "/>
</clipPath>
<clipPath id="clip62">
  <path d="M 164 127 L 225 127 L 225 188 L 164 188 Z M 164 127 "/>
</clipPath>
<clipPath id="clip63">
  <path d="M 500 250 C 500 388.070312 388.070312 500 250 500 C 111.929688 500 0 388.070312 0 250 C 0 111.929688 111.929688 0 250 0 C 388.070312 0 500 111.929688 500 250 "/>
</clipPath>
<clipPath id="clip64">
  <path d="M 160 161 L 174 161 L 174 176 L 160 176 Z M 160 161 "/>
</clipPath>
<clipPath id="clip65">
  <path d="M 500 250 C 500 388.070312 388.070312 500 250 500 C 111.929688 500 0 388.070312 0 250 C 0 111.929688 111.929688 0 250 0 C 388.070312 0 500 111.929688 500 250 "/>
</clipPath>
<clipPath id="clip66">
  <path d="M 173 180 L 187 180 L 187 195 L 173 195 Z M 173 180 "/>
</clipPath>
<clipPath id="clip67">
  <path d="M 500 250 C 500 388.070312 388.070312 500 250 500 C 111.929688 500 0 388.070312 0 250 C 0 111.929688 111.929688 0 250 0 C 388.070312 0 500 111.929688 500 250 "/>
</clipPath>
<clipPath id="clip68">
  <path d="M 185 199 L 199 199 L 199 213 L 185 213 Z M 185 199 "/>
</clipPath>
<clipPath id="clip69">
  <path d="M 500 250 C 500 388.070312 388.070312 500 250 500 C 111.929688 500 0 388.070312 0 250 C 0 111.929688 111.929688 0 250 0 C 388.070312 0 500 111.929688 500 250 "/>
</clipPath>
<clipPath id="clip70">
  <path d="M 165 206 L 256 206 L 256 297 L 165 297 Z M 165 206 "/>
</clipPath>
<clipPath id="clip71">
  <path d="M 500 250 C 500 388.070312 388.070312 500 250 500 C 111.929688 500 0 388.070312 0 250 C 0 111.929688 111.929688 0 250 0 C 388.070312 0 500 111.929688 500 250 "/>
</clipPath>
</defs>
<g id="surface1859">
<g clip-path="url(#clip1)" clip-rule="nonzero">
<path style="fill:none;stroke-width:2;stroke-linecap:butt;stroke-linejoin:miter;stroke:rgb(25.1%,38.8%,84.7%);stroke-opacity:1;stroke-miterlimit:10;" d="M 500 250 C 500 388.070312 388.070312 500 250 500 C 111.929688 500 0 388.070312 0 250 C 0 111.929688 111.929688 0 250 0 C 388.070312 0 500 111.929688 500 250 "/>
</g>
<g clip-path="url(#clip2)" clip-rule="nonzero">
<g clip-path="url(#clip3)" clip-rule="nonzero">
<path style="fill:none;stroke-width:6.666667;stroke-linecap:butt;stroke-linejoin:miter;stroke:rgb(25.1%,38.8%,84.7%);stroke-opacity:0.5;stroke-miterlimit:10;" d="M -26.492188 370.148438 C -41.652344 371.113281 -32.277344 375.355469 -20.78125 364.863281 C -9.429688 354.503906 -26.566406 369.917969 -15.070312 359.722656 C -3.71875 349.65625 -20.851562 364.632812 -9.355469 354.730469 C 1.996094 344.949219 -15.140625 359.492188 -3.644531 349.882812 C 7.707031 340.386719 -9.425781 354.5 2.066406 345.175781 C 13.421875 335.964844 -3.714844 349.652344 7.777344 340.613281 C 19.132812 331.683594 2 344.949219 13.492188 336.191406 C 24.847656 327.535156 7.714844 340.386719 19.203125 331.90625 C 30.558594 323.527344 13.425781 335.964844 24.914062 327.761719 C 36.273438 319.648438 19.140625 331.679688 30.625 323.75 C 41.988281 315.90625 24.851562 327.535156 36.339844 319.875 C 47.699219 312.296875 30.566406 323.523438 42.050781 316.132812 C 53.414062 308.8125 36.28125 319.648438 47.761719 312.519531 C 59.128906 305.460938 41.992188 315.90625 53.472656 309.039062 C 64.839844 302.234375 47.707031 312.296875 59.183594 305.683594 C 70.554688 299.132812 53.421875 308.8125 64.898438 302.457031 C 76.269531 296.15625 59.132812 305.460938 70.609375 299.355469 C 81.980469 293.304688 64.847656 302.234375 76.320312 296.378906 C 87.695312 290.570312 70.5625 299.136719 82.03125 293.523438 C 93.410156 287.957031 76.273438 296.160156 87.746094 290.789062 C 99.121094 285.460938 81.988281 293.304688 93.457031 288.175781 C 104.835938 283.082031 87.703125 290.574219 99.167969 285.675781 C 110.550781 280.816406 93.417969 287.957031 104.878906 283.296875 C 116.261719 278.667969 99.128906 285.464844 110.59375 281.03125 C 121.976562 276.628906 104.84375 283.085938 116.304688 278.878906 C 127.691406 274.699219 110.558594 280.820312 122.015625 276.839844 C 133.40625 272.882812 116.269531 278.671875 127.726562 274.910156 C 139.117188 271.167969 121.984375 276.632812 133.4375 273.089844 C 144.832031 269.5625 127.699219 274.703125 139.152344 271.375 C 150.546875 268.0625 133.414062 272.886719 144.863281 269.769531 C 156.261719 266.664062 139.125 271.175781 150.574219 268.265625 C 161.972656 265.367188 144.839844 269.570312 156.285156 266.867188 C 167.6875 264.171875 150.554688 268.070312 162 265.566406 C 173.402344 263.074219 156.269531 266.671875 167.710938 264.367188 C 179.113281 262.074219 161.980469 265.375 173.421875 263.269531 C 184.828125 261.167969 167.695312 264.179688 179.132812 262.265625 C 190.542969 260.359375 173.410156 263.082031 184.847656 261.359375 C 196.253906 259.640625 179.121094 262.082031 190.558594 260.546875 C 201.96875 259.011719 184.835938 261.175781 196.269531 259.824219 C 207.683594 258.472656 190.546875 260.367188 201.980469 259.195312 C 213.394531 258.023438 196.261719 259.648438 207.691406 258.652344 C 219.109375 257.660156 201.976562 259.019531 213.40625 258.203125 C 224.824219 257.382812 207.6875 258.484375 219.117188 257.835938 C 230.535156 257.1875 213.402344 258.03125 224.828125 257.554688 C 236.25 257.078125 219.113281 257.667969 230.539062 257.355469 C 241.960938 257.042969 224.828125 257.390625 236.253906 257.242188 C 247.675781 257.089844 230.539062 257.199219 241.964844 257.207031 C 253.386719 257.214844 236.253906 257.085938 247.675781 257.25 C 259.101562 257.417969 241.964844 257.054688 253.386719 257.375 C 264.8125 257.691406 247.679688 257.101562 259.101562 257.570312 C 270.527344 258.042969 253.390625 257.226562 264.8125 257.84375 C 276.238281 258.460938 259.105469 257.425781 270.523438 258.1875 C 281.953125 258.953125 264.816406 257.703125 276.234375 258.605469 C 287.664062 259.511719 270.53125 258.050781 281.945312 259.09375 C 293.378906 260.136719 276.242188 258.472656 287.660156 259.648438 C 299.089844 260.828125 281.953125 258.960938 293.371094 260.273438 C 304.800781 261.582031 287.667969 259.519531 299.082031 260.960938 C 310.515625 262.402344 293.378906 260.144531 304.792969 261.710938 C 316.226562 263.28125 299.089844 260.835938 310.507812 262.527344 C 321.9375 264.21875 304.804688 261.59375 316.21875 263.402344 C 327.652344 265.21875 310.515625 262.410156 321.929688 264.339844 C 333.363281 266.269531 316.226562 263.289062 327.640625 265.332031 C 339.074219 267.378906 321.941406 264.230469 333.355469 266.382812 C 344.789062 268.542969 327.652344 265.226562 339.066406 267.488281 C 350.5 269.757812 333.363281 266.28125 344.777344 268.648438 C 356.210938 271.019531 339.074219 267.390625 350.488281 269.859375 C 361.921875 272.335938 344.789062 268.550781 356.199219 271.121094 C 367.636719 273.699219 350.5 269.765625 361.914062 272.433594 C 373.347656 275.105469 356.210938 271.03125 367.625 273.792969 C 379.058594 276.558594 361.921875 272.34375 373.335938 275.195312 C 384.769531 278.054688 367.636719 273.707031 379.046875 276.648438 C 390.484375 279.589844 373.347656 275.113281 384.761719 278.140625 C 396.195312 281.167969 379.058594 276.566406 390.472656 279.671875 C 401.90625 282.785156 384.769531 278.0625 396.183594 281.25 C 407.617188 284.4375 390.480469 279.601562 401.894531 282.863281 C 413.328125 286.128906 396.195312 281.179688 407.609375 284.511719 C 419.039062 287.851562 401.90625 282.792969 413.320312 286.199219 C 424.753906 289.605469 407.617188 284.449219 419.03125 287.917969 C 430.464844 291.394531 413.328125 286.136719 424.742188 289.671875 C 436.175781 293.210938 419.039062 287.859375 430.453125 291.457031 C 441.886719 295.054688 424.75 289.617188 436.167969 293.269531 C 447.597656 296.929688 430.460938 291.402344 441.878906 295.113281 C 453.308594 298.824219 436.175781 293.21875 447.589844 296.980469 C 459.023438 300.746094 441.886719 295.066406 453.300781 298.875 C 464.734375 302.6875 447.597656 296.9375 459.015625 300.792969 C 470.445312 304.652344 453.308594 298.832031 464.726562 302.730469 C 476.15625 306.636719 459.019531 300.753906 470.4375 304.691406 C 481.867188 308.636719 464.730469 302.695312 476.148438 306.671875 C 487.578125 310.652344 470.441406 304.660156 481.863281 308.671875 C 493.289062 312.683594 476.15625 306.644531 487.574219 310.683594 C 499 314.726562 481.867188 308.644531 493.285156 312.710938 C 504.714844 316.785156 487.578125 310.660156 498.996094 314.753906 C 510.425781 318.851562 493.289062 312.691406 504.707031 316.808594 C 516.136719 320.925781 499 314.738281 510.421875 318.871094 C 521.847656 323.011719 504.710938 316.792969 516.132812 320.945312 C 527.558594 325.097656 510.421875 318.859375 521.84375 323.023438 C 533.269531 327.191406 516.132812 320.9375 527.554688 325.109375 C 538.980469 329.289062 521.84375 323.019531 533.269531 327.199219 C 544.691406 331.382812 550.863281 328.382812 538.980469 329.292969 "/>
</g>
</g>
<g clip-path="url(#clip4)" clip-rule="nonzero">
<g clip-path="url(#clip5)" clip-rule="nonzero">
<path style=" stroke:none;fill-rule:nonzero;fill:rgb(22%,59.6%,14.9%);fill-opacity:0.5;" d="M 391.605469 166.539062 C 391.605469 183.109375 378.175781 196.539062 361.605469 196.539062 C 345.039062 196.539062 331.605469 183.109375 331.605469 166.539062 C 331.605469 149.972656 345.039062 136.539062 361.605469 136.539062 C 378.175781 136.539062 391.605469 149.972656 391.605469 166.539062 "/>
</g>
</g>
<g clip-path="url(#clip6)" clip-rule="nonzero">
<g clip-path="url(#clip7)" clip-rule="nonzero">
<path style=" stroke:none;fill-rule:nonzero;fill:rgb(79.6%,23.5%,20%);fill-opacity:0.5;" d="M 303.335938 324.75 C 303.335938 341.316406 289.90625 354.75 273.335938 354.75 C 256.769531 354.75 243.335938 341.316406 243.335938 324.75 C 243.335938 308.179688 256.769531 294.75 273.335938 294.75 C 289.90625 294.75 303.335938 308.179688 303.335938 324.75 "/>
</g>
</g>
<g clip-path="url(#clip8)" clip-rule="nonzero">
<g clip-path="url(#clip9)" clip-rule="nonzero">
<path style=" stroke:none;fill-rule:nonzero;fill:rgb(58.4%,34.5%,69.8%);fill-opacity:0.5;" d="M 146.792969 98.464844 C 146.792969 115.035156 133.359375 128.464844 116.792969 128.464844 C 100.222656 128.464844 86.792969 115.035156 86.792969 98.464844 C 86.792969 81.898438 100.222656 68.464844 116.792969 68.464844 C 133.359375 68.464844 146.792969 81.898438 146.792969 98.464844 "/>
</g>
</g>
<g clip-path="url(#clip10)" clip-rule="nonzero">
<g clip-path="url(#clip11)" clip-rule="nonzero">
<path style=" stroke:none;fill-rule:nonzero;fill:rgb(79.6%,23.5%,20%);fill-opacity:0.5;" d="M 267.324219 348.683594 C 267.324219 365.25 253.890625 378.683594 237.324219 378.683594 C 220.753906 378.683594 207.324219 365.25 207.324219 348.683594 C 207.324219 332.113281 220.753906 318.683594 237.324219 318.683594 C 253.890625 318.683594 267.324219 332.113281 267.324219 348.683594 "/>
</g>
</g>
<g clip-path="url(#clip12)" clip-rule="nonzero">
<g clip-path="url(#clip13)" clip-rule="nonzero">
<path style=" stroke:none;fill-rule:nonzero;fill:rgb(58.4%,34.5%,69.8%);fill-opacity:0.5;" d="M 180.699219 135.707031 C 180.699219 152.273438 167.269531 165.707031 150.699219 165.707031 C 134.132812 165.707031 120.699219 152.273438 120.699219 135.707031 C 120.699219 119.136719 134.132812 105.707031 150.699219 105.707031 C 167.269531 105.707031 180.699219 119.136719 180.699219 135.707031 "/>
</g>
</g>
<g clip-path="url(#clip14)" clip-rule="nonzero">
<g clip-path="url(#clip15)" clip-rule="nonzero">
<path style=" stroke:none;fill-rule:nonzero;fill:rgb(22%,59.6%,14.9%);fill-opacity:0.5;" d="M 354.257812 132.773438 C 354.257812 149.339844 340.824219 162.773438 324.257812 162.773438 C 307.6875 162.773438 294.257812 149.339844 294.257812 132.773438 C 294.257812 116.203125 307.6875 102.773438 324.257812 102.773438 C 340.824219 102.773438 354.257812 116.203125 354.257812 132.773438 "/>
</g>
</g>
<g clip-path="url(#clip16)" clip-rule="nonzero">
<g clip-path="url(#clip17)" clip-rule="nonzero">
<path style=" stroke:none;fill-rule:nonzero;fill:rgb(58.4%,34.5%,69.8%);fill-opacity:0.5;" d="M 132.457031 146.175781 C 132.457031 162.742188 119.027344 176.175781 102.457031 176.175781 C 85.890625 176.175781 72.457031 162.742188 72.457031 146.175781 C 72.457031 129.605469 85.890625 116.175781 102.457031 116.175781 C 119.027344 116.175781 132.457031 129.605469 132.457031 146.175781 "/>
</g>
</g>
<g clip-path="url(#clip18)" clip-rule="nonzero">
<g clip-path="url(#clip19)" clip-rule="nonzero">
<path style=" stroke:none;fill-rule:nonzero;fill:rgb(22%,59.6%,14.9%);fill-opacity:0.5;" d="M 392.851562 127.96875 C 392.851562 144.535156 379.421875 157.96875 362.851562 157.96875 C 346.285156 157.96875 332.851562 144.535156 332.851562 127.96875 C 332.851562 111.398438 346.285156 97.96875 362.851562 97.96875 C 379.421875 97.96875 392.851562 111.398438 392.851562 127.96875 "/>
</g>
</g>
<g clip-path="url(#clip20)" clip-rule="nonzero">
<g clip-path="url(#clip21)" clip-rule="nonzero">
<path style=" stroke:none;fill-rule:nonzero;fill:rgb(58.4%,34.5%,69.8%);fill-opacity:0.5;" d="M 197.355469 159.015625 C 197.355469 175.585938 183.925781 189.015625 167.355469 189.015625 C 150.789062 189.015625 137.355469 175.585938 137.355469 159.015625 C 137.355469 142.449219 150.789062 129.015625 167.355469 129.015625 C 183.925781 129.015625 197.355469 142.449219 197.355469 159.015625 "/>
</g>
</g>
<g clip-path="url(#clip22)" clip-rule="nonzero">
<g clip-path="url(#clip23)" clip-rule="nonzero">
<path style=" stroke:none;fill-rule:nonzero;fill:rgb(79.6%,23.5%,20%);fill-opacity:0.5;" d="M 240.628906 348.671875 C 240.628906 365.242188 227.195312 378.671875 210.628906 378.671875 C 194.058594 378.671875 180.628906 365.242188 180.628906 348.671875 C 180.628906 332.101562 194.058594 318.671875 210.628906 318.671875 C 227.195312 318.671875 240.628906 332.101562 240.628906 348.671875 "/>
</g>
</g>
<g clip-path="url(#clip24)" clip-rule="nonzero">
<g clip-path="url(#clip25)" clip-rule="nonzero">
<path style=" stroke:none;fill-rule:nonzero;fill:rgb(58.4%,34.5%,69.8%);fill-opacity:0.5;" d="M 169.164062 142.890625 C 169.164062 159.460938 155.730469 172.890625 139.164062 172.890625 C 122.59375 172.890625 109.164062 159.460938 109.164062 142.890625 C 109.164062 126.324219 122.59375 112.890625 139.164062 112.890625 C 155.730469 112.890625 169.164062 126.324219 169.164062 142.890625 "/>
</g>
</g>
<g clip-path="url(#clip26)" clip-rule="nonzero">
<g clip-path="url(#clip27)" clip-rule="nonzero">
<path style=" stroke:none;fill-rule:nonzero;fill:rgb(79.6%,23.5%,20%);fill-opacity:0.5;" d="M 320.953125 370.746094 C 320.953125 387.316406 307.523438 400.746094 290.953125 400.746094 C 274.386719 400.746094 260.953125 387.316406 260.953125 370.746094 C 260.953125 354.179688 274.386719 340.746094 290.953125 340.746094 C 307.523438 340.746094 320.953125 354.179688 320.953125 370.746094 "/>
</g>
</g>
<g clip-path="url(#clip28)" clip-rule="nonzero">
<g clip-path="url(#clip29)" clip-rule="nonzero">
<path style=" stroke:none;fill-rule:nonzero;fill:rgb(79.6%,23.5%,20%);fill-opacity:0.5;" d="M 303.390625 367.734375 C 303.390625 384.304688 289.960938 397.734375 273.390625 397.734375 C 256.820312 397.734375 243.390625 384.304688 243.390625 367.734375 C 243.390625 351.167969 256.820312 337.734375 273.390625 337.734375 C 289.960938 337.734375 303.390625 351.167969 303.390625 367.734375 "/>
</g>
</g>
<g clip-path="url(#clip30)" clip-rule="nonzero">
<g clip-path="url(#clip31)" clip-rule="nonzero">
<path style=" stroke:none;fill-rule:nonzero;fill:rgb(58.4%,34.5%,69.8%);fill-opacity:0.5;" d="M 162.503906 125.570312 C 162.503906 142.140625 149.070312 155.570312 132.503906 155.570312 C 115.933594 155.570312 102.503906 142.140625 102.503906 125.570312 C 102.503906 109 115.933594 95.570312 132.503906 95.570312 C 149.070312 95.570312 162.503906 109 162.503906 125.570312 "/>
</g>
</g>
<g clip-path="url(#clip32)" clip-rule="nonzero">
<g clip-path="url(#clip33)" clip-rule="nonzero">
<path style=" stroke:none;fill-rule:nonzero;fill:rgb(58.4%,34.5%,69.8%);fill-opacity:0.5;" d="M 186.335938 180.28125 C 186.335938 196.847656 172.902344 210.28125 156.335938 210.28125 C 139.765625 210.28125 126.335938 196.847656 126.335938 180.28125 C 126.335938 163.710938 139.765625 150.28125 156.335938 150.28125 C 172.902344 150.28125 186.335938 163.710938 186.335938 180.28125 "/>
</g>
</g>
<g clip-path="url(#clip34)" clip-rule="nonzero">
<g clip-path="url(#clip35)" clip-rule="nonzero">
<path style=" stroke:none;fill-rule:nonzero;fill:rgb(22%,59.6%,14.9%);fill-opacity:0.5;" d="M 416.988281 177.339844 C 416.988281 193.910156 403.558594 207.339844 386.988281 207.339844 C 370.421875 207.339844 356.988281 193.910156 356.988281 177.339844 C 356.988281 160.773438 370.421875 147.339844 386.988281 147.339844 C 403.558594 147.339844 416.988281 160.773438 416.988281 177.339844 "/>
</g>
</g>
<g clip-path="url(#clip36)" clip-rule="nonzero">
<g clip-path="url(#clip37)" clip-rule="nonzero">
<path style=" stroke:none;fill-rule:nonzero;fill:rgb(22%,59.6%,14.9%);fill-opacity:0.5;" d="M 401.402344 124.222656 C 401.402344 140.789062 387.972656 154.222656 371.402344 154.222656 C 354.835938 154.222656 341.402344 140.789062 341.402344 124.222656 C 341.402344 107.652344 354.835938 94.222656 371.402344 94.222656 C 387.972656 94.222656 401.402344 107.652344 401.402344 124.222656 "/>
</g>
</g>
<g clip-path="url(#clip38)" clip-rule="nonzero">
<g clip-path="url(#clip39)" clip-rule="nonzero">
<path style=" stroke:none;fill-rule:nonzero;fill:rgb(79.6%,23.5%,20%);fill-opacity:0.5;" d="M 325.734375 395.261719 C 325.734375 411.832031 312.300781 425.261719 295.734375 425.261719 C 279.164062 425.261719 265.734375 411.832031 265.734375 395.261719 C 265.734375 378.695312 279.164062 365.261719 295.734375 365.261719 C 312.300781 365.261719 325.734375 378.695312 325.734375 395.261719 "/>
</g>
</g>
<g clip-path="url(#clip40)" clip-rule="nonzero">
<g clip-path="url(#clip41)" clip-rule="nonzero">
<path style=" stroke:none;fill-rule:nonzero;fill:rgb(22%,59.6%,14.9%);fill-opacity:0.5;" d="M 403.105469 144.300781 C 403.105469 160.871094 389.675781 174.300781 373.105469 174.300781 C 356.535156 174.300781 343.105469 160.871094 343.105469 144.300781 C 343.105469 127.734375 356.535156 114.300781 373.105469 114.300781 C 389.675781 114.300781 403.105469 127.734375 403.105469 144.300781 "/>
</g>
</g>
<g clip-path="url(#clip42)" clip-rule="nonzero">
<g clip-path="url(#clip43)" clip-rule="nonzero">
<path style=" stroke:none;fill-rule:nonzero;fill:rgb(22%,59.6%,14.9%);fill-opacity:0.5;" d="M 400.578125 126.148438 C 400.578125 142.71875 387.148438 156.148438 370.578125 156.148438 C 354.011719 156.148438 340.578125 142.71875 340.578125 126.148438 C 340.578125 109.582031 354.011719 96.148438 370.578125 96.148438 C 387.148438 96.148438 400.578125 109.582031 400.578125 126.148438 "/>
</g>
</g>
<g clip-path="url(#clip44)" clip-rule="nonzero">
<g clip-path="url(#clip45)" clip-rule="nonzero">
<path style=" stroke:none;fill-rule:nonzero;fill:rgb(79.6%,23.5%,20%);fill-opacity:0.5;" d="M 278.839844 390.074219 C 278.839844 406.644531 265.410156 420.074219 248.839844 420.074219 C 232.273438 420.074219 218.839844 406.644531 218.839844 390.074219 C 218.839844 373.507812 232.273438 360.074219 248.839844 360.074219 C 265.410156 360.074219 278.839844 373.507812 278.839844 390.074219 "/>
</g>
</g>
<g clip-path="url(#clip46)" clip-rule="nonzero">
<g clip-path="url(#clip47)" clip-rule="nonzero">
<path style=" stroke:none;fill-rule:nonzero;fill:rgb(79.6%,23.5%,20%);fill-opacity:0.5;" d="M 323.199219 334.53125 C 323.199219 351.101562 309.769531 364.53125 293.199219 364.53125 C 276.632812 364.53125 263.199219 351.101562 263.199219 334.53125 C 263.199219 317.964844 276.632812 304.53125 293.199219 304.53125 C 309.769531 304.53125 323.199219 317.964844 323.199219 334.53125 "/>
</g>
</g>
<g clip-path="url(#clip48)" clip-rule="nonzero">
<g clip-path="url(#clip49)" clip-rule="nonzero">
<path style=" stroke:none;fill-rule:nonzero;fill:rgb(58.4%,34.5%,69.8%);fill-opacity:0.5;" d="M 178.289062 128.878906 C 178.289062 145.449219 164.859375 158.878906 148.289062 158.878906 C 131.722656 158.878906 118.289062 145.449219 118.289062 128.878906 C 118.289062 112.3125 131.722656 98.878906 148.289062 98.878906 C 164.859375 98.878906 178.289062 112.3125 178.289062 128.878906 "/>
</g>
</g>
<g clip-path="url(#clip50)" clip-rule="nonzero">
<g clip-path="url(#clip51)" clip-rule="nonzero">
<path style=" stroke:none;fill-rule:nonzero;fill:rgb(22%,59.6%,14.9%);fill-opacity:0.5;" d="M 358.859375 75.226562 C 358.859375 91.796875 345.425781 105.226562 328.859375 105.226562 C 312.289062 105.226562 298.859375 91.796875 298.859375 75.226562 C 298.859375 58.660156 312.289062 45.226562 328.859375 45.226562 C 345.425781 45.226562 358.859375 58.660156 358.859375 75.226562 "/>
</g>
</g>
<g clip-path="url(#clip52)" clip-rule="nonzero">
<g clip-path="url(#clip53)" clip-rule="nonzero">
<path style=" stroke:none;fill-rule:nonzero;fill:rgb(22%,59.6%,14.9%);fill-opacity:0.5;" d="M 407.65625 132.414062 C 407.65625 148.980469 394.226562 162.414062 377.65625 162.414062 C 361.089844 162.414062 347.65625 148.980469 347.65625 132.414062 C 347.65625 115.84375 361.089844 102.414062 377.65625 102.414062 C 394.226562 102.414062 407.65625 115.84375 407.65625 132.414062 "/>
</g>
</g>
<g clip-path="url(#clip54)" clip-rule="nonzero">
<g clip-path="url(#clip55)" clip-rule="nonzero">
<path style=" stroke:none;fill-rule:nonzero;fill:rgb(22%,59.6%,14.9%);fill-opacity:0.5;" d="M 413.554688 175.703125 C 413.554688 192.273438 400.125 205.703125 383.554688 205.703125 C 366.988281 205.703125 353.554688 192.273438 353.554688 175.703125 C 353.554688 159.136719 366.988281 145.703125 383.554688 145.703125 C 400.125 145.703125 413.554688 159.136719 413.554688 175.703125 "/>
</g>
</g>
<g clip-path="url(#clip56)" clip-rule="nonzero">
<g clip-path="url(#clip57)" clip-rule="nonzero">
<path style=" stroke:none;fill-rule:nonzero;fill:rgb(79.6%,23.5%,20%);fill-opacity:0.5;" d="M 294.378906 336.398438 C 294.378906 352.96875 280.949219 366.398438 264.378906 366.398438 C 247.8125 366.398438 234.378906 352.96875 234.378906 336.398438 C 234.378906 319.832031 247.8125 306.398438 264.378906 306.398438 C 280.949219 306.398438 294.378906 319.832031 294.378906 336.398438 "/>
</g>
</g>
<g clip-path="url(#clip58)" clip-rule="nonzero">
<g clip-path="url(#clip59)" clip-rule="nonzero">
<path style=" stroke:none;fill-rule:nonzero;fill:rgb(79.6%,23.5%,20%);fill-opacity:0.5;" d="M 257.464844 347.503906 C 257.464844 364.074219 244.03125 377.503906 227.464844 377.503906 C 210.894531 377.503906 197.464844 364.074219 197.464844 347.503906 C 197.464844 330.9375 210.894531 317.503906 227.464844 317.503906 C 244.03125 317.503906 257.464844 330.9375 257.464844 347.503906 "/>
</g>
</g>
<g clip-path="url(#clip60)" clip-rule="nonzero">
<g clip-path="url(#clip61)" clip-rule="nonzero">
<path style=" stroke:none;fill-rule:nonzero;fill:rgb(79.6%,23.5%,20%);fill-opacity:0.5;" d="M 299.398438 335.527344 C 299.398438 352.097656 285.964844 365.527344 269.398438 365.527344 C 252.828125 365.527344 239.398438 352.097656 239.398438 335.527344 C 239.398438 318.960938 252.828125 305.527344 269.398438 305.527344 C 285.964844 305.527344 299.398438 318.960938 299.398438 335.527344 "/>
</g>
</g>
<g clip-path="url(#clip62)" clip-rule="nonzero">
<g clip-path="url(#clip63)" clip-rule="nonzero">
<path style=" stroke:none;fill-rule:nonzero;fill:rgb(58.4%,34.5%,69.8%);fill-opacity:0.5;" d="M 224.277344 157.445312 C 224.277344 174.011719 210.84375 187.445312 194.277344 187.445312 C 177.707031 187.445312 164.277344 174.011719 164.277344 157.445312 C 164.277344 140.875 177.707031 127.445312 194.277344 127.445312 C 210.84375 127.445312 224.277344 140.875 224.277344 157.445312 "/>
</g>
</g>
<g clip-path="url(#clip64)" clip-rule="nonzero">
<g clip-path="url(#clip65)" clip-rule="nonzero">
<path style=" stroke:none;fill-rule:nonzero;fill:rgb(58.4%,34.5%,69.8%);fill-opacity:0.5;" d="M 173.8125 168.613281 C 173.8125 172.296875 170.828125 175.28125 167.144531 175.28125 C 163.464844 175.28125 160.480469 172.296875 160.480469 168.613281 C 160.480469 164.933594 163.464844 161.949219 167.144531 161.949219 C 170.828125 161.949219 173.8125 164.933594 173.8125 168.613281 "/>
</g>
</g>
<g clip-path="url(#clip66)" clip-rule="nonzero">
<g clip-path="url(#clip67)" clip-rule="nonzero">
<path style=" stroke:none;fill-rule:nonzero;fill:rgb(58.4%,34.5%,69.8%);fill-opacity:0.5;" d="M 186.417969 187.503906 C 186.417969 191.1875 183.433594 194.171875 179.753906 194.171875 C 176.070312 194.171875 173.085938 191.1875 173.085938 187.503906 C 173.085938 183.824219 176.070312 180.839844 179.753906 180.839844 C 183.433594 180.839844 186.417969 183.824219 186.417969 187.503906 "/>
</g>
</g>
<g clip-path="url(#clip68)" clip-rule="nonzero">
<g clip-path="url(#clip69)" clip-rule="nonzero">
<path style=" stroke:none;fill-rule:nonzero;fill:rgb(58.4%,34.5%,69.8%);fill-opacity:0.5;" d="M 198.84375 206.300781 C 198.84375 209.980469 195.859375 212.96875 192.175781 212.96875 C 188.496094 212.96875 185.511719 209.980469 185.511719 206.300781 C 185.511719 202.617188 188.496094 199.632812 192.175781 199.632812 C 195.859375 199.632812 198.84375 202.617188 198.84375 206.300781 "/>
</g>
</g>
<g clip-path="url(#clip70)" clip-rule="nonzero">
<g clip-path="url(#clip71)" clip-rule="nonzero">
<path style=" stroke:none;fill-rule:nonzero;fill:rgb(79.6%,23.5%,20%);fill-opacity:1;" d="M 255.726562 251.523438 C 255.726562 276.375 235.578125 296.523438 210.726562 296.523438 C 185.875 296.523438 165.726562 276.375 165.726562 251.523438 C 165.726562 226.671875 185.875 206.523438 210.726562 206.523438 C 235.578125 206.523438 255.726562 226.671875 255.726562 251.523438 "/>
</g>
</g>
</g>
</svg>
